%FSTAX23Y23*%
%MOIN*%
%SFA1B1*%

%IPPOS*%
%AMD187*
4,1,4,0.002500,-0.008600,0.008600,-0.002500,-0.002500,0.008600,-0.008600,0.002500,0.002500,-0.008600,0.0*
%
%AMD188*
4,1,4,0.013900,0.000000,0.000000,0.013900,-0.013900,0.000000,0.000000,-0.013900,0.013900,0.000000,0.0*
%
%ADD102R,0.013900X0.009900*%
%ADD104R,0.009900X0.013900*%
%ADD110R,0.011100X0.017000*%
%ADD112R,0.008700X0.015800*%
%ADD113R,0.019800X0.019800*%
%ADD114R,0.031600X0.031600*%
%ADD115R,0.070900X0.043400*%
%ADD117R,0.017000X0.011100*%
%ADD119R,0.011900X0.027600*%
%ADD120R,0.037400X0.039400*%
%ADD121R,0.037300X0.039400*%
%ADD124R,0.031600X0.031600*%
%ADD125R,0.043400X0.070900*%
%ADD183O,0.078700X0.059100*%
%ADD184R,0.015800X0.008700*%
%ADD185R,0.019800X0.019800*%
%ADD186R,0.098500X0.098500*%
G04~CAMADD=187~9~0.0~0.0~87.0~158.0~0.0~0.0~0~0.0~0.0~0.0~0.0~0~0.0~0.0~0.0~0.0~0~0.0~0.0~0.0~225.0~172.0~171.0*
%ADD187D187*%
G04~CAMADD=188~10~0.0~198.0~0.0~0.0~0.0~0.0~0~0.0~0.0~0.0~0.0~0~0.0~0.0~0.0~0.0~0~0.0~0.0~0.0~315.0~198.0~0.0*
%ADD188D188*%
%ADD189R,0.040100X0.030100*%
%ADD190R,0.053200X0.015800*%
%ADD191R,0.061100X0.074900*%
%ADD192R,0.055200X0.063100*%
%ADD193R,0.033500X0.037500*%
%LNvapeix_mini_pcb-1*%
%LPD*%
G54D102*
X02884Y03424D03*
Y03443D03*
X02225Y03312D03*
Y03293D03*
X02246Y03312D03*
Y03293D03*
X0343Y03249D03*
Y0323D03*
X03448Y03426D03*
Y03445D03*
G54D104*
X0363Y0325D03*
X03649D03*
X03629Y0328D03*
X03648D03*
X04141Y03315D03*
X0416D03*
X02239Y03543D03*
X0222D03*
X02181D03*
X022D03*
X02205Y03689D03*
X02186D03*
X03275Y033D03*
X03256D03*
X03451Y03252D03*
X0347D03*
X03091Y03429D03*
X0311D03*
Y03306D03*
X03091D03*
X03275Y03252D03*
X03256D03*
G54D110*
X0409Y03344D03*
X0411D03*
X04153Y03224D03*
X04173D03*
X0396Y03328D03*
X0398D03*
X04238Y03176D03*
X04258D03*
X04129Y03163D03*
X04109D03*
X04245Y03556D03*
X04225D03*
X0408Y0354D03*
X041D03*
X04245Y0352D03*
X04225D03*
X02846Y035D03*
X02826D03*
X04161Y03346D03*
X04141D03*
Y03381D03*
X04161D03*
X04378Y03341D03*
X04398D03*
G54D112*
X04132Y0357D03*
X04148D03*
X0418Y03527D03*
X04164D03*
G54D113*
X0414Y03539D03*
X04173Y03556D03*
G54D114*
X04422Y03555D03*
G54D115*
X04351Y03555D03*
G54D117*
X04164Y03497D03*
Y03477D03*
X04148Y03607D03*
Y03627D03*
X04024Y03612D03*
Y03592D03*
X03927Y03612D03*
Y03592D03*
X03827Y03612D03*
Y03592D03*
X04047Y03259D03*
Y03279D03*
X0419Y03085D03*
Y03105D03*
X04029Y03415D03*
Y03395D03*
X04101Y03477D03*
Y03497D03*
X04063Y03415D03*
Y03395D03*
X02846Y03444D03*
Y03464D03*
G54D119*
X04365Y03447D03*
X04339D03*
X04288D03*
X04314D03*
Y03375D03*
X04288D03*
X04339D03*
X04365D03*
G54D120*
X04352Y03426D03*
G54D121*
X04301Y03426D03*
G54D124*
X02986Y03515D03*
X02327Y03576D03*
G54D125*
X02986Y03586D03*
X02327Y03505D03*
G54D183*
X02072Y03234D03*
Y03493D03*
G54D184*
X04204Y03191D03*
Y03175D03*
X04161Y03143D03*
Y03159D03*
X04015Y03311D03*
Y03327D03*
X04058Y03359D03*
Y03343D03*
G54D185*
X04173Y03183D03*
X0419Y0315D03*
X04046Y03319D03*
X04029Y03352D03*
G54D186*
X02798Y03656D03*
X02656Y03655D03*
G54D187*
X043Y03291D03*
X04311Y03302D03*
X04364Y03294D03*
X04352Y03283D03*
G54D188*
X04326Y03275D03*
X04338Y0331D03*
G54D189*
X02171Y03614D03*
X02254Y03577D03*
Y03652D03*
G54D190*
X02178Y03364D03*
Y03338D03*
Y03312D03*
Y03389D03*
Y03415D03*
G54D191*
X02072Y03316D03*
Y03411D03*
G54D192*
X02169Y0349D03*
Y03238D03*
G54D193*
X03079Y03395D03*
X03124D03*
Y03338D03*
X03079D03*
M02*