%FSTAX23Y23*%
%MOIN*%
%SFA1B1*%

%IPPOS*%
%ADD20R,0.031500X0.063000*%
%ADD101R,0.031600X0.029600*%
%ADD102R,0.013900X0.009900*%
%ADD103R,0.070900X0.039400*%
%ADD104R,0.009900X0.013900*%
%ADD105R,0.017800X0.039400*%
%ADD106R,0.013900X0.013900*%
%ADD107R,0.039400X0.031600*%
%ADD108R,0.031600X0.086700*%
%ADD109R,0.035500X0.027600*%
%ADD110R,0.011100X0.017000*%
%ADD111R,0.023700X0.021700*%
%ADD112R,0.008700X0.015800*%
%ADD113R,0.019800X0.019800*%
%ADD114R,0.031600X0.031600*%
%ADD115R,0.070900X0.043400*%
%ADD116R,0.055200X0.108300*%
%ADD117R,0.017000X0.011100*%
%ADD118R,0.019800X0.023700*%
%ADD119R,0.011900X0.027600*%
%ADD120R,0.037400X0.039400*%
%ADD121R,0.037300X0.039400*%
%ADD122O,0.067000X0.011900*%
%ADD123R,0.021700X0.023700*%
%ADD124R,0.031600X0.031600*%
%ADD125R,0.043400X0.070900*%
%ADD126R,0.102400X0.023700*%
%ADD127R,0.031600X0.013900*%
%ADD128R,0.098500X0.051300*%
%ADD129O,0.025700X0.008000*%
%ADD130O,0.008000X0.025700*%
%ADD131R,0.185100X0.185100*%
%LNvapeix_mini_pcb-1*%
%LPD*%
G54D20*
X03141Y03058D03*
X03008D03*
G54D101*
X03433Y03149D03*
Y03096D03*
G54D102*
X03389Y03096D03*
Y03115D03*
X02289Y03275D03*
Y03256D03*
X02288Y03458D03*
Y03439D03*
X02552Y03563D03*
Y03544D03*
X0223Y0348D03*
Y03499D03*
X03389Y03137D03*
Y03156D03*
G54D103*
X03629Y03208D03*
Y03307D03*
G54D104*
X03159Y03302D03*
X0314D03*
Y03275D03*
X03159D03*
X0316Y03146D03*
X03141D03*
X03121Y03169D03*
X0314D03*
G54D105*
X03175Y03227D03*
X03106Y03226D03*
G54D106*
X0314Y03214D03*
Y03239D03*
G54D107*
X02998Y03257D03*
G54D108*
X02942Y0332D03*
X03053D03*
G54D109*
X04177Y03664D03*
Y03624D03*
X04117Y03664D03*
Y03624D03*
X04178Y03109D03*
Y03069D03*
X04118Y03109D03*
Y03069D03*
G54D110*
X02845Y0357D03*
X02865D03*
X04293Y03202D03*
X04273D03*
X043Y03435D03*
X0428D03*
X04311Y03376D03*
X04291D03*
X02463Y03616D03*
X02483D03*
X02534D03*
X02514D03*
X0328Y03171D03*
X0326D03*
G54D111*
X02898Y03688D03*
X02859D03*
G54D112*
X02876Y03648D03*
X0286D03*
X02828Y03605D03*
X02844D03*
G54D113*
X02868Y03617D03*
X02835Y03634D03*
G54D114*
X02761Y03667D03*
G54D115*
X0269Y03667D03*
G54D116*
X02833Y03229D03*
X02676D03*
X02833Y03494D03*
X02676D03*
X04141Y03234D03*
X03984D03*
X04141Y03499D03*
X03984D03*
G54D117*
X0424Y03435D03*
Y03455D03*
X0431Y033D03*
Y0332D03*
X0435Y03307D03*
Y03287D03*
X02276Y03565D03*
Y03545D03*
G54D118*
X02354Y03336D03*
Y03375D03*
G54D119*
X02271Y03688D03*
X02296D03*
X02347D03*
X02322D03*
Y03616D03*
X02347D03*
X02296D03*
X02271D03*
G54D120*
X02283Y03667D03*
G54D121*
X02334Y03667D03*
G54D122*
X02499Y03485D03*
Y03505D03*
Y03525D03*
Y03544D03*
Y03564D03*
X02338Y03485D03*
Y03505D03*
Y03525D03*
Y03544D03*
Y03564D03*
G54D123*
X0223Y03529D03*
Y03568D03*
G54D124*
X02172Y03525D03*
G54D125*
X02172Y03596D03*
G54D126*
X02175Y03265D03*
Y03454D03*
G54D127*
X02265Y0334D03*
Y03359D03*
Y03379D03*
Y03399D03*
Y0332D03*
G54D128*
X02179Y03394D03*
X02179Y03324D03*
G54D129*
X03481Y03252D03*
Y03268D03*
Y03283D03*
Y03299D03*
Y03315D03*
Y03331D03*
Y03346D03*
Y03362D03*
Y03378D03*
Y03394D03*
Y03409D03*
Y03425D03*
X03242D03*
Y03409D03*
Y03394D03*
Y03378D03*
Y03362D03*
Y03346D03*
Y03331D03*
Y03315D03*
Y03299D03*
Y03283D03*
Y03268D03*
Y03252D03*
G54D130*
X03448Y03458D03*
X03432D03*
X03417D03*
X03401D03*
X03385D03*
X03369D03*
X03354D03*
X03338D03*
X03322D03*
X03306D03*
X03291D03*
X03275D03*
Y03219D03*
X03291D03*
X03306D03*
X03322D03*
X03338D03*
X03354D03*
X03369D03*
X03385D03*
X03401D03*
X03417D03*
X03432D03*
X03448D03*
G54D131*
X03362Y03339D03*
M02*