%FSTAX23Y23*%
%MOIN*%
%SFA1B1*%

%IPPOS*%
%ADD14C,0.007900*%
%ADD18R,0.039400X0.031500*%
%ADD20R,0.031500X0.063000*%
%ADD71C,0.051200*%
%ADD74C,0.023600*%
%ADD132C,0.024000*%
%ADD133R,0.035400X0.033500*%
%ADD134R,0.017700X0.013800*%
%ADD135R,0.074800X0.043300*%
%ADD136C,0.011800*%
%ADD137R,0.013800X0.017700*%
%ADD138R,0.021700X0.043300*%
%ADD139R,0.017700X0.017700*%
%ADD140R,0.043300X0.035400*%
%ADD141R,0.035400X0.090600*%
%ADD142R,0.015000X0.020900*%
%ADD143R,0.027600X0.025600*%
%ADD144R,0.016500X0.023600*%
%ADD145R,0.023600X0.023600*%
%ADD146R,0.035400X0.035400*%
%ADD147R,0.074800X0.047200*%
%ADD148R,0.059100X0.112200*%
%ADD149C,0.035400*%
%ADD150R,0.020900X0.015000*%
%ADD151R,0.023600X0.027600*%
%ADD152R,0.015700X0.031500*%
%ADD153R,0.041200X0.043300*%
%ADD154R,0.041100X0.043300*%
%ADD155O,0.070900X0.015700*%
%ADD156R,0.025600X0.027600*%
%ADD157R,0.035400X0.035400*%
%ADD158R,0.047200X0.074800*%
%ADD159R,0.106300X0.027600*%
%ADD160R,0.035400X0.017700*%
%ADD161R,0.102400X0.055100*%
%ADD162O,0.029500X0.011800*%
%ADD163O,0.011800X0.029500*%
%ADD164R,0.189000X0.189000*%
%ADD165C,0.063000*%
%ADD166C,0.063900*%
%ADD167R,0.051200X0.051200*%
%ADD168O,0.066900X0.039400*%
%ADD169O,0.102400X0.122000*%
%ADD170C,0.181100*%
%ADD171C,0.013000*%
%LNvapeix_mini_pcb-1*%
%LPD*%
G54D14*
X02162Y03536D03*
X02141D03*
X0212Y03521D03*
X02119Y03543D03*
X02295Y03416D03*
X02317Y03294D03*
X02328Y03316D03*
X02288Y03301D03*
X03369Y03518D03*
X03332Y03501D03*
X0329Y03195D03*
X03194Y03323D03*
X03524Y03325D03*
X0356Y03343D03*
X04288Y03375D03*
X02265Y03506D03*
X02463Y03593D03*
X02276Y03545D03*
X02169Y0349D03*
X02072Y03411D03*
Y03316D03*
X02169Y03238D03*
X02136Y03614D03*
X02169Y03689D03*
X02205Y03671D03*
X03124Y03338D03*
X02615Y0369D03*
Y03616D03*
X02696D03*
X02694Y0369D03*
X02761Y03667D03*
X0267Y03664D03*
X02897Y03648D03*
X02253Y03688D03*
X02254Y03658D03*
X02294Y0369D03*
X02296Y03656D03*
X02276Y03674D03*
X02499Y03564D03*
X02248Y03616D03*
X02384Y03505D03*
X02378Y03455D03*
X02289Y03242D03*
X02325Y0334D03*
X02323Y03379D03*
X0324Y03171D03*
X03242Y03236D03*
X03463Y03219D03*
X03175Y03227D03*
X03174Y03146D03*
X03389Y03172D03*
X03116Y03123D03*
X0293D03*
Y03023D03*
Y03098D03*
Y03073D03*
Y03048D03*
X02958Y03123D03*
X0299D03*
X03023D03*
X03054D03*
X03086D03*
X03069Y03145D03*
X03037D03*
X03006D03*
X02973D03*
X02941D03*
X03099D03*
X03195Y03123D03*
X03167D03*
X03223Y03046D03*
Y03071D03*
Y03096D03*
Y03021D03*
Y03123D03*
X03248Y03137D03*
Y03039D03*
Y0311D03*
Y03085D03*
Y0306D03*
X03277Y03122D03*
Y0302D03*
Y03095D03*
Y0307D03*
Y03045D03*
X03309Y03039D03*
Y03111D03*
Y03087D03*
Y03064D03*
X02905Y03061D03*
Y03086D03*
Y03111D03*
Y03038D03*
Y03138D03*
X02875Y03045D03*
Y0307D03*
Y03095D03*
Y0302D03*
X02846Y0306D03*
Y03085D03*
Y0311D03*
Y03035D03*
Y03137D03*
X02875Y03122D03*
Y03149D03*
X03116Y03193D03*
X03036Y03197D03*
X0299Y03168D03*
X03071Y03194D03*
X02962Y03166D03*
X0297Y03196D03*
X02968Y03229D03*
X03167Y03193D03*
Y03169D03*
X03034Y03256D03*
X03025Y03226D03*
X03195Y03193D03*
Y03168D03*
X02964Y03259D03*
X03248Y03019D03*
X02905Y03018D03*
X02942Y03184D03*
X02941Y03217D03*
X03117Y03263D03*
X03179Y03264D03*
Y0329D03*
X03117Y03287D03*
X02924Y03159D03*
X03209Y03145D03*
X03218Y0318D03*
X02905Y03177D03*
X03106Y03226D03*
X02811Y03118D03*
Y03092D03*
Y03017D03*
Y03042D03*
Y03067D03*
X03309Y0302D03*
X03676Y0325D03*
Y0328D03*
X03629Y03306D03*
X03628Y03208D03*
X03584Y0326D03*
X02676Y03229D03*
X03984Y03234D03*
Y03499D03*
X02819Y03588D03*
X02833Y03229D03*
X02905Y03425D03*
X04285Y03315D03*
X0412Y03591D03*
X04314Y03355D03*
X04198Y03527D03*
X0416Y03403D03*
X04265Y03556D03*
X03995Y03302D03*
X04083Y03373D03*
X04085Y03664D03*
X04118Y03069D03*
X04073Y03471D03*
X04172Y03069D03*
X04039Y03439D03*
X04118Y03109D03*
X04138Y0314D03*
X04204Y03208D03*
X04266Y0352D03*
X0428Y03489D03*
X04075Y03592D03*
X04199Y03556D03*
X04118Y03626D03*
X042Y03582D03*
X04089Y03163D03*
X04143Y03257D03*
X0419Y03289D03*
X04281Y03165D03*
X04239Y03267D03*
X04226Y03455D03*
X04001Y03414D03*
X04081Y03642D03*
X04391Y03313D03*
X0439Y03279D03*
X04371Y03264D03*
X04232Y03664D03*
X03215Y03268D03*
X0308Y03391D03*
X03214Y03306D03*
X03485Y03237D03*
X02745Y03539D03*
X02593Y03509D03*
X03036Y0359D03*
X02662Y03515D03*
X02696Y03459D03*
X02876Y03535D03*
X02846Y03464D03*
X02817Y03465D03*
X03468Y03445D03*
X0411Y03369D03*
X03977Y03609D03*
X04191Y03476D03*
X03505Y03438D03*
X03521Y0342D03*
X03543Y03417D03*
X04242Y03334D03*
X04139Y03516D03*
X04285Y03275D03*
X03512Y03305D03*
X03577Y03386D03*
X03355Y03192D03*
X03321Y03183D03*
X04322Y0353D03*
X04383Y03532D03*
X04318Y03567D03*
X04382Y03569D03*
X04352Y0353D03*
X04321Y0349D03*
X04385D03*
X04349Y03574D03*
X0449Y03371D03*
X04489Y0343D03*
X04425Y03429D03*
X04426Y03372D03*
X02942Y0332D03*
X03054Y03309D03*
X04304Y03435D03*
X04288Y03411D03*
X04311Y03409D03*
X02271Y03622D03*
X02225Y03603D03*
X04161Y03346D03*
X032Y03372D03*
X03154Y03349D03*
X02354Y03309D03*
X04398Y03361D03*
X04396Y03388D03*
X04362Y03389D03*
Y03365D03*
X0438Y03375D03*
G54D18*
X04177Y03664D03*
Y03624D03*
X04117Y03664D03*
Y03624D03*
X04178Y03109D03*
Y03069D03*
X04118Y03109D03*
Y03069D03*
G54D20*
X03141Y03058D03*
X03008D03*
G54D71*
X02502Y03675D03*
G54D74*
X02507Y03433D03*
X02555Y03412D03*
X02574Y03364D03*
X02555Y03314D03*
X02506Y03295D03*
X02456Y03314D03*
X02435Y03364D03*
X02457Y03416D03*
X03768D03*
X03746Y03364D03*
X03767Y03314D03*
X03817Y03295D03*
X03866Y03314D03*
X03885Y03364D03*
X03866Y03412D03*
X03818Y03433D03*
G54D132*
X03556Y03284D02*
D01*
X03556Y03284*
X03556Y03285*
X03556Y03286*
X03556Y03287*
X03555Y03287*
X03555Y03288*
X03555Y03289*
X03554Y03289*
X03554Y0329*
X03554Y03291*
X03553Y03291*
X03552Y03292*
X03552Y03292*
X03551Y03293*
X03551Y03293*
X0355Y03293*
X03549Y03294*
X03548Y03294*
X03548Y03294*
X03547Y03294*
X03546Y03294*
X03545Y03294*
X03545*
X03544Y03294*
X03543Y03294*
X03542Y03294*
X03542Y03294*
X03541Y03294*
X0354Y03293*
X0354Y03293*
X03539Y03293*
X03538Y03292*
X03538Y03292*
X03537Y03291*
X03537Y03291*
X03536Y0329*
X03536Y03289*
X03535Y03289*
X03535Y03288*
X03535Y03287*
X03535Y03287*
X03534Y03286*
X03534Y03285*
X03534Y03284*
X03534Y03284*
X03534Y03283*
X03534Y03282*
X03534Y03281*
X03535Y0328*
X03535Y0328*
X03535Y03279*
X03535Y03278*
X03536Y03278*
X03536Y03277*
X03537Y03276*
X03537Y03276*
X03538Y03275*
X03538Y03275*
X03539Y03274*
X0354Y03274*
X0354Y03274*
X03541Y03273*
X03542Y03273*
X03542Y03273*
X03543Y03273*
X03544Y03273*
X03545Y03273*
X03545*
X03546Y03273*
X03547Y03273*
X03548Y03273*
X03548Y03273*
X03549Y03273*
X0355Y03274*
X03551Y03274*
X03551Y03274*
X03552Y03275*
X03552Y03275*
X03553Y03276*
X03554Y03276*
X03554Y03277*
X03554Y03278*
X03555Y03278*
X03555Y03279*
X03555Y0328*
X03556Y0328*
X03556Y03281*
X03556Y03282*
X03556Y03283*
X03556Y03284*
X03558D02*
D01*
X03558Y03284*
X03558Y03285*
X03558Y03286*
X03558Y03287*
X03558Y03287*
X03557Y03288*
X03557Y03289*
X03557Y03289*
X03556Y0329*
X03556Y03291*
X03555Y03291*
X03555Y03292*
X03554Y03292*
X03553Y03293*
X03553Y03293*
X03552Y03293*
X03551Y03294*
X03551Y03294*
X0355Y03294*
X03549Y03294*
X03548Y03294*
X03548Y03294*
X03547*
X03546Y03294*
X03545Y03294*
X03545Y03294*
X03544Y03294*
X03543Y03294*
X03542Y03293*
X03542Y03293*
X03541Y03293*
X03541Y03292*
X0354Y03292*
X03539Y03291*
X03539Y03291*
X03538Y0329*
X03538Y03289*
X03538Y03289*
X03537Y03288*
X03537Y03287*
X03537Y03287*
X03537Y03286*
X03536Y03285*
X03536Y03284*
X03536Y03284*
X03536Y03283*
X03536Y03282*
X03537Y03281*
X03537Y0328*
X03537Y0328*
X03537Y03279*
X03538Y03278*
X03538Y03278*
X03538Y03277*
X03539Y03276*
X03539Y03276*
X0354Y03275*
X03541Y03275*
X03541Y03274*
X03542Y03274*
X03542Y03274*
X03543Y03273*
X03544Y03273*
X03545Y03273*
X03545Y03273*
X03546Y03273*
X03547Y03273*
X03548*
X03548Y03273*
X03549Y03273*
X0355Y03273*
X03551Y03273*
X03551Y03273*
X03552Y03274*
X03553Y03274*
X03553Y03274*
X03554Y03275*
X03555Y03275*
X03555Y03276*
X03556Y03276*
X03556Y03277*
X03557Y03278*
X03557Y03278*
X03557Y03279*
X03558Y0328*
X03558Y0328*
X03558Y03281*
X03558Y03282*
X03558Y03283*
X03558Y03284*
X03557Y03235D02*
D01*
X03557Y03235*
X03557Y03236*
X03557Y03237*
X03557Y03238*
X03556Y03238*
X03556Y03239*
X03556Y0324*
X03555Y0324*
X03555Y03241*
X03555Y03242*
X03554Y03242*
X03553Y03243*
X03553Y03243*
X03552Y03244*
X03552Y03244*
X03551Y03244*
X0355Y03245*
X03549Y03245*
X03549Y03245*
X03548Y03245*
X03547Y03245*
X03546Y03245*
X03546*
X03545Y03245*
X03544Y03245*
X03543Y03245*
X03543Y03245*
X03542Y03245*
X03541Y03244*
X03541Y03244*
X0354Y03244*
X03539Y03243*
X03539Y03243*
X03538Y03242*
X03538Y03242*
X03537Y03241*
X03537Y0324*
X03536Y0324*
X03536Y03239*
X03536Y03238*
X03536Y03238*
X03535Y03237*
X03535Y03236*
X03535Y03235*
X03535Y03235*
X03535Y03234*
X03535Y03233*
X03535Y03232*
X03536Y03231*
X03536Y03231*
X03536Y0323*
X03536Y03229*
X03537Y03229*
X03537Y03228*
X03538Y03227*
X03538Y03227*
X03539Y03226*
X03539Y03226*
X0354Y03225*
X03541Y03225*
X03541Y03225*
X03542Y03224*
X03543Y03224*
X03543Y03224*
X03544Y03224*
X03545Y03224*
X03546Y03224*
X03546*
X03547Y03224*
X03548Y03224*
X03549Y03224*
X03549Y03224*
X0355Y03224*
X03551Y03225*
X03552Y03225*
X03552Y03225*
X03553Y03226*
X03553Y03226*
X03554Y03227*
X03555Y03227*
X03555Y03228*
X03555Y03229*
X03556Y03229*
X03556Y0323*
X03556Y03231*
X03557Y03231*
X03557Y03232*
X03557Y03233*
X03557Y03234*
X03557Y03235*
X03559D02*
D01*
X03559Y03235*
X03559Y03236*
X03559Y03237*
X03559Y03238*
X03559Y03238*
X03558Y03239*
X03558Y0324*
X03558Y0324*
X03557Y03241*
X03557Y03242*
X03556Y03242*
X03556Y03243*
X03555Y03243*
X03554Y03244*
X03554Y03244*
X03553Y03244*
X03552Y03245*
X03552Y03245*
X03551Y03245*
X0355Y03245*
X03549Y03245*
X03549Y03245*
X03548*
X03547Y03245*
X03546Y03245*
X03546Y03245*
X03545Y03245*
X03544Y03245*
X03543Y03244*
X03543Y03244*
X03542Y03244*
X03542Y03243*
X03541Y03243*
X0354Y03242*
X0354Y03242*
X03539Y03241*
X03539Y0324*
X03539Y0324*
X03538Y03239*
X03538Y03238*
X03538Y03238*
X03538Y03237*
X03537Y03236*
X03537Y03235*
X03537Y03235*
X03537Y03234*
X03537Y03233*
X03538Y03232*
X03538Y03231*
X03538Y03231*
X03538Y0323*
X03539Y03229*
X03539Y03229*
X03539Y03228*
X0354Y03227*
X0354Y03227*
X03541Y03226*
X03542Y03226*
X03542Y03225*
X03543Y03225*
X03543Y03225*
X03544Y03224*
X03545Y03224*
X03546Y03224*
X03546Y03224*
X03547Y03224*
X03548Y03224*
X03549*
X03549Y03224*
X0355Y03224*
X03551Y03224*
X03552Y03224*
X03552Y03224*
X03553Y03225*
X03554Y03225*
X03554Y03225*
X03555Y03226*
X03556Y03226*
X03556Y03227*
X03557Y03227*
X03557Y03228*
X03558Y03229*
X03558Y03229*
X03558Y0323*
X03559Y03231*
X03559Y03231*
X03559Y03232*
X03559Y03233*
X03559Y03234*
X03559Y03235*
X04362Y03079D02*
D01*
X04362Y03079*
X04362Y0308*
X04362Y03081*
X04361Y03082*
X04361Y03082*
X04361Y03083*
X04361Y03084*
X0436Y03084*
X0436Y03085*
X04359Y03086*
X04359Y03086*
X04358Y03087*
X04358Y03087*
X04357Y03088*
X04356Y03088*
X04356Y03088*
X04355Y03089*
X04354Y03089*
X04354Y03089*
X04353Y03089*
X04352Y03089*
X04351Y03089*
X04351*
X0435Y03089*
X04349Y03089*
X04348Y03089*
X04348Y03089*
X04347Y03089*
X04346Y03088*
X04345Y03088*
X04345Y03088*
X04344Y03087*
X04344Y03087*
X04343Y03086*
X04342Y03086*
X04342Y03085*
X04342Y03084*
X04341Y03084*
X04341Y03083*
X04341Y03082*
X0434Y03082*
X0434Y03081*
X0434Y0308*
X0434Y03079*
X0434Y03079*
X0434Y03078*
X0434Y03077*
X0434Y03076*
X0434Y03075*
X04341Y03075*
X04341Y03074*
X04341Y03073*
X04342Y03073*
X04342Y03072*
X04342Y03071*
X04343Y03071*
X04344Y0307*
X04344Y0307*
X04345Y03069*
X04345Y03069*
X04346Y03069*
X04347Y03068*
X04348Y03068*
X04348Y03068*
X04349Y03068*
X0435Y03068*
X04351Y03068*
X04351*
X04352Y03068*
X04353Y03068*
X04354Y03068*
X04354Y03068*
X04355Y03068*
X04356Y03069*
X04356Y03069*
X04357Y03069*
X04358Y0307*
X04358Y0307*
X04359Y03071*
X04359Y03071*
X0436Y03072*
X0436Y03073*
X04361Y03073*
X04361Y03074*
X04361Y03075*
X04361Y03075*
X04362Y03076*
X04362Y03077*
X04362Y03078*
X04362Y03079*
X0436D02*
D01*
X0436Y03079*
X0436Y0308*
X04359Y03081*
X04359Y03082*
X04359Y03082*
X04359Y03083*
X04358Y03084*
X04358Y03084*
X04358Y03085*
X04357Y03086*
X04357Y03086*
X04356Y03087*
X04355Y03087*
X04355Y03088*
X04354Y03088*
X04354Y03088*
X04353Y03089*
X04352Y03089*
X04351Y03089*
X04351Y03089*
X0435Y03089*
X04349Y03089*
X04348*
X04348Y03089*
X04347Y03089*
X04346Y03089*
X04345Y03089*
X04345Y03089*
X04344Y03088*
X04343Y03088*
X04343Y03088*
X04342Y03087*
X04341Y03087*
X04341Y03086*
X0434Y03086*
X0434Y03085*
X04339Y03084*
X04339Y03084*
X04339Y03083*
X04338Y03082*
X04338Y03082*
X04338Y03081*
X04338Y0308*
X04338Y03079*
X04338Y03079*
X04338Y03078*
X04338Y03077*
X04338Y03076*
X04338Y03075*
X04338Y03075*
X04339Y03074*
X04339Y03073*
X04339Y03073*
X0434Y03072*
X0434Y03071*
X04341Y03071*
X04341Y0307*
X04342Y0307*
X04343Y03069*
X04343Y03069*
X04344Y03069*
X04345Y03068*
X04345Y03068*
X04346Y03068*
X04347Y03068*
X04348Y03068*
X04348Y03068*
X04349*
X0435Y03068*
X04351Y03068*
X04351Y03068*
X04352Y03068*
X04353Y03068*
X04354Y03069*
X04354Y03069*
X04355Y03069*
X04355Y0307*
X04356Y0307*
X04357Y03071*
X04357Y03071*
X04358Y03072*
X04358Y03073*
X04358Y03073*
X04359Y03074*
X04359Y03075*
X04359Y03075*
X04359Y03076*
X0436Y03077*
X0436Y03078*
X0436Y03079*
X04282Y03649D02*
D01*
X04282Y03649*
X04282Y0365*
X04282Y03651*
X04281Y03652*
X04281Y03652*
X04281Y03653*
X04281Y03654*
X0428Y03654*
X0428Y03655*
X04279Y03656*
X04279Y03656*
X04278Y03657*
X04278Y03657*
X04277Y03658*
X04276Y03658*
X04276Y03658*
X04275Y03659*
X04274Y03659*
X04274Y03659*
X04273Y03659*
X04272Y03659*
X04271Y03659*
X04271*
X0427Y03659*
X04269Y03659*
X04268Y03659*
X04268Y03659*
X04267Y03659*
X04266Y03658*
X04265Y03658*
X04265Y03658*
X04264Y03657*
X04264Y03657*
X04263Y03656*
X04262Y03656*
X04262Y03655*
X04262Y03654*
X04261Y03654*
X04261Y03653*
X04261Y03652*
X0426Y03652*
X0426Y03651*
X0426Y0365*
X0426Y03649*
X0426Y03649*
X0426Y03648*
X0426Y03647*
X0426Y03646*
X0426Y03645*
X04261Y03645*
X04261Y03644*
X04261Y03643*
X04262Y03643*
X04262Y03642*
X04262Y03641*
X04263Y03641*
X04264Y0364*
X04264Y0364*
X04265Y03639*
X04265Y03639*
X04266Y03639*
X04267Y03638*
X04268Y03638*
X04268Y03638*
X04269Y03638*
X0427Y03638*
X04271Y03638*
X04271*
X04272Y03638*
X04273Y03638*
X04274Y03638*
X04274Y03638*
X04275Y03638*
X04276Y03639*
X04276Y03639*
X04277Y03639*
X04278Y0364*
X04278Y0364*
X04279Y03641*
X04279Y03641*
X0428Y03642*
X0428Y03643*
X04281Y03643*
X04281Y03644*
X04281Y03645*
X04281Y03645*
X04282Y03646*
X04282Y03647*
X04282Y03648*
X04282Y03649*
X0428D02*
D01*
X0428Y03649*
X0428Y0365*
X04279Y03651*
X04279Y03652*
X04279Y03652*
X04279Y03653*
X04278Y03654*
X04278Y03654*
X04278Y03655*
X04277Y03656*
X04277Y03656*
X04276Y03657*
X04275Y03657*
X04275Y03658*
X04274Y03658*
X04274Y03658*
X04273Y03659*
X04272Y03659*
X04271Y03659*
X04271Y03659*
X0427Y03659*
X04269Y03659*
X04268*
X04268Y03659*
X04267Y03659*
X04266Y03659*
X04265Y03659*
X04265Y03659*
X04264Y03658*
X04263Y03658*
X04263Y03658*
X04262Y03657*
X04261Y03657*
X04261Y03656*
X0426Y03656*
X0426Y03655*
X04259Y03654*
X04259Y03654*
X04259Y03653*
X04258Y03652*
X04258Y03652*
X04258Y03651*
X04258Y0365*
X04258Y03649*
X04258Y03649*
X04258Y03648*
X04258Y03647*
X04258Y03646*
X04258Y03645*
X04258Y03645*
X04259Y03644*
X04259Y03643*
X04259Y03643*
X0426Y03642*
X0426Y03641*
X04261Y03641*
X04261Y0364*
X04262Y0364*
X04263Y03639*
X04263Y03639*
X04264Y03639*
X04265Y03638*
X04265Y03638*
X04266Y03638*
X04267Y03638*
X04268Y03638*
X04268Y03638*
X04269*
X0427Y03638*
X04271Y03638*
X04271Y03638*
X04272Y03638*
X04273Y03638*
X04274Y03639*
X04274Y03639*
X04275Y03639*
X04275Y0364*
X04276Y0364*
X04277Y03641*
X04277Y03641*
X04278Y03642*
X04278Y03643*
X04278Y03643*
X04279Y03644*
X04279Y03645*
X04279Y03645*
X04279Y03646*
X0428Y03647*
X0428Y03648*
X0428Y03649*
G54D133*
X03433Y03149D03*
Y03096D03*
G54D134*
X03389Y03096D03*
Y03115D03*
X02289Y03275D03*
Y03256D03*
X02288Y03458D03*
Y03439D03*
X02552Y03563D03*
Y03544D03*
X0223Y0348D03*
Y03499D03*
X03389Y03137D03*
Y03156D03*
G54D135*
X03629Y03208D03*
Y03307D03*
G54D136*
X03533Y03284D03*
X0356D03*
X03534Y03235D03*
X03561D03*
X04363Y03079D03*
X04337D03*
X04283Y03649D03*
X04257D03*
X02306Y03313D03*
G54D137*
X03159Y03302D03*
X0314D03*
Y03275D03*
X03159D03*
X0316Y03146D03*
X03141D03*
X03121Y03169D03*
X0314D03*
G54D138*
X03175Y03227D03*
X03106Y03226D03*
G54D139*
X0314Y03214D03*
Y03239D03*
G54D140*
X02998Y03257D03*
G54D141*
X02942Y0332D03*
X03053D03*
G54D142*
X02845Y0357D03*
X02865D03*
X04293Y03202D03*
X04273D03*
X043Y03435D03*
X0428D03*
X04311Y03376D03*
X04291D03*
X02463Y03616D03*
X02483D03*
X02534D03*
X02514D03*
X0328Y03171D03*
X0326D03*
G54D143*
X02898Y03688D03*
X02859D03*
G54D144*
X02876Y03648D03*
X0286D03*
X02828Y03605D03*
X02844D03*
G54D145*
X02868Y03617D03*
X02835Y03634D03*
G54D146*
X02761Y03667D03*
G54D147*
X0269Y03667D03*
G54D148*
X02833Y03229D03*
X02676D03*
X02833Y03494D03*
X02676D03*
X04141Y03234D03*
X03984D03*
X04141Y03499D03*
X03984D03*
G54D149*
X04352Y03489D03*
X04241Y03391D03*
X0428Y03489D03*
X04242Y03334D03*
X04391Y03313D03*
X02593Y03509D03*
G54D150*
X0424Y03435D03*
Y03455D03*
X0431Y033D03*
Y0332D03*
X0435Y03307D03*
Y03287D03*
X02276Y03565D03*
Y03545D03*
G54D151*
X02354Y03336D03*
Y03375D03*
G54D152*
X02271Y03688D03*
X02296D03*
X02347D03*
X02322D03*
Y03616D03*
X02347D03*
X02296D03*
X02271D03*
G54D153*
X02283Y03667D03*
G54D154*
X02334Y03667D03*
G54D155*
X02499Y03485D03*
Y03505D03*
Y03525D03*
Y03544D03*
Y03564D03*
X02338Y03485D03*
Y03505D03*
Y03525D03*
Y03544D03*
Y03564D03*
G54D156*
X0223Y03529D03*
Y03568D03*
G54D157*
X02172Y03525D03*
G54D158*
X02172Y03596D03*
G54D159*
X02175Y03265D03*
Y03454D03*
G54D160*
X02265Y0334D03*
Y03359D03*
Y03379D03*
Y03399D03*
Y0332D03*
G54D161*
X02179Y03394D03*
X02179Y03324D03*
G54D162*
X03481Y03252D03*
Y03268D03*
Y03283D03*
Y03299D03*
Y03315D03*
Y03331D03*
Y03346D03*
Y03362D03*
Y03378D03*
Y03394D03*
Y03409D03*
Y03425D03*
X03242D03*
Y03409D03*
Y03394D03*
Y03378D03*
Y03362D03*
Y03346D03*
Y03331D03*
Y03315D03*
Y03299D03*
Y03283D03*
Y03268D03*
Y03252D03*
G54D163*
X03448Y03458D03*
X03432D03*
X03417D03*
X03401D03*
X03385D03*
X03369D03*
X03354D03*
X03338D03*
X03322D03*
X03306D03*
X03291D03*
X03275D03*
Y03219D03*
X03291D03*
X03306D03*
X03322D03*
X03338D03*
X03354D03*
X03369D03*
X03385D03*
X03401D03*
X03417D03*
X03432D03*
X03448D03*
G54D164*
X03362Y03339D03*
G54D165*
X03927Y03068D03*
X04026D03*
X03828D03*
X04023Y0366D03*
X03926D03*
X03828Y03659D03*
X04278Y03079D03*
X04344Y03649D03*
X04457Y034D03*
Y03479D03*
Y03322D03*
Y03243D03*
G54D166*
X02241Y0307D03*
X02341D03*
X02541D03*
X02441D03*
X03063Y03483D03*
Y03641D03*
G54D167*
X0244Y03675D03*
G54D168*
X02072Y03493D03*
Y03234D03*
G54D169*
X02075Y0308D03*
Y0365D03*
X04477Y03648D03*
Y03078D03*
G54D170*
X02505Y03363D03*
X03815D03*
G54D171*
X03432Y03268D03*
X03385D03*
X03338D03*
X03291D03*
X03432Y03315D03*
X03385D03*
X03338D03*
X03291D03*
X03432Y03362D03*
X03385D03*
X03338D03*
X03291D03*
X03432Y03409D03*
X03385D03*
X03338D03*
X03291D03*
M02*