%FSTAX23Y23*%
%MOIN*%
%SFA1B1*%

%IPPOS*%
%ADD9500C,0.007900*%
%ADD9501C,0.011800*%
%ADD9502C,0.013000*%
%ADD9503C,0.023600*%
%ADD9504C,0.035400*%
%ADD9505C,0.039400*%
%ADD9506C,0.047200*%
%ADD9507C,0.098400*%
%LNvapeix_mini_pcb-roundholes-1*%
%LPD*%
G54D9500*
X03223Y03021D03*
Y03046D03*
Y03071D03*
Y03096D03*
Y03123D03*
X03195D03*
X03167D03*
X03248Y0311D03*
Y03085D03*
Y0306D03*
Y03039D03*
Y03019D03*
X03277Y0302D03*
Y03045D03*
Y0307D03*
Y03095D03*
Y03122D03*
X03309Y03111D03*
Y03087D03*
Y03064D03*
Y03039D03*
Y0302D03*
X04118Y03069D03*
Y03109D03*
X04172Y03069D03*
X03116Y03123D03*
X03086D03*
X03054D03*
X03023D03*
X0299D03*
X02958D03*
X0293D03*
Y03098D03*
Y03073D03*
Y03048D03*
Y03023D03*
X02905Y03018D03*
Y03038D03*
Y03061D03*
Y03086D03*
Y03111D03*
X02875Y03122D03*
Y03095D03*
Y0307D03*
Y03045D03*
Y0302D03*
X02846Y03035D03*
Y0306D03*
Y03085D03*
Y0311D03*
X02811Y03118D03*
Y03092D03*
Y03067D03*
Y03042D03*
Y03017D03*
X02846Y03137D03*
X02875Y03149D03*
X02905Y03138D03*
Y03177D03*
X02924Y03159D03*
X02941Y03145D03*
X02973D03*
X02962Y03166D03*
X0299Y03168D03*
X03006Y03145D03*
X03037D03*
X03069D03*
X03099D03*
X03116Y03193D03*
X03106Y03226D03*
X03117Y03263D03*
Y03287D03*
X03124Y03338D03*
X0308Y03391D03*
X03054Y03309D03*
X03034Y03256D03*
X03025Y03226D03*
X03036Y03197D03*
X03071Y03194D03*
X0297Y03196D03*
X02968Y03229D03*
X02964Y03259D03*
X02941Y03217D03*
X02942Y03184D03*
Y0332D03*
X02905Y03425D03*
X02846Y03464D03*
X02817Y03465D03*
X02819Y03588D03*
X02876Y03535D03*
X02897Y03648D03*
X02761Y03667D03*
X02694Y0369D03*
X0267Y03664D03*
X02696Y03616D03*
X02615D03*
Y0369D03*
X02593Y03509D03*
X02662Y03515D03*
X02696Y03459D03*
X02745Y03539D03*
X02499Y03564D03*
X02463Y03593D03*
X02384Y03505D03*
X02378Y03455D03*
X02295Y03416D03*
X02323Y03379D03*
X02325Y0334D03*
X02328Y03316D03*
X02317Y03294D03*
X02288Y03301D03*
X02289Y03242D03*
X02169Y03238D03*
X02072Y03316D03*
Y03411D03*
X0212Y03521D03*
X02119Y03543D03*
X02141Y03536D03*
X02162D03*
X02169Y0349D03*
X02265Y03506D03*
X02276Y03545D03*
X02271Y03622D03*
X02248Y03616D03*
X02225Y03603D03*
X02254Y03658D03*
X02253Y03688D03*
X02276Y03674D03*
X02294Y0369D03*
X02296Y03656D03*
X02205Y03671D03*
X02169Y03689D03*
X02136Y03614D03*
X02354Y03309D03*
X02676Y03229D03*
X02833D03*
X03036Y0359D03*
X03154Y03349D03*
X03194Y03323D03*
X03214Y03306D03*
X03215Y03268D03*
X03179Y03264D03*
Y0329D03*
X03175Y03227D03*
X03167Y03193D03*
Y03169D03*
X03195Y03168D03*
Y03193D03*
X03218Y0318D03*
X0324Y03171D03*
X03248Y03137D03*
X03209Y03145D03*
X03174Y03146D03*
X03242Y03236D03*
X0329Y03195D03*
X03321Y03183D03*
X03355Y03192D03*
X03389Y03172D03*
X03463Y03219D03*
X03485Y03237D03*
X03512Y03305D03*
X03524Y03325D03*
X0356Y03343D03*
X03577Y03386D03*
X03543Y03417D03*
X03521Y0342D03*
X03505Y03438D03*
X03468Y03445D03*
X03369Y03518D03*
X03332Y03501D03*
X032Y03372D03*
X03629Y03306D03*
X03676Y0328D03*
Y0325D03*
X03628Y03208D03*
X03584Y0326D03*
X03984Y03234D03*
X03995Y03302D03*
X04001Y03414D03*
X04039Y03439D03*
X04073Y03471D03*
X04083Y03373D03*
X0411Y03369D03*
X04161Y03346D03*
X0416Y03403D03*
X04191Y03476D03*
X04226Y03455D03*
X0428Y03489D03*
X04321Y0349D03*
X04322Y0353D03*
X04352D03*
X04383Y03532D03*
X04382Y03569D03*
X04349Y03574D03*
X04318Y03567D03*
X04265Y03556D03*
X04266Y0352D03*
X04198Y03527D03*
X04199Y03556D03*
X042Y03582D03*
X0412Y03591D03*
X04118Y03626D03*
X04081Y03642D03*
X04085Y03664D03*
X04075Y03592D03*
X03977Y03609D03*
X03984Y03499D03*
X04139Y03516D03*
X04232Y03664D03*
X04304Y03435D03*
X04311Y03409D03*
X04288Y03411D03*
X04288Y03375D03*
X04314Y03355D03*
X04362Y03365D03*
Y03389D03*
X0438Y03375D03*
X04396Y03388D03*
X04398Y03361D03*
X04426Y03372D03*
X04425Y03429D03*
X04489Y0343D03*
X0449Y03371D03*
X04391Y03313D03*
X0439Y03279D03*
X04371Y03264D03*
X04285Y03275D03*
Y03315D03*
X04242Y03334D03*
X04239Y03267D03*
X0419Y03289D03*
X04143Y03257D03*
X04204Y03208D03*
X04281Y03165D03*
X04138Y0314D03*
X04089Y03163D03*
X04385Y0349D03*
G54D9501*
X02306Y03313D03*
X02456Y03314D03*
X02506Y03295D03*
X02555Y03314D03*
X02574Y03364D03*
X02555Y03412D03*
X02507Y03433D03*
X02457Y03416D03*
X02435Y03364D03*
X03746D03*
X03767Y03314D03*
X03817Y03295D03*
X03866Y03314D03*
X03885Y03364D03*
X03866Y03412D03*
X03818Y03433D03*
X03768Y03416D03*
G54D9502*
X03291Y03268D03*
X03338D03*
Y03315D03*
X03385D03*
Y03268D03*
X03432D03*
Y03315D03*
Y03362D03*
Y03409D03*
X03385D03*
Y03362D03*
X03338D03*
X03291D03*
Y03409D03*
X03338D03*
X03291Y03315D03*
G54D9503*
X0244Y03675D03*
X02502D03*
G54D9504*
X03063Y03483D03*
Y03641D03*
G54D9505*
X03828Y03068D03*
X03927D03*
X04026D03*
X04278Y03079D03*
X02541Y0307D03*
X02441D03*
X02341D03*
X02241D03*
X03828Y03659D03*
X03926Y0366D03*
X04023D03*
X04344Y03649D03*
X04457Y03479D03*
Y034D03*
Y03322D03*
Y03243D03*
G54D9506*
X04477Y03078D03*
X02075Y0308D03*
Y0365D03*
X04477Y03648D03*
G54D9507*
X02505Y03363D03*
X03815D03*
M02*