%FSTAX23Y23*%
%MOIN*%
%SFA1B1*%

%IPPOS*%
%AMD80*
4,1,4,0.002500,-0.008600,0.008600,-0.002500,-0.002500,0.008600,-0.008600,0.002500,0.002500,-0.008600,0.0*
%
%AMD81*
4,1,4,0.013900,0.000000,0.000000,0.013900,-0.013900,0.000000,0.000000,-0.013900,0.013900,0.000000,0.0*
%
%ADD12R,0.013800X0.009800*%
%ADD15R,0.009800X0.013800*%
%ADD22R,0.011000X0.016900*%
%ADD24R,0.008700X0.015700*%
%ADD25R,0.019700X0.019700*%
%ADD26R,0.031500X0.031500*%
%ADD27R,0.070900X0.043300*%
%ADD29C,0.031500*%
%ADD30R,0.016900X0.011000*%
%ADD32R,0.011800X0.027600*%
%ADD33R,0.037300X0.039400*%
%ADD34R,0.037200X0.039400*%
%ADD37R,0.031500X0.031500*%
%ADD38R,0.043300X0.070900*%
%ADD59C,0.059100*%
%ADD60C,0.060000*%
%ADD61C,0.047200*%
%ADD62R,0.047200X0.047200*%
%ADD63O,0.063000X0.035400*%
%ADD64O,0.098400X0.118100*%
%ADD65C,0.177200*%
%ADD66C,0.019700*%
%ADD77R,0.015700X0.008700*%
%ADD78R,0.019700X0.019700*%
%ADD79R,0.098400X0.098400*%
G04~CAMADD=80~9~0.0~0.0~87.0~157.0~0.0~0.0~0~0.0~0.0~0.0~0.0~0~0.0~0.0~0.0~0.0~0~0.0~0.0~0.0~225.0~172.0~171.0*
%ADD80D80*%
G04~CAMADD=81~10~0.0~196.6~0.0~0.0~0.0~0.0~0~0.0~0.0~0.0~0.0~0~0.0~0.0~0.0~0.0~0~0.0~0.0~0.0~315.0~196.6~0.0*
%ADD81D81*%
%ADD82C,0.039400*%
%ADD83R,0.040000X0.030000*%
%ADD84R,0.053200X0.015700*%
%ADD85R,0.061000X0.074800*%
%ADD86R,0.055100X0.063000*%
%ADD87R,0.033500X0.037400*%
%LNvapeix_mini_pcb-1*%
%LPD*%
G54D12*
X02884Y03424D03*
Y03443D03*
X02225Y03312D03*
Y03293D03*
X02246Y03312D03*
Y03293D03*
X0343Y03249D03*
Y0323D03*
X03448Y03426D03*
Y03445D03*
G54D15*
X0363Y0325D03*
X03649D03*
X03629Y0328D03*
X03648D03*
X04141Y03315D03*
X0416D03*
X02239Y03543D03*
X0222D03*
X02181D03*
X022D03*
X02205Y03689D03*
X02186D03*
X03275Y033D03*
X03256D03*
X03451Y03252D03*
X0347D03*
X03091Y03429D03*
X0311D03*
Y03306D03*
X03091D03*
X03275Y03252D03*
X03256D03*
G54D22*
X0409Y03344D03*
X0411D03*
X04153Y03224D03*
X04173D03*
X0396Y03328D03*
X0398D03*
X04238Y03176D03*
X04258D03*
X04129Y03163D03*
X04109D03*
X04245Y03556D03*
X04225D03*
X0408Y0354D03*
X041D03*
X04245Y0352D03*
X04225D03*
X02846Y035D03*
X02826D03*
X04161Y03346D03*
X04141D03*
Y03381D03*
X04161D03*
X04378Y03341D03*
X04398D03*
G54D24*
X04132Y0357D03*
X04148D03*
X0418Y03527D03*
X04164D03*
G54D25*
X0414Y03539D03*
X04173Y03556D03*
G54D26*
X04422Y03555D03*
G54D27*
X04351Y03555D03*
G54D29*
X04232Y03664D03*
X04181D03*
X04132D03*
X04352Y0349D03*
X02265Y03506D03*
X02327Y03634D03*
G54D30*
X04164Y03497D03*
Y03477D03*
X04148Y03607D03*
Y03627D03*
X04024Y03612D03*
Y03592D03*
X03927Y03612D03*
Y03592D03*
X03827Y03612D03*
Y03592D03*
X04047Y03259D03*
Y03279D03*
X0419Y03085D03*
Y03105D03*
X04029Y03415D03*
Y03395D03*
X04101Y03477D03*
Y03497D03*
X04063Y03415D03*
Y03395D03*
X02846Y03444D03*
Y03464D03*
G54D32*
X04365Y03447D03*
X04339D03*
X04288D03*
X04314D03*
Y03375D03*
X04288D03*
X04339D03*
X04365D03*
G54D33*
X04352Y03426D03*
G54D34*
X04301Y03426D03*
G54D37*
X02986Y03515D03*
X02327Y03576D03*
G54D38*
X02986Y03586D03*
X02327Y03505D03*
G54D59*
X03927Y03068D03*
X04026D03*
X03828D03*
X04023Y0366D03*
X03926D03*
X03828Y03659D03*
X04278Y03079D03*
X04344Y03649D03*
X04457Y034D03*
Y03479D03*
Y03322D03*
Y03243D03*
G54D60*
X02241Y0307D03*
X02341D03*
X02541D03*
X02441D03*
X03063Y03483D03*
Y03641D03*
G54D61*
X02502Y03675D03*
G54D62*
X0244Y03675D03*
G54D63*
X02072Y03493D03*
Y03234D03*
G54D64*
X02075Y0308D03*
Y0365D03*
X04477Y03648D03*
Y03078D03*
G54D65*
X02505Y03363D03*
X03815D03*
G54D66*
X02507Y03433D03*
X02555Y03412D03*
X02574Y03364D03*
X02555Y03314D03*
X02506Y03295D03*
X02456Y03314D03*
X02435Y03364D03*
X02457Y03416D03*
X03768D03*
X03746Y03364D03*
X03767Y03314D03*
X03817Y03295D03*
X03866Y03314D03*
X03885Y03364D03*
X03866Y03412D03*
X03818Y03433D03*
G54D77*
X04204Y03191D03*
Y03175D03*
X04161Y03143D03*
Y03159D03*
X04015Y03311D03*
Y03327D03*
X04058Y03359D03*
Y03343D03*
G54D78*
X04173Y03183D03*
X0419Y0315D03*
X04046Y03319D03*
X04029Y03352D03*
G54D79*
X02798Y03656D03*
X02656Y03655D03*
G54D80*
X043Y03291D03*
X04311Y03302D03*
X04364Y03294D03*
X04352Y03283D03*
G54D81*
X04326Y03275D03*
X04338Y0331D03*
G54D82*
X02306Y03313D03*
G54D83*
X02171Y03614D03*
X02254Y03577D03*
Y03652D03*
G54D84*
X02178Y03364D03*
Y03338D03*
Y03312D03*
Y03389D03*
Y03415D03*
G54D85*
X02072Y03316D03*
Y03411D03*
G54D86*
X02169Y0349D03*
Y03238D03*
G54D87*
X03079Y03395D03*
X03124D03*
Y03338D03*
X03079D03*
M02*