%FSTAX23Y23*%
%MOIN*%
%SFA1B1*%

%IPPOS*%
%ADD10C,0.006000*%
%ADD45C,0.010000*%
%ADD46C,0.005900*%
%ADD97C,0.009800*%
%ADD98C,0.003900*%
%ADD99C,0.001000*%
%ADD194C,0.006000*%
%ADD195R,0.019700X0.157500*%
%ADD196R,0.032300X0.037800*%
%LNvapeix_mini_pcb-1*%
%LPD*%
G36*
X02463Y03604D02*
X02459D01*
Y03626*
X02463*
Y03604*
G37*
G36*
X03153Y03513D02*
X03146D01*
Y03522*
X03153*
Y03513*
G37*
G36*
X03212D02*
X03203D01*
X03189Y03562*
X03198*
X03208Y03525*
X03218Y03562*
X03227*
X03212Y03513*
G37*
G36*
X02698Y03142D02*
X02694Y03138D01*
X02679Y03147*
X02688Y03133*
X02684Y03128*
X02667Y03146*
X02669Y03148*
X02683Y03135*
X02672Y03151*
X02675Y03154*
X02692Y03143*
X02678Y03157*
X0268Y0316*
X02698Y03142*
G37*
G36*
X03173Y03561D02*
X03174Y03559D01*
X03175Y03558*
X03176Y03557*
X03177Y03556*
X03177Y03555*
X03178Y03555*
X03178Y03554*
X03178Y03554*
X03179Y03553*
X0318Y03552*
X03181Y03551*
X03182Y03551*
X03183Y0355*
X03184Y0355*
X03184Y0355*
X03184Y0355*
X03184*
Y03541*
X03182Y03542*
X0318Y03543*
X03179Y03544*
X03177Y03546*
X03177Y03546*
X03176Y03547*
X03176Y03547*
X03175Y03548*
X03175Y03548*
X03175Y03548*
X03174Y03548*
X03174Y03548*
Y03513*
X03167*
Y03562*
X03173*
X03173Y03561*
G37*
G36*
X03127Y03562D02*
X03128Y03562D01*
X03129Y03562*
X0313Y03561*
X03132Y0356*
X03133Y03559*
X03134Y03558*
X03135Y03558*
X03135Y03557*
X03135Y03557*
X03136Y03557*
X03136Y03557*
Y03556*
X03136Y03555*
X03137Y03554*
X03137Y03553*
X03138Y03551*
X03138Y03548*
X03139Y03545*
X03139Y03543*
X03139Y03542*
X03139Y0354*
Y03539*
X03139Y03538*
Y03538*
Y03537*
Y03537*
Y03537*
X03139Y03534*
Y03532*
X03139Y0353*
X03139Y03528*
X03139Y03526*
X03138Y03525*
X03138Y03523*
X03138Y03522*
X03137Y03521*
X03137Y0352*
X03137Y03519*
X03136Y03518*
X03136Y03518*
X03136Y03518*
X03136Y03517*
X03136Y03517*
X03135Y03516*
X03134Y03516*
X03134Y03515*
X03133Y03514*
X03132Y03514*
X03131Y03513*
X0313Y03513*
X0313Y03513*
X03128Y03512*
X03128Y03512*
X03127Y03512*
X03127*
X03127Y03512*
X03126*
X03125Y03512*
X03124Y03512*
X03123Y03512*
X03122Y03513*
X03121Y03514*
X03119Y03515*
X03118Y03516*
X03118Y03516*
X03117Y03517*
X03117Y03517*
X03117Y03517*
X03117Y03517*
X03117Y03517*
X03116Y03519*
X03116Y0352*
X03115Y03521*
X03115Y03523*
X03114Y03526*
X03114Y03529*
X03113Y03531*
X03113Y03532*
X03113Y03534*
Y03535*
Y03536*
Y03536*
Y03537*
Y03537*
Y03537*
Y0354*
X03113Y03542*
X03113Y03544*
X03114Y03546*
X03114Y03548*
X03114Y03549*
X03115Y03551*
X03115Y03552*
X03115Y03553*
X03116Y03554*
X03116Y03555*
X03116Y03555*
X03116Y03556*
X03117Y03556*
Y03556*
X03117*
X03117Y03558*
X03118Y03558*
X03119Y03559*
X0312Y0356*
X03121Y0356*
X03121Y03561*
X03122Y03561*
X03123Y03561*
X03124Y03562*
X03125Y03562*
X03125Y03562*
X03126Y03562*
X03126*
X03127Y03562*
G37*
G36*
X02484Y03604D02*
X02481D01*
Y03621*
X02477Y03604*
X02474*
X0247Y03621*
Y03604*
X02467*
Y03626*
X02472*
X02475Y03611*
X02479Y03626*
X02484*
Y03604*
G37*
G36*
X02555Y03622D02*
X02549D01*
Y03604*
X02545*
Y03622*
X0254*
Y03626*
X02555*
Y03622*
G37*
G36*
X02519Y03604D02*
X02506D01*
Y03608*
X02516*
Y03614*
X02507*
Y03617*
X02516*
Y03622*
X02506*
Y03626*
X02519*
Y03604*
G37*
G36*
X02538D02*
X02534D01*
Y03614*
X02527*
Y03604*
X02523*
Y03626*
X02527*
Y03617*
X02534*
Y03626*
X02538*
Y03604*
G37*
G36*
X02502D02*
X02499D01*
Y03613*
X02498*
X02497Y03613*
X02497*
X02497Y03613*
X02496*
X02496Y03613*
X02496*
X02496Y03613*
X02496Y03613*
X02495Y03612*
X02495Y03612*
X02495Y03612*
X02495Y03612*
X02495Y03612*
X02495Y03612*
X02495Y03612*
X02495Y03611*
X02494Y03611*
X02494Y0361*
X02494Y0361*
X02494Y03609*
X02493Y03609*
X02493Y03609*
Y03609*
X02493Y03609*
Y03609*
X02491Y03604*
X02486*
X02488Y03608*
X02489Y03609*
X02489Y03609*
X02489Y0361*
X02489Y0361*
X02489Y0361*
X0249Y03611*
X0249Y03611*
X0249Y03611*
X0249Y03612*
X0249Y03612*
X0249*
X02491Y03612*
X02491Y03613*
X02491Y03613*
X02492Y03613*
X02492Y03613*
X02492Y03614*
X02492Y03614*
X02492*
X02492Y03614*
X02491Y03614*
X0249Y03615*
X0249Y03615*
X02489Y03615*
X02489Y03615*
X02489Y03616*
Y03616*
X02488Y03616*
X02488Y03617*
X02488Y03618*
X02488Y03618*
X02488Y03619*
X02488Y03619*
Y03619*
Y0362*
Y0362*
Y0362*
Y03621*
X02488Y03621*
X02488Y03622*
X02488Y03622*
X02488Y03623*
X02488Y03623*
X02488Y03623*
Y03623*
X02489Y03624*
X02489Y03624*
X02489Y03625*
X0249Y03625*
X0249Y03625*
X0249Y03625*
X0249*
X0249Y03626*
X02491Y03626*
X02491Y03626*
X02492Y03626*
X02492Y03626*
X02493Y03626*
X02494Y03626*
X02494*
X02494*
X02502*
Y03604*
G37*
G36*
X02776Y03252D02*
D01*
X02777Y03251*
X02778Y03251*
X02779Y03251*
X02779Y03251*
X0278Y0325*
X02781Y0325*
X02782Y03249*
X02782Y03249*
X02783Y03249*
X02783Y03248*
X02784Y03248*
X02784Y03247*
X02785Y03247*
X02785Y03247*
X02785Y03247*
Y03247*
X02786Y03246*
X02787Y03245*
X02787Y03244*
X02788Y03244*
X02788Y03243*
X02788Y03242*
X02789Y03242*
X02789Y03241*
X02789Y0324*
X02789Y0324*
X0279Y03239*
X0279Y03239*
X0279Y03239*
Y03238*
Y03238*
Y03238*
X0279Y03237*
X0279Y03237*
X0279Y03236*
X0279Y03235*
X02789Y03235*
X02789Y03234*
X02789Y03233*
X02789Y03233*
X02788Y03232*
X02788Y03232*
X02788Y03232*
X02788Y03231*
X02787Y03231*
X02787Y03231*
X02787Y03231*
X02786Y0323*
X02786Y0323*
X02785Y03229*
X02784Y03229*
X02784Y03229*
X02783Y03229*
X02783Y03228*
X02783Y03228*
X02783Y03228*
X02783*
X02783*
X02782Y03228*
X02781Y03228*
X0278Y03228*
X02779Y03228*
X02778Y03228*
X02778Y03229*
X02778Y03229*
X02777Y03229*
X02777*
X02777*
Y03229*
X02777Y03229*
X02776Y03229*
X02775Y0323*
X02774Y03231*
X02773Y03231*
X02773Y03232*
X02772Y03232*
X02772Y03232*
X02772Y03233*
X02771Y03233*
X02771Y03233*
X02771Y03233*
X02771*
X0277Y03234*
X0277Y03235*
X02769Y03235*
X02769Y03236*
X02768Y03237*
X02768Y03238*
X02767Y03238*
X02767Y03239*
X02767Y0324*
X02767Y0324*
X02767Y03241*
X02767Y03241*
X02766Y03241*
Y03242*
Y03242*
X02766Y03243*
X02766Y03243*
X02767Y03244*
X02767Y03245*
X02767Y03245*
X02767Y03246*
X02767Y03246*
X02768Y03247*
X02768Y03247*
X02768Y03248*
X02768Y03248*
X02769Y03248*
X02769Y03248*
X02769Y03249*
X02769Y03249*
Y03249*
X0277Y03249*
X0277Y0325*
X02771Y0325*
X02772Y03251*
X02772Y03251*
X02773Y03251*
X02773Y03251*
X02774Y03251*
X02774Y03251*
X02775*
X02775*
X02776Y03252*
X02776*
X02776*
X02776*
G37*
G36*
X02772Y03222D02*
X02776Y03226D01*
X02779Y03223*
X02767Y03212*
X02764Y03215*
X02769Y03219*
X02754Y03233*
X02757Y03236*
X02772Y03222*
G37*
G36*
X0245Y03626D02*
X02451Y03626D01*
X02452Y03626*
X02452Y03626*
X02452Y03626*
X02453Y03626*
X02453Y03626*
X02454Y03625*
X02454Y03625*
X02454Y03625*
X02455Y03624*
X02455Y03624*
X02455Y03624*
X02455Y03624*
X02455Y03624*
X02456Y03623*
X02456Y03622*
X02456Y03622*
X02456Y03621*
X02456Y03621*
Y03621*
Y0362*
Y0362*
Y0362*
Y0362*
X02456Y03619*
X02456Y03619*
X02456Y03618*
X02456Y03618*
X02456Y03618*
X02456Y03617*
Y03617*
X02455Y03617*
X02455Y03616*
X02455Y03616*
X02454Y03616*
X02454Y03616*
X02454Y03615*
X02454Y03615*
X02454*
X02453Y03615*
X02453Y03615*
X02452Y03614*
X02452Y03614*
X02451Y03614*
X02451Y03614*
X02451*
X02451Y03614*
X0245*
X0245Y03614*
X0245Y03614*
X02449Y03613*
X02449Y03613*
X02449Y03613*
X02448Y03613*
X02448Y03613*
X02448Y03613*
X02448*
X02447Y03613*
X02447Y03613*
X02447*
X02447Y03612*
X02447Y03612*
X02446Y03612*
X02446Y03612*
X02446Y03612*
X02446*
Y03612*
X02446Y03611*
X02446Y03611*
X02446Y03611*
Y03611*
X02446Y03611*
Y0361*
Y0361*
X02446Y0361*
X02446Y0361*
X02446Y03609*
X02446Y03609*
X02446Y03609*
X02447Y03608*
X02447Y03608*
X02447Y03608*
X02447Y03608*
X02448Y03608*
X02448Y03607*
X02449*
X02449Y03607*
X02449*
X0245Y03607*
X0245Y03608*
X02451Y03608*
X02451Y03608*
X02452Y03608*
X02452Y03609*
X02452Y03609*
X02453Y0361*
X02453Y0361*
X02453Y0361*
X02453Y03611*
X02453Y03611*
Y03611*
Y03611*
X02453Y03612*
X02457Y03611*
X02457Y03611*
X02457Y0361*
X02456Y03609*
X02456Y03609*
X02456Y03608*
X02456Y03608*
X02456Y03607*
X02455Y03607*
X02455Y03606*
X02455Y03606*
X02454Y03605*
X02453Y03605*
X02453Y03605*
X02452Y03604*
X02452Y03604*
X02451Y03604*
X0245Y03604*
X0245Y03604*
X0245*
X02449*
X02449*
X02448Y03604*
X02447*
X02447Y03604*
X02446Y03604*
X02446Y03604*
X02446Y03604*
X02445Y03605*
X02445Y03605*
X02445Y03605*
X02444Y03605*
X02444Y03605*
X02444Y03605*
X02444Y03605*
X02444Y03606*
X02443Y03606*
X02443Y03606*
X02443Y03607*
X02443Y03607*
X02442Y03608*
X02442Y03609*
X02442Y03609*
Y03609*
X02442Y0361*
Y0361*
Y0361*
Y0361*
Y0361*
Y03611*
X02442Y03612*
X02442Y03612*
X02442Y03613*
X02442Y03613*
X02443Y03614*
X02443Y03614*
Y03614*
X02443Y03614*
X02443Y03615*
X02444Y03615*
X02444Y03615*
X02444Y03616*
X02444Y03616*
X02445Y03616*
X02445Y03616*
X02445Y03616*
X02446Y03617*
X02446Y03617*
X02447Y03617*
X02448Y03617*
X02448Y03618*
X02448Y03618*
X02448Y03618*
X02448*
X02449*
X02449Y03618*
X02449Y03618*
X0245Y03618*
X0245Y03618*
X02451Y03618*
X02451Y03619*
X02451Y03619*
X02451Y03619*
X02452Y03619*
X02452Y03619*
X02452Y03619*
X02452*
X02452Y03619*
X02452Y0362*
X02452Y0362*
X02453Y0362*
X02453Y0362*
Y0362*
Y03621*
Y03621*
Y03621*
X02453Y03621*
X02452Y03622*
X02452Y03622*
X02452Y03622*
X02452Y03622*
X02452Y03622*
X02452Y03622*
X02451Y03623*
X02451Y03623*
X0245Y03623*
X0245*
X0245*
X0245*
X02449*
X02449Y03623*
X02448Y03623*
X02448Y03622*
X02448Y03622*
X02447Y03622*
X02447*
Y03622*
X02447Y03622*
X02447Y03621*
X02447Y03621*
X02446Y03621*
X02446Y0362*
X02446Y0362*
Y0362*
X02446Y0362*
Y0362*
X02443Y0362*
Y0362*
X02443Y03621*
X02443Y03621*
X02443Y03622*
X02443Y03622*
X02443Y03623*
X02443Y03623*
X02444Y03623*
X02444Y03624*
X02444Y03624*
X02444Y03624*
X02444Y03624*
X02444Y03625*
X02444Y03625*
X02444*
Y03625*
X02445Y03625*
X02445Y03625*
X02446Y03626*
X02446Y03626*
X02447Y03626*
X02448Y03626*
X02448Y03626*
X02448*
X02449Y03626*
X02449*
X02449*
X02449*
X0245*
G37*
G36*
X02793Y03265D02*
X02793Y03265D01*
X02793Y03264*
X02794Y03264*
X02794Y03263*
X02794Y03263*
X02794Y03263*
X02794Y03262*
X02794Y03262*
X02794Y03261*
Y03261*
X02794Y0326*
Y0326*
Y03259*
Y03259*
X02794Y03259*
Y03258*
Y03258*
Y03258*
X02795Y03258*
X02796Y03259*
X02797Y03259*
X02797Y03259*
X02798*
X02798Y03259*
X02798Y03259*
X02799Y03259*
Y03259*
X02799Y03259*
X028Y03259*
X02801Y03258*
X02802Y03258*
X02802Y03258*
X02802Y03257*
X02802Y03257*
X02803Y03257*
X02803Y03257*
X02803*
X02803Y03256*
X02804Y03256*
X02804Y03255*
X02805Y03255*
X02805Y03254*
X02805Y03254*
X02805Y03254*
Y03253*
X02805Y03253*
Y03252*
X02805Y03252*
X02805Y03251*
Y03251*
X02805Y0325*
X02805Y0325*
X02805Y0325*
X02805Y0325*
X02804Y03249*
X02804Y03248*
X02803Y03248*
X02803Y03247*
X02803Y03247*
X02802Y03247*
X02802Y03247*
X02802Y03247*
X02802Y03246*
X02796Y0324*
X02779Y03258*
X02782Y03261*
X02789Y03253*
X02789Y03254*
X0279Y03254*
X0279Y03255*
X0279Y03255*
X0279Y03255*
X0279Y03255*
X02791Y03255*
Y03256*
X02791Y03256*
X02791Y03256*
Y03257*
Y03257*
Y03257*
Y03257*
Y03257*
X02791Y03257*
Y03258*
Y03258*
X02791Y03258*
X0279Y03259*
X0279Y0326*
X0279Y0326*
Y0326*
X0279Y03261*
Y03261*
X0279Y03261*
Y03261*
Y03261*
X02788Y03267*
X02791Y03271*
X02793Y03265*
G37*
G36*
X02416Y03626D02*
X02417Y03626D01*
X02418Y03626*
X02419Y03626*
X02419Y03626*
X02419Y03626*
X02419Y03626*
X0242Y03625*
X0242Y03625*
X0242Y03625*
X0242*
X02421Y03625*
X02421Y03624*
X02422Y03623*
X02422Y03623*
X02423Y03622*
X02423Y03622*
X02423Y03622*
X02423Y03622*
X02423Y03622*
Y03621*
X02423Y03621*
X02423Y0362*
X02424Y03619*
X02424Y03618*
X02424Y03617*
Y03617*
Y03616*
X02424Y03616*
Y03616*
Y03615*
Y03615*
Y03615*
Y03615*
Y03614*
X02424Y03613*
X02424Y03612*
X02424Y03611*
X02424Y0361*
X02423Y0361*
X02423Y03609*
X02423Y03609*
X02423Y03608*
X02422Y03608*
X02422Y03607*
X02422Y03607*
X02422Y03607*
X02422Y03606*
X02422Y03606*
X02421Y03606*
X02421Y03605*
X0242Y03605*
X0242Y03605*
X02419Y03604*
X02419Y03604*
X02418Y03604*
X02418Y03604*
X02417Y03604*
X02417Y03604*
X02416*
X02416Y03604*
X02416*
X02415*
X02415*
X02415*
X02414Y03604*
X02413Y03604*
X02413Y03604*
X02412Y03604*
X02412Y03604*
X02411Y03605*
X02411Y03605*
X0241Y03605*
X0241Y03605*
X0241Y03606*
X0241Y03606*
X02409Y03606*
X02409Y03606*
X02409Y03606*
X02409Y03607*
X02408Y03608*
X02408Y03608*
X02408Y03609*
X02407Y0361*
X02407Y0361*
X02407Y03611*
X02407Y03612*
X02407Y03613*
X02407Y03613*
X02407Y03614*
Y03614*
X02406Y03615*
Y03615*
Y03615*
Y03615*
X02407Y03616*
Y03617*
X02407Y03618*
X02407Y03619*
X02407Y03619*
X02407Y0362*
X02407Y03621*
X02408Y03621*
X02408Y03622*
X02408Y03622*
X02408Y03623*
X02409Y03623*
X02409Y03623*
X02409Y03623*
X02409Y03623*
Y03624*
X02409Y03624*
X0241Y03624*
X0241Y03625*
X02411Y03625*
X02412Y03626*
X02412Y03626*
X02413Y03626*
X02413Y03626*
X02414Y03626*
X02414Y03626*
X02414*
X02415Y03626*
X02415*
X02415*
X02415*
X02416*
G37*
G36*
X02404Y03604D02*
X024D01*
Y03613*
X02399*
X02398Y03613*
X02398*
X02398Y03613*
X02398*
X02397Y03613*
X02397*
X02397Y03613*
X02397Y03613*
X02397Y03612*
X02396Y03612*
X02396Y03612*
Y03612*
X02396*
X02396Y03612*
X02396Y03612*
X02396Y03612*
X02396Y03611*
X02395Y03611*
X02395Y0361*
X02395Y0361*
X02395Y03609*
X02395Y03609*
X02394Y03609*
X02394Y03609*
Y03609*
Y03609*
X02392Y03604*
X02387*
X0239Y03608*
X0239Y03609*
X0239Y03609*
X0239Y0361*
X0239Y0361*
X02391Y0361*
X02391Y03611*
X02391Y03611*
X02391Y03611*
X02391Y03612*
X02392Y03612*
X02392*
X02392Y03612*
X02392Y03613*
X02393Y03613*
X02393Y03613*
X02393Y03613*
X02393Y03614*
X02393Y03614*
X02394*
X02393Y03614*
X02392Y03614*
X02391Y03615*
X02391Y03615*
X02391Y03615*
X0239Y03615*
X0239Y03616*
X0239*
Y03616*
X0239Y03616*
X02389Y03617*
X02389Y03618*
X02389Y03618*
X02389Y03619*
Y03619*
Y03619*
Y0362*
Y0362*
Y0362*
Y03621*
X02389Y03621*
X02389Y03622*
X02389Y03622*
X02389Y03623*
X02389Y03623*
X0239Y03623*
Y03623*
X0239Y03624*
X0239Y03624*
X02391Y03625*
X02391Y03625*
X02391Y03625*
X02391Y03625*
X02392*
X02392Y03626*
X02392Y03626*
X02392Y03626*
X02393Y03626*
X02394Y03626*
X02394Y03626*
X02395Y03626*
X02395*
X02395*
X02404*
Y03604*
G37*
G36*
X02708Y03152D02*
X02705Y03149D01*
X02682Y03161*
X02685Y03164*
X0269Y03161*
X02696Y03167*
X02693Y03172*
X02696Y03175*
X02708Y03152*
G37*
G36*
X0244Y03622D02*
X02435D01*
Y03604*
X02431*
Y03622*
X02426*
Y03626*
X0244*
Y03622*
G37*
G36*
X0272Y0318D02*
X02714Y03174D01*
X02711Y03177*
X02714Y0318*
X02712Y03183*
X02711*
X02711Y03182*
X0271Y03182*
X0271Y03182*
X0271Y03182*
X02709Y03182*
X02709*
X02709*
X02709Y03182*
X02708Y03182*
X02708Y03181*
X02708Y03181*
X02707Y03181*
X02707Y03181*
X02707Y03181*
X02707Y0318*
X02706Y0318*
X02706Y03179*
X02706Y03179*
X02706Y03178*
Y03177*
Y03177*
Y03176*
Y03176*
X02706Y03176*
X02706Y03175*
X02706Y03174*
X02707Y03173*
X02707Y03172*
X02708Y03172*
X02708Y03172*
X02708Y03171*
X02709Y03171*
X02709Y03171*
X02709Y03171*
X02709Y0317*
X0271Y0317*
X0271Y03169*
X02711Y03169*
X02711Y03169*
X02712Y03168*
X02712Y03168*
X02713Y03168*
X02713Y03168*
X02713Y03168*
X02714Y03167*
X02714Y03167*
X02714Y03167*
X02714*
X02714*
X02715*
X02715Y03167*
X02716*
X02716Y03167*
X02716Y03167*
X02717Y03168*
X02718Y03168*
X02718Y03168*
X02718Y03168*
X02719Y03168*
X02719Y03169*
X02719Y03169*
Y03169*
X02719*
X02719Y03169*
X0272Y0317*
X0272Y0317*
X0272Y03171*
X0272Y03171*
Y03171*
X0272Y03171*
Y03172*
Y03172*
X0272Y03173*
X0272Y03173*
X0272Y03174*
X0272Y03174*
X0272Y03174*
X02719Y03175*
Y03175*
X02723Y03177*
X02723Y03176*
X02724Y03176*
X02724Y03175*
X02724Y03175*
X02724Y03174*
X02724Y03174*
X02725Y03173*
X02725Y03173*
Y03173*
X02725Y03172*
Y03172*
Y03172*
Y03171*
Y03171*
Y03171*
Y03171*
X02725Y0317*
X02724Y0317*
X02724Y03169*
X02724Y03168*
X02723Y03167*
X02723Y03167*
X02723Y03167*
X02723Y03166*
X02722Y03166*
X02722Y03166*
X02722Y03166*
Y03166*
X02722*
X02721Y03165*
X0272Y03164*
X0272Y03164*
X02719Y03164*
X02719Y03163*
X02718Y03163*
X02718Y03163*
X02718*
X02718Y03163*
X02717*
X02717*
Y03163*
X02716Y03163*
X02715*
X02714Y03163*
X02714Y03163*
X02713Y03163*
X02713*
X02712Y03163*
X02712Y03164*
X02712*
X02712Y03164*
X02712*
X02711Y03164*
X0271Y03165*
X02709Y03165*
X02708Y03166*
X02707Y03166*
X02707Y03167*
X02707Y03167*
X02706Y03167*
X02706Y03167*
X02706Y03167*
X02706Y03168*
Y03168*
X02705Y03169*
X02704Y0317*
X02704Y0317*
X02703Y03171*
X02703Y03171*
X02703Y03172*
X02703Y03172*
X02703Y03172*
X02702Y03173*
X02702Y03173*
Y03173*
X02702Y03173*
Y03173*
X02702Y03173*
X02702Y03175*
X02701Y03176*
X02701Y03177*
Y03177*
Y03178*
X02701Y03179*
Y03179*
Y03179*
Y03179*
X02702Y0318*
X02702Y03181*
X02703Y03182*
X02703Y03182*
X02703Y03183*
X02703Y03183*
X02704Y03183*
X02704Y03183*
X02704Y03184*
X02704Y03184*
X02704Y03184*
X02705Y03184*
X02706Y03185*
X02706Y03185*
X02707Y03186*
X02708Y03186*
X02708Y03186*
X02708Y03186*
X02708Y03186*
X02708*
X02708*
Y03187*
X02709Y03187*
X0271Y03187*
X02711Y03187*
X02712Y03187*
X02712*
X02713*
X0272Y0318*
G37*
G36*
X02748Y03224D02*
X02749D01*
X02749Y03224*
X0275Y03223*
X02751Y03223*
X02752Y03223*
X02753Y03223*
X02753Y03222*
X02754Y03222*
X02755Y03221*
X02755Y03221*
X02756Y0322*
X02756Y0322*
X02757Y0322*
X02757Y03219*
X02757Y03219*
X02757Y03219*
Y03219*
X02758Y03218*
X02759Y03217*
X02759Y03217*
X0276Y03216*
X0276Y03215*
X02761Y03214*
X02761Y03214*
X02761Y03213*
X02762Y03213*
X02762Y03212*
X02762Y03212*
X02762Y03211*
X02762Y03211*
Y03211*
Y03211*
Y0321*
X02762Y0321*
X02762Y03209*
X02762Y03208*
X02762Y03208*
X02762Y03207*
X02761Y03206*
X02761Y03206*
X02761Y03205*
X02761Y03205*
X0276Y03204*
X0276Y03204*
X0276Y03204*
X0276Y03203*
X0276Y03203*
X02759Y03203*
X02759Y03202*
X02758Y03202*
X02757Y03201*
X02756Y03201*
X02756Y03201*
X02756Y03201*
X02755Y03201*
X02755Y03201*
X02755Y03201*
X02755*
X02755*
X02754Y032*
X02753*
X02752Y03201*
X02751Y03201*
X0275Y03201*
X0275Y03201*
X0275Y03201*
X0275Y03201*
X0275Y03201*
X02749*
X02749Y03201*
X02748Y03202*
X02747Y03202*
X02746Y03203*
X02745Y03204*
X02745Y03204*
X02745Y03204*
X02744Y03205*
X02744Y03205*
X02744Y03205*
X02744Y03205*
X02743Y03205*
X02743Y03206*
X02742Y03207*
X02741Y03208*
X02741Y03209*
X0274Y03209*
X0274Y0321*
X0274Y03211*
X02739Y03211*
X02739Y03212*
X02739Y03212*
X02739Y03213*
X02739Y03213*
X02739Y03214*
Y03214*
Y03214*
X02739Y03215*
X02739Y03216*
X02739Y03216*
X02739Y03217*
X02739Y03217*
X02739Y03218*
X0274Y03219*
X0274Y03219*
X0274Y0322*
X0274Y0322*
X02741Y0322*
X02741Y03221*
X02741Y03221*
X02741Y03221*
X02741Y03221*
Y03221*
X02742Y03222*
X02743Y03222*
X02743Y03223*
X02744Y03223*
X02744Y03223*
X02745Y03223*
X02746Y03223*
X02746Y03224*
X02747Y03224*
X02747Y03224*
X02747*
X02748*
X02748*
X02748*
X02748*
G37*
G36*
X0275Y03194D02*
X02746Y0319D01*
X02731Y03199*
X0274Y03185*
X02736Y0318*
X02719Y03198*
X02721Y03201*
X02735Y03187*
X02724Y03203*
X02727Y03206*
X02744Y03195*
X0273Y03209*
X02733Y03212*
X0275Y03194*
G37*
%LNvapeix_mini_pcb-2*%
%LPC*%
G36*
X03126Y03554D02*
X03126D01*
X03125Y03554*
X03125Y03554*
X03124Y03553*
X03124Y03553*
X03123Y03552*
X03123Y03552*
X03123Y03551*
X03123Y03551*
X03122Y03551*
X03122Y0355*
X03122Y03549*
X03122Y03548*
X03122Y03547*
X03122Y03545*
X03121Y03543*
Y03542*
X03121Y03541*
Y0354*
X03121Y03539*
Y03538*
Y03537*
Y03537*
Y03537*
Y03535*
X03121Y03533*
X03121Y03531*
X03122Y0353*
Y03529*
X03122Y03528*
X03122Y03527*
X03122Y03526*
X03122Y03525*
X03122Y03524*
X03122Y03524*
X03122Y03523*
X03123Y03523*
Y03523*
X03123*
Y03523*
X03123Y03522*
X03124Y03521*
X03124Y0352*
X03125Y0352*
X03125Y0352*
X03126*
X03126Y0352*
X03126*
X03127Y0352*
X03128Y0352*
X03128Y03521*
X03129Y03521*
X03129Y03522*
X0313Y03522*
X0313Y03523*
Y03523*
X0313Y03523*
X0313Y03524*
X0313Y03525*
X03131Y03526*
X03131Y03527*
X03131Y03529*
X03131Y03531*
Y03532*
X03131Y03533*
Y03534*
Y03535*
Y03536*
Y03536*
Y03537*
Y03537*
Y03539*
Y03541*
X03131Y03542*
X03131Y03544*
Y03545*
X03131Y03546*
X03131Y03547*
X03131Y03548*
X0313Y03549*
Y0355*
X0313Y0355*
Y03551*
X0313Y03551*
X0313Y03551*
X0313Y03551*
X03129Y03552*
X03129Y03553*
X03128Y03554*
X03128Y03554*
X03127Y03554*
X03127Y03554*
X03126Y03554*
G37*
G36*
X02499Y03622D02*
X02495D01*
X02495*
X02494*
X02494*
X02494*
X02493Y03622*
X02493*
X02493*
X02493Y03622*
X02493*
X02492Y03622*
X02492Y03622*
X02492Y03622*
X02492Y03622*
X02492Y03621*
Y03621*
X02492*
X02492Y03621*
X02492Y03621*
X02491Y0362*
X02491Y0362*
Y0362*
Y0362*
Y03619*
X02491Y03619*
Y03619*
X02492Y03618*
X02492Y03618*
X02492Y03618*
Y03618*
X02492Y03618*
X02492Y03617*
X02492Y03617*
X02492Y03617*
X02493Y03617*
X02493Y03617*
X02493*
X02493*
X02493Y03617*
X02494*
X02494Y03617*
X02495*
X02495*
X02499*
Y03622*
G37*
G36*
X02776Y03247D02*
X02776D01*
X02775*
X02775Y03247*
X02774Y03247*
X02774Y03247*
X02773Y03247*
X02773Y03246*
X02773Y03246*
X02772Y03246*
X02772Y03246*
X02772Y03246*
X02772*
X02772Y03245*
X02772Y03245*
X02771Y03245*
X02771Y03244*
X02771Y03244*
X02771Y03243*
Y03242*
Y03242*
Y03242*
Y03242*
Y03242*
X02771Y03241*
X02771Y03241*
X02772Y0324*
X02772Y03239*
X02773Y03238*
X02773Y03237*
X02773Y03237*
X02773Y03237*
X02774Y03236*
X02774Y03236*
X02774Y03236*
X02774Y03236*
X02774Y03236*
X02775Y03235*
X02775Y03235*
X02776Y03234*
X02776Y03234*
X02777Y03234*
X02777Y03233*
X02778Y03233*
X02778Y03233*
X02779Y03233*
X02779Y03233*
X02779Y03233*
X02779Y03233*
X0278*
X0278*
X0278*
Y03232*
X0278*
X02781*
X02781*
X02782Y03233*
X02782Y03233*
X02782Y03233*
X02783Y03233*
X02783Y03233*
X02784Y03233*
X02784Y03234*
X02784*
X02784Y03234*
Y03234*
X02784*
X02784Y03234*
X02785Y03235*
X02785Y03235*
X02785Y03235*
X02785Y03236*
X02785Y03237*
X02786Y03237*
Y03238*
Y03238*
X02785Y03238*
X02786Y03238*
X02785*
Y03239*
X02785Y03239*
X02785Y0324*
X02784Y03241*
X02784Y03242*
X02783Y03242*
X02783Y03243*
X02783Y03243*
X02783Y03243*
X02782Y03243*
X02782Y03244*
X02782Y03244*
Y03244*
X02782Y03244*
X02781Y03245*
X0278Y03245*
X0278Y03246*
X02779Y03246*
X02779Y03246*
X02779Y03246*
X02778Y03247*
X02778Y03247*
X02777Y03247*
X02777Y03247*
X02777Y03247*
X02777*
X02777Y03247*
X02776*
X02776*
G37*
G36*
X02798Y03255D02*
X02797D01*
X02797*
X02797Y03255*
X02797*
X02796Y03255*
X02796*
X02796Y03255*
X02796Y03255*
X02796Y03254*
X02795Y03254*
X02795Y03254*
X02794Y03253*
X02794Y03253*
X02794Y03253*
X02794Y03253*
X02794Y03253*
X02794*
Y03253*
X02792Y03251*
X02796Y03246*
X02798Y03248*
X02799Y03249*
X02799Y03249*
X02799Y03249*
X02799Y0325*
X028Y0325*
X028Y0325*
X028Y0325*
X028Y0325*
X028Y03251*
X028Y03251*
Y03251*
X028*
X02801Y03251*
X02801Y03251*
Y03252*
Y03252*
Y03252*
Y03252*
Y03252*
X02801Y03253*
X028Y03253*
X028Y03254*
X028Y03254*
X028Y03254*
X028Y03254*
X02799Y03254*
X02799Y03255*
X02799Y03255*
X02798Y03255*
X02798Y03255*
X02798Y03255*
X02798Y03255*
X02798*
X02798*
G37*
G36*
X02416Y03623D02*
X02415D01*
X02415*
X02415Y03623*
X02414Y03622*
X02414Y03622*
X02413Y03622*
X02413Y03622*
X02412Y03621*
X02412Y03621*
X02412Y03621*
X02412Y03621*
Y03621*
X02411Y0362*
X02411Y0362*
X02411Y03619*
X02411Y03618*
X0241Y03617*
Y03617*
X0241Y03616*
Y03616*
Y03616*
X0241Y03615*
Y03615*
Y03615*
Y03614*
X0241Y03614*
X0241Y03613*
X02411Y03613*
X02411Y03612*
X02411Y03612*
X02411Y03611*
X02411Y03611*
X02411Y0361*
X02411Y0361*
X02411Y0361*
X02412Y0361*
X02412Y0361*
Y03609*
X02412Y03609*
X02412Y03609*
X02412Y03609*
X02413Y03608*
X02413Y03608*
X02413Y03608*
X02413Y03608*
X02414Y03608*
X02415Y03608*
X02415*
X02415Y03607*
X02415*
X02415*
X02416*
X02416Y03608*
X02416Y03608*
X02417Y03608*
X02417Y03608*
X02418Y03608*
X02418Y03609*
X02419Y03609*
X02419Y03609*
X02419Y03609*
Y03609*
X02419Y0361*
X02419Y0361*
X0242Y03611*
X0242Y03612*
X0242Y03613*
X0242Y03613*
Y03614*
Y03614*
Y03614*
X0242Y03615*
Y03615*
Y03615*
X0242Y03616*
Y03616*
Y03617*
X0242Y03618*
X0242Y03618*
X0242Y03619*
X0242Y03619*
X0242Y03619*
X0242Y0362*
X02419Y0362*
X02419Y0362*
X02419Y0362*
X02419Y03621*
Y03621*
X02419Y03621*
X02419Y03621*
X02418Y03621*
X02418Y03622*
X02418Y03622*
X02417Y03622*
X02417Y03622*
X02417Y03622*
X02416Y03623*
X02416*
X02416Y03623*
X02416*
G37*
G36*
X024Y03622D02*
X02396D01*
X02396*
X02395*
X02395*
X02395*
X02395Y03622*
X02394*
X02394*
X02394Y03622*
X02394*
X02394*
X02394Y03622*
X02393Y03622*
X02393Y03622*
X02393Y03622*
X02393Y03621*
X02393Y03621*
X02393Y03621*
X02393Y03621*
X02393Y0362*
Y0362*
Y0362*
Y0362*
Y03619*
Y03619*
X02393Y03619*
X02393Y03618*
X02393Y03618*
Y03618*
X02393Y03618*
X02393Y03618*
X02393Y03617*
X02393Y03617*
X02394Y03617*
X02394Y03617*
X02394Y03617*
X02394*
X02394*
X02394Y03617*
X02395*
X02395Y03617*
X02396*
X02396*
X024*
Y03622*
G37*
G36*
X02698Y03163D02*
X02694Y03159D01*
X02702Y03155*
X02698Y03163*
G37*
G36*
X02748Y0322D02*
X02748D01*
X02747Y03219*
X02747*
X02747Y03219*
X02746Y03219*
X02746Y03219*
X02745Y03219*
X02745Y03218*
X02745Y03218*
X02745Y03218*
X02745Y03218*
X02744*
X02744Y03218*
X02744Y03217*
X02744Y03217*
X02744Y03217*
X02743Y03216*
X02743Y03215*
Y03215*
Y03214*
Y03214*
Y03214*
Y03214*
X02743Y03213*
X02743Y03213*
X02744Y03212*
X02744Y03211*
X02745Y0321*
X02745Y0321*
X02746Y03209*
X02746Y03209*
X02746Y03209*
X02746Y03208*
X02746Y03208*
X02746Y03208*
X02747*
X02747Y03208*
X02748Y03207*
X02748Y03207*
X02749Y03206*
X02749Y03206*
X0275Y03206*
X0275Y03206*
X0275Y03205*
X02751Y03205*
X02751Y03205*
X02751Y03205*
X02752Y03205*
X02752*
X02752*
X02752*
X02752Y03205*
X02753*
X02753*
X02753*
X02754Y03205*
X02754Y03205*
X02755Y03205*
X02755Y03205*
X02756Y03206*
X02756Y03206*
X02756Y03206*
X02756*
X02756Y03206*
X02756Y03206*
X02757Y03207*
X02757Y03207*
X02757Y03207*
X02757Y03208*
X02758Y03208*
X02758Y03209*
X02758Y0321*
Y0321*
Y0321*
X02758Y0321*
X02758Y0321*
X02758*
Y03211*
X02758Y03211*
X02757Y03212*
X02757Y03213*
X02756Y03214*
X02756Y03215*
X02755Y03215*
X02755Y03215*
X02755Y03216*
X02755Y03216*
X02755Y03216*
X02754Y03216*
X02754Y03217*
X02753Y03217*
X02753Y03217*
X02752Y03218*
X02752Y03218*
X02751Y03218*
X02751Y03219*
X0275Y03219*
X0275Y03219*
X0275Y03219*
X02749Y03219*
X02749Y03219*
X02749Y03219*
X02749*
X02749*
X02748Y0322*
G37*
%LNvapeix_mini_pcb-3*%
%LPD*%
G54D10*
X02187Y03216D02*
Y03235D01*
Y03492D02*
Y03511D01*
X01993Y03216D02*
Y03511D01*
X03099Y03409D02*
X03104D01*
X03067Y0336D02*
Y03373D01*
X03099Y03324D02*
X03104D01*
X03136Y0336D02*
Y03373D01*
G54D45*
X02963Y03633D02*
X03006D01*
X04304Y03532D02*
Y03575D01*
X02306Y03458D02*
X0235D01*
G54D46*
X04251Y03664D02*
D01*
X04251Y03665*
X04251Y03666*
X04251Y03668*
X0425Y03669*
X0425Y0367*
X04249Y03672*
X04249Y03673*
X04248Y03674*
X04247Y03675*
X04247Y03676*
X04246Y03677*
X04245Y03678*
X04244Y03679*
X04243Y0368*
X04241Y03681*
X0424Y03681*
X04239Y03682*
X04238Y03682*
X04236Y03683*
X04235Y03683*
X04234Y03683*
X04232Y03683*
X04231*
X04229Y03683*
X04228Y03683*
X04227Y03683*
X04225Y03682*
X04224Y03682*
X04223Y03681*
X04222Y03681*
X0422Y0368*
X04219Y03679*
X04218Y03678*
X04217Y03677*
X04216Y03676*
X04216Y03675*
X04215Y03674*
X04214Y03673*
X04214Y03672*
X04213Y0367*
X04213Y03669*
X04212Y03668*
X04212Y03666*
X04212Y03665*
X04212Y03664*
X04212Y03662*
X04212Y03661*
X04212Y03659*
X04213Y03658*
X04213Y03657*
X04214Y03655*
X04214Y03654*
X04215Y03653*
X04216Y03652*
X04216Y03651*
X04217Y0365*
X04218Y03649*
X04219Y03648*
X0422Y03647*
X04222Y03646*
X04223Y03646*
X04224Y03645*
X04225Y03645*
X04227Y03644*
X04228Y03644*
X04229Y03644*
X04231Y03644*
X04232*
X04234Y03644*
X04235Y03644*
X04236Y03644*
X04238Y03645*
X04239Y03645*
X0424Y03646*
X04241Y03646*
X04243Y03647*
X04244Y03648*
X04245Y03649*
X04246Y0365*
X04247Y03651*
X04247Y03652*
X04248Y03653*
X04249Y03654*
X04249Y03655*
X0425Y03657*
X0425Y03658*
X04251Y03659*
X04251Y03661*
X04251Y03662*
X04251Y03664*
X042D02*
D01*
X042Y03665*
X042Y03666*
X042Y03668*
X04199Y03669*
X04199Y0367*
X04198Y03672*
X04198Y03673*
X04197Y03674*
X04196Y03675*
X04196Y03676*
X04195Y03677*
X04194Y03678*
X04193Y03679*
X04192Y0368*
X0419Y03681*
X04189Y03681*
X04188Y03682*
X04187Y03682*
X04185Y03683*
X04184Y03683*
X04183Y03683*
X04181Y03683*
X0418*
X04178Y03683*
X04177Y03683*
X04176Y03683*
X04174Y03682*
X04173Y03682*
X04172Y03681*
X04171Y03681*
X04169Y0368*
X04168Y03679*
X04167Y03678*
X04166Y03677*
X04165Y03676*
X04165Y03675*
X04164Y03674*
X04163Y03673*
X04163Y03672*
X04162Y0367*
X04162Y03669*
X04161Y03668*
X04161Y03666*
X04161Y03665*
X04161Y03664*
X04161Y03662*
X04161Y03661*
X04161Y03659*
X04162Y03658*
X04162Y03657*
X04163Y03655*
X04163Y03654*
X04164Y03653*
X04165Y03652*
X04165Y03651*
X04166Y0365*
X04167Y03649*
X04168Y03648*
X04169Y03647*
X04171Y03646*
X04172Y03646*
X04173Y03645*
X04174Y03645*
X04176Y03644*
X04177Y03644*
X04178Y03644*
X0418Y03644*
X04181*
X04183Y03644*
X04184Y03644*
X04185Y03644*
X04187Y03645*
X04188Y03645*
X04189Y03646*
X0419Y03646*
X04192Y03647*
X04193Y03648*
X04194Y03649*
X04195Y0365*
X04196Y03651*
X04196Y03652*
X04197Y03653*
X04198Y03654*
X04198Y03655*
X04199Y03657*
X04199Y03658*
X042Y03659*
X042Y03661*
X042Y03662*
X042Y03664*
X04151D02*
D01*
X04151Y03665*
X04151Y03666*
X04151Y03668*
X0415Y03669*
X0415Y0367*
X04149Y03672*
X04149Y03673*
X04148Y03674*
X04147Y03675*
X04147Y03676*
X04146Y03677*
X04145Y03678*
X04144Y03679*
X04143Y0368*
X04141Y03681*
X0414Y03681*
X04139Y03682*
X04138Y03682*
X04136Y03683*
X04135Y03683*
X04134Y03683*
X04132Y03683*
X04131*
X04129Y03683*
X04128Y03683*
X04127Y03683*
X04125Y03682*
X04124Y03682*
X04123Y03681*
X04122Y03681*
X0412Y0368*
X04119Y03679*
X04118Y03678*
X04117Y03677*
X04116Y03676*
X04116Y03675*
X04115Y03674*
X04114Y03673*
X04114Y03672*
X04113Y0367*
X04113Y03669*
X04112Y03668*
X04112Y03666*
X04112Y03665*
X04112Y03664*
X04112Y03662*
X04112Y03661*
X04112Y03659*
X04113Y03658*
X04113Y03657*
X04114Y03655*
X04114Y03654*
X04115Y03653*
X04116Y03652*
X04116Y03651*
X04117Y0365*
X04118Y03649*
X04119Y03648*
X0412Y03647*
X04122Y03646*
X04123Y03646*
X04124Y03645*
X04125Y03645*
X04127Y03644*
X04128Y03644*
X04129Y03644*
X04131Y03644*
X04132*
X04134Y03644*
X04135Y03644*
X04136Y03644*
X04138Y03645*
X04139Y03645*
X0414Y03646*
X04141Y03646*
X04143Y03647*
X04144Y03648*
X04145Y03649*
X04146Y0365*
X04147Y03651*
X04147Y03652*
X04148Y03653*
X04149Y03654*
X04149Y03655*
X0415Y03657*
X0415Y03658*
X04151Y03659*
X04151Y03661*
X04151Y03662*
X04151Y03664*
X03913Y03364D02*
D01*
X03913Y0337*
X03912Y03377*
X03911Y03384*
X03909Y03391*
X03907Y03397*
X03904Y03404*
X03901Y0341*
X03898Y03416*
X03894Y03421*
X0389Y03427*
X03885Y03432*
X0388Y03437*
X03875Y03441*
X0387Y03445*
X03864Y03449*
X03858Y03452*
X03851Y03455*
X03845Y03457*
X03838Y03459*
X03832Y0346*
X03825Y03461*
X03818Y03462*
X03811*
X03804Y03461*
X03797Y0346*
X03791Y03459*
X03784Y03457*
X03778Y03455*
X03771Y03452*
X03765Y03449*
X03759Y03445*
X03754Y03441*
X03749Y03437*
X03744Y03432*
X03739Y03427*
X03735Y03421*
X03731Y03416*
X03728Y0341*
X03725Y03404*
X03722Y03397*
X0372Y03391*
X03718Y03384*
X03717Y03377*
X03716Y0337*
X03716Y03364*
X03716Y03357*
X03717Y0335*
X03718Y03343*
X0372Y03336*
X03722Y0333*
X03725Y03323*
X03728Y03317*
X03731Y03311*
X03735Y03306*
X03739Y033*
X03744Y03295*
X03749Y0329*
X03754Y03286*
X03759Y03282*
X03765Y03278*
X03771Y03275*
X03778Y03272*
X03784Y0327*
X03791Y03268*
X03797Y03267*
X03804Y03266*
X03811Y03265*
X03818*
X03825Y03266*
X03832Y03267*
X03838Y03268*
X03845Y0327*
X03851Y03272*
X03858Y03275*
X03864Y03278*
X0387Y03282*
X03875Y03286*
X0388Y0329*
X03885Y03295*
X0389Y033*
X03894Y03306*
X03898Y03311*
X03901Y03317*
X03904Y03323*
X03907Y0333*
X03909Y03336*
X03911Y03343*
X03912Y0335*
X03913Y03357*
X03913Y03364*
X04371Y0349D02*
D01*
X04371Y03491*
X04371Y03492*
X04371Y03494*
X0437Y03495*
X0437Y03496*
X04369Y03498*
X04369Y03499*
X04368Y035*
X04367Y03501*
X04367Y03502*
X04366Y03503*
X04365Y03504*
X04364Y03505*
X04363Y03506*
X04361Y03507*
X0436Y03507*
X04359Y03508*
X04358Y03508*
X04356Y03509*
X04355Y03509*
X04354Y03509*
X04352Y03509*
X04351*
X04349Y03509*
X04348Y03509*
X04347Y03509*
X04345Y03508*
X04344Y03508*
X04343Y03507*
X04342Y03507*
X0434Y03506*
X04339Y03505*
X04338Y03504*
X04337Y03503*
X04336Y03502*
X04336Y03501*
X04335Y035*
X04334Y03499*
X04334Y03498*
X04333Y03496*
X04333Y03495*
X04332Y03494*
X04332Y03492*
X04332Y03491*
X04332Y0349*
X04332Y03488*
X04332Y03487*
X04332Y03485*
X04333Y03484*
X04333Y03483*
X04334Y03481*
X04334Y0348*
X04335Y03479*
X04336Y03478*
X04336Y03477*
X04337Y03476*
X04338Y03475*
X04339Y03474*
X0434Y03473*
X04342Y03472*
X04343Y03472*
X04344Y03471*
X04345Y03471*
X04347Y0347*
X04348Y0347*
X04349Y0347*
X04351Y0347*
X04352*
X04354Y0347*
X04355Y0347*
X04356Y0347*
X04358Y03471*
X04359Y03471*
X0436Y03472*
X04361Y03472*
X04363Y03473*
X04364Y03474*
X04365Y03475*
X04366Y03476*
X04367Y03477*
X04367Y03478*
X04368Y03479*
X04369Y0348*
X04369Y03481*
X0437Y03483*
X0437Y03484*
X04371Y03485*
X04371Y03487*
X04371Y03488*
X04371Y0349*
X02333Y03313D02*
D01*
X02333Y03315*
X02333Y03317*
X02332Y03318*
X02332Y0332*
X02331Y03322*
X02331Y03324*
X0233Y03326*
X02329Y03327*
X02328Y03329*
X02327Y0333*
X02325Y03332*
X02324Y03333*
X02322Y03334*
X02321Y03336*
X02319Y03337*
X02318Y03338*
X02316Y03338*
X02314Y03339*
X02312Y03339*
X0231Y0334*
X02308Y0334*
X02306Y0334*
X02305*
X02303Y0334*
X02301Y0334*
X02299Y03339*
X02297Y03339*
X02295Y03338*
X02293Y03338*
X02292Y03337*
X0229Y03336*
X02289Y03334*
X02287Y03333*
X02286Y03332*
X02284Y0333*
X02283Y03329*
X02282Y03327*
X02281Y03326*
X0228Y03324*
X0228Y03322*
X02279Y0332*
X02279Y03318*
X02278Y03317*
X02278Y03315*
X02278Y03313*
X02278Y03311*
X02278Y03309*
X02279Y03307*
X02279Y03305*
X0228Y03303*
X0228Y03301*
X02281Y033*
X02282Y03298*
X02283Y03296*
X02284Y03295*
X02286Y03294*
X02287Y03292*
X02289Y03291*
X0229Y0329*
X02292Y03289*
X02293Y03288*
X02295Y03287*
X02297Y03286*
X02299Y03286*
X02301Y03286*
X02303Y03285*
X02305Y03285*
X02306*
X02308Y03285*
X0231Y03286*
X02312Y03286*
X02314Y03286*
X02316Y03287*
X02318Y03288*
X02319Y03289*
X02321Y0329*
X02322Y03291*
X02324Y03292*
X02325Y03294*
X02327Y03295*
X02328Y03296*
X02329Y03298*
X0233Y033*
X02331Y03301*
X02331Y03303*
X02332Y03305*
X02332Y03307*
X02333Y03309*
X02333Y03311*
X02333Y03313*
X02284Y03506D02*
D01*
X02284Y03507*
X02284Y03508*
X02284Y0351*
X02283Y03511*
X02283Y03512*
X02282Y03514*
X02282Y03515*
X02281Y03516*
X0228Y03517*
X0228Y03518*
X02279Y03519*
X02278Y0352*
X02277Y03521*
X02276Y03522*
X02274Y03523*
X02273Y03523*
X02272Y03524*
X02271Y03524*
X02269Y03525*
X02268Y03525*
X02267Y03525*
X02265Y03525*
X02264*
X02262Y03525*
X02261Y03525*
X0226Y03525*
X02258Y03524*
X02257Y03524*
X02256Y03523*
X02255Y03523*
X02253Y03522*
X02252Y03521*
X02251Y0352*
X0225Y03519*
X02249Y03518*
X02249Y03517*
X02248Y03516*
X02247Y03515*
X02247Y03514*
X02246Y03512*
X02246Y03511*
X02245Y0351*
X02245Y03508*
X02245Y03507*
X02245Y03506*
X02245Y03504*
X02245Y03503*
X02245Y03501*
X02246Y035*
X02246Y03499*
X02247Y03497*
X02247Y03496*
X02248Y03495*
X02249Y03494*
X02249Y03493*
X0225Y03492*
X02251Y03491*
X02252Y0349*
X02253Y03489*
X02255Y03488*
X02256Y03488*
X02257Y03487*
X02258Y03487*
X0226Y03486*
X02261Y03486*
X02262Y03486*
X02264Y03486*
X02265*
X02267Y03486*
X02268Y03486*
X02269Y03486*
X02271Y03487*
X02272Y03487*
X02273Y03488*
X02274Y03488*
X02276Y03489*
X02277Y0349*
X02278Y03491*
X02279Y03492*
X0228Y03493*
X0228Y03494*
X02281Y03495*
X02282Y03496*
X02282Y03497*
X02283Y03499*
X02283Y035*
X02284Y03501*
X02284Y03503*
X02284Y03504*
X02284Y03506*
X02346Y03634D02*
D01*
X02346Y03635*
X02346Y03636*
X02346Y03638*
X02345Y03639*
X02345Y0364*
X02344Y03642*
X02344Y03643*
X02343Y03644*
X02342Y03645*
X02342Y03646*
X02341Y03647*
X0234Y03648*
X02339Y03649*
X02338Y0365*
X02336Y03651*
X02335Y03651*
X02334Y03652*
X02333Y03652*
X02331Y03653*
X0233Y03653*
X02329Y03653*
X02327Y03653*
X02326*
X02324Y03653*
X02323Y03653*
X02322Y03653*
X0232Y03652*
X02319Y03652*
X02318Y03651*
X02317Y03651*
X02315Y0365*
X02314Y03649*
X02313Y03648*
X02312Y03647*
X02311Y03646*
X02311Y03645*
X0231Y03644*
X02309Y03643*
X02309Y03642*
X02308Y0364*
X02308Y03639*
X02307Y03638*
X02307Y03636*
X02307Y03635*
X02307Y03634*
X02307Y03632*
X02307Y03631*
X02307Y03629*
X02308Y03628*
X02308Y03627*
X02309Y03625*
X02309Y03624*
X0231Y03623*
X02311Y03622*
X02311Y03621*
X02312Y0362*
X02313Y03619*
X02314Y03618*
X02315Y03617*
X02317Y03616*
X02318Y03616*
X02319Y03615*
X0232Y03615*
X02322Y03614*
X02323Y03614*
X02324Y03614*
X02326Y03614*
X02327*
X02329Y03614*
X0233Y03614*
X02331Y03614*
X02333Y03615*
X02334Y03615*
X02335Y03616*
X02336Y03616*
X02338Y03617*
X02339Y03618*
X0234Y03619*
X02341Y0362*
X02342Y03621*
X02342Y03622*
X02343Y03623*
X02344Y03624*
X02344Y03625*
X02345Y03627*
X02345Y03628*
X02346Y03629*
X02346Y03631*
X02346Y03632*
X02346Y03634*
X02703Y03375D02*
D01*
X02691Y03371*
X02679Y03367*
X02668Y03362*
X02657Y03357*
X02646Y0335*
X02636Y03343*
X02627Y03335*
X02618Y03326*
X02609Y03317*
X02602Y03308*
X02595Y03297*
X02589Y03287*
X02583Y03276*
X02578Y03264*
X02574Y03252*
X02571Y0324*
X02569Y03228*
X02568Y03216*
X02567Y03204*
X02568Y03191*
X02569Y03179*
X02571Y03167*
X02574Y03155*
X02578Y03143*
X02582Y03131*
X02588Y0312*
X02594Y0311*
X026Y03099*
X02608Y03089*
X02616Y0308*
X02625Y03072*
X02635Y03064*
X02645Y03056*
X02655Y0305*
X02666Y03044*
X02677Y03039*
X02689Y03034*
X02701Y03031*
X02713Y03028*
X02725Y03026*
X02737Y03025*
X0275Y03025*
X02762Y03026*
X02774Y03028*
X02786Y0303*
X02798Y03034*
X0281Y03038*
X02821Y03043*
X02832Y03048*
X02843Y03055*
X02853Y03062*
X02862Y0307*
X02871Y03079*
X0288Y03088*
X02887Y03097*
X02894Y03108*
X029Y03118*
X02906Y03129*
X02911Y03141*
X02915Y03153*
X02918Y03165*
X0292Y03177*
X02921Y03189*
X02922Y03201*
X02921Y03214*
X0292Y03226*
X02918Y03238*
X02915Y0325*
X02911Y03262*
X02907Y03274*
X02901Y03285*
X02895Y03295*
X02889Y03306*
X02881Y03316*
X02873Y03325*
X02864Y03333*
X02854Y03341*
X02844Y03349*
X02834Y03355*
X02823Y03361*
X02812Y03366*
X028Y03371*
X02792Y03373*
X02903Y03203D02*
D01*
X02903Y03214*
X02902Y03225*
X029Y03236*
X02897Y03246*
X02894Y03257*
X0289Y03267*
X02885Y03277*
X02879Y03287*
X02873Y03296*
X02866Y03305*
X02859Y03313*
X02851Y03321*
X02842Y03328*
X02833Y03334*
X02824Y0334*
X02814Y03345*
X02804Y0335*
X02794Y03354*
X02783Y03357*
X02772Y03359*
X02761Y0336*
X0275Y03361*
X02739*
X02728Y0336*
X02717Y03359*
X02706Y03357*
X02695Y03354*
X02685Y0335*
X02675Y03345*
X02665Y0334*
X02656Y03334*
X02647Y03328*
X02638Y03321*
X0263Y03313*
X02623Y03305*
X02616Y03296*
X0261Y03287*
X02604Y03277*
X02599Y03267*
X02595Y03257*
X02592Y03246*
X02589Y03236*
X02587Y03225*
X02586Y03214*
X02586Y03203*
X02586Y03191*
X02587Y0318*
X02589Y03169*
X02592Y03159*
X02595Y03148*
X02599Y03138*
X02604Y03128*
X0261Y03118*
X02616Y03109*
X02623Y031*
X0263Y03092*
X02638Y03084*
X02647Y03077*
X02656Y03071*
X02665Y03065*
X02675Y0306*
X02685Y03055*
X02695Y03051*
X02706Y03048*
X02717Y03046*
X02728Y03045*
X02739Y03044*
X0275*
X02761Y03045*
X02772Y03046*
X02783Y03048*
X02794Y03051*
X02804Y03055*
X02814Y0306*
X02824Y03065*
X02833Y03071*
X02842Y03077*
X02851Y03084*
X02859Y03092*
X02866Y031*
X02873Y03109*
X02879Y03118*
X02885Y03128*
X0289Y03138*
X02894Y03148*
X02897Y03159*
X029Y03169*
X02902Y0318*
X02903Y03191*
X02903Y03203*
X02603Y03363D02*
D01*
X02603Y03369*
X02602Y03376*
X02601Y03383*
X02599Y0339*
X02597Y03396*
X02594Y03403*
X02591Y03409*
X02588Y03415*
X02584Y0342*
X0258Y03426*
X02575Y03431*
X0257Y03436*
X02565Y0344*
X0256Y03444*
X02554Y03448*
X02548Y03451*
X02541Y03454*
X02535Y03456*
X02528Y03458*
X02522Y03459*
X02515Y0346*
X02508Y03461*
X02501*
X02494Y0346*
X02487Y03459*
X02481Y03458*
X02474Y03456*
X02468Y03454*
X02461Y03451*
X02455Y03448*
X02449Y03444*
X02444Y0344*
X02439Y03436*
X02434Y03431*
X02429Y03426*
X02425Y0342*
X02421Y03415*
X02418Y03409*
X02415Y03403*
X02412Y03396*
X0241Y0339*
X02408Y03383*
X02407Y03376*
X02406Y03369*
X02406Y03363*
X02406Y03356*
X02407Y03349*
X02408Y03342*
X0241Y03335*
X02412Y03329*
X02415Y03322*
X02418Y03316*
X02421Y0331*
X02425Y03305*
X02429Y03299*
X02434Y03294*
X02439Y03289*
X02444Y03285*
X02449Y03281*
X02455Y03277*
X02461Y03274*
X02468Y03271*
X02474Y03269*
X02481Y03267*
X02487Y03266*
X02494Y03265*
X02501Y03264*
X02508*
X02515Y03265*
X02522Y03266*
X02528Y03267*
X02535Y03269*
X02541Y03271*
X02548Y03274*
X02554Y03277*
X0256Y03281*
X02565Y03285*
X0257Y03289*
X02575Y03294*
X0258Y03299*
X02584Y03305*
X02588Y0331*
X02591Y03316*
X02594Y03322*
X02597Y03329*
X02599Y03335*
X02601Y03342*
X02602Y03349*
X02603Y03356*
X02603Y03363*
X03745Y03258D02*
D01*
X03753Y03253*
X03761Y03249*
X03769Y03246*
X03777Y03243*
X03785Y03241*
X03794Y03239*
X03803Y03238*
X03812Y03238*
X0382Y03238*
X03829Y03239*
X03838Y0324*
X03846Y03242*
X03855Y03244*
X03863Y03248*
X03871Y03251*
X03879Y03256*
X03886Y0326*
X03893Y03266*
X039Y03271*
X03906Y03278*
X03912Y03284*
X03917Y03291*
X03922Y03299*
X03926Y03306*
X0393Y03314*
X03933Y03323*
X03936Y03331*
X03938Y0334*
X03939Y03348*
X0394Y03357*
X0394Y03366*
X03939Y03375*
X03938Y03383*
X03937Y03392*
X03934Y034*
X03931Y03409*
X03928Y03417*
X03924Y03425*
X03919Y03432*
X03914Y03439*
X03909Y03446*
X03903Y03453*
X03896Y03459*
X0389Y03464*
X03882Y03469*
X03875Y03474*
X03867Y03478*
X03859Y03481*
X03851Y03484*
X03842Y03486*
X03833Y03488*
X03825Y03489*
X03816Y0349*
X03807Y03489*
X03798Y03489*
X0379Y03487*
X03781Y03485*
X03773Y03483*
X03765Y0348*
X03757Y03476*
X03749Y03472*
X03741Y03467*
X03734Y03462*
X03728Y03456*
X03722Y0345*
X03716Y03443*
X03711Y03436*
X03706Y03428*
X03702Y03421*
X03698Y03413*
X03695Y03405*
X03692Y03396*
X0369Y03388*
X03689Y03379*
X03688Y0337*
X03688Y03361*
X03688Y03353*
X03689Y03344*
X03691Y03335*
X03693Y03327*
X03696Y03318*
X037Y0331*
X03704Y03302*
X03708Y03295*
X03713Y03288*
X03719Y03281*
X03725Y03274*
X03731Y03268*
X03738Y03263*
X03744Y03259*
X02629Y0334D02*
D01*
X02631Y03348*
X02631Y03357*
X02631Y03366*
X02631Y03375*
X0263Y03383*
X02628Y03392*
X02626Y034*
X02623Y03409*
X02619Y03417*
X02615Y03425*
X02611Y03432*
X02605Y03439*
X026Y03446*
X02594Y03452*
X02587Y03458*
X0258Y03464*
X02573Y03469*
X02566Y03473*
X02558Y03477*
X0255Y03481*
X02541Y03483*
X02533Y03486*
X02524Y03487*
X02515Y03488*
X02507Y03489*
X02498Y03488*
X02489Y03487*
X0248Y03486*
X02472Y03484*
X02463Y03481*
X02455Y03478*
X02447Y03474*
X0244Y0347*
X02432Y03465*
X02425Y0346*
X02419Y03454*
X02413Y03448*
X02407Y03441*
X02402Y03434*
X02397Y03426*
X02393Y03419*
X02389Y03411*
X02386Y03403*
X02384Y03394*
X02382Y03386*
X0238Y03377*
X0238Y03368*
X0238Y03359*
X0238Y0335*
X02381Y03342*
X02383Y03333*
X02385Y03325*
X02388Y03316*
X02392Y03308*
X02396Y033*
X024Y03293*
X02406Y03286*
X02411Y03279*
X02417Y03273*
X02424Y03267*
X02431Y03261*
X02438Y03256*
X02445Y03252*
X02453Y03248*
X02461Y03244*
X0247Y03242*
X02478Y03239*
X02487Y03238*
X02496Y03237*
X02504Y03236*
X02513Y03237*
X02522Y03238*
X02531Y03239*
X02539Y03241*
X02548Y03244*
X02556Y03247*
X02564Y03251*
X02571Y03255*
X02575Y03258*
X02903Y03067D02*
D01*
X02912Y03078*
X02921Y0309*
X02928Y03103*
X02934Y03116*
X0294Y03129*
X02945Y03143*
X02948Y03157*
X02951Y03172*
X02953Y03186*
X02953Y03201*
X02953Y03215*
X02951Y0323*
X02949Y03244*
X02946Y03258*
X02941Y03272*
X02936Y03286*
X0293Y03299*
X02922Y03312*
X02914Y03324*
X02905Y03335*
X02902Y0334*
X02743Y03601D02*
Y0371D01*
X02852*
X02743Y03601D02*
X02852D01*
Y0371*
X02601Y036D02*
Y03709D01*
X0271*
X02601Y036D02*
X0271D01*
Y03709*
X02175Y03636D02*
Y03671D01*
Y03557D02*
Y03592D01*
Y03671D02*
X02226D01*
X02175Y03557D02*
X02226D01*
X02238Y036D02*
Y03628D01*
X02745Y03088D02*
Y03203D01*
Y03317*
X0263Y03203D02*
X02745D01*
X02859*
X02703Y03375D02*
Y03436D01*
X02791*
Y03375D02*
Y03436D01*
X02131Y03D02*
X04418D01*
X02132Y03511D02*
Y03727D01*
X02131Y03D02*
Y03216D01*
X02132Y03727D02*
X04417D01*
Y03592D02*
Y03727D01*
X04418Y03D02*
Y03519D01*
X02902Y03339D02*
Y03725D01*
X02902Y03D02*
Y03067D01*
G54D97*
X02257Y03687D02*
D01*
X02257Y03687*
X02257Y03687*
X02257Y03688*
X02257Y03688*
X02257Y03688*
X02257Y03688*
X02257Y03689*
X02257Y03689*
X02257Y03689*
X02256Y03689*
X02256Y0369*
X02256Y0369*
X02256Y0369*
X02256Y0369*
X02255Y0369*
X02255Y0369*
X02255Y03691*
X02255Y03691*
X02254Y03691*
X02254Y03691*
X02254Y03691*
X02254Y03691*
X02253*
X02253Y03691*
X02253Y03691*
X02253Y03691*
X02252Y03691*
X02252Y03691*
X02252Y0369*
X02252Y0369*
X02251Y0369*
X02251Y0369*
X02251Y0369*
X02251Y0369*
X02251Y03689*
X0225Y03689*
X0225Y03689*
X0225Y03689*
X0225Y03688*
X0225Y03688*
X0225Y03688*
X0225Y03688*
X0225Y03687*
X0225Y03687*
X0225Y03687*
X0225Y03687*
X0225Y03686*
X0225Y03686*
X0225Y03686*
X0225Y03686*
X0225Y03685*
X0225Y03685*
X0225Y03685*
X0225Y03685*
X02251Y03684*
X02251Y03684*
X02251Y03684*
X02251Y03684*
X02251Y03684*
X02252Y03684*
X02252Y03683*
X02252Y03683*
X02252Y03683*
X02253Y03683*
X02253Y03683*
X02253Y03683*
X02253Y03683*
X02254*
X02254Y03683*
X02254Y03683*
X02254Y03683*
X02255Y03683*
X02255Y03683*
X02255Y03683*
X02255Y03684*
X02256Y03684*
X02256Y03684*
X02256Y03684*
X02256Y03684*
X02256Y03684*
X02257Y03685*
X02257Y03685*
X02257Y03685*
X02257Y03685*
X02257Y03686*
X02257Y03686*
X02257Y03686*
X02257Y03686*
X02257Y03687*
X02257Y03687*
G54D98*
X02536Y03635D02*
D01*
X02539Y03637*
X02541Y0364*
X02544Y03642*
X02546Y03645*
X02548Y03647*
X0255Y0365*
X02551Y03653*
X02552Y03656*
X02554Y03659*
X02554Y03662*
X02555Y03665*
X02556Y03669*
X02556Y03672*
X02556Y03675*
X02556Y03678*
X02555Y03682*
X02554Y03685*
X02554Y03688*
X02552Y03691*
X02551Y03694*
X0255Y03697*
X02548Y037*
X02546Y03703*
X02544Y03705*
X02542Y03708*
X02539Y0371*
X02536Y03712*
X02536Y03713*
X02404D02*
D01*
X02401Y0371*
X02398Y03708*
X02396Y03706*
X02394Y03703*
X02392Y03701*
X0239Y03698*
X02389Y03695*
X02387Y03692*
X02386Y03689*
X02385Y03686*
X02385Y03683*
X02384Y03679*
X02384Y03676*
X02384Y03673*
X02384Y03669*
X02385Y03666*
X02385Y03663*
X02386Y0366*
X02387Y03657*
X02389Y03654*
X0239Y03651*
X02392Y03648*
X02394Y03645*
X02396Y03643*
X02398Y0364*
X02401Y03638*
X02403Y03636*
X02404Y03636*
X03806Y03035D02*
D01*
X03808Y03033*
X03811Y03032*
X03813Y03031*
X03816Y0303*
X03819Y03029*
X03821Y03029*
X03824Y03028*
X03827Y03028*
X0383Y03028*
X03832Y03028*
X03835Y03029*
X03838Y0303*
X0384Y0303*
X03843Y03031*
X03845Y03032*
X03848Y03034*
X0385Y03035*
X03852Y03037*
X03854Y03039*
X03856Y03041*
X03858Y03043*
X0386Y03045*
X03861Y03047*
X03863Y0305*
X03864Y03052*
X03865Y03055*
X03865Y03057*
X03866Y0306*
X03867Y03063*
X03867Y03065*
X03867Y03068*
X03867Y03071*
X03866Y03074*
X03866Y03076*
X03865Y03079*
X03864Y03082*
X03863Y03084*
X03862Y03087*
X0386Y03089*
X03859Y03091*
X03857Y03093*
X03855Y03095*
X03853Y03097*
X03851Y03099*
X03849Y03101*
X03847Y03102*
X03844Y03103*
X03842Y03104*
X03839Y03105*
X03836Y03106*
X03834Y03106*
X03831Y03107*
X03828Y03107*
X03825Y03107*
X03823Y03107*
X0382Y03106*
X03817Y03105*
X03815Y03105*
X03812Y03104*
X0381Y03103*
X03807Y03101*
X03805Y031*
X03803Y03098*
X03801Y03096*
X03799Y03094*
X03797Y03092*
X03795Y0309*
X03794Y03088*
X03792Y03085*
X03791Y03083*
X0379Y0308*
X0379Y03078*
X03789Y03075*
X03788Y03072*
X03788Y0307*
X03788Y03067*
X03788Y03064*
X03789Y03061*
X03789Y03059*
X0379Y03056*
X03791Y03053*
X03792Y03051*
X03793Y03048*
X03795Y03046*
X03796Y03044*
X03798Y03042*
X038Y0304*
X03802Y03038*
X03804Y03036*
X03806Y03035*
X03905Y03035D02*
D01*
X03907Y03033*
X0391Y03032*
X03912Y03031*
X03915Y0303*
X03918Y03029*
X0392Y03029*
X03923Y03028*
X03926Y03028*
X03929Y03028*
X03931Y03028*
X03934Y03029*
X03937Y0303*
X03939Y0303*
X03942Y03031*
X03944Y03032*
X03947Y03034*
X03949Y03035*
X03951Y03037*
X03953Y03039*
X03955Y03041*
X03957Y03043*
X03959Y03045*
X0396Y03047*
X03962Y0305*
X03963Y03052*
X03964Y03055*
X03964Y03057*
X03965Y0306*
X03966Y03063*
X03966Y03065*
X03966Y03068*
X03966Y03071*
X03965Y03074*
X03965Y03076*
X03964Y03079*
X03963Y03082*
X03962Y03084*
X03961Y03087*
X03959Y03089*
X03958Y03091*
X03956Y03093*
X03954Y03095*
X03952Y03097*
X0395Y03099*
X03948Y03101*
X03946Y03102*
X03943Y03103*
X03941Y03104*
X03938Y03105*
X03935Y03106*
X03933Y03106*
X0393Y03107*
X03927Y03107*
X03924Y03107*
X03922Y03107*
X03919Y03106*
X03916Y03105*
X03914Y03105*
X03911Y03104*
X03909Y03103*
X03906Y03101*
X03904Y031*
X03902Y03098*
X039Y03096*
X03898Y03094*
X03896Y03092*
X03894Y0309*
X03893Y03088*
X03891Y03085*
X0389Y03083*
X03889Y0308*
X03889Y03078*
X03888Y03075*
X03887Y03072*
X03887Y0307*
X03887Y03067*
X03887Y03064*
X03888Y03061*
X03888Y03059*
X03889Y03056*
X0389Y03053*
X03891Y03051*
X03892Y03048*
X03894Y03046*
X03895Y03044*
X03897Y03042*
X03899Y0304*
X03901Y03038*
X03903Y03036*
X03905Y03035*
X04004Y03035D02*
D01*
X04006Y03033*
X04009Y03032*
X04011Y03031*
X04014Y0303*
X04017Y03029*
X04019Y03029*
X04022Y03028*
X04025Y03028*
X04028Y03028*
X0403Y03028*
X04033Y03029*
X04036Y0303*
X04038Y0303*
X04041Y03031*
X04043Y03032*
X04046Y03034*
X04048Y03035*
X0405Y03037*
X04052Y03039*
X04054Y03041*
X04056Y03043*
X04058Y03045*
X04059Y03047*
X04061Y0305*
X04062Y03052*
X04063Y03055*
X04063Y03057*
X04064Y0306*
X04065Y03063*
X04065Y03065*
X04065Y03068*
X04065Y03071*
X04064Y03074*
X04064Y03076*
X04063Y03079*
X04062Y03082*
X04061Y03084*
X0406Y03087*
X04058Y03089*
X04057Y03091*
X04055Y03093*
X04053Y03095*
X04051Y03097*
X04049Y03099*
X04047Y03101*
X04045Y03102*
X04042Y03103*
X0404Y03104*
X04037Y03105*
X04034Y03106*
X04032Y03106*
X04029Y03107*
X04026Y03107*
X04023Y03107*
X04021Y03107*
X04018Y03106*
X04015Y03105*
X04013Y03105*
X0401Y03104*
X04008Y03103*
X04005Y03101*
X04003Y031*
X04001Y03098*
X03999Y03096*
X03997Y03094*
X03995Y03092*
X03993Y0309*
X03992Y03088*
X0399Y03085*
X03989Y03083*
X03988Y0308*
X03988Y03078*
X03987Y03075*
X03986Y03072*
X03986Y0307*
X03986Y03067*
X03986Y03064*
X03987Y03061*
X03987Y03059*
X03988Y03056*
X03989Y03053*
X0399Y03051*
X03991Y03048*
X03993Y03046*
X03994Y03044*
X03996Y03042*
X03998Y0304*
X04Y03038*
X04002Y03036*
X04004Y03035*
X03841Y03622D02*
D01*
X03844Y03623*
X03846Y03624*
X03849Y03625*
X03851Y03627*
X03853Y03629*
X03855Y03631*
X03857Y03633*
X03859Y03635*
X0386Y03637*
X03862Y03639*
X03863Y03642*
X03864Y03644*
X03865Y03647*
X03866Y03649*
X03866Y03652*
X03867Y03655*
X03867Y03658*
X03867Y0366*
X03867Y03663*
X03866Y03666*
X03866Y03668*
X03865Y03671*
X03864Y03674*
X03863Y03676*
X03861Y03679*
X0386Y03681*
X03858Y03683*
X03856Y03685*
X03854Y03687*
X03852Y03689*
X0385Y03691*
X03848Y03692*
X03846Y03693*
X03843Y03695*
X03841Y03696*
X03838Y03696*
X03835Y03697*
X03833Y03698*
X0383Y03698*
X03827Y03698*
X03824Y03698*
X03822Y03697*
X03819Y03697*
X03816Y03696*
X03814Y03695*
X03811Y03694*
X03809Y03693*
X03806Y03692*
X03804Y0369*
X03802Y03688*
X038Y03686*
X03798Y03684*
X03796Y03682*
X03795Y0368*
X03793Y03678*
X03792Y03675*
X03791Y03673*
X0379Y0367*
X03789Y03668*
X03789Y03665*
X03788Y03662*
X03788Y03659*
X03788Y03657*
X03788Y03654*
X03789Y03651*
X03789Y03649*
X0379Y03646*
X03791Y03643*
X03792Y03641*
X03794Y03638*
X03795Y03636*
X03797Y03634*
X03799Y03632*
X03801Y0363*
X03803Y03628*
X03805Y03626*
X03807Y03625*
X03809Y03624*
X03811Y03623*
X03941Y03623D02*
D01*
X03944Y03625*
X03946Y03626*
X03948Y03627*
X0395Y03629*
X03953Y03631*
X03954Y03633*
X03956Y03635*
X03958Y03637*
X03959Y03639*
X03961Y03642*
X03962Y03644*
X03963Y03647*
X03964Y0365*
X03964Y03652*
X03965Y03655*
X03965Y03658*
X03965Y0366*
X03965Y03663*
X03964Y03666*
X03964Y03669*
X03963Y03671*
X03962Y03674*
X03961Y03676*
X0396Y03679*
X03958Y03681*
X03957Y03683*
X03955Y03685*
X03953Y03687*
X03951Y03689*
X03949Y03691*
X03947Y03693*
X03944Y03694*
X03942Y03695*
X03939Y03696*
X03937Y03697*
X03934Y03698*
X03931Y03698*
X03929Y03699*
X03926Y03699*
X03923Y03699*
X0392Y03699*
X03918Y03698*
X03915Y03697*
X03912Y03697*
X0391Y03696*
X03907Y03694*
X03905Y03693*
X03903Y03692*
X03901Y0369*
X03898Y03688*
X03897Y03686*
X03895Y03684*
X03893Y03682*
X03892Y0368*
X0389Y03677*
X03889Y03675*
X03888Y03672*
X03887Y03669*
X03887Y03667*
X03886Y03664*
X03886Y03661*
X03886Y03659*
X03886Y03656*
X03887Y03653*
X03887Y0365*
X03888Y03648*
X03889Y03645*
X0389Y03643*
X03891Y0364*
X03893Y03638*
X03894Y03636*
X03896Y03634*
X03898Y03632*
X039Y0363*
X03902Y03628*
X03904Y03626*
X03907Y03625*
X03909Y03624*
X03911Y03623*
X04038Y03623D02*
D01*
X04041Y03625*
X04043Y03626*
X04045Y03627*
X04047Y03629*
X0405Y03631*
X04051Y03633*
X04053Y03635*
X04055Y03637*
X04056Y03639*
X04058Y03642*
X04059Y03644*
X0406Y03647*
X04061Y0365*
X04061Y03652*
X04062Y03655*
X04062Y03658*
X04062Y0366*
X04062Y03663*
X04061Y03666*
X04061Y03669*
X0406Y03671*
X04059Y03674*
X04058Y03676*
X04057Y03679*
X04055Y03681*
X04054Y03683*
X04052Y03685*
X0405Y03687*
X04048Y03689*
X04046Y03691*
X04044Y03693*
X04041Y03694*
X04039Y03695*
X04036Y03696*
X04034Y03697*
X04031Y03698*
X04028Y03698*
X04026Y03699*
X04023Y03699*
X0402Y03699*
X04017Y03699*
X04015Y03698*
X04012Y03697*
X04009Y03697*
X04007Y03696*
X04004Y03694*
X04002Y03693*
X04Y03692*
X03998Y0369*
X03995Y03688*
X03994Y03686*
X03992Y03684*
X0399Y03682*
X03989Y0368*
X03987Y03677*
X03986Y03675*
X03985Y03672*
X03984Y03669*
X03984Y03667*
X03983Y03664*
X03983Y03661*
X03983Y03659*
X03983Y03656*
X03984Y03653*
X03984Y0365*
X03985Y03648*
X03986Y03645*
X03987Y03643*
X03988Y0364*
X0399Y03638*
X03991Y03636*
X03993Y03634*
X03995Y03632*
X03997Y0363*
X03999Y03628*
X04001Y03626*
X04004Y03625*
X04006Y03624*
X04009Y03623*
X02219Y03037D02*
D01*
X02221Y03035*
X02224Y03034*
X02226Y03033*
X02229Y03032*
X02232Y03031*
X02234Y03031*
X02237Y0303*
X0224Y0303*
X02243Y0303*
X02245Y0303*
X02248Y03031*
X02251Y03032*
X02253Y03032*
X02256Y03033*
X02258Y03034*
X02261Y03036*
X02263Y03037*
X02265Y03039*
X02267Y03041*
X02269Y03043*
X02271Y03045*
X02273Y03047*
X02274Y03049*
X02276Y03052*
X02277Y03054*
X02278Y03057*
X02278Y03059*
X02279Y03062*
X0228Y03065*
X0228Y03067*
X0228Y0307*
X0228Y03073*
X02279Y03076*
X02279Y03078*
X02278Y03081*
X02277Y03084*
X02276Y03086*
X02275Y03089*
X02273Y03091*
X02272Y03093*
X0227Y03095*
X02268Y03097*
X02266Y03099*
X02264Y03101*
X02262Y03103*
X0226Y03104*
X02257Y03105*
X02255Y03106*
X02252Y03107*
X02249Y03108*
X02247Y03108*
X02244Y03109*
X02241Y03109*
X02238Y03109*
X02236Y03109*
X02233Y03108*
X0223Y03107*
X02228Y03107*
X02225Y03106*
X02223Y03105*
X0222Y03103*
X02218Y03102*
X02216Y031*
X02214Y03098*
X02212Y03096*
X0221Y03094*
X02208Y03092*
X02207Y0309*
X02205Y03087*
X02204Y03085*
X02203Y03082*
X02203Y0308*
X02202Y03077*
X02201Y03074*
X02201Y03072*
X02201Y03069*
X02201Y03066*
X02202Y03063*
X02202Y03061*
X02203Y03058*
X02204Y03055*
X02205Y03053*
X02206Y0305*
X02208Y03048*
X02209Y03046*
X02211Y03044*
X02213Y03042*
X02215Y0304*
X02217Y03038*
X02219Y03037*
X02319Y03037D02*
D01*
X02321Y03035*
X02324Y03034*
X02326Y03033*
X02329Y03032*
X02332Y03031*
X02334Y03031*
X02337Y0303*
X0234Y0303*
X02343Y0303*
X02345Y0303*
X02348Y03031*
X02351Y03032*
X02353Y03032*
X02356Y03033*
X02358Y03034*
X02361Y03036*
X02363Y03037*
X02365Y03039*
X02367Y03041*
X02369Y03043*
X02371Y03045*
X02373Y03047*
X02374Y03049*
X02376Y03052*
X02377Y03054*
X02378Y03057*
X02378Y03059*
X02379Y03062*
X0238Y03065*
X0238Y03067*
X0238Y0307*
X0238Y03073*
X02379Y03076*
X02379Y03078*
X02378Y03081*
X02377Y03084*
X02376Y03086*
X02375Y03089*
X02373Y03091*
X02372Y03093*
X0237Y03095*
X02368Y03097*
X02366Y03099*
X02364Y03101*
X02362Y03103*
X0236Y03104*
X02357Y03105*
X02355Y03106*
X02352Y03107*
X02349Y03108*
X02347Y03108*
X02344Y03109*
X02341Y03109*
X02338Y03109*
X02336Y03109*
X02333Y03108*
X0233Y03107*
X02328Y03107*
X02325Y03106*
X02323Y03105*
X0232Y03103*
X02318Y03102*
X02316Y031*
X02314Y03098*
X02312Y03096*
X0231Y03094*
X02308Y03092*
X02307Y0309*
X02305Y03087*
X02304Y03085*
X02303Y03082*
X02303Y0308*
X02302Y03077*
X02301Y03074*
X02301Y03072*
X02301Y03069*
X02301Y03066*
X02302Y03063*
X02302Y03061*
X02303Y03058*
X02304Y03055*
X02305Y03053*
X02306Y0305*
X02308Y03048*
X02309Y03046*
X02311Y03044*
X02313Y03042*
X02315Y0304*
X02317Y03038*
X02319Y03037*
X02419Y03037D02*
D01*
X02421Y03035*
X02424Y03034*
X02426Y03033*
X02429Y03032*
X02432Y03031*
X02434Y03031*
X02437Y0303*
X0244Y0303*
X02443Y0303*
X02445Y0303*
X02448Y03031*
X02451Y03032*
X02453Y03032*
X02456Y03033*
X02458Y03034*
X02461Y03036*
X02463Y03037*
X02465Y03039*
X02467Y03041*
X02469Y03043*
X02471Y03045*
X02473Y03047*
X02474Y03049*
X02476Y03052*
X02477Y03054*
X02478Y03057*
X02478Y03059*
X02479Y03062*
X0248Y03065*
X0248Y03067*
X0248Y0307*
X0248Y03073*
X02479Y03076*
X02479Y03078*
X02478Y03081*
X02477Y03084*
X02476Y03086*
X02475Y03089*
X02473Y03091*
X02472Y03093*
X0247Y03095*
X02468Y03097*
X02466Y03099*
X02464Y03101*
X02462Y03103*
X0246Y03104*
X02457Y03105*
X02455Y03106*
X02452Y03107*
X02449Y03108*
X02447Y03108*
X02444Y03109*
X02441Y03109*
X02438Y03109*
X02436Y03109*
X02433Y03108*
X0243Y03107*
X02428Y03107*
X02425Y03106*
X02423Y03105*
X0242Y03103*
X02418Y03102*
X02416Y031*
X02414Y03098*
X02412Y03096*
X0241Y03094*
X02408Y03092*
X02407Y0309*
X02405Y03087*
X02404Y03085*
X02403Y03082*
X02403Y0308*
X02402Y03077*
X02401Y03074*
X02401Y03072*
X02401Y03069*
X02401Y03066*
X02402Y03063*
X02402Y03061*
X02403Y03058*
X02404Y03055*
X02405Y03053*
X02406Y0305*
X02408Y03048*
X02409Y03046*
X02411Y03044*
X02413Y03042*
X02415Y0304*
X02417Y03038*
X02419Y03037*
X02519Y03037D02*
D01*
X02521Y03035*
X02524Y03034*
X02526Y03033*
X02529Y03032*
X02532Y03031*
X02534Y03031*
X02537Y0303*
X0254Y0303*
X02543Y0303*
X02545Y0303*
X02548Y03031*
X02551Y03032*
X02553Y03032*
X02556Y03033*
X02558Y03034*
X02561Y03036*
X02563Y03037*
X02565Y03039*
X02567Y03041*
X02569Y03043*
X02571Y03045*
X02573Y03047*
X02574Y03049*
X02576Y03052*
X02577Y03054*
X02578Y03057*
X02578Y03059*
X02579Y03062*
X0258Y03065*
X0258Y03067*
X0258Y0307*
X0258Y03073*
X02579Y03076*
X02579Y03078*
X02578Y03081*
X02577Y03084*
X02576Y03086*
X02575Y03089*
X02573Y03091*
X02572Y03093*
X0257Y03095*
X02568Y03097*
X02566Y03099*
X02564Y03101*
X02562Y03103*
X0256Y03104*
X02557Y03105*
X02555Y03106*
X02552Y03107*
X02549Y03108*
X02547Y03108*
X02544Y03109*
X02541Y03109*
X02538Y03109*
X02536Y03109*
X02533Y03108*
X0253Y03107*
X02528Y03107*
X02525Y03106*
X02523Y03105*
X0252Y03103*
X02518Y03102*
X02516Y031*
X02514Y03098*
X02512Y03096*
X0251Y03094*
X02508Y03092*
X02507Y0309*
X02505Y03087*
X02504Y03085*
X02503Y03082*
X02503Y0308*
X02502Y03077*
X02501Y03074*
X02501Y03072*
X02501Y03069*
X02501Y03066*
X02502Y03063*
X02502Y03061*
X02503Y03058*
X02504Y03055*
X02505Y03053*
X02506Y0305*
X02508Y03048*
X02509Y03046*
X02511Y03044*
X02513Y03042*
X02515Y0304*
X02517Y03038*
X02519Y03037*
X04078Y03329D02*
Y03358D01*
X04121*
Y03329D02*
Y03358D01*
X04078Y03329D02*
X04121D01*
X04149Y03508D02*
X04178D01*
Y03465D02*
Y03508D01*
X04149Y03465D02*
X04178D01*
X04149D02*
Y03508D01*
X04133Y03595D02*
X04162D01*
X04133D02*
Y03638D01*
X04162*
Y03595D02*
Y03638D01*
X04009Y03623D02*
X04038D01*
Y0358D02*
Y03623D01*
X04009Y0358D02*
X04038D01*
X04009D02*
Y03623D01*
X03912D02*
X03941D01*
Y0358D02*
Y03623D01*
X03912Y0358D02*
X03941D01*
X03912D02*
Y03623D01*
X03812D02*
X03841D01*
Y0358D02*
Y03623D01*
X03812Y0358D02*
X03841D01*
X03812D02*
Y03623D01*
X04032Y03247D02*
X04061D01*
X04032D02*
Y0329D01*
X04061*
Y03247D02*
Y0329D01*
X04141Y03209D02*
Y03238D01*
X04184*
Y03209D02*
Y03238D01*
X04141Y03209D02*
X04184D01*
X04175Y03073D02*
X04204D01*
X04175D02*
Y03116D01*
X04204*
Y03073D02*
Y03116D01*
X03948Y03313D02*
Y03342D01*
X03991*
Y03313D02*
Y03342D01*
X03948Y03313D02*
X03991D01*
X04226Y03161D02*
Y0319D01*
X04269*
Y03161D02*
Y0319D01*
X04226Y03161D02*
X04269D01*
X0414Y03148D02*
Y03177D01*
X04097Y03148D02*
X0414D01*
X04097D02*
Y03177D01*
X0414*
X04256Y03541D02*
Y0357D01*
X04213Y03541D02*
X04256D01*
X04213D02*
Y0357D01*
X04256*
X04068Y03525D02*
Y03554D01*
X04111*
Y03525D02*
Y03554D01*
X04068Y03525D02*
X04111D01*
X04014Y03426D02*
X04043D01*
Y03383D02*
Y03426D01*
X04014Y03383D02*
X04043D01*
X04014D02*
Y03426D01*
X04256Y03505D02*
Y03534D01*
X04213Y03505D02*
X04256D01*
X04213D02*
Y03534D01*
X04256*
X04086Y03465D02*
X04115D01*
X04086D02*
Y03508D01*
X04115*
Y03465D02*
Y03508D01*
X04048Y03426D02*
X04077D01*
Y03383D02*
Y03426D01*
X04048Y03383D02*
X04077D01*
X04048D02*
Y03426D01*
X0422Y03134D02*
Y03201D01*
X04146Y03134D02*
X0422D01*
X04146D02*
Y03201D01*
X0422D01*
X04Y03301D02*
Y03368D01*
X04074*
Y03301D02*
Y03368D01*
X04Y03301D02*
X04074D01*
X04122Y03586D02*
X04189D01*
Y03512D02*
Y03586D01*
X04122Y03512D02*
X04189D01*
X04122D02*
Y03586D01*
X02955Y03496D02*
Y03625D01*
X03016Y03497D02*
Y03626D01*
X02831Y03432D02*
X0286D01*
X02831D02*
Y03475D01*
X0286*
Y03432D02*
Y03475D01*
X02857Y03485D02*
Y03514D01*
X02814Y03485D02*
X02857D01*
X02814D02*
Y03514D01*
X02857*
X04172Y03331D02*
Y0336D01*
X04129Y03331D02*
X04172D01*
X04129D02*
Y0336D01*
X04172*
X04129Y03366D02*
Y03395D01*
X04172*
Y03366D02*
Y03395D01*
X04129Y03366D02*
X04172D01*
X04281Y03295D02*
X04328Y03342D01*
X04381Y0329*
X04333Y03242D02*
X04381Y0329D01*
X04281Y03295D02*
X04333Y03242D01*
X04312Y03524D02*
X04442D01*
X04311Y03585D02*
X04441D01*
X04267Y03375D02*
Y03447D01*
Y03447D02*
X04385D01*
X04386Y03447*
Y03375D02*
Y03447D01*
X04267Y03375D02*
X04386D01*
X04366Y03326D02*
Y03355D01*
X04409*
Y03326D02*
Y03355D01*
X04366Y03326D02*
X04409D01*
X02358Y03466D02*
Y03596D01*
X02297Y03465D02*
Y03595D01*
X02404Y03713D02*
X02536D01*
X02405Y03636D02*
X02537D01*
X03053Y03378D02*
X03039Y03359D01*
Y03378D02*
X03053Y03359D01*
X03033D02*
X03026D01*
X0303*
Y03378*
X03033Y03375*
X02277Y03632D02*
X02293D01*
X02297Y03628*
Y03622*
X02293Y03618*
X02277*
X02297Y03599D02*
Y03612D01*
X02283Y03599*
X0228*
X02277Y03602*
Y03609*
X0228Y03612*
X02291Y03418D02*
Y03405D01*
Y03411*
X02311*
Y03398D02*
X02291D01*
Y03388*
X02295Y03385*
X02301*
X02305Y03388*
Y03398*
X02311Y03378D02*
Y03372D01*
Y03375*
X02291*
X02295Y03378*
X02311Y03352D02*
X02291D01*
X02301Y03362*
Y03349*
X02254Y0348D02*
Y03466D01*
Y03473*
X02274*
Y0346D02*
X02254D01*
Y0345*
X02257Y03447*
X02264*
X02267Y0345*
Y0346*
X02274Y0344D02*
Y03434D01*
Y03437*
X02254*
X02257Y0344*
Y03424D02*
X02254Y03421D01*
Y03414*
X02257Y03411*
X0226*
X02264Y03414*
Y03417*
Y03414*
X02267Y03411*
X0227*
X02274Y03414*
Y03421*
X0227Y03424*
X02357Y03671D02*
Y03657D01*
Y03664*
X02377*
Y03651D02*
X02357D01*
Y03641*
X0236Y03638*
X02367*
X0237Y03641*
Y03651*
X02377Y03631D02*
Y03625D01*
Y03628*
X02357*
X0236Y03631*
X02377Y03602D02*
Y03615D01*
X02363Y03602*
X0236*
X02357Y03605*
Y03612*
X0236Y03615*
X04281Y03709D02*
X04267D01*
X04274*
Y0369*
X04261D02*
Y03709D01*
X04251*
X04248Y03706*
Y03699*
X04251Y03696*
X04261*
X04241Y0369D02*
X04235D01*
X04238*
Y03709*
X04241Y03706*
X04225D02*
X04222Y03709D01*
X04215*
X04212Y03706*
Y03693*
X04215Y0369*
X04222*
X04225Y03693*
Y03706*
X0415Y03708D02*
X04136D01*
X04143*
Y03688*
X0413D02*
Y03708D01*
X0412*
X04117Y03704*
Y03698*
X0412Y03695*
X0413*
X0411Y03691D02*
X04107Y03688D01*
X041*
X04097Y03691*
Y03704*
X041Y03708*
X04107*
X0411Y03704*
Y03701*
X04107Y03698*
X04097*
X04209Y03708D02*
X04195D01*
X04202*
Y03689*
X04189D02*
Y03708D01*
X04179*
X04176Y03705*
Y03698*
X04179Y03695*
X04189*
X04169Y03705D02*
X04166Y03708D01*
X04159*
X04156Y03705*
Y03702*
X04159Y03698*
X04156Y03695*
Y03692*
X04159Y03689*
X04166*
X04169Y03692*
Y03695*
X04166Y03698*
X04169Y03702*
Y03705*
X04166Y03698D02*
X04159D01*
X04326Y03498D02*
X04312D01*
X04319*
Y03479*
X04306D02*
Y03498D01*
X04296*
X04293Y03495*
Y03488*
X04296Y03485*
X04306*
X04273Y03498D02*
X0428Y03495D01*
X04286Y03488*
Y03482*
X04283Y03479*
X04276*
X04273Y03482*
Y03485*
X04276Y03488*
X04286*
X02866Y03403D02*
Y03422D01*
X02856*
X02852Y03419*
Y03412*
X02856Y03409*
X02866*
X02859D02*
X02852Y03403D01*
X02836D02*
Y03422D01*
X02846Y03412*
X02833*
X02813Y03422D02*
X0282Y03419D01*
X02826Y03412*
Y03406*
X02823Y03403*
X02816*
X02813Y03406*
Y03409*
X02816Y03412*
X02826*
X02803Y03492D02*
Y03511D01*
X02793*
X02789Y03508*
Y03501*
X02793Y03498*
X02803*
X02796D02*
X02789Y03492D01*
X02773D02*
Y03511D01*
X02783Y03501*
X0277*
X0275Y03511D02*
X02763D01*
Y03501*
X02757Y03505*
X02753*
X0275Y03501*
Y03495*
X02753Y03492*
X0276*
X02763Y03495*
X04233Y03336D02*
Y03355D01*
X04223*
X04219Y03352*
Y03345*
X04223Y03342*
X04233*
X04226D02*
X04219Y03336D01*
X04203D02*
Y03355D01*
X04213Y03345*
X042*
X04183Y03336D02*
Y03355D01*
X04193Y03345*
X0418*
X04175Y03405D02*
Y03424D01*
X04165*
X04161Y03421*
Y03414*
X04165Y03411*
X04175*
X04168D02*
X04161Y03405D01*
X04145D02*
Y03424D01*
X04155Y03414*
X04142*
X04135Y03421D02*
X04132Y03424D01*
X04125*
X04122Y03421*
Y03418*
X04125Y03414*
X04129*
X04125*
X04122Y03411*
Y03408*
X04125Y03405*
X04132*
X04135Y03408*
X03986Y03306D02*
X03966D01*
Y03296*
X03969Y03292*
X03976*
X03979Y03296*
Y03306*
Y03299D02*
X03986Y03292D01*
Y03276D02*
X03966D01*
X03976Y03286*
Y03273*
X03986Y03253D02*
Y03266D01*
X03972Y03253*
X03969*
X03966Y03256*
Y03263*
X03969Y03266*
X04256Y03244D02*
X04236D01*
Y03234*
X04239Y0323*
X04246*
X04249Y03234*
Y03244*
Y03237D02*
X04256Y0323D01*
Y03214D02*
X04236D01*
X04246Y03224*
Y03211*
X04256Y03204D02*
Y03198D01*
Y03201*
X04236*
X04239Y03204*
X04087Y03188D02*
X04067D01*
Y03178*
X0407Y03174*
X04077*
X0408Y03178*
Y03188*
Y03181D02*
X04087Y03174D01*
Y03158D02*
X04067D01*
X04077Y03168*
Y03155*
X0407Y03148D02*
X04067Y03145D01*
Y03138*
X0407Y03135*
X04083*
X04087Y03138*
Y03145*
X04083Y03148*
X0407*
X04107Y03322D02*
X04087D01*
Y03312*
X0409Y03308*
X04097*
X041Y03312*
Y03322*
Y03315D02*
X04107Y03308D01*
X0409Y03302D02*
X04087Y03299D01*
Y03292*
X0409Y03289*
X04093*
X04097Y03292*
Y03295*
Y03292*
X041Y03289*
X04103*
X04107Y03292*
Y03299*
X04103Y03302*
Y03282D02*
X04107Y03279D01*
Y03272*
X04103Y03269*
X0409*
X04087Y03272*
Y03279*
X0409Y03282*
X04093*
X04097Y03279*
Y03269*
X04127Y03607D02*
Y03626D01*
X04117*
X04113Y03623*
Y03616*
X04117Y03613*
X04127*
X0412D02*
X04113Y03607D01*
X04107Y03623D02*
X04104Y03626D01*
X04097*
X04094Y03623*
Y0362*
X04097Y03616*
X041*
X04097*
X04094Y03613*
Y0361*
X04097Y03607*
X04104*
X04107Y0361*
X04087Y03623D02*
X04084Y03626D01*
X04077*
X04074Y03623*
Y0362*
X04077Y03616*
X04074Y03613*
Y0361*
X04077Y03607*
X04084*
X04087Y0361*
Y03613*
X04084Y03616*
X04087Y0362*
Y03623*
X04084Y03616D02*
X04077D01*
X04191Y03438D02*
Y03457D01*
X04181*
X04177Y03454*
Y03447*
X04181Y03444*
X04191*
X04184D02*
X04177Y03438D01*
X04171Y03454D02*
X04168Y03457D01*
X04161*
X04158Y03454*
Y03451*
X04161Y03447*
X04164*
X04161*
X04158Y03444*
Y03441*
X04161Y03438*
X04168*
X04171Y03441*
X04151Y03457D02*
X04138D01*
Y03454*
X04151Y03441*
Y03438*
X04231Y03121D02*
X04211D01*
Y03111*
X04214Y03107*
X04221*
X04224Y03111*
Y03121*
Y03114D02*
X04231Y03107D01*
X04214Y03101D02*
X04211Y03098D01*
Y03091*
X04214Y03088*
X04217*
X04221Y03091*
Y03094*
Y03091*
X04224Y03088*
X04227*
X04231Y03091*
Y03098*
X04227Y03101*
X04211Y03068D02*
X04214Y03075D01*
X04221Y03081*
X04227*
X04231Y03078*
Y03071*
X04227Y03068*
X04224*
X04221Y03071*
Y03081*
X04131Y03248D02*
X04111D01*
Y03238*
X04114Y03234*
X04121*
X04124Y03238*
Y03248*
Y03241D02*
X04131Y03234D01*
X04114Y03228D02*
X04111Y03225D01*
Y03218*
X04114Y03215*
X04117*
X04121Y03218*
Y03221*
Y03218*
X04124Y03215*
X04127*
X04131Y03218*
Y03225*
X04127Y03228*
X04111Y03195D02*
Y03208D01*
X04121*
X04117Y03202*
Y03198*
X04121Y03195*
X04127*
X04131Y03198*
Y03205*
X04127Y03208*
X04027Y03294D02*
X04007D01*
Y03284*
X0401Y0328*
X04017*
X0402Y03284*
Y03294*
Y03287D02*
X04027Y0328D01*
X0401Y03274D02*
X04007Y03271D01*
Y03264*
X0401Y03261*
X04013*
X04017Y03264*
Y03267*
Y03264*
X0402Y03261*
X04023*
X04027Y03264*
Y03271*
X04023Y03274*
X04027Y03244D02*
X04007D01*
X04017Y03254*
Y03241*
X0405Y03554D02*
Y03573D01*
X0404*
X04036Y0357*
Y03563*
X0404Y0356*
X0405*
X04043D02*
X04036Y03554D01*
X0403Y0357D02*
X04027Y03573D01*
X0402*
X04017Y0357*
Y03567*
X0402Y03563*
X04023*
X0402*
X04017Y0356*
Y03557*
X0402Y03554*
X04027*
X0403Y03557*
X0401Y0357D02*
X04007Y03573D01*
X04*
X03997Y0357*
Y03557*
X04Y03554*
X04007*
X0401Y03557*
Y0357*
X03954Y03553D02*
Y03572D01*
X03944*
X0394Y03569*
Y03562*
X03944Y03559*
X03954*
X03947D02*
X0394Y03553D01*
X03921D02*
X03934D01*
X03921Y03566*
Y03569*
X03924Y03572*
X03931*
X03934Y03569*
X03914Y03556D02*
X03911Y03553D01*
X03904*
X03901Y03556*
Y03569*
X03904Y03572*
X03911*
X03914Y03569*
Y03566*
X03911Y03562*
X03901*
X03854Y03554D02*
Y03573D01*
X03844*
X0384Y0357*
Y03563*
X03844Y0356*
X03854*
X03847D02*
X0384Y03554D01*
X03821D02*
X03834D01*
X03821Y03567*
Y0357*
X03824Y03573*
X03831*
X03834Y0357*
X03814D02*
X03811Y03573D01*
X03804*
X03801Y0357*
Y03567*
X03804Y03563*
X03801Y0356*
Y03557*
X03804Y03554*
X03811*
X03814Y03557*
Y0356*
X03811Y03563*
X03814Y03567*
Y0357*
X03811Y03563D02*
X03804D01*
X04408Y03317D02*
X04388D01*
Y03307*
X04391Y03303*
X04398*
X04401Y03307*
Y03317*
Y0331D02*
X04408Y03303D01*
Y03284D02*
Y03297D01*
X04394Y03284*
X04391*
X04388Y03287*
Y03294*
X04391Y03297*
X04388Y03264D02*
X04391Y03271D01*
X04398Y03277*
X04404*
X04408Y03274*
Y03267*
X04404Y03264*
X04401*
X04398Y03267*
Y03277*
X04263Y03581D02*
Y036D01*
X04253*
X04249Y03597*
Y0359*
X04253Y03587*
X04263*
X04256D02*
X04249Y03581D01*
X0423D02*
X04243D01*
X0423Y03594*
Y03597*
X04233Y036*
X0424*
X04243Y03597*
X04213Y03581D02*
Y036D01*
X04223Y0359*
X0421*
X04115Y03561D02*
Y0358D01*
X04105*
X04101Y03577*
Y0357*
X04105Y03567*
X04115*
X04108D02*
X04101Y03561D01*
X04082D02*
X04095D01*
X04082Y03574*
Y03577*
X04085Y0358*
X04092*
X04095Y03577*
X04075D02*
X04072Y0358D01*
X04065*
X04062Y03577*
Y03574*
X04065Y0357*
X04069*
X04065*
X04062Y03567*
Y03564*
X04065Y03561*
X04072*
X04075Y03564*
X04037Y03487D02*
X04017D01*
Y03477*
X0402Y03473*
X04027*
X0403Y03477*
Y03487*
Y0348D02*
X04037Y03473D01*
Y03454D02*
Y03467D01*
X04023Y03454*
X0402*
X04017Y03457*
Y03464*
X0402Y03467*
X04037Y03434D02*
Y03447D01*
X04023Y03434*
X0402*
X04017Y03437*
Y03444*
X0402Y03447*
X04258Y03478D02*
Y03497D01*
X04248*
X04244Y03494*
Y03487*
X04248Y03484*
X04258*
X04251D02*
X04244Y03478D01*
X04225D02*
X04238D01*
X04225Y03491*
Y03494*
X04228Y03497*
X04235*
X04238Y03494*
X04218Y03478D02*
X04212D01*
X04215*
Y03497*
X04218Y03494*
X04125Y03438D02*
Y03457D01*
X04115*
X04111Y03454*
Y03447*
X04115Y03444*
X04125*
X04118D02*
X04111Y03438D01*
X04092D02*
X04105D01*
X04092Y03451*
Y03454*
X04095Y03457*
X04102*
X04105Y03454*
X04085D02*
X04082Y03457D01*
X04075*
X04072Y03454*
Y03441*
X04075Y03438*
X04082*
X04085Y03441*
Y03454*
X04102Y0343D02*
X04082D01*
Y0342*
X04085Y03416*
X04092*
X04095Y0342*
Y0343*
Y03423D02*
X04102Y03416D01*
Y0341D02*
Y03403D01*
Y03407*
X04082*
X04085Y0341*
X04098Y03393D02*
X04102Y0339D01*
Y03384*
X04098Y0338*
X04085*
X04082Y03384*
Y0339*
X04085Y03393*
X04088*
X04092Y0339*
Y0338*
X0416Y03109D02*
X04147D01*
X04144Y03113*
Y03119*
X04147Y03123*
X0416*
X04164Y03119*
Y03113*
X04157Y03116D02*
X04164Y03109D01*
Y03113D02*
X0416Y03109D01*
X04147Y03103D02*
X04144Y031D01*
Y03093*
X04147Y0309*
X0415*
X04154Y03093*
X04157Y0309*
X0416*
X04164Y03093*
Y031*
X0416Y03103*
X04157*
X04154Y031*
X0415Y03103*
X04147*
X04154Y031D02*
Y03093D01*
X04285Y03317D02*
X04276Y03326D01*
Y03331*
X0428Y03335*
X04285*
X04294Y03326*
Y03321*
X0429Y03317*
X04287Y03324D02*
Y03314D01*
X0429Y03317D02*
X04285D01*
X04276Y03303D02*
X04262Y03317D01*
X04276*
X04266Y03307*
X03984Y03379D02*
X03971D01*
X03968Y03383*
Y03389*
X03971Y03393*
X03984*
X03988Y03389*
Y03383*
X03981Y03386D02*
X03988Y03379D01*
Y03383D02*
X03984Y03379D01*
X03971Y03373D02*
X03968Y0337D01*
Y03363*
X03971Y0336*
X03974*
X03978Y03363*
Y03366*
Y03363*
X03981Y0336*
X03984*
X03988Y03363*
Y0337*
X03984Y03373*
X04245Y03401D02*
Y03414D01*
X04249Y03417*
X04255*
X04259Y03414*
Y03401*
X04255Y03398*
X04249*
X04252Y03404D02*
X04245Y03398D01*
X04249D02*
X04245Y03401D01*
X04226Y03398D02*
X04239D01*
X04226Y03411*
Y03414*
X04229Y03417*
X04236*
X04239Y03414*
X04184Y03598D02*
Y03611D01*
X04188Y03614*
X04194*
X04198Y03611*
Y03598*
X04194Y03595*
X04188*
X04191Y03601D02*
X04184Y03595D01*
X04188D02*
X04184Y03598D01*
X04178Y03595D02*
X04171D01*
X04175*
Y03614*
X04178Y03611*
X0285Y03572D02*
Y03591D01*
X02843Y03585*
X02836Y03591*
Y03572*
X0282Y03591D02*
X02827D01*
X0283Y03588*
Y03575*
X02827Y03572*
X0282*
X02817Y03575*
Y03588*
X0282Y03591*
X0281D02*
X02797D01*
X02804*
Y03572*
X02781Y03591D02*
X02787D01*
X02791Y03588*
Y03575*
X02787Y03572*
X02781*
X02777Y03575*
Y03588*
X02781Y03591*
X02771Y03572D02*
Y03591D01*
X02761*
X02758Y03588*
Y03581*
X02761Y03578*
X02771*
X02764D02*
X02758Y03572D01*
X02751Y03581D02*
X02738D01*
X02708Y03571D02*
Y0359D01*
X02701Y03584*
X02694Y0359*
Y03571*
X02678Y0359D02*
X02685D01*
X02688Y03587*
Y03574*
X02685Y03571*
X02678*
X02675Y03574*
Y03587*
X02678Y0359*
X02668D02*
X02655D01*
X02662*
Y03571*
X02639Y0359D02*
X02645D01*
X02649Y03587*
Y03574*
X02645Y03571*
X02639*
X02635Y03574*
Y03587*
X02639Y0359*
X02629Y03571D02*
Y0359D01*
X02619*
X02616Y03587*
Y0358*
X02619Y03577*
X02629*
X02622D02*
X02616Y03571D01*
X02609Y0358D02*
X02596D01*
X02603Y03587D02*
Y03574D01*
X02016Y03367D02*
Y03374D01*
Y03371*
X02032*
X02036Y03374*
Y03377*
X02032Y03381*
X02036Y03348D02*
Y03361D01*
X02022Y03348*
X02019*
X02016Y03351*
Y03358*
X02019Y03361*
X02925Y03581D02*
X02945D01*
Y03571*
X02941Y03567*
X02928*
X02925Y03571*
Y03581*
X02945Y03551D02*
X02925D01*
X02935Y03561*
Y03548*
X0448Y03568D02*
Y03549D01*
X0447*
X04466Y03552*
Y03565*
X0447Y03568*
X0448*
X04447Y03549D02*
X0446D01*
X04447Y03562*
Y03565*
X0445Y03568*
X04457*
X0446Y03565*
X02315Y03449D02*
X02335D01*
Y03439*
X02331Y03435*
X02318*
X02315Y03439*
Y03449*
X02335Y03429D02*
Y03422D01*
Y03426*
X02315*
X02318Y03429*
X02877Y03499D02*
X02874Y03503D01*
Y03509*
X02877Y03513*
X0289*
X02894Y03509*
Y03503*
X0289Y03499*
X02894Y0348D02*
Y03493D01*
X0288Y0348*
X02877*
X02874Y03483*
Y0349*
X02877Y03493*
X0289Y03473D02*
X02894Y0347D01*
Y03463*
X0289Y0346*
X02877*
X02874Y03463*
Y0347*
X02877Y03473*
X0288*
X02884Y0347*
Y0346*
X04163Y03296D02*
X04167Y03299D01*
X04173*
X04177Y03296*
Y03283*
X04173Y0328*
X04167*
X04163Y03283*
X04144Y0328D02*
X04157D01*
X04144Y03293*
Y03296*
X04147Y03299*
X04154*
X04157Y03296*
X04137D02*
X04134Y03299D01*
X04127*
X04124Y03296*
Y03293*
X04127Y03289*
X04124Y03286*
Y03283*
X04127Y0328*
X04134*
X04137Y03283*
Y03286*
X04134Y03289*
X04137Y03293*
Y03296*
X04134Y03289D02*
X04127D01*
X02216Y03266D02*
X02213Y0327D01*
Y03276*
X02216Y0328*
X02229*
X02233Y03276*
Y0327*
X02229Y03266*
X02233Y03247D02*
Y0326D01*
X02219Y03247*
X02216*
X02213Y0325*
Y03257*
X02216Y0326*
X02233Y0324D02*
Y03234D01*
Y03237*
X02213*
X02216Y0324*
X02242Y03267D02*
X02239Y03271D01*
Y03277*
X02242Y03281*
X02255*
X02259Y03277*
Y03271*
X02255Y03267*
X02259Y03248D02*
Y03261D01*
X02245Y03248*
X02242*
X02239Y03251*
Y03258*
X02242Y03261*
Y03241D02*
X02239Y03238D01*
Y03231*
X02242Y03228*
X02255*
X02259Y03231*
Y03238*
X02255Y03241*
X02242*
X03419Y03444D02*
X03423Y03447D01*
X03429*
X03433Y03444*
Y03431*
X03429Y03428*
X03423*
X03419Y03431*
X03413Y03428D02*
X03406D01*
X0341*
Y03447*
X03413Y03444*
X03396Y03447D02*
X03383D01*
Y03444*
X03396Y03431*
Y03428*
X03277Y03282D02*
X03281Y03285D01*
X03287*
X03291Y03282*
Y03269*
X03287Y03266*
X03281*
X03277Y03269*
X03271Y03266D02*
X03264D01*
X03268*
Y03285*
X03271Y03282*
X03254D02*
X03251Y03285D01*
X03245*
X03241Y03282*
Y03279*
X03245Y03275*
X03248*
X03245*
X03241Y03272*
Y03269*
X03245Y03266*
X03251*
X03254Y03269*
X03652Y03312D02*
X03656Y03315D01*
X03662*
X03666Y03312*
Y03299*
X03662Y03296*
X03656*
X03652Y03299*
X03646Y03296D02*
X03639D01*
X03643*
Y03315*
X03646Y03312*
X03616Y03296D02*
X03629D01*
X03616Y03309*
Y03312*
X0362Y03315*
X03626*
X03629Y03312*
X03648Y03231D02*
X03652Y03234D01*
X03658*
X03662Y03231*
Y03218*
X03658Y03215*
X03652*
X03648Y03218*
X03642Y03215D02*
X03635D01*
X03639*
Y03234*
X03642Y03231*
X03625Y03215D02*
X03619D01*
X03622*
Y03234*
X03625Y03231*
X03165Y03434D02*
X03169Y03437D01*
X03175*
X03179Y03434*
Y03421*
X03175Y03418*
X03169*
X03165Y03421*
X03159Y03418D02*
X03152D01*
X03156*
Y03437*
X03159Y03434*
X03142D02*
X03139Y03437D01*
X03133*
X03129Y03434*
Y03421*
X03133Y03418*
X03139*
X03142Y03421*
Y03434*
X03145Y03313D02*
X03149Y03316D01*
X03155*
X03159Y03313*
Y033*
X03155Y03297*
X03149*
X03145Y033*
X03139D02*
X03136Y03297D01*
X03129*
X03126Y033*
Y03313*
X03129Y03316*
X03136*
X03139Y03313*
Y0331*
X03136Y03306*
X03126*
X0327Y03232D02*
X03274Y03235D01*
X0328*
X03284Y03232*
Y03219*
X0328Y03216*
X03274*
X0327Y03219*
X03264Y03232D02*
X03261Y03235D01*
X03254*
X03251Y03232*
Y03229*
X03254Y03225*
X03251Y03222*
Y03219*
X03254Y03216*
X03261*
X03264Y03219*
Y03222*
X03261Y03225*
X03264Y03229*
Y03232*
X03261Y03225D02*
X03254D01*
X03432Y03212D02*
X03436Y03215D01*
X03442*
X03446Y03212*
Y03199*
X03442Y03196*
X03436*
X03432Y03199*
X03413Y03215D02*
X03426D01*
Y03205*
X03419Y03209*
X03416*
X03413Y03205*
Y03199*
X03416Y03196*
X03423*
X03426Y03199*
X03463Y03281D02*
X03467Y03284D01*
X03473*
X03477Y03281*
Y03268*
X03473Y03265*
X03467*
X03463Y03268*
X03447Y03265D02*
Y03284D01*
X03457Y03274*
X03444*
X02271Y03549D02*
X02275Y03552D01*
X02281*
X02285Y03549*
Y03536*
X02281Y03533*
X02275*
X02271Y03536*
X02265Y03549D02*
X02262Y03552D01*
X02255*
X02252Y03549*
Y03546*
X02255Y03542*
X02258*
X02255*
X02252Y03539*
Y03536*
X02255Y03533*
X02262*
X02265Y03536*
X02156Y03551D02*
X0216Y03554D01*
X02166*
X0217Y03551*
Y03538*
X02166Y03535*
X0216*
X02156Y03538*
X02137Y03535D02*
X0215D01*
X02137Y03548*
Y03551*
X0214Y03554*
X02147*
X0215Y03551*
X02229Y03697D02*
X02233Y037D01*
X02239*
X02243Y03697*
Y03684*
X02239Y03681*
X02233*
X02229Y03684*
X02223Y03681D02*
X02216D01*
X0222*
Y037*
X02223Y03697*
X0278Y03271D02*
X02777Y03267D01*
X0277*
X02767Y03271*
Y03274*
X0277Y03277*
X02777*
X0278Y03281*
Y03284*
X02777Y03287*
X0277*
X02767Y03284*
X02787Y03287D02*
X02793D01*
X0279*
Y03267*
X02787Y03271*
G54D99*
X03232Y0351D02*
X03248D01*
X03307D02*
X03326D01*
X03334D02*
X03365D01*
X03373D02*
X03379D01*
X03403D02*
X03409D01*
X03416D02*
X03448D01*
X03467D02*
X03472D01*
X03496D02*
X03501D01*
X03532D02*
X03545D01*
X03593D02*
X03598D01*
X03232Y03511D02*
X03249D01*
X03304D02*
X03326D01*
X03334D02*
X03365D01*
X03373D02*
X03379D01*
X03403D02*
X03409D01*
X03416D02*
X03448D01*
X03467D02*
X03472D01*
X03496D02*
X03501D01*
X0353D02*
X03547D01*
X03593D02*
X03598D01*
X03233Y03512D02*
X03249D01*
X03301D02*
X03326D01*
X03334D02*
X03365D01*
X03374D02*
X0338D01*
X03403D02*
X03409D01*
X03416D02*
X03448D01*
X03467D02*
X03473D01*
X03495D02*
X03502D01*
X03528D02*
X03549D01*
X03593D02*
X03598D01*
X03233Y03513D02*
X0325D01*
X033D02*
X03326D01*
X03334D02*
X03365D01*
X03374D02*
X0338D01*
X03403D02*
X03409D01*
X03416D02*
X03448D01*
X03466D02*
X03473D01*
X03495D02*
X03502D01*
X03526D02*
X0355D01*
X03593D02*
X03598D01*
X03234Y03514D02*
X03251D01*
X03299D02*
X03326D01*
X03334D02*
X03365D01*
X03375D02*
X03381D01*
X03403D02*
X03409D01*
X03416D02*
X03448D01*
X03466D02*
X03473D01*
X03495D02*
X03502D01*
X03525D02*
X03535D01*
X03541D02*
X03551D01*
X03593D02*
X03598D01*
X03235Y03515D02*
X03251D01*
X03297D02*
X03308D01*
X03321D02*
X03326D01*
X0336D02*
X03365D01*
X03375D02*
X03382D01*
X03403D02*
X03409D01*
X03443D02*
X03448D01*
X03466D02*
X03474D01*
X03494D02*
X03502D01*
X03524D02*
X03533D01*
X03544D02*
X03552D01*
X03593D02*
X03598D01*
X03235Y03516D02*
X03252D01*
X03296D02*
X03304D01*
X03321D02*
X03326D01*
X0336D02*
X03365D01*
X03376D02*
X03382D01*
X03403D02*
X03409D01*
X03443D02*
X03448D01*
X03466D02*
X03474D01*
X03494D02*
X03503D01*
X03523D02*
X0353D01*
X03546D02*
X03553D01*
X03593D02*
X03598D01*
X03236Y03517D02*
X03252D01*
X03295D02*
X03303D01*
X03321D02*
X03326D01*
X0336D02*
X03365D01*
X03377D02*
X03383D01*
X03403D02*
X03409D01*
X03443D02*
X03448D01*
X03465D02*
X03474D01*
X03494D02*
X03503D01*
X03523D02*
X03529D01*
X03547D02*
X03554D01*
X03593D02*
X03598D01*
X03236Y03518D02*
X03253D01*
X03295D02*
X03301D01*
X03321D02*
X03326D01*
X0336D02*
X03365D01*
X03377D02*
X03383D01*
X03403D02*
X03409D01*
X03443D02*
X03448D01*
X03465D02*
X03475D01*
X03494D02*
X03503D01*
X03522D02*
X03528D01*
X03548D02*
X03554D01*
X03593D02*
X03598D01*
X03237Y03519D02*
X03254D01*
X03294D02*
X033D01*
X03321D02*
X03326D01*
X0336D02*
X03365D01*
X03378D02*
X03384D01*
X03403D02*
X03409D01*
X03443D02*
X03448D01*
X03465D02*
X03475D01*
X03493D02*
X03504D01*
X03521D02*
X03527D01*
X03549D02*
X03555D01*
X03593D02*
X03598D01*
X03238Y0352D02*
X03254D01*
X03293D02*
X033D01*
X03321D02*
X03326D01*
X0336D02*
X03365D01*
X03378D02*
X03385D01*
X03403D02*
X03409D01*
X03443D02*
X03448D01*
X03465D02*
X03469D01*
X0347D02*
X03475D01*
X03493D02*
X03498D01*
X03499D02*
X03504D01*
X03521D02*
X03527D01*
X0355D02*
X03556D01*
X03593D02*
X03598D01*
X03238Y03521D02*
X03255D01*
X03293D02*
X03299D01*
X03321D02*
X03326D01*
X0336D02*
X03365D01*
X03379D02*
X03385D01*
X03403D02*
X03409D01*
X03443D02*
X03448D01*
X03464D02*
X03469D01*
X03471D02*
X03475D01*
X03493D02*
X03498D01*
X03499D02*
X03504D01*
X0352D02*
X03526D01*
X0355D02*
X03556D01*
X03593D02*
X03598D01*
X03239Y03522D02*
X03255D01*
X03292D02*
X03298D01*
X03321D02*
X03326D01*
X0336D02*
X03365D01*
X0338D02*
X03386D01*
X03403D02*
X03409D01*
X03443D02*
X03448D01*
X03464D02*
X03469D01*
X03471D02*
X03476D01*
X03492D02*
X03498D01*
X03499D02*
X03504D01*
X0352D02*
X03526D01*
X03551D02*
X03556D01*
X03593D02*
X03598D01*
X03239Y03523D02*
X03256D01*
X03292D02*
X03298D01*
X03321D02*
X03326D01*
X0336D02*
X03365D01*
X0338D02*
X03386D01*
X03403D02*
X03409D01*
X03443D02*
X03448D01*
X03464D02*
X03469D01*
X03471D02*
X03476D01*
X03492D02*
X03497D01*
X03499D02*
X03504D01*
X0352D02*
X03526D01*
X03551D02*
X03557D01*
X03593D02*
X03598D01*
X0324Y03524D02*
X03257D01*
X03292D02*
X03297D01*
X03321D02*
X03326D01*
X0336D02*
X03365D01*
X03381D02*
X03387D01*
X03403D02*
X03409D01*
X03443D02*
X03448D01*
X03463D02*
X03469D01*
X03471D02*
X03476D01*
X03492D02*
X03497D01*
X035D02*
X03505D01*
X0352D02*
X03525D01*
X03551D02*
X03557D01*
X03593D02*
X03598D01*
X03241Y03525D02*
X03258D01*
X03291D02*
X03297D01*
X03321D02*
X03326D01*
X0336D02*
X03365D01*
X03381D02*
X03388D01*
X03403D02*
X03409D01*
X03443D02*
X03448D01*
X03463D02*
X03469D01*
X03472D02*
X03477D01*
X03491D02*
X03497D01*
X035D02*
X03505D01*
X0352D02*
X03525D01*
X03552D02*
X03557D01*
X03593D02*
X03598D01*
X03241Y03526D02*
X03258D01*
X03291D02*
X03297D01*
X03321D02*
X03326D01*
X0336D02*
X03365D01*
X03382D02*
X03388D01*
X03403D02*
X03409D01*
X03443D02*
X03448D01*
X03463D02*
X03468D01*
X03472D02*
X03477D01*
X03491D02*
X03496D01*
X035D02*
X03505D01*
X03519D02*
X03525D01*
X03552D02*
X03558D01*
X03593D02*
X03598D01*
X03242Y03527D02*
X03259D01*
X03291D02*
X03296D01*
X03321D02*
X03326D01*
X0336D02*
X03365D01*
X03383D02*
X03389D01*
X03403D02*
X03409D01*
X03443D02*
X03448D01*
X03463D02*
X03468D01*
X03472D02*
X03477D01*
X03491D02*
X03496D01*
X035D02*
X03506D01*
X03519D02*
X03524D01*
X03552D02*
X03558D01*
X03593D02*
X03598D01*
X03243Y03528D02*
X03259D01*
X03291D02*
X03296D01*
X03321D02*
X03326D01*
X0336D02*
X03365D01*
X03383D02*
X03389D01*
X03403D02*
X03409D01*
X03443D02*
X03448D01*
X03463D02*
X03468D01*
X03472D02*
X03478D01*
X03491D02*
X03496D01*
X035D02*
X03506D01*
X03519D02*
X03524D01*
X03552D02*
X03558D01*
X03593D02*
X03598D01*
X03243Y03529D02*
X0326D01*
X03291D02*
X03296D01*
X03321D02*
X03326D01*
X0336D02*
X03365D01*
X03384D02*
X0339D01*
X03404D02*
X03409D01*
X03443D02*
X03448D01*
X03462D02*
X03467D01*
X03473D02*
X03478D01*
X0349D02*
X03495D01*
X03501D02*
X03506D01*
X03519D02*
X03524D01*
X03552D02*
X03558D01*
X03593D02*
X03598D01*
X03244Y0353D02*
X0326D01*
X03291D02*
X03296D01*
X03321D02*
X03326D01*
X0336D02*
X03365D01*
X03385D02*
X03409D01*
X03443D02*
X03448D01*
X03462D02*
X03467D01*
X03473D02*
X03478D01*
X0349D02*
X03495D01*
X03501D02*
X03506D01*
X03519D02*
X03524D01*
X03553D02*
X03558D01*
X03575D02*
X03598D01*
X03244Y03531D02*
X03261D01*
X0329D02*
X03296D01*
X03321D02*
X03326D01*
X0336D02*
X03365D01*
X03385D02*
X03409D01*
X03443D02*
X03448D01*
X03462D02*
X03467D01*
X03473D02*
X03478D01*
X0349D02*
X03495D01*
X03501D02*
X03506D01*
X03519D02*
X03524D01*
X03553D02*
X03558D01*
X03572D02*
X03598D01*
X03245Y03532D02*
X03262D01*
X0329D02*
X03296D01*
X03321D02*
X03326D01*
X0336D02*
X03365D01*
X03383D02*
X03409D01*
X03443D02*
X03448D01*
X03462D02*
X03467D01*
X03474D02*
X03479D01*
X03489D02*
X03495D01*
X03501D02*
X03507D01*
X03519D02*
X03524D01*
X03553D02*
X03558D01*
X0357D02*
X03598D01*
X03246Y03533D02*
X03263D01*
X0329D02*
X03296D01*
X03321D02*
X03326D01*
X03337D02*
X03365D01*
X03381D02*
X03409D01*
X0342D02*
X03448D01*
X03461D02*
X03467D01*
X03474D02*
X03479D01*
X03489D02*
X03494D01*
X03502D02*
X03507D01*
X03519D02*
X03524D01*
X03553D02*
X03558D01*
X03569D02*
X03598D01*
X03246Y03534D02*
X03263D01*
X0329D02*
X03296D01*
X03321D02*
X03326D01*
X03337D02*
X03365D01*
X0338D02*
X03409D01*
X0342D02*
X03448D01*
X03461D02*
X03466D01*
X03474D02*
X03479D01*
X03489D02*
X03494D01*
X03502D02*
X03507D01*
X03519D02*
X03524D01*
X03553D02*
X03558D01*
X03568D02*
X03598D01*
X03247Y03535D02*
X03264D01*
X0329D02*
X03296D01*
X03321D02*
X03326D01*
X03337D02*
X03365D01*
X03379D02*
X03388D01*
X03404D02*
X03409D01*
X0342D02*
X03448D01*
X03461D02*
X03466D01*
X03474D02*
X0348D01*
X03488D02*
X03494D01*
X03502D02*
X03507D01*
X03519D02*
X03524D01*
X03553D02*
X03558D01*
X03567D02*
X03576D01*
X03593D02*
X03598D01*
X03248Y03536D02*
X03264D01*
X0329D02*
X03296D01*
X03321D02*
X03326D01*
X03337D02*
X03365D01*
X03378D02*
X03385D01*
X03403D02*
X03409D01*
X0342D02*
X03448D01*
X0346D02*
X03466D01*
X03475D02*
X0348D01*
X03488D02*
X03493D01*
X03502D02*
X03508D01*
X03519D02*
X03524D01*
X03553D02*
X03558D01*
X03566D02*
X03573D01*
X03593D02*
X03598D01*
X03248Y03537D02*
X03265D01*
X0329D02*
X03296D01*
X03321D02*
X03326D01*
X03337D02*
X03365D01*
X03377D02*
X03384D01*
X03403D02*
X03409D01*
X0342D02*
X03448D01*
X0346D02*
X03466D01*
X03475D02*
X0348D01*
X03488D02*
X03493D01*
X03503D02*
X03508D01*
X03519D02*
X03524D01*
X03553D02*
X03558D01*
X03566D02*
X03572D01*
X03593D02*
X03598D01*
X03249Y03538D02*
X03266D01*
X0329D02*
X03296D01*
X03321D02*
X03326D01*
X0336D02*
X03365D01*
X03377D02*
X03383D01*
X03403D02*
X03409D01*
X03443D02*
X03448D01*
X0346D02*
X03465D01*
X03475D02*
X03481D01*
X03488D02*
X03493D01*
X03503D02*
X03508D01*
X03519D02*
X03524D01*
X03553D02*
X03558D01*
X03565D02*
X03571D01*
X03593D02*
X03598D01*
X03249Y03539D02*
X03266D01*
X0329D02*
X03296D01*
X03321D02*
X03326D01*
X0336D02*
X03365D01*
X03376D02*
X03382D01*
X03403D02*
X03409D01*
X03443D02*
X03448D01*
X0346D02*
X03465D01*
X03476D02*
X03481D01*
X03487D02*
X03492D01*
X03503D02*
X03509D01*
X03519D02*
X03524D01*
X03553D02*
X03558D01*
X03565D02*
X03571D01*
X03593D02*
X03598D01*
X0325Y0354D02*
X03267D01*
X03291D02*
X03296D01*
X03321D02*
X03326D01*
X0336D02*
X03365D01*
X03376D02*
X03382D01*
X03403D02*
X03409D01*
X03443D02*
X03448D01*
X0346D02*
X03465D01*
X03476D02*
X03481D01*
X03487D02*
X03492D01*
X03503D02*
X03509D01*
X03519D02*
X03524D01*
X03552D02*
X03558D01*
X03565D02*
X0357D01*
X03593D02*
X03598D01*
X03251Y03541D02*
X03267D01*
X03291D02*
X03296D01*
X03321D02*
X03326D01*
X0336D02*
X03365D01*
X03376D02*
X03381D01*
X03403D02*
X03409D01*
X03443D02*
X03448D01*
X03459D02*
X03464D01*
X03476D02*
X03481D01*
X03487D02*
X03492D01*
X03504D02*
X03509D01*
X03519D02*
X03524D01*
X03552D02*
X03558D01*
X03564D02*
X0357D01*
X03593D02*
X03598D01*
X03251Y03542D02*
X03268D01*
X03291D02*
X03296D01*
X03321D02*
X03326D01*
X0336D02*
X03365D01*
X03375D02*
X03381D01*
X03403D02*
X03409D01*
X03443D02*
X03448D01*
X03459D02*
X03464D01*
X03477D02*
X03482D01*
X03486D02*
X03492D01*
X03504D02*
X03509D01*
X03519D02*
X03524D01*
X03552D02*
X03558D01*
X03564D02*
X03569D01*
X03593D02*
X03598D01*
X03252Y03543D02*
X03269D01*
X03291D02*
X03296D01*
X03321D02*
X03326D01*
X0336D02*
X03365D01*
X03375D02*
X03381D01*
X03403D02*
X03409D01*
X03443D02*
X03448D01*
X03459D02*
X03464D01*
X03477D02*
X03482D01*
X03486D02*
X03491D01*
X03504D02*
X03509D01*
X03519D02*
X03525D01*
X03552D02*
X03558D01*
X03564D02*
X03569D01*
X03593D02*
X03598D01*
X03253Y03544D02*
X03269D01*
X03291D02*
X03297D01*
X03321D02*
X03326D01*
X0336D02*
X03365D01*
X03375D02*
X03381D01*
X03403D02*
X03409D01*
X03443D02*
X03448D01*
X03458D02*
X03464D01*
X03477D02*
X03482D01*
X03486D02*
X03491D01*
X03504D02*
X0351D01*
X0352D02*
X03525D01*
X03552D02*
X03557D01*
X03564D02*
X03569D01*
X03593D02*
X03598D01*
X03253Y03545D02*
X0327D01*
X03292D02*
X03297D01*
X03321D02*
X03326D01*
X0336D02*
X03365D01*
X03375D02*
X03381D01*
X03403D02*
X03409D01*
X03443D02*
X03448D01*
X03458D02*
X03464D01*
X03477D02*
X03483D01*
X03486D02*
X03491D01*
X03505D02*
X0351D01*
X0352D02*
X03525D01*
X03551D02*
X03557D01*
X03564D02*
X03569D01*
X03593D02*
X03598D01*
X03254Y03546D02*
X0327D01*
X03292D02*
X03298D01*
X03321D02*
X03326D01*
X0336D02*
X03365D01*
X03375D02*
X03381D01*
X03403D02*
X03409D01*
X03443D02*
X03448D01*
X03458D02*
X03463D01*
X03478D02*
X03483D01*
X03485D02*
X0349D01*
X03505D02*
X0351D01*
X0352D02*
X03526D01*
X03551D02*
X03557D01*
X03564D02*
X03569D01*
X03593D02*
X03598D01*
X03255Y03547D02*
X03271D01*
X03292D02*
X03298D01*
X03321D02*
X03326D01*
X0336D02*
X03365D01*
X03375D02*
X03381D01*
X03403D02*
X03409D01*
X03443D02*
X03448D01*
X03458D02*
X03463D01*
X03478D02*
X03483D01*
X03485D02*
X0349D01*
X03505D02*
X03511D01*
X0352D02*
X03526D01*
X03551D02*
X03556D01*
X03564D02*
X0357D01*
X03593D02*
X03598D01*
X03255Y03548D02*
X03272D01*
X03293D02*
X03299D01*
X03321D02*
X03326D01*
X0336D02*
X03365D01*
X03376D02*
X03381D01*
X03403D02*
X03409D01*
X03443D02*
X03448D01*
X03457D02*
X03463D01*
X03478D02*
X03483D01*
X03485D02*
X0349D01*
X03505D02*
X03511D01*
X0352D02*
X03526D01*
X0355D02*
X03556D01*
X03564D02*
X0357D01*
X03593D02*
X03598D01*
X03256Y03549D02*
X03272D01*
X03293D02*
X03299D01*
X03321D02*
X03326D01*
X0336D02*
X03365D01*
X03376D02*
X03381D01*
X03403D02*
X03409D01*
X03443D02*
X03448D01*
X03457D02*
X03463D01*
X03479D02*
X03489D01*
X03506D02*
X03511D01*
X03521D02*
X03527D01*
X0355D02*
X03556D01*
X03565D02*
X0357D01*
X03593D02*
X03598D01*
X03256Y0355D02*
X03273D01*
X03294D02*
X033D01*
X03321D02*
X03326D01*
X0336D02*
X03365D01*
X03376D02*
X03382D01*
X03403D02*
X03409D01*
X03443D02*
X03448D01*
X03457D02*
X03462D01*
X03479D02*
X03489D01*
X03506D02*
X03512D01*
X03522D02*
X03528D01*
X03549D02*
X03555D01*
X03565D02*
X03571D01*
X03593D02*
X03598D01*
X03257Y03551D02*
X03274D01*
X03295D02*
X03301D01*
X03321D02*
X03326D01*
X0336D02*
X03365D01*
X03377D02*
X03383D01*
X03403D02*
X03409D01*
X03443D02*
X03448D01*
X03457D02*
X03462D01*
X03479D02*
X03489D01*
X03506D02*
X03512D01*
X03522D02*
X03528D01*
X03548D02*
X03555D01*
X03565D02*
X03572D01*
X03593D02*
X03598D01*
X03258Y03552D02*
X03274D01*
X03295D02*
X03303D01*
X03321D02*
X03326D01*
X0336D02*
X03365D01*
X03377D02*
X03384D01*
X03403D02*
X03409D01*
X03443D02*
X03448D01*
X03457D02*
X03462D01*
X0348D02*
X03489D01*
X03506D02*
X03512D01*
X03523D02*
X03529D01*
X03547D02*
X03554D01*
X03566D02*
X03573D01*
X03593D02*
X03598D01*
X03258Y03553D02*
X03275D01*
X03296D02*
X03304D01*
X03321D02*
X03326D01*
X0336D02*
X03365D01*
X03378D02*
X03385D01*
X03403D02*
X03409D01*
X03443D02*
X03448D01*
X03456D02*
X03461D01*
X0348D02*
X03488D01*
X03507D02*
X03512D01*
X03523D02*
X03531D01*
X03546D02*
X03553D01*
X03567D02*
X03574D01*
X03593D02*
X03598D01*
X03259Y03554D02*
X03275D01*
X03297D02*
X03306D01*
X03321D02*
X03326D01*
X0336D02*
X03365D01*
X03378D02*
X03387D01*
X03404D02*
X03409D01*
X03443D02*
X03448D01*
X03456D02*
X03461D01*
X0348D02*
X03488D01*
X03507D02*
X03512D01*
X03524D02*
X03532D01*
X03544D02*
X03552D01*
X03567D02*
X03576D01*
X03593D02*
X03598D01*
X03259Y03555D02*
X03276D01*
X03298D02*
X03326D01*
X03334D02*
X03365D01*
X03379D02*
X03409D01*
X03417D02*
X03448D01*
X03456D02*
X03461D01*
X0348D02*
X03488D01*
X03507D02*
X03513D01*
X03525D02*
X03536D01*
X03541D02*
X03551D01*
X03568D02*
X03598D01*
X0326Y03556D02*
X03277D01*
X033D02*
X03326D01*
X03334D02*
X03365D01*
X03381D02*
X03409D01*
X03417D02*
X03448D01*
X03455D02*
X03461D01*
X03481D02*
X03487D01*
X03507D02*
X03513D01*
X03526D02*
X0355D01*
X03569D02*
X03598D01*
X03261Y03557D02*
X03277D01*
X03302D02*
X03326D01*
X03334D02*
X03365D01*
X03382D02*
X03409D01*
X03417D02*
X03448D01*
X03455D02*
X03461D01*
X03481D02*
X03487D01*
X03508D02*
X03513D01*
X03528D02*
X03549D01*
X03571D02*
X03598D01*
X03261Y03558D02*
X03278D01*
X03304D02*
X03326D01*
X03334D02*
X03365D01*
X03384D02*
X03409D01*
X03417D02*
X03448D01*
X03455D02*
X0346D01*
X03481D02*
X03487D01*
X03508D02*
X03513D01*
X03529D02*
X03547D01*
X03573D02*
X03598D01*
X03262Y03559D02*
X03278D01*
X03308D02*
X03326D01*
X03334D02*
X03365D01*
X03388D02*
X03409D01*
X03417D02*
X03448D01*
X03455D02*
X0346D01*
X03482D02*
X03486D01*
X03508D02*
X03514D01*
X03532D02*
X03545D01*
X03577D02*
X03598D01*
X03263Y0356D02*
X03279D01*
X03536D02*
X03541D01*
X03263Y03561D02*
X0328D01*
X03264Y03562D02*
X0328D01*
X03264Y03563D02*
X03281D01*
X03265Y03564D02*
X03282D01*
X03266Y03565D02*
X03282D01*
X03266Y03566D02*
X03283D01*
X03267Y03567D02*
X03283D01*
X03329D02*
X03345D01*
X03358D02*
X03372D01*
X03386D02*
X03449D01*
X03522D02*
X03536D01*
X03548D02*
X03562D01*
X0362D02*
X03635D01*
X03668D02*
X03681D01*
X03267Y03568D02*
X03284D01*
X03328D02*
X03345D01*
X03358D02*
X03372D01*
X03386D02*
X03449D01*
X03522D02*
X03536D01*
X03548D02*
X03563D01*
X0362D02*
X03635D01*
X03668D02*
X03682D01*
X03268Y03569D02*
X03285D01*
X03327D02*
X03344D01*
X03358D02*
X03372D01*
X03386D02*
X03449D01*
X03522D02*
X03536D01*
X03549D02*
X03563D01*
X0362D02*
X03634D01*
X03668D02*
X03682D01*
X03269Y0357D02*
X03285D01*
X03327D02*
X03343D01*
X03358D02*
X03372D01*
X03386D02*
X03449D01*
X03522D02*
X03536D01*
X03549D02*
X03563D01*
X0362D02*
X03634D01*
X03668D02*
X03682D01*
X03269Y03571D02*
X03286D01*
X03326D02*
X03343D01*
X03358D02*
X03372D01*
X03386D02*
X03449D01*
X03522D02*
X03536D01*
X03549D02*
X03564D01*
X03619D02*
X03634D01*
X03667D02*
X03683D01*
X03222Y03572D02*
X03226D01*
X0327D02*
X03287D01*
X03326D02*
X03342D01*
X03358D02*
X03372D01*
X03386D02*
X03449D01*
X03522D02*
X03536D01*
X0355D02*
X03564D01*
X03619D02*
X03633D01*
X03667D02*
X03683D01*
X03219Y03573D02*
X03229D01*
X03271D02*
X03287D01*
X03325D02*
X03341D01*
X03358D02*
X03372D01*
X03386D02*
X03449D01*
X03522D02*
X03536D01*
X0355D02*
X03565D01*
X03618D02*
X03633D01*
X03666D02*
X03683D01*
X03218Y03574D02*
X0323D01*
X03271D02*
X03288D01*
X03324D02*
X03341D01*
X03358D02*
X03372D01*
X03386D02*
X03449D01*
X03522D02*
X03536D01*
X03551D02*
X03565D01*
X03618D02*
X03632D01*
X03666D02*
X03684D01*
X03216Y03575D02*
X03232D01*
X03272D02*
X03288D01*
X03324D02*
X0334D01*
X03358D02*
X03372D01*
X03386D02*
X03449D01*
X03522D02*
X03536D01*
X03551D02*
X03565D01*
X03618D02*
X03632D01*
X03666D02*
X03684D01*
X03215Y03576D02*
X03233D01*
X03272D02*
X03289D01*
X03323D02*
X0334D01*
X03358D02*
X03372D01*
X03386D02*
X03449D01*
X03522D02*
X03536D01*
X03551D02*
X03566D01*
X03617D02*
X03632D01*
X03666D02*
X03685D01*
X03215Y03577D02*
X03234D01*
X03273D02*
X0329D01*
X03323D02*
X03339D01*
X03358D02*
X03372D01*
X03386D02*
X03449D01*
X03522D02*
X03536D01*
X03552D02*
X03566D01*
X03617D02*
X03631D01*
X03665D02*
X03685D01*
X03214Y03578D02*
X03234D01*
X03274D02*
X0329D01*
X03322D02*
X03338D01*
X03358D02*
X03372D01*
X03387D02*
X03449D01*
X03522D02*
X03536D01*
X03552D02*
X03566D01*
X03617D02*
X03631D01*
X03665D02*
X03685D01*
X03213Y03579D02*
X03235D01*
X03275D02*
X03291D01*
X03321D02*
X03338D01*
X03358D02*
X03372D01*
X03435D02*
X03449D01*
X03522D02*
X03536D01*
X03552D02*
X03567D01*
X03616D02*
X03631D01*
X03664D02*
X03686D01*
X03213Y0358D02*
X03235D01*
X03275D02*
X03292D01*
X0332D02*
X03337D01*
X03358D02*
X03372D01*
X03435D02*
X03449D01*
X03522D02*
X03536D01*
X03553D02*
X03567D01*
X03616D02*
X0363D01*
X03664D02*
X03686D01*
X03213Y03581D02*
X03236D01*
X03276D02*
X03292D01*
X0332D02*
X03336D01*
X03358D02*
X03372D01*
X03435D02*
X03449D01*
X03522D02*
X03536D01*
X03553D02*
X03568D01*
X03616D02*
X0363D01*
X03663D02*
X03686D01*
X03212Y03582D02*
X03236D01*
X03276D02*
X03293D01*
X03319D02*
X03336D01*
X03358D02*
X03372D01*
X03435D02*
X03449D01*
X03522D02*
X03536D01*
X03554D02*
X03568D01*
X03615D02*
X03629D01*
X03663D02*
X03687D01*
X03212Y03583D02*
X03236D01*
X03277D02*
X03293D01*
X03319D02*
X03335D01*
X03358D02*
X03372D01*
X03435D02*
X03449D01*
X03522D02*
X03536D01*
X03554D02*
X03568D01*
X03615D02*
X03629D01*
X03663D02*
X03687D01*
X0321Y03584D02*
X03238D01*
X03278D02*
X03294D01*
X03318D02*
X03334D01*
X03358D02*
X03372D01*
X03435D02*
X03449D01*
X03522D02*
X03536D01*
X03554D02*
X03569D01*
X03614D02*
X03628D01*
X03663D02*
X03688D01*
X03208Y03585D02*
X0324D01*
X03278D02*
X03295D01*
X03317D02*
X03334D01*
X03358D02*
X03372D01*
X03435D02*
X03449D01*
X03522D02*
X03536D01*
X03555D02*
X03569D01*
X03614D02*
X03628D01*
X03662D02*
X03688D01*
X03206Y03586D02*
X03242D01*
X03279D02*
X03295D01*
X03317D02*
X03333D01*
X03358D02*
X03372D01*
X03435D02*
X03449D01*
X03522D02*
X03536D01*
X03555D02*
X03569D01*
X03614D02*
X03628D01*
X03662D02*
X03688D01*
X03204Y03587D02*
X03244D01*
X03279D02*
X03296D01*
X03316D02*
X03332D01*
X03358D02*
X03372D01*
X03435D02*
X03449D01*
X03522D02*
X03536D01*
X03556D02*
X0357D01*
X03613D02*
X03627D01*
X03661D02*
X03674D01*
X03675D02*
X03689D01*
X03203Y03588D02*
X03212D01*
X03214D02*
X03235D01*
X03236D02*
X03245D01*
X0328D02*
X03296D01*
X03315D02*
X03332D01*
X03358D02*
X03372D01*
X03435D02*
X03449D01*
X03522D02*
X03536D01*
X03556D02*
X0357D01*
X03613D02*
X03627D01*
X03661D02*
X03674D01*
X03676D02*
X03689D01*
X03201Y03589D02*
X0321D01*
X03214D02*
X03234D01*
X03238D02*
X03247D01*
X03281D02*
X03297D01*
X03315D02*
X03331D01*
X03358D02*
X03372D01*
X03435D02*
X03449D01*
X03522D02*
X03536D01*
X03557D02*
X0357D01*
X03613D02*
X03626D01*
X0366D02*
X03674D01*
X03676D02*
X03689D01*
X032Y0359D02*
X03208D01*
X03215D02*
X03234D01*
X0324D02*
X03248D01*
X03281D02*
X03298D01*
X03314D02*
X03331D01*
X03358D02*
X03372D01*
X03435D02*
X03449D01*
X03522D02*
X03536D01*
X03557D02*
X03571D01*
X03612D02*
X03626D01*
X0366D02*
X03674D01*
X03677D02*
X0369D01*
X03199Y03591D02*
X03206D01*
X03215D02*
X03233D01*
X03242D02*
X03249D01*
X03282D02*
X03298D01*
X03313D02*
X0333D01*
X03358D02*
X03372D01*
X03435D02*
X03449D01*
X03522D02*
X03536D01*
X03557D02*
X03571D01*
X03612D02*
X03626D01*
X0366D02*
X03673D01*
X03677D02*
X0369D01*
X03198Y03592D02*
X03205D01*
X03216D02*
X03232D01*
X03243D02*
X0325D01*
X03283D02*
X03299D01*
X03313D02*
X03329D01*
X03358D02*
X03372D01*
X03435D02*
X03449D01*
X03522D02*
X03536D01*
X03558D02*
X03625D01*
X0366D02*
X03673D01*
X03677D02*
X03691D01*
X03197Y03593D02*
X03204D01*
X03218D02*
X03231D01*
X03245D02*
X03251D01*
X03283D02*
X03298D01*
X03312D02*
X03329D01*
X03358D02*
X03372D01*
X03435D02*
X03449D01*
X03522D02*
X03536D01*
X03558D02*
X03625D01*
X03659D02*
X03672D01*
X03677D02*
X03691D01*
X03196Y03594D02*
X03202D01*
X03219D02*
X03229D01*
X03246D02*
X03252D01*
X03284D02*
X03298D01*
X03312D02*
X03328D01*
X03358D02*
X03372D01*
X03435D02*
X03449D01*
X03522D02*
X03536D01*
X03558D02*
X03625D01*
X03659D02*
X03672D01*
X03678D02*
X03691D01*
X03195Y03595D02*
X03201D01*
X03222D02*
X03226D01*
X03247D02*
X03253D01*
X03284D02*
X03297D01*
X03311D02*
X03327D01*
X03358D02*
X03372D01*
X03435D02*
X03449D01*
X03522D02*
X03536D01*
X03559D02*
X03624D01*
X03658D02*
X03672D01*
X03678D02*
X03692D01*
X03194Y03596D02*
X032D01*
X03248D02*
X03254D01*
X03285D02*
X03297D01*
X0331D02*
X03327D01*
X03358D02*
X03372D01*
X03435D02*
X03449D01*
X03522D02*
X03536D01*
X03559D02*
X03624D01*
X03658D02*
X03671D01*
X03679D02*
X03692D01*
X03194Y03597D02*
X03199D01*
X03249D02*
X03255D01*
X03286D02*
X03296D01*
X03309D02*
X03326D01*
X03358D02*
X03372D01*
X03435D02*
X03449D01*
X03522D02*
X03536D01*
X0356D02*
X03623D01*
X03657D02*
X03671D01*
X03679D02*
X03692D01*
X03193Y03598D02*
X03198D01*
X0325D02*
X03255D01*
X03286D02*
X03295D01*
X03309D02*
X03325D01*
X03358D02*
X03372D01*
X03435D02*
X03449D01*
X03522D02*
X03536D01*
X0356D02*
X03623D01*
X03657D02*
X03671D01*
X03679D02*
X03693D01*
X03192Y03599D02*
X03198D01*
X0325D02*
X03256D01*
X03287D02*
X03295D01*
X03308D02*
X03325D01*
X03358D02*
X03372D01*
X03435D02*
X03449D01*
X03522D02*
X03536D01*
X0356D02*
X03623D01*
X03657D02*
X03671D01*
X0368D02*
X03693D01*
X03192Y036D02*
X03197D01*
X03251D02*
X03256D01*
X03287D02*
X03294D01*
X03308D02*
X03324D01*
X03358D02*
X03372D01*
X03435D02*
X03449D01*
X03522D02*
X03536D01*
X0356D02*
X03622D01*
X03657D02*
X0367D01*
X0368D02*
X03694D01*
X03191Y03601D02*
X03196D01*
X03252D02*
X03257D01*
X03288D02*
X03293D01*
X03307D02*
X03324D01*
X03358D02*
X03372D01*
X03435D02*
X03449D01*
X03522D02*
X03536D01*
X03561D02*
X03622D01*
X03656D02*
X0367D01*
X0368D02*
X03694D01*
X03191Y03602D02*
X03196D01*
X03252D02*
X03258D01*
X03289D02*
X03293D01*
X03306D02*
X03323D01*
X03358D02*
X03372D01*
X03435D02*
X03449D01*
X03522D02*
X03536D01*
X03561D02*
X03622D01*
X03656D02*
X03669D01*
X0368D02*
X03694D01*
X0319Y03603D02*
X03195D01*
X03253D02*
X03258D01*
X03289D02*
X03292D01*
X03306D02*
X03322D01*
X03358D02*
X03372D01*
X03435D02*
X03449D01*
X03522D02*
X03536D01*
X03562D02*
X03621D01*
X03655D02*
X03669D01*
X03681D02*
X03694D01*
X03189Y03604D02*
X03195D01*
X03254D02*
X03258D01*
X0329D02*
X03292D01*
X03305D02*
X03321D01*
X03358D02*
X03372D01*
X03435D02*
X03449D01*
X03522D02*
X03536D01*
X03562D02*
X03576D01*
X03607D02*
X03621D01*
X03655D02*
X03669D01*
X03681D02*
X03695D01*
X03189Y03605D02*
X03194D01*
X03254D02*
X03259D01*
X03304D02*
X03321D01*
X03358D02*
X03372D01*
X03435D02*
X03449D01*
X03493D02*
X03536D01*
X03563D02*
X03576D01*
X03607D02*
X0362D01*
X03654D02*
X03668D01*
X03682D02*
X03695D01*
X03189Y03606D02*
X03194D01*
X03254D02*
X03259D01*
X03304D02*
X0332D01*
X03358D02*
X03372D01*
X03435D02*
X03449D01*
X03486D02*
X03536D01*
X03563D02*
X03577D01*
X03606D02*
X0362D01*
X03654D02*
X03668D01*
X03682D02*
X03696D01*
X03188Y03607D02*
X03193D01*
X03255D02*
X03261D01*
X03303D02*
X0332D01*
X03358D02*
X03372D01*
X03435D02*
X03449D01*
X03483D02*
X03536D01*
X03563D02*
X03577D01*
X03606D02*
X0362D01*
X03654D02*
X03668D01*
X03683D02*
X03696D01*
X03184Y03608D02*
X03194D01*
X03255D02*
X03264D01*
X03302D02*
X03319D01*
X03358D02*
X03372D01*
X03435D02*
X03449D01*
X03481D02*
X03536D01*
X03564D02*
X03577D01*
X03606D02*
X0362D01*
X03654D02*
X03667D01*
X03683D02*
X03697D01*
X03182Y03609D02*
X03196D01*
X03253D02*
X03266D01*
X03301D02*
X03318D01*
X03358D02*
X03372D01*
X03435D02*
X03449D01*
X03478D02*
X03536D01*
X03564D02*
X03578D01*
X03605D02*
X03619D01*
X03653D02*
X03667D01*
X03683D02*
X03697D01*
X03181Y0361D02*
X03197D01*
X03251D02*
X03267D01*
X03301D02*
X03318D01*
X03358D02*
X03372D01*
X03435D02*
X03449D01*
X03477D02*
X03536D01*
X03564D02*
X03578D01*
X03605D02*
X03619D01*
X03653D02*
X03666D01*
X03683D02*
X03697D01*
X0318Y03611D02*
X03198D01*
X0325D02*
X03268D01*
X033D02*
X03317D01*
X03358D02*
X03372D01*
X03435D02*
X03449D01*
X03475D02*
X03536D01*
X03565D02*
X03578D01*
X03605D02*
X03618D01*
X03652D02*
X03666D01*
X03684D02*
X03697D01*
X03179Y03612D02*
X03199D01*
X0325D02*
X03269D01*
X033D02*
X03316D01*
X03358D02*
X03372D01*
X03393D02*
X03449D01*
X03474D02*
X03536D01*
X03565D02*
X03579D01*
X03604D02*
X03618D01*
X03652D02*
X03666D01*
X03684D02*
X03698D01*
X03179Y03613D02*
X03199D01*
X03249D02*
X0327D01*
X03299D02*
X03316D01*
X03358D02*
X03372D01*
X03393D02*
X03449D01*
X03473D02*
X03536D01*
X03566D02*
X03579D01*
X03604D02*
X03617D01*
X03651D02*
X03666D01*
X03685D02*
X03698D01*
X03178Y03614D02*
X032D01*
X03249D02*
X0327D01*
X03298D02*
X03315D01*
X03358D02*
X03372D01*
X03393D02*
X03449D01*
X03472D02*
X03536D01*
X03566D02*
X0358D01*
X03603D02*
X03617D01*
X03651D02*
X03665D01*
X03685D02*
X03699D01*
X03178Y03615D02*
X032D01*
X03248D02*
X0327D01*
X03298D02*
X03314D01*
X03358D02*
X03372D01*
X03393D02*
X03449D01*
X03471D02*
X03536D01*
X03566D02*
X0358D01*
X03603D02*
X03617D01*
X03651D02*
X03665D01*
X03685D02*
X03699D01*
X03178Y03616D02*
X032D01*
X03248D02*
X0327D01*
X03298D02*
X03314D01*
X03358D02*
X03372D01*
X03393D02*
X03449D01*
X0347D02*
X03536D01*
X03567D02*
X0358D01*
X03603D02*
X03616D01*
X03651D02*
X03665D01*
X03686D02*
X037D01*
X03178Y03617D02*
X03201D01*
X03248D02*
X03271D01*
X03298D02*
X03314D01*
X03358D02*
X03372D01*
X03393D02*
X03449D01*
X03469D02*
X03492D01*
X03522D02*
X03536D01*
X03567D02*
X03581D01*
X03602D02*
X03616D01*
X0365D02*
X03664D01*
X03686D02*
X037D01*
X03178Y03618D02*
X03201D01*
X03248D02*
X03271D01*
X03299D02*
X03315D01*
X03358D02*
X03372D01*
X03393D02*
X03449D01*
X03469D02*
X03488D01*
X03522D02*
X03536D01*
X03568D02*
X03581D01*
X03602D02*
X03615D01*
X0365D02*
X03664D01*
X03686D02*
X037D01*
X03178Y03619D02*
X03201D01*
X03248D02*
X03271D01*
X03299D02*
X03315D01*
X03358D02*
X03372D01*
X03393D02*
X03449D01*
X03468D02*
X03487D01*
X03522D02*
X03536D01*
X03568D02*
X03581D01*
X03602D02*
X03615D01*
X03649D02*
X03663D01*
X03687D02*
X037D01*
X03178Y0362D02*
X03201D01*
X03248D02*
X03271D01*
X033D02*
X03316D01*
X03358D02*
X03372D01*
X03393D02*
X03449D01*
X03468D02*
X03485D01*
X03522D02*
X03536D01*
X03568D02*
X03582D01*
X03601D02*
X03615D01*
X03649D02*
X03663D01*
X03687D02*
X03701D01*
X03178Y03621D02*
X032D01*
X03248D02*
X0327D01*
X03301D02*
X03317D01*
X03358D02*
X03372D01*
X03393D02*
X03449D01*
X03467D02*
X03483D01*
X03522D02*
X03536D01*
X03569D02*
X03582D01*
X03601D02*
X03614D01*
X03648D02*
X03663D01*
X03687D02*
X03701D01*
X03178Y03622D02*
X032D01*
X03248D02*
X0327D01*
X03301D02*
X03317D01*
X03358D02*
X03372D01*
X03393D02*
X03449D01*
X03467D02*
X03483D01*
X03522D02*
X03536D01*
X03569D02*
X03583D01*
X036D02*
X03614D01*
X03648D02*
X03663D01*
X03688D02*
X03702D01*
X03178Y03623D02*
X032D01*
X03249D02*
X0327D01*
X03302D02*
X03318D01*
X03358D02*
X03372D01*
X03393D02*
X03449D01*
X03466D02*
X03482D01*
X03522D02*
X03536D01*
X03569D02*
X03583D01*
X036D02*
X03614D01*
X03648D02*
X03662D01*
X03688D02*
X03702D01*
X03179Y03624D02*
X03199D01*
X03249D02*
X03269D01*
X03303D02*
X03319D01*
X03358D02*
X03372D01*
X03435D02*
X03449D01*
X03466D02*
X03481D01*
X03522D02*
X03536D01*
X0357D02*
X03583D01*
X036D02*
X03613D01*
X03647D02*
X03662D01*
X03688D02*
X03703D01*
X03179Y03625D02*
X03198D01*
X03249D02*
X03269D01*
X03303D02*
X03319D01*
X03358D02*
X03372D01*
X03435D02*
X03449D01*
X03466D02*
X0348D01*
X03522D02*
X03536D01*
X0357D02*
X03583D01*
X036D02*
X03613D01*
X03647D02*
X03661D01*
X03689D02*
X03703D01*
X0318Y03626D02*
X03198D01*
X03251D02*
X03268D01*
X03304D02*
X0332D01*
X03358D02*
X03372D01*
X03435D02*
X03449D01*
X03466D02*
X0348D01*
X03522D02*
X03536D01*
X03571D02*
X03584D01*
X03599D02*
X03612D01*
X03647D02*
X03661D01*
X03689D02*
X03703D01*
X03181Y03627D02*
X03197D01*
X03252D02*
X03267D01*
X03304D02*
X03321D01*
X03358D02*
X03372D01*
X03435D02*
X03449D01*
X03465D02*
X0348D01*
X03522D02*
X03536D01*
X03571D02*
X03584D01*
X03599D02*
X03612D01*
X03646D02*
X03661D01*
X03689D02*
X03703D01*
X03182Y03628D02*
X03196D01*
X03253D02*
X03266D01*
X0329D02*
X03292D01*
X03305D02*
X03321D01*
X03358D02*
X03372D01*
X03435D02*
X03449D01*
X03465D02*
X03479D01*
X03522D02*
X03536D01*
X03571D02*
X03585D01*
X03598D02*
X03611D01*
X03646D02*
X0366D01*
X0369D02*
X03704D01*
X03184Y03629D02*
X03194D01*
X03254D02*
X03264D01*
X03289D02*
X03292D01*
X03306D02*
X03322D01*
X03358D02*
X03372D01*
X03435D02*
X03449D01*
X03465D02*
X03479D01*
X03522D02*
X03536D01*
X03572D02*
X03585D01*
X03598D02*
X03611D01*
X03646D02*
X0366D01*
X0369D02*
X03704D01*
X03189Y0363D02*
X03193D01*
X03255D02*
X0326D01*
X03289D02*
X03293D01*
X03306D02*
X03323D01*
X03358D02*
X03372D01*
X03435D02*
X03449D01*
X03465D02*
X03479D01*
X03522D02*
X03536D01*
X03572D02*
X03585D01*
X03597D02*
X03611D01*
X03645D02*
X0366D01*
X0369D02*
X03705D01*
X03189Y03631D02*
X03194D01*
X03254D02*
X03259D01*
X03288D02*
X03293D01*
X03307D02*
X03323D01*
X03358D02*
X03372D01*
X03435D02*
X03449D01*
X03465D02*
X03479D01*
X03522D02*
X03536D01*
X03572D02*
X03586D01*
X03597D02*
X03611D01*
X03645D02*
X03659D01*
X03691D02*
X03705D01*
X03189Y03632D02*
X03194D01*
X03254D02*
X03259D01*
X03287D02*
X03294D01*
X03308D02*
X03324D01*
X03358D02*
X03372D01*
X03435D02*
X03449D01*
X03465D02*
X03479D01*
X03522D02*
X03536D01*
X03573D02*
X03586D01*
X03597D02*
X0361D01*
X03644D02*
X03659D01*
X03691D02*
X03706D01*
X0319Y03633D02*
X03195D01*
X03253D02*
X03258D01*
X03287D02*
X03295D01*
X03308D02*
X03325D01*
X03358D02*
X03372D01*
X03435D02*
X03449D01*
X03465D02*
X03478D01*
X03522D02*
X03536D01*
X03573D02*
X03586D01*
X03597D02*
X0361D01*
X03644D02*
X03659D01*
X03691D02*
X03706D01*
X0319Y03634D02*
X03195D01*
X03253D02*
X03258D01*
X03286D02*
X03295D01*
X03309D02*
X03325D01*
X03358D02*
X03372D01*
X03435D02*
X03449D01*
X03465D02*
X03478D01*
X03522D02*
X03536D01*
X03574D02*
X03587D01*
X03596D02*
X03609D01*
X03644D02*
X03658D01*
X03692D02*
X03706D01*
X03191Y03635D02*
X03196D01*
X03252D02*
X03258D01*
X03286D02*
X03296D01*
X0331D02*
X03326D01*
X03358D02*
X03372D01*
X03435D02*
X03449D01*
X03465D02*
X03478D01*
X03522D02*
X03536D01*
X03574D02*
X03587D01*
X03596D02*
X03609D01*
X03643D02*
X03658D01*
X03692D02*
X03706D01*
X03191Y03636D02*
X03196D01*
X03252D02*
X03257D01*
X03285D02*
X03297D01*
X0331D02*
X03326D01*
X03358D02*
X03372D01*
X03435D02*
X03449D01*
X03465D02*
X03478D01*
X03522D02*
X03536D01*
X03574D02*
X03588D01*
X03595D02*
X03609D01*
X03643D02*
X03657D01*
X03692D02*
X03707D01*
X03192Y03637D02*
X03197D01*
X03251D02*
X03257D01*
X03284D02*
X03297D01*
X03311D02*
X03327D01*
X03358D02*
X03372D01*
X03435D02*
X03449D01*
X03465D02*
X03479D01*
X03522D02*
X03536D01*
X03575D02*
X03588D01*
X03595D02*
X03608D01*
X03643D02*
X03657D01*
X03693D02*
X03707D01*
X03192Y03638D02*
X03198D01*
X0325D02*
X03256D01*
X03284D02*
X03298D01*
X03312D02*
X03328D01*
X03358D02*
X03372D01*
X03435D02*
X03449D01*
X03465D02*
X03479D01*
X03522D02*
X03536D01*
X03575D02*
X03588D01*
X03595D02*
X03608D01*
X03642D02*
X03657D01*
X03693D02*
X03708D01*
X03193Y03639D02*
X03198D01*
X03249D02*
X03255D01*
X03283D02*
X03298D01*
X03312D02*
X03329D01*
X03358D02*
X03372D01*
X03435D02*
X03449D01*
X03465D02*
X03479D01*
X03522D02*
X03536D01*
X03575D02*
X03589D01*
X03594D02*
X03608D01*
X03642D02*
X03657D01*
X03694D02*
X03708D01*
X03194Y0364D02*
X032D01*
X03249D02*
X03254D01*
X03282D02*
X03298D01*
X03313D02*
X03329D01*
X03435D02*
X03449D01*
X03465D02*
X03479D01*
X03522D02*
X03536D01*
X03576D02*
X03589D01*
X03594D02*
X03607D01*
X03642D02*
X03656D01*
X03694D02*
X03708D01*
X03195Y03641D02*
X032D01*
X03248D02*
X03254D01*
X03282D02*
X03298D01*
X03313D02*
X0333D01*
X03435D02*
X03449D01*
X03465D02*
X0348D01*
X03522D02*
X03536D01*
X03576D02*
X03589D01*
X03594D02*
X03607D01*
X03641D02*
X03656D01*
X03694D02*
X03709D01*
X03195Y03642D02*
X03201D01*
X03223D02*
X03226D01*
X03247D02*
X03253D01*
X03281D02*
X03297D01*
X03314D02*
X0333D01*
X03435D02*
X03449D01*
X03466D02*
X0348D01*
X03522D02*
X03536D01*
X03577D02*
X0359D01*
X03593D02*
X03606D01*
X03641D02*
X03655D01*
X03694D02*
X03709D01*
X03196Y03643D02*
X03203D01*
X03219D02*
X03229D01*
X03246D02*
X03252D01*
X0328D02*
X03297D01*
X03315D02*
X03331D01*
X03435D02*
X03449D01*
X03466D02*
X0348D01*
X03522D02*
X03536D01*
X03577D02*
X0359D01*
X03593D02*
X03606D01*
X0364D02*
X03655D01*
X03695D02*
X03709D01*
X03197Y03644D02*
X03204D01*
X03217D02*
X03231D01*
X03244D02*
X03251D01*
X0328D02*
X03296D01*
X03315D02*
X03332D01*
X03435D02*
X03449D01*
X03466D02*
X03481D01*
X03522D02*
X03536D01*
X03577D02*
X03591D01*
X03592D02*
X03606D01*
X0364D02*
X03655D01*
X03695D02*
X0371D01*
X03198Y03645D02*
X03205D01*
X03216D02*
X03232D01*
X03243D02*
X0325D01*
X03279D02*
X03295D01*
X03316D02*
X03332D01*
X03435D02*
X03449D01*
X03466D02*
X03481D01*
X03522D02*
X03536D01*
X03578D02*
X03591D01*
X03592D02*
X03605D01*
X0364D02*
X03654D01*
X03695D02*
X0371D01*
X03199Y03646D02*
X03207D01*
X03215D02*
X03233D01*
X03242D02*
X03249D01*
X03278D02*
X03295D01*
X03317D02*
X03333D01*
X03435D02*
X03449D01*
X03466D02*
X03482D01*
X03522D02*
X03536D01*
X03578D02*
X03591D01*
X03592D02*
X03605D01*
X03639D02*
X03654D01*
X03696D02*
X03711D01*
X032Y03647D02*
X03208D01*
X03215D02*
X03234D01*
X0324D02*
X03248D01*
X03278D02*
X03294D01*
X03317D02*
X03334D01*
X03435D02*
X03449D01*
X03467D02*
X03483D01*
X03522D02*
X03536D01*
X03579D02*
X03604D01*
X03639D02*
X03654D01*
X03696D02*
X03711D01*
X03201Y03648D02*
X0321D01*
X03214D02*
X03234D01*
X03238D02*
X03247D01*
X03277D02*
X03294D01*
X03318D02*
X03334D01*
X03435D02*
X03449D01*
X03467D02*
X03484D01*
X03522D02*
X03536D01*
X03579D02*
X03604D01*
X03639D02*
X03653D01*
X03697D02*
X03711D01*
X03203Y03649D02*
X03213D01*
X03214D02*
X03235D01*
X03236D02*
X03245D01*
X03276D02*
X03293D01*
X03319D02*
X03335D01*
X03435D02*
X03449D01*
X03468D02*
X03485D01*
X03522D02*
X03536D01*
X0358D02*
X03603D01*
X03638D02*
X03653D01*
X03697D02*
X03712D01*
X03204Y0365D02*
X03244D01*
X03276D02*
X03292D01*
X03319D02*
X03335D01*
X03435D02*
X03449D01*
X03469D02*
X03487D01*
X03522D02*
X03536D01*
X0358D02*
X03603D01*
X03638D02*
X03653D01*
X03697D02*
X03712D01*
X03206Y03651D02*
X03242D01*
X03275D02*
X03292D01*
X0332D02*
X03336D01*
X03363D02*
X03367D01*
X03435D02*
X03449D01*
X03469D02*
X03489D01*
X03522D02*
X03536D01*
X0358D02*
X03603D01*
X03637D02*
X03652D01*
X03698D02*
X03712D01*
X03208Y03652D02*
X0324D01*
X03275D02*
X03291D01*
X03321D02*
X03337D01*
X03361D02*
X0337D01*
X03435D02*
X03449D01*
X0347D02*
X03491D01*
X03522D02*
X03536D01*
X0358D02*
X03603D01*
X03637D02*
X03652D01*
X03698D02*
X03713D01*
X0321Y03653D02*
X03238D01*
X03274D02*
X0329D01*
X03321D02*
X03338D01*
X03359D02*
X03371D01*
X03435D02*
X03449D01*
X0347D02*
X03496D01*
X03522D02*
X03536D01*
X03581D02*
X03602D01*
X03637D02*
X03652D01*
X03698D02*
X03713D01*
X03212Y03654D02*
X03236D01*
X03273D02*
X0329D01*
X03322D02*
X03338D01*
X03358D02*
X03372D01*
X03387D02*
X03449D01*
X03471D02*
X03536D01*
X03581D02*
X03602D01*
X03636D02*
X03651D01*
X03699D02*
X03714D01*
X03213Y03655D02*
X03236D01*
X03272D02*
X03289D01*
X03322D02*
X03339D01*
X03358D02*
X03372D01*
X03387D02*
X03449D01*
X03472D02*
X03536D01*
X03582D02*
X03601D01*
X03636D02*
X03651D01*
X03699D02*
X03714D01*
X03213Y03656D02*
X03236D01*
X03272D02*
X03289D01*
X03323D02*
X03339D01*
X03358D02*
X03372D01*
X03387D02*
X03449D01*
X03473D02*
X03536D01*
X03582D02*
X03601D01*
X03635D02*
X03651D01*
X037D02*
X03714D01*
X03213Y03657D02*
X03235D01*
X03271D02*
X03288D01*
X03324D02*
X0334D01*
X03357D02*
X03373D01*
X03387D02*
X03449D01*
X03474D02*
X03536D01*
X03583D02*
X036D01*
X03635D02*
X0365D01*
X037D02*
X03715D01*
X03213Y03658D02*
X03235D01*
X03271D02*
X03287D01*
X03324D02*
X03341D01*
X03357D02*
X03373D01*
X03387D02*
X03449D01*
X03476D02*
X03536D01*
X03583D02*
X036D01*
X03635D02*
X0365D01*
X037D02*
X03715D01*
X03214Y03659D02*
X03234D01*
X0327D02*
X03287D01*
X03325D02*
X03341D01*
X03357D02*
X03373D01*
X03387D02*
X03449D01*
X03477D02*
X03536D01*
X03583D02*
X036D01*
X03634D02*
X03649D01*
X037D02*
X03715D01*
X03215Y0366D02*
X03233D01*
X0327D02*
X03286D01*
X03326D02*
X03342D01*
X03357D02*
X03373D01*
X03387D02*
X03449D01*
X03479D02*
X03536D01*
X03584D02*
X03599D01*
X03634D02*
X03649D01*
X03701D02*
X03716D01*
X03215Y03661D02*
X03233D01*
X03269D02*
X03285D01*
X03326D02*
X03343D01*
X03358D02*
X03372D01*
X03387D02*
X03449D01*
X03481D02*
X03536D01*
X03584D02*
X03599D01*
X03634D02*
X03649D01*
X03701D02*
X03716D01*
X03216Y03662D02*
X03232D01*
X03268D02*
X03285D01*
X03327D02*
X03343D01*
X03358D02*
X03372D01*
X03387D02*
X03449D01*
X03483D02*
X03536D01*
X03584D02*
X03599D01*
X03633D02*
X03649D01*
X03701D02*
X03717D01*
X03218Y03663D02*
X0323D01*
X03267D02*
X03284D01*
X03328D02*
X03344D01*
X03359D02*
X03372D01*
X03387D02*
X03449D01*
X03486D02*
X03536D01*
X03585D02*
X03598D01*
X03633D02*
X03648D01*
X03702D02*
X03717D01*
X0322Y03664D02*
X03228D01*
X03267D02*
X03284D01*
X03328D02*
X03344D01*
X03359D02*
X03371D01*
X03387D02*
X03449D01*
X03491D02*
X03536D01*
X03585D02*
X03598D01*
X03633D02*
X03648D01*
X03702D02*
X03717D01*
X03267Y03665D02*
X03282D01*
X03361D02*
X0337D01*
G54D194*
X02108Y03511D02*
X02187D01*
X02108Y03216D02*
X02187D01*
X01993D02*
X02036D01*
X01993Y03511D02*
X02036D01*
G54D195*
X02Y03364D03*
G54D196*
X02729Y03406D03*
X02766D03*
M02*