%FSTAX23Y23*%
%MOIN*%
%SFA1B1*%

%IPPOS*%
%ADD11R,0.031500X0.029500*%
%ADD12R,0.013800X0.009800*%
%ADD13R,0.070900X0.039400*%
%ADD14C,0.007900*%
%ADD15R,0.009800X0.013800*%
%ADD16R,0.017700X0.039400*%
%ADD17R,0.013800X0.013800*%
%ADD18R,0.039400X0.031500*%
%ADD19R,0.031500X0.086600*%
%ADD20R,0.031500X0.063000*%
%ADD21R,0.035400X0.027600*%
%ADD22R,0.011000X0.016900*%
%ADD23R,0.023600X0.021700*%
%ADD24R,0.008700X0.015700*%
%ADD25R,0.019700X0.019700*%
%ADD26R,0.031500X0.031500*%
%ADD27R,0.070900X0.043300*%
%ADD28R,0.055100X0.108300*%
%ADD29C,0.031500*%
%ADD30R,0.016900X0.011000*%
%ADD31R,0.019700X0.023600*%
%ADD32R,0.011800X0.027600*%
%ADD33R,0.037300X0.039400*%
%ADD34R,0.037200X0.039400*%
%ADD35O,0.066900X0.011800*%
%ADD36R,0.021700X0.023600*%
%ADD37R,0.031500X0.031500*%
%ADD38R,0.043300X0.070900*%
%ADD39R,0.102400X0.023600*%
%ADD40R,0.031500X0.013800*%
%ADD41R,0.098400X0.051200*%
%ADD42O,0.025600X0.007900*%
%ADD43O,0.007900X0.025600*%
%ADD44R,0.185000X0.185000*%
%ADD59C,0.059100*%
%ADD60C,0.060000*%
%ADD61C,0.047200*%
%ADD62R,0.047200X0.047200*%
%ADD63O,0.063000X0.035400*%
%ADD64O,0.098400X0.118100*%
%ADD65C,0.177200*%
%ADD66C,0.019700*%
%LNvapeix_mini_pcb-1*%
%LPD*%
G54D11*
X03433Y03149D03*
Y03096D03*
G54D12*
X03389Y03096D03*
Y03115D03*
X02289Y03275D03*
Y03256D03*
X02288Y03458D03*
Y03439D03*
X02552Y03563D03*
Y03544D03*
X0223Y0348D03*
Y03499D03*
X03389Y03137D03*
Y03156D03*
G54D13*
X03629Y03208D03*
Y03307D03*
G54D14*
X03533Y03284D03*
X0356D03*
X03534Y03235D03*
X03561D03*
X04363Y03079D03*
X04337D03*
X04283Y03649D03*
X04257D03*
G54D15*
X03159Y03302D03*
X0314D03*
Y03275D03*
X03159D03*
X0316Y03146D03*
X03141D03*
X03121Y03169D03*
X0314D03*
G54D16*
X03175Y03227D03*
X03106Y03226D03*
G54D17*
X0314Y03214D03*
Y03239D03*
G54D18*
X02998Y03257D03*
G54D19*
X02942Y0332D03*
X03053D03*
G54D20*
X03141Y03058D03*
X03008D03*
G54D21*
X04177Y03664D03*
Y03624D03*
X04117Y03664D03*
Y03624D03*
X04178Y03109D03*
Y03069D03*
X04118Y03109D03*
Y03069D03*
G54D22*
X02845Y0357D03*
X02865D03*
X04293Y03202D03*
X04273D03*
X043Y03435D03*
X0428D03*
X04311Y03376D03*
X04291D03*
X02463Y03616D03*
X02483D03*
X02534D03*
X02514D03*
X0328Y03171D03*
X0326D03*
G54D23*
X02898Y03688D03*
X02859D03*
G54D24*
X02876Y03648D03*
X0286D03*
X02828Y03605D03*
X02844D03*
G54D25*
X02868Y03617D03*
X02835Y03634D03*
G54D26*
X02761Y03667D03*
G54D27*
X0269Y03667D03*
G54D28*
X02833Y03229D03*
X02676D03*
X02833Y03494D03*
X02676D03*
X04141Y03234D03*
X03984D03*
X04141Y03499D03*
X03984D03*
G54D29*
X04352Y03489D03*
X04241Y03391D03*
X0428Y03489D03*
X04242Y03334D03*
X04391Y03313D03*
X02593Y03509D03*
G54D30*
X0424Y03435D03*
Y03455D03*
X0431Y033D03*
Y0332D03*
X0435Y03307D03*
Y03287D03*
X02276Y03565D03*
Y03545D03*
G54D31*
X02354Y03336D03*
Y03375D03*
G54D32*
X02271Y03688D03*
X02296D03*
X02347D03*
X02322D03*
Y03616D03*
X02347D03*
X02296D03*
X02271D03*
G54D33*
X02283Y03667D03*
G54D34*
X02334Y03667D03*
G54D35*
X02499Y03485D03*
Y03505D03*
Y03525D03*
Y03544D03*
Y03564D03*
X02338Y03485D03*
Y03505D03*
Y03525D03*
Y03544D03*
Y03564D03*
G54D36*
X0223Y03529D03*
Y03568D03*
G54D37*
X02172Y03525D03*
G54D38*
X02172Y03596D03*
G54D39*
X02175Y03265D03*
Y03454D03*
G54D40*
X02265Y0334D03*
Y03359D03*
Y03379D03*
Y03399D03*
Y0332D03*
G54D41*
X02179Y03394D03*
X02179Y03324D03*
G54D42*
X03481Y03252D03*
Y03268D03*
Y03283D03*
Y03299D03*
Y03315D03*
Y03331D03*
Y03346D03*
Y03362D03*
Y03378D03*
Y03394D03*
Y03409D03*
Y03425D03*
X03242D03*
Y03409D03*
Y03394D03*
Y03378D03*
Y03362D03*
Y03346D03*
Y03331D03*
Y03315D03*
Y03299D03*
Y03283D03*
Y03268D03*
Y03252D03*
G54D43*
X03448Y03458D03*
X03432D03*
X03417D03*
X03401D03*
X03385D03*
X03369D03*
X03354D03*
X03338D03*
X03322D03*
X03306D03*
X03291D03*
X03275D03*
Y03219D03*
X03291D03*
X03306D03*
X03322D03*
X03338D03*
X03354D03*
X03369D03*
X03385D03*
X03401D03*
X03417D03*
X03432D03*
X03448D03*
G54D44*
X03362Y03339D03*
G54D59*
X03927Y03068D03*
X04026D03*
X03828D03*
X04023Y0366D03*
X03926D03*
X03828Y03659D03*
X04278Y03079D03*
X04344Y03649D03*
X04457Y034D03*
Y03479D03*
Y03322D03*
Y03243D03*
G54D60*
X02241Y0307D03*
X02341D03*
X02541D03*
X02441D03*
X03063Y03483D03*
Y03641D03*
G54D61*
X02502Y03675D03*
G54D62*
X0244Y03675D03*
G54D63*
X02072Y03493D03*
Y03234D03*
G54D64*
X02075Y0308D03*
Y0365D03*
X04477Y03648D03*
Y03078D03*
G54D65*
X02505Y03363D03*
X03815D03*
G54D66*
X02507Y03433D03*
X02555Y03412D03*
X02574Y03364D03*
X02555Y03314D03*
X02506Y03295D03*
X02456Y03314D03*
X02435Y03364D03*
X02457Y03416D03*
X03768D03*
X03746Y03364D03*
X03767Y03314D03*
X03817Y03295D03*
X03866Y03314D03*
X03885Y03364D03*
X03866Y03412D03*
X03818Y03433D03*
M02*