%FSTAX23Y23*%
%MOIN*%
%SFA1B1*%

%IPPOS*%
%ADD45C,0.011800*%
%ADD46C,0.005900*%
%ADD59C,0.019700*%
%ADD61C,0.177200*%
%ADD67C,0.015700*%
%ADD69C,0.027600*%
%LNvapeix_mini_pcb-1*%
%LPD*%
G54D45*
X02349Y03616D02*
X02384Y03581D01*
X02817Y03461D02*
Y03465D01*
Y03461D02*
X02833Y03444D01*
Y03229D02*
Y03444D01*
X02384Y03505D02*
Y03581D01*
X02238Y03616D02*
X02248D01*
X02225Y03603D02*
X02238Y03616D01*
X02271D02*
X02349D01*
G54D46*
X04191Y03476D02*
Y03478D01*
X04176Y03493D02*
X04191Y03478D01*
X03994Y03609D02*
X0405Y03553D01*
X03977Y03609D02*
X03994D01*
X04101Y03553D02*
Y03642D01*
Y03378D02*
Y03553D01*
X0405D02*
X04101D01*
Y03378D02*
X0411Y03369D01*
X04123Y03664D02*
X04232D01*
X04243Y03387D02*
Y03497D01*
X04118Y03262D02*
X04243Y03387D01*
X04176Y03558D02*
X042Y03582D01*
X04176Y03493D02*
Y03558D01*
X04243Y03497D02*
X04266Y0352D01*
X04118Y03109D02*
Y03262D01*
X04154Y03051D02*
X04172Y03069D01*
X04114Y03051D02*
X04154D01*
X04039Y03126D02*
X04114Y03051D01*
X04039Y03126D02*
Y03439D01*
X04058Y0313D02*
Y03456D01*
X04073Y03471*
X04058Y0313D02*
X04118Y03069D01*
X04101Y03642D02*
X04123Y03664D01*
X04265Y03556D02*
Y03661D01*
X04241Y03685D02*
X04265Y03661D01*
X04106Y03685D02*
X04241D01*
X04085Y03664D02*
X04106Y03685D01*
G54D59*
X03818Y03433D03*
X03866Y03412D03*
X03885Y03364D03*
X03866Y03314D03*
X03817Y03295D03*
X03767Y03314D03*
X03746Y03364D03*
X03768Y03416D03*
X02457D03*
X02435Y03364D03*
X02456Y03314D03*
X02506Y03295D03*
X02555Y03314D03*
X02574Y03364D03*
X02555Y03412D03*
X02507Y03433D03*
G54D61*
X03815Y03363D03*
X02505D03*
G54D67*
X02225Y03603D03*
X02271Y03622D03*
X04191Y03476D03*
X03977Y03609D03*
X0411Y03369D03*
X02817Y03465D03*
X04232Y03664D03*
X042Y03582D03*
X04266Y0352D03*
X04118Y03109D03*
X04039Y03439D03*
X04172Y03069D03*
X04073Y03471D03*
X04118Y03069D03*
X04085Y03664D03*
X04265Y03556D03*
X02833Y03229D03*
X02384Y03505D03*
X02248Y03616D03*
X02288Y03301D03*
G54D69*
X02306Y03313D03*
M02*