%FSTAX23Y23*%
%MOIN*%
%SFA1B1*%

%IPPOS*%
%ADD10C,0.006000*%
%ADD45C,0.011800*%
%ADD46C,0.005900*%
%ADD48C,0.007900*%
%ADD51C,0.010000*%
%ADD97C,0.009800*%
%ADD98C,0.003900*%
%ADD99C,0.001000*%
%ADD100C,0.007000*%
%LNvapeix_mini_pcb-1*%
%LPD*%
G36*
X0392Y03397D02*
X03933D01*
Y03394*
X0392*
Y03391*
X03918*
Y034*
X0392*
Y03397*
G37*
G36*
X03926Y03413D02*
X03926Y03413D01*
X03927*
X03927Y03413*
X03927*
X03928Y03413*
X03928Y03413*
X03929Y03413*
X03929Y03412*
X0393Y03412*
X0393Y03412*
X03931Y03412*
X03931Y03411*
X03931*
Y03411*
X03931Y03411*
X03931Y03411*
X03932Y03411*
X03932Y03411*
X03932Y0341*
X03932Y0341*
X03932Y0341*
X03932Y03409*
X03933Y03409*
X03933Y03409*
X03933Y03408*
X03933Y03408*
Y03407*
Y03407*
Y03407*
Y03407*
X03933Y03407*
Y03406*
X03933Y03406*
Y03406*
X03933Y03405*
X03932Y03405*
X03932Y03405*
X03932Y03404*
X03932Y03404*
X03932Y03404*
X03931Y03403*
X03931Y03403*
X03931Y03403*
X03931Y03403*
X03931Y03403*
X0393Y03403*
X0393Y03403*
X0393Y03402*
X0393Y03402*
X03929Y03402*
X03929Y03402*
X03928Y03402*
X03928Y03402*
X03927Y03402*
X03927Y03401*
X03926*
X03925*
X03925*
X03925*
X03925*
X03924*
X03924*
X03924*
X03923Y03402*
X03922Y03402*
X03922Y03402*
X03921Y03402*
X03921Y03402*
X03921*
Y03402*
X03921*
X03921Y03402*
X03921*
X0392Y03402*
X0392Y03403*
X0392Y03403*
X03919Y03403*
X03919Y03404*
X03918Y03404*
Y03404*
X03918Y03404*
Y03404*
X03918Y03405*
Y03405*
X03918Y03405*
X03918Y03405*
X03918Y03406*
X03918Y03406*
X03918Y03407*
Y03407*
Y03407*
Y03408*
Y03408*
X03918Y03408*
Y03408*
X03918Y03408*
Y03409*
X03918Y03409*
X03918Y03409*
X03918Y0341*
X03918Y0341*
X03919Y0341*
X03919Y03411*
X03919Y03411*
X0392Y03412*
X0392*
X0392Y03412*
X0392Y03412*
X0392Y03412*
X0392Y03412*
X03921Y03412*
X03921Y03412*
X03921Y03412*
X03922Y03413*
X03922Y03413*
X03923Y03413*
X03923Y03413*
X03924Y03413*
X03925Y03413*
X03925*
X03926*
X03926*
G37*
G36*
X03927Y03379D02*
X03927D01*
X03927*
X03928*
X03929Y03379*
X03929*
X03929Y03378*
X0393*
X0393Y03378*
X0393*
X0393*
X0393Y03378*
X03931Y03378*
X03931Y03378*
X03931Y03378*
X03932Y03377*
X03932Y03377*
X03932Y03377*
Y03377*
X03932Y03377*
X03932Y03377*
Y03376*
X03932Y03376*
X03933Y03376*
X03933Y03375*
X03933Y03375*
Y03374*
Y03374*
Y03374*
Y03374*
Y03374*
Y03373*
X03933Y03373*
X03933Y03372*
X03933Y03372*
X03932Y03371*
X03932Y03371*
X03932Y03371*
X03932Y03371*
X03932Y0337*
X03931Y0337*
X03931Y0337*
X03931Y0337*
X0393Y0337*
Y03369*
X0393*
X0393*
X0393*
X0393Y03369*
X03929*
X03929Y03369*
X03929*
X03929*
X03928Y03369*
X03928*
X03927Y03369*
X03927*
X03926*
X03918*
Y03371*
X03926*
X03927Y03372*
X03927*
X03928*
X03928*
X03928*
X03928*
X03928*
X03928Y03372*
X03929*
X03929Y03372*
X03929Y03372*
X03929Y03372*
X0393Y03372*
X0393Y03372*
X0393Y03372*
X0393Y03373*
X0393Y03373*
X0393Y03373*
X0393Y03373*
Y03374*
X0393Y03374*
Y03374*
Y03374*
X0393Y03374*
Y03374*
Y03375*
X0393Y03375*
X0393Y03375*
X0393Y03375*
X0393Y03375*
X0393Y03376*
X0393Y03376*
X0393Y03376*
X03929Y03376*
X03929Y03376*
X03929Y03376*
X03929*
X03929*
X03929*
X03929Y03376*
X03928*
X03928*
X03928*
X03928Y03376*
X03928*
X03927*
X03927*
X03927*
X03918*
Y03379*
X03926*
X03927Y03379*
G37*
G36*
X0392Y03386D02*
X03933D01*
Y03384*
X0392*
Y0338*
X03918*
Y0339*
X0392*
Y03386*
G37*
G36*
X03933Y03422D02*
X03923Y03417D01*
X03933*
Y03415*
X03918*
Y03417*
X03928Y03422*
X03918*
Y03425*
X03933*
Y03422*
G37*
G36*
X02623Y0333D02*
X02608D01*
Y03339*
X0261*
Y03332*
X02614*
Y03338*
X02616*
Y03332*
X0262*
Y03339*
X02623*
Y0333*
G37*
G36*
X02625Y0334D02*
X02624D01*
Y03349*
X02625*
Y0334*
G37*
G36*
X02619Y03317D02*
X02619D01*
X02619*
X02619Y03317*
X0262Y03317*
X0262Y03317*
X02621Y03317*
X02621Y03316*
X02621*
X02621Y03316*
X02621Y03316*
X02622Y03316*
X02622Y03316*
X02622Y03315*
X02622Y03315*
X02622Y03315*
Y03315*
Y03314*
Y03314*
X02623Y03314*
Y03314*
Y03314*
Y03314*
Y03313*
Y03313*
Y03313*
X02623Y03312*
Y03312*
Y03311*
Y03307*
X02608*
Y03312*
Y03312*
Y03312*
Y03312*
Y03312*
Y03313*
X02608Y03313*
Y03314*
X02608Y03314*
X02608Y03314*
Y03315*
X02608Y03315*
Y03315*
X02608Y03315*
X02608Y03315*
X02609Y03315*
X02609Y03315*
X02609Y03316*
X02609Y03316*
X0261Y03316*
X0261Y03316*
X0261*
X0261Y03316*
X0261Y03317*
X02611*
X02611Y03317*
X02612*
X02612*
X02612*
X02612*
X02613Y03317*
X02613Y03316*
X02613Y03316*
X02614Y03316*
Y03316*
X02614*
X02614Y03316*
X02614Y03316*
X02614Y03316*
X02614Y03315*
X02615Y03315*
X02615Y03315*
X02615Y03315*
Y03315*
X02615Y03315*
X02615Y03316*
X02615Y03316*
X02615Y03316*
X02616Y03316*
X02616Y03317*
X02616*
X02616Y03317*
X02616Y03317*
X02617Y03317*
X02617Y03317*
X02617Y03317*
X02618Y03317*
X02618*
X02618*
X02619*
G37*
G36*
X02623Y03319D02*
X02608D01*
Y03322*
X0262*
Y03328*
X02623*
Y03319*
G37*
G36*
X03929Y03367D02*
X03929D01*
X03929Y03367*
X03929*
X0393Y03367*
X0393Y03367*
X03931Y03367*
X03931Y03366*
X03931*
X03931Y03366*
X03931Y03366*
X03932Y03366*
X03932Y03365*
X03932Y03365*
X03932Y03365*
X03932Y03364*
Y03364*
Y03364*
Y03364*
Y03364*
X03933Y03364*
Y03364*
Y03363*
Y03363*
Y03363*
Y03363*
Y03362*
X03933Y03362*
Y03361*
Y03361*
Y03357*
X03918*
Y03362*
Y03362*
Y03362*
Y03362*
Y03362*
Y03362*
X03918Y03363*
Y03363*
X03918Y03364*
X03918Y03364*
Y03364*
X03918Y03365*
X03918Y03365*
X03918Y03365*
X03919Y03365*
X03919Y03365*
X03919Y03365*
X03919Y03366*
X0392Y03366*
X0392Y03366*
X0392Y03366*
X0392Y03366*
X0392Y03366*
X03921Y03366*
X03921Y03366*
X03922*
X03922*
X03922*
X03922Y03366*
X03923*
X03923Y03366*
X03923Y03366*
X03924Y03366*
X03924Y03366*
X03924Y03366*
X03924Y03366*
X03924Y03365*
X03924Y03365*
X03925Y03365*
X03925Y03365*
X03925*
Y03365*
X03925Y03365*
X03925Y03365*
X03925Y03366*
X03925Y03366*
X03926Y03366*
X03926Y03366*
X03926*
X03926Y03367*
X03926Y03367*
X03927Y03367*
X03927Y03367*
X03927Y03367*
X03928Y03367*
X03928*
X03928*
X03929*
G37*
G36*
X04398Y0308D02*
X04411D01*
Y03069*
X04398*
Y03053*
X04389*
Y03069*
X04376*
Y0308*
X04389*
Y03096*
X04398*
Y0308*
G37*
G36*
X02072Y03568D02*
X02085D01*
Y03557*
X02072*
Y03541*
X02063*
Y03557*
X0205*
Y03568*
X02063*
Y03584*
X02072*
Y03568*
G37*
G36*
X04405Y03641D02*
X04393D01*
Y03664*
X04405*
Y03641*
G37*
G36*
X02069Y03153D02*
X02057D01*
Y03176*
X02069*
Y03153*
G37*
G36*
X03933Y03306D02*
X03929Y03305D01*
Y033*
X03933Y03299*
Y03297*
X03918Y03301*
Y03304*
X03933Y03309*
Y03306*
G37*
G36*
Y03343D02*
X03921D01*
X03933Y0334*
Y03338*
X03921Y03336*
X03933*
Y03333*
X03918*
Y03337*
X03928Y03339*
X03918Y03341*
Y03345*
X03933*
Y03343*
G37*
G36*
X03935Y03346D02*
X03934D01*
Y03356*
X03935*
Y03346*
G37*
G36*
X0392Y03315D02*
X03933D01*
Y03313*
X0392*
Y03309*
X03918*
Y03319*
X0392*
Y03315*
G37*
G36*
X03926Y03331D02*
X03926D01*
X03927*
X03927Y03331*
X03927Y03331*
X03928*
X03928Y03331*
X03929Y03331*
X03929Y03331*
X0393Y03331*
X0393Y0333*
X03931Y0333*
X03931Y0333*
X03931*
Y0333*
X03931Y03329*
X03931Y03329*
X03932Y03329*
X03932Y03329*
X03932Y03329*
X03932Y03328*
X03932Y03328*
X03932Y03328*
X03933Y03327*
X03933Y03327*
X03933Y03327*
X03933Y03326*
Y03326*
Y03326*
Y03325*
Y03325*
X03933Y03325*
Y03325*
X03933Y03324*
Y03324*
X03933Y03324*
X03932Y03323*
X03932Y03323*
X03932Y03323*
X03932Y03322*
X03932Y03322*
X03931Y03322*
X03931Y03322*
Y03321*
X03931*
X03931Y03321*
X03931Y03321*
X0393Y03321*
X0393Y03321*
X0393Y03321*
X0393Y03321*
X03929Y0332*
X03929Y0332*
X03928Y0332*
X03928Y0332*
X03927Y0332*
X03927Y0332*
X03926*
X03925Y0332*
X03925*
X03925Y0332*
X03925*
X03924*
X03924*
X03924*
X03923Y0332*
X03922Y0332*
X03922Y0332*
X03921Y0332*
X03921Y03321*
X03921*
X03921Y03321*
X03921Y03321*
X03921*
X0392Y03321*
X0392Y03321*
X0392Y03321*
X03919Y03322*
X03919Y03322*
X03918Y03323*
Y03323*
X03918Y03323*
X03918Y03323*
Y03323*
X03918Y03323*
X03918Y03323*
X03918Y03324*
X03918Y03324*
X03918Y03325*
Y03326*
Y03326*
Y03326*
Y03326*
X03918Y03326*
Y03327*
X03918Y03327*
Y03327*
X03918Y03327*
X03918Y03328*
X03918Y03328*
X03918Y03329*
X03919Y03329*
X03919Y03329*
X03919Y0333*
X0392Y0333*
Y0333*
X0392*
X0392Y0333*
X0392Y0333*
X0392Y0333*
X0392Y0333*
X03921Y03331*
X03921Y03331*
X03921Y03331*
X03922Y03331*
X03922Y03331*
X03923Y03331*
X03923Y03331*
X03924Y03331*
X03925*
X03925Y03332*
X03926*
X03926Y03331*
G37*
G36*
X02393Y03156D02*
X02386D01*
X02384Y03165*
X02372*
X02369Y03156*
X02363*
X02374Y03193*
X02381*
X02393Y03156*
G37*
G36*
X02333Y0317D02*
Y0317D01*
Y0317*
Y03169*
Y03169*
Y03169*
Y03168*
X02333Y03167*
Y03167*
X02333Y03165*
X02333Y03164*
X02333Y03163*
X02332Y03162*
X02332Y03162*
Y03161*
X02332*
X02332Y03161*
X02332Y03161*
X02331Y0316*
X02331Y03159*
X0233Y03159*
X0233Y03158*
X02329Y03157*
X02329Y03157*
X02328Y03157*
X02328Y03157*
X02327Y03157*
X02326Y03156*
X02326Y03156*
X02324Y03156*
X02323Y03156*
X02323*
X02323Y03156*
X02322*
X02322Y03156*
X02321Y03156*
X0232Y03157*
X02319Y03157*
X02318Y03157*
X02317Y03158*
X02317Y03158*
X02316Y03159*
Y03159*
X02316Y03159*
X02316Y03159*
X02316Y03159*
X02316Y0316*
X02316Y0316*
X02315Y03161*
X02315Y03161*
X02315Y03162*
X02315Y03162*
X02315Y03163*
X02314Y03164*
X02314Y03165*
X02314Y03166*
X02314Y03167*
X02314Y03168*
X0232Y03169*
Y03169*
Y03169*
Y03168*
Y03168*
X0232Y03168*
Y03167*
X0232Y03166*
X0232Y03165*
X0232Y03165*
X02321Y03164*
Y03164*
X02321Y03164*
X02321Y03164*
X02321Y03163*
X02322Y03163*
X02322Y03163*
X02323Y03162*
X02323Y03162*
X02324*
X02324Y03162*
X02325Y03162*
X02325Y03163*
X02326Y03163*
X02326Y03163*
X02326Y03164*
Y03164*
X02327Y03164*
X02327Y03164*
X02327Y03165*
Y03165*
X02327Y03166*
X02327Y03166*
X02327Y03167*
Y03167*
X02327Y03168*
Y03169*
Y0317*
Y03193*
X02333*
Y0317*
G37*
G36*
X02623Y03416D02*
X02613Y03411D01*
X02623*
Y03409*
X02608*
Y03411*
X02618Y03416*
X02608*
Y03418*
X02623*
Y03416*
G37*
G36*
X02362Y03187D02*
X02353D01*
Y03156*
X02347*
Y03187*
X02338*
Y03193*
X02362*
Y03187*
G37*
G36*
X02411Y03194D02*
X02412Y03194D01*
X02412*
X02413Y03194*
X02413Y03194*
X02415Y03193*
X02416Y03193*
X02417Y03192*
X02418Y03192*
X02418Y03192*
X02419Y03191*
X02419*
X02419Y03191*
X02419Y03191*
X02419Y03191*
X0242Y0319*
X0242Y0319*
X0242Y0319*
X02421Y03189*
X02421Y03189*
X02421Y03188*
X02422Y03187*
X02422Y03187*
X02422Y03186*
X02423Y03185*
X02423Y03184*
X02423Y03183*
X02417Y03182*
Y03182*
X02417Y03182*
X02417Y03183*
X02416Y03183*
X02416Y03184*
X02416Y03185*
X02415Y03185*
X02415Y03186*
Y03186*
X02414Y03186*
X02414Y03187*
X02413Y03187*
X02413Y03187*
X02412Y03187*
X02411Y03188*
X0241*
X0241*
X0241*
X02409Y03187*
X02409*
X02408Y03187*
X02407Y03187*
X02406Y03186*
X02405Y03186*
X02405Y03186*
X02404Y03185*
X02404Y03185*
Y03184*
X02404Y03184*
X02404Y03184*
X02404Y03184*
X02403Y03184*
X02403Y03183*
X02403Y03183*
X02403Y03182*
X02403Y03182*
X02402Y03181*
X02402Y0318*
X02402Y03179*
X02402Y03178*
X02402Y03177*
X02402Y03176*
Y03175*
Y03175*
Y03175*
Y03175*
Y03174*
Y03174*
X02402Y03173*
X02402Y03172*
X02402Y03172*
X02402Y0317*
X02403Y03168*
X02403Y03167*
X02404Y03166*
X02404Y03165*
X02404*
Y03165*
X02405Y03165*
X02405Y03164*
X02406Y03164*
X02407Y03163*
X02408Y03163*
X02409Y03162*
X02409*
X0241Y03162*
X02411*
X02411Y03162*
X02411*
X02412Y03162*
X02412Y03163*
X02413Y03163*
X02414Y03163*
X02414Y03163*
X02414Y03163*
X02415Y03163*
X02415Y03164*
X02416Y03164*
X02416Y03164*
X02417Y03165*
X02417Y03165*
Y0317*
X0241*
Y03176*
X02424*
Y03162*
X02423Y03161*
X02423Y03161*
X02423Y03161*
X02422Y0316*
X02421Y0316*
X0242Y03159*
X02419Y03158*
X02418Y03157*
X02418*
X02418*
X02417Y03157*
X02417Y03157*
X02417Y03157*
X02416Y03157*
X02416Y03157*
X02414Y03156*
X02413Y03156*
X02412Y03156*
X02411Y03156*
X0241*
X0241Y03156*
X02409*
X02409*
X02408Y03156*
X02408Y03156*
X02407Y03156*
X02405Y03157*
X02404Y03157*
X02403Y03158*
X02403Y03158*
X02402*
X02402Y03158*
X02402Y03158*
X02401Y03159*
X02401Y0316*
X024Y03161*
X02399Y03162*
X02398Y03163*
X02397Y03165*
Y03165*
X02397Y03165*
X02397Y03165*
X02397Y03165*
X02397Y03166*
X02397Y03166*
X02396Y03167*
X02396Y03168*
X02396Y03168*
X02396Y03169*
X02396Y0317*
X02396Y03171*
X02395Y03173*
X02395Y03175*
Y03175*
Y03176*
X02395Y03176*
Y03176*
Y03177*
X02395Y03178*
X02395Y03179*
X02396Y0318*
X02396Y03182*
X02397Y03184*
X02397Y03185*
Y03185*
X02397Y03186*
X02397Y03186*
X02398Y03186*
X02398Y03186*
X02398Y03187*
X02399Y03188*
X02399Y03189*
X024Y0319*
X02401Y03191*
X02402Y03192*
X02403*
X02403Y03192*
X02403Y03192*
X02403Y03192*
X02403Y03192*
X02404Y03192*
X02404Y03193*
X02405Y03193*
X02406Y03193*
X02407Y03194*
X02409Y03194*
X0241Y03194*
X02411*
X02411*
G37*
G36*
X02848Y03045D02*
X0284D01*
Y03055*
X02848*
Y03045*
G37*
G36*
X02788D02*
X02778D01*
X02763Y03097*
X02772*
X02783Y03058*
X02794Y03097*
X02803*
X02788Y03045*
G37*
G36*
X02869Y03097D02*
X0287D01*
X02871Y03096*
X02872Y03096*
X02873Y03096*
X02874Y03095*
X02874Y03095*
X02875Y03094*
X02876Y03094*
X02877Y03093*
X02878Y03092*
X02878Y03091*
X02879*
Y03091*
X02879Y0309*
X02879Y0309*
X02879Y03089*
X0288Y03088*
X0288Y03087*
X0288Y03086*
X02881Y03085*
X02881Y03083*
X02881Y03082*
X02882Y0308*
X02882Y03078*
X02882Y03075*
Y03073*
X02882Y0307*
Y0307*
Y0307*
Y0307*
Y03069*
X02882Y03068*
Y03067*
X02882Y03065*
X02882Y03064*
X02882Y03062*
X02881Y03059*
X02881Y03056*
X0288Y03054*
X0288Y03052*
X02879Y03051*
X02878Y0305*
X02878*
X02878Y0305*
X02878Y03049*
X02878Y03049*
X02877Y03049*
X02877Y03048*
X02876Y03047*
X02874Y03046*
X02873Y03045*
X02872Y03045*
X02871Y03044*
X0287Y03044*
X02868Y03044*
X02868*
X02868Y03044*
X02867*
X02867Y03044*
X02866Y03044*
X02865Y03045*
X02864Y03045*
X02863Y03045*
X02863Y03046*
X02862Y03047*
X02861Y03047*
X0286Y03048*
X02859Y03049*
X02858Y0305*
X02858*
Y0305*
X02858Y0305*
X02858Y03051*
X02858Y03052*
X02857Y03052*
X02857Y03053*
X02857Y03055*
X02856Y03056*
X02856Y03057*
X02856Y03059*
X02855Y03061*
X02855Y03063*
X02855Y03065*
X02855Y03068*
Y0307*
Y03071*
Y03071*
Y03071*
Y03071*
Y03072*
Y03073*
X02855Y03074*
X02855Y03075*
X02855Y03077*
X02855Y03078*
X02856Y03082*
X02856Y03085*
X02857Y03087*
X02857Y03088*
X02858Y0309*
X02858Y03091*
X02859Y03091*
X02859Y03091*
X02859Y03091*
X02859Y03092*
X0286Y03092*
X0286Y03093*
X02861Y03094*
X02863Y03095*
X02864Y03096*
X02865Y03096*
X02866Y03097*
X02867Y03097*
X02868Y03097*
X02869*
X02869Y03097*
G37*
G36*
X02826Y03045D02*
X02818D01*
Y03082*
X02818Y03082*
X02818Y03082*
X02818Y03082*
X02817Y03081*
X02817Y03081*
X02816Y03081*
X02816Y0308*
X02815Y03079*
X02813Y03078*
X02812Y03077*
X0281Y03076*
X02807Y03075*
Y03084*
X02808*
Y03084*
X02808Y03084*
X02809Y03084*
X0281Y03085*
X02811Y03086*
X02812Y03086*
X02813Y03087*
X02814Y03089*
X02815Y03089*
X02815Y03089*
X02815Y03089*
X02816Y0309*
X02816Y03091*
X02817Y03092*
X02818Y03094*
X02819Y03095*
X0282Y03097*
X02826*
Y03045*
G37*
G36*
X02616Y03407D02*
X02616D01*
X02617Y03406*
X02617Y03406*
X02617*
X02618Y03406*
X02618Y03406*
X02619Y03406*
X02619Y03406*
X0262Y03406*
X0262Y03405*
X02621Y03405*
X02621Y03405*
Y03405*
X02621*
Y03405*
X02621Y03405*
X02621Y03404*
X02622Y03404*
X02622Y03404*
X02622Y03404*
X02622Y03403*
X02622Y03403*
X02622Y03403*
X02623Y03402*
X02623Y03402*
X02623Y03402*
X02623Y03401*
Y03401*
Y03401*
Y034*
Y034*
X02623Y034*
Y034*
X02623Y03399*
Y03399*
X02623Y03399*
X02622Y03399*
X02622Y03398*
X02622Y03398*
X02622Y03397*
X02622Y03397*
X02621Y03397*
X02621Y03397*
X02621Y03396*
X02621Y03396*
X02621Y03396*
X0262Y03396*
X0262Y03396*
X0262Y03396*
X0262Y03396*
X02619Y03396*
X02619Y03395*
X02618Y03395*
X02618Y03395*
X02617Y03395*
X02617Y03395*
X02616*
X02615*
X02615*
X02615*
X02615*
X02614*
X02614*
X02614Y03395*
X02613Y03395*
X02612Y03395*
X02612Y03395*
X02611Y03395*
X02611Y03396*
X02611*
Y03396*
X02611*
X02611Y03396*
X02611Y03396*
X0261*
X0261Y03396*
X0261Y03396*
X02609Y03397*
X02609Y03397*
X02608Y03398*
X02608Y03398*
Y03398*
X02608Y03398*
Y03398*
X02608Y03398*
X02608Y03398*
X02608Y03399*
X02608Y03399*
X02608Y034*
Y03401*
Y03401*
Y03401*
Y03401*
X02608Y03401*
Y03402*
X02608Y03402*
Y03402*
X02608Y03403*
X02608Y03403*
X02608Y03403*
X02608Y03404*
X02609Y03404*
X02609Y03404*
X02609Y03405*
X0261Y03405*
X0261*
X0261Y03405*
X0261Y03405*
X0261Y03405*
X0261Y03405*
X02611Y03406*
X02611Y03406*
X02611Y03406*
X02612Y03406*
X02612Y03406*
X02613Y03406*
X02613Y03406*
X02614Y03406*
X02615Y03407*
X02615*
X02616*
X02616*
G37*
G36*
X02619Y0336D02*
X02619D01*
X02619Y0336*
X02619*
X0262Y0336*
X0262Y0336*
X02621Y0336*
X02621Y0336*
X02621*
X02621Y0336*
X02621Y03359*
X02622Y03359*
X02622Y03359*
X02622Y03359*
X02622Y03358*
X02622Y03358*
Y03358*
Y03358*
Y03358*
Y03357*
X02623Y03357*
Y03357*
Y03357*
Y03357*
Y03356*
Y03356*
Y03356*
X02623Y03355*
Y03355*
Y03354*
Y0335*
X02608*
Y03355*
Y03355*
Y03355*
Y03355*
Y03356*
Y03356*
X02608Y03356*
Y03357*
X02608Y03357*
X02608Y03358*
Y03358*
X02608Y03358*
X02608Y03358*
X02608Y03358*
X02609Y03358*
X02609Y03359*
X02609Y03359*
X02609Y03359*
X0261Y03359*
Y03359*
X0261*
X0261Y03359*
X0261Y0336*
X0261Y0336*
X02611Y0336*
X02611Y0336*
X02612*
X02612*
X02612*
X02612Y0336*
X02613*
X02613Y0336*
X02613Y0336*
X02614Y03359*
X02614Y03359*
X02614Y03359*
X02614Y03359*
X02614Y03359*
X02614Y03359*
X02615Y03358*
X02615Y03358*
X02615*
Y03358*
X02615Y03358*
X02615Y03359*
X02615Y03359*
X02615Y03359*
X02616Y0336*
X02616Y0336*
X02616*
X02616Y0336*
X02616Y0336*
X02617Y0336*
X02617Y0336*
X02617Y0336*
X02618Y0336*
X02618*
X02618*
X02619*
G37*
G36*
X0261Y0338D02*
X02623D01*
Y03377*
X0261*
Y03374*
X02608*
Y03383*
X0261*
Y0338*
G37*
G36*
X02617Y03372D02*
X02617D01*
X02617Y03372*
X02618*
X02619Y03372*
X02619*
X02619*
X0262Y03372*
X0262Y03372*
X0262*
X0262*
X0262Y03372*
X02621Y03371*
X02621Y03371*
X02621Y03371*
X02622Y03371*
X02622Y0337*
X02622Y0337*
Y0337*
X02622Y0337*
X02622Y0337*
Y0337*
X02622Y0337*
X02623Y03369*
X02623Y03369*
X02623Y03368*
Y03367*
Y03367*
Y03367*
Y03367*
Y03367*
Y03367*
X02623Y03366*
X02623Y03366*
X02623Y03365*
X02622Y03365*
X02622Y03364*
X02622Y03364*
X02622Y03364*
X02622Y03364*
X02621Y03364*
X02621Y03363*
X02621Y03363*
X0262Y03363*
X0262Y03363*
X0262*
X0262*
X0262Y03363*
X02619*
X02619*
X02619Y03363*
X02619*
X02618Y03363*
X02618*
X02617*
X02617Y03362*
X02616*
X02608*
Y03365*
X02616*
X02617*
X02617*
X02618*
X02618*
X02618*
X02618*
X02618*
X02618Y03365*
X02619*
X02619Y03365*
X02619Y03365*
X02619Y03365*
X0262Y03366*
X0262Y03366*
X0262Y03366*
X0262Y03366*
X0262Y03366*
X0262Y03366*
X0262Y03367*
Y03367*
X0262Y03367*
Y03367*
Y03368*
X0262Y03368*
Y03368*
Y03368*
X0262Y03368*
X0262Y03369*
X0262Y03369*
X0262Y03369*
X0262Y03369*
X0262Y03369*
X0262Y03369*
X02619Y03369*
X02619Y03369*
X02619Y03369*
X02619*
X02619Y0337*
X02619*
X02619*
X02618*
X02618*
X02618*
X02618Y0337*
X02618*
X02617*
X02617*
X02617*
X02608*
Y03372*
X02616*
X02617*
G37*
G36*
X0261Y0339D02*
X02623D01*
Y03388*
X0261*
Y03384*
X02608*
Y03394*
X0261*
Y0339*
G37*
%LNvapeix_mini_pcb-2*%
%LPC*%
G36*
X03926Y03411D02*
X03925D01*
X03925Y03411*
X03925*
X03924*
X03924*
X03924Y0341*
X03923Y0341*
X03923Y0341*
X03922Y0341*
X03922Y0341*
X03921Y0341*
X03921*
Y0341*
X03921Y03409*
X03921Y03409*
X03921Y03409*
X03921Y03409*
X0392Y03408*
X0392Y03408*
Y03408*
Y03408*
X0392Y03407*
Y03407*
X0392Y03407*
Y03407*
Y03407*
X0392Y03406*
X0392Y03406*
X03921Y03406*
X03921Y03406*
X03921Y03405*
X03921Y03405*
X03921Y03405*
X03921Y03405*
X03922Y03405*
X03922Y03405*
X03922*
X03922Y03405*
X03922Y03404*
X03922Y03404*
X03923*
X03923Y03404*
X03923Y03404*
X03924Y03404*
X03924*
X03924Y03404*
X03925*
X03925*
X03925*
X03926*
X03926*
X03926*
X03926Y03404*
X03927*
X03927Y03404*
X03928Y03404*
X03929Y03405*
X03929Y03405*
X03929Y03405*
Y03405*
X03929Y03405*
X03929*
X03929Y03405*
X0393Y03406*
X0393Y03406*
X0393Y03406*
Y03407*
X0393Y03407*
Y03407*
X0393Y03407*
Y03407*
Y03407*
X0393Y03408*
Y03408*
Y03408*
X0393Y03408*
X0393Y03408*
X0393Y03409*
X0393Y03409*
X0393Y03409*
X03929Y03409*
X03929Y03409*
X03929Y0341*
X03929*
Y0341*
X03929Y0341*
X03929*
X03929Y0341*
X03928Y0341*
X03928Y0341*
X03928Y0341*
X03928Y0341*
X03927*
X03927Y0341*
X03927Y03411*
X03926*
X03926Y03411*
G37*
G36*
X02618Y03315D02*
X02618D01*
X02618*
X02618*
X02618Y03315*
X02617*
X02617Y03315*
X02617Y03314*
Y03314*
X02617*
X02617Y03314*
X02617*
X02617Y03314*
X02617Y03314*
X02616Y03314*
X02616Y03314*
Y03314*
Y03313*
X02616Y03313*
Y03313*
Y03313*
Y03312*
X02616Y03312*
Y03312*
Y03312*
Y0331*
X0262*
Y03312*
Y03312*
Y03312*
Y03312*
Y03313*
X0262Y03313*
Y03313*
Y03314*
X0262Y03314*
Y03314*
Y03314*
X0262Y03314*
X0262Y03314*
X0262Y03314*
X0262Y03314*
X02619Y03314*
X02619*
X02619Y03315*
X02619*
X02619Y03315*
X02619Y03315*
X02618*
X02618*
G37*
G36*
X02612Y03314D02*
X02612D01*
X02612Y03314*
X02612*
X02611Y03314*
X02611*
X02611Y03314*
Y03314*
X02611Y03314*
X02611*
X02611Y03314*
X0261Y03313*
Y03313*
Y03313*
Y03313*
Y03313*
X0261Y03313*
Y03313*
Y03313*
Y03312*
Y03312*
Y03312*
Y03312*
Y03311*
Y03311*
Y0331*
X02614*
Y03311*
Y03311*
Y03311*
Y03311*
Y03312*
Y03312*
X02614Y03312*
Y03313*
Y03313*
Y03313*
Y03313*
Y03313*
X02614Y03313*
Y03313*
X02613Y03314*
X02613Y03314*
X02613Y03314*
X02613Y03314*
X02613*
X02613Y03314*
X02613Y03314*
X02612*
X02612*
X02612Y03314*
G37*
G36*
X03928Y03365D02*
X03928D01*
X03928Y03364*
X03928*
X03928*
X03927Y03364*
X03927Y03364*
X03927Y03364*
X03927*
X03927Y03364*
X03927Y03364*
X03927Y03364*
X03927Y03364*
X03926Y03364*
X03926Y03363*
Y03363*
Y03363*
X03926Y03363*
Y03363*
Y03362*
Y03362*
X03926Y03362*
Y03362*
Y03361*
Y03359*
X0393*
Y03362*
Y03362*
Y03362*
Y03362*
Y03362*
Y03362*
X0393Y03363*
Y03363*
Y03363*
X0393Y03363*
Y03363*
Y03364*
Y03364*
X0393Y03364*
X0393Y03364*
X0393Y03364*
X0393Y03364*
X03929Y03364*
Y03364*
X03929*
X03929*
X03929Y03364*
X03929Y03364*
X03929*
X03928*
X03928Y03365*
G37*
G36*
X03922Y03364D02*
X03922D01*
X03922*
X03922*
X03921Y03364*
X03921Y03364*
X03921Y03364*
X03921Y03364*
X03921Y03364*
X03921Y03363*
X0392Y03363*
Y03363*
Y03363*
Y03363*
Y03363*
X0392Y03363*
Y03362*
Y03362*
Y03362*
Y03362*
Y03362*
Y03361*
Y03361*
Y03361*
Y03359*
X03924*
Y03361*
Y03361*
Y03361*
Y03361*
Y03362*
X03924Y03362*
Y03362*
Y03363*
Y03363*
Y03363*
Y03363*
Y03363*
X03924Y03363*
Y03363*
X03923Y03363*
X03923Y03364*
X03923Y03364*
Y03364*
X03923*
X03923Y03364*
X03923*
X03923Y03364*
X03922*
X03922Y03364*
X03922*
G37*
G36*
X03927Y03304D02*
X03921Y03303D01*
X03927Y03301*
Y03304*
G37*
G36*
X03926Y03329D02*
X03925D01*
X03925*
X03925*
X03924*
X03924*
X03924Y03329*
X03923Y03329*
X03923Y03329*
X03922Y03328*
X03922Y03328*
X03921Y03328*
X03921*
Y03328*
X03921Y03328*
X03921Y03328*
X03921Y03327*
X03921Y03327*
X0392Y03327*
X0392Y03326*
Y03326*
Y03326*
X0392Y03326*
Y03326*
Y03325*
X0392*
Y03325*
Y03325*
X0392Y03325*
X0392Y03324*
X03921Y03324*
X03921Y03324*
X03921Y03324*
X03921Y03324*
X03921Y03323*
X03921Y03323*
Y03323*
X03922*
X03922Y03323*
X03922*
X03922Y03323*
X03922Y03323*
X03922Y03323*
X03923Y03323*
X03923*
X03923Y03323*
X03924Y03322*
X03924*
X03924Y03322*
X03925*
X03925*
X03925*
X03926*
X03926*
X03926*
X03926Y03322*
X03927*
X03927Y03323*
X03928Y03323*
X03929Y03323*
X03929Y03323*
X03929Y03323*
Y03323*
X03929*
X03929Y03323*
X03929Y03324*
X0393Y03324*
X0393Y03324*
X0393Y03325*
Y03325*
X0393Y03325*
Y03325*
X0393Y03326*
Y03326*
X0393Y03326*
Y03326*
Y03326*
X0393Y03326*
X0393Y03327*
X0393Y03327*
X0393Y03327*
X0393Y03327*
X03929Y03328*
X03929Y03328*
X03929Y03328*
X03929*
Y03328*
X03929*
X03929Y03328*
X03929Y03328*
X03928Y03328*
X03928Y03329*
X03928*
X03928Y03329*
X03927Y03329*
X03927Y03329*
X03927Y03329*
X03926*
X03926*
G37*
G36*
X02378Y03185D02*
X02374Y03171D01*
X02382*
X02378Y03185*
G37*
G36*
X02868Y03089D02*
D01*
X02868Y03088*
X02868Y03088*
X02867Y03088*
X02867Y03088*
X02866Y03087*
X02865Y03086*
X02865Y03085*
X02865Y03085*
Y03085*
X02864Y03085*
X02864Y03084*
X02864Y03084*
X02864Y03083*
X02864Y03082*
X02864Y03081*
X02864Y0308*
X02864Y03079*
Y03078*
X02863Y03076*
X02863Y03074*
X02863Y03073*
Y0307*
Y0307*
Y0307*
Y03069*
Y03068*
X02863Y03068*
Y03066*
X02863Y03065*
Y03064*
X02864Y03062*
X02864Y0306*
X02864Y03059*
X02864Y03058*
X02864Y03057*
X02864Y03056*
X02865Y03055*
X02865Y03055*
X02865Y03055*
X02865Y03054*
X02866Y03054*
X02866Y03053*
X02867Y03053*
X02868Y03052*
X02868Y03052*
X02869*
X02869Y03052*
X02869*
X0287Y03053*
X0287Y03053*
X02871Y03054*
X02872Y03054*
X02872Y03055*
Y03056*
X02872Y03056*
Y03056*
X02872Y03056*
X02873Y03057*
X02873Y03057*
X02873Y03058*
X02873Y03059*
Y03059*
X02873Y03061*
X02873Y03062*
X02873Y03063*
X02874Y03065*
X02874Y03066*
Y03068*
Y0307*
Y03071*
Y03071*
Y03072*
Y03072*
Y03073*
Y03074*
X02874Y03075*
Y03077*
X02873Y03079*
X02873Y0308*
X02873Y03082*
X02873Y03083*
X02873Y03084*
X02872Y03085*
X02872Y03085*
X02872Y03085*
X02872Y03086*
X02872Y03086*
X02871Y03087*
X02871Y03088*
X0287Y03088*
X02869Y03088*
X02868Y03089*
G37*
G36*
X02616Y03404D02*
X02615D01*
X02615Y03404*
X02615*
X02614*
X02614*
X02614*
X02613Y03404*
X02613Y03404*
X02612Y03403*
X02612Y03403*
X02611Y03403*
X02611*
Y03403*
X02611*
X02611Y03403*
X02611Y03402*
X02611Y03402*
X0261Y03402*
X0261Y03401*
Y03401*
Y03401*
X0261Y03401*
Y03401*
X0261Y034*
Y034*
Y034*
X0261Y034*
X0261Y03399*
X02611Y03399*
X02611Y03399*
X02611Y03399*
X02611Y03399*
X02611Y03398*
X02611Y03398*
X02612Y03398*
X02612*
X02612Y03398*
X02612Y03398*
X02612Y03398*
X02612*
X02613Y03398*
X02613Y03398*
X02613Y03398*
X02614Y03397*
X02614*
X02614Y03397*
X02615*
X02615*
X02615*
X02616*
X02616*
X02616*
X02616Y03397*
X02617*
X02617Y03398*
X02618Y03398*
X02619Y03398*
X02619Y03398*
X02619Y03398*
X02619Y03398*
X02619*
X02619Y03399*
X0262Y03399*
X0262Y03399*
X0262Y034*
Y034*
X0262Y034*
Y034*
X0262Y03401*
Y03401*
Y03401*
X0262Y03401*
Y03401*
Y03401*
X0262Y03402*
X0262Y03402*
X0262Y03402*
X0262Y03402*
X0262Y03402*
X02619Y03403*
X02619Y03403*
X02619Y03403*
X02619Y03403*
X02619Y03403*
X02619*
X02619Y03403*
X02618Y03403*
X02618Y03404*
X02618Y03404*
X02618Y03404*
X02617*
X02617Y03404*
X02617Y03404*
X02616*
X02616Y03404*
G37*
G36*
X02612Y03357D02*
X02612D01*
X02612*
X02612*
X02611Y03357*
X02611Y03357*
X02611Y03357*
X02611Y03357*
X02611Y03357*
X02611Y03357*
X0261Y03357*
Y03356*
Y03356*
Y03356*
Y03356*
X0261Y03356*
Y03356*
Y03356*
Y03356*
Y03355*
Y03355*
Y03355*
Y03354*
Y03354*
Y03353*
X02614*
Y03354*
Y03354*
Y03355*
Y03355*
Y03355*
X02614Y03355*
Y03356*
Y03356*
Y03356*
Y03356*
Y03356*
Y03356*
X02614Y03356*
Y03357*
X02613Y03357*
X02613Y03357*
X02613Y03357*
X02613*
X02613Y03357*
X02613Y03357*
X02613*
X02612Y03357*
X02612*
X02612*
G37*
G36*
X02618Y03358D02*
X02618D01*
X02618Y03358*
X02618*
X02618*
X02617Y03358*
X02617Y03358*
X02617Y03358*
X02617*
X02617Y03357*
X02617Y03357*
X02617Y03357*
X02617Y03357*
X02616Y03357*
X02616Y03357*
Y03357*
Y03357*
X02616Y03356*
Y03356*
Y03356*
Y03355*
X02616Y03355*
Y03355*
Y03355*
Y03353*
X0262*
Y03355*
Y03355*
Y03355*
Y03355*
Y03355*
Y03356*
X0262Y03356*
Y03356*
Y03357*
X0262Y03357*
Y03357*
Y03357*
Y03357*
X0262Y03357*
X0262Y03357*
X0262Y03357*
X0262Y03357*
X02619Y03358*
X02619*
X02619*
X02619Y03358*
X02619Y03358*
X02619*
X02618*
X02618Y03358*
G37*
%LNvapeix_mini_pcb-3*%
%LPD*%
G54D10*
X04126Y03367D02*
D01*
X04125Y03371*
X04125Y03375*
X04124Y0338*
X04123Y03384*
X04122Y03388*
X0412Y03392*
X04118Y03396*
X04116Y034*
X04113Y03404*
X04111Y03407*
X04108Y0341*
X04105Y03413*
X04101Y03416*
X04098Y03419*
X04094Y03421*
X0409Y03423*
X04086Y03425*
X04082Y03426*
X04078Y03428*
X04073Y03429*
X04069Y03429*
X04065Y03429*
X0406*
X04056Y03429*
X04052Y03429*
X04047Y03428*
X04043Y03426*
X04039Y03425*
X04035Y03423*
X04031Y03421*
X04027Y03419*
X04024Y03416*
X0402Y03413*
X04017Y0341*
X04014Y03407*
X04012Y03404*
X04009Y034*
X04007Y03396*
X04005Y03392*
X04003Y03388*
X04002Y03384*
X04001Y0338*
X04Y03375*
X04Y03371*
X04Y03367*
X04Y03362*
X04Y03358*
X04001Y03353*
X04002Y03349*
X04003Y03345*
X04005Y03341*
X04007Y03337*
X04009Y03333*
X04012Y03329*
X04014Y03326*
X04017Y03323*
X0402Y0332*
X04024Y03317*
X04027Y03314*
X04031Y03312*
X04035Y0331*
X04039Y03308*
X04043Y03307*
X04047Y03305*
X04052Y03304*
X04056Y03304*
X0406Y03304*
X04065*
X04069Y03304*
X04073Y03304*
X04078Y03305*
X04082Y03307*
X04086Y03308*
X0409Y0331*
X04094Y03312*
X04098Y03314*
X04101Y03317*
X04105Y0332*
X04108Y03323*
X04111Y03326*
X04113Y03329*
X04116Y03333*
X04118Y03337*
X0412Y03341*
X04122Y03345*
X04123Y03349*
X04124Y03353*
X04125Y03358*
X04125Y03362*
X04126Y03367*
X02818Y03362D02*
D01*
X02817Y03366*
X02817Y0337*
X02816Y03375*
X02815Y03379*
X02814Y03383*
X02812Y03387*
X0281Y03391*
X02808Y03395*
X02805Y03399*
X02803Y03402*
X028Y03405*
X02797Y03408*
X02793Y03411*
X0279Y03414*
X02786Y03416*
X02782Y03418*
X02778Y0342*
X02774Y03421*
X0277Y03423*
X02765Y03424*
X02761Y03424*
X02757Y03424*
X02752*
X02748Y03424*
X02744Y03424*
X02739Y03423*
X02735Y03421*
X02731Y0342*
X02727Y03418*
X02723Y03416*
X02719Y03414*
X02716Y03411*
X02712Y03408*
X02709Y03405*
X02706Y03402*
X02704Y03399*
X02701Y03395*
X02699Y03391*
X02697Y03387*
X02695Y03383*
X02694Y03379*
X02693Y03375*
X02692Y0337*
X02692Y03366*
X02692Y03362*
X02692Y03357*
X02692Y03353*
X02693Y03348*
X02694Y03344*
X02695Y0334*
X02697Y03336*
X02699Y03332*
X02701Y03328*
X02704Y03324*
X02706Y03321*
X02709Y03318*
X02712Y03315*
X02716Y03312*
X02719Y03309*
X02723Y03307*
X02727Y03305*
X02731Y03303*
X02735Y03302*
X02739Y033*
X02744Y03299*
X02748Y03299*
X02752Y03299*
X02757*
X02761Y03299*
X02765Y03299*
X0277Y033*
X02774Y03302*
X02778Y03303*
X02782Y03305*
X02786Y03307*
X0279Y03309*
X02793Y03312*
X02797Y03315*
X028Y03318*
X02803Y03321*
X02805Y03324*
X02808Y03328*
X0281Y03332*
X02812Y03336*
X02814Y0334*
X02815Y03344*
X02816Y03348*
X02817Y03353*
X02817Y03357*
X02818Y03362*
X02215Y03583D02*
X02244D01*
X02215Y03514D02*
X02244D01*
X02215D02*
Y03539D01*
Y03558D02*
Y03583D01*
X02244Y03514D02*
Y03539D01*
Y03558D02*
Y03583D01*
X0234Y0332D02*
X02367D01*
X0234Y03391D02*
X02367D01*
Y03365D02*
Y03391D01*
Y0332D02*
Y03346D01*
X0234Y03365D02*
Y03391D01*
Y0332D02*
Y03346D01*
X04181Y03248D02*
Y03485D01*
X03944D02*
X04181D01*
X03944Y03248D02*
Y03485D01*
Y03248D02*
X04181D01*
X02873Y03243D02*
Y0348D01*
X02636D02*
X02873D01*
X02636Y03243D02*
Y0348D01*
Y03243D02*
X02873D01*
X02888Y03673D02*
X02913D01*
X02844D02*
X02869D01*
X02888Y03702D02*
X02913D01*
X02844D02*
X02869D01*
X02844Y03673D02*
Y03702D01*
X02913Y03673D02*
Y03702D01*
X03413Y03076D02*
X03452D01*
X03413Y03169D02*
X03452D01*
X03413Y03076D02*
Y03113D01*
Y03132D02*
Y03169D01*
X03452Y03076D02*
Y03113D01*
Y03132D02*
Y03169D01*
G54D45*
X04181Y03145D02*
D01*
X04181Y03145*
X04181Y03145*
X04181Y03145*
X04181Y03146*
X04181Y03146*
X04181Y03146*
X04181Y03146*
X04181Y03147*
X04181Y03147*
X0418Y03147*
X0418Y03147*
X0418Y03147*
X0418Y03148*
X0418Y03148*
X04179Y03148*
X04179Y03148*
X04179Y03148*
X04179Y03148*
X04178Y03148*
X04178Y03148*
X04178Y03148*
X04178Y03148*
X04177*
X04177Y03148*
X04177Y03148*
X04177Y03148*
X04176Y03148*
X04176Y03148*
X04176Y03148*
X04176Y03148*
X04175Y03148*
X04175Y03148*
X04175Y03147*
X04175Y03147*
X04175Y03147*
X04174Y03147*
X04174Y03147*
X04174Y03146*
X04174Y03146*
X04174Y03146*
X04174Y03146*
X04174Y03145*
X04174Y03145*
X04174Y03145*
X04174Y03145*
X04174Y03144*
X04174Y03144*
X04174Y03144*
X04174Y03143*
X04174Y03143*
X04174Y03143*
X04174Y03143*
X04174Y03142*
X04174Y03142*
X04175Y03142*
X04175Y03142*
X04175Y03142*
X04175Y03141*
X04175Y03141*
X04176Y03141*
X04176Y03141*
X04176Y03141*
X04176Y03141*
X04177Y03141*
X04177Y03141*
X04177Y03141*
X04177Y03141*
X04178*
X04178Y03141*
X04178Y03141*
X04178Y03141*
X04179Y03141*
X04179Y03141*
X04179Y03141*
X04179Y03141*
X0418Y03141*
X0418Y03141*
X0418Y03142*
X0418Y03142*
X0418Y03142*
X04181Y03142*
X04181Y03142*
X04181Y03143*
X04181Y03143*
X04181Y03143*
X04181Y03143*
X04181Y03144*
X04181Y03144*
X04181Y03144*
X04181Y03145*
X0418Y037D02*
D01*
X0418Y037*
X0418Y037*
X0418Y037*
X0418Y03701*
X0418Y03701*
X0418Y03701*
X0418Y03701*
X0418Y03702*
X0418Y03702*
X04179Y03702*
X04179Y03702*
X04179Y03702*
X04179Y03703*
X04179Y03703*
X04178Y03703*
X04178Y03703*
X04178Y03703*
X04178Y03703*
X04177Y03703*
X04177Y03703*
X04177Y03703*
X04177Y03703*
X04176*
X04176Y03703*
X04176Y03703*
X04176Y03703*
X04175Y03703*
X04175Y03703*
X04175Y03703*
X04175Y03703*
X04174Y03703*
X04174Y03703*
X04174Y03702*
X04174Y03702*
X04174Y03702*
X04173Y03702*
X04173Y03702*
X04173Y03701*
X04173Y03701*
X04173Y03701*
X04173Y03701*
X04173Y037*
X04173Y037*
X04173Y037*
X04173Y037*
X04173Y03699*
X04173Y03699*
X04173Y03699*
X04173Y03698*
X04173Y03698*
X04173Y03698*
X04173Y03698*
X04173Y03697*
X04173Y03697*
X04174Y03697*
X04174Y03697*
X04174Y03697*
X04174Y03696*
X04174Y03696*
X04175Y03696*
X04175Y03696*
X04175Y03696*
X04175Y03696*
X04176Y03696*
X04176Y03696*
X04176Y03696*
X04176Y03696*
X04177*
X04177Y03696*
X04177Y03696*
X04177Y03696*
X04178Y03696*
X04178Y03696*
X04178Y03696*
X04178Y03696*
X04179Y03696*
X04179Y03696*
X04179Y03697*
X04179Y03697*
X04179Y03697*
X0418Y03697*
X0418Y03697*
X0418Y03698*
X0418Y03698*
X0418Y03698*
X0418Y03698*
X0418Y03699*
X0418Y03699*
X0418Y03699*
X0418Y037*
G54D46*
X02081Y03209D02*
D01*
X02094Y03167*
X02109Y03126*
X02127Y03086*
X02148Y03047*
X02171Y0301*
X02174Y03007*
X02071Y03468D02*
D01*
X02065Y03425*
X02063Y03381*
X02063Y03337*
X02067Y03293*
X02072Y03258*
X02885Y03549D02*
D01*
X02886Y03537*
X02888Y03524*
X02891Y03512*
X02895Y03501*
X029Y03489*
X02906Y03478*
X02912Y03468*
X02919Y03457*
X02926Y03448*
X02935Y03438*
X02944Y0343*
X02953Y03422*
X02963Y03415*
X02974Y03408*
X02985Y03403*
X02996Y03398*
X03008Y03393*
X0302Y0339*
X03032Y03388*
X03044Y03386*
X03056Y03385*
X03069Y03385*
X03081Y03386*
X03093Y03388*
X03105Y03391*
X03117Y03394*
X03129Y03398*
X0314Y03403*
X03151Y03409*
X03161Y03416*
X03171Y03423*
X03181Y03431*
X0319Y0344*
X03198Y03449*
X03205Y03459*
X03212Y03469*
X03218Y0348*
X03224Y03491*
X03228Y03503*
X03232Y03514*
X03235Y03526*
X03237Y03539*
X03238Y03551*
X03239Y03563*
X03238Y03576*
X03237Y03588*
X03235Y036*
X03232Y03612*
X03228Y03624*
X03223Y03635*
X03217Y03646*
X03211Y03657*
X03204Y03667*
X03197Y03677*
X03188Y03686*
X03179Y03695*
X0317Y03703*
X0316Y0371*
X03149Y03716*
X03143Y0372*
X02409Y03449D02*
D01*
X02403Y03442*
X02398Y03435*
X02393Y03427*
X02389Y03419*
X02385Y03411*
X02382Y03402*
X02379Y03394*
X02378Y03385*
X02376Y03376*
X02376Y03367*
X02376Y03358*
X02376Y03349*
X02378Y0334*
X0238Y03331*
X02382Y03322*
X02385Y03314*
X02389Y03305*
X02393Y03297*
X02398Y0329*
X02403Y03282*
X02409Y03275*
X02415Y03269*
X02422Y03263*
X02429Y03257*
X02437Y03252*
X02445Y03248*
X02453Y03244*
X02461Y0324*
X0247Y03238*
X02479Y03235*
X02488Y03234*
X02497Y03233*
X02506Y03233*
X02515Y03233*
X02524Y03234*
X02533Y03236*
X02542Y03238*
X0255Y03241*
X02559Y03244*
X02567Y03248*
X02575Y03253*
X02582Y03258*
X02589Y03263*
X02596Y03269*
X02602Y03276*
X02608Y03283*
X02613Y0329*
X02618Y03298*
X02622Y03305*
X03775Y03493D02*
D01*
X03766Y0349*
X03757Y03486*
X03748Y03482*
X0374Y03477*
X03733Y03472*
X03725Y03466*
X03718Y03459*
X03712Y03452*
X03706Y03445*
X03701Y03437*
X03696Y03429*
X03691Y03421*
X03688Y03412*
X03685Y03403*
X03682Y03394*
X0368Y03385*
X03679Y03375*
X03679Y03366*
X03679Y03356*
X0368Y03347*
X03681Y03337*
X03683Y03328*
X03686Y03319*
X0369Y0331*
X03694Y03302*
X03698Y03293*
X03703Y03285*
X03709Y03278*
X03715Y03271*
X03722Y03264*
X03729Y03258*
X03737Y03252*
X03745Y03247*
X03753Y03242*
X03762Y03238*
X0377Y03235*
X03776Y03233*
X02176Y03721D02*
D01*
X02152Y03684*
X02131Y03645*
X02113Y03605*
X02097Y03564*
X02085Y03522*
X02083Y03515*
X02612Y03509D02*
D01*
X02612Y0351*
X02612Y03511*
X02612Y03513*
X02611Y03514*
X02611Y03515*
X0261Y03517*
X0261Y03518*
X02609Y03519*
X02608Y0352*
X02608Y03521*
X02607Y03522*
X02606Y03523*
X02605Y03524*
X02604Y03525*
X02602Y03526*
X02601Y03526*
X026Y03527*
X02599Y03527*
X02597Y03528*
X02596Y03528*
X02595Y03528*
X02593Y03528*
X02592*
X0259Y03528*
X02589Y03528*
X02588Y03528*
X02586Y03527*
X02585Y03527*
X02584Y03526*
X02583Y03526*
X02581Y03525*
X0258Y03524*
X02579Y03523*
X02578Y03522*
X02577Y03521*
X02577Y0352*
X02576Y03519*
X02575Y03518*
X02575Y03517*
X02574Y03515*
X02574Y03514*
X02573Y03513*
X02573Y03511*
X02573Y0351*
X02573Y03509*
X02573Y03507*
X02573Y03506*
X02573Y03504*
X02574Y03503*
X02574Y03502*
X02575Y035*
X02575Y03499*
X02576Y03498*
X02577Y03497*
X02577Y03496*
X02578Y03495*
X02579Y03494*
X0258Y03493*
X02581Y03492*
X02583Y03491*
X02584Y03491*
X02585Y0349*
X02586Y0349*
X02588Y03489*
X02589Y03489*
X0259Y03489*
X02592Y03489*
X02593*
X02595Y03489*
X02596Y03489*
X02597Y03489*
X02599Y0349*
X026Y0349*
X02601Y03491*
X02602Y03491*
X02604Y03492*
X02605Y03493*
X02606Y03494*
X02607Y03495*
X02608Y03496*
X02608Y03497*
X02609Y03498*
X0261Y03499*
X0261Y035*
X02611Y03502*
X02611Y03503*
X02612Y03504*
X02612Y03506*
X02612Y03507*
X02612Y03509*
X0441Y03313D02*
D01*
X0441Y03314*
X0441Y03315*
X0441Y03317*
X04409Y03318*
X04409Y03319*
X04408Y03321*
X04408Y03322*
X04407Y03323*
X04406Y03324*
X04406Y03325*
X04405Y03326*
X04404Y03327*
X04403Y03328*
X04402Y03329*
X044Y0333*
X04399Y0333*
X04398Y03331*
X04397Y03331*
X04395Y03332*
X04394Y03332*
X04393Y03332*
X04391Y03332*
X0439*
X04388Y03332*
X04387Y03332*
X04386Y03332*
X04384Y03331*
X04383Y03331*
X04382Y0333*
X04381Y0333*
X04379Y03329*
X04378Y03328*
X04377Y03327*
X04376Y03326*
X04375Y03325*
X04375Y03324*
X04374Y03323*
X04373Y03322*
X04373Y03321*
X04372Y03319*
X04372Y03318*
X04371Y03317*
X04371Y03315*
X04371Y03314*
X04371Y03313*
X04371Y03311*
X04371Y0331*
X04371Y03308*
X04372Y03307*
X04372Y03306*
X04373Y03304*
X04373Y03303*
X04374Y03302*
X04375Y03301*
X04375Y033*
X04376Y03299*
X04377Y03298*
X04378Y03297*
X04379Y03296*
X04381Y03295*
X04382Y03295*
X04383Y03294*
X04384Y03294*
X04386Y03293*
X04387Y03293*
X04388Y03293*
X0439Y03293*
X04391*
X04393Y03293*
X04394Y03293*
X04395Y03293*
X04397Y03294*
X04398Y03294*
X04399Y03295*
X044Y03295*
X04402Y03296*
X04403Y03297*
X04404Y03298*
X04405Y03299*
X04406Y033*
X04406Y03301*
X04407Y03302*
X04408Y03303*
X04408Y03304*
X04409Y03306*
X04409Y03307*
X0441Y03308*
X0441Y0331*
X0441Y03311*
X0441Y03313*
X04261Y03334D02*
D01*
X04261Y03335*
X04261Y03336*
X04261Y03338*
X0426Y03339*
X0426Y0334*
X04259Y03342*
X04259Y03343*
X04258Y03344*
X04257Y03345*
X04257Y03346*
X04256Y03347*
X04255Y03348*
X04254Y03349*
X04253Y0335*
X04251Y03351*
X0425Y03351*
X04249Y03352*
X04248Y03352*
X04246Y03353*
X04245Y03353*
X04244Y03353*
X04242Y03353*
X04241*
X04239Y03353*
X04238Y03353*
X04237Y03353*
X04235Y03352*
X04234Y03352*
X04233Y03351*
X04232Y03351*
X0423Y0335*
X04229Y03349*
X04228Y03348*
X04227Y03347*
X04226Y03346*
X04226Y03345*
X04225Y03344*
X04224Y03343*
X04224Y03342*
X04223Y0334*
X04223Y03339*
X04222Y03338*
X04222Y03336*
X04222Y03335*
X04222Y03334*
X04222Y03332*
X04222Y03331*
X04222Y03329*
X04223Y03328*
X04223Y03327*
X04224Y03325*
X04224Y03324*
X04225Y03323*
X04226Y03322*
X04226Y03321*
X04227Y0332*
X04228Y03319*
X04229Y03318*
X0423Y03317*
X04232Y03316*
X04233Y03316*
X04234Y03315*
X04235Y03315*
X04237Y03314*
X04238Y03314*
X04239Y03314*
X04241Y03314*
X04242*
X04244Y03314*
X04245Y03314*
X04246Y03314*
X04248Y03315*
X04249Y03315*
X0425Y03316*
X04251Y03316*
X04253Y03317*
X04254Y03318*
X04255Y03319*
X04256Y0332*
X04257Y03321*
X04257Y03322*
X04258Y03323*
X04259Y03324*
X04259Y03325*
X0426Y03327*
X0426Y03328*
X04261Y03329*
X04261Y03331*
X04261Y03332*
X04261Y03334*
X04299Y03489D02*
D01*
X04299Y0349*
X04299Y03491*
X04299Y03493*
X04298Y03494*
X04298Y03495*
X04297Y03497*
X04297Y03498*
X04296Y03499*
X04295Y035*
X04295Y03501*
X04294Y03502*
X04293Y03503*
X04292Y03504*
X04291Y03505*
X04289Y03506*
X04288Y03506*
X04287Y03507*
X04286Y03507*
X04284Y03508*
X04283Y03508*
X04282Y03508*
X0428Y03508*
X04279*
X04277Y03508*
X04276Y03508*
X04275Y03508*
X04273Y03507*
X04272Y03507*
X04271Y03506*
X0427Y03506*
X04268Y03505*
X04267Y03504*
X04266Y03503*
X04265Y03502*
X04264Y03501*
X04264Y035*
X04263Y03499*
X04262Y03498*
X04262Y03497*
X04261Y03495*
X04261Y03494*
X0426Y03493*
X0426Y03491*
X0426Y0349*
X0426Y03489*
X0426Y03487*
X0426Y03486*
X0426Y03484*
X04261Y03483*
X04261Y03482*
X04262Y0348*
X04262Y03479*
X04263Y03478*
X04264Y03477*
X04264Y03476*
X04265Y03475*
X04266Y03474*
X04267Y03473*
X04268Y03472*
X0427Y03471*
X04271Y03471*
X04272Y0347*
X04273Y0347*
X04275Y03469*
X04276Y03469*
X04277Y03469*
X04279Y03469*
X0428*
X04282Y03469*
X04283Y03469*
X04284Y03469*
X04286Y0347*
X04287Y0347*
X04288Y03471*
X04289Y03471*
X04291Y03472*
X04292Y03473*
X04293Y03474*
X04294Y03475*
X04295Y03476*
X04295Y03477*
X04296Y03478*
X04297Y03479*
X04297Y0348*
X04298Y03482*
X04298Y03483*
X04299Y03484*
X04299Y03486*
X04299Y03487*
X04299Y03489*
X0426Y03391D02*
D01*
X0426Y03392*
X0426Y03393*
X0426Y03395*
X04259Y03396*
X04259Y03397*
X04258Y03399*
X04258Y034*
X04257Y03401*
X04256Y03402*
X04256Y03403*
X04255Y03404*
X04254Y03405*
X04253Y03406*
X04252Y03407*
X0425Y03408*
X04249Y03408*
X04248Y03409*
X04247Y03409*
X04245Y0341*
X04244Y0341*
X04243Y0341*
X04241Y0341*
X0424*
X04238Y0341*
X04237Y0341*
X04236Y0341*
X04234Y03409*
X04233Y03409*
X04232Y03408*
X04231Y03408*
X04229Y03407*
X04228Y03406*
X04227Y03405*
X04226Y03404*
X04225Y03403*
X04225Y03402*
X04224Y03401*
X04223Y034*
X04223Y03399*
X04222Y03397*
X04222Y03396*
X04221Y03395*
X04221Y03393*
X04221Y03392*
X04221Y03391*
X04221Y03389*
X04221Y03388*
X04221Y03386*
X04222Y03385*
X04222Y03384*
X04223Y03382*
X04223Y03381*
X04224Y0338*
X04225Y03379*
X04225Y03378*
X04226Y03377*
X04227Y03376*
X04228Y03375*
X04229Y03374*
X04231Y03373*
X04232Y03373*
X04233Y03372*
X04234Y03372*
X04236Y03371*
X04237Y03371*
X04238Y03371*
X0424Y03371*
X04241*
X04243Y03371*
X04244Y03371*
X04245Y03371*
X04247Y03372*
X04248Y03372*
X04249Y03373*
X0425Y03373*
X04252Y03374*
X04253Y03375*
X04254Y03376*
X04255Y03377*
X04256Y03378*
X04256Y03379*
X04257Y0338*
X04258Y03381*
X04258Y03382*
X04259Y03384*
X04259Y03385*
X0426Y03386*
X0426Y03388*
X0426Y03389*
X0426Y03391*
X04371Y03489D02*
D01*
X04371Y0349*
X04371Y03491*
X04371Y03493*
X0437Y03494*
X0437Y03495*
X04369Y03497*
X04369Y03498*
X04368Y03499*
X04367Y035*
X04367Y03501*
X04366Y03502*
X04365Y03503*
X04364Y03504*
X04363Y03505*
X04361Y03506*
X0436Y03506*
X04359Y03507*
X04358Y03507*
X04356Y03508*
X04355Y03508*
X04354Y03508*
X04352Y03508*
X04351*
X04349Y03508*
X04348Y03508*
X04347Y03508*
X04345Y03507*
X04344Y03507*
X04343Y03506*
X04342Y03506*
X0434Y03505*
X04339Y03504*
X04338Y03503*
X04337Y03502*
X04336Y03501*
X04336Y035*
X04335Y03499*
X04334Y03498*
X04334Y03497*
X04333Y03495*
X04333Y03494*
X04332Y03493*
X04332Y03491*
X04332Y0349*
X04332Y03489*
X04332Y03487*
X04332Y03486*
X04332Y03484*
X04333Y03483*
X04333Y03482*
X04334Y0348*
X04334Y03479*
X04335Y03478*
X04336Y03477*
X04336Y03476*
X04337Y03475*
X04338Y03474*
X04339Y03473*
X0434Y03472*
X04342Y03471*
X04343Y03471*
X04344Y0347*
X04345Y0347*
X04347Y03469*
X04348Y03469*
X04349Y03469*
X04351Y03469*
X04352*
X04354Y03469*
X04355Y03469*
X04356Y03469*
X04358Y0347*
X04359Y0347*
X0436Y03471*
X04361Y03471*
X04363Y03472*
X04364Y03473*
X04365Y03474*
X04366Y03475*
X04367Y03476*
X04367Y03477*
X04368Y03478*
X04369Y03479*
X04369Y0348*
X0437Y03482*
X0437Y03483*
X04371Y03484*
X04371Y03486*
X04371Y03487*
X04371Y03489*
X02603Y03363D02*
D01*
X02603Y03369*
X02602Y03376*
X02601Y03383*
X02599Y0339*
X02597Y03396*
X02594Y03403*
X02591Y03409*
X02588Y03415*
X02584Y0342*
X0258Y03426*
X02575Y03431*
X0257Y03436*
X02565Y0344*
X0256Y03444*
X02554Y03448*
X02548Y03451*
X02541Y03454*
X02535Y03456*
X02528Y03458*
X02522Y03459*
X02515Y0346*
X02508Y03461*
X02501*
X02494Y0346*
X02487Y03459*
X02481Y03458*
X02474Y03456*
X02468Y03454*
X02461Y03451*
X02455Y03448*
X02449Y03444*
X02444Y0344*
X02439Y03436*
X02434Y03431*
X02429Y03426*
X02425Y0342*
X02421Y03415*
X02418Y03409*
X02415Y03403*
X02412Y03396*
X0241Y0339*
X02408Y03383*
X02407Y03376*
X02406Y03369*
X02406Y03363*
X02406Y03356*
X02407Y03349*
X02408Y03342*
X0241Y03335*
X02412Y03329*
X02415Y03322*
X02418Y03316*
X02421Y0331*
X02425Y03305*
X02429Y03299*
X02434Y03294*
X02439Y03289*
X02444Y03285*
X02449Y03281*
X02455Y03277*
X02461Y03274*
X02468Y03271*
X02474Y03269*
X02481Y03267*
X02487Y03266*
X02494Y03265*
X02501Y03264*
X02508*
X02515Y03265*
X02522Y03266*
X02528Y03267*
X02535Y03269*
X02541Y03271*
X02548Y03274*
X02554Y03277*
X0256Y03281*
X02565Y03285*
X0257Y03289*
X02575Y03294*
X0258Y03299*
X02584Y03305*
X02588Y0331*
X02591Y03316*
X02594Y03322*
X02597Y03329*
X02599Y03335*
X02601Y03342*
X02602Y03349*
X02603Y03356*
X02603Y03363*
X03913Y03364D02*
D01*
X03913Y0337*
X03912Y03377*
X03911Y03384*
X03909Y03391*
X03907Y03397*
X03904Y03404*
X03901Y0341*
X03898Y03416*
X03894Y03421*
X0389Y03427*
X03885Y03432*
X0388Y03437*
X03875Y03441*
X0387Y03445*
X03864Y03449*
X03858Y03452*
X03851Y03455*
X03845Y03457*
X03838Y03459*
X03832Y0346*
X03825Y03461*
X03818Y03462*
X03811*
X03804Y03461*
X03797Y0346*
X03791Y03459*
X03784Y03457*
X03778Y03455*
X03771Y03452*
X03765Y03449*
X03759Y03445*
X03754Y03441*
X03749Y03437*
X03744Y03432*
X03739Y03427*
X03735Y03421*
X03731Y03416*
X03728Y0341*
X03725Y03404*
X03722Y03397*
X0372Y03391*
X03718Y03384*
X03717Y03377*
X03716Y0337*
X03716Y03364*
X03716Y03357*
X03717Y0335*
X03718Y03343*
X0372Y03336*
X03722Y0333*
X03725Y03323*
X03728Y03317*
X03731Y03311*
X03735Y03306*
X03739Y033*
X03744Y03295*
X03749Y0329*
X03754Y03286*
X03759Y03282*
X03765Y03278*
X03771Y03275*
X03778Y03272*
X03784Y0327*
X03791Y03268*
X03797Y03267*
X03804Y03266*
X03811Y03265*
X03818*
X03825Y03266*
X03832Y03267*
X03838Y03268*
X03845Y0327*
X03851Y03272*
X03858Y03275*
X03864Y03278*
X0387Y03282*
X03875Y03286*
X0388Y0329*
X03885Y03295*
X0389Y033*
X03894Y03306*
X03898Y03311*
X03901Y03317*
X03904Y03323*
X03907Y0333*
X03909Y03336*
X03911Y03343*
X03912Y0335*
X03913Y03357*
X03913Y03364*
X03072Y03563D02*
D01*
X03072Y03564*
X03072Y03565*
X03072Y03565*
X03072Y03566*
X03072Y03567*
X03071Y03567*
X03071Y03568*
X03071Y03568*
X0307Y03569*
X0307Y0357*
X0307Y0357*
X03069Y03571*
X03069Y03571*
X03068Y03571*
X03067Y03572*
X03067Y03572*
X03066Y03572*
X03066Y03573*
X03065Y03573*
X03064Y03573*
X03064Y03573*
X03063Y03573*
X03062*
X03061Y03573*
X03061Y03573*
X0306Y03573*
X03059Y03573*
X03059Y03572*
X03058Y03572*
X03058Y03572*
X03057Y03571*
X03056Y03571*
X03056Y03571*
X03055Y0357*
X03055Y0357*
X03055Y03569*
X03054Y03568*
X03054Y03568*
X03054Y03567*
X03053Y03567*
X03053Y03566*
X03053Y03565*
X03053Y03565*
X03053Y03564*
X03053Y03563*
X03053Y03563*
X03053Y03562*
X03053Y03561*
X03053Y03561*
X03053Y0356*
X03054Y03559*
X03054Y03559*
X03054Y03558*
X03055Y03558*
X03055Y03557*
X03055Y03556*
X03056Y03556*
X03056Y03556*
X03057Y03555*
X03058Y03555*
X03058Y03554*
X03059Y03554*
X03059Y03554*
X0306Y03554*
X03061Y03554*
X03061Y03554*
X03062Y03554*
X03063*
X03064Y03554*
X03064Y03554*
X03065Y03554*
X03066Y03554*
X03066Y03554*
X03067Y03554*
X03067Y03555*
X03068Y03555*
X03069Y03556*
X03069Y03556*
X0307Y03556*
X0307Y03557*
X0307Y03558*
X03071Y03558*
X03071Y03559*
X03071Y03559*
X03072Y0356*
X03072Y03561*
X03072Y03561*
X03072Y03562*
X03072Y03563*
X03072Y03563*
X03034Y03319D02*
D01*
X03034Y03322*
X03033Y03324*
X03033Y03327*
X03032Y03329*
X03032Y03332*
X03031Y03334*
X0303Y03336*
X03028Y03339*
X03027Y03341*
X03025Y03343*
X03024Y03345*
X03022Y03346*
X0302Y03348*
X03018Y0335*
X03016Y03351*
X03013Y03352*
X03011Y03353*
X03009Y03354*
X03006Y03355*
X03004Y03355*
X03001Y03356*
X02999Y03356*
X02996*
X02994Y03356*
X02991Y03355*
X02989Y03355*
X02986Y03354*
X02984Y03353*
X02981Y03352*
X02979Y03351*
X02977Y0335*
X02975Y03348*
X02973Y03346*
X02971Y03345*
X0297Y03343*
X02968Y03341*
X02967Y03339*
X02965Y03336*
X02964Y03334*
X02963Y03332*
X02962Y03329*
X02962Y03327*
X02961Y03324*
X02961Y03322*
X02961Y03319*
X02961Y03317*
X02961Y03314*
X02962Y03312*
X02962Y03309*
X02963Y03307*
X02964Y03305*
X02965Y03302*
X02967Y033*
X02968Y03298*
X0297Y03296*
X02971Y03294*
X02973Y03292*
X02975Y03291*
X02977Y03289*
X02979Y03288*
X02981Y03287*
X02984Y03286*
X02986Y03285*
X02989Y03284*
X02991Y03284*
X02994Y03283*
X02996Y03283*
X02999*
X03001Y03283*
X03004Y03284*
X03006Y03284*
X03009Y03285*
X03011Y03286*
X03013Y03287*
X03016Y03288*
X03018Y03289*
X0302Y03291*
X03022Y03292*
X03024Y03294*
X03025Y03296*
X03027Y03298*
X03028Y033*
X0303Y03302*
X03031Y03305*
X03032Y03307*
X03032Y03309*
X03033Y03312*
X03033Y03314*
X03034Y03317*
X03034Y03319*
X02109Y03139D02*
X02624D01*
X02627Y03551D02*
Y0372D01*
Y03551D02*
X02884D01*
X02627Y03007D02*
Y03551D01*
X03777Y03008D02*
Y03233D01*
X03776Y03494D02*
Y03719D01*
X02176Y03721D02*
X0376D01*
X02175Y03007D02*
X03769D01*
X03759Y03721D02*
X04418D01*
X03768Y03007D02*
X04417D01*
X04418D02*
Y03721D01*
X02115Y03269D02*
Y0345D01*
X04259Y03172D02*
X04303D01*
X0426Y03245D02*
X04304D01*
X04327Y03196D02*
Y0322D01*
X0424Y032D02*
Y03215D01*
X04254Y03167D02*
X04259Y03172D01*
X04227Y03167D02*
X04254D01*
X04303Y03172D02*
X04308Y03167D01*
X04336*
X04255Y0325D02*
X0426Y03245D01*
X04228Y0325D02*
X04255D01*
X04304Y03245D02*
X04309Y0325D01*
X04336*
X04327Y03196D02*
X04336Y03187D01*
Y03167D02*
Y03187D01*
X04327Y0322D02*
X04336Y03229D01*
Y0325*
X04227Y03187D02*
X0424Y032D01*
X04227Y03167D02*
Y03187D01*
Y03228D02*
X0424Y03215D01*
X04227Y03228D02*
Y03249D01*
X02204Y03105D02*
X02576D01*
X02204Y03034D02*
Y03105D01*
Y03034D02*
X02576D01*
Y03105*
X03033Y03089D02*
X03116D01*
X03033Y03026D02*
X03116D01*
X03046Y03268D02*
X03049Y03271D01*
X02949Y03268D02*
X03046D01*
X02946Y03271D02*
X02949Y03268D01*
X03049Y03271D02*
Y03368D01*
X03046Y03371D02*
X03049Y03368D01*
X02946Y03271D02*
Y03368D01*
X02949Y03371*
X03046*
X03469Y03202D02*
Y03176D01*
X03474Y03171*
X03484*
X0349Y03176*
Y03202*
X035Y03171D02*
X03511D01*
X03505*
Y03202*
X035Y03197*
G54D48*
X03212Y03563D02*
D01*
X03212Y03574*
X03211Y03584*
X03209Y03594*
X03206Y03605*
X03203Y03614*
X03199Y03624*
X03195Y03634*
X03189Y03643*
X03184Y03651*
X03177Y03659*
X0317Y03667*
X03163Y03674*
X03155Y03681*
X03146Y03687*
X03137Y03693*
X03128Y03698*
X03119Y03702*
X03109Y03706*
X03099Y03708*
X03088Y03711*
X03078Y03712*
X03068Y03713*
X03057*
X03047Y03712*
X03037Y03711*
X03026Y03708*
X03016Y03706*
X03006Y03702*
X02997Y03698*
X02988Y03693*
X02979Y03687*
X0297Y03681*
X02962Y03674*
X02955Y03667*
X02948Y03659*
X02941Y03651*
X02936Y03643*
X0293Y03634*
X02926Y03624*
X02922Y03614*
X02919Y03605*
X02916Y03594*
X02914Y03584*
X02913Y03574*
X02913Y03563*
X02913Y03553*
X02914Y03542*
X02916Y03532*
X02919Y03522*
X02922Y03512*
X02926Y03502*
X0293Y03493*
X02936Y03484*
X02941Y03475*
X02948Y03467*
X02955Y03459*
X02962Y03452*
X0297Y03445*
X02979Y03439*
X02988Y03434*
X02997Y03429*
X03006Y03425*
X03016Y03421*
X03026Y03418*
X03037Y03416*
X03047Y03415*
X03057Y03414*
X03068*
X03078Y03415*
X03088Y03416*
X03099Y03418*
X03109Y03421*
X03119Y03425*
X03128Y03429*
X03137Y03434*
X03146Y03439*
X03155Y03445*
X03163Y03452*
X0317Y03459*
X03177Y03467*
X03184Y03475*
X03189Y03484*
X03195Y03493*
X03199Y03502*
X03203Y03512*
X03206Y03522*
X03209Y03532*
X03211Y03542*
X03212Y03553*
X03212Y03563*
X0348Y03437D02*
Y03457D01*
X0346D02*
X0348D01*
X03243D02*
X03263D01*
X03243Y03437D02*
Y03457D01*
Y0322D02*
Y0324D01*
Y0322D02*
X03263D01*
X0346D02*
X0348Y0324D01*
X02265Y03263D02*
Y033D01*
Y03418D02*
Y03456D01*
X02233Y03263D02*
X02265D01*
X02233Y03456D02*
X02265D01*
X02387Y03588D02*
X0245D01*
X02387Y03462D02*
X0245D01*
X02387D02*
Y03588D01*
X0245Y03462D02*
Y03588D01*
X03658Y03234D02*
Y03281D01*
X03599Y03234D02*
Y03281D01*
X03421Y03119D02*
Y03126D01*
X03444Y03119D02*
Y03126D01*
G54D51*
X04383Y03649D02*
D01*
X04383Y03651*
X04383Y03654*
X04382Y03657*
X04381Y03659*
X04381Y03662*
X04379Y03665*
X04378Y03667*
X04377Y03669*
X04375Y03672*
X04374Y03674*
X04372Y03676*
X0437Y03678*
X04368Y0368*
X04366Y03681*
X04363Y03683*
X04361Y03684*
X04358Y03685*
X04356Y03686*
X04353Y03687*
X0435Y03687*
X04348Y03688*
X04345Y03688*
X04342*
X04339Y03688*
X04337Y03687*
X04334Y03687*
X04331Y03686*
X04329Y03685*
X04326Y03684*
X04324Y03683*
X04321Y03681*
X04319Y0368*
X04317Y03678*
X04315Y03676*
X04313Y03674*
X04312Y03672*
X0431Y03669*
X04309Y03667*
X04308Y03665*
X04306Y03662*
X04306Y03659*
X04305Y03657*
X04304Y03654*
X04304Y03651*
X04304Y03649*
X04304Y03646*
X04304Y03643*
X04305Y0364*
X04306Y03638*
X04306Y03635*
X04308Y03632*
X04309Y0363*
X0431Y03628*
X04312Y03625*
X04313Y03623*
X04315Y03621*
X04317Y03619*
X04319Y03617*
X04321Y03616*
X04324Y03614*
X04326Y03613*
X04329Y03612*
X04331Y03611*
X04334Y0361*
X04337Y0361*
X04339Y03609*
X04342Y03609*
X04345*
X04348Y03609*
X0435Y0361*
X04353Y0361*
X04356Y03611*
X04358Y03612*
X04361Y03613*
X04363Y03614*
X04366Y03616*
X04368Y03617*
X0437Y03619*
X04372Y03621*
X04374Y03623*
X04375Y03625*
X04377Y03628*
X04378Y0363*
X04379Y03632*
X04381Y03635*
X04381Y03638*
X04382Y0364*
X04383Y03643*
X04383Y03646*
X04383Y03649*
X04317Y03079D02*
D01*
X04317Y03081*
X04317Y03084*
X04316Y03087*
X04315Y03089*
X04315Y03092*
X04313Y03095*
X04312Y03097*
X04311Y03099*
X04309Y03102*
X04308Y03104*
X04306Y03106*
X04304Y03108*
X04302Y0311*
X043Y03111*
X04297Y03113*
X04295Y03114*
X04292Y03115*
X0429Y03116*
X04287Y03117*
X04284Y03117*
X04282Y03118*
X04279Y03118*
X04276*
X04273Y03118*
X04271Y03117*
X04268Y03117*
X04265Y03116*
X04263Y03115*
X0426Y03114*
X04258Y03113*
X04255Y03111*
X04253Y0311*
X04251Y03108*
X04249Y03106*
X04247Y03104*
X04246Y03102*
X04244Y03099*
X04243Y03097*
X04242Y03095*
X0424Y03092*
X0424Y03089*
X04239Y03087*
X04238Y03084*
X04238Y03081*
X04238Y03079*
X04238Y03076*
X04238Y03073*
X04239Y0307*
X0424Y03068*
X0424Y03065*
X04242Y03062*
X04243Y0306*
X04244Y03058*
X04246Y03055*
X04247Y03053*
X04249Y03051*
X04251Y03049*
X04253Y03047*
X04255Y03046*
X04258Y03044*
X0426Y03043*
X04263Y03042*
X04265Y03041*
X04268Y0304*
X04271Y0304*
X04273Y03039*
X04276Y03039*
X04279*
X04282Y03039*
X04284Y0304*
X04287Y0304*
X0429Y03041*
X04292Y03042*
X04295Y03043*
X04297Y03044*
X043Y03046*
X04302Y03047*
X04304Y03049*
X04306Y03051*
X04308Y03053*
X04309Y03055*
X04311Y03058*
X04312Y0306*
X04313Y03062*
X04315Y03065*
X04315Y03068*
X04316Y0307*
X04317Y03073*
X04317Y03076*
X04317Y03079*
X03867Y03659D02*
D01*
X03867Y03661*
X03867Y03664*
X03866Y03667*
X03865Y03669*
X03865Y03672*
X03863Y03675*
X03862Y03677*
X03861Y03679*
X03859Y03682*
X03858Y03684*
X03856Y03686*
X03854Y03688*
X03852Y0369*
X0385Y03691*
X03847Y03693*
X03845Y03694*
X03842Y03695*
X0384Y03696*
X03837Y03697*
X03834Y03697*
X03832Y03698*
X03829Y03698*
X03826*
X03823Y03698*
X03821Y03697*
X03818Y03697*
X03815Y03696*
X03813Y03695*
X0381Y03694*
X03808Y03693*
X03805Y03691*
X03803Y0369*
X03801Y03688*
X03799Y03686*
X03797Y03684*
X03796Y03682*
X03794Y03679*
X03793Y03677*
X03792Y03675*
X0379Y03672*
X0379Y03669*
X03789Y03667*
X03788Y03664*
X03788Y03661*
X03788Y03659*
X03788Y03656*
X03788Y03653*
X03789Y0365*
X0379Y03648*
X0379Y03645*
X03792Y03642*
X03793Y0364*
X03794Y03638*
X03796Y03635*
X03797Y03633*
X03799Y03631*
X03801Y03629*
X03803Y03627*
X03805Y03626*
X03808Y03624*
X0381Y03623*
X03813Y03622*
X03815Y03621*
X03818Y0362*
X03821Y0362*
X03823Y03619*
X03826Y03619*
X03829*
X03832Y03619*
X03834Y0362*
X03837Y0362*
X0384Y03621*
X03842Y03622*
X03845Y03623*
X03847Y03624*
X0385Y03626*
X03852Y03627*
X03854Y03629*
X03856Y03631*
X03858Y03633*
X03859Y03635*
X03861Y03638*
X03862Y0364*
X03863Y03642*
X03865Y03645*
X03865Y03648*
X03866Y0365*
X03867Y03653*
X03867Y03656*
X03867Y03659*
X03965Y0366D02*
D01*
X03965Y03662*
X03965Y03665*
X03964Y03668*
X03963Y0367*
X03963Y03673*
X03961Y03676*
X0396Y03678*
X03959Y0368*
X03957Y03683*
X03956Y03685*
X03954Y03687*
X03952Y03689*
X0395Y03691*
X03948Y03692*
X03945Y03694*
X03943Y03695*
X0394Y03696*
X03938Y03697*
X03935Y03698*
X03932Y03698*
X0393Y03699*
X03927Y03699*
X03924*
X03921Y03699*
X03919Y03698*
X03916Y03698*
X03913Y03697*
X03911Y03696*
X03908Y03695*
X03906Y03694*
X03903Y03692*
X03901Y03691*
X03899Y03689*
X03897Y03687*
X03895Y03685*
X03894Y03683*
X03892Y0368*
X03891Y03678*
X0389Y03676*
X03888Y03673*
X03888Y0367*
X03887Y03668*
X03886Y03665*
X03886Y03662*
X03886Y0366*
X03886Y03657*
X03886Y03654*
X03887Y03651*
X03888Y03649*
X03888Y03646*
X0389Y03643*
X03891Y03641*
X03892Y03639*
X03894Y03636*
X03895Y03634*
X03897Y03632*
X03899Y0363*
X03901Y03628*
X03903Y03627*
X03906Y03625*
X03908Y03624*
X03911Y03623*
X03913Y03622*
X03916Y03621*
X03919Y03621*
X03921Y0362*
X03924Y0362*
X03927*
X0393Y0362*
X03932Y03621*
X03935Y03621*
X03938Y03622*
X0394Y03623*
X03943Y03624*
X03945Y03625*
X03948Y03627*
X0395Y03628*
X03952Y0363*
X03954Y03632*
X03956Y03634*
X03957Y03636*
X03959Y03639*
X0396Y03641*
X03961Y03643*
X03963Y03646*
X03963Y03649*
X03964Y03651*
X03965Y03654*
X03965Y03657*
X03965Y0366*
X04062D02*
D01*
X04062Y03662*
X04062Y03665*
X04061Y03668*
X0406Y0367*
X0406Y03673*
X04058Y03676*
X04057Y03678*
X04056Y0368*
X04054Y03683*
X04053Y03685*
X04051Y03687*
X04049Y03689*
X04047Y03691*
X04045Y03692*
X04042Y03694*
X0404Y03695*
X04037Y03696*
X04035Y03697*
X04032Y03698*
X04029Y03698*
X04027Y03699*
X04024Y03699*
X04021*
X04018Y03699*
X04016Y03698*
X04013Y03698*
X0401Y03697*
X04008Y03696*
X04005Y03695*
X04003Y03694*
X04Y03692*
X03998Y03691*
X03996Y03689*
X03994Y03687*
X03992Y03685*
X03991Y03683*
X03989Y0368*
X03988Y03678*
X03987Y03676*
X03985Y03673*
X03985Y0367*
X03984Y03668*
X03983Y03665*
X03983Y03662*
X03983Y0366*
X03983Y03657*
X03983Y03654*
X03984Y03651*
X03985Y03649*
X03985Y03646*
X03987Y03643*
X03988Y03641*
X03989Y03639*
X03991Y03636*
X03992Y03634*
X03994Y03632*
X03996Y0363*
X03998Y03628*
X04Y03627*
X04003Y03625*
X04005Y03624*
X04008Y03623*
X0401Y03622*
X04013Y03621*
X04016Y03621*
X04018Y0362*
X04021Y0362*
X04024*
X04027Y0362*
X04029Y03621*
X04032Y03621*
X04035Y03622*
X04037Y03623*
X0404Y03624*
X04042Y03625*
X04045Y03627*
X04047Y03628*
X04049Y0363*
X04051Y03632*
X04053Y03634*
X04054Y03636*
X04056Y03639*
X04057Y03641*
X04058Y03643*
X0406Y03646*
X0406Y03649*
X04061Y03651*
X04062Y03654*
X04062Y03657*
X04062Y0366*
X03867Y03068D02*
D01*
X03867Y0307*
X03867Y03073*
X03866Y03076*
X03865Y03078*
X03865Y03081*
X03863Y03084*
X03862Y03086*
X03861Y03088*
X03859Y03091*
X03858Y03093*
X03856Y03095*
X03854Y03097*
X03852Y03099*
X0385Y031*
X03847Y03102*
X03845Y03103*
X03842Y03104*
X0384Y03105*
X03837Y03106*
X03834Y03106*
X03832Y03107*
X03829Y03107*
X03826*
X03823Y03107*
X03821Y03106*
X03818Y03106*
X03815Y03105*
X03813Y03104*
X0381Y03103*
X03808Y03102*
X03805Y031*
X03803Y03099*
X03801Y03097*
X03799Y03095*
X03797Y03093*
X03796Y03091*
X03794Y03088*
X03793Y03086*
X03792Y03084*
X0379Y03081*
X0379Y03078*
X03789Y03076*
X03788Y03073*
X03788Y0307*
X03788Y03068*
X03788Y03065*
X03788Y03062*
X03789Y03059*
X0379Y03057*
X0379Y03054*
X03792Y03051*
X03793Y03049*
X03794Y03047*
X03796Y03044*
X03797Y03042*
X03799Y0304*
X03801Y03038*
X03803Y03036*
X03805Y03035*
X03808Y03033*
X0381Y03032*
X03813Y03031*
X03815Y0303*
X03818Y03029*
X03821Y03029*
X03823Y03028*
X03826Y03028*
X03829*
X03832Y03028*
X03834Y03029*
X03837Y03029*
X0384Y0303*
X03842Y03031*
X03845Y03032*
X03847Y03033*
X0385Y03035*
X03852Y03036*
X03854Y03038*
X03856Y0304*
X03858Y03042*
X03859Y03044*
X03861Y03047*
X03862Y03049*
X03863Y03051*
X03865Y03054*
X03865Y03057*
X03866Y03059*
X03867Y03062*
X03867Y03065*
X03867Y03068*
X04065D02*
D01*
X04065Y0307*
X04065Y03073*
X04064Y03076*
X04063Y03078*
X04063Y03081*
X04061Y03084*
X0406Y03086*
X04059Y03088*
X04057Y03091*
X04056Y03093*
X04054Y03095*
X04052Y03097*
X0405Y03099*
X04048Y031*
X04045Y03102*
X04043Y03103*
X0404Y03104*
X04038Y03105*
X04035Y03106*
X04032Y03106*
X0403Y03107*
X04027Y03107*
X04024*
X04021Y03107*
X04019Y03106*
X04016Y03106*
X04013Y03105*
X04011Y03104*
X04008Y03103*
X04006Y03102*
X04003Y031*
X04001Y03099*
X03999Y03097*
X03997Y03095*
X03995Y03093*
X03994Y03091*
X03992Y03088*
X03991Y03086*
X0399Y03084*
X03988Y03081*
X03988Y03078*
X03987Y03076*
X03986Y03073*
X03986Y0307*
X03986Y03068*
X03986Y03065*
X03986Y03062*
X03987Y03059*
X03988Y03057*
X03988Y03054*
X0399Y03051*
X03991Y03049*
X03992Y03047*
X03994Y03044*
X03995Y03042*
X03997Y0304*
X03999Y03038*
X04001Y03036*
X04003Y03035*
X04006Y03033*
X04008Y03032*
X04011Y03031*
X04013Y0303*
X04016Y03029*
X04019Y03029*
X04021Y03028*
X04024Y03028*
X04027*
X0403Y03028*
X04032Y03029*
X04035Y03029*
X04038Y0303*
X0404Y03031*
X04043Y03032*
X04045Y03033*
X04048Y03035*
X0405Y03036*
X04052Y03038*
X04054Y0304*
X04056Y03042*
X04057Y03044*
X04059Y03047*
X0406Y03049*
X04061Y03051*
X04063Y03054*
X04063Y03057*
X04064Y03059*
X04065Y03062*
X04065Y03065*
X04065Y03068*
X03966D02*
D01*
X03966Y0307*
X03966Y03073*
X03965Y03076*
X03964Y03078*
X03964Y03081*
X03962Y03084*
X03961Y03086*
X0396Y03088*
X03958Y03091*
X03957Y03093*
X03955Y03095*
X03953Y03097*
X03951Y03099*
X03949Y031*
X03946Y03102*
X03944Y03103*
X03941Y03104*
X03939Y03105*
X03936Y03106*
X03933Y03106*
X03931Y03107*
X03928Y03107*
X03925*
X03922Y03107*
X0392Y03106*
X03917Y03106*
X03914Y03105*
X03912Y03104*
X03909Y03103*
X03907Y03102*
X03904Y031*
X03902Y03099*
X039Y03097*
X03898Y03095*
X03896Y03093*
X03895Y03091*
X03893Y03088*
X03892Y03086*
X03891Y03084*
X03889Y03081*
X03889Y03078*
X03888Y03076*
X03887Y03073*
X03887Y0307*
X03887Y03068*
X03887Y03065*
X03887Y03062*
X03888Y03059*
X03889Y03057*
X03889Y03054*
X03891Y03051*
X03892Y03049*
X03893Y03047*
X03895Y03044*
X03896Y03042*
X03898Y0304*
X039Y03038*
X03902Y03036*
X03904Y03035*
X03907Y03033*
X03909Y03032*
X03912Y03031*
X03914Y0303*
X03917Y03029*
X0392Y03029*
X03922Y03028*
X03925Y03028*
X03928*
X03931Y03028*
X03933Y03029*
X03936Y03029*
X03939Y0303*
X03941Y03031*
X03944Y03032*
X03946Y03033*
X03949Y03035*
X03951Y03036*
X03953Y03038*
X03955Y0304*
X03957Y03042*
X03958Y03044*
X0396Y03047*
X03961Y03049*
X03962Y03051*
X03964Y03054*
X03964Y03057*
X03965Y03059*
X03966Y03062*
X03966Y03065*
X03966Y03068*
X04417Y03159D02*
X0473D01*
Y03563*
X04595Y03295D02*
X0473D01*
X04595D02*
Y03429D01*
X0473*
X04417Y03159D02*
Y03563D01*
X0473*
X02151Y03643D02*
X02195D01*
X02643Y03646D02*
Y0369D01*
G54D97*
X04526Y03479D02*
D01*
X04526Y03479*
X04526Y0348*
X04526Y0348*
X04526Y0348*
X04526Y03481*
X04526Y03481*
X04526Y03481*
X04526Y03482*
X04525Y03482*
X04525Y03482*
X04525Y03483*
X04525Y03483*
X04525Y03483*
X04524Y03483*
X04524Y03483*
X04524Y03484*
X04523Y03484*
X04523Y03484*
X04523Y03484*
X04522Y03484*
X04522Y03484*
X04522Y03484*
X04521*
X04521Y03484*
X04521Y03484*
X0452Y03484*
X0452Y03484*
X0452Y03484*
X04519Y03484*
X04519Y03483*
X04519Y03483*
X04518Y03483*
X04518Y03483*
X04518Y03483*
X04518Y03482*
X04518Y03482*
X04517Y03482*
X04517Y03481*
X04517Y03481*
X04517Y03481*
X04517Y0348*
X04517Y0348*
X04517Y0348*
X04517Y03479*
X04517Y03479*
X04517Y03479*
X04517Y03478*
X04517Y03478*
X04517Y03478*
X04517Y03477*
X04517Y03477*
X04517Y03477*
X04517Y03477*
X04518Y03476*
X04518Y03476*
X04518Y03476*
X04518Y03475*
X04518Y03475*
X04519Y03475*
X04519Y03475*
X04519Y03475*
X0452Y03475*
X0452Y03474*
X0452Y03474*
X04521Y03474*
X04521Y03474*
X04521Y03474*
X04522*
X04522Y03474*
X04522Y03474*
X04523Y03474*
X04523Y03474*
X04523Y03475*
X04524Y03475*
X04524Y03475*
X04524Y03475*
X04525Y03475*
X04525Y03475*
X04525Y03476*
X04525Y03476*
X04525Y03476*
X04526Y03477*
X04526Y03477*
X04526Y03477*
X04526Y03477*
X04526Y03478*
X04526Y03478*
X04526Y03478*
X04526Y03479*
X04526Y03479*
X0352Y03252D02*
D01*
X0352Y03252*
X0352Y03253*
X0352Y03253*
X0352Y03253*
X0352Y03254*
X0352Y03254*
X03519Y03254*
X03519Y03254*
X03519Y03255*
X03519Y03255*
X03519Y03255*
X03518Y03256*
X03518Y03256*
X03518Y03256*
X03518Y03256*
X03517Y03256*
X03517Y03256*
X03517Y03257*
X03516Y03257*
X03516Y03257*
X03516Y03257*
X03515Y03257*
X03515*
X03515Y03257*
X03514Y03257*
X03514Y03257*
X03514Y03257*
X03513Y03256*
X03513Y03256*
X03513Y03256*
X03512Y03256*
X03512Y03256*
X03512Y03256*
X03512Y03255*
X03511Y03255*
X03511Y03255*
X03511Y03254*
X03511Y03254*
X03511Y03254*
X0351Y03254*
X0351Y03253*
X0351Y03253*
X0351Y03253*
X0351Y03252*
X0351Y03252*
X0351Y03252*
X0351Y03251*
X0351Y03251*
X0351Y03251*
X0351Y0325*
X03511Y0325*
X03511Y0325*
X03511Y03249*
X03511Y03249*
X03511Y03249*
X03512Y03248*
X03512Y03248*
X03512Y03248*
X03512Y03248*
X03513Y03248*
X03513Y03247*
X03513Y03247*
X03514Y03247*
X03514Y03247*
X03514Y03247*
X03515Y03247*
X03515Y03247*
X03515*
X03516Y03247*
X03516Y03247*
X03516Y03247*
X03517Y03247*
X03517Y03247*
X03517Y03247*
X03518Y03248*
X03518Y03248*
X03518Y03248*
X03518Y03248*
X03519Y03248*
X03519Y03249*
X03519Y03249*
X03519Y03249*
X03519Y0325*
X0352Y0325*
X0352Y0325*
X0352Y03251*
X0352Y03251*
X0352Y03251*
X0352Y03252*
X0352Y03252*
X02477Y03469D02*
D01*
X02477Y03469*
X02477Y03469*
X02477Y0347*
X02477Y0347*
X02477Y0347*
X02477Y0347*
X02477Y03471*
X02477Y03471*
X02476Y03471*
X02476Y03472*
X02476Y03472*
X02476Y03472*
X02476Y03472*
X02475Y03473*
X02475Y03473*
X02475Y03473*
X02474Y03473*
X02474Y03473*
X02474Y03473*
X02473Y03473*
X02473Y03473*
X02473Y03473*
X02472*
X02472Y03473*
X02472Y03473*
X02471Y03473*
X02471Y03473*
X02471Y03473*
X0247Y03473*
X0247Y03473*
X0247Y03473*
X02469Y03472*
X02469Y03472*
X02469Y03472*
X02469Y03472*
X02469Y03471*
X02468Y03471*
X02468Y03471*
X02468Y0347*
X02468Y0347*
X02468Y0347*
X02468Y0347*
X02468Y03469*
X02468Y03469*
X02468Y03469*
X02468Y03468*
X02468Y03468*
X02468Y03467*
X02468Y03467*
X02468Y03467*
X02468Y03467*
X02468Y03466*
X02468Y03466*
X02469Y03466*
X02469Y03465*
X02469Y03465*
X02469Y03465*
X02469Y03465*
X0247Y03464*
X0247Y03464*
X0247Y03464*
X02471Y03464*
X02471Y03464*
X02471Y03464*
X02472Y03464*
X02472Y03464*
X02472Y03464*
X02473*
X02473Y03464*
X02473Y03464*
X02474Y03464*
X02474Y03464*
X02474Y03464*
X02475Y03464*
X02475Y03464*
X02475Y03464*
X02476Y03465*
X02476Y03465*
X02476Y03465*
X02476Y03465*
X02476Y03466*
X02477Y03466*
X02477Y03466*
X02477Y03467*
X02477Y03467*
X02477Y03467*
X02477Y03467*
X02477Y03468*
X02477Y03468*
X02477Y03469*
X03201Y03225D02*
D01*
X03201Y03226*
X03201Y03226*
X03201Y03226*
X03201Y03227*
X032Y03227*
X032Y03227*
X032Y03228*
X032Y03228*
X032Y03228*
X032Y03228*
X03199Y03229*
X03199Y03229*
X03199Y03229*
X03199Y03229*
X03198Y0323*
X03198Y0323*
X03198Y0323*
X03197Y0323*
X03197Y0323*
X03197Y0323*
X03196Y0323*
X03196Y0323*
X03196*
X03195Y0323*
X03195Y0323*
X03195Y0323*
X03194Y0323*
X03194Y0323*
X03194Y0323*
X03193Y0323*
X03193Y03229*
X03193Y03229*
X03193Y03229*
X03192Y03229*
X03192Y03228*
X03192Y03228*
X03192Y03228*
X03191Y03228*
X03191Y03227*
X03191Y03227*
X03191Y03227*
X03191Y03226*
X03191Y03226*
X03191Y03226*
X03191Y03225*
X03191Y03225*
X03191Y03225*
X03191Y03224*
X03191Y03224*
X03191Y03224*
X03191Y03223*
X03191Y03223*
X03192Y03223*
X03192Y03222*
X03192Y03222*
X03192Y03222*
X03193Y03222*
X03193Y03221*
X03193Y03221*
X03193Y03221*
X03194Y03221*
X03194Y03221*
X03194Y03221*
X03195Y03221*
X03195Y0322*
X03195Y0322*
X03196Y0322*
X03196*
X03196Y0322*
X03197Y0322*
X03197Y03221*
X03197Y03221*
X03198Y03221*
X03198Y03221*
X03198Y03221*
X03199Y03221*
X03199Y03221*
X03199Y03222*
X03199Y03222*
X032Y03222*
X032Y03222*
X032Y03223*
X032Y03223*
X032Y03223*
X032Y03224*
X03201Y03224*
X03201Y03224*
X03201Y03225*
X03201Y03225*
X03201Y03225*
G54D98*
X03086Y03694D02*
D01*
X03086Y03695*
X03086Y03697*
X03086Y03698*
X03085Y03699*
X03085Y03701*
X03084Y03702*
X03084Y03704*
X03083Y03705*
X03082Y03706*
X03081Y03707*
X0308Y03708*
X03079Y03709*
X03078Y0371*
X03077Y03711*
X03076Y03712*
X03074Y03713*
X03073Y03713*
X03071Y03714*
X0307Y03714*
X03069Y03714*
X03067Y03715*
X03066Y03715*
X03064*
X03063Y03715*
X03061Y03714*
X0306Y03714*
X03058Y03714*
X03057Y03713*
X03056Y03713*
X03054Y03712*
X03053Y03711*
X03052Y0371*
X03051Y03709*
X0305Y03708*
X03049Y03707*
X03048Y03706*
X03047Y03705*
X03046Y03704*
X03046Y03702*
X03045Y03701*
X03045Y03699*
X03044Y03698*
X03044Y03697*
X03044Y03695*
X03044Y03694*
X03044Y03692*
X03044Y03691*
X03044Y03689*
X03045Y03688*
X03045Y03686*
X03046Y03685*
X03046Y03684*
X03047Y03682*
X03048Y03681*
X03049Y0368*
X0305Y03679*
X03051Y03678*
X03052Y03677*
X03053Y03676*
X03054Y03675*
X03056Y03675*
X03057Y03674*
X03058Y03673*
X0306Y03673*
X03061Y03673*
X03063Y03673*
X03064Y03672*
X03066*
X03067Y03673*
X03069Y03673*
X0307Y03673*
X03071Y03673*
X03073Y03674*
X03074Y03675*
X03076Y03675*
X03077Y03676*
X03078Y03677*
X03079Y03678*
X0308Y03679*
X03081Y0368*
X03082Y03681*
X03083Y03682*
X03084Y03684*
X03084Y03685*
X03085Y03686*
X03085Y03688*
X03086Y03689*
X03086Y03691*
X03086Y03692*
X03086Y03694*
X03248Y03156D02*
X03291D01*
X03248D02*
Y03185D01*
X03291*
Y03156D02*
Y03185D01*
X02142Y03507D02*
Y03636D01*
X02203Y03506D02*
Y03635D01*
X0225Y03616D02*
X02368D01*
X0225D02*
Y03688D01*
X0225Y03688*
X02368*
Y03616D02*
Y03688D01*
X02502Y03601D02*
X02545D01*
X02502D02*
Y0363D01*
X02545*
Y03601D02*
Y0363D01*
X02451D02*
X02494D01*
Y03601D02*
Y0363D01*
X02451Y03601D02*
X02494D01*
X02451D02*
Y0363D01*
X0229Y03533D02*
Y03576D01*
X02261Y03533D02*
X0229D01*
X02261D02*
Y03576D01*
X0229*
X04364Y03275D02*
Y03318D01*
X04335Y03275D02*
X04364D01*
X04335D02*
Y03318D01*
X04364*
X04295Y03288D02*
Y03331D01*
X04324*
Y03288D02*
Y03331D01*
X04295Y03288D02*
X04324D01*
X04279Y03361D02*
X04322D01*
X04279D02*
Y0339D01*
X04322*
Y03361D02*
Y0339D01*
X04225Y03423D02*
Y03466D01*
X04254*
Y03423D02*
Y03466D01*
X04225Y03423D02*
X04254D01*
X04268Y0342D02*
X04311D01*
X04268D02*
Y03449D01*
X04311*
Y0342D02*
Y03449D01*
X04261Y03187D02*
X04304D01*
X04261D02*
Y03216D01*
X04304*
Y03187D02*
Y03216D01*
X03048Y03694D02*
X03081D01*
X03064Y03677D02*
Y0371D01*
X0265Y03637D02*
X0278D01*
X02651Y03698D02*
X02781D01*
X02886Y0359D02*
Y03664D01*
X02819Y0359D02*
X02886D01*
X02819D02*
Y03664D01*
X02886*
X02833Y03584D02*
X02876D01*
Y03555D02*
Y03584D01*
X02833Y03555D02*
X02876D01*
X02833D02*
Y03584D01*
X04093Y03048D02*
Y0313D01*
X04203Y03048D02*
Y0313D01*
X04093Y03048D02*
X04203D01*
X04093Y0313D02*
X04203D01*
X04092Y03603D02*
Y03685D01*
X04202Y03603D02*
Y03685D01*
X04092Y03603D02*
X04202D01*
X04092Y03685D02*
X04202D01*
X03093Y03251D02*
X03187D01*
X03093Y03202D02*
Y03251D01*
X03187Y03202D02*
Y03251D01*
X03093Y03202D02*
X03187D01*
X04499Y03348D02*
X04496Y03344D01*
Y03338*
X04499Y03335*
X04512*
X04516Y03338*
Y03344*
X04512Y03348*
X04496Y03364D02*
Y03358D01*
X04499Y03354*
X04512*
X04516Y03358*
Y03364*
X04512Y03367*
X04499*
X04496Y03364*
X04516Y03374D02*
X04496D01*
X04516Y03387*
X04496*
X04516Y03394D02*
Y034D01*
Y03397*
X04496*
X04499Y03394*
X03044Y03051D02*
Y03064D01*
X0305Y0307*
X03057Y03064*
Y03051*
Y0306*
X03044*
X03063Y03051D02*
Y0307D01*
X03076Y03051*
Y0307*
X03083D02*
X03096D01*
X03089*
Y03051*
X03103D02*
X03109D01*
X03106*
Y0307*
X03103Y03067*
X02961Y03311D02*
Y03324D01*
X02967Y0333*
X02974Y03324*
Y03311*
Y0332*
X02961*
X0298Y03311D02*
Y0333D01*
X02993Y03311*
Y0333*
X03D02*
X03013D01*
X03006*
Y03311*
X03033D02*
X0302D01*
X03033Y03324*
Y03327*
X03029Y0333*
X03023*
X0302Y03327*
X0399Y03609D02*
Y0359D01*
X03999*
X04003Y03593*
Y03596*
X03999Y03599*
X0399*
X03999*
X04003Y03603*
Y03606*
X03999Y03609*
X0399*
X04009Y03586D02*
X04022D01*
X04042Y03606D02*
X04039Y03609D01*
X04032*
X04029Y03606*
Y03593*
X04032Y0359*
X04039*
X04042Y03593*
X04049Y03609D02*
Y0359D01*
Y03599*
X04062*
Y03609*
Y0359*
X04068D02*
X04075D01*
X04072*
Y03609*
X04068Y03606*
X03993Y03139D02*
Y0312D01*
X04002*
X04006Y03123*
Y03126*
X04002Y03129*
X03993*
X04002*
X04006Y03133*
Y03136*
X04002Y03139*
X03993*
X04012Y03116D02*
X04025D01*
X04045Y03136D02*
X04042Y03139D01*
X04035*
X04032Y03136*
Y03123*
X04035Y0312*
X04042*
X04045Y03123*
X04052Y03139D02*
Y0312D01*
Y03129*
X04065*
Y03139*
Y0312*
X04084D02*
X04071D01*
X04084Y03133*
Y03136*
X04081Y03139*
X04075*
X04071Y03136*
X03092Y03569D02*
Y0355D01*
X03101*
X03105Y03553*
Y03556*
X03101Y03559*
X03092*
X03101*
X03105Y03563*
Y03566*
X03101Y03569*
X03092*
X03111D02*
X03124D01*
Y03566*
X03111Y03553*
Y0355*
X03124*
X03131D02*
X03137D01*
X03134*
Y03569*
X03131Y03566*
X03353Y03154D02*
X03349Y03157D01*
X03343*
X0334Y03154*
Y03141*
X03343Y03138*
X03349*
X03353Y03141*
X03372Y03157D02*
X03366Y03154D01*
X03359Y03147*
Y03141*
X03363Y03138*
X03369*
X03372Y03141*
Y03144*
X03369Y03147*
X03359*
X0315Y03333D02*
X03146Y03336D01*
X0314*
X03137Y03333*
Y0332*
X0314Y03317*
X03146*
X0315Y0332*
X03156Y03336D02*
X03169D01*
Y03333*
X03156Y0332*
Y03317*
X0319Y03152D02*
X03186Y03155D01*
X0318*
X03177Y03152*
Y03139*
X0318Y03136*
X03186*
X0319Y03139*
X03196Y03136D02*
X03203D01*
X032*
Y03155*
X03196Y03152*
X03226Y03155D02*
X03213D01*
Y03145*
X03219Y03149*
X03222*
X03226Y03145*
Y03139*
X03222Y03136*
X03216*
X03213Y03139*
X03068Y03177D02*
X03064Y0318D01*
X03058*
X03055Y03177*
Y03164*
X03058Y03161*
X03064*
X03068Y03164*
X03074Y03161D02*
X03081D01*
X03078*
Y0318*
X03074Y03177*
X03104Y0318D02*
X03097Y03177D01*
X03091Y0317*
Y03164*
X03094Y03161*
X031*
X03104Y03164*
Y03167*
X031Y0317*
X03091*
X02309Y03429D02*
X02306Y03425D01*
Y03419*
X02309Y03416*
X02322*
X02326Y03419*
Y03425*
X02322Y03429*
X02326Y03435D02*
Y03442D01*
Y03439*
X02306*
X02309Y03435*
Y03452D02*
X02306Y03455D01*
Y03461*
X02309Y03465*
X02312*
X02316Y03461*
X02319Y03465*
X02322*
X02326Y03461*
Y03455*
X02322Y03452*
X02319*
X02316Y03455*
X02312Y03452*
X02309*
X02316Y03455D02*
Y03461D01*
X02311Y03253D02*
X02308Y03249D01*
Y03243*
X02311Y0324*
X02324*
X02328Y03243*
Y03249*
X02324Y03253*
X02328Y03259D02*
Y03266D01*
Y03263*
X02308*
X02311Y03259*
X02324Y03276D02*
X02328Y03279D01*
Y03285*
X02324Y03289*
X02311*
X02308Y03285*
Y03279*
X02311Y03276*
X02314*
X02318Y03279*
Y03289*
X0258Y03563D02*
X02576Y03566D01*
X0257*
X02567Y03563*
Y0355*
X0257Y03547*
X02576*
X0258Y0355*
X02599Y03547D02*
X02586D01*
X02599Y0356*
Y03563*
X02596Y03566*
X0259*
X02586Y03563*
X02619Y03566D02*
X02606D01*
Y03556*
X02612Y0356*
X02616*
X02619Y03556*
Y0355*
X02616Y03547*
X02609*
X02606Y0355*
X02176Y03492D02*
X02172Y03495D01*
X02166*
X02163Y03492*
Y03479*
X02166Y03476*
X02172*
X02176Y03479*
X02195Y03476D02*
X02182D01*
X02195Y03489*
Y03492*
X02192Y03495*
X02186*
X02182Y03492*
X02215Y03495D02*
X02208Y03492D01*
X02202Y03485*
Y03479*
X02205Y03476*
X02212*
X02215Y03479*
Y03482*
X02212Y03485*
X02202*
X02311Y03345D02*
X02308Y03341D01*
Y03335*
X02311Y03332*
X02324*
X02328Y03335*
Y03341*
X02324Y03345*
X02328Y03364D02*
Y03351D01*
X02314Y03364*
X02311*
X02308Y03361*
Y03355*
X02311Y03351*
X02308Y03371D02*
Y03384D01*
X02311*
X02324Y03371*
X02328*
X04235Y03144D02*
X04231Y03147D01*
X04225*
X04222Y03144*
Y03131*
X04225Y03128*
X04231*
X04235Y03131*
X04241Y03147D02*
Y03128D01*
Y03137*
X04254*
Y03147*
Y03128*
X04261D02*
X04267D01*
X04264*
Y03147*
X04261Y03144*
X04277Y03124D02*
X0429D01*
X04297Y03128D02*
Y03147D01*
X04307*
X0431Y03144*
Y03137*
X04307Y03134*
X04297*
X04317Y03147D02*
Y03128D01*
X04323Y03134*
X0433Y03128*
Y03147*
X04303Y03587D02*
X04299Y0359D01*
X04293*
X0429Y03587*
Y03574*
X04293Y03571*
X04299*
X04303Y03574*
X04309Y0359D02*
Y03571D01*
Y0358*
X04322*
Y0359*
Y03571*
X04342D02*
X04329D01*
X04342Y03584*
Y03587*
X04339Y0359*
X04332*
X04329Y03587*
X04349Y03567D02*
X04362D01*
X04368Y03571D02*
Y0359D01*
X04378*
X04381Y03587*
Y0358*
X04378Y03577*
X04368*
X04388Y0359D02*
Y03571D01*
X04395Y03577*
X04401Y03571*
Y0359*
X0271Y0362D02*
Y036D01*
X0272*
X02723Y03603*
Y03616*
X0272Y0362*
X0271*
X0273Y03616D02*
X02733Y0362D01*
X0274*
X02743Y03616*
Y03613*
X0274Y0361*
X02737*
X0274*
X02743Y03606*
Y03603*
X0274Y036*
X02733*
X0273Y03603*
X02156Y03671D02*
Y03652D01*
X02165*
X02169Y03655*
Y03668*
X02165Y03671*
X02156*
X02188D02*
X02175D01*
Y03661*
X02182Y03665*
X02185*
X02188Y03661*
Y03655*
X02185Y03652*
X02179*
X02175Y03655*
X0305Y03231D02*
X03037D01*
Y03221*
X03043*
X03037*
Y03212*
X03056Y03231D02*
Y03212D01*
X03069*
X03076D02*
X03082D01*
X03079*
Y03231*
X03076Y03228*
X03903Y03606D02*
X03899Y03609D01*
X03893*
X0389Y03606*
Y03593*
X03893Y0359*
X03899*
X03903Y03593*
Y03599*
X03896*
X03909Y03586D02*
X03922D01*
X03942Y03606D02*
X03939Y03609D01*
X03932*
X03929Y03606*
Y03593*
X03932Y0359*
X03939*
X03942Y03593*
X03949Y03609D02*
Y0359D01*
Y03599*
X03962*
Y03609*
Y0359*
X03968D02*
X03975D01*
X03972*
Y03609*
X03968Y03606*
X03903Y03137D02*
X03899Y0314D01*
X03893*
X0389Y03137*
Y03124*
X03893Y03121*
X03899*
X03903Y03124*
Y0313*
X03896*
X03909Y03117D02*
X03922D01*
X03942Y03137D02*
X03939Y0314D01*
X03932*
X03929Y03137*
Y03124*
X03932Y03121*
X03939*
X03942Y03124*
X03949Y0314D02*
Y03121D01*
Y0313*
X03962*
Y0314*
Y03121*
X03981D02*
X03968D01*
X03981Y03134*
Y03137*
X03978Y0314*
X03972*
X03968Y03137*
X03101Y03289D02*
Y0327D01*
X03114*
X0312D02*
X03127D01*
X03124*
Y03289*
X0312Y03286*
X03421Y03067D02*
Y03048D01*
X03434*
X03453D02*
X0344D01*
X03453Y03061*
Y03064*
X0345Y03067*
X03444*
X0344Y03064*
X03341Y03117D02*
Y03098D01*
X03354*
X0336Y03114D02*
X03364Y03117D01*
X0337*
X03373Y03114*
Y03111*
X0337Y03107*
X03367*
X0337*
X03373Y03104*
Y03101*
X0337Y03098*
X03364*
X0336Y03101*
X04114Y0304D02*
Y03021D01*
X04127*
X04146Y0304D02*
X04133D01*
Y03021*
X04146*
X04133Y0303D02*
X0414D01*
X04153Y0304D02*
Y03021D01*
X04163*
X04166Y03024*
Y03037*
X04163Y0304*
X04153*
X04173Y03021D02*
X04179D01*
X04176*
Y0304*
X04173Y03037*
X04112Y03595D02*
Y03576D01*
X04125*
X04144Y03595D02*
X04131D01*
Y03576*
X04144*
X04131Y03585D02*
X04138D01*
X04151Y03595D02*
Y03576D01*
X04161*
X04164Y03579*
Y03592*
X04161Y03595*
X04151*
X04184Y03576D02*
X04171D01*
X04184Y03589*
Y03592*
X0418Y03595*
X04174*
X04171Y03592*
X02163Y03059D02*
Y03078D01*
X02172*
X02176Y03075*
Y03068*
X02172Y03065*
X02163*
X02195Y03078D02*
X02182D01*
Y03068*
X02189Y03072*
X02192*
X02195Y03068*
Y03062*
X02192Y03059*
X02186*
X02182Y03062*
X02786Y03596D02*
Y03609D01*
X02782Y03612*
X02776*
X02773Y03609*
Y03596*
X02776Y03593*
X02782*
X02779Y03599D02*
X02786Y03593D01*
X02782D02*
X02786Y03596D01*
X02805Y03612D02*
X02792D01*
Y03602*
X02799Y03606*
X02802*
X02805Y03602*
Y03596*
X02802Y03593*
X02796*
X02792Y03596*
X02222Y03686D02*
Y03699D01*
X02218Y03702*
X02212*
X02209Y03699*
Y03686*
X02212Y03683*
X02218*
X02215Y03689D02*
X02222Y03683D01*
X02218D02*
X02222Y03686D01*
X02228Y03702D02*
X02241D01*
Y03699*
X02228Y03686*
Y03683*
X02792Y03561D02*
Y0358D01*
X02801*
X02805Y03577*
Y0357*
X02801Y03567*
X02792*
X02798D02*
X02805Y03561D01*
X02824Y0358D02*
X02818Y03577D01*
X02811Y0357*
Y03564*
X02815Y03561*
X02821*
X02824Y03564*
Y03567*
X02821Y0357*
X02811*
X04288Y03396D02*
Y03415D01*
X04297*
X04301Y03412*
Y03405*
X04297Y03402*
X04288*
X04294D02*
X04301Y03396D01*
X04307Y03415D02*
X0432D01*
Y03412*
X04307Y03399*
Y03396*
X04287Y03295D02*
X04267D01*
Y03304*
X0427Y03308*
X04277*
X0428Y03304*
Y03295*
Y03301D02*
X04287Y03308D01*
X0427Y03314D02*
X04267Y03318D01*
Y03324*
X0427Y03327*
X04273*
X04277Y03324*
X0428Y03327*
X04283*
X04287Y03324*
Y03318*
X04283Y03314*
X0428*
X04277Y03318*
X04273Y03314*
X0427*
X04277Y03318D02*
Y03324D01*
X04319Y03425D02*
Y03444D01*
X04328*
X04332Y03441*
Y03434*
X04328Y03431*
X04319*
X04325D02*
X04332Y03425D01*
X04338Y03428D02*
X04342Y03425D01*
X04348*
X04351Y03428*
Y03441*
X04348Y03444*
X04342*
X04338Y03441*
Y03438*
X04342Y03434*
X04351*
X04249Y03474D02*
X04229D01*
Y03483*
X04232Y03487*
X04239*
X04242Y03483*
Y03474*
Y0348D02*
X04249Y03487D01*
Y03493D02*
Y035D01*
Y03497*
X04229*
X04232Y03493*
Y0351D02*
X04229Y03513D01*
Y03519*
X04232Y03523*
X04245*
X04249Y03519*
Y03513*
X04245Y0351*
X04232*
X02402Y03607D02*
Y03626D01*
X02411*
X02415Y03623*
Y03616*
X02411Y03613*
X02402*
X02408D02*
X02415Y03607D01*
X02421D02*
X02428D01*
X02425*
Y03626*
X02421Y03623*
X02438Y03607D02*
X02444D01*
X02441*
Y03626*
X02438Y03623*
X02553Y03607D02*
Y03626D01*
X02562*
X02566Y03623*
Y03616*
X02562Y03613*
X02553*
X02559D02*
X02566Y03607D01*
X02572D02*
X02579D01*
X02576*
Y03626*
X02572Y03623*
X02602Y03607D02*
X02589D01*
X02602Y0362*
Y03623*
X02598Y03626*
X02592*
X02589Y03623*
X02543Y03668D02*
Y03687D01*
X02552*
X02556Y03684*
Y03677*
X02552Y03674*
X02543*
X02549D02*
X02556Y03668D01*
X02562D02*
X02569D01*
X02566*
Y03687*
X02562Y03684*
X02579D02*
X02582Y03687D01*
X02588*
X02592Y03684*
Y03681*
X02588Y03677*
X02585*
X02588*
X02592Y03674*
Y03671*
X02588Y03668*
X02582*
X02579Y03671*
X02251Y03498D02*
Y03517D01*
X0226*
X02264Y03514*
Y03507*
X0226Y03504*
X02251*
X02257D02*
X02264Y03498D01*
X0227D02*
X02277D01*
X02274*
Y03517*
X0227Y03514*
X02296Y03498D02*
Y03517D01*
X02287Y03507*
X023*
X02239Y03592D02*
X02219D01*
Y03601*
X02222Y03605*
X02229*
X02232Y03601*
Y03592*
Y03598D02*
X02239Y03605D01*
Y03611D02*
Y03618D01*
Y03615*
X02219*
X02222Y03611*
X02219Y03641D02*
Y03628D01*
X02229*
X02225Y03634*
Y03637*
X02229Y03641*
X02235*
X02239Y03637*
Y03631*
X02235Y03628*
X02787Y03678D02*
Y03697D01*
X02796*
X028Y03694*
Y03687*
X02796Y03684*
X02787*
X02793D02*
X028Y03678D01*
X02806D02*
X02813D01*
X0281*
Y03697*
X02806Y03694*
X02823Y03697D02*
X02836D01*
Y03694*
X02823Y03681*
Y03678*
X04358Y03329D02*
X04338D01*
Y03338*
X04341Y03342*
X04348*
X04351Y03338*
Y03329*
Y03335D02*
X04358Y03342D01*
Y03361D02*
Y03348D01*
X04344Y03361*
X04341*
X04338Y03358*
Y03352*
X04341Y03348*
X04338Y03381D02*
Y03368D01*
X04348*
X04344Y03374*
Y03378*
X04348Y03381*
X04354*
X04358Y03378*
Y03371*
X04354Y03368*
X04264Y03221D02*
Y03236D01*
X04271*
X04274Y03234*
Y03228*
X04271Y03226*
X04264*
X04269D02*
X04274Y03221D01*
X0429D02*
X04279D01*
X0429Y03231*
Y03234*
X04287Y03236*
X04282*
X04279Y03234*
X04295Y03236D02*
X04306D01*
Y03234*
X04295Y03223*
Y03221*
X03243Y03125D02*
Y03144D01*
X03252*
X03256Y03141*
Y03134*
X03252Y03131*
X03243*
X03249D02*
X03256Y03125D01*
X03262Y03141D02*
X03266Y03144D01*
X03272*
X03275Y03141*
Y03138*
X03272Y03134*
X03269*
X03272*
X03275Y03131*
Y03128*
X03272Y03125*
X03266*
X03262Y03128*
X03282Y03141D02*
X03285Y03144D01*
X03292*
X03295Y03141*
Y03138*
X03292Y03134*
X03288*
X03292*
X03295Y03131*
Y03128*
X03292Y03125*
X03285*
X03282Y03128*
X03792Y0359D02*
Y03609D01*
X03801*
X03805Y03606*
Y03599*
X03801Y03596*
X03792*
X03798D02*
X03805Y0359D01*
X03811Y03586D02*
X03824D01*
X03844Y03606D02*
X03841Y03609D01*
X03834*
X03831Y03606*
Y03593*
X03834Y0359*
X03841*
X03844Y03593*
X03851Y03609D02*
Y0359D01*
Y03599*
X03864*
Y03609*
Y0359*
X0387D02*
X03877D01*
X03874*
Y03609*
X0387Y03606*
X03788Y03121D02*
Y0314D01*
X03797*
X03801Y03137*
Y0313*
X03797Y03127*
X03788*
X03794D02*
X03801Y03121D01*
X03807Y03117D02*
X0382D01*
X0384Y03137D02*
X03837Y0314D01*
X0383*
X03827Y03137*
Y03124*
X0383Y03121*
X03837*
X0384Y03124*
X03847Y0314D02*
Y03121D01*
Y0313*
X0386*
Y0314*
Y03121*
X03879D02*
X03866D01*
X03879Y03134*
Y03137*
X03876Y0314*
X0387*
X03866Y03137*
X03539Y0333D02*
X03535Y03333D01*
X03529*
X03526Y0333*
Y03327*
X03529Y03323*
X03535*
X03539Y0332*
Y03317*
X03535Y03314*
X03529*
X03526Y03317*
X03545Y03333D02*
Y03314D01*
X03555*
X03558Y03317*
Y0332*
X03555Y03323*
X03545*
X03555*
X03558Y03327*
Y0333*
X03555Y03333*
X03545*
X03565Y03314D02*
X03571D01*
X03568*
Y03333*
X03565Y0333*
X03538Y03204D02*
X03534Y03207D01*
X03528*
X03525Y03204*
Y03201*
X03528Y03197*
X03534*
X03538Y03194*
Y03191*
X03534Y03188*
X03528*
X03525Y03191*
X03544Y03207D02*
Y03188D01*
X03554*
X03557Y03191*
Y03194*
X03554Y03197*
X03544*
X03554*
X03557Y03201*
Y03204*
X03554Y03207*
X03544*
X03577Y03188D02*
X03564D01*
X03577Y03201*
Y03204*
X03574Y03207*
X03567*
X03564Y03204*
X04255Y03696D02*
X04251Y03699D01*
X04245*
X04242Y03696*
Y03693*
X04245Y03689*
X04251*
X04255Y03686*
Y03683*
X04251Y0368*
X04245*
X04242Y03683*
X04261Y03699D02*
Y0368D01*
X04271*
X04274Y03683*
Y03686*
X04271Y03689*
X04261*
X04271*
X04274Y03693*
Y03696*
X04271Y03699*
X04261*
X04294D02*
X04281D01*
Y03689*
X04287Y03693*
X04291*
X04294Y03689*
Y03683*
X04291Y0368*
X04284*
X04281Y03683*
X04339Y03046D02*
X04335Y03049D01*
X04329*
X04326Y03046*
Y03043*
X04329Y03039*
X04335*
X04339Y03036*
Y03033*
X04335Y0303*
X04329*
X04326Y03033*
X04345Y03049D02*
Y0303D01*
X04355*
X04358Y03033*
Y03036*
X04355Y03039*
X04345*
X04355*
X04358Y03043*
Y03046*
X04355Y03049*
X04345*
X04378D02*
X04371Y03046D01*
X04365Y03039*
Y03033*
X04368Y0303*
X04375*
X04378Y03033*
Y03036*
X04375Y03039*
X04365*
X04075Y03331D02*
X04061D01*
X04055Y03337*
X04061Y03344*
X04075*
X04065*
Y03331*
X04055Y0335D02*
Y03363D01*
Y03357*
X04075*
X04055Y0338D02*
Y03373D01*
X04058Y0337*
X04071*
X04075Y03373*
Y0338*
X04071Y03383*
X04058*
X04055Y0338*
X04075Y0339D02*
X04055D01*
X04061Y03396*
X04055Y03403*
X04075*
X02744Y03337D02*
X02764D01*
Y03346*
X0276Y0335*
X02757*
X02754Y03346*
Y03337*
Y03346*
X0275Y0335*
X02747*
X02744Y03346*
Y03337*
Y03356D02*
X02764D01*
Y03369*
X02744Y03389D02*
Y03376D01*
X02764*
Y03389*
X02754Y03376D02*
Y03382D01*
X04194Y03309D02*
Y03322D01*
Y03315*
X04214*
Y03328D02*
X04194D01*
Y03338*
X04197Y03341*
X04204*
X04207Y03338*
Y03328*
X04214Y03348D02*
Y03354D01*
Y03351*
X04194*
X04197Y03348*
X04306Y03464D02*
Y03477D01*
Y0347*
X04326*
Y03483D02*
X04306D01*
Y03493*
X04309Y03496*
X04316*
X04319Y03493*
Y03483*
X04326Y03516D02*
Y03503D01*
X04312Y03516*
X04309*
X04306Y03513*
Y03506*
X04309Y03503*
X04194Y03365D02*
Y03378D01*
Y03371*
X04214*
Y03384D02*
X04194D01*
Y03394*
X04197Y03397*
X04204*
X04207Y03394*
Y03384*
X04197Y03404D02*
X04194Y03407D01*
Y03414*
X04197Y03417*
X042*
X04204Y03414*
Y0341*
Y03414*
X04207Y03417*
X0421*
X04214Y03414*
Y03407*
X0421Y03404*
X0438Y03462D02*
Y03475D01*
Y03468*
X044*
Y03481D02*
X0438D01*
Y03491*
X04383Y03494*
X0439*
X04393Y03491*
Y03481*
X044Y03511D02*
X0438D01*
X0439Y03501*
Y03514*
X04381Y03342D02*
Y03355D01*
Y03348*
X04401*
Y03361D02*
X04381D01*
Y03371*
X04384Y03374*
X04391*
X04394Y03371*
Y03361*
X04381Y03394D02*
Y03381D01*
X04391*
X04387Y03387*
Y03391*
X04391Y03394*
X04397*
X04401Y03391*
Y03384*
X04397Y03381*
X02564Y03478D02*
X02577D01*
X0257*
Y03459*
X02583D02*
Y03478D01*
X02593*
X02596Y03475*
Y03468*
X02593Y03465*
X02583*
X02603Y03478D02*
X02616D01*
Y03475*
X02603Y03462*
Y03459*
X02404Y03535D02*
Y03519D01*
X02407Y03516*
X02413*
X02417Y03519*
Y03535*
X02423Y03532D02*
X02427Y03535D01*
X02433*
X02436Y03532*
Y03529*
X02433Y03525*
X0243*
X02433*
X02436Y03522*
Y03519*
X02433Y03516*
X02427*
X02423Y03519*
X03612Y0336D02*
X03625Y03341D01*
Y0336D02*
X03612Y03341D01*
X03644D02*
X03631D01*
X03644Y03354*
Y03357*
X03641Y0336*
X03635*
X03631Y03357*
X02098Y0334D02*
X02078D01*
X02098Y03353*
X02078*
Y03372D02*
Y03359D01*
X02088*
Y03366*
Y03359*
X02098*
X02081Y03392D02*
X02078Y03389D01*
Y03382*
X02081Y03379*
X02094*
X02098Y03382*
Y03389*
X02094Y03392*
G54D99*
X02698Y03121D02*
X02706D01*
X02696Y0312D02*
X02708D01*
X02694Y03119D02*
X0271D01*
X02693Y03118D02*
X02711D01*
X02693Y03117D02*
X02711D01*
X02692Y03116D02*
X02712D01*
X02691Y03115D02*
X02713D01*
X02691Y03114D02*
X02713D01*
X0269Y03113D02*
X02713D01*
X0269Y03112D02*
X02713D01*
X0269Y03111D02*
X02714D01*
X02688Y0311D02*
X02716D01*
X02686Y03109D02*
X02718D01*
X02684Y03108D02*
X0272D01*
X02682Y03107D02*
X02722D01*
X02681Y03106D02*
X0269D01*
X02691D02*
X02712D01*
X02713D02*
X02723D01*
X02679Y03105D02*
X02688D01*
X02692D02*
X02712D01*
X02716D02*
X02725D01*
X02678Y03104D02*
X02686D01*
X02692D02*
X02711D01*
X02718D02*
X02726D01*
X02677Y03103D02*
X02684D01*
X02693D02*
X02711D01*
X02719D02*
X02727D01*
X02676Y03102D02*
X02683D01*
X02694D02*
X0271D01*
X02721D02*
X02728D01*
X02675Y03101D02*
X02682D01*
X02695D02*
X02709D01*
X02722D02*
X02729D01*
X02674Y031D02*
X0268D01*
X02697D02*
X02707D01*
X02723D02*
X0273D01*
X02673Y03099D02*
X02679D01*
X027D02*
X02703D01*
X02725D02*
X02731D01*
X02672Y03098D02*
X02678D01*
X02726D02*
X02731D01*
X02672Y03097D02*
X02677D01*
X02726D02*
X02732D01*
X02671Y03096D02*
X02677D01*
X02728D02*
X02733D01*
X0267Y03095D02*
X02676D01*
X02728D02*
X02734D01*
X02669Y03094D02*
X02675D01*
X02729D02*
X02734D01*
X02669Y03093D02*
X02674D01*
X0273D02*
X02735D01*
X02668Y03092D02*
X02674D01*
X0273D02*
X02735D01*
X02668Y03091D02*
X02673D01*
X02731D02*
X02736D01*
X02668Y0309D02*
X02673D01*
X02731D02*
X02736D01*
X02667Y03089D02*
X02672D01*
X02732D02*
X02737D01*
X02667Y03088D02*
X02672D01*
X02732D02*
X02737D01*
X02666Y03087D02*
X02671D01*
X02733D02*
X02737D01*
X02662Y03086D02*
X02672D01*
X02732D02*
X02742D01*
X0266Y03085D02*
X02673D01*
X0273D02*
X02744D01*
X02659Y03084D02*
X02674D01*
X02729D02*
X02745D01*
X02658Y03083D02*
X02675D01*
X02728D02*
X02746D01*
X02657Y03082D02*
X02677D01*
X02728D02*
X02747D01*
X02657Y03081D02*
X02677D01*
X02727D02*
X02747D01*
X02656Y0308D02*
X02677D01*
X02726D02*
X02748D01*
X02656Y03079D02*
X02678D01*
X02726D02*
X02748D01*
X02656Y03078D02*
X02678D01*
X02726D02*
X02748D01*
X02655Y03077D02*
X02678D01*
X02725D02*
X02748D01*
X02655Y03076D02*
X02678D01*
X02725D02*
X02748D01*
X02655Y03075D02*
X02678D01*
X02725D02*
X02748D01*
X02655Y03074D02*
X02678D01*
X02725D02*
X02748D01*
X02656Y03073D02*
X02678D01*
X02726D02*
X02748D01*
X02656Y03072D02*
X02678D01*
X02726D02*
X02748D01*
X02656Y03071D02*
X02677D01*
X02726D02*
X02748D01*
X02656Y0307D02*
X02677D01*
X02727D02*
X02747D01*
X02657Y03069D02*
X02676D01*
X02727D02*
X02747D01*
X02658Y03068D02*
X02676D01*
X02728D02*
X02746D01*
X02659Y03067D02*
X02675D01*
X02729D02*
X02745D01*
X0266Y03066D02*
X02673D01*
X0273D02*
X02744D01*
X02662Y03065D02*
X02671D01*
X02732D02*
X02742D01*
X02665Y03064D02*
X02671D01*
X02733D02*
X02738D01*
X02667Y03063D02*
X02672D01*
X02732D02*
X02737D01*
X02667Y03062D02*
X02672D01*
X02732D02*
X02737D01*
X02668Y03061D02*
X02672D01*
X02731D02*
X02737D01*
X02668Y0306D02*
X02673D01*
X02731D02*
X02736D01*
X02668Y03059D02*
X02674D01*
X0273D02*
X02735D01*
X02669Y03058D02*
X02674D01*
X0273D02*
X02735D01*
X0267Y03057D02*
X02675D01*
X02729D02*
X02734D01*
X0267Y03056D02*
X02676D01*
X02728D02*
X02734D01*
X02671Y03055D02*
X02676D01*
X02728D02*
X02733D01*
X02671Y03054D02*
X02677D01*
X02727D02*
X02732D01*
X02672Y03053D02*
X02678D01*
X02726D02*
X02732D01*
X02673Y03052D02*
X02679D01*
X027D02*
X02704D01*
X02725D02*
X02731D01*
X02674Y03051D02*
X0268D01*
X02697D02*
X02707D01*
X02724D02*
X0273D01*
X02675Y0305D02*
X02681D01*
X02695D02*
X02708D01*
X02722D02*
X02729D01*
X02676Y03049D02*
X02683D01*
X02694D02*
X0271D01*
X02721D02*
X02728D01*
X02677Y03048D02*
X02684D01*
X02693D02*
X02711D01*
X0272D02*
X02727D01*
X02678Y03047D02*
X02686D01*
X02692D02*
X02711D01*
X02718D02*
X02726D01*
X02679Y03046D02*
X02688D01*
X02692D02*
X02712D01*
X02716D02*
X02725D01*
X02681Y03045D02*
X0269D01*
X02691D02*
X02712D01*
X02714D02*
X02723D01*
X02682Y03044D02*
X02722D01*
X02684Y03043D02*
X0272D01*
X02686Y03042D02*
X02718D01*
X02688Y03041D02*
X02716D01*
X0269Y0304D02*
X02714D01*
X0269Y03039D02*
X02714D01*
X0269Y03038D02*
X02713D01*
X02691Y03037D02*
X02713D01*
X02691Y03036D02*
X02713D01*
X02692Y03035D02*
X02712D01*
X02692Y03034D02*
X02711D01*
X02693Y03033D02*
X02711D01*
X02694Y03032D02*
X0271D01*
X02696Y03031D02*
X02708D01*
X02697Y0303D02*
X02707D01*
X027Y03029D02*
X02704D01*
X03704Y03498D02*
X0372D01*
X03626D02*
X03645D01*
X03587D02*
X03618D01*
X03573D02*
X03579D01*
X03543D02*
X03549D01*
X03504D02*
X03536D01*
X0348D02*
X03485D01*
X03451D02*
X03456D01*
X03407D02*
X0342D01*
X03354D02*
X03359D01*
X03703Y03499D02*
X0372D01*
X03626D02*
X03648D01*
X03587D02*
X03618D01*
X03573D02*
X03579D01*
X03543D02*
X03549D01*
X03504D02*
X03536D01*
X0348D02*
X03485D01*
X03451D02*
X03456D01*
X03405D02*
X03422D01*
X03354D02*
X03359D01*
X03703Y035D02*
X03719D01*
X03626D02*
X03651D01*
X03587D02*
X03618D01*
X03572D02*
X03578D01*
X03543D02*
X03549D01*
X03504D02*
X03536D01*
X03479D02*
X03485D01*
X0345D02*
X03457D01*
X03403D02*
X03424D01*
X03354D02*
X03359D01*
X03702Y03501D02*
X03719D01*
X03626D02*
X03652D01*
X03587D02*
X03618D01*
X03572D02*
X03578D01*
X03543D02*
X03549D01*
X03504D02*
X03536D01*
X03479D02*
X03486D01*
X0345D02*
X03457D01*
X03402D02*
X03426D01*
X03354D02*
X03359D01*
X03701Y03502D02*
X03718D01*
X03626D02*
X03653D01*
X03587D02*
X03618D01*
X03571D02*
X03577D01*
X03543D02*
X03549D01*
X03504D02*
X03536D01*
X03479D02*
X03486D01*
X0345D02*
X03457D01*
X03417D02*
X03427D01*
X03401D02*
X03411D01*
X03354D02*
X03359D01*
X03701Y03503D02*
X03717D01*
X03644D02*
X03655D01*
X03626D02*
X03631D01*
X03587D02*
X03592D01*
X0357D02*
X03577D01*
X03543D02*
X03549D01*
X03504D02*
X03509D01*
X03478D02*
X03486D01*
X0345D02*
X03458D01*
X03419D02*
X03428D01*
X034D02*
X03408D01*
X03354D02*
X03359D01*
X037Y03504D02*
X03717D01*
X03648D02*
X03656D01*
X03626D02*
X03631D01*
X03587D02*
X03592D01*
X0357D02*
X03576D01*
X03543D02*
X03549D01*
X03504D02*
X03509D01*
X03478D02*
X03486D01*
X03449D02*
X03458D01*
X03422D02*
X03429D01*
X03399D02*
X03406D01*
X03354D02*
X03359D01*
X037Y03505D02*
X03716D01*
X03649D02*
X03657D01*
X03626D02*
X03631D01*
X03587D02*
X03592D01*
X03569D02*
X03575D01*
X03543D02*
X03549D01*
X03504D02*
X03509D01*
X03478D02*
X03487D01*
X03449D02*
X03458D01*
X03423D02*
X03429D01*
X03398D02*
X03405D01*
X03354D02*
X03359D01*
X03699Y03506D02*
X03716D01*
X03651D02*
X03657D01*
X03626D02*
X03631D01*
X03587D02*
X03592D01*
X03569D02*
X03575D01*
X03543D02*
X03549D01*
X03504D02*
X03509D01*
X03477D02*
X03487D01*
X03449D02*
X03458D01*
X03424D02*
X0343D01*
X03398D02*
X03404D01*
X03354D02*
X03359D01*
X03698Y03507D02*
X03715D01*
X03652D02*
X03658D01*
X03626D02*
X03631D01*
X03587D02*
X03592D01*
X03568D02*
X03574D01*
X03543D02*
X03549D01*
X03504D02*
X03509D01*
X03477D02*
X03487D01*
X03448D02*
X03459D01*
X03425D02*
X03431D01*
X03397D02*
X03403D01*
X03354D02*
X03359D01*
X03698Y03508D02*
X03714D01*
X03652D02*
X03659D01*
X03626D02*
X03631D01*
X03587D02*
X03592D01*
X03567D02*
X03574D01*
X03543D02*
X03549D01*
X03504D02*
X03509D01*
X03483D02*
X03487D01*
X03477D02*
X03482D01*
X03454D02*
X03459D01*
X03448D02*
X03453D01*
X03425D02*
X03431D01*
X03396D02*
X03402D01*
X03354D02*
X03359D01*
X03697Y03509D02*
X03714D01*
X03653D02*
X03659D01*
X03626D02*
X03631D01*
X03587D02*
X03592D01*
X03567D02*
X03573D01*
X03543D02*
X03549D01*
X03504D02*
X03509D01*
X03483D02*
X03488D01*
X03477D02*
X03481D01*
X03454D02*
X03459D01*
X03448D02*
X03453D01*
X03426D02*
X03432D01*
X03396D02*
X03402D01*
X03354D02*
X03359D01*
X03697Y0351D02*
X03713D01*
X03654D02*
X0366D01*
X03626D02*
X03631D01*
X03587D02*
X03592D01*
X03566D02*
X03572D01*
X03543D02*
X03549D01*
X03504D02*
X03509D01*
X03483D02*
X03488D01*
X03476D02*
X03481D01*
X03454D02*
X0346D01*
X03448D02*
X03453D01*
X03426D02*
X03432D01*
X03396D02*
X03401D01*
X03354D02*
X03359D01*
X03696Y03511D02*
X03713D01*
X03654D02*
X0366D01*
X03626D02*
X03631D01*
X03587D02*
X03592D01*
X03566D02*
X03572D01*
X03543D02*
X03549D01*
X03504D02*
X03509D01*
X03483D02*
X03488D01*
X03476D02*
X03481D01*
X03455D02*
X0346D01*
X03448D02*
X03453D01*
X03426D02*
X03432D01*
X03395D02*
X03401D01*
X03354D02*
X03359D01*
X03695Y03512D02*
X03712D01*
X03655D02*
X0366D01*
X03626D02*
X03631D01*
X03587D02*
X03592D01*
X03565D02*
X03571D01*
X03543D02*
X03549D01*
X03504D02*
X03509D01*
X03483D02*
X03489D01*
X03476D02*
X03481D01*
X03455D02*
X0346D01*
X03447D02*
X03452D01*
X03427D02*
X03432D01*
X03395D02*
X03401D01*
X03354D02*
X03359D01*
X03694Y03513D02*
X03711D01*
X03655D02*
X03661D01*
X03626D02*
X03631D01*
X03587D02*
X03592D01*
X03564D02*
X03571D01*
X03543D02*
X03549D01*
X03504D02*
X03509D01*
X03483D02*
X03489D01*
X03475D02*
X0348D01*
X03455D02*
X03461D01*
X03447D02*
X03452D01*
X03427D02*
X03432D01*
X03395D02*
X034D01*
X03354D02*
X03359D01*
X03694Y03514D02*
X03711D01*
X03655D02*
X03661D01*
X03626D02*
X03631D01*
X03587D02*
X03592D01*
X03564D02*
X0357D01*
X03543D02*
X03549D01*
X03504D02*
X03509D01*
X03484D02*
X03489D01*
X03475D02*
X0348D01*
X03456D02*
X03461D01*
X03447D02*
X03452D01*
X03427D02*
X03433D01*
X03394D02*
X034D01*
X03354D02*
X03359D01*
X03693Y03515D02*
X0371D01*
X03656D02*
X03661D01*
X03626D02*
X03631D01*
X03587D02*
X03592D01*
X03563D02*
X03569D01*
X03543D02*
X03549D01*
X03504D02*
X03509D01*
X03484D02*
X03489D01*
X03475D02*
X0348D01*
X03456D02*
X03461D01*
X03446D02*
X03452D01*
X03428D02*
X03433D01*
X03394D02*
X034D01*
X03354D02*
X03359D01*
X03693Y03516D02*
X03709D01*
X03656D02*
X03661D01*
X03626D02*
X03631D01*
X03587D02*
X03592D01*
X03563D02*
X03569D01*
X03543D02*
X03549D01*
X03504D02*
X03509D01*
X03484D02*
X03489D01*
X03474D02*
X0348D01*
X03456D02*
X03461D01*
X03446D02*
X03452D01*
X03428D02*
X03433D01*
X03394D02*
X034D01*
X03354D02*
X03359D01*
X03692Y03517D02*
X03709D01*
X03656D02*
X03661D01*
X03626D02*
X03631D01*
X03587D02*
X03592D01*
X03562D02*
X03568D01*
X03543D02*
X03548D01*
X03504D02*
X03509D01*
X03485D02*
X0349D01*
X03474D02*
X03479D01*
X03457D02*
X03462D01*
X03446D02*
X03451D01*
X03428D02*
X03433D01*
X03394D02*
X034D01*
X03354D02*
X03359D01*
X03692Y03518D02*
X03708D01*
X03656D02*
X03661D01*
X03626D02*
X03631D01*
X03587D02*
X03592D01*
X03543D02*
X03567D01*
X03504D02*
X03509D01*
X03485D02*
X0349D01*
X03474D02*
X03479D01*
X03457D02*
X03462D01*
X03446D02*
X03451D01*
X03428D02*
X03433D01*
X03394D02*
X03399D01*
X03354D02*
X03377D01*
X03691Y03519D02*
X03708D01*
X03656D02*
X03662D01*
X03626D02*
X03631D01*
X03587D02*
X03592D01*
X03543D02*
X03567D01*
X03504D02*
X03509D01*
X03485D02*
X0349D01*
X03474D02*
X03479D01*
X03457D02*
X03462D01*
X03446D02*
X03451D01*
X03428D02*
X03433D01*
X03394D02*
X03399D01*
X03354D02*
X0338D01*
X0369Y0352D02*
X03707D01*
X03656D02*
X03662D01*
X03626D02*
X03631D01*
X03587D02*
X03592D01*
X03543D02*
X03569D01*
X03504D02*
X03509D01*
X03485D02*
X0349D01*
X03473D02*
X03478D01*
X03457D02*
X03463D01*
X03445D02*
X03451D01*
X03428D02*
X03433D01*
X03394D02*
X03399D01*
X03354D02*
X03382D01*
X03689Y03521D02*
X03706D01*
X03656D02*
X03662D01*
X03626D02*
X03631D01*
X03587D02*
X03615D01*
X03543D02*
X03571D01*
X03504D02*
X03532D01*
X03485D02*
X03491D01*
X03473D02*
X03478D01*
X03458D02*
X03463D01*
X03445D02*
X0345D01*
X03428D02*
X03433D01*
X03394D02*
X03399D01*
X03354D02*
X03383D01*
X03689Y03522D02*
X03706D01*
X03656D02*
X03662D01*
X03626D02*
X03631D01*
X03587D02*
X03615D01*
X03543D02*
X03572D01*
X03504D02*
X03532D01*
X03486D02*
X03491D01*
X03473D02*
X03478D01*
X03458D02*
X03463D01*
X03445D02*
X0345D01*
X03428D02*
X03433D01*
X03394D02*
X03399D01*
X03354D02*
X03384D01*
X03688Y03523D02*
X03705D01*
X03656D02*
X03662D01*
X03626D02*
X03631D01*
X03587D02*
X03615D01*
X03564D02*
X03573D01*
X03543D02*
X03548D01*
X03504D02*
X03532D01*
X03486D02*
X03491D01*
X03472D02*
X03478D01*
X03458D02*
X03464D01*
X03445D02*
X0345D01*
X03428D02*
X03433D01*
X03394D02*
X03399D01*
X03376D02*
X03385D01*
X03354D02*
X03359D01*
X03688Y03524D02*
X03704D01*
X03656D02*
X03662D01*
X03626D02*
X03631D01*
X03587D02*
X03615D01*
X03567D02*
X03574D01*
X03543D02*
X03549D01*
X03504D02*
X03532D01*
X03486D02*
X03492D01*
X03472D02*
X03477D01*
X03459D02*
X03464D01*
X03444D02*
X0345D01*
X03428D02*
X03433D01*
X03394D02*
X03399D01*
X03379D02*
X03386D01*
X03354D02*
X03359D01*
X03687Y03525D02*
X03704D01*
X03656D02*
X03662D01*
X03626D02*
X03631D01*
X03587D02*
X03615D01*
X03568D02*
X03575D01*
X03543D02*
X03549D01*
X03504D02*
X03532D01*
X03486D02*
X03492D01*
X03472D02*
X03477D01*
X03459D02*
X03464D01*
X03444D02*
X03449D01*
X03428D02*
X03433D01*
X03394D02*
X03399D01*
X0338D02*
X03386D01*
X03354D02*
X03359D01*
X03686Y03526D02*
X03703D01*
X03656D02*
X03662D01*
X03626D02*
X03631D01*
X03587D02*
X03592D01*
X03569D02*
X03575D01*
X03543D02*
X03549D01*
X03504D02*
X03509D01*
X03487D02*
X03492D01*
X03471D02*
X03477D01*
X03459D02*
X03464D01*
X03444D02*
X03449D01*
X03428D02*
X03433D01*
X03394D02*
X03399D01*
X03381D02*
X03387D01*
X03354D02*
X03359D01*
X03686Y03527D02*
X03703D01*
X03656D02*
X03662D01*
X03626D02*
X03631D01*
X03587D02*
X03592D01*
X0357D02*
X03576D01*
X03543D02*
X03549D01*
X03504D02*
X03509D01*
X03487D02*
X03492D01*
X03471D02*
X03476D01*
X0346D02*
X03465D01*
X03443D02*
X03449D01*
X03428D02*
X03433D01*
X03394D02*
X03399D01*
X03381D02*
X03387D01*
X03354D02*
X03359D01*
X03685Y03528D02*
X03702D01*
X03656D02*
X03661D01*
X03626D02*
X03631D01*
X03587D02*
X03592D01*
X0357D02*
X03576D01*
X03543D02*
X03549D01*
X03504D02*
X03509D01*
X03487D02*
X03492D01*
X03471D02*
X03476D01*
X0346D02*
X03465D01*
X03443D02*
X03449D01*
X03428D02*
X03433D01*
X03394D02*
X034D01*
X03382D02*
X03387D01*
X03354D02*
X03359D01*
X03685Y03529D02*
X03701D01*
X03656D02*
X03661D01*
X03626D02*
X03631D01*
X03587D02*
X03592D01*
X03571D02*
X03576D01*
X03543D02*
X03549D01*
X03504D02*
X03509D01*
X03488D02*
X03493D01*
X03471D02*
X03476D01*
X0346D02*
X03465D01*
X03443D02*
X03448D01*
X03428D02*
X03433D01*
X03394D02*
X034D01*
X03382D02*
X03388D01*
X03354D02*
X03359D01*
X03684Y0353D02*
X03701D01*
X03656D02*
X03661D01*
X03626D02*
X03631D01*
X03587D02*
X03592D01*
X03571D02*
X03577D01*
X03543D02*
X03549D01*
X03504D02*
X03509D01*
X03488D02*
X03493D01*
X0347D02*
X03475D01*
X0346D02*
X03466D01*
X03443D02*
X03448D01*
X03428D02*
X03433D01*
X03394D02*
X034D01*
X03383D02*
X03388D01*
X03354D02*
X03359D01*
X03683Y03531D02*
X037D01*
X03656D02*
X03661D01*
X03626D02*
X03631D01*
X03587D02*
X03592D01*
X03571D02*
X03577D01*
X03543D02*
X03549D01*
X03504D02*
X03509D01*
X03488D02*
X03493D01*
X0347D02*
X03475D01*
X03461D02*
X03466D01*
X03443D02*
X03448D01*
X03427D02*
X03433D01*
X03394D02*
X034D01*
X03383D02*
X03388D01*
X03354D02*
X03359D01*
X03683Y03532D02*
X03699D01*
X03655D02*
X03661D01*
X03626D02*
X03631D01*
X03587D02*
X03592D01*
X03571D02*
X03577D01*
X03543D02*
X03549D01*
X03504D02*
X03509D01*
X03488D02*
X03494D01*
X0347D02*
X03475D01*
X03461D02*
X03466D01*
X03442D02*
X03448D01*
X03427D02*
X03432D01*
X03395D02*
X034D01*
X03383D02*
X03388D01*
X03354D02*
X03359D01*
X03682Y03533D02*
X03699D01*
X03655D02*
X0366D01*
X03626D02*
X03631D01*
X03587D02*
X03592D01*
X03571D02*
X03577D01*
X03543D02*
X03549D01*
X03504D02*
X03509D01*
X03488D02*
X03494D01*
X03469D02*
X03475D01*
X03461D02*
X03466D01*
X03442D02*
X03447D01*
X03427D02*
X03432D01*
X03395D02*
X03401D01*
X03383D02*
X03388D01*
X03354D02*
X03359D01*
X03682Y03534D02*
X03698D01*
X03654D02*
X0366D01*
X03626D02*
X03631D01*
X03587D02*
X03592D01*
X03571D02*
X03577D01*
X03543D02*
X03549D01*
X03504D02*
X03509D01*
X03489D02*
X03494D01*
X03469D02*
X03474D01*
X03462D02*
X03467D01*
X03442D02*
X03447D01*
X03426D02*
X03432D01*
X03395D02*
X03401D01*
X03383D02*
X03388D01*
X03354D02*
X03359D01*
X03681Y03535D02*
X03697D01*
X03654D02*
X0366D01*
X03626D02*
X03631D01*
X03587D02*
X03592D01*
X03571D02*
X03577D01*
X03543D02*
X03549D01*
X03504D02*
X03509D01*
X03489D02*
X03494D01*
X03469D02*
X03474D01*
X03462D02*
X03467D01*
X03441D02*
X03447D01*
X03426D02*
X03432D01*
X03396D02*
X03401D01*
X03382D02*
X03388D01*
X03354D02*
X03359D01*
X0368Y03536D02*
X03697D01*
X03653D02*
X03659D01*
X03626D02*
X03631D01*
X03587D02*
X03592D01*
X03571D02*
X03576D01*
X03543D02*
X03549D01*
X03504D02*
X03509D01*
X03489D02*
X03495D01*
X03469D02*
X03474D01*
X03462D02*
X03467D01*
X03441D02*
X03447D01*
X03426D02*
X03432D01*
X03396D02*
X03402D01*
X03382D02*
X03388D01*
X03354D02*
X03359D01*
X0368Y03537D02*
X03696D01*
X03653D02*
X03659D01*
X03626D02*
X03631D01*
X03587D02*
X03592D01*
X03571D02*
X03576D01*
X03543D02*
X03549D01*
X03504D02*
X03509D01*
X03489D02*
X03495D01*
X03463D02*
X03473D01*
X03441D02*
X03446D01*
X03425D02*
X03431D01*
X03396D02*
X03402D01*
X03382D02*
X03387D01*
X03354D02*
X03359D01*
X03679Y03538D02*
X03696D01*
X03652D02*
X03658D01*
X03626D02*
X03631D01*
X03587D02*
X03592D01*
X0357D02*
X03576D01*
X03543D02*
X03549D01*
X03504D02*
X03509D01*
X0349D02*
X03495D01*
X03463D02*
X03473D01*
X0344D02*
X03446D01*
X03424D02*
X0343D01*
X03397D02*
X03403D01*
X03381D02*
X03387D01*
X03354D02*
X03359D01*
X03678Y03539D02*
X03695D01*
X03651D02*
X03657D01*
X03626D02*
X03631D01*
X03587D02*
X03592D01*
X03569D02*
X03575D01*
X03543D02*
X03549D01*
X03504D02*
X03509D01*
X0349D02*
X03495D01*
X03463D02*
X03473D01*
X0344D02*
X03446D01*
X03424D02*
X0343D01*
X03397D02*
X03404D01*
X0338D02*
X03387D01*
X03354D02*
X03359D01*
X03678Y0354D02*
X03694D01*
X03649D02*
X03657D01*
X03626D02*
X03631D01*
X03587D02*
X03592D01*
X03568D02*
X03575D01*
X03543D02*
X03549D01*
X03504D02*
X03509D01*
X0349D02*
X03495D01*
X03463D02*
X03472D01*
X0344D02*
X03446D01*
X03423D02*
X03429D01*
X03398D02*
X03405D01*
X03379D02*
X03386D01*
X03354D02*
X03359D01*
X03677Y03541D02*
X03694D01*
X03648D02*
X03656D01*
X03626D02*
X03631D01*
X03587D02*
X03592D01*
X03567D02*
X03574D01*
X03543D02*
X03549D01*
X03504D02*
X03509D01*
X03491D02*
X03496D01*
X03464D02*
X03472D01*
X0344D02*
X03445D01*
X03421D02*
X03429D01*
X03399D02*
X03406D01*
X03378D02*
X03385D01*
X03354D02*
X03359D01*
X03677Y03542D02*
X03693D01*
X03646D02*
X03655D01*
X03626D02*
X03631D01*
X03587D02*
X03592D01*
X03565D02*
X03574D01*
X03543D02*
X03548D01*
X03504D02*
X03509D01*
X03491D02*
X03496D01*
X03464D02*
X03472D01*
X0344D02*
X03445D01*
X0342D02*
X03428D01*
X034D02*
X03408D01*
X03376D02*
X03385D01*
X03354D02*
X03359D01*
X03676Y03543D02*
X03693D01*
X03626D02*
X03654D01*
X03587D02*
X03618D01*
X03543D02*
X03573D01*
X03504D02*
X03535D01*
X03491D02*
X03496D01*
X03464D02*
X03472D01*
X03439D02*
X03445D01*
X03416D02*
X03427D01*
X03401D02*
X03411D01*
X03354D02*
X03384D01*
X03675Y03544D02*
X03692D01*
X03626D02*
X03652D01*
X03587D02*
X03618D01*
X03543D02*
X03571D01*
X03504D02*
X03535D01*
X03491D02*
X03497D01*
X03465D02*
X03471D01*
X03439D02*
X03445D01*
X03402D02*
X03426D01*
X03354D02*
X03383D01*
X03675Y03545D02*
X03691D01*
X03626D02*
X0365D01*
X03587D02*
X03618D01*
X03543D02*
X0357D01*
X03504D02*
X03535D01*
X03491D02*
X03497D01*
X03465D02*
X03471D01*
X03439D02*
X03444D01*
X03403D02*
X03424D01*
X03354D02*
X03381D01*
X03674Y03546D02*
X03691D01*
X03626D02*
X03648D01*
X03587D02*
X03618D01*
X03543D02*
X03568D01*
X03504D02*
X03535D01*
X03492D02*
X03497D01*
X03465D02*
X03471D01*
X03439D02*
X03444D01*
X03405D02*
X03423D01*
X03354D02*
X03379D01*
X03674Y03547D02*
X0369D01*
X03626D02*
X03644D01*
X03587D02*
X03618D01*
X03543D02*
X03564D01*
X03504D02*
X03535D01*
X03492D02*
X03497D01*
X03466D02*
X0347D01*
X03438D02*
X03444D01*
X03407D02*
X0342D01*
X03354D02*
X03375D01*
X03673Y03548D02*
X03689D01*
X03411D02*
X03416D01*
X03672Y03549D02*
X03689D01*
X03672Y0355D02*
X03688D01*
X03671Y03551D02*
X03688D01*
X0367Y03552D02*
X03687D01*
X0367Y03553D02*
X03686D01*
X03669Y03554D02*
X03686D01*
X03669Y03555D02*
X03685D01*
X03607D02*
X03623D01*
X0358D02*
X03594D01*
X03503D02*
X03566D01*
X03416D02*
X0343D01*
X0339D02*
X03404D01*
X03317D02*
X03332D01*
X03271D02*
X03284D01*
X03668Y03556D02*
X03685D01*
X03607D02*
X03624D01*
X0358D02*
X03594D01*
X03503D02*
X03566D01*
X03416D02*
X0343D01*
X03389D02*
X03404D01*
X03317D02*
X03332D01*
X0327D02*
X03284D01*
X03667Y03557D02*
X03684D01*
X03608D02*
X03625D01*
X0358D02*
X03594D01*
X03503D02*
X03566D01*
X03416D02*
X0343D01*
X03389D02*
X03403D01*
X03318D02*
X03332D01*
X0327D02*
X03284D01*
X03667Y03558D02*
X03683D01*
X03609D02*
X03625D01*
X0358D02*
X03594D01*
X03503D02*
X03566D01*
X03416D02*
X0343D01*
X03389D02*
X03403D01*
X03318D02*
X03332D01*
X0327D02*
X03284D01*
X03666Y03559D02*
X03683D01*
X03609D02*
X03626D01*
X0358D02*
X03594D01*
X03503D02*
X03566D01*
X03416D02*
X0343D01*
X03388D02*
X03403D01*
X03318D02*
X03333D01*
X03269D02*
X03285D01*
X03726Y0356D02*
X0373D01*
X03665D02*
X03682D01*
X0361D02*
X03626D01*
X0358D02*
X03594D01*
X03503D02*
X03566D01*
X03416D02*
X0343D01*
X03388D02*
X03402D01*
X03319D02*
X03333D01*
X03269D02*
X03285D01*
X03723Y03561D02*
X03733D01*
X03665D02*
X03681D01*
X03611D02*
X03627D01*
X0358D02*
X03594D01*
X03503D02*
X03566D01*
X03416D02*
X0343D01*
X03387D02*
X03402D01*
X03319D02*
X03334D01*
X03269D02*
X03286D01*
X03722Y03562D02*
X03734D01*
X03664D02*
X03681D01*
X03611D02*
X03628D01*
X0358D02*
X03594D01*
X03503D02*
X03566D01*
X03416D02*
X0343D01*
X03387D02*
X03401D01*
X0332D02*
X03334D01*
X03268D02*
X03286D01*
X0372Y03563D02*
X03736D01*
X03664D02*
X0368D01*
X03612D02*
X03628D01*
X0358D02*
X03594D01*
X03503D02*
X03566D01*
X03416D02*
X0343D01*
X03387D02*
X03401D01*
X0332D02*
X03334D01*
X03268D02*
X03286D01*
X03719Y03564D02*
X03737D01*
X03663D02*
X0368D01*
X03612D02*
X03629D01*
X0358D02*
X03594D01*
X03503D02*
X03566D01*
X03416D02*
X0343D01*
X03386D02*
X03401D01*
X0332D02*
X03335D01*
X03267D02*
X03286D01*
X03718Y03565D02*
X03737D01*
X03662D02*
X03679D01*
X03613D02*
X03629D01*
X0358D02*
X03594D01*
X03503D02*
X03566D01*
X03416D02*
X0343D01*
X03386D02*
X034D01*
X03321D02*
X03335D01*
X03267D02*
X03287D01*
X03718Y03566D02*
X03738D01*
X03662D02*
X03678D01*
X03614D02*
X0363D01*
X0358D02*
X03594D01*
X03503D02*
X03565D01*
X03416D02*
X0343D01*
X03386D02*
X034D01*
X03321D02*
X03335D01*
X03267D02*
X03287D01*
X03717Y03567D02*
X03739D01*
X03661D02*
X03677D01*
X03614D02*
X03631D01*
X0358D02*
X03594D01*
X03503D02*
X03517D01*
X03416D02*
X0343D01*
X03385D02*
X034D01*
X03321D02*
X03336D01*
X03266D02*
X03288D01*
X03717Y03568D02*
X03739D01*
X0366D02*
X03677D01*
X03615D02*
X03632D01*
X0358D02*
X03594D01*
X03503D02*
X03517D01*
X03416D02*
X0343D01*
X03385D02*
X03399D01*
X03322D02*
X03336D01*
X03266D02*
X03288D01*
X03716Y03569D02*
X03739D01*
X0366D02*
X03676D01*
X03616D02*
X03632D01*
X0358D02*
X03594D01*
X03503D02*
X03517D01*
X03416D02*
X0343D01*
X03384D02*
X03399D01*
X03322D02*
X03336D01*
X03266D02*
X03289D01*
X03716Y0357D02*
X0374D01*
X03659D02*
X03676D01*
X03616D02*
X03633D01*
X0358D02*
X03594D01*
X03503D02*
X03517D01*
X03416D02*
X0343D01*
X03384D02*
X03398D01*
X03323D02*
X03337D01*
X03265D02*
X03289D01*
X03716Y03571D02*
X0374D01*
X03659D02*
X03675D01*
X03617D02*
X03633D01*
X0358D02*
X03594D01*
X03503D02*
X03517D01*
X03416D02*
X0343D01*
X03384D02*
X03398D01*
X03323D02*
X03337D01*
X03265D02*
X03289D01*
X03714Y03572D02*
X03742D01*
X03658D02*
X03674D01*
X03618D02*
X03634D01*
X0358D02*
X03594D01*
X03503D02*
X03517D01*
X03416D02*
X0343D01*
X03383D02*
X03398D01*
X03324D02*
X03338D01*
X03264D02*
X03289D01*
X03712Y03573D02*
X03744D01*
X03657D02*
X03674D01*
X03618D02*
X03635D01*
X0358D02*
X03594D01*
X03503D02*
X03517D01*
X03416D02*
X0343D01*
X03383D02*
X03397D01*
X03324D02*
X03338D01*
X03264D02*
X0329D01*
X0371Y03574D02*
X03746D01*
X03657D02*
X03673D01*
X03619D02*
X03635D01*
X0358D02*
X03594D01*
X03503D02*
X03517D01*
X03416D02*
X0343D01*
X03383D02*
X03397D01*
X03324D02*
X03338D01*
X03264D02*
X0329D01*
X03708Y03575D02*
X03748D01*
X03656D02*
X03673D01*
X0362D02*
X03636D01*
X0358D02*
X03594D01*
X03503D02*
X03517D01*
X03416D02*
X0343D01*
X03382D02*
X03396D01*
X03325D02*
X03339D01*
X03278D02*
X03291D01*
X03263D02*
X03277D01*
X0374Y03576D02*
X03749D01*
X03717D02*
X03738D01*
X03707D02*
X03716D01*
X03656D02*
X03672D01*
X0362D02*
X03637D01*
X0358D02*
X03594D01*
X03503D02*
X03517D01*
X03416D02*
X0343D01*
X03382D02*
X03396D01*
X03325D02*
X03339D01*
X03278D02*
X03291D01*
X03263D02*
X03276D01*
X03742Y03577D02*
X03751D01*
X03718D02*
X03738D01*
X03705D02*
X03714D01*
X03655D02*
X03671D01*
X03621D02*
X03637D01*
X0358D02*
X03594D01*
X03503D02*
X03517D01*
X03416D02*
X0343D01*
X03382D02*
X03395D01*
X03326D02*
X03339D01*
X03278D02*
X03292D01*
X03263D02*
X03276D01*
X03744Y03578D02*
X03752D01*
X03718D02*
X03737D01*
X03704D02*
X03712D01*
X03654D02*
X03671D01*
X03621D02*
X03638D01*
X0358D02*
X03594D01*
X03503D02*
X03517D01*
X03416D02*
X0343D01*
X03381D02*
X03395D01*
X03326D02*
X0334D01*
X03278D02*
X03292D01*
X03262D02*
X03275D01*
X03746Y03579D02*
X03753D01*
X03719D02*
X03737D01*
X03703D02*
X0371D01*
X03654D02*
X0367D01*
X03622D02*
X03639D01*
X0358D02*
X03594D01*
X03503D02*
X03517D01*
X03416D02*
X0343D01*
X03381D02*
X03395D01*
X03326D02*
X0334D01*
X03279D02*
X03292D01*
X03262D02*
X03275D01*
X03747Y0358D02*
X03754D01*
X0372D02*
X03736D01*
X03702D02*
X03709D01*
X03653D02*
X03669D01*
X03623D02*
X03639D01*
X0358D02*
X03594D01*
X03503D02*
X03517D01*
X03416D02*
X0343D01*
X03327D02*
X03394D01*
X03279D02*
X03292D01*
X03261D02*
X03275D01*
X03748Y03581D02*
X03755D01*
X03721D02*
X03734D01*
X03701D02*
X03707D01*
X03654D02*
X03669D01*
X03623D02*
X0364D01*
X0358D02*
X03594D01*
X03503D02*
X03517D01*
X03416D02*
X0343D01*
X03327D02*
X03394D01*
X0328D02*
X03293D01*
X03261D02*
X03275D01*
X0375Y03582D02*
X03756D01*
X03723D02*
X03733D01*
X037D02*
X03706D01*
X03654D02*
X03668D01*
X03624D02*
X0364D01*
X0358D02*
X03594D01*
X03503D02*
X03517D01*
X03416D02*
X0343D01*
X03327D02*
X03394D01*
X0328D02*
X03293D01*
X03261D02*
X03274D01*
X03751Y03583D02*
X03757D01*
X03726D02*
X0373D01*
X03699D02*
X03705D01*
X03655D02*
X03668D01*
X03625D02*
X03641D01*
X0358D02*
X03594D01*
X03503D02*
X03517D01*
X03416D02*
X0343D01*
X03328D02*
X03393D01*
X0328D02*
X03294D01*
X0326D02*
X03274D01*
X03752Y03584D02*
X03758D01*
X03698D02*
X03704D01*
X03655D02*
X03667D01*
X03625D02*
X03642D01*
X0358D02*
X03594D01*
X03503D02*
X03517D01*
X03416D02*
X0343D01*
X03328D02*
X03393D01*
X03281D02*
X03294D01*
X0326D02*
X03273D01*
X03753Y03585D02*
X03758D01*
X03697D02*
X03703D01*
X03656D02*
X03666D01*
X03626D02*
X03643D01*
X0358D02*
X03594D01*
X03503D02*
X03517D01*
X03416D02*
X0343D01*
X03329D02*
X03392D01*
X03281D02*
X03295D01*
X0326D02*
X03273D01*
X03754Y03586D02*
X03759D01*
X03697D02*
X03702D01*
X03657D02*
X03666D01*
X03627D02*
X03643D01*
X0358D02*
X03594D01*
X03503D02*
X03517D01*
X03416D02*
X0343D01*
X03329D02*
X03392D01*
X03281D02*
X03295D01*
X03259D02*
X03273D01*
X03754Y03587D02*
X0376D01*
X03696D02*
X03702D01*
X03657D02*
X03665D01*
X03627D02*
X03644D01*
X0358D02*
X03594D01*
X03503D02*
X03517D01*
X03416D02*
X0343D01*
X03329D02*
X03392D01*
X03281D02*
X03295D01*
X03259D02*
X03272D01*
X03755Y03588D02*
X0376D01*
X03696D02*
X03701D01*
X03658D02*
X03665D01*
X03628D02*
X03644D01*
X0358D02*
X03594D01*
X03503D02*
X03517D01*
X03416D02*
X0343D01*
X0333D02*
X03392D01*
X03282D02*
X03295D01*
X03258D02*
X03272D01*
X03756Y03589D02*
X03761D01*
X03695D02*
X037D01*
X03659D02*
X03664D01*
X03628D02*
X03645D01*
X0358D02*
X03594D01*
X03503D02*
X03517D01*
X03416D02*
X0343D01*
X0333D02*
X03391D01*
X03282D02*
X03296D01*
X03258D02*
X03272D01*
X03756Y0359D02*
X03761D01*
X03694D02*
X037D01*
X03659D02*
X03663D01*
X03629D02*
X03646D01*
X0358D02*
X03594D01*
X03503D02*
X03517D01*
X03416D02*
X0343D01*
X0333D02*
X03391D01*
X03283D02*
X03296D01*
X03258D02*
X03272D01*
X03757Y03591D02*
X03762D01*
X03694D02*
X03699D01*
X0366D02*
X03663D01*
X0363D02*
X03646D01*
X0358D02*
X03594D01*
X03503D02*
X03517D01*
X03416D02*
X0343D01*
X03331D02*
X0339D01*
X03283D02*
X03297D01*
X03258D02*
X03271D01*
X03757Y03592D02*
X03763D01*
X03694D02*
X03698D01*
X0366D02*
X03662D01*
X03631D02*
X03647D01*
X0358D02*
X03594D01*
X03503D02*
X03517D01*
X03416D02*
X0343D01*
X03376D02*
X0339D01*
X03331D02*
X03345D01*
X03283D02*
X03297D01*
X03257D02*
X03271D01*
X03758Y03593D02*
X03763D01*
X03693D02*
X03698D01*
X03631D02*
X03648D01*
X0358D02*
X03594D01*
X03503D02*
X03517D01*
X03416D02*
X03459D01*
X03376D02*
X03389D01*
X03332D02*
X03345D01*
X03284D02*
X03298D01*
X03257D02*
X0327D01*
X03758Y03594D02*
X03763D01*
X03693D02*
X03698D01*
X03632D02*
X03648D01*
X0358D02*
X03594D01*
X03503D02*
X03517D01*
X03416D02*
X03466D01*
X03375D02*
X03389D01*
X03332D02*
X03346D01*
X03284D02*
X03298D01*
X03256D02*
X0327D01*
X03759Y03595D02*
X03764D01*
X03691D02*
X03697D01*
X03632D02*
X03649D01*
X0358D02*
X03594D01*
X03503D02*
X03517D01*
X03416D02*
X03469D01*
X03375D02*
X03389D01*
X03332D02*
X03346D01*
X03284D02*
X03298D01*
X03256D02*
X03269D01*
X03758Y03596D02*
X03768D01*
X03688D02*
X03697D01*
X03633D02*
X0365D01*
X0358D02*
X03594D01*
X03503D02*
X03517D01*
X03416D02*
X03471D01*
X03375D02*
X03388D01*
X03332D02*
X03346D01*
X03285D02*
X03298D01*
X03255D02*
X03269D01*
X03756Y03597D02*
X0377D01*
X03686D02*
X03699D01*
X03634D02*
X03651D01*
X0358D02*
X03594D01*
X03503D02*
X03517D01*
X03416D02*
X03474D01*
X03374D02*
X03388D01*
X03333D02*
X03347D01*
X03285D02*
X03299D01*
X03255D02*
X03269D01*
X03755Y03598D02*
X03771D01*
X03685D02*
X03701D01*
X03634D02*
X03651D01*
X0358D02*
X03594D01*
X03503D02*
X03517D01*
X03416D02*
X03475D01*
X03374D02*
X03388D01*
X03333D02*
X03347D01*
X03286D02*
X03299D01*
X03255D02*
X03269D01*
X03754Y03599D02*
X03772D01*
X03684D02*
X03702D01*
X03635D02*
X03652D01*
X0358D02*
X03594D01*
X03503D02*
X03517D01*
X03416D02*
X03477D01*
X03374D02*
X03387D01*
X03334D02*
X03347D01*
X03286D02*
X033D01*
X03255D02*
X03268D01*
X03753Y036D02*
X03773D01*
X03683D02*
X03702D01*
X03636D02*
X03652D01*
X0358D02*
X03594D01*
X03503D02*
X03559D01*
X03416D02*
X03478D01*
X03373D02*
X03387D01*
X03334D02*
X03348D01*
X03286D02*
X033D01*
X03254D02*
X03268D01*
X03753Y03601D02*
X03773D01*
X03682D02*
X03703D01*
X03636D02*
X03653D01*
X0358D02*
X03594D01*
X03503D02*
X03559D01*
X03416D02*
X03479D01*
X03373D02*
X03386D01*
X03335D02*
X03348D01*
X03286D02*
X03301D01*
X03254D02*
X03267D01*
X03752Y03602D02*
X03774D01*
X03682D02*
X03703D01*
X03637D02*
X03654D01*
X0358D02*
X03594D01*
X03503D02*
X03559D01*
X03416D02*
X0348D01*
X03372D02*
X03386D01*
X03335D02*
X03349D01*
X03287D02*
X03301D01*
X03253D02*
X03267D01*
X03752Y03603D02*
X03774D01*
X03682D02*
X03704D01*
X03638D02*
X03654D01*
X0358D02*
X03594D01*
X03503D02*
X03559D01*
X03416D02*
X03481D01*
X03372D02*
X03386D01*
X03335D02*
X03349D01*
X03287D02*
X03301D01*
X03253D02*
X03267D01*
X03752Y03604D02*
X03774D01*
X03682D02*
X03704D01*
X03638D02*
X03654D01*
X0358D02*
X03594D01*
X03503D02*
X03559D01*
X03416D02*
X03482D01*
X03372D02*
X03385D01*
X03336D02*
X03349D01*
X03287D02*
X03301D01*
X03252D02*
X03266D01*
X03751Y03605D02*
X03774D01*
X03681D02*
X03704D01*
X03638D02*
X03654D01*
X0358D02*
X03594D01*
X03503D02*
X03559D01*
X0346D02*
X03483D01*
X03416D02*
X0343D01*
X03371D02*
X03385D01*
X03336D02*
X0335D01*
X03288D02*
X03302D01*
X03252D02*
X03266D01*
X03751Y03606D02*
X03774D01*
X03681D02*
X03704D01*
X03637D02*
X03653D01*
X0358D02*
X03594D01*
X03503D02*
X03559D01*
X03464D02*
X03483D01*
X03416D02*
X0343D01*
X03371D02*
X03384D01*
X03337D02*
X0335D01*
X03288D02*
X03302D01*
X03252D02*
X03266D01*
X03751Y03607D02*
X03774D01*
X03681D02*
X03704D01*
X03637D02*
X03653D01*
X0358D02*
X03594D01*
X03503D02*
X03559D01*
X03465D02*
X03484D01*
X03416D02*
X0343D01*
X03371D02*
X03384D01*
X03337D02*
X0335D01*
X03289D02*
X03303D01*
X03252D02*
X03265D01*
X03751Y03608D02*
X03774D01*
X03681D02*
X03704D01*
X03636D02*
X03652D01*
X0358D02*
X03594D01*
X03503D02*
X03559D01*
X03467D02*
X03484D01*
X03416D02*
X0343D01*
X0337D02*
X03384D01*
X03337D02*
X03351D01*
X03289D02*
X03303D01*
X03251D02*
X03265D01*
X03752Y03609D02*
X03774D01*
X03682D02*
X03704D01*
X03635D02*
X03651D01*
X0358D02*
X03594D01*
X03503D02*
X03559D01*
X03469D02*
X03485D01*
X03416D02*
X0343D01*
X0337D02*
X03383D01*
X03338D02*
X03351D01*
X03289D02*
X03304D01*
X03251D02*
X03265D01*
X03752Y0361D02*
X03774D01*
X03682D02*
X03704D01*
X03635D02*
X03651D01*
X0358D02*
X03594D01*
X03503D02*
X03559D01*
X03469D02*
X03485D01*
X03416D02*
X0343D01*
X03369D02*
X03383D01*
X03338D02*
X03352D01*
X03289D02*
X03304D01*
X0325D02*
X03264D01*
X03752Y03611D02*
X03774D01*
X03682D02*
X03703D01*
X03634D02*
X0365D01*
X0358D02*
X03594D01*
X03503D02*
X03559D01*
X0347D02*
X03486D01*
X03416D02*
X0343D01*
X03369D02*
X03383D01*
X03338D02*
X03352D01*
X0329D02*
X03304D01*
X0325D02*
X03264D01*
X03753Y03612D02*
X03773D01*
X03683D02*
X03703D01*
X03633D02*
X03649D01*
X0358D02*
X03594D01*
X03503D02*
X03517D01*
X03471D02*
X03486D01*
X03416D02*
X0343D01*
X03369D02*
X03382D01*
X03339D02*
X03352D01*
X0329D02*
X03305D01*
X03249D02*
X03264D01*
X03754Y03613D02*
X03773D01*
X03683D02*
X03703D01*
X03633D02*
X03649D01*
X0358D02*
X03594D01*
X03503D02*
X03517D01*
X03472D02*
X03486D01*
X03416D02*
X0343D01*
X03369D02*
X03382D01*
X03339D02*
X03352D01*
X03291D02*
X03305D01*
X03249D02*
X03263D01*
X03754Y03614D02*
X03772D01*
X03684D02*
X03701D01*
X03632D02*
X03648D01*
X0358D02*
X03594D01*
X03503D02*
X03517D01*
X03472D02*
X03486D01*
X03416D02*
X0343D01*
X03368D02*
X03381D01*
X0334D02*
X03353D01*
X03291D02*
X03305D01*
X03249D02*
X03263D01*
X03755Y03615D02*
X03771D01*
X03685D02*
X037D01*
X03631D02*
X03648D01*
X0358D02*
X03594D01*
X03503D02*
X03517D01*
X03472D02*
X03487D01*
X03416D02*
X0343D01*
X03368D02*
X03381D01*
X0334D02*
X03353D01*
X03291D02*
X03306D01*
X03249D02*
X03263D01*
X03756Y03616D02*
X0377D01*
X03686D02*
X03699D01*
X0366D02*
X03662D01*
X03631D02*
X03647D01*
X0358D02*
X03594D01*
X03503D02*
X03517D01*
X03473D02*
X03487D01*
X03416D02*
X0343D01*
X03367D02*
X03381D01*
X03341D02*
X03354D01*
X03292D02*
X03306D01*
X03248D02*
X03262D01*
X03758Y03617D02*
X03768D01*
X03688D02*
X03698D01*
X0366D02*
X03663D01*
X0363D02*
X03646D01*
X0358D02*
X03594D01*
X03503D02*
X03517D01*
X03473D02*
X03487D01*
X03416D02*
X0343D01*
X03367D02*
X0338D01*
X03341D02*
X03354D01*
X03292D02*
X03306D01*
X03248D02*
X03262D01*
X03759Y03618D02*
X03763D01*
X03692D02*
X03697D01*
X03659D02*
X03663D01*
X03629D02*
X03646D01*
X0358D02*
X03594D01*
X03503D02*
X03517D01*
X03473D02*
X03487D01*
X03416D02*
X0343D01*
X03367D02*
X0338D01*
X03341D02*
X03355D01*
X03292D02*
X03307D01*
X03247D02*
X03262D01*
X03758Y03619D02*
X03763D01*
X03693D02*
X03698D01*
X03659D02*
X03664D01*
X03629D02*
X03645D01*
X0358D02*
X03594D01*
X03503D02*
X03517D01*
X03473D02*
X03487D01*
X03416D02*
X0343D01*
X03366D02*
X0338D01*
X03341D02*
X03355D01*
X03293D02*
X03307D01*
X03247D02*
X03261D01*
X03758Y0362D02*
X03763D01*
X03693D02*
X03698D01*
X03658D02*
X03665D01*
X03628D02*
X03644D01*
X0358D02*
X03594D01*
X03503D02*
X03517D01*
X03473D02*
X03487D01*
X03416D02*
X0343D01*
X03366D02*
X03379D01*
X03342D02*
X03355D01*
X03293D02*
X03308D01*
X03246D02*
X03261D01*
X03757Y03621D02*
X03762D01*
X03694D02*
X03699D01*
X03657D02*
X03665D01*
X03627D02*
X03644D01*
X0358D02*
X03594D01*
X03503D02*
X03517D01*
X03474D02*
X03487D01*
X03416D02*
X0343D01*
X03366D02*
X03379D01*
X03342D02*
X03355D01*
X03293D02*
X03308D01*
X03246D02*
X03261D01*
X03757Y03622D02*
X03762D01*
X03694D02*
X03699D01*
X03657D02*
X03666D01*
X03627D02*
X03643D01*
X0358D02*
X03594D01*
X03503D02*
X03517D01*
X03474D02*
X03487D01*
X03416D02*
X0343D01*
X03365D02*
X03378D01*
X03343D02*
X03356D01*
X03294D02*
X03308D01*
X03246D02*
X0326D01*
X03756Y03623D02*
X03761D01*
X03694D02*
X037D01*
X03656D02*
X03666D01*
X03626D02*
X03642D01*
X0358D02*
X03594D01*
X03503D02*
X03517D01*
X03474D02*
X03487D01*
X03416D02*
X0343D01*
X03365D02*
X03378D01*
X03343D02*
X03356D01*
X03294D02*
X03309D01*
X03246D02*
X0326D01*
X03756Y03624D02*
X03761D01*
X03695D02*
X037D01*
X03655D02*
X03667D01*
X03626D02*
X03642D01*
X0358D02*
X03594D01*
X03503D02*
X03517D01*
X03474D02*
X03487D01*
X03416D02*
X0343D01*
X03364D02*
X03378D01*
X03343D02*
X03357D01*
X03295D02*
X03309D01*
X03245D02*
X0326D01*
X03755Y03625D02*
X0376D01*
X03695D02*
X03701D01*
X03655D02*
X03668D01*
X03625D02*
X03641D01*
X0358D02*
X03594D01*
X03503D02*
X03517D01*
X03473D02*
X03487D01*
X03416D02*
X0343D01*
X03364D02*
X03377D01*
X03344D02*
X03357D01*
X03295D02*
X03309D01*
X03245D02*
X03259D01*
X03754Y03626D02*
X0376D01*
X03696D02*
X03702D01*
X03654D02*
X03668D01*
X03624D02*
X0364D01*
X0358D02*
X03594D01*
X03503D02*
X03517D01*
X03473D02*
X03487D01*
X03416D02*
X0343D01*
X03364D02*
X03377D01*
X03344D02*
X03357D01*
X03295D02*
X0331D01*
X03244D02*
X03259D01*
X03754Y03627D02*
X03759D01*
X03697D02*
X03703D01*
X03654D02*
X03669D01*
X03623D02*
X0364D01*
X0358D02*
X03594D01*
X03503D02*
X03517D01*
X03473D02*
X03487D01*
X03416D02*
X0343D01*
X03363D02*
X03377D01*
X03344D02*
X03358D01*
X03295D02*
X0331D01*
X03244D02*
X03258D01*
X03752Y03628D02*
X03758D01*
X03698D02*
X03703D01*
X03654D02*
X0367D01*
X03623D02*
X03639D01*
X03503D02*
X03517D01*
X03473D02*
X03487D01*
X03416D02*
X0343D01*
X03363D02*
X03376D01*
X03345D02*
X03358D01*
X03296D02*
X0331D01*
X03244D02*
X03258D01*
X03752Y03629D02*
X03757D01*
X03698D02*
X03704D01*
X03654D02*
X0367D01*
X03622D02*
X03639D01*
X03503D02*
X03517D01*
X03472D02*
X03487D01*
X03416D02*
X0343D01*
X03363D02*
X03376D01*
X03345D02*
X03358D01*
X03296D02*
X03311D01*
X03243D02*
X03258D01*
X03751Y0363D02*
X03757D01*
X03726D02*
X03729D01*
X03699D02*
X03705D01*
X03655D02*
X03671D01*
X03622D02*
X03638D01*
X03503D02*
X03517D01*
X03472D02*
X03486D01*
X03416D02*
X0343D01*
X03362D02*
X03375D01*
X03346D02*
X03359D01*
X03297D02*
X03311D01*
X03243D02*
X03258D01*
X03749Y03631D02*
X03756D01*
X03723D02*
X03733D01*
X037D02*
X03706D01*
X03655D02*
X03672D01*
X03621D02*
X03637D01*
X03503D02*
X03517D01*
X03472D02*
X03486D01*
X03416D02*
X0343D01*
X03362D02*
X03375D01*
X03346D02*
X03359D01*
X03297D02*
X03312D01*
X03243D02*
X03257D01*
X03748Y03632D02*
X03755D01*
X03721D02*
X03735D01*
X03701D02*
X03708D01*
X03656D02*
X03672D01*
X0362D02*
X03637D01*
X03503D02*
X03517D01*
X03471D02*
X03486D01*
X03416D02*
X0343D01*
X03361D02*
X03375D01*
X03346D02*
X0336D01*
X03297D02*
X03312D01*
X03242D02*
X03257D01*
X03747Y03633D02*
X03754D01*
X0372D02*
X03736D01*
X03702D02*
X03709D01*
X03657D02*
X03673D01*
X0362D02*
X03636D01*
X03503D02*
X03517D01*
X03471D02*
X03486D01*
X03416D02*
X0343D01*
X03361D02*
X03374D01*
X03347D02*
X0336D01*
X03298D02*
X03312D01*
X03242D02*
X03257D01*
X03745Y03634D02*
X03753D01*
X03719D02*
X03737D01*
X03703D02*
X0371D01*
X03657D02*
X03674D01*
X03619D02*
X03635D01*
X03503D02*
X03517D01*
X0347D02*
X03486D01*
X03416D02*
X0343D01*
X03361D02*
X03374D01*
X03347D02*
X0336D01*
X03298D02*
X03313D01*
X03241D02*
X03256D01*
X03744Y03635D02*
X03752D01*
X03718D02*
X03737D01*
X03704D02*
X03712D01*
X03658D02*
X03674D01*
X03618D02*
X03635D01*
X03503D02*
X03517D01*
X03469D02*
X03485D01*
X03416D02*
X0343D01*
X03348D02*
X03373D01*
X03298D02*
X03313D01*
X03241D02*
X03256D01*
X03742Y03636D02*
X03751D01*
X03718D02*
X03738D01*
X03705D02*
X03714D01*
X03658D02*
X03675D01*
X03618D02*
X03634D01*
X03503D02*
X03517D01*
X03468D02*
X03485D01*
X03416D02*
X0343D01*
X03348D02*
X03373D01*
X03299D02*
X03313D01*
X03241D02*
X03255D01*
X03739Y03637D02*
X03749D01*
X03717D02*
X03738D01*
X03707D02*
X03716D01*
X03659D02*
X03676D01*
X03617D02*
X03633D01*
X03503D02*
X03517D01*
X03467D02*
X03484D01*
X03416D02*
X0343D01*
X03349D02*
X03372D01*
X03299D02*
X03314D01*
X0324D02*
X03255D01*
X03708Y03638D02*
X03748D01*
X0366D02*
X03676D01*
X03617D02*
X03633D01*
X03503D02*
X03517D01*
X03465D02*
X03483D01*
X03416D02*
X0343D01*
X03349D02*
X03372D01*
X03299D02*
X03314D01*
X0324D02*
X03255D01*
X0371Y03639D02*
X03746D01*
X0366D02*
X03677D01*
X03616D02*
X03632D01*
X03585D02*
X03589D01*
X03503D02*
X03517D01*
X03463D02*
X03483D01*
X03416D02*
X0343D01*
X03349D02*
X03372D01*
X033D02*
X03315D01*
X0324D02*
X03254D01*
X03712Y0364D02*
X03744D01*
X03661D02*
X03677D01*
X03615D02*
X03631D01*
X03582D02*
X03591D01*
X03503D02*
X03517D01*
X03461D02*
X03482D01*
X03416D02*
X0343D01*
X03349D02*
X03372D01*
X033D02*
X03315D01*
X03239D02*
X03254D01*
X03714Y03641D02*
X03742D01*
X03662D02*
X03678D01*
X03614D02*
X03631D01*
X03581D02*
X03593D01*
X03503D02*
X03517D01*
X03456D02*
X03482D01*
X03416D02*
X0343D01*
X0335D02*
X03371D01*
X033D02*
X03315D01*
X03239D02*
X03254D01*
X03716Y03642D02*
X0374D01*
X03662D02*
X03679D01*
X03614D02*
X0363D01*
X0358D02*
X03594D01*
X03503D02*
X03565D01*
X03416D02*
X03481D01*
X0335D02*
X03371D01*
X03301D02*
X03316D01*
X03238D02*
X03253D01*
X03716Y03643D02*
X03739D01*
X03663D02*
X0368D01*
X03613D02*
X0363D01*
X0358D02*
X03594D01*
X03503D02*
X03565D01*
X03416D02*
X0348D01*
X03351D02*
X0337D01*
X03301D02*
X03316D01*
X03238D02*
X03253D01*
X03716Y03644D02*
X03739D01*
X03663D02*
X0368D01*
X03613D02*
X03629D01*
X0358D02*
X03594D01*
X03503D02*
X03565D01*
X03416D02*
X03479D01*
X03351D02*
X0337D01*
X03301D02*
X03317D01*
X03238D02*
X03252D01*
X03717Y03645D02*
X03739D01*
X03664D02*
X03681D01*
X03612D02*
X03628D01*
X03579D02*
X03595D01*
X03503D02*
X03565D01*
X03416D02*
X03478D01*
X03352D02*
X03369D01*
X03302D02*
X03317D01*
X03237D02*
X03252D01*
X03717Y03646D02*
X03739D01*
X03665D02*
X03681D01*
X03611D02*
X03628D01*
X03579D02*
X03595D01*
X03503D02*
X03565D01*
X03416D02*
X03476D01*
X03352D02*
X03369D01*
X03302D02*
X03317D01*
X03237D02*
X03252D01*
X03718Y03647D02*
X03738D01*
X03665D02*
X03682D01*
X03611D02*
X03627D01*
X03579D02*
X03595D01*
X03503D02*
X03565D01*
X03416D02*
X03475D01*
X03352D02*
X03369D01*
X03303D02*
X03318D01*
X03237D02*
X03252D01*
X03719Y03648D02*
X03737D01*
X03666D02*
X03682D01*
X0361D02*
X03626D01*
X03579D02*
X03595D01*
X03503D02*
X03565D01*
X03416D02*
X03473D01*
X03353D02*
X03368D01*
X03303D02*
X03318D01*
X03236D02*
X03251D01*
X03719Y03649D02*
X03737D01*
X03667D02*
X03683D01*
X03609D02*
X03626D01*
X0358D02*
X03594D01*
X03503D02*
X03565D01*
X03416D02*
X03471D01*
X03353D02*
X03368D01*
X03303D02*
X03318D01*
X03236D02*
X03251D01*
X0372Y0365D02*
X03736D01*
X03667D02*
X03684D01*
X03609D02*
X03625D01*
X0358D02*
X03594D01*
X03503D02*
X03565D01*
X03416D02*
X03469D01*
X03353D02*
X03368D01*
X03303D02*
X03319D01*
X03235D02*
X03251D01*
X03722Y03651D02*
X03734D01*
X03668D02*
X03685D01*
X03608D02*
X03624D01*
X0358D02*
X03593D01*
X03503D02*
X03565D01*
X03416D02*
X03466D01*
X03354D02*
X03367D01*
X03304D02*
X03319D01*
X03235D02*
X0325D01*
X03724Y03652D02*
X03732D01*
X03668D02*
X03685D01*
X03608D02*
X03624D01*
X03581D02*
X03593D01*
X03503D02*
X03565D01*
X03416D02*
X03461D01*
X03354D02*
X03367D01*
X03304D02*
X03319D01*
X03235D02*
X0325D01*
X0367Y03653D02*
X03685D01*
X03582D02*
X03591D01*
G54D100*
X02533Y03642D02*
Y03708D01*
X02495Y03642D02*
X02533D01*
Y03708D02*
X02533Y03708D01*
X02493D02*
X02533D01*
X02407Y03708D02*
X02446D01*
X02407D02*
X02407Y03708D01*
Y03642D02*
X02445D01*
X02407D02*
Y03708D01*
M02*