%FSTAX23Y23*%
%MOIN*%
%SFA1B1*%

%IPPOS*%
%AMD189*
4,1,4,0.002500,-0.008600,0.008600,-0.002500,-0.002500,0.008600,-0.008600,0.002500,0.002500,-0.008600,0.0*
%
%AMD190*
4,1,4,0.013900,0.000000,0.000000,0.013900,-0.013900,0.000000,0.000000,-0.013900,0.013900,0.000000,0.0*
%
%ADD101R,0.013900X0.009900*%
%ADD102R,0.011100X0.017000*%
%ADD109R,0.043400X0.070900*%
%ADD110R,0.031600X0.031600*%
%ADD113R,0.037300X0.039400*%
%ADD114R,0.037400X0.039400*%
%ADD115R,0.011900X0.027600*%
%ADD117R,0.017000X0.011100*%
%ADD119R,0.070900X0.043400*%
%ADD120R,0.031600X0.031600*%
%ADD121R,0.008700X0.015800*%
%ADD122R,0.019800X0.019800*%
%ADD127R,0.009900X0.013900*%
%ADD183O,0.078700X0.059100*%
%ADD184R,0.033500X0.037500*%
%ADD185R,0.055200X0.063100*%
%ADD186R,0.061100X0.074900*%
%ADD187R,0.053200X0.015800*%
%ADD188R,0.040100X0.030100*%
G04~CAMADD=189~9~0.0~0.0~87.0~158.0~0.0~0.0~0~0.0~0.0~0.0~0.0~0~0.0~0.0~0.0~0.0~0~0.0~0.0~0.0~225.0~172.0~171.0*
%ADD189D189*%
G04~CAMADD=190~10~0.0~198.0~0.0~0.0~0.0~0.0~0~0.0~0.0~0.0~0.0~0~0.0~0.0~0.0~0.0~0~0.0~0.0~0.0~315.0~198.0~0.0*
%ADD190D190*%
%ADD191R,0.098500X0.098500*%
%ADD192R,0.015800X0.008700*%
%ADD193R,0.019800X0.019800*%
%LNvapeix_mini_pcb-1*%
%LPD*%
G54D101*
X03448Y03445D03*
Y03426D03*
X0343Y0323D03*
Y03249D03*
X02246Y03293D03*
Y03312D03*
X02225Y03293D03*
Y03312D03*
X02884Y03443D03*
Y03424D03*
G54D102*
X04398Y03341D03*
X04378D03*
X04161Y03381D03*
X04141D03*
Y03346D03*
X04161D03*
X02826Y035D03*
X02846D03*
X04225Y0352D03*
X04245D03*
X041Y0354D03*
X0408D03*
X04225Y03556D03*
X04245D03*
X04109Y03163D03*
X04129D03*
X04258Y03176D03*
X04238D03*
X0398Y03328D03*
X0396D03*
X04173Y03224D03*
X04153D03*
X0411Y03344D03*
X0409D03*
G54D109*
X02327Y03505D03*
X02986Y03586D03*
G54D110*
X02327Y03576D03*
X02986Y03515D03*
G54D113*
X04301Y03426D03*
G54D114*
X04352Y03426D03*
G54D115*
X04365Y03375D03*
X04339D03*
X04288D03*
X04314D03*
Y03447D03*
X04288D03*
X04339D03*
X04365D03*
G54D117*
X02846Y03464D03*
Y03444D03*
X04063Y03395D03*
Y03415D03*
X04101Y03497D03*
Y03477D03*
X04029Y03395D03*
Y03415D03*
X0419Y03105D03*
Y03085D03*
X04047Y03279D03*
Y03259D03*
X03827Y03592D03*
Y03612D03*
X03927Y03592D03*
Y03612D03*
X04024Y03592D03*
Y03612D03*
X04148Y03627D03*
Y03607D03*
X04164Y03477D03*
Y03497D03*
G54D119*
X04351Y03555D03*
G54D120*
X04422Y03555D03*
G54D121*
X04164Y03527D03*
X0418D03*
X04148Y0357D03*
X04132D03*
G54D122*
X04173Y03556D03*
X0414Y03539D03*
G54D127*
X03256Y03252D03*
X03275D03*
X03091Y03306D03*
X0311D03*
Y03429D03*
X03091D03*
X0347Y03252D03*
X03451D03*
X03256Y033D03*
X03275D03*
X02186Y03689D03*
X02205D03*
X022Y03543D03*
X02181D03*
X0222D03*
X02239D03*
X0416Y03315D03*
X04141D03*
X03648Y0328D03*
X03629D03*
X03649Y0325D03*
X0363D03*
G54D183*
X02072Y03493D03*
Y03234D03*
G54D184*
X03079Y03338D03*
X03124D03*
Y03395D03*
X03079D03*
G54D185*
X02169Y03238D03*
Y0349D03*
G54D186*
X02072Y03411D03*
Y03316D03*
G54D187*
X02178Y03415D03*
Y03389D03*
Y03312D03*
Y03338D03*
Y03364D03*
G54D188*
X02254Y03652D03*
Y03577D03*
X02171Y03614D03*
G54D189*
X04352Y03283D03*
X04364Y03294D03*
X04311Y03302D03*
X043Y03291D03*
G54D190*
X04338Y0331D03*
X04326Y03275D03*
G54D191*
X02656Y03655D03*
X02798Y03656D03*
G54D192*
X04058Y03343D03*
Y03359D03*
X04015Y03327D03*
Y03311D03*
X04161Y03159D03*
Y03143D03*
X04204Y03175D03*
Y03191D03*
G54D193*
X04029Y03352D03*
X04046Y03319D03*
X0419Y0315D03*
X04173Y03183D03*
M02*