%FSTAX23Y23*%
%MOIN*%
%SFA1B1*%

%IPPOS*%
%ADD46C,0.005900*%
%ADD59C,0.019700*%
%ADD60C,0.059100*%
%ADD61C,0.177200*%
%ADD67C,0.015700*%
%ADD69C,0.027600*%
%LNvapeix_mini_pcb-1*%
%LPD*%
G54D46*
X04334Y03124D02*
X0437Y0316D01*
X04072Y0325D02*
X04198Y03124D01*
X04324Y03148D02*
X04345Y03168D01*
X04274Y03148D02*
X04324D01*
X04329Y03136D02*
X04359Y03165D01*
X04203Y03136D02*
X04329D01*
X04077Y03263D02*
X04203Y03136D01*
X04198Y03124D02*
X04334D01*
X04256Y03166D02*
X04274Y03148D01*
X04345Y03168D02*
Y03267D01*
X04359Y03165D02*
Y03221D01*
X0437Y0316D02*
Y03216D01*
X032Y03372D02*
X03249Y03323D01*
Y0326D02*
Y03323D01*
Y0326D02*
X033Y03208D01*
X03394*
X03423Y03178*
X03833*
X04001Y03346*
X04161*
X03419Y03167D02*
X03839D01*
X03394Y03192D02*
X03419Y03167D01*
X03355Y03192D02*
X03394D01*
X03336Y0314D02*
X03845D01*
X0335Y03154D02*
X03842D01*
X03951Y03263*
X03845Y0314D02*
X03956Y0325D01*
X04072*
X03951Y03263D02*
X04077D01*
X03948Y03276D02*
X04083D01*
X03839Y03167D02*
X03948Y03276D01*
X04198Y03226D02*
X04239Y03267D01*
X04132Y03226D02*
X04198D01*
X04083Y03276D02*
X04132Y03226D01*
X04235Y03317D02*
D01*
X04225Y03327D02*
X04235Y03317D01*
X04225Y03327D02*
D01*
X04218Y03334D02*
Y03386D01*
Y03334D02*
X04225Y03327D01*
X04235Y03317D02*
X04256Y03296D01*
X04241Y03379D02*
X04267Y03353D01*
Y03178D02*
Y03353D01*
Y03178D02*
X04281Y03165D01*
X04256Y03166D02*
Y03296D01*
X0414Y03463D02*
X04218Y03386D01*
X04106Y03463D02*
X0414D01*
X04229Y03374D02*
Y03391D01*
X04145Y03475D02*
X04229Y03391D01*
X0411Y03475D02*
X04145D01*
X04241Y03379D02*
Y03396D01*
X0415Y03487D02*
X04241Y03396D01*
X04115Y03487D02*
X0415D01*
X04398Y03243D02*
X04457D01*
X0437Y03216D02*
X04398Y03243D01*
X04359Y03221D02*
X04412Y03274D01*
Y03303*
X04431Y03322*
X04457*
X03321Y03183D02*
X0335Y03154D01*
X04229Y03374D02*
X04242Y03362D01*
Y03334D02*
Y03362D01*
X04048Y03521D02*
X04106Y03463D01*
X04269Y03499D02*
X0428Y03489D01*
X0412Y03499D02*
X04269D01*
X04061Y03558D02*
X0412Y03499D01*
X04056Y03547D02*
X04115Y03487D01*
X04051Y03534D02*
X0411Y03475D01*
X03768Y03521D02*
X04048D01*
X03765Y03534D02*
X04051D01*
X03761Y03547D02*
X04056D01*
X03756Y03558D02*
X04061D01*
X036Y03402D02*
X03756Y03558D01*
X0357Y03402D02*
X036D01*
X03561Y03394D02*
X0357Y03402D01*
X03515Y03394D02*
X03561D01*
X03496Y03375D02*
X03515Y03394D01*
X03496Y03321D02*
Y03375D01*
Y03321D02*
X03512Y03305D01*
X036Y03386D02*
X03761Y03547D01*
X03577Y03386D02*
X036D01*
X04345Y03267D02*
X04391Y03313D01*
X03521Y0342D02*
Y03459D01*
X03521Y0342D02*
X03521Y0342D01*
X03503Y03478D02*
X03521Y03459D01*
X03284Y03478D02*
X03503D01*
X03493Y03465D02*
X03505Y03453D01*
X03276Y03465D02*
X03493D01*
X03505Y03438D02*
Y03453D01*
X03211Y03551D02*
X03284Y03478D01*
X03205Y03536D02*
X03276Y03465D01*
X02944Y03551D02*
X03211D01*
X02905Y03512D02*
X02944Y03551D01*
X02699Y03512D02*
X02905D01*
X02674Y03487D02*
X02699Y03512D01*
X02433Y03487D02*
X02674D01*
X02326Y03379D02*
X02433Y03487D01*
X02948Y03536D02*
X03205D01*
X02911Y03499D02*
X02948Y03536D01*
X02707Y03499D02*
X02911D01*
X02644Y0356D02*
X02823D01*
X02853Y0359*
X02822Y03539D02*
X02855Y03572D01*
X02745Y03539D02*
X02822D01*
X02441Y03473D02*
X0268D01*
X02325Y03357D02*
X02441Y03473D01*
X02325Y0334D02*
Y03357D01*
X0268Y03473D02*
X02707Y03499D01*
X03227Y03572D02*
X03298Y03501D01*
X02855Y03572D02*
X03227D01*
X02323Y03379D02*
X02326D01*
X02593Y03509D02*
X02644Y0356D01*
X02853Y0359D02*
X03036D01*
X0411Y03556D02*
X04199D01*
X04075Y03592D02*
X0411Y03556D01*
X0356Y03343D02*
X03574D01*
X03765Y03534*
X03566Y03325D02*
X03569Y03322D01*
X03524Y03325D02*
X03566D01*
X03569Y03322D02*
X03768Y03521D01*
X0329Y03186D02*
Y03195D01*
Y03186D02*
X03336Y0314D01*
X03298Y03501D02*
X03332D01*
G54D59*
X03818Y03433D03*
X03866Y03412D03*
X03885Y03364D03*
X03866Y03314D03*
X03817Y03295D03*
X03767Y03314D03*
X03746Y03364D03*
X03768Y03416D03*
X02457D03*
X02435Y03364D03*
X02456Y03314D03*
X02506Y03295D03*
X02555Y03314D03*
X02574Y03364D03*
X02555Y03412D03*
X02507Y03433D03*
G54D60*
X04457Y03243D03*
Y03322D03*
G54D61*
X03815Y03363D03*
X02505D03*
G54D67*
X032Y03372D03*
X04161Y03346D03*
X03321Y03183D03*
X03355Y03192D03*
X03577Y03386D03*
X03512Y03305D03*
X04242Y03334D03*
X03521Y0342D03*
X03505Y03438D03*
X03036Y0359D03*
X02593Y03509D03*
X02745Y03539D03*
X04391Y03313D03*
X04239Y03267D03*
X04281Y03165D03*
X04199Y03556D03*
X04075Y03592D03*
X0428Y03489D03*
X02323Y03379D03*
X02325Y0334D03*
X0356Y03343D03*
X03524Y03325D03*
X0329Y03195D03*
X03332Y03501D03*
X02288Y03301D03*
G54D69*
X02306Y03313D03*
M02*