%FSTAX23Y23*%
%MOIN*%
%SFA1B1*%

%IPPOS*%
%ADD37R,0.031500X0.063000*%
%ADD101R,0.013900X0.009900*%
%ADD102R,0.011100X0.017000*%
%ADD103R,0.185100X0.185100*%
%ADD104O,0.008000X0.025700*%
%ADD105O,0.025700X0.008000*%
%ADD106R,0.098500X0.051300*%
%ADD107R,0.031600X0.013900*%
%ADD108R,0.102400X0.023700*%
%ADD109R,0.043400X0.070900*%
%ADD110R,0.031600X0.031600*%
%ADD111R,0.021700X0.023700*%
%ADD112O,0.067000X0.011900*%
%ADD113R,0.037300X0.039400*%
%ADD114R,0.037400X0.039400*%
%ADD115R,0.011900X0.027600*%
%ADD116R,0.019800X0.023700*%
%ADD117R,0.017000X0.011100*%
%ADD118R,0.055200X0.108300*%
%ADD119R,0.070900X0.043400*%
%ADD120R,0.031600X0.031600*%
%ADD121R,0.008700X0.015800*%
%ADD122R,0.019800X0.019800*%
%ADD123R,0.023700X0.021700*%
%ADD124R,0.035500X0.027600*%
%ADD125R,0.031600X0.086700*%
%ADD126R,0.039400X0.031600*%
%ADD127R,0.009900X0.013900*%
%ADD128R,0.013900X0.013900*%
%ADD129R,0.017800X0.039400*%
%ADD130R,0.070900X0.039400*%
%ADD131R,0.031600X0.029600*%
%LNvapeix_mini_pcb-1*%
%LPD*%
G54D37*
X03008Y03058D03*
X03141D03*
G54D101*
X03389Y03156D03*
Y03137D03*
X0223Y03499D03*
Y0348D03*
X02552Y03544D03*
Y03563D03*
X02288Y03439D03*
Y03458D03*
X02289Y03256D03*
Y03275D03*
X03389Y03115D03*
Y03096D03*
G54D102*
X0326Y03171D03*
X0328D03*
X02514Y03616D03*
X02534D03*
X02483D03*
X02463D03*
X04291Y03376D03*
X04311D03*
X0428Y03435D03*
X043D03*
X04273Y03202D03*
X04293D03*
X02865Y0357D03*
X02845D03*
G54D103*
X03362Y03339D03*
G54D104*
X03448Y03219D03*
X03432D03*
X03417D03*
X03401D03*
X03385D03*
X03369D03*
X03354D03*
X03338D03*
X03322D03*
X03306D03*
X03291D03*
X03275D03*
Y03458D03*
X03291D03*
X03306D03*
X03322D03*
X03338D03*
X03354D03*
X03369D03*
X03385D03*
X03401D03*
X03417D03*
X03432D03*
X03448D03*
G54D105*
X03242Y03252D03*
Y03268D03*
Y03283D03*
Y03299D03*
Y03315D03*
Y03331D03*
Y03346D03*
Y03362D03*
Y03378D03*
Y03394D03*
Y03409D03*
Y03425D03*
X03481D03*
Y03409D03*
Y03394D03*
Y03378D03*
Y03362D03*
Y03346D03*
Y03331D03*
Y03315D03*
Y03299D03*
Y03283D03*
Y03268D03*
Y03252D03*
G54D106*
X02179Y03324D03*
X02179Y03394D03*
G54D107*
X02265Y0332D03*
Y03399D03*
Y03379D03*
Y03359D03*
Y0334D03*
G54D108*
X02175Y03454D03*
Y03265D03*
G54D109*
X02172Y03596D03*
G54D110*
X02172Y03525D03*
G54D111*
X0223Y03568D03*
Y03529D03*
G54D112*
X02338Y03564D03*
Y03544D03*
Y03525D03*
Y03505D03*
Y03485D03*
X02499Y03564D03*
Y03544D03*
Y03525D03*
Y03505D03*
Y03485D03*
G54D113*
X02334Y03667D03*
G54D114*
X02283Y03667D03*
G54D115*
X02271Y03616D03*
X02296D03*
X02347D03*
X02322D03*
Y03688D03*
X02347D03*
X02296D03*
X02271D03*
G54D116*
X02354Y03375D03*
Y03336D03*
G54D117*
X02276Y03545D03*
Y03565D03*
X0435Y03287D03*
Y03307D03*
X0431Y0332D03*
Y033D03*
X0424Y03455D03*
Y03435D03*
G54D118*
X03984Y03499D03*
X04141D03*
X03984Y03234D03*
X04141D03*
X02676Y03494D03*
X02833D03*
X02676Y03229D03*
X02833D03*
G54D119*
X0269Y03667D03*
G54D120*
X02761Y03667D03*
G54D121*
X02844Y03605D03*
X02828D03*
X0286Y03648D03*
X02876D03*
G54D122*
X02835Y03634D03*
X02868Y03617D03*
G54D123*
X02859Y03688D03*
X02898D03*
G54D124*
X04118Y03069D03*
Y03109D03*
X04178Y03069D03*
Y03109D03*
X04117Y03624D03*
Y03664D03*
X04177Y03624D03*
Y03664D03*
G54D125*
X03053Y0332D03*
X02942D03*
G54D126*
X02998Y03257D03*
G54D127*
X0314Y03169D03*
X03121D03*
X03141Y03146D03*
X0316D03*
X03159Y03275D03*
X0314D03*
Y03302D03*
X03159D03*
G54D128*
X0314Y03239D03*
Y03214D03*
G54D129*
X03106Y03226D03*
X03175Y03227D03*
G54D130*
X03629Y03307D03*
Y03208D03*
G54D131*
X03433Y03096D03*
Y03149D03*
M02*