%FSTAX23Y23*%
%MOIN*%
%SFA1B1*%

%IPPOS*%
%ADD11R,0.013800X0.009800*%
%ADD12R,0.011000X0.016900*%
%ADD13R,0.185000X0.185000*%
%ADD14O,0.007900X0.025600*%
%ADD15O,0.025600X0.007900*%
%ADD16R,0.098400X0.051200*%
%ADD17R,0.031500X0.013800*%
%ADD18R,0.102400X0.023600*%
%ADD19R,0.043300X0.070900*%
%ADD20R,0.031500X0.031500*%
%ADD21R,0.021700X0.023600*%
%ADD22O,0.066900X0.011800*%
%ADD23R,0.037200X0.039400*%
%ADD24R,0.037300X0.039400*%
%ADD25R,0.011800X0.027600*%
%ADD26R,0.019700X0.023600*%
%ADD27C,0.031500*%
%ADD28R,0.016900X0.011000*%
%ADD29R,0.055100X0.108300*%
%ADD30R,0.070900X0.043300*%
%ADD31R,0.031500X0.031500*%
%ADD32R,0.008700X0.015700*%
%ADD33R,0.019700X0.019700*%
%ADD34R,0.023600X0.021700*%
%ADD35R,0.035400X0.027600*%
%ADD36C,0.007900*%
%ADD37R,0.031500X0.063000*%
%ADD38R,0.031500X0.086600*%
%ADD39R,0.039400X0.031500*%
%ADD40R,0.009800X0.013800*%
%ADD41R,0.013800X0.013800*%
%ADD42R,0.017700X0.039400*%
%ADD43R,0.070900X0.039400*%
%ADD44R,0.031500X0.029500*%
%ADD59C,0.019700*%
%ADD60C,0.059100*%
%ADD61C,0.177200*%
%ADD62O,0.098400X0.118100*%
%ADD63O,0.063000X0.035400*%
%ADD64R,0.047200X0.047200*%
%ADD65C,0.047200*%
%ADD66C,0.060000*%
%LNvapeix_mini_pcb-1*%
%LPD*%
G54D11*
X03389Y03156D03*
Y03137D03*
X0223Y03499D03*
Y0348D03*
X02552Y03544D03*
Y03563D03*
X02288Y03439D03*
Y03458D03*
X02289Y03256D03*
Y03275D03*
X03389Y03115D03*
Y03096D03*
G54D12*
X0326Y03171D03*
X0328D03*
X02514Y03616D03*
X02534D03*
X02483D03*
X02463D03*
X04291Y03376D03*
X04311D03*
X0428Y03435D03*
X043D03*
X04273Y03202D03*
X04293D03*
X02865Y0357D03*
X02845D03*
G54D13*
X03362Y03339D03*
G54D14*
X03448Y03219D03*
X03432D03*
X03417D03*
X03401D03*
X03385D03*
X03369D03*
X03354D03*
X03338D03*
X03322D03*
X03306D03*
X03291D03*
X03275D03*
Y03458D03*
X03291D03*
X03306D03*
X03322D03*
X03338D03*
X03354D03*
X03369D03*
X03385D03*
X03401D03*
X03417D03*
X03432D03*
X03448D03*
G54D15*
X03242Y03252D03*
Y03268D03*
Y03283D03*
Y03299D03*
Y03315D03*
Y03331D03*
Y03346D03*
Y03362D03*
Y03378D03*
Y03394D03*
Y03409D03*
Y03425D03*
X03481D03*
Y03409D03*
Y03394D03*
Y03378D03*
Y03362D03*
Y03346D03*
Y03331D03*
Y03315D03*
Y03299D03*
Y03283D03*
Y03268D03*
Y03252D03*
G54D16*
X02179Y03324D03*
X02179Y03394D03*
G54D17*
X02265Y0332D03*
Y03399D03*
Y03379D03*
Y03359D03*
Y0334D03*
G54D18*
X02175Y03454D03*
Y03265D03*
G54D19*
X02172Y03596D03*
G54D20*
X02172Y03525D03*
G54D21*
X0223Y03568D03*
Y03529D03*
G54D22*
X02338Y03564D03*
Y03544D03*
Y03525D03*
Y03505D03*
Y03485D03*
X02499Y03564D03*
Y03544D03*
Y03525D03*
Y03505D03*
Y03485D03*
G54D23*
X02334Y03667D03*
G54D24*
X02283Y03667D03*
G54D25*
X02271Y03616D03*
X02296D03*
X02347D03*
X02322D03*
Y03688D03*
X02347D03*
X02296D03*
X02271D03*
G54D26*
X02354Y03375D03*
Y03336D03*
G54D27*
X02593Y03509D03*
X04391Y03313D03*
X04242Y03334D03*
X0428Y03489D03*
X04241Y03391D03*
X04352Y03489D03*
G54D28*
X02276Y03545D03*
Y03565D03*
X0435Y03287D03*
Y03307D03*
X0431Y0332D03*
Y033D03*
X0424Y03455D03*
Y03435D03*
G54D29*
X03984Y03499D03*
X04141D03*
X03984Y03234D03*
X04141D03*
X02676Y03494D03*
X02833D03*
X02676Y03229D03*
X02833D03*
G54D30*
X0269Y03667D03*
G54D31*
X02761Y03667D03*
G54D32*
X02844Y03605D03*
X02828D03*
X0286Y03648D03*
X02876D03*
G54D33*
X02835Y03634D03*
X02868Y03617D03*
G54D34*
X02859Y03688D03*
X02898D03*
G54D35*
X04118Y03069D03*
Y03109D03*
X04178Y03069D03*
Y03109D03*
X04117Y03624D03*
Y03664D03*
X04177Y03624D03*
Y03664D03*
G54D36*
X04257Y03649D03*
X04283D03*
X04337Y03079D03*
X04363D03*
X03561Y03235D03*
X03534D03*
X0356Y03284D03*
X03533D03*
G54D37*
X03008Y03058D03*
X03141D03*
G54D38*
X03053Y0332D03*
X02942D03*
G54D39*
X02998Y03257D03*
G54D40*
X0314Y03169D03*
X03121D03*
X03141Y03146D03*
X0316D03*
X03159Y03275D03*
X0314D03*
Y03302D03*
X03159D03*
G54D41*
X0314Y03239D03*
Y03214D03*
G54D42*
X03106Y03226D03*
X03175Y03227D03*
G54D43*
X03629Y03307D03*
Y03208D03*
G54D44*
X03433Y03096D03*
Y03149D03*
G54D59*
X03818Y03433D03*
X03866Y03412D03*
X03885Y03364D03*
X03866Y03314D03*
X03817Y03295D03*
X03767Y03314D03*
X03746Y03364D03*
X03768Y03416D03*
X02457D03*
X02435Y03364D03*
X02456Y03314D03*
X02506Y03295D03*
X02555Y03314D03*
X02574Y03364D03*
X02555Y03412D03*
X02507Y03433D03*
G54D60*
X04457Y03243D03*
Y03322D03*
Y03479D03*
Y034D03*
X04344Y03649D03*
X04278Y03079D03*
X03828Y03659D03*
X03926Y0366D03*
X04023D03*
X03828Y03068D03*
X04026D03*
X03927D03*
G54D61*
X03815Y03363D03*
X02505D03*
G54D62*
X04477Y03078D03*
Y03648D03*
X02075Y0365D03*
Y0308D03*
G54D63*
X02072Y03234D03*
Y03493D03*
G54D64*
X0244Y03675D03*
G54D65*
X02502Y03675D03*
G54D66*
X03063Y03641D03*
Y03483D03*
X02441Y0307D03*
X02541D03*
X02341D03*
X02241D03*
M02*