%FSTAX23Y23*%
%MOIN*%
%SFA1B1*%

%IPPOS*%
%AMD83*
4,1,4,0.002500,-0.008600,0.008600,-0.002500,-0.002500,0.008600,-0.008600,0.002500,0.002500,-0.008600,0.0*
%
%AMD84*
4,1,4,0.013900,0.000000,0.000000,0.013900,-0.013900,0.000000,0.000000,-0.013900,0.013900,0.000000,0.0*
%
%ADD11R,0.013800X0.009800*%
%ADD12R,0.011000X0.016900*%
%ADD19R,0.043300X0.070900*%
%ADD20R,0.031500X0.031500*%
%ADD23R,0.037200X0.039400*%
%ADD24R,0.037300X0.039400*%
%ADD25R,0.011800X0.027600*%
%ADD27C,0.031500*%
%ADD28R,0.016900X0.011000*%
%ADD30R,0.070900X0.043300*%
%ADD31R,0.031500X0.031500*%
%ADD32R,0.008700X0.015700*%
%ADD33R,0.019700X0.019700*%
%ADD40R,0.009800X0.013800*%
%ADD59C,0.019700*%
%ADD60C,0.059100*%
%ADD61C,0.177200*%
%ADD62O,0.098400X0.118100*%
%ADD63O,0.063000X0.035400*%
%ADD64R,0.047200X0.047200*%
%ADD65C,0.047200*%
%ADD66C,0.060000*%
%ADD77R,0.033500X0.037400*%
%ADD78R,0.055100X0.063000*%
%ADD79R,0.061000X0.074800*%
%ADD80R,0.053200X0.015700*%
%ADD81R,0.040000X0.030000*%
%ADD82C,0.039400*%
G04~CAMADD=83~9~0.0~0.0~87.0~157.0~0.0~0.0~0~0.0~0.0~0.0~0.0~0~0.0~0.0~0.0~0.0~0~0.0~0.0~0.0~225.0~172.0~171.0*
%ADD83D83*%
G04~CAMADD=84~10~0.0~196.6~0.0~0.0~0.0~0.0~0~0.0~0.0~0.0~0.0~0~0.0~0.0~0.0~0.0~0~0.0~0.0~0.0~315.0~196.6~0.0*
%ADD84D84*%
%ADD85R,0.098400X0.098400*%
%ADD86R,0.015700X0.008700*%
%ADD87R,0.019700X0.019700*%
%LNvapeix_mini_pcb-1*%
%LPD*%
G54D11*
X03448Y03445D03*
Y03426D03*
X0343Y0323D03*
Y03249D03*
X02246Y03293D03*
Y03312D03*
X02225Y03293D03*
Y03312D03*
X02884Y03443D03*
Y03424D03*
G54D12*
X04398Y03341D03*
X04378D03*
X04161Y03381D03*
X04141D03*
Y03346D03*
X04161D03*
X02826Y035D03*
X02846D03*
X04225Y0352D03*
X04245D03*
X041Y0354D03*
X0408D03*
X04225Y03556D03*
X04245D03*
X04109Y03163D03*
X04129D03*
X04258Y03176D03*
X04238D03*
X0398Y03328D03*
X0396D03*
X04173Y03224D03*
X04153D03*
X0411Y03344D03*
X0409D03*
G54D19*
X02327Y03505D03*
X02986Y03586D03*
G54D20*
X02327Y03576D03*
X02986Y03515D03*
G54D23*
X04301Y03426D03*
G54D24*
X04352Y03426D03*
G54D25*
X04365Y03375D03*
X04339D03*
X04288D03*
X04314D03*
Y03447D03*
X04288D03*
X04339D03*
X04365D03*
G54D27*
X02327Y03634D03*
X02265Y03506D03*
X04352Y0349D03*
X04132Y03664D03*
X04181D03*
X04232D03*
G54D28*
X02846Y03464D03*
Y03444D03*
X04063Y03395D03*
Y03415D03*
X04101Y03497D03*
Y03477D03*
X04029Y03395D03*
Y03415D03*
X0419Y03105D03*
Y03085D03*
X04047Y03279D03*
Y03259D03*
X03827Y03592D03*
Y03612D03*
X03927Y03592D03*
Y03612D03*
X04024Y03592D03*
Y03612D03*
X04148Y03627D03*
Y03607D03*
X04164Y03477D03*
Y03497D03*
G54D30*
X04351Y03555D03*
G54D31*
X04422Y03555D03*
G54D32*
X04164Y03527D03*
X0418D03*
X04148Y0357D03*
X04132D03*
G54D33*
X04173Y03556D03*
X0414Y03539D03*
G54D40*
X03256Y03252D03*
X03275D03*
X03091Y03306D03*
X0311D03*
Y03429D03*
X03091D03*
X0347Y03252D03*
X03451D03*
X03256Y033D03*
X03275D03*
X02186Y03689D03*
X02205D03*
X022Y03543D03*
X02181D03*
X0222D03*
X02239D03*
X0416Y03315D03*
X04141D03*
X03648Y0328D03*
X03629D03*
X03649Y0325D03*
X0363D03*
G54D59*
X03818Y03433D03*
X03866Y03412D03*
X03885Y03364D03*
X03866Y03314D03*
X03817Y03295D03*
X03767Y03314D03*
X03746Y03364D03*
X03768Y03416D03*
X02457D03*
X02435Y03364D03*
X02456Y03314D03*
X02506Y03295D03*
X02555Y03314D03*
X02574Y03364D03*
X02555Y03412D03*
X02507Y03433D03*
G54D60*
X04457Y03243D03*
Y03322D03*
Y03479D03*
Y034D03*
X04344Y03649D03*
X04278Y03079D03*
X03828Y03659D03*
X03926Y0366D03*
X04023D03*
X03828Y03068D03*
X04026D03*
X03927D03*
G54D61*
X03815Y03363D03*
X02505D03*
G54D62*
X04477Y03078D03*
Y03648D03*
X02075Y0365D03*
Y0308D03*
G54D63*
X02072Y03234D03*
Y03493D03*
G54D64*
X0244Y03675D03*
G54D65*
X02502Y03675D03*
G54D66*
X03063Y03641D03*
Y03483D03*
X02441Y0307D03*
X02541D03*
X02341D03*
X02241D03*
G54D77*
X03079Y03338D03*
X03124D03*
Y03395D03*
X03079D03*
G54D78*
X02169Y03238D03*
Y0349D03*
G54D79*
X02072Y03411D03*
Y03316D03*
G54D80*
X02178Y03415D03*
Y03389D03*
Y03312D03*
Y03338D03*
Y03364D03*
G54D81*
X02254Y03652D03*
Y03577D03*
X02171Y03614D03*
G54D82*
X02306Y03313D03*
G54D83*
X04352Y03283D03*
X04364Y03294D03*
X04311Y03302D03*
X043Y03291D03*
G54D84*
X04338Y0331D03*
X04326Y03275D03*
G54D85*
X02656Y03655D03*
X02798Y03656D03*
G54D86*
X04058Y03343D03*
Y03359D03*
X04015Y03327D03*
Y03311D03*
X04161Y03159D03*
Y03143D03*
X04204Y03175D03*
Y03191D03*
G54D87*
X04029Y03352D03*
X04046Y03319D03*
X0419Y0315D03*
X04173Y03183D03*
M02*