%FSTAX23Y23*%
%MOIN*%
%SFA1B1*%

%IPPOS*%
%AMD178*
4,1,4,0.002500,-0.014100,0.014100,-0.002500,-0.002500,0.014100,-0.014100,0.002500,0.002500,-0.014100,0.0*
%
%AMD179*
4,1,4,0.016700,0.000000,0.000000,0.016700,-0.016700,0.000000,0.000000,-0.016700,0.016700,0.000000,0.0*
%
%ADD36C,0.007900*%
%ADD71C,0.023600*%
%ADD72C,0.051200*%
%ADD133R,0.017700X0.013800*%
%ADD134R,0.015000X0.020900*%
%ADD141R,0.047200X0.074800*%
%ADD142R,0.035400X0.035400*%
%ADD145R,0.041100X0.043300*%
%ADD146R,0.041200X0.043300*%
%ADD147R,0.015700X0.031500*%
%ADD149C,0.035400*%
%ADD150R,0.020900X0.015000*%
%ADD152R,0.074800X0.047200*%
%ADD153R,0.035400X0.035400*%
%ADD154R,0.016500X0.023600*%
%ADD155R,0.023600X0.023600*%
%ADD157C,0.011800*%
%ADD160R,0.013800X0.017700*%
%ADD165C,0.063000*%
%ADD166C,0.181100*%
%ADD167O,0.102400X0.122000*%
%ADD168O,0.066900X0.039400*%
%ADD169R,0.051200X0.051200*%
%ADD170C,0.063900*%
%ADD171C,0.013000*%
%ADD172R,0.037400X0.041300*%
%ADD173R,0.059100X0.066900*%
%ADD174R,0.065000X0.078700*%
%ADD175R,0.057100X0.019700*%
%ADD176R,0.043900X0.033900*%
%ADD177C,0.043300*%
G04~CAMADD=178~9~0.0~0.0~165.0~236.0~0.0~0.0~0~0.0~0.0~0.0~0.0~0~0.0~0.0~0.0~0.0~0~0.0~0.0~0.0~225.0~282.0~281.0*
%ADD178D178*%
G04~CAMADD=179~10~0.0~236.2~0.0~0.0~0.0~0.0~0~0.0~0.0~0.0~0.0~0~0.0~0.0~0.0~0.0~0~0.0~0.0~0.0~315.0~236.2~0.0*
%ADD179D179*%
%ADD180R,0.102400X0.102400*%
%ADD181R,0.023600X0.016500*%
%ADD182R,0.023600X0.023600*%
%LNvapeix_mini_pcb-1*%
%LPD*%
G54D36*
X0438Y03375D03*
X04362Y03365D03*
Y03389D03*
X04396Y03388D03*
X04398Y03361D03*
X02354Y03309D03*
X03154Y03349D03*
X032Y03372D03*
X04161Y03346D03*
X02225Y03603D03*
X02271Y03622D03*
X04311Y03409D03*
X04288Y03411D03*
X04304Y03435D03*
X03054Y03309D03*
X02942Y0332D03*
X04426Y03372D03*
X04425Y03429D03*
X04489Y0343D03*
X0449Y03371D03*
X04349Y03574D03*
X04385Y0349D03*
X04321D03*
X04352Y0353D03*
X04382Y03569D03*
X04318Y03567D03*
X04383Y03532D03*
X04322Y0353D03*
X03321Y03183D03*
X03355Y03192D03*
X03577Y03386D03*
X03512Y03305D03*
X04285Y03275D03*
X04139Y03516D03*
X04242Y03334D03*
X03543Y03417D03*
X03521Y0342D03*
X03505Y03438D03*
X04191Y03476D03*
X03977Y03609D03*
X0411Y03369D03*
X03468Y03445D03*
X02817Y03465D03*
X02846Y03464D03*
X02876Y03535D03*
X02696Y03459D03*
X02662Y03515D03*
X03036Y0359D03*
X02593Y03509D03*
X02745Y03539D03*
X03485Y03237D03*
X03214Y03306D03*
X0308Y03391D03*
X03215Y03268D03*
X04232Y03664D03*
X04371Y03264D03*
X0439Y03279D03*
X04391Y03313D03*
X04081Y03642D03*
X04001Y03414D03*
X04226Y03455D03*
X04239Y03267D03*
X04281Y03165D03*
X0419Y03289D03*
X04143Y03257D03*
X04089Y03163D03*
X042Y03582D03*
X04118Y03626D03*
X04199Y03556D03*
X04075Y03592D03*
X0428Y03489D03*
X04266Y0352D03*
X04204Y03208D03*
X04138Y0314D03*
X04118Y03109D03*
X04039Y03439D03*
X04172Y03069D03*
X04073Y03471D03*
X04118Y03069D03*
X04085Y03664D03*
X04083Y03373D03*
X03995Y03302D03*
X04265Y03556D03*
X0416Y03403D03*
X04198Y03527D03*
X04314Y03355D03*
X0412Y03591D03*
X04285Y03315D03*
X02905Y03425D03*
X02833Y03229D03*
X02819Y03588D03*
X03984Y03499D03*
Y03234D03*
X02676Y03229D03*
X03584Y0326D03*
X03628Y03208D03*
X03629Y03306D03*
X03676Y0328D03*
Y0325D03*
X03309Y0302D03*
X02811Y03067D03*
Y03042D03*
Y03017D03*
Y03092D03*
Y03118D03*
X03106Y03226D03*
X02905Y03177D03*
X03218Y0318D03*
X03209Y03145D03*
X02924Y03159D03*
X03117Y03287D03*
X03179Y0329D03*
Y03264D03*
X03117Y03263D03*
X02941Y03217D03*
X02942Y03184D03*
X02905Y03018D03*
X03248Y03019D03*
X02964Y03259D03*
X03195Y03168D03*
Y03193D03*
X03025Y03226D03*
X03034Y03256D03*
X03167Y03169D03*
Y03193D03*
X02968Y03229D03*
X0297Y03196D03*
X02962Y03166D03*
X03071Y03194D03*
X0299Y03168D03*
X03036Y03197D03*
X03116Y03193D03*
X02875Y03149D03*
Y03122D03*
X02846Y03137D03*
Y03035D03*
Y0311D03*
Y03085D03*
Y0306D03*
X02875Y0302D03*
Y03095D03*
Y0307D03*
Y03045D03*
X02905Y03138D03*
Y03038D03*
Y03111D03*
Y03086D03*
Y03061D03*
X03309Y03064D03*
Y03087D03*
Y03111D03*
Y03039D03*
X03277Y03045D03*
Y0307D03*
Y03095D03*
Y0302D03*
Y03122D03*
X03248Y0306D03*
Y03085D03*
Y0311D03*
Y03039D03*
Y03137D03*
X03223Y03123D03*
Y03021D03*
Y03096D03*
Y03071D03*
Y03046D03*
X03167Y03123D03*
X03195D03*
X03099Y03145D03*
X02941D03*
X02973D03*
X03006D03*
X03037D03*
X03069D03*
X03086Y03123D03*
X03054D03*
X03023D03*
X0299D03*
X02958D03*
X0293Y03048D03*
Y03073D03*
Y03098D03*
Y03023D03*
Y03123D03*
X03116D03*
X03389Y03172D03*
X03174Y03146D03*
X03175Y03227D03*
X03463Y03219D03*
X03242Y03236D03*
X0324Y03171D03*
X02323Y03379D03*
X02325Y0334D03*
X02289Y03242D03*
X02378Y03455D03*
X02384Y03505D03*
X02248Y03616D03*
X02499Y03564D03*
X02276Y03674D03*
X02296Y03656D03*
X02294Y0369D03*
X02254Y03658D03*
X02253Y03688D03*
X02897Y03648D03*
X0267Y03664D03*
X02761Y03667D03*
X02694Y0369D03*
X02696Y03616D03*
X02615D03*
Y0369D03*
X03124Y03338D03*
X02205Y03671D03*
X02169Y03689D03*
X02136Y03614D03*
X02169Y03238D03*
X02072Y03316D03*
Y03411D03*
X02169Y0349D03*
X02276Y03545D03*
X02463Y03593D03*
X02265Y03506D03*
X04288Y03375D03*
X0356Y03343D03*
X03524Y03325D03*
X03194Y03323D03*
X0329Y03195D03*
X03332Y03501D03*
X03369Y03518D03*
X02288Y03301D03*
X02328Y03316D03*
X02317Y03294D03*
X02295Y03416D03*
X02119Y03543D03*
X0212Y03521D03*
X02141Y03536D03*
X02162D03*
G54D71*
X03818Y03433D03*
X03866Y03412D03*
X03885Y03364D03*
X03866Y03314D03*
X03817Y03295D03*
X03767Y03314D03*
X03746Y03364D03*
X03768Y03416D03*
X02457D03*
X02435Y03364D03*
X02456Y03314D03*
X02506Y03295D03*
X02555Y03314D03*
X02574Y03364D03*
X02555Y03412D03*
X02507Y03433D03*
G54D72*
X02502Y03675D03*
G54D133*
X03448Y03445D03*
Y03426D03*
X0343Y0323D03*
Y03249D03*
X02246Y03293D03*
Y03312D03*
X02225Y03293D03*
Y03312D03*
X02884Y03443D03*
Y03424D03*
G54D134*
X04398Y03341D03*
X04378D03*
X04161Y03381D03*
X04141D03*
Y03346D03*
X04161D03*
X02826Y035D03*
X02846D03*
X04225Y0352D03*
X04245D03*
X041Y0354D03*
X0408D03*
X04225Y03556D03*
X04245D03*
X04109Y03163D03*
X04129D03*
X04258Y03176D03*
X04238D03*
X0398Y03328D03*
X0396D03*
X04173Y03224D03*
X04153D03*
X0411Y03344D03*
X0409D03*
G54D141*
X02327Y03505D03*
X02986Y03586D03*
G54D142*
X02327Y03576D03*
X02986Y03515D03*
G54D145*
X04301Y03426D03*
G54D146*
X04352Y03426D03*
G54D147*
X04365Y03375D03*
X04339D03*
X04288D03*
X04314D03*
Y03447D03*
X04288D03*
X04339D03*
X04365D03*
G54D149*
X02327Y03634D03*
X02265Y03506D03*
X04352Y0349D03*
X04132Y03664D03*
X04181D03*
X04232D03*
G54D150*
X02846Y03464D03*
Y03444D03*
X04063Y03395D03*
Y03415D03*
X04101Y03497D03*
Y03477D03*
X04029Y03395D03*
Y03415D03*
X0419Y03105D03*
Y03085D03*
X04047Y03279D03*
Y03259D03*
X03827Y03592D03*
Y03612D03*
X03927Y03592D03*
Y03612D03*
X04024Y03592D03*
Y03612D03*
X04148Y03627D03*
Y03607D03*
X04164Y03477D03*
Y03497D03*
G54D152*
X04351Y03555D03*
G54D153*
X04422Y03555D03*
G54D154*
X04164Y03527D03*
X0418D03*
X04148Y0357D03*
X04132D03*
G54D155*
X04173Y03556D03*
X0414Y03539D03*
G54D157*
X02306Y03313D03*
G54D160*
X03256Y03252D03*
X03275D03*
X03091Y03306D03*
X0311D03*
Y03429D03*
X03091D03*
X0347Y03252D03*
X03451D03*
X03256Y033D03*
X03275D03*
X02186Y03689D03*
X02205D03*
X022Y03543D03*
X02181D03*
X0222D03*
X02239D03*
X0416Y03315D03*
X04141D03*
X03648Y0328D03*
X03629D03*
X03649Y0325D03*
X0363D03*
G54D165*
X04457Y03243D03*
Y03322D03*
Y03479D03*
Y034D03*
X04344Y03649D03*
X04278Y03079D03*
X03828Y03659D03*
X03926Y0366D03*
X04023D03*
X03828Y03068D03*
X04026D03*
X03927D03*
G54D166*
X03815Y03363D03*
X02505D03*
G54D167*
X04477Y03078D03*
Y03648D03*
X02075Y0365D03*
Y0308D03*
G54D168*
X02072Y03234D03*
Y03493D03*
G54D169*
X0244Y03675D03*
G54D170*
X03063Y03641D03*
Y03483D03*
X02441Y0307D03*
X02541D03*
X02341D03*
X02241D03*
G54D171*
X03291Y03409D03*
X03338D03*
X03385D03*
X03432D03*
X03291Y03362D03*
X03338D03*
X03385D03*
X03432D03*
X03291Y03315D03*
X03338D03*
X03385D03*
X03432D03*
X03291Y03268D03*
X03338D03*
X03385D03*
X03432D03*
G54D172*
X03079Y03338D03*
X03124D03*
Y03395D03*
X03079D03*
G54D173*
X02169Y03238D03*
Y0349D03*
G54D174*
X02072Y03411D03*
Y03316D03*
G54D175*
X02178Y03415D03*
Y03389D03*
Y03312D03*
Y03338D03*
Y03364D03*
G54D176*
X02254Y03652D03*
Y03577D03*
X02171Y03614D03*
G54D177*
X02306Y03313D03*
G54D178*
X04352Y03283D03*
X04364Y03294D03*
X04311Y03302D03*
X043Y03291D03*
G54D179*
X04338Y0331D03*
X04326Y03275D03*
G54D180*
X02656Y03655D03*
X02798Y03656D03*
G54D181*
X04058Y03343D03*
Y03359D03*
X04015Y03327D03*
Y03311D03*
X04161Y03159D03*
Y03143D03*
X04204Y03175D03*
Y03191D03*
G54D182*
X04029Y03352D03*
X04046Y03319D03*
X0419Y0315D03*
X04173Y03183D03*
M02*