%FSTAX24Y24*%
%MOIN*%
%SFA1B1*%

%IPPOS*%
%ADD43C,0.005900*%
%ADD44C,0.011800*%
%ADD50C,0.059100*%
%ADD53C,0.060000*%
%ADD54C,0.019700*%
%ADD55C,0.177200*%
%ADD56C,0.015700*%
%LNvapeix_mini_pcb-1*%
%LPD*%
G54D43*
X02243Y03671D02*
X03134D01*
X02222Y0365D02*
X02243Y03671D01*
X02222Y03491D02*
Y0365D01*
X02842Y03197D02*
X02866Y03221D01*
X02558Y03197D02*
X02842D01*
X02843Y03047D02*
X02908Y03112D01*
X040353Y031933D02*
X04083Y03241D01*
X039903Y032061D02*
X040031Y031933D01*
X040353*
X04519Y03168D02*
Y03308D01*
X045049Y033221D02*
X04519Y03308D01*
X04468Y033221D02*
X045049D01*
X04499Y03148D02*
X04519Y03168D01*
X04444Y03148D02*
X04499D01*
X04414Y03118D02*
X04444Y03148D01*
X037672Y035597D02*
X038049Y03522D01*
X03652Y0356D02*
X03767D01*
X03614Y03522D02*
X03652Y0356D01*
X03614Y03521D02*
Y03522D01*
X040765Y035495D02*
X04111Y03515D01*
Y03248D02*
Y03515D01*
X040445Y031815D02*
X04111Y03248D01*
X04112Y03542D02*
X04139Y03515D01*
Y03467D02*
Y03515D01*
Y03467D02*
X04166Y0344D01*
X04112Y03542D02*
Y03608D01*
X040485Y035495D02*
X040765D01*
X045Y03704D02*
X04523Y03681D01*
Y03419D02*
Y03681D01*
X045048Y034008D02*
X04523Y03419D01*
X04122Y03704D02*
X045D01*
X044296Y031886D02*
Y032596D01*
X04394Y03153D02*
X044296Y031886D01*
X0431Y03153D02*
X04394D01*
X04414Y03089D02*
Y03118D01*
X04354Y03029D02*
X04414Y03089D01*
X03985Y03029D02*
X04354D01*
X03613Y0352D02*
X03614Y03521D01*
X031054Y033216D02*
X03112D01*
X04166Y0334D02*
Y0344D01*
Y0334D02*
X04247Y03259D01*
X02972Y03487D02*
X030314D01*
X038088Y032456D02*
X038364Y03218D01*
X038317Y032061D02*
X039903D01*
X038039Y032338D02*
X038317Y032061D01*
X039889Y032179D02*
X03989Y03218D01*
X03837Y032179D02*
X039889D01*
X036754Y032456D02*
X038088D01*
X036705Y032338D02*
X038039D01*
X03828Y03193D02*
X039866D01*
X03799Y03222D02*
X03828Y03193D01*
X03663Y03222D02*
X03799D01*
X035442Y035909D02*
X035731Y036198D01*
X038778D02*
X03918Y0366D01*
X035731Y036198D02*
X038778D01*
X038739Y03608D02*
X03918Y035639D01*
X03578Y03608D02*
X038739D01*
X03556Y03586D02*
X03578Y03608D01*
X03626Y03295D02*
X036754Y032456D01*
X03615Y0327D02*
X03663Y03222D01*
X036213Y03283D02*
X036705Y032338D01*
X03184Y03295D02*
X03626D01*
X03168Y03279D02*
X03184Y03295D01*
X032767Y03243D02*
X033167Y03283D01*
X032298Y03243D02*
X032767D01*
X032154Y032574D02*
X032298Y03243D01*
X03321Y0327D02*
X03392D01*
X03272Y03221D02*
X03321Y0327D01*
X03272Y03045D02*
Y03221D01*
X033167Y03283D02*
X036213D01*
X033934Y0327D02*
X03615D01*
X038049Y03522D02*
X0394D01*
X04122Y03704*
X039866Y03193D02*
X039982Y031815D01*
X03989Y03218D02*
X03995D01*
X04003Y0321*
X0401*
X039982Y031815D02*
X040445D01*
X04083Y03241D02*
Y03307D01*
X041114Y036086D02*
X04112Y03608D01*
X0424Y03634D02*
X04283Y03591D01*
Y03408D02*
Y03591D01*
X029553Y032443D02*
X030529D01*
X02908Y03197D02*
X029553Y032443D01*
X02908Y03112D02*
Y03197D01*
X03135Y03153D02*
Y035D01*
X030657Y032571D02*
Y033197D01*
X030529Y032443D02*
X030657Y032571D01*
X03057Y03345D02*
X03077Y03365D01*
X03022Y03345D02*
X03057D01*
X03099Y03304D02*
Y03305D01*
X03385Y03679D02*
X03517D01*
X03537Y03659*
Y03607D02*
Y03659D01*
X03519Y03589D02*
X03537Y03607D01*
X03519Y03482D02*
Y03589D01*
X035169Y03482D02*
X03519D01*
X035166Y034823D02*
X035169Y03482D01*
X03928Y03086D02*
X03985Y03029D01*
X03928Y03086D02*
Y031475D01*
X02984Y03155D02*
Y03204D01*
Y03155D02*
X02999Y0314D01*
X03446Y03341D02*
Y03406D01*
X03485Y03445*
X034342Y034132D02*
X03479Y03458D01*
X035313*
X03485Y03445D02*
X03535D01*
X03556Y03466*
Y03586*
X035313Y03458D02*
X035442Y034709D01*
Y035909*
X03918Y0366D02*
Y036639D01*
X02848Y03439D02*
Y03633D01*
Y03634*
X02799Y03497D02*
X02832Y03464D01*
X0268Y03497D02*
X02799D01*
X03103Y03527D02*
X03136Y0356D01*
X03159Y03549D02*
Y03646D01*
X03134Y03671D02*
X03159Y03646D01*
X02866Y03343D02*
X02887Y03364D01*
X03134Y0356D02*
X03136D01*
X03276Y03268D02*
X032772Y032692D01*
X02878Y03626D02*
X02944D01*
X02962Y03608*
Y03497D02*
Y03608D01*
Y03497D02*
X02972Y03487D01*
X030657Y033197D02*
X03075Y03329D01*
X03098*
X031054Y033216*
X03401Y03321D02*
X03426D01*
X03446Y03341*
X03401Y03344D02*
X034022D01*
X034042Y03346*
X03401Y03344D02*
X03426D01*
X034342Y033522*
Y034132*
X04468Y034008D02*
X045048D01*
X044296Y032596D02*
X0443Y0326D01*
Y033058*
X044296Y033062D02*
X0443Y033058D01*
X043241Y0363D02*
X0439D01*
X044296Y035904*
Y033062D02*
Y035904D01*
X04078Y03634D02*
X0424D01*
X04Y03556D02*
X04078Y03634D01*
X04142Y03148D02*
Y03367D01*
Y03148D02*
X041789Y031111D01*
X042071*
X03247Y03569D02*
Y03623D01*
X02848Y03439D02*
X02886Y03401D01*
X02832Y03432D02*
Y03464D01*
Y03432D02*
X02879Y03385D01*
X03043*
X02886Y03401D02*
X03015D01*
X03021Y03407*
X03042*
X02887Y03364D02*
X03033D01*
X04011Y03067D02*
X04224D01*
X0431Y03153*
X041114Y036086D02*
X041116D01*
X04247Y03259D02*
X04338D01*
X04379Y03218*
X03036Y03429D02*
X03075D01*
X03103Y03457*
Y03527*
X03077Y03365D02*
Y03406D01*
X03118Y03447*
Y03508*
X03159Y03549*
X03176Y03541D02*
X03219D01*
X03247Y03569*
X03135Y035D02*
X03176Y03541D01*
X02999Y0314D02*
X03122D01*
X03135Y03153*
X02866Y03221D02*
Y03343D01*
X02222Y03491D02*
X02238Y03475D01*
X02299Y03283D02*
Y03284D01*
Y03283D02*
X02422Y0316D01*
Y03077D02*
Y0316D01*
Y03077D02*
X02452Y03047D01*
X02843*
G54D44*
X02407Y03492D02*
Y03525D01*
X02398Y03483D02*
X02407Y03492D01*
X02381Y03554D02*
X02398Y03571D01*
X02381Y03512D02*
Y03554D01*
X0238Y03511D02*
X02381Y03512D01*
X0294Y03128D02*
Y03192D01*
X02972Y03224*
X03365Y03691D02*
X03379Y03705D01*
X037729D02*
X03814Y036639D01*
X03379Y03705D02*
X037729D01*
X02972Y03224D02*
X03078D01*
X03085Y0329D02*
X03099Y03304D01*
X03085Y03231D02*
Y0329D01*
X03078Y03224D02*
X03085Y03231D01*
X03375Y03568D02*
Y036535D01*
X03365Y036635D02*
X03375Y036535D01*
X03365Y036635D02*
Y03691D01*
X03366Y03559D02*
X03375Y03568D01*
X03364Y03559D02*
X03366D01*
X02398Y03571D02*
X025554D01*
X025764Y03592*
X02349Y03483D02*
X02398D01*
X03197Y03048D02*
Y03071D01*
X02259Y03225D02*
X02332Y03152D01*
X02259Y03225D02*
Y03393D01*
X02349Y03483*
X0294Y03128D02*
X02976Y03092D01*
X03176*
X03197Y03071*
G54D50*
X043241Y0363D03*
X043793Y03218D03*
X04468Y033221D03*
Y034008D03*
G54D53*
X03818Y036639D03*
X03918D03*
Y035639D03*
X023317Y031537D03*
G54D54*
X02395Y03435D03*
X023426Y034124D03*
X023244Y033636D03*
X023426Y033159D03*
X02395Y032923D03*
X02447Y033159D03*
X02466Y033636D03*
X024458Y034124D03*
X038231D03*
X038434Y033635D03*
X038243Y033159D03*
X037724Y032923D03*
X0372Y033159D03*
X037018Y033635D03*
X0372Y034124D03*
X037724Y03435D03*
G54D55*
X023952Y033636D03*
X037726D03*
G54D56*
X02407Y03525D03*
X02381Y0351D03*
X02558Y03197D03*
X0294Y03189D03*
X03112Y033216D03*
X030314Y03487D03*
X0401Y0321D03*
X04283Y03408D03*
X03099Y03304D03*
X03168Y03279D03*
X03519Y03482D03*
X03385Y03679D03*
X032469Y03623D03*
X03375Y036535D03*
X02984Y03204D03*
X02848Y03633D03*
X0268Y03497D03*
X03134Y0356D03*
X032154Y032574D03*
X03276Y03268D03*
X02299Y03284D03*
X02878Y03626D03*
X03614Y035205D03*
X03364Y03559D03*
X03401Y03321D03*
Y03344D03*
X041116Y036086D03*
X04142Y03367D03*
X03927Y031475D03*
X04049Y03549D03*
X03272Y03045D03*
X04Y03556D03*
X04083Y03307D03*
X042051Y031111D03*
X04011Y03067D03*
X03036Y03429D03*
X03042Y03407D03*
X03033Y03364D03*
X03022Y03345D03*
X03043Y03385D03*
X025764Y03592D03*
X02866Y03219D03*
X03197Y03047D03*
X02238Y03475D03*
M02*