%FSTAX23Y23*%
%MOIN*%
%SFA1B1*%

%IPPOS*%
%ADD10C,0.006000*%
%ADD47C,0.011800*%
%ADD48C,0.005900*%
%ADD54C,0.007900*%
%ADD70C,0.010000*%
%ADD92C,0.009800*%
%ADD93C,0.003900*%
%ADD94C,0.006000*%
%ADD95C,0.001000*%
%ADD96C,0.007000*%
%ADD97R,0.019700X0.157500*%
%LNvapeix_mini_pcb-1*%
%LPD*%
G36*
X0274Y03621D02*
X02737D01*
Y0364*
X0274*
Y03621*
G37*
G36*
X03013Y03049D02*
X03018D01*
Y03045*
X03013*
Y03038*
X0301*
Y03045*
X03004*
Y03049*
X0301*
Y03056*
X03013*
Y03049*
G37*
G36*
X0298Y03031D02*
X02964D01*
Y03032*
X0298*
Y03031*
G37*
G36*
X03001Y03035D02*
X02997D01*
Y03054*
X02993Y03035*
X02989*
X02985Y03054*
Y03035*
X02982*
Y0306*
X02988*
X02991Y03043*
X02995Y0306*
X03001*
Y03035*
G37*
G36*
X02751Y03641D02*
X02751D01*
X02751*
X02752Y03641*
X02752*
X02752Y0364*
X02753Y0364*
X02753Y0364*
X02754Y0364*
X02754Y0364*
X02755Y03639*
X02755Y03639*
X02756Y03639*
X02756Y03638*
X02756Y03638*
X02756Y03638*
X02756Y03638*
X02757Y03637*
X02757Y03637*
X02757Y03637*
X02757Y03636*
X02757Y03636*
X02758Y03635*
X02758Y03634*
X02758Y03634*
X02758Y03633*
X02758Y03632*
Y03631*
X02758Y03631*
Y0363*
Y0363*
Y0363*
X02758Y0363*
Y03629*
Y03629*
X02758Y03628*
X02758Y03628*
X02758Y03627*
X02758Y03626*
X02758Y03626*
X02757Y03625*
X02757Y03625*
X02757Y03624*
X02756Y03623*
X02756Y03623*
Y03623*
X02756Y03623*
X02756Y03622*
X02755Y03622*
X02755Y03622*
X02755Y03622*
X02755Y03622*
X02754Y03621*
X02754Y03621*
X02753Y03621*
X02753Y03621*
X02752Y03621*
X02752Y0362*
X02751Y0362*
X02751*
X0275*
X0275*
X0275*
X0275Y0362*
X02749*
X02749Y03621*
X02749Y03621*
X02748Y03621*
X02748Y03621*
X02747Y03621*
X02747Y03621*
X02746Y03622*
X02746Y03622*
X02745Y03622*
X02745Y03623*
Y03623*
X02745Y03623*
X02745Y03623*
X02745Y03623*
X02744Y03624*
X02744Y03624*
X02744Y03624*
X02744Y03625*
X02744Y03625*
X02743Y03626*
X02743Y03626*
X02743Y03627*
X02743Y03628*
X02743Y03629*
Y0363*
X02743Y0363*
Y03631*
Y03631*
X02743Y03631*
Y03631*
Y03632*
Y03632*
Y03632*
X02743Y03633*
X02743Y03634*
X02743Y03635*
X02744Y03636*
X02744Y03636*
X02744Y03636*
Y03637*
X02744Y03637*
X02744Y03637*
X02744Y03637*
X02745Y03638*
X02745Y03639*
X02746Y03639*
X02746Y0364*
X02747Y0364*
X02747*
X02747Y0364*
X02747Y0364*
X02747Y0364*
X02747Y0364*
X02748Y0364*
X02748Y0364*
X02749Y03641*
X0275Y03641*
X02751Y03641*
X02751*
X02751Y03641*
G37*
G36*
X02727Y0364D02*
X02728D01*
X02729Y0364*
X02729Y0364*
X0273Y0364*
X0273Y0364*
X0273Y0364*
X02731Y0364*
X02731Y03639*
X02731Y03639*
X02731Y03639*
X02732Y03639*
X02732Y03638*
X02732Y03638*
X02733Y03638*
X02733Y03637*
X02733Y03637*
X02733Y03636*
X02734Y03636*
X02734Y03635*
X02734Y03635*
Y03635*
Y03635*
Y03635*
X02734Y03634*
Y03634*
X02734Y03634*
X02734Y03633*
Y03633*
X02734Y03632*
Y03631*
X02734Y0363*
Y0363*
Y0363*
Y0363*
Y0363*
X02734Y0363*
Y03629*
Y03629*
Y03629*
X02734Y03628*
X02734Y03627*
X02734Y03627*
X02734Y03626*
X02734Y03626*
Y03626*
X02733Y03625*
X02733Y03625*
X02733Y03624*
X02733Y03624*
X02733Y03623*
X02732Y03623*
Y03623*
X02732Y03623*
X02732Y03623*
X02732Y03622*
X02731Y03622*
X02731Y03622*
X02731Y03622*
X0273Y03621*
X0273*
X0273Y03621*
X0273Y03621*
X02729Y03621*
X02729Y03621*
X02728Y03621*
X02728*
X02727*
X02721*
Y0364*
X02727*
X02727*
G37*
G36*
X02525Y03621D02*
X02521D01*
X02518Y03635*
X02515Y03621*
X02511*
X02507Y0364*
X02511*
X02513Y03627*
X02516Y0364*
X0252*
X02523Y03627*
X02525Y0364*
X02528*
X02525Y03621*
G37*
G36*
X02568Y03633D02*
X02575Y03621D01*
X02571*
X02566Y0363*
X02564Y03627*
Y03621*
X0256*
Y0364*
X02564*
Y03632*
X0257Y0364*
X02575*
X02568Y03633*
G37*
G36*
X02538Y03641D02*
X02538D01*
X02538*
X02538Y03641*
X02539Y0364*
X02539Y0364*
X0254Y0364*
X0254Y0364*
X02541Y0364*
X02541Y03639*
X02541Y03639*
X02542Y03639*
X02542Y03639*
X02542Y03639*
X02542Y03638*
X02542Y03638*
X02543Y03637*
X02543Y03637*
X02543Y03636*
X02544Y03635*
X0254Y03634*
Y03634*
Y03634*
X0254Y03635*
X0254Y03635*
X0254Y03635*
X0254Y03636*
X02539Y03636*
X02539Y03636*
X02539*
X02539Y03637*
X02539Y03637*
X02538Y03637*
X02538Y03637*
X02538Y03637*
X02537Y03637*
X02537Y03637*
X02537*
X02537Y03637*
X02536*
X02536Y03637*
X02535Y03637*
X02535Y03637*
X02535Y03636*
X02535Y03636*
X02534Y03636*
X02534Y03636*
X02534Y03636*
Y03636*
X02534Y03635*
Y03635*
X02534Y03635*
X02534Y03635*
X02533Y03635*
Y03634*
X02533Y03634*
X02533Y03633*
Y03633*
X02533Y03632*
Y03632*
X02533Y03631*
Y03631*
Y03631*
Y0363*
Y0363*
Y0363*
Y0363*
X02533Y03629*
Y03629*
Y03629*
X02533Y03628*
X02533Y03627*
X02534Y03626*
X02534Y03626*
X02534Y03626*
X02534Y03625*
Y03625*
X02534Y03625*
X02534Y03625*
X02535Y03625*
X02535Y03624*
X02536Y03624*
X02536Y03624*
X02537*
X02537Y03624*
X02537*
X02537Y03624*
X02537*
X02538*
X02538Y03624*
X02538Y03624*
X02539Y03624*
X02539Y03625*
X02539Y03625*
X02539Y03625*
X02539Y03625*
X0254Y03626*
X0254Y03626*
X0254Y03627*
X0254Y03627*
X0254Y03628*
X02544Y03627*
Y03627*
X02544Y03627*
Y03626*
X02543Y03626*
Y03626*
X02543Y03626*
X02543Y03625*
X02543Y03625*
X02543Y03624*
X02542Y03623*
X02542Y03623*
X02541Y03622*
X02541Y03622*
X02541*
X02541Y03622*
X02541Y03622*
X02541Y03622*
X0254Y03621*
X0254Y03621*
X0254Y03621*
X02539Y03621*
X02539Y03621*
X02538Y0362*
X02537Y0362*
X02537*
X02537*
X02537*
X02536*
X02536Y0362*
X02536*
X02535Y03621*
X02535Y03621*
X02535Y03621*
X02534Y03621*
X02534Y03621*
X02533Y03621*
X02533Y03622*
X02533Y03622*
X02532Y03622*
X02532Y03623*
X02532Y03623*
Y03623*
X02532Y03623*
X02531Y03623*
X02531Y03624*
X02531Y03624*
X02531Y03624*
X02531Y03625*
X0253Y03625*
X0253Y03626*
X0253Y03626*
X0253Y03627*
X0253Y03628*
X0253Y03629*
X0253Y03629*
Y0363*
Y0363*
Y03631*
Y03631*
Y03631*
X0253Y03632*
Y03632*
X0253Y03633*
X0253Y03633*
X0253Y03634*
X0253Y03634*
X0253Y03635*
X02531Y03636*
X02531Y03636*
X02531Y03637*
X02531Y03638*
X02532Y03638*
X02532Y03638*
X02532Y03638*
X02532Y03639*
X02532Y03639*
X02533Y03639*
X02533Y03639*
X02533Y03639*
X02534Y0364*
X02534Y0364*
X02534Y0364*
X02535Y0364*
X02535Y03641*
X02536Y03641*
X02537*
X02537Y03641*
X02537*
X02538Y03641*
G37*
G36*
X02715Y03621D02*
X02712D01*
X02709Y03635*
X02705Y03621*
X02702*
X02698Y0364*
X02701*
X02704Y03627*
X02707Y0364*
X0271*
X02713Y03627*
X02716Y0364*
X02719*
X02715Y03621*
G37*
G36*
X02691Y03641D02*
X02691D01*
X02691*
X02691Y03641*
X02692*
X02693Y0364*
X02693Y0364*
X02694Y0364*
X02694Y0364*
X02694Y03639*
X02695Y03639*
Y03639*
X02695*
X02695Y03639*
X02695Y03639*
X02695Y03639*
X02695Y03638*
X02695Y03638*
X02696Y03638*
X02696Y03637*
X02696Y03637*
X02696Y03637*
X02696Y03636*
X02696Y03636*
X02696Y03635*
Y03635*
X02693Y03635*
Y03635*
Y03635*
X02693Y03635*
X02693Y03635*
X02693Y03636*
X02693Y03636*
X02692Y03637*
X02692Y03637*
Y03637*
X02692*
X02692Y03637*
X02692Y03637*
X02691Y03637*
X02691Y03637*
X02691Y03637*
X0269*
X0269*
X0269*
X02689Y03637*
X02689*
X02689Y03637*
X02688Y03637*
X02688Y03637*
X02688Y03637*
X02688Y03637*
X02688Y03637*
X02688Y03636*
Y03636*
X02687Y03636*
X02687Y03636*
Y03635*
Y03635*
X02687Y03635*
Y03635*
X02688Y03635*
X02688Y03635*
X02688Y03634*
X02688Y03634*
X02688*
X02688Y03634*
X02688Y03634*
X02689Y03634*
X02689Y03634*
X02689Y03634*
X0269Y03633*
X0269Y03633*
X0269Y03633*
X02691Y03633*
X02691Y03633*
X02691*
X02691Y03633*
X02691*
X02692Y03633*
X02692Y03633*
X02692Y03632*
X02693Y03632*
X02693Y03632*
X02694Y03632*
X02694Y03632*
X02695Y03631*
Y03631*
X02695Y03631*
X02695Y03631*
X02695Y03631*
X02695Y03631*
X02696Y0363*
X02696Y0363*
X02696Y03629*
X02696*
Y03629*
X02696Y03629*
X02696Y03629*
X02697Y03628*
X02697Y03628*
X02697Y03627*
Y03626*
Y03626*
Y03626*
Y03626*
Y03626*
Y03626*
X02697Y03625*
X02697Y03625*
X02696Y03624*
X02696Y03623*
X02696Y03623*
X02696Y03623*
X02695Y03622*
X02695Y03622*
X02695Y03622*
X02695Y03622*
X02695Y03622*
X02695Y03622*
X02694Y03621*
X02694Y03621*
X02694Y03621*
X02693Y03621*
X02693Y03621*
X02692Y03621*
X02692Y03621*
X02691Y0362*
X02691Y0362*
X0269*
X0269*
X0269*
X02689Y0362*
X02689Y03621*
X02688Y03621*
X02688Y03621*
X02687Y03621*
X02687Y03622*
X02686Y03622*
X02685Y03623*
X02685Y03623*
X02685Y03624*
X02685Y03624*
X02684Y03624*
X02684Y03625*
X02684Y03625*
X02684Y03626*
X02684Y03627*
X02684Y03627*
X02687Y03627*
Y03627*
Y03627*
X02687Y03627*
X02687Y03627*
X02687Y03626*
X02687Y03626*
X02687Y03626*
X02688Y03625*
X02688Y03625*
X02688Y03625*
X02689Y03624*
X02689Y03624*
X02689Y03624*
X0269Y03624*
X0269Y03624*
X02691*
X02691Y03624*
X02691*
X02692Y03624*
X02692Y03624*
X02692Y03624*
X02693Y03625*
X02693Y03625*
X02693Y03625*
X02693Y03625*
X02693Y03625*
X02693Y03626*
X02693Y03626*
X02694Y03626*
Y03627*
Y03627*
X02693Y03627*
X02693Y03627*
X02693Y03628*
X02693Y03628*
X02693Y03628*
X02693Y03628*
X02692Y03628*
Y03628*
X02692*
X02692Y03628*
X02692Y03629*
X02692*
X02691Y03629*
X02691Y03629*
X02691Y03629*
X02691Y03629*
X0269Y03629*
X0269Y03629*
X02689Y03629*
X02689*
X02689*
X02689Y03629*
X02689Y0363*
X02688Y0363*
X02688Y0363*
X02687Y0363*
X02687Y0363*
X02686Y03631*
Y03631*
X02686Y03631*
X02686Y03631*
X02686Y03631*
X02686Y03631*
X02685Y03632*
X02685Y03632*
X02685Y03633*
X02685*
Y03633*
X02685Y03633*
X02685Y03633*
X02684Y03634*
X02684Y03634*
X02684Y03635*
Y03635*
Y03635*
Y03635*
Y03635*
Y03636*
X02684Y03636*
X02684Y03637*
X02685Y03637*
X02685Y03638*
X02685Y03638*
X02685Y03638*
X02685Y03639*
X02685Y03639*
X02686Y03639*
X02686Y03639*
X02687Y0364*
X02687Y0364*
X02687*
X02687Y0364*
X02688Y0364*
X02688Y0364*
X02688Y03641*
X02689Y03641*
X02689*
X0269Y03641*
X0269*
X02691Y03641*
G37*
G36*
X0255Y03624D02*
X02558D01*
Y03621*
X02546*
Y0364*
X0255*
Y03624*
G37*
G36*
X04185Y03238D02*
X0418D01*
Y03217*
X04175*
Y03238*
X04169*
Y03242*
X04185*
Y03238*
G37*
G36*
X04203D02*
X04197D01*
Y03217*
X04193*
Y03238*
X04187*
Y03242*
X04203*
Y03238*
G37*
G36*
X04215Y03242D02*
X04215D01*
X04215Y03242*
X04216Y03242*
X04216Y03242*
X04217Y03242*
X04217Y03242*
X04218Y03242*
X04219Y03241*
X04219Y03241*
X0422Y03241*
X0422Y0324*
X04221Y0324*
X04221Y03239*
X04221Y03239*
Y03239*
X04222Y03239*
X04222Y03238*
X04222Y03238*
X04222Y03238*
X04222Y03237*
X04223Y03237*
X04223Y03236*
X04223Y03235*
X04223Y03234*
X04224Y03234*
X04224Y03233*
X04224Y03232*
Y03231*
X04224Y0323*
Y0323*
Y03229*
Y03229*
X04224Y03229*
Y03228*
X04224Y03227*
X04224Y03227*
X04224Y03226*
X04224Y03225*
X04223Y03225*
X04223Y03224*
X04223Y03223*
X04223Y03222*
X04222Y03221*
X04222Y03221*
X04221Y0322*
X04221*
X04221Y0322*
X04221Y0322*
X04221Y0322*
X0422Y03219*
X0422Y03219*
X0422Y03219*
X04219Y03218*
X04219Y03218*
X04218Y03218*
X04218Y03218*
X04217Y03217*
X04217Y03217*
X04216Y03217*
X04215Y03217*
X04214*
X04214*
X04214*
X04214*
X04213*
X04213Y03217*
X04212Y03217*
X04212Y03217*
X04211Y03217*
X04211Y03218*
X0421Y03218*
X0421Y03218*
X04209Y03219*
X04208Y03219*
X04208Y03219*
X04207Y0322*
X04207*
Y0322*
X04207Y0322*
X04207Y03221*
X04207Y03221*
X04207Y03221*
X04206Y03222*
X04206Y03222*
X04206Y03223*
X04205Y03224*
X04205Y03225*
X04205Y03225*
X04205Y03226*
X04205Y03227*
X04205Y03228*
Y03229*
Y0323*
Y0323*
Y0323*
Y03231*
X04205Y03231*
Y03231*
Y03232*
X04205Y03233*
X04205Y03234*
X04205Y03236*
X04206Y03237*
Y03237*
X04206Y03237*
X04206Y03237*
X04206Y03237*
X04206Y03238*
X04207Y03238*
X04207Y03239*
X04208Y0324*
X04208Y0324*
X04209Y03241*
X04209Y03241*
X04209*
X0421Y03241*
X0421Y03241*
X0421Y03241*
X0421Y03242*
X04211Y03242*
X04211Y03242*
X04212Y03242*
X04213Y03242*
X04214Y03242*
X04215*
X04215*
G37*
G36*
X0405Y03217D02*
X04045D01*
X04043Y03223*
X04035*
X04034Y03217*
X04029*
X04037Y03242*
X04042*
X0405Y03217*
G37*
G36*
X04066Y03238D02*
X0406D01*
Y03217*
X04056*
Y03238*
X0405*
Y03242*
X04066*
Y03238*
G37*
G36*
X04139Y03242D02*
X0414D01*
X04141Y03242*
X04142Y03242*
X04142Y03242*
X04143Y03241*
X04143Y03241*
Y03241*
X04143*
X04143Y03241*
X04144Y03241*
X04144Y03241*
X04144Y0324*
X04145Y0324*
X04145Y03239*
X04145Y03239*
X04145Y03239*
X04145Y03239*
X04146Y03238*
X04146Y03238*
X04146Y03237*
X04146Y03236*
Y03236*
Y03236*
Y03235*
Y03235*
X04146Y03235*
X04146Y03234*
X04146Y03234*
X04146Y03233*
X04145Y03232*
X04145*
X04145Y03232*
X04145Y03232*
X04145Y03232*
X04144Y03231*
X04144Y03231*
X04144Y03231*
X04143Y0323*
X04143*
X04144Y0323*
X04144Y0323*
X04144Y0323*
X04145Y0323*
X04145Y03229*
X04146Y03229*
X04146Y03228*
X04146*
X04146Y03228*
X04146Y03228*
X04147Y03227*
X04147Y03227*
X04147Y03226*
X04147Y03225*
Y03224*
Y03224*
Y03224*
Y03224*
Y03224*
Y03223*
X04147Y03223*
X04147Y03222*
X04147Y03221*
X04146Y03221*
X04146Y0322*
X04146Y0322*
X04145Y03219*
X04145Y03219*
X04144Y03219*
X04144Y03218*
X04143Y03218*
X04143Y03218*
X04143*
X04143*
X04142*
X04142*
X04142*
X04142Y03217*
X04142*
X04141*
X04141Y03217*
X0414*
X0414*
X04139*
X04139*
X0413*
Y03242*
X04139*
X04139Y03242*
G37*
G36*
X0411Y03217D02*
X04107D01*
Y03237*
X04103Y03217*
X04099*
X04095Y03237*
Y03217*
X04091*
Y03242*
X04097*
X04101Y03225*
X04104Y03242*
X0411*
Y03217*
G37*
G36*
X04243D02*
X04239D01*
X04231Y03233*
Y03217*
X04227*
Y03242*
X04231*
X0424Y03225*
Y03242*
X04243*
Y03217*
G37*
G36*
X02962Y03035D02*
X02958D01*
Y03046*
X0295*
Y03035*
X02946*
Y0306*
X0295*
Y0305*
X02958*
Y0306*
X02962*
Y03035*
G37*
G36*
X04167Y03229D02*
D01*
Y03229*
Y03229*
Y03228*
Y03228*
Y03227*
Y03227*
X04167Y03226*
Y03225*
X04166Y03224*
X04166Y03223*
X04166Y03223*
X04166Y03222*
Y03222*
Y03222*
X04166*
Y03222*
X04166Y03221*
X04166Y03221*
X04166Y03221*
X04165Y0322*
X04165Y03219*
X04164Y03219*
X04164Y03218*
X04163Y03218*
X04163Y03218*
X04163Y03218*
X04163Y03218*
X04162Y03218*
X04162Y03217*
X04161Y03217*
X0416Y03217*
X04159*
X04158*
X04158*
X04158*
X04157Y03217*
X04156Y03217*
X04155Y03217*
X04155Y03218*
X04154Y03218*
X04154*
X04154Y03218*
X04153Y03218*
X04153Y03219*
X04152Y03219*
X04152Y0322*
X04152Y0322*
X04151Y03221*
Y03221*
Y03221*
X04151Y03222*
X04151Y03222*
Y03222*
X04151Y03223*
Y03223*
X04151Y03223*
X04151Y03224*
Y03225*
X04151Y03225*
X04151Y03226*
Y03227*
Y03228*
Y03229*
Y03242*
X04155*
Y03229*
Y03229*
Y03228*
Y03228*
Y03228*
Y03228*
Y03228*
Y03227*
X04155Y03226*
Y03226*
Y03225*
X04155Y03225*
Y03225*
Y03224*
Y03224*
X04155Y03224*
X04155Y03224*
X04155Y03223*
X04155Y03223*
X04156Y03222*
X04156Y03222*
X04156Y03222*
X04156Y03222*
X04157Y03222*
X04157Y03221*
X04158Y03221*
X04158Y03221*
X04159Y03221*
X04159*
X04159Y03221*
X0416*
X0416Y03221*
X0416Y03221*
X04161Y03222*
X04161Y03222*
X04161Y03222*
X04161*
X04161Y03222*
X04161Y03222*
X04162Y03222*
X04162Y03223*
X04162Y03223*
X04162Y03224*
Y03224*
X04162Y03224*
Y03224*
Y03224*
X04162Y03225*
Y03225*
Y03225*
Y03226*
X04163Y03226*
Y03226*
Y03227*
Y03228*
Y03228*
Y03242*
X04167*
Y03229*
G37*
G36*
X04078Y03242D02*
X04079D01*
X04079Y03242*
X04079Y03242*
X0408Y03242*
X0408Y03242*
X04081Y03242*
X04082Y03242*
X04082Y03241*
X04083Y03241*
X04083Y03241*
X04084Y0324*
X04084Y0324*
X04085Y03239*
Y03239*
X04085Y03239*
X04085Y03239*
X04085Y03238*
X04086Y03238*
X04086Y03238*
X04086Y03237*
X04086Y03237*
X04087Y03236*
X04087Y03235*
X04087Y03234*
X04087Y03234*
X04088Y03233*
X04088Y03232*
X04088Y03231*
Y0323*
Y0323*
Y03229*
Y03229*
Y03229*
X04088Y03228*
Y03227*
X04088Y03227*
X04087Y03226*
X04087Y03225*
X04087Y03225*
X04087Y03224*
X04087Y03223*
X04086Y03222*
X04086Y03221*
X04085Y03221*
X04085Y0322*
X04085Y0322*
X04085Y0322*
X04084Y0322*
X04084Y03219*
X04084Y03219*
X04083Y03219*
X04083Y03218*
X04083Y03218*
X04082Y03218*
X04082Y03218*
X04081Y03217*
X0408Y03217*
X0408Y03217*
X04079Y03217*
X04078*
X04078*
X04078*
X04077*
X04077*
X04076Y03217*
X04076Y03217*
X04075Y03217*
X04075Y03217*
X04074Y03218*
X04074Y03218*
X04073Y03218*
X04073Y03219*
X04072Y03219*
X04072Y03219*
X04071Y0322*
X04071Y0322*
X04071Y0322*
X04071Y03221*
X0407Y03221*
X0407Y03221*
X0407Y03222*
X0407Y03222*
X04069Y03223*
X04069Y03224*
X04069Y03225*
X04069Y03225*
X04068Y03226*
X04068Y03227*
X04068Y03228*
X04068Y03229*
Y0323*
Y0323*
X04068Y0323*
Y03231*
Y03231*
X04068Y03231*
Y03232*
X04068Y03233*
X04069Y03234*
X04069Y03236*
X04069Y03237*
X0407Y03237*
X0407Y03237*
Y03237*
X0407Y03237*
X0407Y03238*
X0407Y03238*
X04071Y03239*
X04071Y0324*
X04072Y0324*
X04073Y03241*
X04073*
Y03241*
X04073*
X04073Y03241*
X04073Y03241*
X04074Y03241*
X04074Y03242*
X04074Y03242*
X04075Y03242*
X04076Y03242*
X04077Y03242*
X04078Y03242*
X04078*
X04078*
G37*
G36*
X04128Y03213D02*
X04112D01*
Y03215*
X04128*
Y03213*
G37*
G36*
X025Y03641D02*
X025D01*
X025*
X02501Y03641*
X02501*
X02502Y0364*
X02503Y0364*
X02503Y0364*
X02503Y0364*
X02504Y03639*
X02504Y03639*
X02504Y03639*
X02504*
X02504Y03639*
X02504Y03639*
X02504Y03639*
X02505Y03638*
X02505Y03638*
X02505Y03638*
X02505Y03637*
X02505Y03637*
X02505Y03637*
X02505Y03636*
X02506Y03636*
X02506Y03635*
Y03635*
X02502Y03635*
Y03635*
X02502Y03635*
Y03635*
X02502Y03635*
X02502Y03636*
X02502Y03636*
X02502Y03637*
X02501Y03637*
Y03637*
X02501*
X02501Y03637*
X02501Y03637*
X02501Y03637*
X025Y03637*
X025Y03637*
X02499*
X02499*
X02499*
X02499Y03637*
X02498*
X02498Y03637*
X02498Y03637*
X02497Y03637*
X02497*
Y03637*
X02497Y03637*
X02497Y03637*
X02497Y03636*
X02497Y03636*
X02497Y03636*
Y03636*
Y03635*
Y03635*
Y03635*
X02497Y03635*
Y03635*
X02497Y03635*
X02497Y03634*
X02497Y03634*
X02497Y03634*
X02498Y03634*
X02498Y03634*
X02498Y03634*
X02499Y03634*
X02499Y03633*
X02499Y03633*
X025Y03633*
X025Y03633*
X025Y03633*
X025*
X02501Y03633*
X02501*
X02501Y03633*
X02501Y03633*
X02502Y03632*
X02502Y03632*
X02503Y03632*
X02503Y03632*
X02504Y03632*
X02504Y03631*
X02504Y03631*
X02504Y03631*
X02504Y03631*
X02504Y03631*
X02505Y03631*
X02505Y0363*
X02505Y0363*
X02506Y03629*
X02506Y03629*
X02506Y03629*
X02506Y03629*
X02506Y03628*
X02506Y03628*
Y03627*
X02506Y03626*
Y03626*
Y03626*
Y03626*
X02506Y03626*
Y03626*
Y03625*
X02506Y03625*
X02506Y03624*
X02505Y03623*
X02505Y03623*
X02505Y03623*
X02505Y03622*
X02505Y03622*
X02504*
X02504Y03622*
X02504Y03622*
X02504Y03622*
X02504Y03622*
X02504Y03621*
X02503Y03621*
X02503Y03621*
X02503Y03621*
X02502Y03621*
X02502Y03621*
X02501Y03621*
X02501Y0362*
X025Y0362*
X025*
X02499*
X02499*
X02499Y0362*
X02498Y03621*
X02498Y03621*
X02497Y03621*
X02497Y03621*
X02496Y03622*
X02495Y03622*
X02495Y03623*
X02494Y03623*
X02494Y03624*
X02494Y03624*
X02494Y03624*
X02493Y03625*
X02493Y03625*
X02493Y03626*
X02493Y03627*
Y03627*
X02496Y03627*
Y03627*
X02496Y03627*
Y03627*
X02496Y03627*
X02497Y03626*
X02497Y03626*
X02497Y03626*
X02497Y03625*
X02497Y03625*
X02498Y03625*
X02498Y03624*
X02498Y03624*
X02499Y03624*
X02499Y03624*
X025Y03624*
X025*
X025Y03624*
X02501*
X02501Y03624*
X02501Y03624*
X02502Y03624*
X02502Y03625*
X02502*
X02502Y03625*
X02502Y03625*
X02502Y03625*
X02503Y03625*
X02503Y03626*
X02503Y03626*
Y03626*
Y03627*
Y03627*
Y03627*
X02503Y03627*
X02503Y03628*
X02502Y03628*
X02502Y03628*
X02502Y03628*
X02502Y03628*
X02502Y03628*
X02501Y03628*
X02501Y03629*
X02501*
X02501Y03629*
X025Y03629*
X025Y03629*
X025Y03629*
X025Y03629*
X02499Y03629*
X02499Y03629*
X02499*
X02499*
X02498Y03629*
X02498Y0363*
X02498Y0363*
X02497Y0363*
X02497Y0363*
X02496Y0363*
X02496Y03631*
Y03631*
X02496Y03631*
X02495Y03631*
X02495Y03631*
X02495Y03631*
X02495Y03632*
X02494Y03632*
X02494Y03633*
X02494Y03633*
X02494Y03633*
X02494Y03633*
X02494Y03634*
X02494Y03634*
Y03635*
X02494Y03635*
Y03635*
Y03635*
Y03635*
X02494Y03636*
Y03636*
X02494Y03637*
X02494Y03637*
X02494Y03638*
X02494Y03638*
X02494*
X02494Y03638*
X02495Y03639*
X02495Y03639*
X02495Y03639*
X02495Y03639*
X02496Y0364*
X02496Y0364*
X02497Y0364*
X02497Y0364*
X02497Y0364*
X02498Y03641*
X02498Y03641*
X02499*
X025Y03641*
X025*
X025Y03641*
G37*
G36*
X03102Y03228D02*
X03095D01*
Y03206*
X03091*
Y03228*
X03084*
Y03233*
X03102*
Y03228*
G37*
G36*
X03121D02*
X03114D01*
Y03206*
X0311*
Y03228*
X03103*
Y03233*
X03121*
Y03228*
G37*
G36*
X03081Y03218D02*
D01*
Y03218*
Y03218*
Y03218*
Y03217*
Y03217*
Y03216*
X03081Y03215*
Y03214*
X03081Y03213*
X03081Y03212*
X03081Y03212*
X03081Y03211*
X0308Y03211*
Y0321*
X0308Y0321*
Y0321*
X0308Y0321*
X0308Y03209*
X0308Y03209*
X03079Y03208*
X03079Y03207*
X03078Y03207*
X03078*
Y03207*
X03078*
X03077Y03206*
X03077Y03206*
X03077Y03206*
X03076Y03206*
X03076Y03206*
X03075Y03205*
X03074Y03205*
X03072Y03205*
X03072*
X03072Y03205*
X03071*
X0307Y03205*
X0307Y03205*
X03069Y03206*
X03068Y03206*
X03067Y03206*
X03067Y03206*
X03067Y03207*
X03066Y03207*
X03066Y03207*
X03065Y03208*
X03065Y03208*
X03065Y03209*
X03064Y0321*
Y0321*
Y0321*
Y0321*
X03064Y0321*
X03064Y03211*
Y03211*
X03064Y03211*
X03064Y03212*
X03064Y03212*
Y03213*
X03064Y03214*
X03063Y03214*
Y03215*
X03063Y03216*
Y03217*
Y03218*
Y03233*
X03068*
Y03218*
Y03218*
Y03218*
Y03217*
Y03217*
Y03217*
Y03216*
Y03215*
Y03215*
X03068Y03214*
Y03214*
Y03214*
Y03213*
X03068Y03213*
X03068Y03213*
X03068Y03213*
X03068Y03212*
X03069Y03212*
X03069Y03211*
X03069Y03211*
X03069Y03211*
X0307Y03211*
X0307Y03211*
X0307Y0321*
X03071Y0321*
X03071Y0321*
X03072Y0321*
X03072*
X03073*
X03073*
X03073Y0321*
X03074Y0321*
X03074Y0321*
X03074Y0321*
X03075Y03211*
X03075*
X03075Y03211*
X03075Y03211*
X03075Y03211*
X03076Y03211*
X03076Y03212*
X03076Y03212*
X03076Y03212*
Y03213*
X03076Y03213*
Y03213*
Y03213*
X03076Y03214*
Y03214*
Y03214*
X03077Y03215*
Y03215*
Y03216*
X03077Y03216*
Y03217*
Y03218*
Y03233*
X03081*
Y03218*
G37*
G36*
X02989Y0321D02*
X03D01*
Y03206*
X02984*
Y03232*
X02989*
Y0321*
G37*
G36*
X0302Y03228D02*
X03008D01*
Y03222*
X03019*
Y03218*
X03008*
Y0321*
X0302*
Y03206*
X03003*
Y03233*
X0302*
Y03228*
G37*
G36*
X03051Y03233D02*
X03052Y03233D01*
X03053*
X03054Y03232*
X03054Y03232*
X03055Y03232*
X03055Y03232*
X03055*
X03055Y03232*
X03056Y03232*
X03056Y03231*
X03056Y03231*
X03057Y03231*
X03057Y0323*
X03057Y0323*
X03058Y0323*
X03058Y03229*
X03058Y03229*
X03058Y03229*
X03058Y03228*
X03058Y03227*
X03058Y03227*
X03059Y03226*
Y03226*
Y03226*
X03058Y03225*
Y03225*
X03058Y03224*
X03058Y03224*
X03058Y03223*
X03058Y03222*
X03057Y03222*
X03057Y03222*
X03057Y03221*
X03057Y03221*
X03056Y03221*
X03056Y0322*
X03055Y0322*
X03056*
X03056Y0322*
X03056Y0322*
X03057Y03219*
X03057Y03219*
X03058Y03219*
X03058Y03218*
X03058Y03218*
Y03217*
X03059Y03217*
X03059Y03217*
X03059Y03216*
X03059Y03216*
X03059Y03215*
X0306Y03214*
Y03213*
Y03213*
Y03213*
Y03213*
Y03213*
Y03212*
X03059Y03212*
X03059Y03211*
X03059Y0321*
X03059Y03209*
X03058Y03208*
X03058Y03208*
X03058Y03208*
X03058Y03208*
X03057Y03207*
X03057Y03207*
X03056Y03207*
X03056Y03206*
X03055Y03206*
X03055Y03206*
X03054*
X03054*
X03054*
X03054Y03206*
X03054*
X03053*
X03053*
X03052*
X03052Y03206*
X03051*
X0305*
X03041*
Y03233*
X03051*
X03051*
G37*
G36*
X03165Y03206D02*
X03161D01*
X03152Y03223*
Y03206*
X03148*
Y03233*
X03152*
X03161Y03215*
Y03233*
X03165*
Y03206*
G37*
G36*
X04535Y03083D02*
X04547D01*
Y03073*
X04535*
Y03059*
X04527*
Y03073*
X04515*
Y03083*
X04527*
Y03098*
X04535*
Y03083*
G37*
G36*
X02027Y03655D02*
X02039D01*
Y03645*
X02027*
Y03631*
X02019*
Y03645*
X02007*
Y03655*
X02019*
Y0367*
X02027*
Y03655*
G37*
G36*
X03175Y0303D02*
X03159D01*
Y03032*
X03175*
Y0303*
G37*
G36*
X04534Y03634D02*
X04523D01*
Y03655*
X04534*
Y03634*
G37*
G36*
X02029Y03069D02*
X02018D01*
Y0309*
X02029*
Y03069*
G37*
G36*
X03197Y03034D02*
X03193D01*
Y03054*
X03189Y03034*
X03185*
X03181Y03054*
Y03034*
X03177*
Y03059*
X03183*
X03187Y03042*
X03191Y03059*
X03197*
Y03034*
G37*
G36*
X0281Y03621D02*
X02806D01*
X028Y0364*
X02804*
X02808Y03626*
X02812Y0364*
X02815*
X0281Y03621*
G37*
G36*
X02638Y03639D02*
X02638D01*
X02639Y03639*
X02639Y03639*
X0264Y03639*
X0264Y03639*
X0264Y03639*
X02641Y03639*
X02641Y03638*
X02641Y03638*
X02642Y03638*
X02642Y03638*
X02642Y03637*
X02643Y03637*
X02643Y03637*
X02643Y03636*
X02643Y03636*
X02644Y03635*
X02644Y03635*
X02644Y03634*
Y03634*
X02644Y03634*
Y03634*
Y03634*
X02644Y03633*
Y03633*
X02644Y03633*
Y03632*
X02644Y03632*
X02644Y03631*
Y0363*
X02645Y03629*
Y03629*
Y03629*
Y03629*
Y03629*
X02644Y03629*
Y03628*
Y03628*
Y03628*
X02644Y03627*
X02644Y03626*
X02644Y03626*
X02644Y03625*
X02644Y03625*
Y03625*
X02644Y03624*
X02644Y03624*
X02643Y03623*
X02643Y03623*
X02643Y03622*
X02642Y03622*
Y03622*
X02642Y03622*
X02642Y03622*
X02642Y03621*
X02642Y03621*
X02641Y03621*
X02641Y03621*
X0264Y0362*
X0264*
X0264Y0362*
X0264Y0362*
X02639Y0362*
X02639Y0362*
X02638Y0362*
X02638*
X02637*
X02631*
Y03639*
X02637*
X02638*
G37*
G36*
X02824Y0364D02*
X02824Y0364D01*
X02825*
X02825Y0364*
X02826Y0364*
X02826Y0364*
Y0364*
X02827*
X02827Y0364*
X02827Y03639*
X02827Y03639*
X02828Y03639*
X02828Y03639*
X02828Y03638*
Y03638*
X02829Y03638*
X02829Y03638*
X02829Y03637*
X02829Y03637*
X0283Y03636*
X0283Y03636*
X0283Y03635*
X0283Y03635*
Y03635*
Y03635*
X0283Y03635*
Y03634*
X0283Y03634*
Y03634*
X0283Y03633*
Y03633*
X0283Y03632*
X02831Y03631*
Y0363*
Y0363*
Y0363*
Y0363*
Y0363*
Y03629*
X0283Y03629*
Y03629*
X0283Y03628*
X0283Y03627*
X0283Y03627*
X0283Y03626*
Y03626*
X0283Y03626*
Y03626*
X0283Y03625*
X0283Y03625*
X02829Y03624*
X02829Y03624*
X02829Y03623*
X02828Y03623*
X02828Y03623*
X02828Y03623*
X02828Y03622*
X02828Y03622*
X02827Y03622*
X02827Y03621*
X02826Y03621*
X02826Y03621*
X02826*
X02826Y03621*
X02825Y03621*
X02825Y03621*
X02824Y03621*
X02824*
X02823Y03621*
X02817*
Y0364*
X02823*
X02824*
G37*
G36*
X0284D02*
X0284Y0364D01*
X02841*
X02842Y0364*
X02842Y0364*
X02843Y0364*
Y0364*
X02843*
X02843Y0364*
X02843Y03639*
X02844Y03639*
X02844Y03639*
X02844Y03639*
X02845Y03638*
Y03638*
X02845Y03638*
X02845Y03638*
X02845Y03637*
X02846Y03637*
X02846Y03636*
X02846Y03636*
X02846Y03635*
Y03635*
X02846Y03635*
Y03635*
Y03635*
X02846Y03634*
Y03634*
X02847Y03634*
Y03633*
X02847Y03633*
X02847Y03632*
Y03631*
X02847Y0363*
Y0363*
Y0363*
Y0363*
X02847Y0363*
Y03629*
Y03629*
Y03629*
X02847Y03628*
X02847Y03627*
X02846Y03627*
X02846Y03626*
X02846Y03626*
Y03626*
Y03626*
X02846Y03625*
X02846Y03625*
X02846Y03624*
X02845Y03624*
X02845Y03623*
X02845Y03623*
X02845Y03623*
X02844Y03623*
X02844Y03622*
X02844Y03622*
X02843Y03622*
X02843Y03621*
X02843Y03621*
X02843Y03621*
X02842*
X02842Y03621*
X02842Y03621*
X02841Y03621*
X02841Y03621*
X0284*
X02839Y03621*
X02833*
Y0364*
X0284*
X0284*
G37*
G36*
X03157Y03034D02*
X03153D01*
Y03045*
X03145*
Y03034*
X03141*
Y03059*
X03145*
Y03049*
X03153*
Y03059*
X03157*
Y03034*
G37*
G36*
X03039Y03201D02*
X03021D01*
Y03203*
X03039*
Y03201*
G37*
G36*
X03134Y03233D02*
X03134D01*
X03135*
X03135Y03233*
X03136Y03233*
X03136Y03233*
X03137Y03233*
X03137Y03232*
X03138Y03232*
X03139Y03232*
X03139Y03231*
X0314Y03231*
X03141Y0323*
X03141Y03229*
X03141Y03229*
X03142Y03229*
X03142Y03229*
X03142Y03228*
X03142Y03228*
X03142Y03227*
X03143Y03227*
X03143Y03226*
X03143Y03225*
X03144Y03224*
X03144Y03224*
X03144Y03223*
X03144Y03221*
X03144Y0322*
Y03219*
Y03219*
Y03219*
Y03218*
Y03218*
X03144Y03217*
X03144Y03217*
X03144Y03216*
X03144Y03215*
X03144Y03214*
X03143Y03214*
X03143Y03213*
X03143Y03212*
X03143Y03211*
X03142Y0321*
X03142Y03209*
X03141Y03209*
X03141Y03208*
X03141Y03208*
X03141Y03208*
X0314Y03208*
X0314Y03207*
X0314Y03207*
X03139Y03207*
X03139Y03207*
X03138Y03206*
X03137Y03206*
X03137Y03206*
X03136Y03205*
X03135Y03205*
X03134*
X03133Y03205*
X03133*
X03133Y03205*
X03133*
X03132*
X03132Y03205*
X03131Y03205*
X03131Y03206*
X0313Y03206*
X0313Y03206*
X03129Y03206*
X03128Y03207*
X03128Y03207*
X03127Y03207*
X03126Y03208*
X03126Y03208*
Y03209*
X03126Y03209*
X03126Y03209*
X03125Y03209*
X03125Y0321*
X03125Y0321*
X03125Y03211*
X03124Y03211*
X03124Y03212*
X03124Y03213*
X03123Y03214*
X03123Y03215*
X03123Y03215*
X03123Y03217*
X03123Y03218*
Y03219*
Y03219*
Y03219*
Y03219*
Y0322*
Y0322*
X03123Y03221*
Y03221*
Y03222*
X03123Y03223*
X03123Y03224*
X03124Y03226*
X03124Y03227*
X03124Y03227*
Y03227*
X03124Y03227*
X03125Y03228*
X03125Y03228*
X03125Y03229*
X03126Y03229*
X03126Y0323*
X03127Y03231*
X03128Y03232*
X03128*
X03128Y03232*
X03128Y03232*
X03128Y03232*
X03129Y03232*
X03129Y03232*
X03129Y03232*
X03129Y03232*
X0313Y03233*
X03131Y03233*
X03132Y03233*
X03133Y03233*
X03134*
X03134Y03233*
G37*
G36*
X02972Y03233D02*
X02973Y03233D01*
X02973*
X02974Y03232*
X02975Y03232*
X02975Y03232*
X02976Y03232*
X02976*
X02976Y03232*
X02976Y03232*
X02977Y03231*
X02977Y03231*
X02977Y03231*
X02978Y0323*
X02978Y0323*
Y0323*
X02978Y03229*
X02979Y03229*
X02979Y03229*
X02979Y03228*
X02979Y03227*
X02979Y03227*
Y03226*
Y03226*
Y03226*
Y03225*
X02979Y03225*
X02979Y03224*
X02979Y03224*
X02979Y03223*
X02978Y03222*
X02978*
X02978Y03222*
X02978Y03222*
X02978Y03221*
X02977Y03221*
X02977Y03221*
X02977Y0322*
X02976Y0322*
X02976*
X02977Y0322*
X02977Y0322*
X02977Y03219*
X02978Y03219*
X02978Y03219*
X02979Y03218*
X02979Y03218*
Y03217*
X02979Y03217*
X0298Y03217*
X0298Y03216*
X0298Y03216*
X0298Y03215*
X0298Y03214*
Y03213*
Y03213*
Y03213*
Y03213*
Y03213*
X0298Y03212*
X0298Y03212*
X0298Y03211*
X0298Y0321*
X02979Y03209*
X02979Y03208*
X02979Y03208*
X02979Y03208*
X02978Y03208*
X02978Y03207*
X02977Y03207*
X02977Y03207*
X02976Y03206*
X02976Y03206*
X02975*
X02975Y03206*
X02975*
X02975*
X02975*
X02975Y03206*
X02974*
X02974*
X02973*
X02973*
X02972Y03206*
X02972*
X02971*
X02962*
Y03233*
X02972*
X02972*
G37*
G36*
X03207Y03041D02*
X032D01*
Y03046*
X03207*
Y03041*
G37*
G36*
X02628Y0362D02*
X02624D01*
X02618Y03633*
Y0362*
X02615*
Y03639*
X02618*
X02625Y03626*
Y03639*
X02628*
Y0362*
G37*
G36*
X02605Y0364D02*
X02605D01*
X02606*
X02606Y0364*
X02606*
X02607Y03639*
X02608Y03639*
X02608Y03639*
X02609Y03639*
X02609Y03638*
X02609Y03638*
Y03638*
X02609*
Y03638*
X02609Y03638*
X0261Y03638*
X0261Y03638*
X0261Y03637*
X0261Y03637*
X0261Y03637*
X02611Y03637*
X02611Y03636*
X02611Y03636*
X02611Y03635*
X02611Y03635*
X02611Y03634*
X02611Y03634*
X02608Y03633*
Y03633*
X02608Y03633*
Y03634*
X02608Y03634*
X02608Y03634*
X02608Y03635*
X02607Y03635*
X02607Y03635*
X02607Y03636*
X02607Y03636*
X02607Y03636*
X02606Y03636*
X02606Y03636*
X02606Y03636*
X02605Y03636*
X02605Y03636*
X02604*
X02604Y03636*
X02604*
X02604*
X02603Y03636*
X02603Y03636*
X02602Y03636*
X02602Y03635*
X02602Y03635*
X02601Y03635*
X02601Y03635*
X02601*
Y03635*
X02601Y03634*
X02601Y03634*
X02601Y03634*
X02601Y03634*
X02601Y03633*
X026Y03633*
X026Y03633*
X026Y03632*
X026Y03632*
X026Y03631*
Y03631*
X026Y0363*
Y0363*
Y0363*
Y03629*
Y03629*
Y03629*
X026Y03629*
Y03628*
X026Y03628*
X026Y03627*
X02601Y03626*
X02601Y03625*
X02601Y03625*
X02601Y03624*
X02601Y03624*
X02602Y03624*
X02602Y03624*
X02602Y03624*
X02603Y03623*
X02603Y03623*
X02604Y03623*
X02604*
X02605Y03623*
X02605*
X02605Y03623*
X02605*
X02605*
X02606Y03623*
X02606Y03623*
X02607Y03623*
X02607*
X02607*
X02607Y03623*
X02607Y03624*
X02607Y03624*
X02608Y03624*
X02608Y03624*
X02608Y03624*
Y03627*
X02605*
Y0363*
X02612*
Y03622*
Y03622*
X02612Y03622*
X02611Y03622*
X02611Y03622*
X0261Y03621*
X0261Y03621*
X02609Y03621*
X02609Y0362*
X02609*
X02608Y0362*
X02608*
X02608Y0362*
X02608Y0362*
X02607Y0362*
X02607Y0362*
X02606Y0362*
X02605Y03619*
X02605*
X02605*
X02604*
X02604*
X02604Y03619*
X02603Y0362*
X02603Y0362*
X02602Y0362*
X02601Y0362*
X02601Y03621*
X026*
X026Y03621*
X026Y03621*
X026Y03621*
X02599Y03621*
X02599Y03622*
X02599Y03622*
X02598Y03623*
X02598Y03624*
Y03624*
X02598Y03624*
X02597Y03624*
X02597Y03625*
X02597Y03625*
Y03625*
X02597Y03626*
X02597Y03626*
X02597Y03626*
X02597Y03627*
X02597Y03627*
X02597Y03628*
X02597Y0363*
Y0363*
Y0363*
X02597Y0363*
Y0363*
Y03631*
Y03631*
X02597Y03631*
X02597Y03632*
X02597Y03633*
X02597Y03634*
X02598Y03635*
X02598Y03635*
Y03635*
X02598Y03635*
X02598Y03636*
X02598Y03636*
X02598Y03636*
X02599Y03637*
X02599Y03638*
X026Y03638*
X026Y03639*
X02601Y03639*
X02601*
X02601Y03639*
X02601Y03639*
X02601Y03639*
X02601Y03639*
X02602Y03639*
X02602Y03639*
X02603Y0364*
X02604Y0364*
X02605Y0364*
X02605*
X02605Y0364*
G37*
%LNvapeix_mini_pcb-2*%
%LPC*%
G36*
X02751Y03637D02*
X0275D01*
X0275Y03637*
X0275*
X02749Y03637*
X02749Y03637*
X02748Y03637*
X02748Y03636*
X02748Y03636*
X02748Y03636*
X02747Y03636*
Y03636*
X02747Y03635*
X02747Y03635*
Y03635*
X02747Y03635*
X02747Y03635*
X02747Y03634*
X02747Y03634*
X02746Y03634*
X02746Y03633*
X02746Y03633*
X02746Y03632*
Y03632*
X02746Y03631*
Y03631*
Y0363*
Y0363*
Y0363*
Y0363*
Y0363*
X02746Y03629*
Y03629*
X02746Y03629*
X02746Y03628*
X02747Y03627*
X02747Y03626*
X02747Y03626*
X02747Y03625*
X02748Y03625*
X02748Y03625*
X02748Y03625*
X02749Y03624*
X02749Y03624*
X0275Y03624*
X0275*
X02751Y03624*
X02751*
X02751Y03624*
X02751*
X02752Y03624*
X02752Y03624*
X02753Y03624*
X02753Y03625*
X02753Y03625*
X02753Y03625*
X02754Y03625*
X02754Y03626*
X02754Y03626*
Y03626*
X02754Y03626*
Y03626*
X02754Y03626*
X02754Y03627*
X02754Y03627*
X02755Y03627*
X02755Y03628*
X02755Y03628*
X02755Y03629*
Y03629*
X02755Y0363*
Y03631*
Y03631*
Y03631*
Y03631*
Y03631*
X02755Y03632*
Y03632*
X02755Y03633*
X02755Y03633*
X02754Y03634*
X02754Y03635*
X02754Y03635*
X02754Y03636*
X02754Y03636*
X02754Y03636*
X02753Y03636*
X02753Y03636*
X02752Y03637*
X02752Y03637*
X02751Y03637*
X02751*
X02751Y03637*
G37*
G36*
X02726Y03637D02*
X02724D01*
Y03624*
X02727*
X02727*
X02727*
X02728Y03624*
X02728*
X02728Y03624*
X02729Y03624*
X02729*
X02729Y03624*
X02729Y03625*
X0273Y03625*
X0273Y03625*
X0273*
Y03625*
X0273Y03625*
X0273Y03626*
X0273Y03626*
X0273Y03626*
X02731Y03627*
X02731Y03627*
Y03627*
Y03627*
X02731Y03628*
Y03628*
X02731Y03628*
Y03629*
X02731Y0363*
Y0363*
Y03631*
Y03631*
Y03631*
Y03631*
Y03631*
Y03632*
X02731Y03632*
Y03633*
X02731Y03633*
X02731Y03634*
X02731Y03634*
Y03634*
X0273Y03635*
X0273Y03635*
X0273Y03635*
X0273Y03636*
X0273Y03636*
Y03636*
X0273*
X02729Y03636*
X02729Y03636*
X02729Y03636*
X02729Y03637*
X02728Y03637*
X02728Y03637*
X02728*
X02728Y03637*
X02728*
X02727*
X02727Y03637*
X02726*
G37*
G36*
X04214Y03238D02*
X04214D01*
X04214*
X04213Y03238*
X04213Y03238*
X04212Y03238*
X04212Y03237*
X04211Y03237*
X04211Y03237*
X04211Y03236*
X0421Y03236*
Y03236*
X0421*
X0421Y03236*
X0421Y03236*
X0421Y03235*
X0421Y03235*
X0421Y03235*
X0421Y03234*
X04209Y03234*
X04209Y03234*
X04209Y03233*
X04209Y03232*
Y03232*
X04209Y03231*
X04209Y0323*
Y0323*
Y0323*
Y03229*
Y03229*
X04209Y03229*
Y03229*
Y03228*
Y03228*
X04209Y03227*
X04209Y03226*
X04209Y03225*
X0421Y03224*
X0421Y03224*
X0421Y03223*
X0421Y03223*
X04211Y03223*
X04211Y03223*
X04211Y03222*
X04212Y03222*
X04213Y03222*
X04213Y03221*
X04214*
X04214Y03221*
X04215*
X04215Y03221*
X04215*
X04216Y03221*
X04216Y03222*
X04217Y03222*
X04217Y03222*
X04218Y03223*
X04218Y03223*
X04218Y03223*
X04218Y03223*
Y03223*
X04219Y03224*
X04219Y03224*
X04219Y03224*
X04219Y03224*
X04219Y03225*
X04219Y03225*
X04219Y03226*
X0422Y03226*
X0422Y03227*
X0422Y03227*
X0422Y03228*
X0422Y03229*
Y0323*
Y0323*
Y0323*
X0422Y0323*
Y03231*
Y03231*
X0422Y03232*
Y03232*
X0422Y03233*
X04219Y03234*
X04219Y03235*
X04219Y03236*
X04218Y03236*
X04218Y03236*
X04218Y03236*
X04218Y03237*
X04217Y03237*
X04217Y03237*
X04216Y03238*
X04215Y03238*
X04215*
X04214*
G37*
G36*
X04039Y03236D02*
X04037Y03227D01*
X04042*
X04039Y03236*
G37*
G36*
X04138Y03228D02*
X04134D01*
Y03222*
X04139*
X04139*
X0414*
X0414Y03222*
X04141*
X04141Y03222*
X04141*
X04141*
X04141Y03222*
X04142Y03222*
X04142Y03222*
X04142Y03222*
X04142Y03222*
X04142Y03223*
X04142*
Y03223*
X04143Y03223*
X04143Y03223*
X04143Y03224*
Y03224*
X04143Y03224*
Y03225*
Y03225*
Y03225*
Y03225*
X04143Y03225*
X04143Y03226*
X04143Y03226*
X04142Y03227*
X04142*
Y03227*
X04142Y03227*
X04142Y03227*
X04142Y03227*
X04142Y03227*
X04141Y03228*
X04141Y03228*
X04141*
X04141Y03228*
X0414*
X0414Y03228*
X04139*
X04139*
X04138Y03228*
G37*
G36*
X04138Y03238D02*
X04134D01*
Y03232*
X04138*
X04139*
X0414*
X0414Y03232*
X0414*
X0414*
X0414*
X04141Y03232*
X04141Y03232*
X04141Y03233*
X04141Y03233*
X04142Y03233*
X04142Y03233*
Y03233*
X04142Y03233*
X04142Y03234*
X04142Y03234*
X04142Y03234*
Y03235*
Y03235*
Y03235*
Y03235*
Y03236*
X04142Y03236*
X04142Y03237*
X04142Y03237*
Y03237*
Y03237*
X04141Y03237*
X04141Y03237*
X04141Y03237*
X04141Y03238*
X0414Y03238*
X0414*
X0414Y03238*
X0414*
X04139*
X04139*
X04139*
X04138Y03238*
G37*
G36*
X04078Y03238D02*
X04078D01*
X04078*
X04077Y03238*
X04077Y03238*
X04076Y03238*
X04075Y03237*
X04075Y03237*
X04075Y03237*
X04074Y03236*
X04074Y03236*
Y03236*
X04074*
X04074Y03236*
Y03236*
X04074Y03235*
X04073Y03235*
X04073Y03235*
X04073Y03234*
X04073Y03234*
X04073Y03234*
X04073Y03233*
X04073Y03232*
X04073Y03232*
X04072Y03231*
Y0323*
Y0323*
Y0323*
Y03229*
Y03229*
Y03229*
Y03229*
Y03228*
X04073Y03228*
X04073Y03227*
X04073Y03226*
X04073Y03225*
X04073Y03224*
X04074Y03224*
X04074Y03223*
X04074*
Y03223*
X04074Y03223*
X04075Y03223*
X04075Y03222*
X04076Y03222*
X04076Y03222*
X04077Y03221*
X04078*
X04078Y03221*
X04078*
X04078Y03221*
X04079*
X04079Y03221*
X0408Y03222*
X04081Y03222*
X04081Y03222*
X04081Y03223*
X04082Y03223*
X04082Y03223*
X04082Y03223*
X04082Y03223*
X04082Y03224*
X04082Y03224*
X04082Y03224*
X04083Y03224*
X04083Y03225*
X04083Y03225*
X04083Y03226*
X04083Y03226*
X04083Y03227*
Y03227*
X04083Y03228*
X04084Y03229*
Y0323*
Y0323*
Y0323*
Y0323*
Y03231*
X04083Y03231*
Y03232*
X04083Y03232*
X04083Y03233*
X04083Y03234*
X04083Y03235*
X04082Y03236*
X04082Y03236*
X04082Y03236*
X04082Y03236*
X04081Y03237*
X04081Y03237*
X0408Y03237*
X0408Y03238*
X04079Y03238*
X04078*
X04078*
G37*
G36*
X0305Y03228D02*
X03045D01*
Y03222*
X0305*
X0305*
X03051*
X03052*
X03052*
X03052Y03222*
X03052*
X03052Y03222*
X03053Y03222*
X03053Y03222*
X03053Y03223*
X03054Y03223*
X03054Y03223*
X03054Y03223*
X03054Y03224*
X03054Y03224*
X03054Y03224*
Y03225*
Y03225*
Y03225*
Y03225*
Y03226*
Y03226*
X03054Y03226*
X03054Y03227*
X03054Y03227*
X03054Y03227*
X03053Y03227*
X03053Y03227*
X03053Y03228*
X03053Y03228*
X03052Y03228*
X03052*
X03052*
X03052Y03228*
X03052*
X03051*
X03051Y03228*
X0305*
X0305*
G37*
G36*
X0305Y03217D02*
X03045D01*
Y0321*
X03051*
X03051*
X03052*
X03052Y0321*
X03053*
X03053Y0321*
X03053*
X03053*
X03053Y03211*
X03053Y03211*
X03054Y03211*
X03054Y03211*
X03054Y03211*
X03054Y03211*
X03054Y03212*
Y03212*
Y03212*
X03055Y03212*
X03055Y03212*
Y03212*
X03055Y03213*
X03055Y03213*
Y03214*
Y03214*
Y03214*
X03055Y03214*
X03055Y03215*
X03055Y03216*
X03054Y03216*
Y03216*
X03054Y03216*
X03054Y03216*
X03054Y03216*
X03054Y03217*
X03054Y03217*
X03053Y03217*
X03053Y03217*
X03053Y03217*
X03052*
X03052Y03217*
X03052Y03217*
X03051*
X0305*
X0305*
G37*
G36*
X02636Y03636D02*
X02634D01*
Y03623*
X02637*
X02637*
X02638*
X02638Y03623*
X02638*
X02639Y03623*
X02639Y03623*
X02639*
X02639Y03623*
X02639Y03624*
X0264Y03624*
X0264Y03624*
X0264Y03624*
X0264Y03624*
X0264Y03625*
X0264Y03625*
X02641Y03625*
X02641Y03626*
X02641Y03626*
Y03626*
Y03626*
X02641Y03627*
Y03627*
X02641Y03627*
Y03628*
X02641Y03629*
Y03629*
Y0363*
Y0363*
Y0363*
Y0363*
Y0363*
Y03631*
X02641Y03631*
Y03632*
X02641Y03632*
X02641Y03633*
X02641Y03633*
Y03633*
X02641Y03634*
X0264Y03634*
X0264Y03634*
X0264Y03635*
X0264Y03635*
Y03635*
X0264*
X0264Y03635*
X02639Y03635*
X02639Y03635*
X02639Y03636*
X02639Y03636*
X02638Y03636*
X02638*
X02638Y03636*
X02638*
X02637*
X02637Y03636*
X02636*
G37*
G36*
X02822Y03637D02*
X0282D01*
Y03624*
X02823*
X02823*
X02824*
X02824*
X02824Y03624*
X02825Y03624*
X02825*
X02825Y03624*
X02825Y03624*
X02825Y03625*
X02826Y03625*
X02826Y03625*
X02826Y03625*
Y03625*
X02826Y03625*
X02826Y03626*
X02826Y03626*
X02827Y03626*
X02827Y03627*
X02827Y03627*
Y03627*
X02827Y03627*
Y03628*
X02827Y03628*
Y03628*
Y03629*
X02827Y0363*
Y0363*
Y03631*
Y03631*
Y03631*
Y03631*
Y03631*
Y03632*
X02827Y03632*
Y03633*
X02827Y03633*
X02827Y03634*
Y03634*
X02827Y03634*
Y03634*
X02827Y03635*
X02826Y03635*
X02826Y03635*
X02826Y03636*
X02826Y03636*
X02826*
X02826Y03636*
X02826Y03636*
X02825Y03636*
X02825Y03636*
X02825Y03637*
X02825Y03637*
X02824Y03637*
X02824*
X02824*
X02824Y03637*
X02823*
X02823*
X02822Y03637*
G37*
G36*
X02839D02*
X02837D01*
Y03624*
X02839*
X02839*
X0284*
X0284*
X02841Y03624*
X02841Y03624*
X02841*
X02841Y03624*
X02841Y03624*
X02842Y03625*
X02842Y03625*
X02842Y03625*
Y03625*
X02842Y03625*
X02843Y03625*
X02843Y03626*
X02843Y03626*
X02843Y03626*
X02843Y03627*
X02843Y03627*
Y03627*
Y03627*
X02843Y03628*
Y03628*
X02843Y03628*
Y03629*
X02843Y0363*
Y0363*
Y03631*
Y03631*
Y03631*
Y03631*
Y03631*
Y03632*
X02843Y03632*
Y03633*
X02843Y03633*
X02843Y03634*
Y03634*
X02843Y03634*
Y03634*
X02843Y03635*
X02843Y03635*
X02843Y03635*
X02842Y03636*
X02842Y03636*
X02842Y03636*
X02842Y03636*
X02842Y03636*
X02842Y03636*
X02841Y03637*
X02841Y03637*
X02841Y03637*
X0284*
X0284*
X0284Y03637*
X0284*
X02839*
X02839Y03637*
G37*
G36*
X03133Y03228D02*
X03133D01*
X03133*
X03133Y03228*
X03132Y03228*
X03131Y03228*
X0313Y03227*
X0313Y03227*
X0313Y03227*
X03129Y03227*
X03129Y03226*
X03129Y03226*
X03129Y03226*
Y03226*
X03129Y03226*
X03129Y03225*
X03128Y03225*
X03128Y03224*
X03128Y03224*
X03128Y03223*
X03128Y03223*
X03128Y03222*
X03128Y03222*
X03127Y03221*
X03127Y0322*
Y03219*
Y03219*
Y03219*
Y03219*
X03127Y03218*
Y03218*
Y03218*
Y03217*
X03128Y03217*
X03128Y03215*
X03128Y03214*
X03129Y03213*
X03129Y03213*
X03129Y03212*
X03129*
Y03212*
X03129Y03212*
X0313Y03211*
X0313Y03211*
X03131Y03211*
X03132Y0321*
X03133Y0321*
X03133Y0321*
X03133*
X03134*
X03134*
X03134Y0321*
X03135Y0321*
X03136Y0321*
X03136Y03211*
X03137Y03211*
X03137Y03211*
X03138Y03212*
X03138Y03212*
X03138Y03212*
X03138Y03212*
X03138Y03213*
X03138Y03213*
X03138Y03213*
X03139Y03213*
X03139Y03214*
X03139Y03214*
X03139Y03215*
X03139Y03215*
X03139Y03216*
X03139Y03217*
X0314Y03218*
X0314Y03218*
Y03219*
Y03219*
Y0322*
X0314Y0322*
Y0322*
Y03221*
X03139Y03221*
X03139Y03222*
X03139Y03223*
X03139Y03224*
X03138Y03225*
X03138Y03226*
X03138Y03226*
Y03226*
X03138*
X03138Y03227*
X03137Y03227*
X03137Y03227*
X03136Y03228*
X03135Y03228*
X03134Y03228*
X03134Y03228*
X03133*
G37*
G36*
X02971Y03217D02*
X02966D01*
Y0321*
X02971*
X02972*
X02972*
X02973Y0321*
X02973*
X02974Y0321*
X02974*
X02974Y03211*
X02974Y03211*
X02974Y03211*
X02975Y03211*
X02975Y03211*
X02975Y03211*
X02975Y03212*
Y03212*
X02975Y03212*
X02975Y03212*
X02975Y03212*
X02976Y03212*
X02976Y03213*
Y03213*
X02976Y03214*
Y03214*
X02976Y03214*
Y03214*
X02975Y03215*
X02975Y03216*
X02975Y03216*
X02975Y03216*
Y03216*
X02975Y03216*
X02975Y03216*
X02975Y03217*
X02974Y03217*
X02974Y03217*
X02974Y03217*
X02974*
X02973Y03217*
X02973*
X02973Y03217*
X02972Y03217*
X02972*
X02971*
X02971*
G37*
G36*
X02971Y03228D02*
X02966D01*
Y03222*
X02971*
X02971*
X02972*
X02972*
X02972*
X02973Y03222*
X02973*
X02973Y03222*
X02973Y03222*
X02974Y03222*
X02974Y03223*
X02974Y03223*
X02974*
Y03223*
X02974Y03223*
X02975Y03224*
X02975Y03224*
X02975Y03224*
Y03225*
X02975Y03225*
Y03225*
Y03225*
X02975Y03226*
Y03226*
X02975Y03226*
X02975Y03227*
X02974Y03227*
Y03227*
X02974Y03227*
X02974Y03227*
X02974Y03228*
X02973Y03228*
X02973Y03228*
X02973*
X02973Y03228*
X02972*
X02972*
X02971Y03228*
X02971*
X02971*
G37*
%LNvapeix_mini_pcb-3*%
%LPD*%
G54D10*
X03128Y0336D02*
D01*
X03127Y03364*
X03127Y03368*
X03126Y03373*
X03125Y03377*
X03124Y03381*
X03122Y03385*
X0312Y03389*
X03118Y03393*
X03115Y03397*
X03113Y034*
X0311Y03403*
X03107Y03406*
X03103Y03409*
X031Y03412*
X03096Y03414*
X03092Y03416*
X03088Y03418*
X03084Y03419*
X0308Y03421*
X03075Y03422*
X03071Y03422*
X03067Y03422*
X03062*
X03058Y03422*
X03054Y03422*
X03049Y03421*
X03045Y03419*
X03041Y03418*
X03037Y03416*
X03033Y03414*
X03029Y03412*
X03026Y03409*
X03022Y03406*
X03019Y03403*
X03016Y034*
X03014Y03397*
X03011Y03393*
X03009Y03389*
X03007Y03385*
X03005Y03381*
X03004Y03377*
X03003Y03373*
X03002Y03368*
X03002Y03364*
X03002Y0336*
X03002Y03355*
X03002Y03351*
X03003Y03346*
X03004Y03342*
X03005Y03338*
X03007Y03334*
X03009Y0333*
X03011Y03326*
X03014Y03322*
X03016Y03319*
X03019Y03316*
X03022Y03313*
X03026Y0331*
X03029Y03307*
X03033Y03305*
X03037Y03303*
X03041Y03301*
X03045Y033*
X03049Y03298*
X03054Y03297*
X03058Y03297*
X03062Y03297*
X03067*
X03071Y03297*
X03075Y03297*
X0308Y03298*
X03084Y033*
X03088Y03301*
X03092Y03303*
X03096Y03305*
X031Y03307*
X03103Y0331*
X03107Y03313*
X0311Y03316*
X03113Y03319*
X03115Y03322*
X03118Y03326*
X0312Y0333*
X03122Y03334*
X03124Y03338*
X03125Y03342*
X03126Y03346*
X03127Y03351*
X03127Y03355*
X03128Y0336*
X04205Y03366D02*
D01*
X04204Y0337*
X04204Y03374*
X04203Y03379*
X04202Y03383*
X04201Y03387*
X04199Y03391*
X04197Y03395*
X04195Y03399*
X04192Y03403*
X0419Y03406*
X04187Y03409*
X04184Y03412*
X0418Y03415*
X04177Y03418*
X04173Y0342*
X04169Y03422*
X04165Y03424*
X04161Y03425*
X04157Y03427*
X04152Y03428*
X04148Y03428*
X04144Y03428*
X04139*
X04135Y03428*
X04131Y03428*
X04126Y03427*
X04122Y03425*
X04118Y03424*
X04114Y03422*
X0411Y0342*
X04106Y03418*
X04103Y03415*
X04099Y03412*
X04096Y03409*
X04093Y03406*
X04091Y03403*
X04088Y03399*
X04086Y03395*
X04084Y03391*
X04082Y03387*
X04081Y03383*
X0408Y03379*
X04079Y03374*
X04079Y0337*
X04079Y03366*
X04079Y03361*
X04079Y03357*
X0408Y03352*
X04081Y03348*
X04082Y03344*
X04084Y0334*
X04086Y03336*
X04088Y03332*
X04091Y03328*
X04093Y03325*
X04096Y03322*
X04099Y03319*
X04103Y03316*
X04106Y03313*
X0411Y03311*
X04114Y03309*
X04118Y03307*
X04122Y03306*
X04126Y03304*
X04131Y03303*
X04135Y03303*
X04139Y03303*
X04144*
X04148Y03303*
X04152Y03303*
X04157Y03304*
X04161Y03306*
X04165Y03307*
X04169Y03309*
X04173Y03311*
X04177Y03313*
X0418Y03316*
X04184Y03319*
X04187Y03322*
X0419Y03325*
X04192Y03328*
X04195Y03332*
X04197Y03336*
X04199Y0334*
X04201Y03344*
X04202Y03348*
X04203Y03352*
X04204Y03357*
X04204Y03361*
X04205Y03366*
X02586Y03578D02*
X02612D01*
X02541D02*
X02567D01*
X02586Y03605D02*
X02612D01*
X02541D02*
X02567D01*
X02541Y03578D02*
Y03605D01*
X02612Y03578D02*
Y03605D01*
X0219Y03502D02*
Y03521D01*
Y03226D02*
Y03244D01*
X01996Y03226D02*
Y03521D01*
X03309Y03207D02*
X03334D01*
X03353D02*
X03378D01*
X03309Y03178D02*
X03334D01*
X03353D02*
X03378D01*
Y03207*
X03309Y03178D02*
Y03207D01*
X02946Y03241D02*
Y03478D01*
X03183*
Y03241D02*
Y03478D01*
X02946Y03241D02*
X03183D01*
X04023Y03247D02*
Y03484D01*
X0426*
Y03247D02*
Y03484D01*
X04023Y03247D02*
X0426D01*
G54D47*
X03779Y03221D02*
D01*
X03779Y03221*
X03779Y03221*
X03779Y03221*
X03779Y03222*
X03779Y03222*
X03779Y03222*
X03779Y03222*
X03779Y03223*
X03779Y03223*
X03778Y03223*
X03778Y03223*
X03778Y03223*
X03778Y03224*
X03778Y03224*
X03777Y03224*
X03777Y03224*
X03777Y03224*
X03777Y03224*
X03776Y03224*
X03776Y03224*
X03776Y03224*
X03776Y03224*
X03775*
X03775Y03224*
X03775Y03224*
X03775Y03224*
X03774Y03224*
X03774Y03224*
X03774Y03224*
X03774Y03224*
X03773Y03224*
X03773Y03224*
X03773Y03223*
X03773Y03223*
X03773Y03223*
X03772Y03223*
X03772Y03223*
X03772Y03222*
X03772Y03222*
X03772Y03222*
X03772Y03222*
X03772Y03221*
X03772Y03221*
X03772Y03221*
X03772Y03221*
X03772Y0322*
X03772Y0322*
X03772Y0322*
X03772Y03219*
X03772Y03219*
X03772Y03219*
X03772Y03219*
X03772Y03218*
X03772Y03218*
X03773Y03218*
X03773Y03218*
X03773Y03218*
X03773Y03217*
X03773Y03217*
X03774Y03217*
X03774Y03217*
X03774Y03217*
X03774Y03217*
X03775Y03217*
X03775Y03217*
X03775Y03217*
X03775Y03217*
X03776*
X03776Y03217*
X03776Y03217*
X03776Y03217*
X03777Y03217*
X03777Y03217*
X03777Y03217*
X03777Y03217*
X03778Y03217*
X03778Y03217*
X03778Y03218*
X03778Y03218*
X03778Y03218*
X03779Y03218*
X03779Y03218*
X03779Y03219*
X03779Y03219*
X03779Y03219*
X03779Y03219*
X03779Y0322*
X03779Y0322*
X03779Y0322*
X03779Y03221*
X03556Y03219D02*
D01*
X03556Y0322*
X03556Y0322*
X03556Y0322*
X03556Y0322*
X03556Y03221*
X03556Y03221*
X03556Y03221*
X03556Y03221*
X03555Y03222*
X03555Y03222*
X03555Y03222*
X03555Y03222*
X03555Y03222*
X03554Y03223*
X03554Y03223*
X03554Y03223*
X03554Y03223*
X03553Y03223*
X03553Y03223*
X03553Y03223*
X03553Y03223*
X03552Y03223*
X03552*
X03552Y03223*
X03552Y03223*
X03551Y03223*
X03551Y03223*
X03551Y03223*
X0355Y03223*
X0355Y03223*
X0355Y03223*
X0355Y03222*
X0355Y03222*
X03549Y03222*
X03549Y03222*
X03549Y03222*
X03549Y03221*
X03549Y03221*
X03549Y03221*
X03549Y03221*
X03548Y0322*
X03548Y0322*
X03548Y0322*
X03548Y0322*
X03548Y03219*
X03548Y03219*
X03548Y03219*
X03548Y03219*
X03548Y03218*
X03549Y03218*
X03549Y03218*
X03549Y03218*
X03549Y03217*
X03549Y03217*
X03549Y03217*
X03549Y03217*
X0355Y03217*
X0355Y03216*
X0355Y03216*
X0355Y03216*
X0355Y03216*
X03551Y03216*
X03551Y03216*
X03551Y03216*
X03552Y03216*
X03552Y03216*
X03552Y03216*
X03552*
X03553Y03216*
X03553Y03216*
X03553Y03216*
X03553Y03216*
X03554Y03216*
X03554Y03216*
X03554Y03216*
X03554Y03216*
X03555Y03216*
X03555Y03217*
X03555Y03217*
X03555Y03217*
X03555Y03217*
X03556Y03217*
X03556Y03218*
X03556Y03218*
X03556Y03218*
X03556Y03218*
X03556Y03219*
X03556Y03219*
X03556Y03219*
X03556Y03219*
G54D48*
X03396Y03675D02*
D01*
X03396Y03676*
X03396Y03678*
X03395Y0368*
X03395Y03682*
X03394Y03684*
X03394Y03686*
X03393Y03687*
X03392Y03689*
X03391Y03691*
X0339Y03692*
X03388Y03694*
X03387Y03695*
X03385Y03696*
X03384Y03697*
X03382Y03698*
X03381Y03699*
X03379Y037*
X03377Y03701*
X03375Y03701*
X03373Y03702*
X03371Y03702*
X03369Y03702*
X03368*
X03366Y03702*
X03364Y03702*
X03362Y03701*
X0336Y03701*
X03358Y037*
X03356Y03699*
X03355Y03698*
X03353Y03697*
X03352Y03696*
X0335Y03695*
X03349Y03694*
X03347Y03692*
X03346Y03691*
X03345Y03689*
X03344Y03687*
X03343Y03686*
X03343Y03684*
X03342Y03682*
X03342Y0368*
X03341Y03678*
X03341Y03676*
X03341Y03675*
X03341Y03673*
X03341Y03671*
X03342Y03669*
X03342Y03667*
X03343Y03665*
X03343Y03663*
X03344Y03662*
X03345Y0366*
X03346Y03658*
X03347Y03657*
X03349Y03655*
X0335Y03654*
X03352Y03653*
X03353Y03652*
X03355Y03651*
X03356Y0365*
X03358Y03649*
X0336Y03648*
X03362Y03648*
X03364Y03647*
X03366Y03647*
X03368Y03647*
X03369*
X03371Y03647*
X03373Y03647*
X03375Y03648*
X03377Y03648*
X03379Y03649*
X03381Y0365*
X03382Y03651*
X03384Y03652*
X03385Y03653*
X03387Y03654*
X03388Y03655*
X0339Y03657*
X03391Y03658*
X03392Y0366*
X03393Y03662*
X03394Y03663*
X03394Y03665*
X03395Y03667*
X03395Y03669*
X03396Y03671*
X03396Y03673*
X03396Y03675*
X03476D02*
D01*
X03476Y03676*
X03476Y03678*
X03475Y0368*
X03475Y03682*
X03474Y03684*
X03474Y03686*
X03473Y03687*
X03472Y03689*
X03471Y03691*
X0347Y03692*
X03468Y03694*
X03467Y03695*
X03465Y03696*
X03464Y03697*
X03462Y03698*
X03461Y03699*
X03459Y037*
X03457Y03701*
X03455Y03701*
X03453Y03702*
X03451Y03702*
X03449Y03702*
X03448*
X03446Y03702*
X03444Y03702*
X03442Y03701*
X0344Y03701*
X03438Y037*
X03436Y03699*
X03435Y03698*
X03433Y03697*
X03432Y03696*
X0343Y03695*
X03429Y03694*
X03427Y03692*
X03426Y03691*
X03425Y03689*
X03424Y03687*
X03423Y03686*
X03423Y03684*
X03422Y03682*
X03422Y0368*
X03421Y03678*
X03421Y03676*
X03421Y03675*
X03421Y03673*
X03421Y03671*
X03422Y03669*
X03422Y03667*
X03423Y03665*
X03423Y03663*
X03424Y03662*
X03425Y0366*
X03426Y03658*
X03427Y03657*
X03429Y03655*
X0343Y03654*
X03432Y03653*
X03433Y03652*
X03435Y03651*
X03436Y0365*
X03438Y03649*
X0344Y03648*
X03442Y03648*
X03444Y03647*
X03446Y03647*
X03448Y03647*
X03449*
X03451Y03647*
X03453Y03647*
X03455Y03648*
X03457Y03648*
X03459Y03649*
X03461Y0365*
X03462Y03651*
X03464Y03652*
X03465Y03653*
X03467Y03654*
X03468Y03655*
X0347Y03657*
X03471Y03658*
X03472Y0366*
X03473Y03662*
X03474Y03663*
X03474Y03665*
X03475Y03667*
X03475Y03669*
X03476Y03671*
X03476Y03673*
X03476Y03675*
X0247Y03678D02*
D01*
X0247Y03679*
X0247Y03681*
X02469Y03683*
X02469Y03685*
X02468Y03687*
X02468Y03689*
X02467Y0369*
X02466Y03692*
X02465Y03694*
X02464Y03695*
X02462Y03697*
X02461Y03698*
X02459Y03699*
X02458Y037*
X02456Y03701*
X02455Y03702*
X02453Y03703*
X02451Y03704*
X02449Y03704*
X02447Y03705*
X02445Y03705*
X02443Y03705*
X02442*
X0244Y03705*
X02438Y03705*
X02436Y03704*
X02434Y03704*
X02432Y03703*
X0243Y03702*
X02429Y03701*
X02427Y037*
X02426Y03699*
X02424Y03698*
X02423Y03697*
X02421Y03695*
X0242Y03694*
X02419Y03692*
X02418Y0369*
X02417Y03689*
X02417Y03687*
X02416Y03685*
X02416Y03683*
X02415Y03681*
X02415Y03679*
X02415Y03678*
X02415Y03676*
X02415Y03674*
X02416Y03672*
X02416Y0367*
X02417Y03668*
X02417Y03666*
X02418Y03665*
X02419Y03663*
X0242Y03661*
X02421Y0366*
X02423Y03658*
X02424Y03657*
X02426Y03656*
X02427Y03655*
X02429Y03654*
X0243Y03653*
X02432Y03652*
X02434Y03651*
X02436Y03651*
X02438Y0365*
X0244Y0365*
X02442Y0365*
X02443*
X02445Y0365*
X02447Y0365*
X02449Y03651*
X02451Y03651*
X02453Y03652*
X02455Y03653*
X02456Y03654*
X02458Y03655*
X02459Y03656*
X02461Y03657*
X02462Y03658*
X02464Y0366*
X02465Y03661*
X02466Y03663*
X02467Y03665*
X02468Y03666*
X02468Y03668*
X02469Y0367*
X02469Y03672*
X0247Y03674*
X0247Y03676*
X0247Y03678*
X03645Y03214D02*
D01*
X03645Y03215*
X03645Y03217*
X03644Y03219*
X03644Y03221*
X03643Y03223*
X03643Y03225*
X03642Y03226*
X03641Y03228*
X0364Y0323*
X03639Y03231*
X03637Y03233*
X03636Y03234*
X03634Y03235*
X03633Y03236*
X03631Y03237*
X0363Y03238*
X03628Y03239*
X03626Y0324*
X03624Y0324*
X03622Y03241*
X0362Y03241*
X03618Y03241*
X03617*
X03615Y03241*
X03613Y03241*
X03611Y0324*
X03609Y0324*
X03607Y03239*
X03605Y03238*
X03604Y03237*
X03602Y03236*
X03601Y03235*
X03599Y03234*
X03598Y03233*
X03596Y03231*
X03595Y0323*
X03594Y03228*
X03593Y03226*
X03592Y03225*
X03592Y03223*
X03591Y03221*
X03591Y03219*
X0359Y03217*
X0359Y03215*
X0359Y03214*
X0359Y03212*
X0359Y0321*
X03591Y03208*
X03591Y03206*
X03592Y03204*
X03592Y03202*
X03593Y03201*
X03594Y03199*
X03595Y03197*
X03596Y03196*
X03598Y03194*
X03599Y03193*
X03601Y03192*
X03602Y03191*
X03604Y0319*
X03605Y03189*
X03607Y03188*
X03609Y03187*
X03611Y03187*
X03613Y03186*
X03615Y03186*
X03617Y03186*
X03618*
X0362Y03186*
X03622Y03186*
X03624Y03187*
X03626Y03187*
X03628Y03188*
X0363Y03189*
X03631Y0319*
X03633Y03191*
X03634Y03192*
X03636Y03193*
X03637Y03194*
X03639Y03196*
X0364Y03197*
X03641Y03199*
X03642Y03201*
X03643Y03202*
X03643Y03204*
X03644Y03206*
X03644Y03208*
X03645Y0321*
X03645Y03212*
X03645Y03214*
X03909Y03213D02*
D01*
X03909Y03214*
X03909Y03216*
X03908Y03218*
X03908Y0322*
X03907Y03222*
X03907Y03224*
X03906Y03225*
X03905Y03227*
X03904Y03229*
X03903Y0323*
X03901Y03232*
X039Y03233*
X03898Y03234*
X03897Y03235*
X03895Y03236*
X03894Y03237*
X03892Y03238*
X0389Y03239*
X03888Y03239*
X03886Y0324*
X03884Y0324*
X03882Y0324*
X03881*
X03879Y0324*
X03877Y0324*
X03875Y03239*
X03873Y03239*
X03871Y03238*
X03869Y03237*
X03868Y03236*
X03866Y03235*
X03865Y03234*
X03863Y03233*
X03862Y03232*
X0386Y0323*
X03859Y03229*
X03858Y03227*
X03857Y03225*
X03856Y03224*
X03856Y03222*
X03855Y0322*
X03855Y03218*
X03854Y03216*
X03854Y03214*
X03854Y03213*
X03854Y03211*
X03854Y03209*
X03855Y03207*
X03855Y03205*
X03856Y03203*
X03856Y03201*
X03857Y032*
X03858Y03198*
X03859Y03196*
X0386Y03195*
X03862Y03193*
X03863Y03192*
X03865Y03191*
X03866Y0319*
X03868Y03189*
X03869Y03188*
X03871Y03187*
X03873Y03186*
X03875Y03186*
X03877Y03185*
X03879Y03185*
X03881Y03185*
X03882*
X03884Y03185*
X03886Y03185*
X03888Y03186*
X0389Y03186*
X03892Y03187*
X03894Y03188*
X03895Y03189*
X03897Y0319*
X03898Y03191*
X039Y03192*
X03901Y03193*
X03903Y03195*
X03904Y03196*
X03905Y03198*
X03906Y032*
X03907Y03201*
X03907Y03203*
X03908Y03205*
X03908Y03207*
X03909Y03209*
X03909Y03211*
X03909Y03213*
X04008Y03212D02*
D01*
X04008Y03213*
X04008Y03215*
X04007Y03217*
X04007Y03219*
X04006Y03221*
X04006Y03223*
X04005Y03224*
X04004Y03226*
X04003Y03228*
X04002Y03229*
X04Y03231*
X03999Y03232*
X03997Y03233*
X03996Y03234*
X03994Y03235*
X03993Y03236*
X03991Y03237*
X03989Y03238*
X03987Y03238*
X03985Y03239*
X03983Y03239*
X03981Y03239*
X0398*
X03978Y03239*
X03976Y03239*
X03974Y03238*
X03972Y03238*
X0397Y03237*
X03968Y03236*
X03967Y03235*
X03965Y03234*
X03964Y03233*
X03962Y03232*
X03961Y03231*
X03959Y03229*
X03958Y03228*
X03957Y03226*
X03956Y03224*
X03955Y03223*
X03955Y03221*
X03954Y03219*
X03954Y03217*
X03953Y03215*
X03953Y03213*
X03953Y03212*
X03953Y0321*
X03953Y03208*
X03954Y03206*
X03954Y03204*
X03955Y03202*
X03955Y032*
X03956Y03199*
X03957Y03197*
X03958Y03195*
X03959Y03194*
X03961Y03192*
X03962Y03191*
X03964Y0319*
X03965Y03189*
X03967Y03188*
X03968Y03187*
X0397Y03186*
X03972Y03185*
X03974Y03185*
X03976Y03184*
X03978Y03184*
X0398Y03184*
X03981*
X03983Y03184*
X03985Y03184*
X03987Y03185*
X03989Y03185*
X03991Y03186*
X03993Y03187*
X03994Y03188*
X03996Y03189*
X03997Y0319*
X03999Y03191*
X04Y03192*
X04002Y03194*
X04003Y03195*
X04004Y03197*
X04005Y03199*
X04006Y032*
X04006Y03202*
X04007Y03204*
X04007Y03206*
X04008Y03208*
X04008Y0321*
X04008Y03212*
X03191Y03676D02*
D01*
X03191Y03677*
X03191Y03679*
X0319Y03681*
X0319Y03683*
X03189Y03685*
X03189Y03687*
X03188Y03688*
X03187Y0369*
X03186Y03692*
X03185Y03693*
X03183Y03695*
X03182Y03696*
X0318Y03697*
X03179Y03698*
X03177Y03699*
X03176Y037*
X03174Y03701*
X03172Y03702*
X0317Y03702*
X03168Y03703*
X03166Y03703*
X03164Y03703*
X03163*
X03161Y03703*
X03159Y03703*
X03157Y03702*
X03155Y03702*
X03153Y03701*
X03151Y037*
X0315Y03699*
X03148Y03698*
X03147Y03697*
X03145Y03696*
X03144Y03695*
X03142Y03693*
X03141Y03692*
X0314Y0369*
X03139Y03688*
X03138Y03687*
X03138Y03685*
X03137Y03683*
X03137Y03681*
X03136Y03679*
X03136Y03677*
X03136Y03676*
X03136Y03674*
X03136Y03672*
X03137Y0367*
X03137Y03668*
X03138Y03666*
X03138Y03664*
X03139Y03663*
X0314Y03661*
X03141Y03659*
X03142Y03658*
X03144Y03656*
X03145Y03655*
X03147Y03654*
X03148Y03653*
X0315Y03652*
X03151Y03651*
X03153Y0365*
X03155Y03649*
X03157Y03649*
X03159Y03648*
X03161Y03648*
X03163Y03648*
X03164*
X03166Y03648*
X03168Y03648*
X0317Y03649*
X03172Y03649*
X03174Y0365*
X03176Y03651*
X03177Y03652*
X03179Y03653*
X0318Y03654*
X03182Y03655*
X03183Y03656*
X03185Y03658*
X03186Y03659*
X03187Y03661*
X03188Y03663*
X03189Y03664*
X03189Y03666*
X0319Y03668*
X0319Y0367*
X03191Y03672*
X03191Y03674*
X03191Y03676*
X03269D02*
D01*
X03269Y03677*
X03269Y03679*
X03268Y03681*
X03268Y03683*
X03267Y03685*
X03267Y03687*
X03266Y03688*
X03265Y0369*
X03264Y03692*
X03263Y03693*
X03261Y03695*
X0326Y03696*
X03258Y03697*
X03257Y03698*
X03255Y03699*
X03254Y037*
X03252Y03701*
X0325Y03702*
X03248Y03702*
X03246Y03703*
X03244Y03703*
X03242Y03703*
X03241*
X03239Y03703*
X03237Y03703*
X03235Y03702*
X03233Y03702*
X03231Y03701*
X03229Y037*
X03228Y03699*
X03226Y03698*
X03225Y03697*
X03223Y03696*
X03222Y03695*
X0322Y03693*
X03219Y03692*
X03218Y0369*
X03217Y03688*
X03216Y03687*
X03216Y03685*
X03215Y03683*
X03215Y03681*
X03214Y03679*
X03214Y03677*
X03214Y03676*
X03214Y03674*
X03214Y03672*
X03215Y0367*
X03215Y03668*
X03216Y03666*
X03216Y03664*
X03217Y03663*
X03218Y03661*
X03219Y03659*
X0322Y03658*
X03222Y03656*
X03223Y03655*
X03225Y03654*
X03226Y03653*
X03228Y03652*
X03229Y03651*
X03231Y0365*
X03233Y03649*
X03235Y03649*
X03237Y03648*
X03239Y03648*
X03241Y03648*
X03242*
X03244Y03648*
X03246Y03648*
X03248Y03649*
X0325Y03649*
X03252Y0365*
X03254Y03651*
X03255Y03652*
X03257Y03653*
X03258Y03654*
X0326Y03655*
X03261Y03656*
X03263Y03658*
X03264Y03659*
X03265Y03661*
X03266Y03663*
X03267Y03664*
X03267Y03666*
X03268Y03668*
X03268Y0367*
X03269Y03672*
X03269Y03674*
X03269Y03676*
X03113D02*
D01*
X03113Y03677*
X03113Y03679*
X03112Y03681*
X03112Y03683*
X03111Y03685*
X03111Y03687*
X0311Y03688*
X03109Y0369*
X03108Y03692*
X03107Y03693*
X03105Y03695*
X03104Y03696*
X03102Y03697*
X03101Y03698*
X03099Y03699*
X03098Y037*
X03096Y03701*
X03094Y03702*
X03092Y03702*
X0309Y03703*
X03088Y03703*
X03086Y03703*
X03085*
X03083Y03703*
X03081Y03703*
X03079Y03702*
X03077Y03702*
X03075Y03701*
X03073Y037*
X03072Y03699*
X0307Y03698*
X03069Y03697*
X03067Y03696*
X03066Y03695*
X03064Y03693*
X03063Y03692*
X03062Y0369*
X03061Y03688*
X0306Y03687*
X0306Y03685*
X03059Y03683*
X03059Y03681*
X03058Y03679*
X03058Y03677*
X03058Y03676*
X03058Y03674*
X03058Y03672*
X03059Y0367*
X03059Y03668*
X0306Y03666*
X0306Y03664*
X03061Y03663*
X03062Y03661*
X03063Y03659*
X03064Y03658*
X03066Y03656*
X03067Y03655*
X03069Y03654*
X0307Y03653*
X03072Y03652*
X03073Y03651*
X03075Y0365*
X03077Y03649*
X03079Y03649*
X03081Y03648*
X03083Y03648*
X03085Y03648*
X03086*
X03088Y03648*
X0309Y03648*
X03092Y03649*
X03094Y03649*
X03096Y0365*
X03098Y03651*
X03099Y03652*
X03101Y03653*
X03102Y03654*
X03104Y03655*
X03105Y03656*
X03107Y03658*
X03108Y03659*
X03109Y03661*
X0311Y03663*
X03111Y03664*
X03111Y03666*
X03112Y03668*
X03112Y0367*
X03113Y03672*
X03113Y03674*
X03113Y03676*
X03036D02*
D01*
X03036Y03677*
X03036Y03679*
X03035Y03681*
X03035Y03683*
X03034Y03685*
X03034Y03687*
X03033Y03688*
X03032Y0369*
X03031Y03692*
X0303Y03693*
X03028Y03695*
X03027Y03696*
X03025Y03697*
X03024Y03698*
X03022Y03699*
X03021Y037*
X03019Y03701*
X03017Y03702*
X03015Y03702*
X03013Y03703*
X03011Y03703*
X03009Y03703*
X03008*
X03006Y03703*
X03004Y03703*
X03002Y03702*
X03Y03702*
X02998Y03701*
X02996Y037*
X02995Y03699*
X02993Y03698*
X02992Y03697*
X0299Y03696*
X02989Y03695*
X02987Y03693*
X02986Y03692*
X02985Y0369*
X02984Y03688*
X02983Y03687*
X02983Y03685*
X02982Y03683*
X02982Y03681*
X02981Y03679*
X02981Y03677*
X02981Y03676*
X02981Y03674*
X02981Y03672*
X02982Y0367*
X02982Y03668*
X02983Y03666*
X02983Y03664*
X02984Y03663*
X02985Y03661*
X02986Y03659*
X02987Y03658*
X02989Y03656*
X0299Y03655*
X02992Y03654*
X02993Y03653*
X02995Y03652*
X02996Y03651*
X02998Y0365*
X03Y03649*
X03002Y03649*
X03004Y03648*
X03006Y03648*
X03008Y03648*
X03009*
X03011Y03648*
X03013Y03648*
X03015Y03649*
X03017Y03649*
X03019Y0365*
X03021Y03651*
X03022Y03652*
X03024Y03653*
X03025Y03654*
X03027Y03655*
X03028Y03656*
X0303Y03658*
X03031Y03659*
X03032Y03661*
X03033Y03663*
X03034Y03664*
X03034Y03666*
X03035Y03668*
X03035Y0367*
X03036Y03672*
X03036Y03674*
X03036Y03676*
X03308Y03071D02*
D01*
X03308Y03074*
X03307Y03077*
X03307Y0308*
X03306Y03083*
X03305Y03086*
X03304Y03089*
X03302Y03092*
X03301Y03094*
X03299Y03097*
X03297Y031*
X03295Y03102*
X03293Y03104*
X0329Y03106*
X03288Y03108*
X03285Y0311*
X03282Y03111*
X03279Y03112*
X03276Y03113*
X03273Y03114*
X0327Y03115*
X03267Y03115*
X03264Y03116*
X03261*
X03258Y03115*
X03255Y03115*
X03252Y03114*
X03249Y03113*
X03246Y03112*
X03243Y03111*
X0324Y0311*
X03237Y03108*
X03235Y03106*
X03232Y03104*
X0323Y03102*
X03228Y031*
X03226Y03097*
X03224Y03094*
X03223Y03092*
X03221Y03089*
X0322Y03086*
X03219Y03083*
X03218Y0308*
X03218Y03077*
X03217Y03074*
X03217Y03071*
X03217Y03067*
X03218Y03064*
X03218Y03061*
X03219Y03058*
X0322Y03055*
X03221Y03052*
X03223Y03049*
X03224Y03047*
X03226Y03044*
X03228Y03041*
X0323Y03039*
X03232Y03037*
X03235Y03035*
X03237Y03033*
X0324Y03031*
X03243Y0303*
X03246Y03029*
X03249Y03028*
X03252Y03027*
X03255Y03026*
X03258Y03026*
X03261Y03025*
X03264*
X03267Y03026*
X0327Y03026*
X03273Y03027*
X03276Y03028*
X03279Y03029*
X03282Y0303*
X03285Y03031*
X03288Y03033*
X0329Y03035*
X03293Y03037*
X03295Y03039*
X03297Y03041*
X03299Y03044*
X03301Y03047*
X03302Y03049*
X03304Y03052*
X03305Y03055*
X03306Y03058*
X03307Y03061*
X03307Y03064*
X03308Y03067*
X03308Y03071*
X03126Y0307D02*
D01*
X03126Y03073*
X03125Y03076*
X03125Y03079*
X03124Y03082*
X03123Y03085*
X03122Y03088*
X0312Y03091*
X03119Y03093*
X03117Y03096*
X03115Y03099*
X03113Y03101*
X03111Y03103*
X03108Y03105*
X03106Y03107*
X03103Y03109*
X031Y0311*
X03097Y03111*
X03094Y03112*
X03091Y03113*
X03088Y03114*
X03085Y03114*
X03082Y03115*
X03079*
X03076Y03114*
X03073Y03114*
X0307Y03113*
X03067Y03112*
X03064Y03111*
X03061Y0311*
X03058Y03109*
X03055Y03107*
X03053Y03105*
X0305Y03103*
X03048Y03101*
X03046Y03099*
X03044Y03096*
X03042Y03093*
X03041Y03091*
X03039Y03088*
X03038Y03085*
X03037Y03082*
X03036Y03079*
X03036Y03076*
X03035Y03073*
X03035Y0307*
X03035Y03066*
X03036Y03063*
X03036Y0306*
X03037Y03057*
X03038Y03054*
X03039Y03051*
X03041Y03048*
X03042Y03046*
X03044Y03043*
X03046Y0304*
X03048Y03038*
X0305Y03036*
X03053Y03034*
X03055Y03032*
X03058Y0303*
X03061Y03029*
X03064Y03028*
X03067Y03027*
X0307Y03026*
X03073Y03025*
X03076Y03025*
X03079Y03024*
X03082*
X03085Y03025*
X03088Y03025*
X03091Y03026*
X03094Y03027*
X03097Y03028*
X031Y03029*
X03103Y0303*
X03106Y03032*
X03108Y03034*
X03111Y03036*
X03113Y03038*
X03115Y0304*
X03117Y03043*
X03119Y03046*
X0312Y03048*
X03122Y03051*
X03123Y03054*
X03124Y03057*
X03125Y0306*
X03125Y03063*
X03126Y03066*
X03126Y0307*
X03812Y03362D02*
D01*
X03812Y0337*
X03811Y03377*
X03809Y03384*
X03808Y03391*
X03805Y03398*
X03803Y03405*
X03799Y03412*
X03796Y03418*
X03791Y03425*
X03787Y0343*
X03782Y03436*
X03777Y03441*
X03771Y03446*
X03765Y0345*
X03759Y03454*
X03752Y03458*
X03745Y03461*
X03738Y03463*
X03731Y03465*
X03724Y03467*
X03717Y03468*
X03709Y03468*
X03702*
X03694Y03468*
X03687Y03467*
X0368Y03465*
X03673Y03463*
X03666Y03461*
X03659Y03458*
X03652Y03454*
X03646Y0345*
X0364Y03446*
X03634Y03441*
X03629Y03436*
X03624Y0343*
X0362Y03425*
X03615Y03418*
X03612Y03412*
X03608Y03405*
X03606Y03398*
X03603Y03391*
X03602Y03384*
X036Y03377*
X03599Y0337*
X03599Y03362*
X03599Y03355*
X036Y03347*
X03602Y0334*
X03603Y03333*
X03606Y03326*
X03608Y03319*
X03612Y03312*
X03615Y03306*
X0362Y033*
X03624Y03294*
X03629Y03288*
X03634Y03283*
X0364Y03278*
X03646Y03274*
X03652Y0327*
X03659Y03267*
X03666Y03264*
X03673Y03261*
X0368Y03259*
X03687Y03257*
X03694Y03256*
X03702Y03256*
X03709*
X03717Y03256*
X03724Y03257*
X03731Y03259*
X03738Y03261*
X03745Y03264*
X03752Y03267*
X03759Y0327*
X03765Y03274*
X03771Y03278*
X03777Y03283*
X03782Y03288*
X03787Y03294*
X03791Y033*
X03796Y03306*
X03799Y03312*
X03803Y03319*
X03805Y03326*
X03808Y03333*
X03809Y0334*
X03811Y03347*
X03812Y03355*
X03812Y03362*
X02474Y03363D02*
D01*
X02474Y0337*
X02473Y03377*
X02471Y03385*
X0247Y03392*
X02467Y03399*
X02465Y03406*
X02461Y03413*
X02458Y03419*
X02453Y03425*
X02449Y03431*
X02444Y03437*
X02439Y03442*
X02433Y03446*
X02427Y03451*
X02421Y03455*
X02414Y03458*
X02407Y03461*
X024Y03464*
X02393Y03466*
X02386Y03467*
X02379Y03468*
X02371Y03469*
X02364*
X02356Y03468*
X02349Y03467*
X02342Y03466*
X02335Y03464*
X02328Y03461*
X02321Y03458*
X02314Y03455*
X02308Y03451*
X02302Y03446*
X02296Y03442*
X02291Y03437*
X02286Y03431*
X02282Y03425*
X02277Y03419*
X02274Y03413*
X0227Y03406*
X02268Y03399*
X02265Y03392*
X02264Y03385*
X02262Y03377*
X02261Y0337*
X02261Y03363*
X02261Y03355*
X02262Y03348*
X02264Y03341*
X02265Y03333*
X02268Y03326*
X0227Y03319*
X02274Y03313*
X02277Y03306*
X02282Y033*
X02286Y03294*
X02291Y03289*
X02296Y03284*
X02302Y03279*
X02308Y03275*
X02314Y03271*
X02321Y03267*
X02328Y03264*
X02335Y03262*
X02342Y0326*
X02349Y03258*
X02356Y03257*
X02364Y03256*
X02371*
X02379Y03257*
X02386Y03258*
X02393Y0326*
X024Y03262*
X02407Y03264*
X02414Y03267*
X02421Y03271*
X02427Y03275*
X02433Y03279*
X02439Y03284*
X02444Y03289*
X02449Y03294*
X02453Y033*
X02458Y03306*
X02461Y03313*
X02465Y03319*
X02467Y03326*
X0247Y03333*
X02471Y03341*
X02473Y03348*
X02474Y03355*
X02474Y03363*
X03788Y03462D02*
D01*
X0378Y03468*
X03773Y03473*
X03765Y03478*
X03757Y03482*
X03749Y03485*
X0374Y03488*
X03731Y0349*
X03722Y03492*
X03713Y03493*
X03704Y03493*
X03695Y03493*
X03686Y03492*
X03677Y0349*
X03668Y03488*
X0366Y03485*
X03651Y03482*
X03643Y03478*
X03635Y03474*
X03628Y03469*
X03621Y03463*
X03614Y03457*
X03607Y03451*
X03602Y03444*
X03596Y03436*
X03591Y03429*
X03587Y03421*
X03586Y03418*
X03455Y0336D02*
D01*
X03454Y0336*
X03454Y03361*
X03454Y03362*
X03454Y03362*
X03454Y03363*
X03454Y03363*
X03453Y03364*
X03453Y03365*
X03453Y03365*
X03452Y03366*
X03452Y03366*
X03451Y03367*
X03451Y03367*
X0345Y03368*
X0345Y03368*
X03449Y03368*
X03448Y03369*
X03448Y03369*
X03447Y03369*
X03446Y03369*
X03446Y03369*
X03445Y03369*
X03444*
X03444Y03369*
X03443Y03369*
X03442Y03369*
X03442Y03369*
X03441Y03369*
X0344Y03368*
X0344Y03368*
X03439Y03368*
X03439Y03367*
X03438Y03367*
X03438Y03366*
X03437Y03366*
X03437Y03365*
X03436Y03365*
X03436Y03364*
X03436Y03363*
X03435Y03363*
X03435Y03362*
X03435Y03362*
X03435Y03361*
X03435Y0336*
X03435Y0336*
X03435Y03359*
X03435Y03358*
X03435Y03357*
X03435Y03357*
X03435Y03356*
X03436Y03356*
X03436Y03355*
X03436Y03354*
X03437Y03354*
X03437Y03353*
X03438Y03353*
X03438Y03352*
X03439Y03352*
X03439Y03351*
X0344Y03351*
X0344Y03351*
X03441Y0335*
X03442Y0335*
X03442Y0335*
X03443Y0335*
X03444Y0335*
X03444Y0335*
X03445*
X03446Y0335*
X03446Y0335*
X03447Y0335*
X03448Y0335*
X03448Y0335*
X03449Y03351*
X0345Y03351*
X0345Y03351*
X03451Y03352*
X03451Y03352*
X03452Y03353*
X03452Y03353*
X03453Y03354*
X03453Y03354*
X03453Y03355*
X03454Y03356*
X03454Y03356*
X03454Y03357*
X03454Y03357*
X03454Y03358*
X03454Y03359*
X03455Y0336*
X0248Y03209D02*
D01*
X0248Y03212*
X02479Y03214*
X02479Y03217*
X02478Y03219*
X02478Y03222*
X02477Y03224*
X02476Y03226*
X02474Y03229*
X02473Y03231*
X02471Y03233*
X0247Y03235*
X02468Y03236*
X02466Y03238*
X02464Y0324*
X02462Y03241*
X02459Y03242*
X02457Y03243*
X02455Y03244*
X02452Y03245*
X0245Y03245*
X02447Y03246*
X02445Y03246*
X02442*
X0244Y03246*
X02437Y03245*
X02435Y03245*
X02432Y03244*
X0243Y03243*
X02427Y03242*
X02425Y03241*
X02423Y0324*
X02421Y03238*
X02419Y03236*
X02417Y03235*
X02416Y03233*
X02414Y03231*
X02413Y03229*
X02411Y03226*
X0241Y03224*
X02409Y03222*
X02408Y03219*
X02408Y03217*
X02407Y03214*
X02407Y03212*
X02407Y03209*
X02407Y03207*
X02407Y03204*
X02408Y03202*
X02408Y03199*
X02409Y03197*
X0241Y03195*
X02411Y03192*
X02413Y0319*
X02414Y03188*
X02416Y03186*
X02417Y03184*
X02419Y03182*
X02421Y03181*
X02423Y03179*
X02425Y03178*
X02427Y03177*
X0243Y03176*
X02432Y03175*
X02435Y03174*
X02437Y03174*
X0244Y03173*
X02442Y03173*
X02445*
X02447Y03173*
X0245Y03174*
X02452Y03174*
X02455Y03175*
X02457Y03176*
X02459Y03177*
X02462Y03178*
X02464Y03179*
X02466Y03181*
X02468Y03182*
X0247Y03184*
X02471Y03186*
X02473Y03188*
X02474Y0319*
X02476Y03192*
X02477Y03195*
X02478Y03197*
X02478Y03199*
X02479Y03202*
X02479Y03204*
X0248Y03207*
X0248Y03209*
X02129Y03721D02*
X03778D01*
X02293Y0355D02*
Y03578D01*
X0223Y03621D02*
X02281D01*
X0223Y03507D02*
X02281D01*
X0223Y03586D02*
Y03621D01*
Y03507D02*
Y03542D01*
X022Y03101D02*
X02283D01*
X022Y03038D02*
X02283D01*
X04429Y03007D02*
Y03721D01*
X03764D02*
X04429D01*
X03768Y03007D02*
X04429D01*
X02856Y03646D02*
Y03717D01*
X02484Y03646D02*
X02856D01*
X02484D02*
Y03717D01*
X02856*
X03788Y03463D02*
Y0372D01*
X02129Y03007D02*
Y03719D01*
Y03007D02*
X03769D01*
X02492Y03158D02*
X02495Y03161D01*
X02395Y03158D02*
X02492D01*
X02392Y03161D02*
X02395Y03158D01*
X02495Y03161D02*
Y03258D01*
X02492Y03261D02*
X02495Y03258D01*
X02392Y03161D02*
Y03258D01*
X02395Y03261*
X02492*
X03934Y03011D02*
Y03092D01*
X03926Y03092D02*
X03944D01*
X02637Y03616D02*
Y03596D01*
X0264Y03593*
X02648*
X02652Y03596*
Y03616*
X0266Y03612D02*
X02664Y03616D01*
X02672*
X02676Y03612*
Y03608*
X02672Y03604*
X02668*
X02672*
X02676Y036*
Y03596*
X02672Y03593*
X02664*
X0266Y03596*
X02236Y03495D02*
Y03475D01*
X02239Y03472*
X02247*
X02251Y03475*
Y03495*
X02275Y03472D02*
X02259D01*
X02275Y03487*
Y03491*
X02271Y03495*
X02263*
X02259Y03491*
X03417Y03639D02*
X03432D01*
X03424*
Y03616*
X0344D02*
Y03639D01*
X03452*
X03456Y03635*
Y03627*
X03452Y03623*
X0344*
X0348Y03639D02*
X03472Y03635D01*
X03464Y03627*
Y03619*
X03468Y03616*
X03476*
X0348Y03619*
Y03623*
X03476Y03627*
X03464*
X03336Y03639D02*
X03351D01*
X03343*
Y03616*
X03359D02*
Y03639D01*
X03371*
X03375Y03635*
Y03627*
X03371Y03623*
X03359*
X03399Y03639D02*
X03383D01*
Y03627*
X03391Y03631*
X03395*
X03399Y03627*
Y03619*
X03395Y03616*
X03387*
X03383Y03619*
X03213Y03639D02*
X03228D01*
X0322*
Y03616*
X03236D02*
Y03639D01*
X03248*
X03252Y03635*
Y03627*
X03248Y03623*
X03236*
X03272Y03616D02*
Y03639D01*
X0326Y03627*
X03276*
X03133Y0364D02*
X03148D01*
X0314*
Y03616*
X03156D02*
Y0364D01*
X03168*
X03172Y03636*
Y03628*
X03168Y03624*
X03156*
X0318Y03636D02*
X03184Y0364D01*
X03192*
X03196Y03636*
Y03632*
X03192Y03628*
X03188*
X03192*
X03196Y03624*
Y0362*
X03192Y03616*
X03184*
X0318Y0362*
X03054Y03639D02*
X03069D01*
X03061*
Y03616*
X03077D02*
Y03639D01*
X03089*
X03093Y03635*
Y03627*
X03089Y03623*
X03077*
X03117Y03616D02*
X03101D01*
X03117Y03631*
Y03635*
X03113Y03639*
X03105*
X03101Y03635*
X02981Y03637D02*
X02996D01*
X02988*
Y03614*
X03004D02*
Y03637D01*
X03016*
X0302Y03633*
Y03625*
X03016Y03621*
X03004*
X03028Y03614D02*
X03036D01*
X03032*
Y03637*
X03028Y03633*
X03045Y03275D02*
X03041Y03279D01*
X03033*
X0303Y03275*
Y03271*
X03033Y03267*
X03041*
X03045Y03263*
Y03259*
X03041Y03256*
X03033*
X0303Y03259*
X03053Y03279D02*
Y03256D01*
X03061Y03263*
X03069Y03256*
Y03279*
X03077Y03275D02*
X03081Y03279D01*
X03089*
X03093Y03275*
Y03271*
X03089Y03267*
X03085*
X03089*
X03093Y03263*
Y03259*
X03089Y03256*
X03081*
X03077Y03259*
X04226Y0335D02*
X04222Y03346D01*
Y03338*
X04226Y03335*
X0423*
X04234Y03338*
Y03346*
X04238Y0335*
X04242*
X04246Y03346*
Y03338*
X04242Y03335*
X04222Y03358D02*
X04246D01*
X04238Y03366*
X04246Y03374*
X04222*
X04246Y03398D02*
Y03382D01*
X0423Y03398*
X04226*
X04222Y03394*
Y03386*
X04226Y03382*
X04311Y03123D02*
Y031D01*
X04322*
X04326Y03104*
Y03108*
X04322Y03112*
X04311*
X04322*
X04326Y03116*
Y03119*
X04322Y03123*
X04311*
X04334Y03096D02*
X0435D01*
X04374Y03119D02*
X0437Y03123D01*
X04362*
X04358Y03119*
Y03104*
X04362Y031*
X0437*
X04374Y03104*
X04381Y03123D02*
Y031D01*
Y03112*
X04397*
Y03123*
Y031*
X04421D02*
X04405D01*
X04421Y03116*
Y03119*
X04417Y03123*
X04409*
X04405Y03119*
X0394Y03118D02*
X03936Y03122D01*
X03928*
X03925Y03118*
Y03102*
X03928Y03099*
X03936*
X0394Y03102*
X03948Y03122D02*
Y03099D01*
Y0311*
X03964*
Y03122*
Y03099*
X03988D02*
X03972D01*
X03988Y03114*
Y03118*
X03984Y03122*
X03976*
X03972Y03118*
X03995Y03095D02*
X04011D01*
X04019Y03099D02*
Y03122D01*
X04031*
X04035Y03118*
Y0311*
X04031Y03106*
X04019*
X04043Y03122D02*
Y03099D01*
X0405Y03106*
X04058Y03099*
Y03122*
X04206Y0312D02*
X04202Y03124D01*
X04194*
X04191Y0312*
Y03105*
X04194Y03101*
X04202*
X04206Y03105*
Y03112*
X04198*
X04214Y03097D02*
X0423D01*
X04254Y0312D02*
X0425Y03124D01*
X04242*
X04238Y0312*
Y03105*
X04242Y03101*
X0425*
X04254Y03105*
X04261Y03124D02*
Y03101D01*
Y03112*
X04277*
Y03124*
Y03101*
X04301D02*
X04285D01*
X04301Y03116*
Y0312*
X04297Y03124*
X04289*
X04285Y0312*
X04068Y031D02*
Y03123D01*
X04079*
X04083Y03119*
Y03111*
X04079Y03107*
X04068*
X04075D02*
X04083Y031D01*
X04091Y03096D02*
X04107D01*
X04131Y03119D02*
X04127Y03123D01*
X04119*
X04115Y03119*
Y03103*
X04119Y031*
X04127*
X04131Y03103*
X04138Y03123D02*
Y031D01*
Y03111*
X04154*
Y03123*
Y031*
X04178D02*
X04162D01*
X04178Y03115*
Y03119*
X04174Y03123*
X04166*
X04162Y03119*
X03817Y03098D02*
Y03121D01*
X03828*
X03832Y03117*
Y03109*
X03828Y03105*
X03817*
X03824D02*
X03832Y03098D01*
X0384Y03094D02*
X03856D01*
X0388Y03117D02*
X03876Y03121D01*
X03868*
X03864Y03117*
Y03101*
X03868Y03098*
X03876*
X0388Y03101*
X03887Y03121D02*
Y03098D01*
Y03109*
X03903*
Y03121*
Y03098*
X03911D02*
X03919D01*
X03915*
Y03121*
X03911Y03117*
X03474Y03118D02*
X0347Y03122D01*
X03462*
X03459Y03118*
Y03102*
X03462Y03098*
X0347*
X03474Y03102*
X03482Y03122D02*
Y03098D01*
Y0311*
X03498*
Y03122*
Y03098*
X03506D02*
X03514D01*
X0351*
Y03122*
X03506Y03118*
X03525Y03094D02*
X03541D01*
X03549Y03098D02*
Y03122D01*
X03561*
X03565Y03118*
Y0311*
X03561Y03106*
X03549*
X03573Y03122D02*
Y03098D01*
X03581Y03106*
X03588Y03098*
Y03122*
X03721Y03118D02*
X03717Y03122D01*
X03709*
X03706Y03118*
Y03102*
X03709Y03099*
X03717*
X03721Y03102*
Y0311*
X03713*
X03729Y03095D02*
X03745D01*
X03769Y03118D02*
X03765Y03122D01*
X03757*
X03753Y03118*
Y03102*
X03757Y03099*
X03765*
X03769Y03102*
X03776Y03122D02*
Y03099D01*
Y0311*
X03792*
Y03122*
Y03099*
X038D02*
X03808D01*
X03804*
Y03122*
X038Y03118*
X03597Y03122D02*
Y03099D01*
X03608*
X03612Y03102*
Y03106*
X03608Y0311*
X03597*
X03608*
X03612Y03114*
Y03118*
X03608Y03122*
X03597*
X0362Y03095D02*
X03636D01*
X0366Y03118D02*
X03656Y03122D01*
X03648*
X03644Y03118*
Y03102*
X03648Y03099*
X03656*
X0366Y03102*
X03667Y03122D02*
Y03099D01*
Y0311*
X03683*
Y03122*
Y03099*
X03691D02*
X03699D01*
X03695*
Y03122*
X03691Y03118*
X03341Y03059D02*
X03337Y03063D01*
X03329*
X03326Y03059*
Y03055*
X03329Y03051*
X03337*
X03341Y03047*
Y03043*
X03337Y0304*
X03329*
X03326Y03043*
X03349Y03063D02*
Y0304D01*
X03361*
X03365Y03043*
Y03047*
X03361Y03051*
X03349*
X03361*
X03365Y03055*
Y03059*
X03361Y03063*
X03349*
X03389D02*
X03381Y03059D01*
X03373Y03051*
Y03043*
X03377Y0304*
X03385*
X03389Y03043*
Y03047*
X03385Y03051*
X03373*
X0334Y03112D02*
X03336Y03116D01*
X03328*
X03325Y03112*
Y03108*
X03328Y03105*
X03336*
X0334Y03101*
Y03097*
X03336Y03093*
X03328*
X03325Y03097*
X03348Y03116D02*
Y03093D01*
X0336*
X03364Y03097*
Y03101*
X0336Y03105*
X03348*
X0336*
X03364Y03108*
Y03112*
X0336Y03116*
X03348*
X03388D02*
X03372D01*
Y03105*
X0338Y03108*
X03384*
X03388Y03105*
Y03097*
X03384Y03093*
X03376*
X03372Y03097*
X0387Y03593D02*
Y03616D01*
X03881*
X03885Y03612*
Y03604*
X03881Y036*
X0387*
X03877D02*
X03885Y03593D01*
X03905D02*
Y03616D01*
X03893Y03604*
X03909*
X03917Y03612D02*
X03921Y03616D01*
X03929*
X03933Y03612*
Y03608*
X03929Y03604*
X03933Y036*
Y03596*
X03929Y03593*
X03921*
X03917Y03596*
Y036*
X03921Y03604*
X03917Y03608*
Y03612*
X03921Y03604D02*
X03929D01*
X0387Y03556D02*
Y03579D01*
X03881*
X03885Y03575*
Y03567*
X03881Y03563*
X0387*
X03877D02*
X03885Y03556D01*
X03905D02*
Y03579D01*
X03893Y03567*
X03909*
X03933Y03579D02*
X03917D01*
Y03567*
X03925Y03571*
X03929*
X03933Y03567*
Y03559*
X03929Y03556*
X03921*
X03917Y03559*
X02844Y03024D02*
Y03047D01*
X02855*
X02859Y03043*
Y03035*
X02855Y03031*
X02844*
X02851D02*
X02859Y03024D01*
X02883D02*
X02867D01*
X02883Y03039*
Y03043*
X02879Y03047*
X02871*
X02867Y03043*
X02891Y03047D02*
X02906D01*
Y03043*
X02891Y03027*
Y03024*
X03101Y03479D02*
Y03502D01*
X03112*
X03116Y03498*
Y0349*
X03112Y03486*
X03101*
X03108D02*
X03116Y03479D01*
X0314D02*
X03124D01*
X0314Y03494*
Y03498*
X03136Y03502*
X03128*
X03124Y03498*
X03164Y03502D02*
X03156Y03498D01*
X03148Y0349*
Y03482*
X03152Y03479*
X0316*
X03164Y03482*
Y03486*
X0316Y0349*
X03148*
X0316Y03512D02*
Y03536D01*
X03171*
X03175Y03532*
Y03524*
X03171Y0352*
X0316*
X03167D02*
X03175Y03512D01*
X03199D02*
X03183D01*
X03199Y03528*
Y03532*
X03195Y03536*
X03187*
X03183Y03532*
X03223Y03536D02*
X03207D01*
Y03524*
X03215Y03528*
X03219*
X03223Y03524*
Y03516*
X03219Y03512*
X03211*
X03207Y03516*
X03325Y03143D02*
Y03166D01*
X03336*
X0334Y03162*
Y03154*
X03336Y0315*
X03325*
X03332D02*
X0334Y03143D01*
X03348D02*
X03356D01*
X03352*
Y03166*
X03348Y03162*
X03368D02*
X03372Y03166D01*
X0338*
X03384Y03162*
Y03158*
X0338Y03154*
X03384Y0315*
Y03146*
X0338Y03143*
X03372*
X03368Y03146*
Y0315*
X03372Y03154*
X03368Y03158*
Y03162*
X03372Y03154D02*
X0338D01*
X02708Y03394D02*
Y03417D01*
X02719*
X02723Y03413*
Y03405*
X02719Y03401*
X02708*
X02715D02*
X02723Y03394D01*
X02731D02*
X02739D01*
X02735*
Y03417*
X02731Y03413*
X02767Y03417D02*
X02751D01*
Y03405*
X02759Y03409*
X02763*
X02767Y03405*
Y03397*
X02763Y03394*
X02755*
X02751Y03397*
X02661Y03425D02*
Y03448D01*
X02672*
X02676Y03444*
Y03436*
X02672Y03432*
X02661*
X02668D02*
X02676Y03425D01*
X02684D02*
X02692D01*
X02688*
Y03448*
X02684Y03444*
X02716Y03425D02*
Y03448D01*
X02704Y03436*
X0272*
X02412Y03549D02*
Y03572D01*
X02423*
X02427Y03568*
Y0356*
X02423Y03556*
X02412*
X02419D02*
X02427Y03549D01*
X02435D02*
X02443D01*
X02439*
Y03572*
X02435Y03568*
X02455D02*
X02459Y03572D01*
X02467*
X02471Y03568*
Y03564*
X02467Y0356*
X02463*
X02467*
X02471Y03556*
Y03552*
X02467Y03549*
X02459*
X02455Y03552*
X02412Y03478D02*
Y03501D01*
X02423*
X02427Y03497*
Y03489*
X02423Y03485*
X02412*
X02419D02*
X02427Y03478D01*
X02435D02*
X02443D01*
X02439*
Y03501*
X02435Y03497*
X02471Y03478D02*
X02455D01*
X02471Y03493*
Y03497*
X02467Y03501*
X02459*
X02455Y03497*
X02412Y03513D02*
Y03536D01*
X02423*
X02427Y03532*
Y03524*
X02423Y0352*
X02412*
X02419D02*
X02427Y03513D01*
X02435D02*
X02443D01*
X02439*
Y03536*
X02435Y03532*
X02455Y03513D02*
X02463D01*
X02459*
Y03536*
X02455Y03532*
X03161Y03549D02*
Y03572D01*
X03172*
X03176Y03568*
Y0356*
X03172Y03556*
X03161*
X03168D02*
X03176Y03549D01*
X03184D02*
X03192D01*
X03188*
Y03572*
X03184Y03568*
X03204D02*
X03208Y03572D01*
X03216*
X0322Y03568*
Y03552*
X03216Y03549*
X03208*
X03204Y03552*
Y03568*
X03285Y03583D02*
Y03606D01*
X03296*
X033Y03602*
Y03594*
X03296Y0359*
X03285*
X03292D02*
X033Y03583D01*
X03308Y03586D02*
X03312Y03583D01*
X0332*
X03324Y03586*
Y03602*
X0332Y03606*
X03312*
X03308Y03602*
Y03598*
X03312Y03594*
X03324*
X02952Y03579D02*
Y03603D01*
X02963*
X02967Y03599*
Y03591*
X02963Y03587*
X02952*
X02959D02*
X02967Y03579D01*
X02975Y03599D02*
X02979Y03603D01*
X02987*
X02991Y03599*
Y03595*
X02987Y03591*
X02991Y03587*
Y03583*
X02987Y03579*
X02979*
X02975Y03583*
Y03587*
X02979Y03591*
X02975Y03595*
Y03599*
X02979Y03591D02*
X02987D01*
X03184Y03583D02*
Y03606D01*
X03195*
X03199Y03602*
Y03594*
X03195Y0359*
X03184*
X03191D02*
X03199Y03583D01*
X03207Y03606D02*
X03223D01*
Y03602*
X03207Y03586*
Y03583*
X02277Y03639D02*
Y03662D01*
X02288*
X02292Y03658*
Y0365*
X02288Y03646*
X02277*
X02284D02*
X02292Y03639D01*
X02316Y03662D02*
X023D01*
Y0365*
X02308Y03654*
X02312*
X02316Y0365*
Y03642*
X02312Y03639*
X02304*
X023Y03642*
X02191Y0363D02*
X02167D01*
Y03641*
X02171Y03645*
X02179*
X02183Y03641*
Y0363*
Y03637D02*
X02191Y03645D01*
Y03665D02*
X02167D01*
X02179Y03653*
Y03669*
X0425Y03185D02*
Y03201D01*
X04246Y03205*
X04238*
X04235Y03201*
Y03185*
X04238Y03182*
X04246*
X04242Y03189D02*
X0425Y03182D01*
X04246D02*
X0425Y03185D01*
X04258Y03201D02*
X04262Y03205D01*
X0427*
X04274Y03201*
Y03197*
X0427Y03193*
X04274Y03189*
Y03185*
X0427Y03182*
X04262*
X04258Y03185*
Y03189*
X04262Y03193*
X04258Y03197*
Y03201*
X04262Y03193D02*
X0427D01*
X02579Y03308D02*
Y03324D01*
X02575Y03328*
X02567*
X02564Y03324*
Y03308*
X02567Y03305*
X02575*
X02571Y03312D02*
X02579Y03305D01*
X02575D02*
X02579Y03308D01*
X02587Y03328D02*
X02603D01*
Y03324*
X02587Y03308*
Y03305*
X0319Y03153D02*
Y03169D01*
X03186Y03173*
X03178*
X03175Y03169*
Y03153*
X03178Y0315*
X03186*
X03182Y03157D02*
X0319Y0315D01*
X03186D02*
X0319Y03153D01*
X03214Y03173D02*
X03198D01*
Y03161*
X03206Y03165*
X0321*
X03214Y03161*
Y03153*
X0321Y0315*
X03202*
X03198Y03153*
X03082Y03586D02*
Y03602D01*
X03078Y03606*
X0307*
X03067Y03602*
Y03586*
X0307Y03583*
X03078*
X03074Y0359D02*
X03082Y03583D01*
X03078D02*
X03082Y03586D01*
X03102Y03583D02*
Y03606D01*
X0309Y03594*
X03106*
X03599Y03179D02*
Y03156D01*
X03614*
X03638Y03179D02*
X03622D01*
Y03156*
X03638*
X03622Y03167D02*
X0363D01*
X03646Y03179D02*
Y03156D01*
X03658*
X03662Y03159*
Y03175*
X03658Y03179*
X03646*
X03685Y03156D02*
X03669D01*
X03685Y03171*
Y03175*
X03681Y03179*
X03673*
X03669Y03175*
X03387Y03181D02*
Y03158D01*
X03402*
X03426Y03181D02*
X0341D01*
Y03158*
X03426*
X0341Y03169D02*
X03418D01*
X03434Y03181D02*
Y03158D01*
X03446*
X0345Y03161*
Y03177*
X03446Y03181*
X03434*
X03457Y03158D02*
X03465D01*
X03461*
Y03181*
X03457Y03177*
X04013Y0364D02*
Y03617D01*
X04028*
X04052Y0364D02*
X04036D01*
Y03629*
X04044Y03633*
X04048*
X04052Y03629*
Y03621*
X04048Y03617*
X0404*
X04036Y03621*
X04016Y03547D02*
Y03524D01*
X04032*
X04052D02*
Y03547D01*
X0404Y03535*
X04056*
X0254Y03109D02*
Y03086D01*
X02555*
X02563D02*
X02571D01*
X02567*
Y03109*
X02563Y03105*
X02028Y03569D02*
X0202D01*
X02024*
Y03549*
X0202Y03545*
X02016*
X02013Y03549*
X02052Y03545D02*
X02036D01*
X02052Y03561*
Y03565*
X02048Y03569*
X0204*
X02036Y03565*
X02494Y03146D02*
X02479D01*
Y03134*
X02486*
X02479*
Y03123*
X02502Y03146D02*
Y03123D01*
X02518*
X02526D02*
X02534D01*
X0253*
Y03146*
X02526Y03142*
X02803Y03607D02*
Y03584D01*
X02814*
X02818Y03587*
Y03603*
X02814Y03607*
X02803*
X02842D02*
X02826D01*
Y03595*
X02834Y03599*
X02838*
X02842Y03595*
Y03587*
X02838Y03584*
X0283*
X02826Y03587*
X03344Y03585D02*
Y03562D01*
X03355*
X03359Y03565*
Y03581*
X03355Y03585*
X03344*
X03383Y03562D02*
X03367D01*
X03383Y03577*
Y03581*
X03379Y03585*
X03371*
X03367Y03581*
X02353Y0368D02*
Y03657D01*
X02364*
X02368Y0366*
Y03676*
X02364Y0368*
X02353*
X02376Y03657D02*
X02384D01*
X0238*
Y0368*
X02376Y03676*
X03898Y03543D02*
X03894Y03547D01*
X03886*
X03883Y03543*
Y03527*
X03886Y03524*
X03894*
X03898Y03527*
X03922Y03547D02*
X03906D01*
Y03535*
X03914Y03539*
X03918*
X03922Y03535*
Y03527*
X03918Y03524*
X0391*
X03906Y03527*
X0393Y03524D02*
X03938D01*
X03934*
Y03547*
X0393Y03543*
X03885Y03656D02*
X03881Y0366D01*
X03873*
X0387Y03656*
Y0364*
X03873Y03637*
X03881*
X03885Y0364*
X03909Y0366D02*
X03893D01*
Y03648*
X03901Y03652*
X03905*
X03909Y03648*
Y0364*
X03905Y03637*
X03897*
X03893Y0364*
X03917Y03656D02*
X03921Y0366D01*
X03929*
X03933Y03656*
Y0364*
X03929Y03637*
X03921*
X03917Y0364*
Y03656*
X03959Y03685D02*
X03955Y03689D01*
X03947*
X03944Y03685*
Y03669*
X03947Y03666*
X03955*
X03959Y03669*
X03979Y03666D02*
Y03689D01*
X03967Y03677*
X03983*
X03991Y03669D02*
X03995Y03666D01*
X04003*
X04007Y03669*
Y03685*
X04003Y03689*
X03995*
X03991Y03685*
Y03681*
X03995Y03677*
X04007*
X0386Y03349D02*
X03856Y03345D01*
Y03337*
X0386Y03334*
X03876*
X0388Y03337*
Y03345*
X03876Y03349*
X0388Y03369D02*
X03856D01*
X03868Y03357*
Y03373*
X0386Y03381D02*
X03856Y03385D01*
Y03393*
X0386Y03397*
X03864*
X03868Y03393*
X03872Y03397*
X03876*
X0388Y03393*
Y03385*
X03876Y03381*
X03872*
X03868Y03385*
X03864Y03381*
X0386*
X03868Y03385D02*
Y03393D01*
X03925Y03351D02*
X03921Y03347D01*
Y03339*
X03925Y03336*
X03941*
X03945Y03339*
Y03347*
X03941Y03351*
X03945Y03371D02*
X03921D01*
X03933Y03359*
Y03375*
X03921Y03383D02*
Y03399D01*
X03925*
X03941Y03383*
X03945*
X04207Y03654D02*
X04203Y0365D01*
Y03642*
X04207Y03639*
X04223*
X04227Y03642*
Y0365*
X04223Y03654*
X04227Y03674D02*
X04203D01*
X04215Y03662*
Y03678*
X04203Y03702D02*
Y03686D01*
X04215*
X04211Y03694*
Y03698*
X04215Y03702*
X04223*
X04227Y03698*
Y0369*
X04223Y03686*
X04223Y03531D02*
X04227Y03535D01*
Y03543*
X04223Y03547*
X04207*
X04204Y03543*
Y03535*
X04207Y03531*
X04204Y03511D02*
X04227D01*
X04215Y03523*
Y03507*
X04204Y03488D02*
X04227D01*
X04215Y03499*
Y03484*
X04239Y03656D02*
X04235Y03652D01*
Y03644*
X04239Y03641*
X04255*
X04259Y03644*
Y03652*
X04255Y03656*
X04259Y03676D02*
X04235D01*
X04247Y03664*
Y0368*
X04239Y03688D02*
X04235Y03692D01*
Y037*
X04239Y03704*
X04243*
X04247Y037*
Y03696*
Y037*
X04251Y03704*
X04255*
X04259Y037*
Y03692*
X04255Y03688*
X04254Y03531D02*
X04258Y03535D01*
Y03543*
X04254Y03547*
X04238*
X04235Y03543*
Y03535*
X04238Y03531*
X04235Y03512D02*
X04258D01*
X04246Y03523*
Y03508*
X04235Y03484D02*
Y035D01*
X0425Y03484*
X04254*
X04258Y03488*
Y03496*
X04254Y035*
X04073Y03691D02*
X04069Y03695D01*
X04061*
X04058Y03691*
Y03676*
X04061Y03672*
X04069*
X04073Y03676*
X04081Y03691D02*
X04085Y03695D01*
X04093*
X04097Y03691*
Y03687*
X04093Y03684*
X04089*
X04093*
X04097Y0368*
Y03676*
X04093Y03672*
X04085*
X04081Y03676*
X04105Y03695D02*
X0412D01*
Y03691*
X04105Y03676*
Y03672*
X03859Y03498D02*
X03855Y03502D01*
X03847*
X03843Y03498*
Y03482*
X03847Y03478*
X03855*
X03859Y03482*
X03867Y03498D02*
X03871Y03502D01*
X03878*
X03882Y03498*
Y03494*
X03878Y0349*
X03875*
X03878*
X03882Y03486*
Y03482*
X03878Y03478*
X03871*
X03867Y03482*
X0389Y03498D02*
X03894Y03502D01*
X03902*
X03906Y03498*
Y03482*
X03902Y03478*
X03894*
X0389Y03482*
Y03498*
X02481Y036D02*
X02477Y03604D01*
X02469*
X02466Y036*
Y03584*
X02469Y03581*
X02477*
X02481Y03584*
X02505Y03581D02*
X02489D01*
X02505Y03596*
Y036*
X02501Y03604*
X02493*
X02489Y036*
X02513Y03604D02*
X02529D01*
Y036*
X02513Y03584*
Y03581*
X02746Y03604D02*
X02742Y03608D01*
X02734*
X02731Y03604*
Y03588*
X02734Y03585*
X02742*
X02746Y03588*
X0277Y03585D02*
X02754D01*
X0277Y036*
Y03604*
X02766Y03608*
X02758*
X02754Y03604*
X02794Y03608D02*
X02786Y03604D01*
X02778Y03596*
Y03588*
X02782Y03585*
X0279*
X02794Y03588*
Y03592*
X0279Y03596*
X02778*
X02446Y03463D02*
X02442Y03467D01*
X02434*
X02431Y03463*
Y03448*
X02434Y03444*
X02442*
X02446Y03448*
X0247Y03444D02*
X02454D01*
X0247Y03459*
Y03463*
X02466Y03467*
X02458*
X02454Y03463*
X02494Y03467D02*
X02478D01*
Y03455*
X02486Y03459*
X0249*
X02494Y03455*
Y03448*
X0249Y03444*
X02482*
X02478Y03448*
X02198Y037D02*
X02194Y03704D01*
X02186*
X02183Y037*
Y03684*
X02186Y03681*
X02194*
X02198Y03684*
X02222Y03681D02*
X02206D01*
X02222Y03696*
Y037*
X02218Y03704*
X0221*
X02206Y037*
X02242Y03681D02*
Y03704D01*
X0223Y03692*
X02246*
X02158Y03584D02*
X02162Y03588D01*
Y03596*
X02158Y036*
X02142*
X02139Y03596*
Y03588*
X02142Y03584*
X02139Y0356D02*
Y03576D01*
X02154Y0356*
X02158*
X02162Y03564*
Y03572*
X02158Y03576*
Y03552D02*
X02162Y03548D01*
Y03541*
X02158Y03537*
X02154*
X0215Y03541*
Y03544*
Y03541*
X02146Y03537*
X02142*
X02139Y03541*
Y03548*
X02142Y03552*
X02605Y03064D02*
X02601Y03068D01*
X02593*
X0259Y03064*
Y03048*
X02593Y03045*
X02601*
X02605Y03048*
X02613Y03045D02*
X02621D01*
X02617*
Y03068*
X02613Y03064*
X02633Y03068D02*
X02649D01*
Y03064*
X02633Y03048*
Y03045*
X02403Y03097D02*
X02399Y03093D01*
Y03085*
X02403Y03082*
X02419*
X02423Y03085*
Y03093*
X02419Y03097*
X02423Y03105D02*
Y03113D01*
Y03109*
X02399*
X02403Y03105*
X02399Y03141D02*
X02403Y03133D01*
X02411Y03125*
X02419*
X02423Y03129*
Y03137*
X02419Y03141*
X02415*
X02411Y03137*
Y03125*
X0243Y03036D02*
X02426Y0304D01*
X02418*
X02415Y03036*
Y0302*
X02418Y03017*
X02426*
X0243Y0302*
X02438Y03017D02*
X02446D01*
X02442*
Y0304*
X02438Y03036*
X02474Y0304D02*
X02458D01*
Y03028*
X02466Y03032*
X0247*
X02474Y03028*
Y0302*
X0247Y03017*
X02462*
X02458Y0302*
X02536Y03036D02*
X02532Y03032D01*
Y03024*
X02536Y03021*
X02552*
X02556Y03024*
Y03032*
X02552Y03036*
X02532Y03044D02*
Y0306D01*
X02536*
X02552Y03044*
X02556*
X0288Y03108D02*
X02876Y03112D01*
X02868*
X02865Y03108*
Y03093*
X02868Y03089*
X02876*
X0288Y03093*
X02904Y03112D02*
X02896Y03108D01*
X02888Y031*
Y03093*
X02892Y03089*
X029*
X02904Y03093*
Y03097*
X029Y031*
X02888*
X0276Y03382D02*
X02756Y03386D01*
X02748*
X02745Y03382*
Y03366*
X02748Y03363*
X02756*
X0276Y03366*
X02784Y03386D02*
X02768D01*
Y03374*
X02776Y03378*
X0278*
X02784Y03374*
Y03366*
X0278Y03363*
X02772*
X02768Y03366*
X02903Y03178D02*
X02899Y03182D01*
X02891*
X02888Y03178*
Y03163*
X02891Y03159*
X02899*
X02903Y03163*
X02923Y03159D02*
Y03182D01*
X02911Y0317*
X02927*
X0347Y03456D02*
Y0348D01*
X03458*
X03454Y03476*
Y03472*
X03458Y03468*
X0347*
X03458*
X03454Y03464*
Y0346*
X03458Y03456*
X0347*
X03446D02*
X0343D01*
Y0346*
X03446Y03476*
Y0348*
X0343*
X03422D02*
X03414D01*
X03418*
Y03456*
X03422Y0346*
X02203Y03054D02*
Y0307D01*
X0221Y03078*
X02218Y0307*
Y03054*
Y03066*
X02203*
X02226Y03054D02*
Y03078D01*
X02242Y03054*
Y03078*
X0225D02*
X02266D01*
X02258*
Y03054*
X02273D02*
X02281D01*
X02277*
Y03078*
X02273Y03074*
X04455Y03596D02*
X04451Y036D01*
X04443*
X0444Y03596*
Y0358*
X04443Y03577*
X04451*
X04455Y0358*
X04475Y036D02*
X04467D01*
X04463Y03596*
Y0358*
X04467Y03577*
X04475*
X04479Y0358*
Y03596*
X04475Y036*
X04487Y03577D02*
Y036D01*
X04503Y03577*
Y036*
X0451Y03577D02*
X04518D01*
X04514*
Y036*
X0451Y03596*
X02401Y03641D02*
X02416D01*
X02408*
Y03618*
X02424D02*
Y03641D01*
X02436*
X0244Y03637*
Y03629*
X02436Y03625*
X02424*
X02448Y03618D02*
X02456D01*
X02452*
Y03641*
X02448Y03637*
X02467Y03618D02*
X02475D01*
X02471*
Y03641*
X02467Y03637*
X03936Y03171D02*
X03951D01*
X03943*
Y03148*
X03959D02*
Y03171D01*
X03971*
X03975Y03167*
Y03159*
X03971Y03155*
X03959*
X03983Y03148D02*
X03991D01*
X03987*
Y03171*
X03983Y03167*
X04018Y03148D02*
X04002D01*
X04018Y03163*
Y03167*
X04014Y03171*
X04006*
X04002Y03167*
X0384Y03271D02*
X03855D01*
X03847*
Y03248*
X03863D02*
Y03271D01*
X03875*
X03879Y03267*
Y03259*
X03875Y03255*
X03863*
X03887Y03248D02*
X03895D01*
X03891*
Y03271*
X03887Y03267*
X03906D02*
X0391Y03271D01*
X03918*
X03922Y03267*
Y03263*
X03918Y03259*
X03914*
X03918*
X03922Y03255*
Y03251*
X03918Y03248*
X0391*
X03906Y03251*
X03567Y03264D02*
X03582D01*
X03574*
Y03241*
X0359D02*
Y03264D01*
X03602*
X03606Y0326*
Y03252*
X03602Y03248*
X0359*
X03614Y03241D02*
X03622D01*
X03618*
Y03264*
X03614Y0326*
X03645Y03241D02*
Y03264D01*
X03633Y03252*
X03649*
X02871Y03664D02*
X0286Y03675D01*
X02871Y03687*
X02899D02*
X02891D01*
X02895*
Y03667*
X02891Y03664*
X02887*
X02883Y03667*
X02907Y03687D02*
X02923D01*
X02915*
Y03664*
X0293D02*
Y03679D01*
X02938Y03687*
X02946Y03679*
Y03664*
Y03675*
X0293*
X0297Y03683D02*
X02966Y03687D01*
X02958*
X02954Y03683*
Y03667*
X02958Y03664*
X02966*
X0297Y03667*
Y03675*
X02962*
X02272Y03197D02*
Y03212D01*
X02279Y0322*
X02287Y03212*
Y03197*
Y03208*
X02272*
X02295Y03197D02*
Y0322D01*
X02311Y03197*
Y0322*
X02319D02*
X02335D01*
X02327*
Y03197*
X02358D02*
X02342D01*
X02358Y03212*
Y03216*
X02354Y0322*
X02346*
X02342Y03216*
G54D54*
X03594Y0336D02*
D01*
X03594Y0337*
X03593Y0338*
X03591Y03391*
X03589Y03401*
X03585Y03411*
X03581Y0342*
X03577Y0343*
X03572Y03439*
X03566Y03447*
X03559Y03456*
X03552Y03463*
X03545Y03471*
X03537Y03477*
X03528Y03484*
X0352Y03489*
X0351Y03494*
X03501Y03498*
X03491Y03502*
X03481Y03505*
X03471Y03507*
X0346Y03508*
X0345Y03509*
X03439*
X03429Y03508*
X03419Y03507*
X03409Y03505*
X03398Y03502*
X03389Y03498*
X03379Y03494*
X0337Y03489*
X03361Y03484*
X03353Y03477*
X03345Y03471*
X03337Y03463*
X0333Y03456*
X03324Y03447*
X03318Y03439*
X03313Y0343*
X03308Y0342*
X03304Y03411*
X03301Y03401*
X03298Y03391*
X03297Y0338*
X03295Y0337*
X03295Y0336*
X03295Y03349*
X03297Y03339*
X03298Y03328*
X03301Y03318*
X03304Y03308*
X03308Y03299*
X03313Y03289*
X03318Y0328*
X03324Y03272*
X0333Y03263*
X03337Y03256*
X03345Y03248*
X03353Y03242*
X03361Y03235*
X0337Y0323*
X03379Y03225*
X03389Y03221*
X03398Y03217*
X03409Y03214*
X03419Y03212*
X03429Y03211*
X03439Y0321*
X0345*
X0346Y03211*
X03471Y03212*
X03481Y03214*
X03491Y03217*
X03501Y03221*
X0351Y03225*
X0352Y0323*
X03528Y03235*
X03537Y03242*
X03545Y03248*
X03552Y03256*
X03559Y03263*
X03566Y03272*
X03572Y0328*
X03577Y03289*
X03581Y03299*
X03585Y03308*
X03589Y03318*
X03591Y03328*
X03593Y03339*
X03594Y03349*
X03594Y0336*
X02625Y03459D02*
X02688D01*
X02625Y03585D02*
X02688D01*
Y03459D02*
Y03585D01*
X02625Y03459D02*
Y03585D01*
X02876Y03176D02*
Y03203D01*
X02723Y03023D02*
X02736Y03036D01*
X02709D02*
X02723Y03023D01*
X02556Y0319D02*
X02569Y03176D01*
X02556Y0319D02*
X02569Y03203D01*
X02709Y03343D02*
X02723Y03357D01*
X02736Y03343*
X02527Y03279D02*
Y03253D01*
X02532Y03248*
X02542*
X02548Y03253*
Y03279*
X02558Y03248D02*
X02569D01*
X02563*
Y03279*
X02558Y03274*
G54D70*
X03914Y03057D02*
D01*
X03914Y0306*
X03914Y03062*
X03913Y03065*
X03912Y03068*
X03912Y0307*
X0391Y03073*
X03909Y03075*
X03908Y03078*
X03906Y0308*
X03905Y03082*
X03903Y03084*
X03901Y03086*
X03899Y03088*
X03897Y0309*
X03894Y03091*
X03892Y03092*
X03889Y03094*
X03887Y03094*
X03884Y03095*
X03881Y03096*
X03879Y03096*
X03876Y03096*
X03873*
X0387Y03096*
X03868Y03096*
X03865Y03095*
X03862Y03094*
X0386Y03094*
X03857Y03092*
X03855Y03091*
X03852Y0309*
X0385Y03088*
X03848Y03086*
X03846Y03084*
X03844Y03082*
X03843Y0308*
X03841Y03078*
X0384Y03075*
X03839Y03073*
X03837Y0307*
X03837Y03068*
X03836Y03065*
X03835Y03062*
X03835Y0306*
X03835Y03057*
X03835Y03054*
X03835Y03052*
X03836Y03049*
X03837Y03046*
X03837Y03044*
X03839Y03041*
X0384Y03039*
X03841Y03036*
X03843Y03034*
X03844Y03032*
X03846Y0303*
X03848Y03028*
X0385Y03026*
X03852Y03024*
X03855Y03023*
X03857Y03022*
X0386Y0302*
X03862Y0302*
X03865Y03019*
X03868Y03018*
X0387Y03018*
X03873Y03018*
X03876*
X03879Y03018*
X03881Y03018*
X03884Y03019*
X03887Y0302*
X03889Y0302*
X03892Y03022*
X03894Y03023*
X03897Y03024*
X03899Y03026*
X03901Y03028*
X03903Y0303*
X03905Y03032*
X03906Y03034*
X03908Y03036*
X03909Y03039*
X0391Y03041*
X03912Y03044*
X03912Y03046*
X03913Y03049*
X03914Y03052*
X03914Y03054*
X03914Y03057*
X03683D02*
D01*
X03683Y0306*
X03683Y03062*
X03682Y03065*
X03681Y03068*
X03681Y0307*
X03679Y03073*
X03678Y03075*
X03677Y03078*
X03675Y0308*
X03674Y03082*
X03672Y03084*
X0367Y03086*
X03668Y03088*
X03666Y0309*
X03663Y03091*
X03661Y03092*
X03658Y03094*
X03656Y03094*
X03653Y03095*
X0365Y03096*
X03648Y03096*
X03645Y03096*
X03642*
X03639Y03096*
X03637Y03096*
X03634Y03095*
X03631Y03094*
X03629Y03094*
X03626Y03092*
X03624Y03091*
X03621Y0309*
X03619Y03088*
X03617Y03086*
X03615Y03084*
X03613Y03082*
X03612Y0308*
X0361Y03078*
X03609Y03075*
X03608Y03073*
X03606Y0307*
X03606Y03068*
X03605Y03065*
X03604Y03062*
X03604Y0306*
X03604Y03057*
X03604Y03054*
X03604Y03052*
X03605Y03049*
X03606Y03046*
X03606Y03044*
X03608Y03041*
X03609Y03039*
X0361Y03036*
X03612Y03034*
X03613Y03032*
X03615Y0303*
X03617Y03028*
X03619Y03026*
X03621Y03024*
X03624Y03023*
X03626Y03022*
X03629Y0302*
X03631Y0302*
X03634Y03019*
X03637Y03018*
X03639Y03018*
X03642Y03018*
X03645*
X03648Y03018*
X0365Y03018*
X03653Y03019*
X03656Y0302*
X03658Y0302*
X03661Y03022*
X03663Y03023*
X03666Y03024*
X03668Y03026*
X0367Y03028*
X03672Y0303*
X03674Y03032*
X03675Y03034*
X03677Y03036*
X03678Y03039*
X03679Y03041*
X03681Y03044*
X03681Y03046*
X03682Y03049*
X03683Y03052*
X03683Y03054*
X03683Y03057*
X03796D02*
D01*
X03796Y0306*
X03796Y03062*
X03795Y03065*
X03794Y03068*
X03794Y0307*
X03792Y03073*
X03791Y03075*
X0379Y03078*
X03788Y0308*
X03787Y03082*
X03785Y03084*
X03783Y03086*
X03781Y03088*
X03779Y0309*
X03776Y03091*
X03774Y03092*
X03771Y03094*
X03769Y03094*
X03766Y03095*
X03763Y03096*
X03761Y03096*
X03758Y03096*
X03755*
X03752Y03096*
X0375Y03096*
X03747Y03095*
X03744Y03094*
X03742Y03094*
X03739Y03092*
X03737Y03091*
X03734Y0309*
X03732Y03088*
X0373Y03086*
X03728Y03084*
X03726Y03082*
X03725Y0308*
X03723Y03078*
X03722Y03075*
X03721Y03073*
X03719Y0307*
X03719Y03068*
X03718Y03065*
X03717Y03062*
X03717Y0306*
X03717Y03057*
X03717Y03054*
X03717Y03052*
X03718Y03049*
X03719Y03046*
X03719Y03044*
X03721Y03041*
X03722Y03039*
X03723Y03036*
X03725Y03034*
X03726Y03032*
X03728Y0303*
X0373Y03028*
X03732Y03026*
X03734Y03024*
X03737Y03023*
X03739Y03022*
X03742Y0302*
X03744Y0302*
X03747Y03019*
X0375Y03018*
X03752Y03018*
X03755Y03018*
X03758*
X03761Y03018*
X03763Y03018*
X03766Y03019*
X03769Y0302*
X03771Y0302*
X03774Y03022*
X03776Y03023*
X03779Y03024*
X03781Y03026*
X03783Y03028*
X03785Y0303*
X03787Y03032*
X03788Y03034*
X0379Y03036*
X03791Y03039*
X03792Y03041*
X03794Y03044*
X03794Y03046*
X03795Y03049*
X03796Y03052*
X03796Y03054*
X03796Y03057*
X04032D02*
D01*
X04032Y0306*
X04032Y03062*
X04031Y03065*
X0403Y03068*
X0403Y0307*
X04028Y03073*
X04027Y03075*
X04026Y03078*
X04024Y0308*
X04023Y03082*
X04021Y03084*
X04019Y03086*
X04017Y03088*
X04015Y0309*
X04012Y03091*
X0401Y03092*
X04007Y03094*
X04005Y03094*
X04002Y03095*
X03999Y03096*
X03997Y03096*
X03994Y03096*
X03991*
X03988Y03096*
X03986Y03096*
X03983Y03095*
X0398Y03094*
X03978Y03094*
X03975Y03092*
X03973Y03091*
X0397Y0309*
X03968Y03088*
X03966Y03086*
X03964Y03084*
X03962Y03082*
X03961Y0308*
X03959Y03078*
X03958Y03075*
X03957Y03073*
X03955Y0307*
X03955Y03068*
X03954Y03065*
X03953Y03062*
X03953Y0306*
X03953Y03057*
X03953Y03054*
X03953Y03052*
X03954Y03049*
X03955Y03046*
X03955Y03044*
X03957Y03041*
X03958Y03039*
X03959Y03036*
X03961Y03034*
X03962Y03032*
X03964Y0303*
X03966Y03028*
X03968Y03026*
X0397Y03024*
X03973Y03023*
X03975Y03022*
X03978Y0302*
X0398Y0302*
X03983Y03019*
X03986Y03018*
X03988Y03018*
X03991Y03018*
X03994*
X03997Y03018*
X03999Y03018*
X04002Y03019*
X04005Y0302*
X04007Y0302*
X0401Y03022*
X04012Y03023*
X04015Y03024*
X04017Y03026*
X04019Y03028*
X04021Y0303*
X04023Y03032*
X04024Y03034*
X04026Y03036*
X04027Y03039*
X04028Y03041*
X0403Y03044*
X0403Y03046*
X04031Y03049*
X04032Y03052*
X04032Y03054*
X04032Y03057*
X04384D02*
D01*
X04384Y0306*
X04384Y03062*
X04383Y03065*
X04382Y03068*
X04382Y0307*
X0438Y03073*
X04379Y03075*
X04378Y03078*
X04376Y0308*
X04375Y03082*
X04373Y03084*
X04371Y03086*
X04369Y03088*
X04367Y0309*
X04364Y03091*
X04362Y03092*
X04359Y03094*
X04357Y03094*
X04354Y03095*
X04351Y03096*
X04349Y03096*
X04346Y03096*
X04343*
X0434Y03096*
X04338Y03096*
X04335Y03095*
X04332Y03094*
X0433Y03094*
X04327Y03092*
X04325Y03091*
X04322Y0309*
X0432Y03088*
X04318Y03086*
X04316Y03084*
X04314Y03082*
X04313Y0308*
X04311Y03078*
X0431Y03075*
X04309Y03073*
X04307Y0307*
X04307Y03068*
X04306Y03065*
X04305Y03062*
X04305Y0306*
X04305Y03057*
X04305Y03054*
X04305Y03052*
X04306Y03049*
X04307Y03046*
X04307Y03044*
X04309Y03041*
X0431Y03039*
X04311Y03036*
X04313Y03034*
X04314Y03032*
X04316Y0303*
X04318Y03028*
X0432Y03026*
X04322Y03024*
X04325Y03023*
X04327Y03022*
X0433Y0302*
X04332Y0302*
X04335Y03019*
X04338Y03018*
X0434Y03018*
X04343Y03018*
X04346*
X04349Y03018*
X04351Y03018*
X04354Y03019*
X04357Y0302*
X04359Y0302*
X04362Y03022*
X04364Y03023*
X04367Y03024*
X04369Y03026*
X04371Y03028*
X04373Y0303*
X04375Y03032*
X04376Y03034*
X04378Y03036*
X04379Y03039*
X0438Y03041*
X04382Y03044*
X04382Y03046*
X04383Y03049*
X04384Y03052*
X04384Y03054*
X04384Y03057*
X04148D02*
D01*
X04148Y0306*
X04148Y03062*
X04147Y03065*
X04146Y03068*
X04146Y0307*
X04144Y03073*
X04143Y03075*
X04142Y03078*
X0414Y0308*
X04139Y03082*
X04137Y03084*
X04135Y03086*
X04133Y03088*
X04131Y0309*
X04128Y03091*
X04126Y03092*
X04123Y03094*
X04121Y03094*
X04118Y03095*
X04115Y03096*
X04113Y03096*
X0411Y03096*
X04107*
X04104Y03096*
X04102Y03096*
X04099Y03095*
X04096Y03094*
X04094Y03094*
X04091Y03092*
X04089Y03091*
X04086Y0309*
X04084Y03088*
X04082Y03086*
X0408Y03084*
X04078Y03082*
X04077Y0308*
X04075Y03078*
X04074Y03075*
X04073Y03073*
X04071Y0307*
X04071Y03068*
X0407Y03065*
X04069Y03062*
X04069Y0306*
X04069Y03057*
X04069Y03054*
X04069Y03052*
X0407Y03049*
X04071Y03046*
X04071Y03044*
X04073Y03041*
X04074Y03039*
X04075Y03036*
X04077Y03034*
X04078Y03032*
X0408Y0303*
X04082Y03028*
X04084Y03026*
X04086Y03024*
X04089Y03023*
X04091Y03022*
X04094Y0302*
X04096Y0302*
X04099Y03019*
X04102Y03018*
X04104Y03018*
X04107Y03018*
X0411*
X04113Y03018*
X04115Y03018*
X04118Y03019*
X04121Y0302*
X04123Y0302*
X04126Y03022*
X04128Y03023*
X04131Y03024*
X04133Y03026*
X04135Y03028*
X04137Y0303*
X04139Y03032*
X0414Y03034*
X04142Y03036*
X04143Y03039*
X04144Y03041*
X04146Y03044*
X04146Y03046*
X04147Y03049*
X04148Y03052*
X04148Y03054*
X04148Y03057*
X04268D02*
D01*
X04268Y0306*
X04268Y03062*
X04267Y03065*
X04266Y03068*
X04266Y0307*
X04264Y03073*
X04263Y03075*
X04262Y03078*
X0426Y0308*
X04259Y03082*
X04257Y03084*
X04255Y03086*
X04253Y03088*
X04251Y0309*
X04248Y03091*
X04246Y03092*
X04243Y03094*
X04241Y03094*
X04238Y03095*
X04235Y03096*
X04233Y03096*
X0423Y03096*
X04227*
X04224Y03096*
X04222Y03096*
X04219Y03095*
X04216Y03094*
X04214Y03094*
X04211Y03092*
X04209Y03091*
X04206Y0309*
X04204Y03088*
X04202Y03086*
X042Y03084*
X04198Y03082*
X04197Y0308*
X04195Y03078*
X04194Y03075*
X04193Y03073*
X04191Y0307*
X04191Y03068*
X0419Y03065*
X04189Y03062*
X04189Y0306*
X04189Y03057*
X04189Y03054*
X04189Y03052*
X0419Y03049*
X04191Y03046*
X04191Y03044*
X04193Y03041*
X04194Y03039*
X04195Y03036*
X04197Y03034*
X04198Y03032*
X042Y0303*
X04202Y03028*
X04204Y03026*
X04206Y03024*
X04209Y03023*
X04211Y03022*
X04214Y0302*
X04216Y0302*
X04219Y03019*
X04222Y03018*
X04224Y03018*
X04227Y03018*
X0423*
X04233Y03018*
X04235Y03018*
X04238Y03019*
X04241Y0302*
X04243Y0302*
X04246Y03022*
X04248Y03023*
X04251Y03024*
X04253Y03026*
X04255Y03028*
X04257Y0303*
X04259Y03032*
X0426Y03034*
X04262Y03036*
X04263Y03039*
X04264Y03041*
X04266Y03044*
X04266Y03046*
X04267Y03049*
X04268Y03052*
X04268Y03054*
X04268Y03057*
X03567D02*
D01*
X03567Y0306*
X03567Y03062*
X03566Y03065*
X03565Y03068*
X03565Y0307*
X03563Y03073*
X03562Y03075*
X03561Y03078*
X03559Y0308*
X03558Y03082*
X03556Y03084*
X03554Y03086*
X03552Y03088*
X0355Y0309*
X03547Y03091*
X03545Y03092*
X03542Y03094*
X0354Y03094*
X03537Y03095*
X03534Y03096*
X03532Y03096*
X03529Y03096*
X03526*
X03523Y03096*
X03521Y03096*
X03518Y03095*
X03515Y03094*
X03513Y03094*
X0351Y03092*
X03508Y03091*
X03505Y0309*
X03503Y03088*
X03501Y03086*
X03499Y03084*
X03497Y03082*
X03496Y0308*
X03494Y03078*
X03493Y03075*
X03492Y03073*
X0349Y0307*
X0349Y03068*
X03489Y03065*
X03488Y03062*
X03488Y0306*
X03488Y03057*
X03488Y03054*
X03488Y03052*
X03489Y03049*
X0349Y03046*
X0349Y03044*
X03492Y03041*
X03493Y03039*
X03494Y03036*
X03496Y03034*
X03497Y03032*
X03499Y0303*
X03501Y03028*
X03503Y03026*
X03505Y03024*
X03508Y03023*
X0351Y03022*
X03513Y0302*
X03515Y0302*
X03518Y03019*
X03521Y03018*
X03523Y03018*
X03526Y03018*
X03529*
X03532Y03018*
X03534Y03018*
X03537Y03019*
X0354Y0302*
X03542Y0302*
X03545Y03022*
X03547Y03023*
X0355Y03024*
X03552Y03026*
X03554Y03028*
X03556Y0303*
X03558Y03032*
X03559Y03034*
X03561Y03036*
X03562Y03039*
X03563Y03041*
X03565Y03044*
X03565Y03046*
X03566Y03049*
X03567Y03052*
X03567Y03054*
X03567Y03057*
X03398Y0355D02*
Y03593D01*
X02342Y03501D02*
X02386D01*
X04359Y03566D02*
X04672D01*
X04359Y03162D02*
Y03566D01*
X04537Y03433D02*
X04672D01*
X04537Y03298D02*
Y03433D01*
Y03298D02*
X04672D01*
X04672Y03162D02*
Y03566D01*
X04359Y03162D02*
X04672D01*
X02798Y03433D02*
X02842D01*
G54D92*
X02581Y03588D02*
D01*
X02581Y03589*
X02581Y03589*
X02581Y03589*
X02581Y0359*
X0258Y0359*
X0258Y0359*
X0258Y03591*
X0258Y03591*
X0258Y03591*
X0258Y03592*
X02579Y03592*
X02579Y03592*
X02579Y03592*
X02579Y03592*
X02578Y03593*
X02578Y03593*
X02578Y03593*
X02577Y03593*
X02577Y03593*
X02577Y03593*
X02576Y03593*
X02576Y03593*
X02576*
X02575Y03593*
X02575Y03593*
X02575Y03593*
X02574Y03593*
X02574Y03593*
X02574Y03593*
X02573Y03593*
X02573Y03592*
X02573Y03592*
X02573Y03592*
X02572Y03592*
X02572Y03592*
X02572Y03591*
X02572Y03591*
X02571Y03591*
X02571Y0359*
X02571Y0359*
X02571Y0359*
X02571Y03589*
X02571Y03589*
X02571Y03589*
X02571Y03588*
X02571Y03588*
X02571Y03588*
X02571Y03587*
X02571Y03587*
X02571Y03587*
X02571Y03586*
X02571Y03586*
X02572Y03586*
X02572Y03586*
X02572Y03585*
X02572Y03585*
X02573Y03585*
X02573Y03585*
X02573Y03584*
X02573Y03584*
X02574Y03584*
X02574Y03584*
X02574Y03584*
X02575Y03584*
X02575Y03584*
X02575Y03584*
X02576Y03584*
X02576*
X02576Y03584*
X02577Y03584*
X02577Y03584*
X02577Y03584*
X02578Y03584*
X02578Y03584*
X02578Y03584*
X02579Y03584*
X02579Y03585*
X02579Y03585*
X02579Y03585*
X0258Y03585*
X0258Y03586*
X0258Y03586*
X0258Y03586*
X0258Y03586*
X0258Y03587*
X02581Y03587*
X02581Y03587*
X02581Y03588*
X02581Y03588*
X02581Y03588*
X02312Y03491D02*
D01*
X02312Y03491*
X02312Y03492*
X02312Y03492*
X02312Y03492*
X02312Y03492*
X02312Y03493*
X02312Y03493*
X02312Y03493*
X02312Y03493*
X02311Y03494*
X02311Y03494*
X02311Y03494*
X02311Y03494*
X02311Y03494*
X0231Y03494*
X0231Y03495*
X0231Y03495*
X0231Y03495*
X02309Y03495*
X02309Y03495*
X02309Y03495*
X02309Y03495*
X02308*
X02308Y03495*
X02308Y03495*
X02308Y03495*
X02307Y03495*
X02307Y03495*
X02307Y03495*
X02307Y03494*
X02306Y03494*
X02306Y03494*
X02306Y03494*
X02306Y03494*
X02306Y03494*
X02305Y03493*
X02305Y03493*
X02305Y03493*
X02305Y03493*
X02305Y03492*
X02305Y03492*
X02305Y03492*
X02305Y03492*
X02305Y03491*
X02305Y03491*
X02305Y03491*
X02305Y03491*
X02305Y0349*
X02305Y0349*
X02305Y0349*
X02305Y0349*
X02305Y03489*
X02305Y03489*
X02305Y03489*
X02306Y03489*
X02306Y03488*
X02306Y03488*
X02306Y03488*
X02306Y03488*
X02307Y03488*
X02307Y03488*
X02307Y03487*
X02307Y03487*
X02308Y03487*
X02308Y03487*
X02308Y03487*
X02308Y03487*
X02309*
X02309Y03487*
X02309Y03487*
X02309Y03487*
X0231Y03487*
X0231Y03487*
X0231Y03488*
X0231Y03488*
X02311Y03488*
X02311Y03488*
X02311Y03488*
X02311Y03488*
X02311Y03489*
X02312Y03489*
X02312Y03489*
X02312Y03489*
X02312Y0349*
X02312Y0349*
X02312Y0349*
X02312Y0349*
X02312Y03491*
X02312Y03491*
X02312Y03491*
X02897Y03237D02*
D01*
X02897Y03237*
X02897Y03237*
X02897Y03238*
X02897Y03238*
X02897Y03238*
X02897Y03239*
X02897Y03239*
X02896Y03239*
X02896Y0324*
X02896Y0324*
X02896Y0324*
X02896Y0324*
X02895Y03241*
X02895Y03241*
X02895Y03241*
X02894Y03241*
X02894Y03241*
X02894Y03241*
X02893Y03242*
X02893Y03242*
X02893Y03242*
X02892Y03242*
X02892*
X02892Y03242*
X02891Y03242*
X02891Y03242*
X02891Y03241*
X0289Y03241*
X0289Y03241*
X0289Y03241*
X0289Y03241*
X02889Y03241*
X02889Y0324*
X02889Y0324*
X02889Y0324*
X02888Y0324*
X02888Y03239*
X02888Y03239*
X02888Y03239*
X02888Y03238*
X02888Y03238*
X02888Y03238*
X02887Y03237*
X02887Y03237*
X02887Y03237*
X02887Y03236*
X02887Y03236*
X02888Y03236*
X02888Y03235*
X02888Y03235*
X02888Y03235*
X02888Y03234*
X02888Y03234*
X02888Y03234*
X02889Y03234*
X02889Y03233*
X02889Y03233*
X02889Y03233*
X0289Y03233*
X0289Y03233*
X0289Y03232*
X0289Y03232*
X02891Y03232*
X02891Y03232*
X02891Y03232*
X02892Y03232*
X02892Y03232*
X02892*
X02893Y03232*
X02893Y03232*
X02893Y03232*
X02894Y03232*
X02894Y03232*
X02894Y03232*
X02895Y03233*
X02895Y03233*
X02895Y03233*
X02896Y03233*
X02896Y03233*
X02896Y03234*
X02896Y03234*
X02896Y03234*
X02897Y03234*
X02897Y03235*
X02897Y03235*
X02897Y03235*
X02897Y03236*
X02897Y03236*
X02897Y03236*
X02897Y03237*
X04468Y03483D02*
D01*
X04468Y03483*
X04468Y03483*
X04468Y03484*
X04468Y03484*
X04468Y03484*
X04468Y03484*
X04468Y03485*
X04468Y03485*
X04467Y03485*
X04467Y03486*
X04467Y03486*
X04467Y03486*
X04467Y03486*
X04466Y03487*
X04466Y03487*
X04466Y03487*
X04465Y03487*
X04465Y03487*
X04465Y03487*
X04464Y03487*
X04464Y03487*
X04464Y03487*
X04463*
X04463Y03487*
X04463Y03487*
X04462Y03487*
X04462Y03487*
X04462Y03487*
X04461Y03487*
X04461Y03487*
X04461Y03487*
X0446Y03486*
X0446Y03486*
X0446Y03486*
X0446Y03486*
X0446Y03485*
X04459Y03485*
X04459Y03485*
X04459Y03484*
X04459Y03484*
X04459Y03484*
X04459Y03484*
X04459Y03483*
X04459Y03483*
X04459Y03483*
X04459Y03482*
X04459Y03482*
X04459Y03481*
X04459Y03481*
X04459Y03481*
X04459Y03481*
X04459Y0348*
X04459Y0348*
X0446Y0348*
X0446Y03479*
X0446Y03479*
X0446Y03479*
X0446Y03479*
X04461Y03478*
X04461Y03478*
X04461Y03478*
X04462Y03478*
X04462Y03478*
X04462Y03478*
X04463Y03478*
X04463Y03478*
X04463Y03478*
X04464*
X04464Y03478*
X04464Y03478*
X04465Y03478*
X04465Y03478*
X04465Y03478*
X04466Y03478*
X04466Y03478*
X04466Y03478*
X04467Y03479*
X04467Y03479*
X04467Y03479*
X04467Y03479*
X04467Y0348*
X04468Y0348*
X04468Y0348*
X04468Y03481*
X04468Y03481*
X04468Y03481*
X04468Y03481*
X04468Y03482*
X04468Y03482*
X04468Y03483*
G54D93*
X03336Y03362D02*
D01*
X03336Y03363*
X03335Y03365*
X03335Y03366*
X03335Y03368*
X03334Y03369*
X03334Y03371*
X03333Y03372*
X03332Y03373*
X03332Y03374*
X03331Y03376*
X0333Y03377*
X03329Y03378*
X03327Y03379*
X03326Y03379*
X03325Y0338*
X03324Y03381*
X03322Y03382*
X03321Y03382*
X0332Y03382*
X03318Y03383*
X03317Y03383*
X03315Y03383*
X03314*
X03312Y03383*
X03311Y03383*
X03309Y03382*
X03308Y03382*
X03306Y03382*
X03305Y03381*
X03304Y0338*
X03303Y03379*
X03301Y03379*
X033Y03378*
X03299Y03377*
X03298Y03376*
X03297Y03374*
X03296Y03373*
X03296Y03372*
X03295Y03371*
X03294Y03369*
X03294Y03368*
X03294Y03366*
X03293Y03365*
X03293Y03363*
X03293Y03362*
X03293Y0336*
X03293Y03359*
X03294Y03357*
X03294Y03356*
X03294Y03355*
X03295Y03353*
X03296Y03352*
X03296Y03351*
X03297Y03349*
X03298Y03348*
X03299Y03347*
X033Y03346*
X03301Y03345*
X03303Y03344*
X03304Y03344*
X03305Y03343*
X03306Y03342*
X03308Y03342*
X03309Y03341*
X03311Y03341*
X03312Y03341*
X03314Y03341*
X03315*
X03317Y03341*
X03318Y03341*
X0332Y03341*
X03321Y03342*
X03322Y03342*
X03324Y03343*
X03325Y03344*
X03326Y03344*
X03327Y03345*
X03329Y03346*
X0333Y03347*
X03331Y03348*
X03332Y03349*
X03332Y03351*
X03333Y03352*
X03334Y03353*
X03334Y03355*
X03335Y03356*
X03335Y03357*
X03335Y03359*
X03336Y0336*
X03336Y03362*
X03691Y03206D02*
X03801D01*
X03691Y03124D02*
X03801D01*
Y03206*
X03691Y03124D02*
Y03206D01*
X0416Y03218D02*
X04226D01*
X0416Y03144D02*
Y03218D01*
Y03144D02*
X04227D01*
Y03218D01*
X03409Y03541D02*
X03539D01*
X0341Y03602D02*
X0354D01*
X03468Y03204D02*
X03578D01*
X03468Y03122D02*
X03578D01*
Y03204*
X03468Y03122D02*
Y03204D01*
X03232Y03545D02*
Y03574D01*
Y03545D02*
X03275D01*
Y03574*
X03232D02*
X03275D01*
X03132Y03579D02*
Y03608D01*
Y03579D02*
X03175D01*
Y03608*
X03132D02*
X03175D01*
X0305Y03511D02*
Y03577D01*
Y03511D02*
X03124D01*
Y03578*
X0305D02*
X03124D01*
X03042Y03577D02*
Y03606D01*
X02999D02*
X03042D01*
X02999Y03577D02*
Y03606D01*
Y03577D02*
X03042D01*
X03275Y0358D02*
Y03609D01*
X03232D02*
X03275D01*
X03232Y0358D02*
Y03609D01*
Y0358D02*
X03275D01*
X02395Y03512D02*
Y03642D01*
X02334Y03513D02*
Y03643D01*
X02201Y03671D02*
X0223D01*
X02201Y03628D02*
Y03671D01*
Y03628D02*
X0223D01*
Y03671*
X03314Y03345D02*
Y03378D01*
X03298Y03361D02*
X03331D01*
X03989Y03552D02*
Y03581D01*
X03946D02*
X03989D01*
X03946Y03552D02*
Y03581D01*
Y03552D02*
X03989D01*
X02528Y03024D02*
Y03118D01*
X02479D02*
X02528D01*
X02479Y03024D02*
X02528D01*
X02479D02*
Y03118D01*
X03946Y03586D02*
Y03615D01*
Y03586D02*
X03989D01*
Y03615*
X03946D02*
X03989D01*
X03225Y03144D02*
Y0321D01*
Y03144D02*
X03299D01*
Y03211*
X03225D02*
X03299D01*
X02832Y0302D02*
Y03049D01*
X02789D02*
X02832D01*
X02789Y0302D02*
Y03049D01*
Y0302D02*
X02832D01*
X03275Y0351D02*
Y03539D01*
X03232D02*
X03275D01*
X03232Y0351D02*
Y03539D01*
Y0351D02*
X03275D01*
X03091Y03476D02*
Y03505D01*
X03048D02*
X03091D01*
X03048Y03476D02*
Y03505D01*
Y03476D02*
X03091D01*
X02477Y03474D02*
Y03503D01*
Y03474D02*
X0252D01*
Y03503*
X02477D02*
X0252D01*
X02477Y03509D02*
Y03538D01*
Y03509D02*
X0252D01*
Y03538*
X02477D02*
X0252D01*
X02477Y03543D02*
X0252D01*
X02477D02*
Y03572D01*
X0252*
Y03543D02*
Y03572D01*
X02727Y03452D02*
X0277D01*
Y03423D02*
Y03452D01*
X02727Y03423D02*
X0277D01*
X02727D02*
Y03452D01*
X02851Y03444D02*
Y03574D01*
X0279Y03445D02*
Y03575D01*
X027Y03391D02*
Y0342D01*
X02657D02*
X027D01*
X02657Y03391D02*
Y0342D01*
Y03391D02*
X027D01*
X02639Y03351D02*
Y03423D01*
X02521Y03423D02*
X02639D01*
X02521Y03423D02*
X02521Y03423D01*
X02521Y03351D02*
Y03423D01*
Y03351D02*
X02639D01*
G54D94*
X02111Y03226D02*
X0219D01*
X02111Y03521D02*
X0219D01*
X01996D02*
X02039D01*
X01996Y03226D02*
X02039D01*
G54D95*
X0369Y0354D02*
X03695D01*
X03687Y03541D02*
X03699D01*
X03685Y03542D02*
X03701D01*
X03683Y03543D02*
X03702D01*
X03682Y03544D02*
X03703D01*
X03681Y03545D02*
X03704D01*
X03681Y03546D02*
X03705D01*
X0368Y03547D02*
X03706D01*
X03679Y03548D02*
X03706D01*
X03679Y03549D02*
X03707D01*
X03679Y0355D02*
X03707D01*
X03678Y03551D02*
X03707D01*
X03678Y03552D02*
X03707D01*
X03678Y03553D02*
X03708D01*
X03678Y03554D02*
X03708D01*
X03677Y03555D02*
X03709D01*
X03674Y03556D02*
X03712D01*
X03672Y03557D02*
X03714D01*
X0367Y03558D02*
X03716D01*
X03668Y03559D02*
X03718D01*
X03709Y0356D02*
X03719D01*
X03679D02*
X03707D01*
X03711Y03561D02*
X03721D01*
X03679D02*
X03706D01*
X03713Y03562D02*
X03722D01*
X0368D02*
X03706D01*
X03715Y03563D02*
X03724D01*
X0368D02*
X03705D01*
X03717Y03564D02*
X03725D01*
X03681D02*
X03704D01*
X03718Y03565D02*
X03726D01*
X03682D02*
X03703D01*
X0372Y03566D02*
X03727D01*
X03683D02*
X03702D01*
X03721Y03567D02*
X03728D01*
X03685D02*
X03701D01*
X03722Y03568D02*
X03729D01*
X03686D02*
X03699D01*
X03723Y03569D02*
X0373D01*
X03689D02*
X03697D01*
X03724Y0357D02*
X03731D01*
X03725Y03571D02*
X03732D01*
X03726Y03572D02*
X03732D01*
X03653D02*
X03659D01*
X03727Y03573D02*
X03733D01*
X03652D02*
X03658D01*
X03728Y03574D02*
X03734D01*
X03652D02*
X03657D01*
X03729Y03575D02*
X03735D01*
X03651D02*
X03656D01*
X0373Y03576D02*
X03735D01*
X0365D02*
X03656D01*
X0373Y03577D02*
X03736D01*
X0365D02*
X03655D01*
X03731Y03578D02*
X03736D01*
X03649D02*
X03654D01*
X03732Y03579D02*
X03737D01*
X03648D02*
X03653D01*
X03732Y0358D02*
X03737D01*
X03648D02*
X03653D01*
X03733Y03581D02*
X03738D01*
X03647D02*
X03652D01*
X03733Y03582D02*
X03738D01*
X03647D02*
X03652D01*
X03734Y03583D02*
X03739D01*
X03646D02*
X03651D01*
X03734Y03584D02*
X03739D01*
X03646D02*
X03651D01*
X03734Y03585D02*
X0374D01*
X03646D02*
X03651D01*
X03735Y03586D02*
X0374D01*
X03645D02*
X0365D01*
X03735Y03587D02*
X03741D01*
X03644D02*
X0365D01*
X03735Y03588D02*
X03745D01*
X0364D02*
X03651D01*
X03733Y03589D02*
X03748D01*
X03638D02*
X03653D01*
X03731Y0359D02*
X03749D01*
X03636D02*
X03654D01*
X0373Y03591D02*
X0375D01*
X03635D02*
X03655D01*
X03729Y03592D02*
X03751D01*
X03634D02*
X03656D01*
X03728Y03593D02*
X03752D01*
X03633D02*
X03657D01*
X03728Y03594D02*
X03753D01*
X03633D02*
X03658D01*
X03727Y03595D02*
X03753D01*
X03632D02*
X03659D01*
X03726Y03596D02*
X03754D01*
X03632D02*
X03659D01*
X03726Y03597D02*
X03754D01*
X03631D02*
X03659D01*
X03726Y03598D02*
X03755D01*
X03631D02*
X0366D01*
X03726Y03599D02*
X03755D01*
X03631D02*
X0366D01*
X03725Y036D02*
X03755D01*
X03631D02*
X0366D01*
X03725Y03601D02*
X03755D01*
X0363D02*
X0366D01*
X03725Y03602D02*
X03755D01*
X0363D02*
X0366D01*
X03725Y03603D02*
X03755D01*
X0363D02*
X0366D01*
X03725Y03604D02*
X03755D01*
X03631D02*
X0366D01*
X03726Y03605D02*
X03755D01*
X03631D02*
X0366D01*
X03726Y03606D02*
X03754D01*
X03631D02*
X0366D01*
X03726Y03607D02*
X03754D01*
X03631D02*
X03659D01*
X03727Y03608D02*
X03754D01*
X03632D02*
X03659D01*
X03727Y03609D02*
X03753D01*
X03632D02*
X03658D01*
X03728Y0361D02*
X03753D01*
X03633D02*
X03658D01*
X03728Y03611D02*
X03752D01*
X03634D02*
X03657D01*
X03729Y03612D02*
X03751D01*
X03634D02*
X03656D01*
X0373Y03613D02*
X0375D01*
X03635D02*
X03655D01*
X03732Y03614D02*
X03749D01*
X03637D02*
X03654D01*
X03733Y03615D02*
X03747D01*
X03638D02*
X03652D01*
X03735Y03616D02*
X03745D01*
X03641D02*
X0365D01*
X03735Y03617D02*
X0374D01*
X03645D02*
X0365D01*
X03735Y03618D02*
X0374D01*
X03646D02*
X0365D01*
X03734Y03619D02*
X03739D01*
X03646D02*
X03651D01*
X03734Y0362D02*
X03739D01*
X03646D02*
X03651D01*
X03734Y03621D02*
X03739D01*
X03647D02*
X03652D01*
X03733Y03622D02*
X03738D01*
X03647D02*
X03652D01*
X03732Y03623D02*
X03738D01*
X03647D02*
X03653D01*
X03732Y03624D02*
X03737D01*
X03648D02*
X03653D01*
X03731Y03625D02*
X03737D01*
X03649D02*
X03654D01*
X03731Y03626D02*
X03736D01*
X03649D02*
X03654D01*
X0373Y03627D02*
X03736D01*
X0365D02*
X03655D01*
X03729Y03628D02*
X03735D01*
X0365D02*
X03656D01*
X03729Y03629D02*
X03734D01*
X03651D02*
X03656D01*
X03728Y0363D02*
X03734D01*
X03651D02*
X03657D01*
X03727Y03631D02*
X03733D01*
X03652D02*
X03658D01*
X03726Y03632D02*
X03732D01*
X03653D02*
X03659D01*
X03725Y03633D02*
X03731D01*
X03654D02*
X0366D01*
X03724Y03634D02*
X03731D01*
X03655D02*
X03661D01*
X03723Y03635D02*
X0373D01*
X03688D02*
X03698D01*
X03656D02*
X03662D01*
X03722Y03636D02*
X03729D01*
X03686D02*
X037D01*
X03657D02*
X03663D01*
X03721Y03637D02*
X03728D01*
X03684D02*
X03701D01*
X03658D02*
X03664D01*
X03719Y03638D02*
X03727D01*
X03683D02*
X03703D01*
X03659D02*
X03665D01*
X03718Y03639D02*
X03726D01*
X03682D02*
X03704D01*
X0366D02*
X03667D01*
X03716Y0364D02*
X03724D01*
X03681D02*
X03704D01*
X03661D02*
X03669D01*
X03715Y03641D02*
X03723D01*
X0368D02*
X03705D01*
X03662D02*
X03671D01*
X03713Y03642D02*
X03722D01*
X0368D02*
X03706D01*
X03664D02*
X03673D01*
X03711Y03643D02*
X0372D01*
X03679D02*
X03706D01*
X03665D02*
X03675D01*
X03708Y03644D02*
X03719D01*
X03679D02*
X03707D01*
X03667D02*
X03677D01*
X03668Y03645D02*
X03717D01*
X0367Y03646D02*
X03715D01*
X03672Y03647D02*
X03713D01*
X03675Y03648D02*
X03711D01*
X03677Y03649D02*
X03708D01*
X03678Y0365D02*
X03708D01*
X03678Y03651D02*
X03708D01*
X03678Y03652D02*
X03707D01*
X03678Y03653D02*
X03707D01*
X03679Y03654D02*
X03707D01*
X03679Y03655D02*
X03706D01*
X0368Y03656D02*
X03706D01*
X0368Y03657D02*
X03705D01*
X03681Y03658D02*
X03705D01*
X03682Y03659D02*
X03704D01*
X03683Y0366D02*
X03703D01*
X03684Y03661D02*
X03702D01*
X03685Y03662D02*
X037D01*
X03688Y03663D02*
X03698D01*
X03666Y0356D02*
X03677D01*
X03665Y03561D02*
X03674D01*
X03663Y03562D02*
X03672D01*
X03662Y03563D02*
X0367D01*
X03661Y03564D02*
X03669D01*
X0366Y03565D02*
X03667D01*
X03658Y03566D02*
X03666D01*
X03657Y03567D02*
X03664D01*
X03656Y03568D02*
X03663D01*
X03656Y03569D02*
X03662D01*
X03655Y0357D02*
X03661D01*
X03654Y03571D02*
X0366D01*
G54D96*
X04063Y03572D02*
X041D01*
X04062Y03571D02*
X04063Y03572D01*
X04062Y03495D02*
X041D01*
X04062D02*
Y03571D01*
X04197Y03495D02*
Y03571D01*
X0416Y03495D02*
X04197D01*
X04196Y03572D02*
X04197Y03571D01*
X0416Y03572D02*
X04196D01*
X04063Y03664D02*
X041D01*
X04062Y03663D02*
X04063Y03664D01*
X04062Y03588D02*
X041D01*
X04062D02*
Y03663D01*
X04197Y03588D02*
Y03663D01*
X0416Y03588D02*
X04197D01*
X04196Y03664D02*
X04197Y03663D01*
X0416Y03664D02*
X04196D01*
G54D97*
X02003Y03373D03*
M02*