%FSTAX23Y23*%
%MOIN*%
%SFA1B1*%

%IPPOS*%
%AMD32*
4,1,4,0.009000,0.003500,0.003500,0.009000,-0.009000,-0.003500,-0.003500,-0.009000,0.009000,0.003500,0.0*
1,1,0.007900,0.006200,0.006200*
1,1,0.007900,-0.006200,-0.006200*
%
%AMD33*
4,1,4,0.003500,-0.009000,0.009000,-0.003500,-0.003500,0.009000,-0.009000,0.003500,0.003500,-0.009000,0.0*
1,1,0.007900,0.006200,-0.006200*
1,1,0.007900,-0.006200,0.006200*
%
%AMD34*
4,1,4,0.130800,0.000000,0.000000,0.130800,-0.130800,0.000000,0.000000,-0.130800,0.130800,0.000000,0.0*
%
%AMD41*
4,1,4,-0.001400,0.008300,-0.008300,0.001400,0.001400,-0.008300,0.008300,-0.001400,-0.001400,0.008300,0.0*
%
%ADD11R,0.035400X0.027600*%
%ADD12R,0.007900X0.015700*%
%ADD13R,0.019700X0.019700*%
%ADD14C,0.039400*%
%ADD15R,0.078700X0.043300*%
%ADD16R,0.031500X0.031500*%
%ADD17R,0.023600X0.019700*%
%ADD18O,0.066900X0.011800*%
%ADD19C,0.007900*%
%ADD20R,0.011000X0.016900*%
%ADD21R,0.015700X0.007900*%
%ADD22R,0.019700X0.019700*%
%ADD23R,0.043300X0.078700*%
%ADD24R,0.031500X0.031500*%
%ADD25R,0.040000X0.030000*%
%ADD26R,0.013800X0.009800*%
%ADD27R,0.016900X0.011000*%
%ADD28R,0.053200X0.015700*%
%ADD29R,0.061000X0.074800*%
%ADD30R,0.055100X0.063000*%
%ADD31R,0.031500X0.063000*%
G04~CAMADD=32~3~0.0~0.0~79.0~256.0~0.0~0.0~0~0.0~0.0~0.0~0.0~0~0.0~0.0~0.0~0.0~0~0.0~0.0~0.0~315.0~202.0~202.0*
%ADD32D32*%
G04~CAMADD=33~3~0.0~0.0~79.0~256.0~0.0~0.0~0~0.0~0.0~0.0~0.0~0~0.0~0.0~0.0~0.0~0~0.0~0.0~0.0~225.0~202.0~202.0*
%ADD33D33*%
G04~CAMADD=34~10~0.0~1850.5~0.0~0.0~0.0~0.0~0~0.0~0.0~0.0~0.0~0~0.0~0.0~0.0~0.0~0~0.0~0.0~0.0~315.0~1850.5~0.0*
%ADD34D34*%
%ADD35R,0.051200X0.059100*%
%ADD36R,0.023600X0.021700*%
%ADD37R,0.108300X0.055100*%
%ADD38R,0.013800X0.013800*%
%ADD39R,0.039400X0.017700*%
%ADD40R,0.009800X0.013800*%
G04~CAMADD=41~9~0.0~0.0~98.0~138.0~0.0~0.0~0~0.0~0.0~0.0~0.0~0~0.0~0.0~0.0~0.0~0~0.0~0.0~0.0~45.0~166.0~165.0*
%ADD41D41*%
%ADD42R,0.011800X0.027600*%
%ADD43R,0.037300X0.039400*%
%ADD44R,0.037200X0.039400*%
%ADD45R,0.031500X0.086600*%
%ADD46R,0.039400X0.031500*%
%ADD55C,0.059100*%
%ADD56C,0.060000*%
%ADD57O,0.063000X0.035400*%
%ADD58C,0.019700*%
%ADD59C,0.078700*%
%ADD60C,0.177200*%
%LNvapeix_mini_pcb-1*%
%LPD*%
G54D11*
X03776Y03185D03*
Y03145D03*
X03716Y03185D03*
Y03145D03*
X03552Y03183D03*
Y03144D03*
X03493Y03183D03*
Y03144D03*
G54D12*
X04216Y03202D03*
X042D03*
X04169Y03159D03*
X04185D03*
G54D13*
X04208Y03171D03*
X04176Y03188D03*
G54D14*
X03369Y03675D03*
X03449D03*
X02443Y03678D03*
X03618Y03214D03*
X03882Y03213D03*
X03981Y03212D03*
X03164Y03676D03*
X03242D03*
X03086D03*
X03009D03*
G54D15*
X03449Y03571D03*
G54D16*
X03523Y03571D03*
G54D17*
X02596Y03592D03*
X02557D03*
G54D18*
X02737Y03482D03*
Y03502D03*
Y03522D03*
Y03541D03*
Y03561D03*
X02576Y03482D03*
Y03502D03*
Y03522D03*
Y03541D03*
Y03561D03*
G54D19*
X03405Y03051D03*
X03432D03*
X03405Y03104D03*
X03432D03*
G54D20*
X03244Y03559D03*
X03264D03*
X03144Y03594D03*
X03164D03*
X03031Y03591D03*
X03011D03*
X03264Y03595D03*
X03244D03*
X03978Y03567D03*
X03958D03*
Y03601D03*
X03978D03*
X02821Y03035D03*
X02801D03*
X03264Y03525D03*
X03244D03*
X0308Y03491D03*
X0306D03*
X02489Y03489D03*
X02509D03*
X02489Y03524D03*
X02509D03*
X02489Y03558D03*
X02509D03*
X02759Y03438D03*
X02739D03*
X02689Y03406D03*
X02669D03*
G54D21*
X03065Y03567D03*
Y03551D03*
X03108Y0352D03*
Y03536D03*
X0324Y032D03*
Y03184D03*
X03283Y03153D03*
Y03169D03*
G54D22*
X03096Y03559D03*
X03079Y03527D03*
X03271Y03192D03*
X03254Y0316D03*
G54D23*
X02365Y03552D03*
X02821Y03484D03*
G54D24*
X02365Y03626D03*
X02821Y03558D03*
G54D25*
X02309Y03527D03*
Y03601D03*
X02226Y03564D03*
G54D26*
X02152Y03613D03*
Y03632D03*
X02188Y03585D03*
Y03604D03*
X02255Y03659D03*
Y0364D03*
X04215Y03576D03*
Y03557D03*
X02444Y0307D03*
Y03051D03*
Y03093D03*
Y03112D03*
X02568Y03032D03*
Y03051D03*
X03922Y03482D03*
Y03501D03*
X04215Y0363D03*
Y0361D03*
X04244Y03577D03*
Y03557D03*
X04245Y0363D03*
Y0361D03*
X03894Y03376D03*
Y03357D03*
X03957Y03358D03*
Y03377D03*
X0251Y03464D03*
Y03445D03*
G54D27*
X02216Y0366D03*
Y0364D03*
G54D28*
X02181Y03373D03*
Y03399D03*
Y03424D03*
Y03348D03*
Y03322D03*
G54D29*
X02075Y0342D03*
Y03326D03*
G54D30*
X02172Y03247D03*
Y03499D03*
G54D31*
X02175Y03069D03*
X02308D03*
G54D32*
X02868Y03213D03*
X02857Y03224D03*
X02846Y03235D03*
X02835Y03246D03*
X02823Y03257D03*
X02812Y03268D03*
X02801Y03279D03*
X0279Y0329D03*
X02779Y03302D03*
X02768Y03313D03*
X02757Y03324D03*
X02746Y03335D03*
X02577Y03167D03*
X02588Y03155D03*
X02599Y03144D03*
X0261Y03133D03*
X02622Y03122D03*
X02633Y03111D03*
X02644Y031D03*
X02655Y03089D03*
X02666Y03078D03*
X02677Y03066D03*
X02688Y03055D03*
X027Y03044D03*
G54D33*
X027Y03335D03*
X02688Y03324D03*
X02677Y03313D03*
X02666Y03302D03*
X02655Y0329D03*
X02644Y03279D03*
X02633Y03268D03*
X02622Y03257D03*
X0261Y03246D03*
X02599Y03235D03*
X02588Y03224D03*
X02577Y03213D03*
X02746Y03044D03*
X02757Y03055D03*
X02768Y03066D03*
X02779Y03078D03*
X0279Y03089D03*
X02801Y031D03*
X02812Y03111D03*
X02823Y03122D03*
X02835Y03133D03*
X02846Y03144D03*
X02857Y03155D03*
X02868Y03167D03*
G54D34*
X02723Y0319D03*
G54D35*
X04096Y03534D03*
X04163D03*
X04096Y03626D03*
X04163D03*
G54D36*
X03363Y03192D03*
X03324D03*
G54D37*
X02932Y03281D03*
Y03438D03*
X03197Y03281D03*
Y03438D03*
X04009Y03287D03*
Y03444D03*
X04274Y03287D03*
Y03444D03*
G54D38*
X02516Y03071D03*
X02491D03*
G54D39*
X02503Y03105D03*
X02504Y03037D03*
G54D40*
X02548Y03071D03*
X02567D03*
X02892Y03197D03*
X02911D03*
X02894Y03128D03*
X02875D03*
X02627Y03031D03*
X02608D03*
X03977Y03646D03*
X03958D03*
X03977Y0354D03*
X03958D03*
X04142Y03687D03*
X04161D03*
X03918Y03677D03*
X03899D03*
X02699Y03595D03*
X02718D03*
G54D41*
X0271Y03353D03*
X02724Y03367D03*
G54D42*
X02542Y03423D03*
X02567D03*
X02618D03*
X02593D03*
Y03351D03*
X02618D03*
X02567D03*
X02542D03*
G54D43*
X02554Y03402D03*
G54D44*
X02605Y03402D03*
G54D45*
X02499Y0321D03*
X02388D03*
G54D46*
X02444Y03147D03*
G54D55*
X03875Y03057D03*
X03644D03*
X03757D03*
X03993D03*
X04345D03*
X04109D03*
X04229D03*
X03528D03*
X04399Y03404D03*
Y03483D03*
Y03325D03*
Y03246D03*
G54D56*
X04326Y03652D03*
Y03573D03*
X03368Y0336D03*
X03525D03*
X02521Y03682D03*
X02621D03*
X02821D03*
X02721D03*
X03081Y0307D03*
X03264Y03072D03*
G54D57*
X02075Y03243D03*
Y03503D03*
G54D58*
X03655Y0341D03*
X03637Y03363D03*
X03657Y03313D03*
X03707Y03291D03*
X03754Y03312D03*
X03775Y03363D03*
X03755Y0341D03*
X03707Y03431D03*
X02369Y03433D03*
X02417Y03412D03*
X02437Y03365D03*
X02416Y03314D03*
X02369Y03293D03*
X02319Y03315D03*
X02299Y03365D03*
X02317Y03412D03*
G54D59*
X0208Y0365D03*
Y0308D03*
X0447Y03078D03*
Y03648D03*
G54D60*
X02368Y03363D03*
X03707Y0336D03*
M02*