%FSTAX23Y23*%
%MOIN*%
%SFA1B1*%

%IPPOS*%
%ADD96R,0.019800X0.023700*%
%ADD97R,0.021700X0.023700*%
%ADD98R,0.029600X0.031600*%
%ADD100R,0.023700X0.019800*%
%ADD107R,0.023700X0.021700*%
%ADD108R,0.078800X0.043400*%
%ADD109R,0.031600X0.031600*%
%ADD116R,0.040100X0.030100*%
%ADD119R,0.011900X0.027600*%
%ADD174O,0.078700X0.059100*%
%ADD175R,0.055200X0.063100*%
%ADD176R,0.061100X0.074900*%
%ADD177R,0.053200X0.015800*%
%ADD178R,0.037300X0.039400*%
%ADD179R,0.037400X0.039400*%
%ADD180R,0.027600X0.011900*%
%ADD181R,0.039400X0.037400*%
%ADD182R,0.039400X0.037300*%
%ADD183R,0.015800X0.008000*%
%ADD184R,0.019800X0.019800*%
%ADD185R,0.059100X0.051300*%
%ADD186O,0.011900X0.067000*%
%ADD187R,0.098500X0.098500*%
%LNvapeix_mini_pcb-1*%
%LPD*%
G54D96*
X02865Y03303D03*
Y03342D03*
X02238Y0316D03*
Y03121D03*
G54D97*
X0294Y03189D03*
Y03228D03*
X0301Y03189D03*
Y03228D03*
X03078D03*
Y03189D03*
X02863Y03472D03*
Y03433D03*
X04143Y03568D03*
Y03608D03*
X04086Y03568D03*
Y03608D03*
X04293Y03476D03*
Y03515D03*
X04248Y03476D03*
Y03516D03*
X04189Y03476D03*
Y03516D03*
X04154Y03319D03*
Y0328D03*
X03472Y03427D03*
Y03466D03*
X03429Y03382D03*
Y03421D03*
G54D98*
X02714Y03225D03*
X02661D03*
X02959Y03544D03*
X02906D03*
G54D100*
X02562Y03225D03*
X02601D03*
G54D107*
X02959Y03594D03*
X0292D03*
X02117Y03168D03*
X02078D03*
X04193Y0343D03*
X04233D03*
X04073Y03366D03*
X04113D03*
X04287Y03235D03*
X04248D03*
X03412Y03651D03*
X03451D03*
X03272Y03652D03*
X03233D03*
X03524Y03452D03*
X03564D03*
Y03408D03*
X03524D03*
X04197Y0316D03*
X04158D03*
X04157Y03206D03*
X04196D03*
X0409Y03115D03*
X04051D03*
G54D108*
X03254Y03571D03*
X02988Y03659D03*
G54D109*
X03179Y03571D03*
X02913Y03659D03*
G54D116*
X02431Y03601D03*
X02348Y03638D03*
Y03563D03*
G54D119*
X04055Y03498D03*
X0408D03*
X04131D03*
X04106D03*
Y03426D03*
X04131D03*
X0408D03*
X04055D03*
X04205Y03377D03*
X04231D03*
X04282D03*
X04256D03*
Y03305D03*
X04282D03*
X04231D03*
X04205D03*
G54D174*
X02096Y03493D03*
Y03233D03*
G54D175*
X02193Y03237D03*
Y03489D03*
G54D176*
X02096Y0341D03*
Y03316D03*
G54D177*
X02202Y03414D03*
Y03389D03*
Y03312D03*
Y03338D03*
Y03363D03*
G54D178*
X04118Y03447D03*
X04269Y03326D03*
G54D179*
X04067Y03447D03*
X04218Y03326D03*
G54D180*
X03588Y03506D03*
Y03532D03*
Y03583D03*
Y03557D03*
X03516D03*
Y03583D03*
Y03532D03*
Y03506D03*
X03103Y03528D03*
Y03553D03*
Y03605D03*
Y03579D03*
X03031D03*
Y03605D03*
Y03553D03*
Y03528D03*
X04111Y03166D03*
Y03191D03*
Y03242D03*
Y03217D03*
X04038D03*
Y03242D03*
Y03191D03*
Y03166D03*
G54D181*
X03567Y03519D03*
X03082Y03541D03*
X04089Y03178D03*
G54D182*
X03567Y0357D03*
X03082Y03592D03*
X04089Y03229D03*
G54D183*
X03389Y03568D03*
Y03552D03*
X03432Y03584D03*
Y036D03*
G54D184*
X03418Y03559D03*
X03401Y03592D03*
G54D185*
X03087Y03361D03*
Y03427D03*
G54D186*
X02917Y0347D03*
X02937D03*
X02956D03*
X02976D03*
X02996D03*
X02917Y03308D03*
X02937D03*
X02956D03*
X02976D03*
X02996D03*
G54D187*
X02554Y03101D03*
X02734D03*
M02*