%FSTAX23Y23*%
%MOIN*%
%SFA1B1*%

%IPPOS*%
%AMD122*
4,1,4,0.009100,0.003400,0.003400,0.009100,-0.009100,-0.003400,-0.003400,-0.009100,0.009100,0.003400,0.0*
1,1,0.008000,0.006200,0.006200*
1,1,0.008000,-0.006200,-0.006200*
%
%AMD123*
4,1,4,0.003400,-0.009100,0.009100,-0.003400,-0.003400,0.009100,-0.009100,0.003400,0.003400,-0.009100,0.0*
1,1,0.008000,0.006200,-0.006200*
1,1,0.008000,-0.006200,0.006200*
%
%AMD124*
4,1,4,0.130800,0.000000,0.000000,0.130800,-0.130800,0.000000,0.000000,-0.130800,0.130800,0.000000,0.0*
%
%AMD131*
4,1,4,-0.001400,0.008300,-0.008300,0.001400,0.001400,-0.008300,0.008300,-0.001400,-0.001400,0.008300,0.0*
%
%ADD31R,0.031500X0.063000*%
%ADD103O,0.078700X0.059100*%
%ADD104R,0.035500X0.027600*%
%ADD105R,0.008000X0.015800*%
%ADD106R,0.019800X0.019800*%
%ADD107R,0.078800X0.043400*%
%ADD108R,0.031600X0.031600*%
%ADD109R,0.023700X0.019800*%
%ADD110O,0.067000X0.011900*%
%ADD111R,0.011100X0.017000*%
%ADD112R,0.015800X0.008000*%
%ADD113R,0.019800X0.019800*%
%ADD114R,0.043400X0.078800*%
%ADD115R,0.031600X0.031600*%
%ADD116R,0.040100X0.030100*%
%ADD117R,0.013900X0.009900*%
%ADD118R,0.017000X0.011100*%
%ADD119R,0.053200X0.015800*%
%ADD120R,0.061100X0.074900*%
%ADD121R,0.055200X0.063100*%
G04~CAMADD=122~3~0.0~0.0~80.0~257.0~0.0~0.0~0~0.0~0.0~0.0~0.0~0~0.0~0.0~0.0~0.0~0~0.0~0.0~0.0~315.0~204.0~204.0*
%ADD122D122*%
G04~CAMADD=123~3~0.0~0.0~80.0~257.0~0.0~0.0~0~0.0~0.0~0.0~0.0~0~0.0~0.0~0.0~0.0~0~0.0~0.0~0.0~225.0~204.0~204.0*
%ADD123D123*%
G04~CAMADD=124~10~0.0~1851.2~0.0~0.0~0.0~0.0~0~0.0~0.0~0.0~0.0~0~0.0~0.0~0.0~0.0~0~0.0~0.0~0.0~315.0~1851.2~0.0*
%ADD124D124*%
%ADD125R,0.051300X0.059100*%
%ADD126R,0.023700X0.021700*%
%ADD127R,0.108300X0.055200*%
%ADD128R,0.013900X0.013900*%
%ADD129R,0.039400X0.017800*%
%ADD130R,0.009900X0.013900*%
G04~CAMADD=131~9~0.0~0.0~99.0~139.0~0.0~0.0~0~0.0~0.0~0.0~0.0~0~0.0~0.0~0.0~0.0~0~0.0~0.0~0.0~45.0~166.0~165.0*
%ADD131D131*%
%ADD132R,0.011900X0.027600*%
%ADD133R,0.037400X0.039400*%
%ADD134R,0.037300X0.039400*%
%ADD135R,0.031600X0.086700*%
%ADD136R,0.039400X0.031600*%
%LNvapeix_mini_pcb-1*%
%LPD*%
G54D31*
X02175Y03069D03*
X02308D03*
G54D103*
X02075Y03503D03*
Y03243D03*
G54D104*
X03776Y03185D03*
Y03145D03*
X03716Y03185D03*
Y03145D03*
X03552Y03183D03*
Y03144D03*
X03493Y03183D03*
Y03144D03*
G54D105*
X04216Y03202D03*
X042D03*
X04169Y03159D03*
X04185D03*
G54D106*
X04208Y03171D03*
X04176Y03188D03*
G54D107*
X03449Y03571D03*
G54D108*
X03523Y03571D03*
G54D109*
X02596Y03592D03*
X02557D03*
G54D110*
X02737Y03482D03*
Y03502D03*
Y03522D03*
Y03541D03*
Y03561D03*
X02576Y03482D03*
Y03502D03*
Y03522D03*
Y03541D03*
Y03561D03*
G54D111*
X03244Y03544D03*
X03264D03*
X03144Y03594D03*
X03164D03*
X03031Y03591D03*
X03011D03*
X03264Y03595D03*
X03244D03*
X03978Y03567D03*
X03958D03*
Y03601D03*
X03978D03*
X02821Y03035D03*
X02801D03*
X03265Y03514D03*
X03245D03*
X0308Y03491D03*
X0306D03*
X02489Y03489D03*
X02509D03*
X02489Y03524D03*
X02509D03*
X02489Y03558D03*
X02509D03*
X02759Y03438D03*
X02739D03*
X02689Y03406D03*
X02669D03*
G54D112*
X03065Y03567D03*
Y03551D03*
X03108Y0352D03*
Y03536D03*
X0324Y032D03*
Y03184D03*
X03283Y03153D03*
Y03169D03*
G54D113*
X03096Y03559D03*
X03079Y03527D03*
X03271Y03192D03*
X03254Y0316D03*
G54D114*
X02365Y03552D03*
X02821Y03484D03*
G54D115*
X02365Y03626D03*
X02821Y03558D03*
G54D116*
X02309Y03527D03*
Y03601D03*
X02226Y03564D03*
G54D117*
X02152Y03613D03*
Y03632D03*
X02188Y03585D03*
Y03604D03*
X02255Y03659D03*
Y0364D03*
X04215Y03576D03*
Y03557D03*
X02444Y0307D03*
Y03051D03*
Y03093D03*
Y03112D03*
X02568Y03032D03*
Y03051D03*
X03922Y03482D03*
Y03501D03*
X04215Y0363D03*
Y0361D03*
X04244Y03577D03*
Y03557D03*
X04245Y0363D03*
Y0361D03*
X03894Y03376D03*
Y03357D03*
X03957Y03358D03*
Y03377D03*
X0251Y03464D03*
Y03445D03*
G54D118*
X02216Y0366D03*
Y0364D03*
G54D119*
X02181Y03373D03*
Y03399D03*
Y03424D03*
Y03348D03*
Y03322D03*
G54D120*
X02075Y0342D03*
Y03326D03*
G54D121*
X02172Y03247D03*
Y03499D03*
G54D122*
X02868Y03213D03*
X02857Y03224D03*
X02846Y03235D03*
X02835Y03246D03*
X02823Y03257D03*
X02812Y03268D03*
X02801Y03279D03*
X0279Y0329D03*
X02779Y03302D03*
X02768Y03313D03*
X02757Y03324D03*
X02746Y03335D03*
X02577Y03167D03*
X02588Y03155D03*
X02599Y03144D03*
X0261Y03133D03*
X02622Y03122D03*
X02633Y03111D03*
X02644Y031D03*
X02655Y03089D03*
X02666Y03078D03*
X02677Y03066D03*
X02688Y03055D03*
X027Y03044D03*
G54D123*
X027Y03335D03*
X02688Y03324D03*
X02677Y03313D03*
X02666Y03302D03*
X02655Y0329D03*
X02644Y03279D03*
X02633Y03268D03*
X02622Y03257D03*
X0261Y03246D03*
X02599Y03235D03*
X02588Y03224D03*
X02577Y03213D03*
X02746Y03044D03*
X02757Y03055D03*
X02768Y03066D03*
X02779Y03078D03*
X0279Y03089D03*
X02801Y031D03*
X02812Y03111D03*
X02823Y03122D03*
X02835Y03133D03*
X02846Y03144D03*
X02857Y03155D03*
X02868Y03167D03*
G54D124*
X02723Y0319D03*
G54D125*
X04096Y03534D03*
X04163D03*
X04096Y03626D03*
X04163D03*
G54D126*
X03363Y03192D03*
X03324D03*
G54D127*
X02932Y03281D03*
Y03438D03*
X03197Y03281D03*
Y03438D03*
X04009Y03287D03*
Y03444D03*
X04274Y03287D03*
Y03444D03*
G54D128*
X02516Y03071D03*
X02491D03*
G54D129*
X02503Y03105D03*
X02504Y03037D03*
G54D130*
X02548Y03071D03*
X02567D03*
X02892Y03197D03*
X02911D03*
X02894Y03128D03*
X02875D03*
X02627Y03031D03*
X02608D03*
X03977Y03646D03*
X03958D03*
X03977Y0354D03*
X03958D03*
X04142Y03687D03*
X04161D03*
X03918Y03677D03*
X03899D03*
X02699Y03595D03*
X02718D03*
G54D131*
X0271Y03353D03*
X02724Y03367D03*
G54D132*
X02542Y03423D03*
X02567D03*
X02618D03*
X02593D03*
Y03351D03*
X02618D03*
X02567D03*
X02542D03*
G54D133*
X02554Y03402D03*
G54D134*
X02605Y03402D03*
G54D135*
X02499Y0321D03*
X02388D03*
G54D136*
X02444Y03147D03*
M02*