%FSTAX23Y23*%
%MOIN*%
%SFA1B1*%

%IPPOS*%
%ADD43C,0.011800*%
%ADD44C,0.005900*%
%ADD45C,0.019700*%
%ADD51C,0.059100*%
%ADD54C,0.060000*%
%ADD55C,0.019700*%
%ADD56C,0.177200*%
%ADD57C,0.015700*%
%LNvapeix_mini_pcb-1*%
%LPD*%
G54D43*
X02407Y03492D02*
Y03525D01*
X02398Y03483D02*
X02407Y03492D01*
X02381Y03554D02*
X02398Y03571D01*
X02381Y03512D02*
Y03554D01*
X0238Y03511D02*
X02381Y03512D01*
X03364Y03559D02*
X03366D01*
X02398Y03571D02*
X02555D01*
X02576Y03592*
X02349Y03483D02*
X02398D01*
X02259Y03225D02*
X02332Y03152D01*
X02259Y03225D02*
Y03393D01*
X02349Y03483*
G54D44*
X03097Y03303D02*
X03099Y03305D01*
X0311Y03321D02*
X03112D01*
X03103Y03329D02*
X0311Y03321D01*
X03075Y03329D02*
X03103D01*
X02957Y03246D02*
X02992D01*
X02908Y03197D02*
X02957Y03246D01*
X02984Y03155D02*
Y03204D01*
X04112Y03542D02*
X04132Y03522D01*
Y03433D02*
Y03522D01*
Y03433D02*
X04166Y03399D01*
Y0334D02*
Y03399D01*
X04111Y03238D02*
Y03515D01*
X04054Y03181D02*
X04111Y03238D01*
X0384Y03181D02*
X04054D01*
X03799Y03222D02*
X0384Y03181D01*
X03844Y03193D02*
X04035D01*
X03803Y03233D02*
X03844Y03193D01*
X04009Y03209D02*
X0401Y0321D01*
X03845Y03209D02*
X04009D01*
X03808Y03245D02*
X03845Y03209D01*
X04519Y03217D02*
Y03308D01*
X04331Y03029D02*
X04519Y03217D01*
X03985Y03029D02*
X04331D01*
X03037Y03429D02*
X03075D01*
X03103Y03457*
X02243Y03671D02*
X03134D01*
X02222Y0365D02*
X02243Y03671D01*
X02222Y03491D02*
Y0365D01*
X02842Y03197D02*
X02866Y03221D01*
X02558Y03197D02*
X02842D01*
X02843Y03047D02*
X02908Y03112D01*
X04035Y03193D02*
X04083Y03241D01*
X04504Y03322D02*
X04519Y03308D01*
X04468Y03322D02*
X04504D01*
X03614Y03521D02*
Y03522D01*
X04076Y03549D02*
X04111Y03515D01*
X04112Y03542D02*
Y03608D01*
X04048Y03549D02*
X04076D01*
X03613Y0352D02*
X03614Y03521D01*
X04166Y0334D02*
X04247Y03259D01*
X02972Y03487D02*
X03031D01*
X03675Y03245D02*
X03808D01*
X0367Y03233D02*
X03803D01*
X03663Y03222D02*
X03799D01*
X03544Y0359D02*
X03573Y03619D01*
X03877D02*
X03918Y0366D01*
X03573Y03619D02*
X03877D01*
X03873Y03608D02*
X03918Y03563D01*
X03578Y03608D02*
X03873D01*
X03556Y03586D02*
X03578Y03608D01*
X03626Y03295D02*
X03675Y03245D01*
X03615Y0327D02*
X03663Y03222D01*
X03621Y03283D02*
X0367Y03233D01*
X03184Y03295D02*
X03626D01*
X03168Y03279D02*
X03184Y03295D01*
X03276Y03243D02*
X03316Y03283D01*
X03229Y03243D02*
X03276D01*
X03215Y03257D02*
X03229Y03243D01*
X03321Y0327D02*
X03392D01*
X03272Y03221D02*
X03321Y0327D01*
X03272Y03045D02*
Y03221D01*
X03316Y03283D02*
X03621D01*
X03393Y0327D02*
X03615D01*
X04083Y03241D02*
Y03307D01*
X04111Y03608D02*
X04112Y03608D01*
X0424Y03634D02*
X04283Y03591D01*
Y03408D02*
Y03591D01*
X02908Y03112D02*
Y03197D01*
X03135Y03153D02*
Y035D01*
X03057Y03345D02*
X03077Y03365D01*
X03022Y03345D02*
X03057D01*
X03385Y03679D02*
X03517D01*
X03537Y03659*
Y03607D02*
Y03659D01*
X03519Y03589D02*
X03537Y03607D01*
X03519Y03482D02*
Y03589D01*
X03516Y03482D02*
X03519D01*
X03516Y03482D02*
X03516Y03482D01*
X03928Y03086D02*
X03985Y03029D01*
X03928Y03086D02*
Y03147D01*
X02984Y03155D02*
X02999Y0314D01*
X03446Y03341D02*
Y03406D01*
X03485Y03445*
X03434Y03413D02*
X03479Y03458D01*
X03531*
X03485Y03445D02*
X03535D01*
X03556Y03466*
Y03586*
X03531Y03458D02*
X03544Y0347D01*
Y0359*
X03918Y0366D02*
Y03663D01*
X02848Y03439D02*
Y03633D01*
Y03634*
X02799Y03497D02*
X02832Y03464D01*
X0268Y03497D02*
X02799D01*
X03103Y03527D02*
X03136Y0356D01*
X03159Y03549D02*
Y03646D01*
X03134Y03671D02*
X03159Y03646D01*
X02866Y03343D02*
X02887Y03364D01*
X03134Y0356D02*
X03136D01*
X03276Y03268D02*
X03277Y03269D01*
X02878Y03626D02*
X02944D01*
X02962Y03608*
Y03497D02*
Y03608D01*
Y03497D02*
X02972Y03487D01*
X02992Y03246D02*
X03075Y03329D01*
X03401Y03321D02*
X03426D01*
X03446Y03341*
X03401Y03344D02*
X03402D01*
X03404Y03346*
X03401Y03344D02*
X03426D01*
X03434Y03352*
Y03413*
X04078Y03634D02*
X0424D01*
X04Y03556D02*
X04078Y03634D01*
X04142Y03148D02*
Y03367D01*
Y03148D02*
X04178Y03111D01*
X04207*
X03247Y03569D02*
Y03623D01*
X02848Y03439D02*
X02886Y03401D01*
X02832Y03432D02*
Y03464D01*
Y03432D02*
X02879Y03385D01*
X03043*
X02886Y03401D02*
X03015D01*
X03021Y03407*
X03042*
X02887Y03364D02*
X03033D01*
X04111Y03608D02*
X04111D01*
X04247Y03259D02*
X04338D01*
X04379Y03218*
X03103Y03457D02*
Y03527D01*
X03077Y03365D02*
Y03406D01*
X03118Y03447*
Y03508*
X03159Y03549*
X03176Y03541D02*
X03219D01*
X03247Y03569*
X03135Y035D02*
X03176Y03541D01*
X02999Y0314D02*
X03122D01*
X03135Y03153*
X02866Y03221D02*
Y03343D01*
X02222Y03491D02*
X02238Y03475D01*
X02299Y03283D02*
Y03284D01*
Y03283D02*
X02422Y0316D01*
Y03077D02*
Y0316D01*
Y03077D02*
X02452Y03047D01*
X02843*
G54D45*
X03097Y03302D02*
Y03303D01*
X03085Y0329D02*
X03097Y03302D01*
X03085Y03266D02*
Y0329D01*
X02974Y03228D02*
X03046D01*
X03085Y03266*
X03182Y03086D02*
X03197Y03071D01*
X02982Y03086D02*
X03182D01*
X0294Y03128D02*
X02982Y03086D01*
X0294Y03193D02*
X02974Y03228D01*
X0294Y03128D02*
Y03193D01*
X03814Y03663D02*
Y0369D01*
X03795Y03709D02*
X03814Y0369D01*
X03372Y03709D02*
X03795D01*
X03359Y03696D02*
X03372Y03709D01*
X03359Y03669D02*
Y03696D01*
Y03669D02*
X03375Y03653D01*
Y03568D02*
Y03653D01*
X03366Y03559D02*
X03375Y03568D01*
X03197Y03048D02*
Y03071D01*
G54D51*
X04379Y03218D03*
X04468Y03322D03*
G54D54*
X03818Y03663D03*
X03918D03*
Y03563D03*
X02331Y03153D03*
G54D55*
X02395Y03435D03*
X02342Y03412D03*
X02324Y03363D03*
X02342Y03315D03*
X02395Y03292D03*
X02447Y03315D03*
X02466Y03363D03*
X02445Y03412D03*
X03823D03*
X03843Y03363D03*
X03824Y03315D03*
X03772Y03292D03*
X0372Y03315D03*
X03701Y03363D03*
X0372Y03412D03*
X03772Y03435D03*
G54D56*
X02395Y03363D03*
X03772D03*
G54D57*
X03097Y03303D03*
X03112Y03321D03*
X02984Y03204D03*
X03037Y03429D03*
X02407Y03525D03*
X02381Y0351D03*
X02558Y03197D03*
X0294Y03189D03*
X03031Y03487D03*
X0401Y0321D03*
X04283Y03408D03*
X03168Y03279D03*
X03519Y03482D03*
X03385Y03679D03*
X03246Y03623D03*
X03375Y03653D03*
X02848Y03633D03*
X0268Y03497D03*
X03134Y0356D03*
X03215Y03257D03*
X03276Y03268D03*
X02299Y03284D03*
X02878Y03626D03*
X03614Y0352D03*
X03364Y03559D03*
X03401Y03321D03*
Y03344D03*
X04111Y03608D03*
X04142Y03367D03*
X03927Y03147D03*
X04049Y03549D03*
X03272Y03045D03*
X04Y03556D03*
X04083Y03307D03*
X04205Y03111D03*
X03042Y03407D03*
X03033Y03364D03*
X03022Y03345D03*
X03043Y03385D03*
X02576Y03592D03*
X02866Y03219D03*
X03197Y03047D03*
X02238Y03475D03*
M02*