%FSTAX23Y23*%
%MOIN*%
%SFA1B1*%

%IPPOS*%
%ADD55C,0.059100*%
%ADD58C,0.019700*%
%ADD63C,0.040000*%
%ADD64C,0.051200*%
%ADD65C,0.041800*%
%ADD66C,0.023600*%
%ADD67C,0.047200*%
%ADD68C,0.110200*%
%LNvapeix_mini_pcb-1*%
%LPD*%
G54D55*
X0208Y0365D03*
X0447Y03078D03*
G54D58*
X0282Y03065D03*
X02141Y03374D03*
X0214Y03399D03*
X02144Y0345D03*
X02821Y03558D03*
X02161Y03649D03*
X02216Y03689D03*
X02255D03*
X02335Y03488D03*
X02635Y03317D03*
X02613Y03317D03*
X02569Y03315D03*
X02591Y03314D03*
X02564Y03247D03*
X02548Y03232D03*
X02236Y03447D03*
X02255Y03457D03*
X02778Y03037D03*
X02799Y03058D03*
X02908Y03146D03*
X02862Y03128D03*
X02903Y03168D03*
X02972Y03157D03*
X02954Y03109D03*
X02991D03*
X03009Y03676D03*
X03086D03*
X0306Y03462D03*
X03984Y03345D03*
X03894Y03446D03*
X04013Y03596D03*
X04012Y03569D03*
X04151Y03188D03*
X04209Y03144D03*
X04185Y03142D03*
X04268Y03287D03*
X04205Y03258D03*
X03996Y03646D03*
X03882Y03213D03*
X03724Y03118D03*
X03751Y03232D03*
X03774Y03281D03*
X03982Y03213D03*
X03594Y03247D03*
X04089Y03134D03*
X03923Y03656D03*
X03739Y03527D03*
X03956Y03675D03*
X04006Y03521D03*
X03485Y03183D03*
X03544Y03213D03*
X03682Y03145D03*
X04142Y03159D03*
X03391Y03192D03*
X03304Y03169D03*
X03242Y03233D03*
X03218Y03185D03*
X03068Y03169D03*
X03165Y03224D03*
X02625Y03072D03*
X02607Y03055D03*
X02906Y03037D03*
X02852Y03082D03*
X02661Y0304D03*
X02641Y0303D03*
X02712Y03039D03*
X02932Y03438D03*
X03121Y0343D03*
X03324Y03192D03*
X02393Y0361D03*
X02554Y03402D03*
X02542Y03351D03*
X02669Y03386D03*
X02567Y03351D03*
X0269Y03502D03*
X02681Y03355D03*
X02699Y03369D03*
X03693Y0351D03*
X03716Y03496D03*
X03735Y03567D03*
X03672Y03527D03*
X03653Y03544D03*
X02863Y03252D03*
X02885Y03234D03*
X02552Y03157D03*
X02538Y03137D03*
X02553Y0312D03*
X02551Y03098D03*
X02586Y0309D03*
X02131Y03613D03*
X02117Y03593D03*
X02443Y03676D03*
X03415Y03218D03*
X04196Y03229D03*
X04219Y03226D03*
X04097Y03534D03*
X03861Y03447D03*
X03907Y03172D03*
X03618Y03215D03*
X0264Y03353D03*
X02647Y03375D03*
X03182Y03438D03*
X033Y03639D03*
X03037Y03514D03*
X03096Y0356D03*
X03295Y03669D03*
X02371Y03687D03*
X02945Y03576D03*
X03449Y03571D03*
X03493Y03215D03*
X03014Y03563D03*
X03141Y03576D03*
X03718Y03214D03*
X02118Y03571D03*
X03922Y03472D03*
X03694Y03214D03*
X02522Y03592D03*
X03389Y03077D03*
X03852Y03155D03*
X0354Y03117D03*
X03518Y03118D03*
X03484Y03117D03*
X03563Y03118D03*
X03125Y03301D03*
X04265Y0359D03*
X04161Y03514D03*
X04264Y03612D03*
X0416Y03627D03*
X04Y03548D03*
G54D63*
X02Y03D02*
X04551D01*
Y03728*
X02D02*
X04551D01*
X02Y03D02*
Y03728D01*
G54D64*
X03875Y03057D03*
X03644D03*
X03757D03*
X03993D03*
X04345D03*
X04109D03*
X04229D03*
X03528D03*
X04399Y03404D03*
Y03325D03*
Y03246D03*
X02521Y03682D03*
X02821D03*
X02721D03*
X03081Y0307D03*
X03264Y03072D03*
G54D65*
X04326Y03652D03*
Y03573D03*
G54D66*
X03655Y0341D03*
X03637Y03363D03*
X03657Y03313D03*
X03707Y03291D03*
X03754Y03312D03*
X03775Y03363D03*
X03755Y0341D03*
X03707Y03431D03*
X02369Y03433D03*
X02417Y03412D03*
X02437Y03365D03*
X02416Y03314D03*
X02369Y03293D03*
X02319Y03315D03*
X02299Y03365D03*
X02317Y03412D03*
G54D67*
X03368Y0336D03*
G54D68*
X02368Y03363D03*
X03707Y0336D03*
M02*