%FSTAX24Y24*%
%MOIN*%
%SFA1B1*%

%IPPOS*%
%ADD13R,0.019700X0.023600*%
%ADD15R,0.021700X0.023600*%
%ADD16R,0.029500X0.031500*%
%ADD18R,0.023600X0.019700*%
%ADD26R,0.023600X0.021700*%
%ADD27R,0.078700X0.043300*%
%ADD28R,0.031500X0.031500*%
%ADD35R,0.040000X0.030000*%
%ADD38R,0.011800X0.027600*%
%ADD49C,0.070900*%
%ADD50C,0.059100*%
%ADD51C,0.078700*%
%ADD52O,0.063000X0.035400*%
%ADD53C,0.060000*%
%ADD54C,0.019700*%
%ADD55C,0.177200*%
%ADD69R,0.055100X0.063000*%
%ADD70R,0.061000X0.074800*%
%ADD71R,0.053200X0.015700*%
%ADD72C,0.039400*%
%ADD73R,0.037200X0.039400*%
%ADD74R,0.037300X0.039400*%
%ADD75R,0.027600X0.011800*%
%ADD76R,0.039400X0.037300*%
%ADD77R,0.039400X0.037200*%
%ADD78R,0.015700X0.007900*%
%ADD79R,0.019700X0.019700*%
%ADD80R,0.059100X0.051200*%
%ADD81O,0.011800X0.066900*%
%ADD82R,0.098400X0.098400*%
%LNvapeix_mini_pcb-1*%
%LPD*%
G54D13*
X028653Y033033D03*
Y033427D03*
X02238Y031607D03*
Y031214D03*
G54D15*
X0294Y031893D03*
Y032287D03*
X0301Y031893D03*
Y032287D03*
X03078D03*
Y031893D03*
X028634Y034723D03*
Y03433D03*
X04143Y035689D03*
Y036083D03*
X04086Y035689D03*
Y036082D03*
X042937Y034766D03*
Y035159D03*
X042487Y034769D03*
Y035162D03*
X041897Y034769D03*
Y035162D03*
X041548Y033197D03*
Y032803D03*
X034727Y03427D03*
Y034664D03*
X034292Y033823D03*
Y034217D03*
G54D16*
X027146Y03225D03*
X026614D03*
X029593Y035445D03*
X029061D03*
G54D18*
X025623Y03225D03*
X026017D03*
G54D26*
X029597Y035949D03*
X029203D03*
X021177Y031684D03*
X020783D03*
X041936Y034302D03*
X04233D03*
X040736Y033669D03*
X04113D03*
X042877Y032352D03*
X042483D03*
X034121Y036515D03*
X034514D03*
X032727Y03652D03*
X032333D03*
X035249Y034525D03*
X035643D03*
Y034085D03*
X035249D03*
X041977Y0316D03*
X041583D03*
X041573Y03206D03*
X041967D03*
X040907Y031155D03*
X040513D03*
G54D27*
X03254Y035715D03*
X029887Y036595D03*
G54D28*
X031792Y035715D03*
X029139Y036595D03*
G54D35*
X024313Y036011D03*
X023486Y036385D03*
Y035637D03*
G54D38*
X040552Y034985D03*
X040807D03*
X041318D03*
X041062D03*
Y03426D03*
X041318D03*
X040807D03*
X040552D03*
X042055Y033777D03*
X04231D03*
X042821D03*
X042565D03*
Y033052D03*
X042821D03*
X04231D03*
X042055D03*
G54D49*
X02554Y031D03*
X02736D03*
G54D50*
X043241Y0363D03*
X043793Y03218D03*
Y03363D03*
Y03508D03*
X04468Y032433D03*
Y033221D03*
Y034796D03*
Y034008D03*
X043241Y03091D03*
X03983Y03364D03*
Y03475D03*
Y032562D03*
G54D51*
X020806Y030806D03*
Y036503D03*
X0447Y036484D03*
Y030787D03*
G54D52*
X020967Y032337D03*
Y034935D03*
G54D53*
X03818Y036639D03*
X03918D03*
Y035639D03*
X03818D03*
X021742Y031537D03*
X023317D03*
G54D54*
X02395Y03435D03*
X023426Y034124D03*
X023244Y033636D03*
X023426Y033159D03*
X02395Y032923D03*
X02447Y033159D03*
X02466Y033636D03*
X024458Y034124D03*
X038231D03*
X038434Y033635D03*
X038243Y033159D03*
X037724Y032923D03*
X0372Y033159D03*
X037018Y033635D03*
X0372Y034124D03*
X037724Y03435D03*
G54D55*
X023952Y033636D03*
X037726D03*
G54D69*
X021931Y032376D03*
Y034896D03*
G54D70*
X020967Y034108D03*
Y033163D03*
G54D71*
X02202Y034148D03*
Y033892D03*
Y033124D03*
Y03338D03*
Y033636D03*
G54D72*
X022711Y035088D03*
Y03423D03*
Y0322D03*
Y03303D03*
X03539Y036515D03*
X033375Y036516D03*
X033999Y035015D03*
X03149Y036515D03*
X03535Y03303D03*
X0344D03*
G54D73*
X041189Y034475D03*
X042693Y033267D03*
G54D74*
X040679Y034475D03*
X042182Y033267D03*
G54D75*
X035887Y035065D03*
Y03532D03*
Y035831D03*
Y035575D03*
X035162D03*
Y035831D03*
Y03532D03*
Y035065D03*
X031039Y035284D03*
Y035539D03*
Y03605D03*
Y035794D03*
X030314D03*
Y03605D03*
Y035539D03*
Y035284D03*
X041113Y031662D03*
Y031917D03*
Y032428D03*
Y032172D03*
X040388D03*
Y032428D03*
Y031917D03*
Y031662D03*
G54D76*
X035672Y035192D03*
X030825Y035411D03*
X040898Y031789D03*
G54D77*
X035672Y035702D03*
X030825Y035922D03*
X040898Y032299D03*
G54D78*
X033894Y035685D03*
Y035525D03*
X034324Y035842D03*
Y036001D03*
G54D79*
X034181Y035597D03*
X034018Y035924D03*
G54D80*
X030873Y03361D03*
Y034279D03*
G54D81*
X029175Y034702D03*
X029372D03*
X029569D03*
X029766D03*
X029962D03*
X029175Y033088D03*
X029372D03*
X029569D03*
X029766D03*
X029962D03*
G54D82*
X02554Y03101D03*
X027346D03*
M02*