%FSTAX23Y23*%
%MOIN*%
%SFA1B1*%

%IPPOS*%
%ADD52C,0.059100*%
%ADD53C,0.019700*%
%ADD61C,0.040000*%
%ADD62C,0.047200*%
%ADD63C,0.051200*%
%ADD64C,0.023600*%
%ADD65C,0.110200*%
%ADD66O,0.059100X0.031500*%
%ADD68C,0.010000*%
%ADD69C,0.024800*%
%LNvapeix_mini_pcb-1*%
%LPD*%
G54D52*
X0447Y03648D03*
X0208Y0365D03*
Y0308D03*
G54D53*
X03401Y03321D03*
X02275Y03477D03*
X02238Y03475D03*
X03242Y03149D03*
X03197Y03047D03*
X0311Y03048D03*
X02993Y03039D03*
X03073Y03162D03*
X02142Y03464D03*
X0246Y0346D03*
X02296Y03463D03*
X02866Y03219D03*
X02191Y03442D03*
X03382Y03402D03*
X02576Y03592D03*
X04305Y03186D03*
X04231Y03403D03*
X04188Y03356D03*
X04273Y03686D03*
X04268Y03138D03*
X03043Y03385D03*
X03022Y03345D03*
X03033Y03364D03*
X03042Y03407D03*
X02992Y03537D03*
X02937Y0342D03*
X04011Y03067D03*
X03395Y03368D03*
X04205Y03111D03*
X04218Y03465D03*
X04083Y03307D03*
X04049Y03297D03*
X04Y03556D03*
X03117Y03219D03*
X03272Y03045D03*
X03294D03*
X04049Y03549D03*
X03927Y03147D03*
X04142Y03367D03*
X04019Y03115D03*
X04186Y0328D03*
X04205Y03652D03*
X04232Y0358D03*
X04189Y03542D03*
X04111Y03608D03*
X04156Y03475D03*
X04Y0314D03*
X03401Y03344D03*
X03308Y0359D03*
X03364Y03559D03*
X03358Y03536D03*
X03411Y0362D03*
X02878Y03626D03*
X02299Y03284D03*
X03378Y03316D03*
X03276Y03268D03*
X0294Y03261D03*
X03215Y03257D03*
X02155Y03599D03*
X03134Y0356D03*
X02138Y0358D03*
X0268Y03497D03*
X02848Y03633D03*
X03375Y03653D03*
X03246Y03623D03*
X03385Y03679D03*
X02274Y03579D03*
Y03619D03*
X02294Y03599D03*
X02255D03*
X03977Y03081D03*
X03519Y03482D03*
X03518Y03621D03*
X03049Y03264D03*
X03168Y03279D03*
X03115Y03261D03*
X04283Y03408D03*
X0358Y03165D03*
X0362D03*
X0366D03*
X037D03*
X0374D03*
X03768Y03139D03*
Y03099D03*
Y03059D03*
X0358Y03204D03*
Y03239D03*
X03501Y03227D03*
Y03166D03*
X03768Y03024D03*
X0386Y03082D03*
X03787Y03079D03*
Y0312D03*
X03789Y03162D03*
X03601Y03186D03*
X0364Y03185D03*
X03601Y0322D03*
X03412Y03152D03*
X03472Y03183D03*
X03413Y03214D03*
X03788Y0304D03*
X03621Y03203D03*
X03812Y03023D03*
X03811Y03058D03*
X0381Y03098D03*
X03809Y03138D03*
X0368Y03184D03*
X0401Y0321D03*
X0372Y03183D03*
X0366Y03204D03*
X037Y03203D03*
X03768Y03182D03*
X0374Y03202D03*
X0362Y03239D03*
X0364Y03219D03*
X03443Y03063D03*
X03444Y03026D03*
X03413Y03042D03*
X03412Y03116D03*
X03413Y03082D03*
X03381Y03023D03*
X0338Y03061D03*
X03345Y03152D03*
X03347Y03117D03*
Y0308D03*
Y03041D03*
X03312Y03228D03*
X03412Y03183D03*
X0338Y03166D03*
Y03101D03*
X03619Y03368D03*
X0362Y03343D03*
X03637Y03438D03*
X03651Y03458D03*
X03669Y03478D03*
X0369Y03494D03*
X03711Y03507D03*
X03722Y03683D03*
X0364Y03679D03*
X03752Y03683D03*
X03778Y03643D03*
X03779Y03588D03*
X03626Y03417D03*
X0362Y03393D03*
X036Y03483D03*
X03737Y03518D03*
X03346Y03214D03*
X03737Y03485D03*
X03712Y03473D03*
X03764Y03493D03*
X0369Y03454D03*
X03671Y03432D03*
X03657Y03408D03*
X03651Y0338D03*
Y03349D03*
X03659Y03317D03*
X03789Y03504D03*
X03821D03*
X03853D03*
X03887D03*
X03806Y03486D03*
X0384D03*
X03872D03*
X03736Y03643D03*
Y03585D03*
X03726Y03543D03*
X03751D03*
X03605Y03678D03*
X03775Y03527D03*
X03627Y03316D03*
X03674Y03288D03*
X03696Y03264D03*
X03862Y03568D03*
Y03664D03*
Y03639D03*
X03861Y03591D03*
Y03688D03*
X03862Y03545D03*
X03625Y03587D03*
X03624Y03643D03*
X03497Y0366D03*
X03859Y03467D03*
X03501Y03198D03*
X03312D03*
X03313Y03025D03*
Y03059D03*
X03312Y03096D03*
Y0313D03*
X03809Y03182D03*
X03854Y03058D03*
X03831Y03039D03*
X03855Y03024D03*
X03905Y03164D03*
X03785Y03201D03*
X03565Y03408D03*
X03576Y03484D03*
X03472Y03213D03*
X03442Y03198D03*
Y03166D03*
Y03228D03*
X0338Y03198D03*
Y03228D03*
X03346Y03183D03*
X03442Y031D03*
Y03134D03*
X0338D03*
X03312Y03166D03*
X03031Y03487D03*
X032Y03659D03*
X04055Y03499D03*
X03483Y0355D03*
X04168Y03544D03*
X04205Y03378D03*
X03901Y03024D03*
X03879Y03041D03*
X039Y03059D03*
X03828Y03074D03*
X03283Y03025D03*
X03565Y03376D03*
X0294Y03189D03*
X03402Y03392D03*
X04039Y03149D03*
X02558Y03197D03*
X02716Y0327D03*
X02381Y0351D03*
X02413Y0363D03*
X02407Y03525D03*
X02481Y03543D03*
X027Y0333D03*
X03037Y03429D03*
X02984Y03204D03*
X03112Y03321D03*
X03097Y03303D03*
G54D61*
X02Y03D02*
Y03728D01*
X04551*
Y03D02*
Y03728D01*
X02Y03D02*
X04551D01*
G54D62*
X02331Y03153D03*
X02174D03*
G54D63*
X03983Y03256D03*
Y03475D03*
Y03364D03*
X04468Y03479D03*
Y03322D03*
Y03243D03*
X03818Y03563D03*
X03918D03*
Y03663D03*
X03818D03*
X04379Y03508D03*
Y03363D03*
Y03218D03*
X04324Y0363D03*
X02736Y031D03*
G54D64*
X03772Y03435D03*
X0372Y03412D03*
X03701Y03363D03*
X0372Y03315D03*
X03772Y03292D03*
X03824Y03315D03*
X03843Y03363D03*
X03823Y03412D03*
X02445D03*
X02466Y03363D03*
X02447Y03315D03*
X02395Y03292D03*
X02342Y03315D03*
X02324Y03363D03*
X02342Y03412D03*
X02395Y03435D03*
G54D65*
X03772Y03363D03*
X02395D03*
G54D66*
X02096Y03493D03*
Y03233D03*
G54D68*
X02468Y03176D02*
X0317D01*
Y03151D02*
Y03176D01*
X04409Y03042D02*
Y03072D01*
X04259Y03144D02*
X04337D01*
X03232Y03631D02*
X03254Y03653D01*
X03232Y03531D02*
Y03631D01*
X04071Y03539D02*
X04234Y03376D01*
X03264Y03499D02*
X03651D01*
X03232Y03531D02*
X03264Y03499D01*
X04526Y03376D02*
Y03706D01*
X03446Y03294D02*
X03468Y03316D01*
X03627Y03475*
X03691Y03539*
X04071*
X04526Y03045D02*
Y03377D01*
X04337Y03144D02*
X04409Y03072D01*
Y03042D02*
X04423Y03028D01*
X04509*
X04526Y03045*
X0317Y03082D02*
Y03151D01*
Y03082D02*
X03201Y0306D01*
X0323*
X03251Y03082*
Y03171*
X03448*
X02468Y03294D02*
X03446D01*
X02468Y03176D02*
Y03294D01*
X03996Y0363D02*
X04059D01*
X04084Y03655*
X03254Y03653D02*
X03331D01*
X03378Y03606*
X03616*
X0364Y0363*
X03996*
X0317Y03151D02*
X0317Y03151D01*
X03729Y03237D02*
X03919D01*
X03448Y03171D02*
X03514Y03237D01*
X03729*
X03919D02*
X04074D01*
X04166*
X04259Y03144*
X04234Y03376D02*
X04526D01*
X04084Y03655D02*
Y0373D01*
G54D69*
X03168Y03496D03*
X03215D03*
X03262D03*
X03309D03*
X03168Y03449D03*
X03215D03*
X03262D03*
X03309D03*
X03168Y03402D03*
X03215D03*
X03262D03*
X03309D03*
X03168Y03355D03*
X03215D03*
X03262D03*
X03309D03*
M02*