%FSTAX24Y24*%
%MOIN*%
%SFA1B1*%

%IPPOS*%
%ADD13R,0.019700X0.023600*%
%ADD15R,0.021700X0.023600*%
%ADD16R,0.029500X0.031500*%
%ADD18R,0.023600X0.019700*%
%ADD26R,0.023600X0.021700*%
%ADD27R,0.078700X0.043300*%
%ADD28R,0.031500X0.031500*%
%ADD35R,0.040000X0.030000*%
%ADD38R,0.011800X0.027600*%
%ADD43C,0.005900*%
%ADD44C,0.011800*%
%ADD47C,0.007900*%
%ADD49C,0.070900*%
%ADD50C,0.059100*%
%ADD51C,0.078700*%
%ADD52O,0.063000X0.035400*%
%ADD53C,0.060000*%
%ADD54C,0.019700*%
%ADD55C,0.177200*%
%ADD56C,0.015700*%
%ADD57C,0.026000*%
%ADD58C,0.035400*%
%ADD69R,0.055100X0.063000*%
%ADD70R,0.061000X0.074800*%
%ADD71R,0.053200X0.015700*%
%ADD72C,0.039400*%
%ADD73R,0.037200X0.039400*%
%ADD74R,0.037300X0.039400*%
%ADD75R,0.027600X0.011800*%
%ADD76R,0.039400X0.037300*%
%ADD77R,0.039400X0.037200*%
%ADD78R,0.015700X0.007900*%
%ADD79R,0.019700X0.019700*%
%ADD80R,0.059100X0.051200*%
%ADD81O,0.011800X0.066900*%
%ADD82R,0.098400X0.098400*%
%LNvapeix_mini_pcb-1*%
%LPD*%
G36*
X045487Y030043D02*
X03752D01*
Y03152*
X03454*
Y030043*
X020043*
Y037227*
X045487*
Y030043*
G37*
%LNvapeix_mini_pcb-2*%
%LPC*%
G36*
X04273Y037001D02*
X042676Y03699D01*
X042631Y036959*
X0426Y036914*
X04259Y03686*
X0426Y036806*
X042631Y036761*
X042676Y03673*
X04273Y03672*
X042784Y03673*
X042829Y036761*
X04286Y036806*
X04287Y03686*
X04286Y036914*
X042829Y036959*
X042784Y03699*
X04273Y037001*
G37*
G36*
X03554Y03717D02*
D01*
X03473*
X034684Y037161*
X034645Y037135*
X034429Y036919*
X034403Y03688*
X034394Y036834*
Y036717*
X034362Y036685*
X034344Y036682*
X034298*
X034287*
X034004*
X033977Y036732*
X03398Y036736*
X03399Y03679*
X03398Y036844*
X033949Y036889*
X033904Y03692*
X03385Y03693*
X033796Y03692*
X033751Y036889*
X03372Y036844*
X033709Y03679*
X03372Y036736*
X03373Y036722*
X033707Y036666*
X033696Y036664*
X033656Y036637*
X033639Y036635*
X033601Y036639*
X033598Y036645*
X033557Y036698*
X033504Y036739*
X033442Y036765*
X033375Y036774*
X033308Y036765*
X033246Y036739*
X033192Y036698*
X033151Y036645*
X033126Y036582*
X033117Y036516*
Y036511*
X03307Y036488*
X032979Y036579*
X03295Y036598*
X032915Y036605*
X032904*
Y036687*
X03256*
X03255*
X03251*
X0325*
X032156*
Y036353*
X032169Y036303*
X032152Y03628*
X031687*
X03167Y03633*
X031672Y036332*
X031713Y036386*
X031739Y036448*
X031748Y036515*
X031739Y036581*
X031713Y036644*
X031672Y036697*
X031619Y036738*
X031557Y036764*
X03149Y036773*
X031423Y036764*
X031361Y036738*
X031307Y036697*
X031266Y036644*
X03124Y036581*
X031232Y036515*
X03124Y036448*
X031266Y036386*
X031307Y036332*
X031361Y036291*
X031399Y036275*
Y036157*
X031286Y036044*
X031247Y036055*
X031236Y036063*
Y036168*
X030842*
Y036167*
X030569*
Y035677*
Y035657*
Y035166*
X030704*
Y035084*
X030503Y034883*
X030449Y0349*
X030444Y034924*
X030414Y034969*
X030405Y034975*
Y035166*
X030511*
Y035402*
Y035421*
Y035626*
Y035657*
Y035707*
Y035882*
Y035912*
Y035962*
Y036168*
X030117*
Y035962*
Y035932*
Y035882*
Y035707*
Y035676*
X030109Y03563*
X030075Y035623*
X030045Y035603*
X029949Y035507*
X029925Y035511*
X029872Y035501*
X029849Y035486*
X029799Y035512*
Y035661*
X029683*
Y035782*
X029774*
Y035867*
X029807*
X029842Y035874*
X029871Y035893*
X029954Y035976*
X029973Y036005*
X02998Y03604*
Y036319*
X03034*
Y03687*
X029434*
Y036319*
X0298*
Y036156*
X029774Y036117*
X02943*
X02942*
X02938*
X02937*
X029026*
Y03604*
X02887*
Y036155*
X028879Y036161*
X02891Y036206*
X028921Y03626*
X02891Y036314*
X028908Y036317*
X028897Y036346*
X028923Y036373*
X028937Y036378*
X028969*
X029355*
Y036811*
X028922*
Y036715*
X026435*
X026389Y036706*
X026349Y03668*
X025722Y036052*
X02571Y03605*
X025665Y036019*
X025634Y035974*
X025624Y03592*
X025634Y035866*
X025665Y035821*
X02571Y03579*
X025764Y03578*
X025818Y03579*
X025864Y035821*
X025894Y035866*
X025898Y035888*
X026484Y036474*
X028358*
X028371Y036448*
X028377Y036424*
X02835Y036384*
X02834Y03633*
X02835Y036276*
X028381Y036231*
X028426Y0362*
X02848Y036189*
X028534Y0362*
X028579Y036231*
X028591Y036248*
X028644Y036237*
X02865Y036206*
X028681Y036161*
X02869Y036155*
Y036*
X028697Y035965*
X028716Y035936*
X028766Y035886*
X028795Y035867*
X02883Y03586*
X029026*
Y035782*
X02937*
X02938*
X02942*
X02943*
X029502*
Y035661*
X029386*
Y035228*
X02947*
Y035114*
X02942Y035087*
X029418Y035089*
X029372Y035098*
X029326Y035089*
X02931Y035078*
X029273Y035067*
X029237Y035078*
X029221Y035089*
X029175Y035098*
X029129Y035089*
X02909Y035062*
X029064Y035023*
X029055Y034977*
Y03481*
X028801*
Y0349*
X028466*
Y034546*
X028801*
Y03463*
X029055*
Y034426*
X029064Y03438*
X02909Y034341*
X029129Y034315*
X029175Y034306*
X029221Y034315*
X029222Y034314*
X029257Y034279*
X02924Y034254*
X02923Y0342*
X02924Y034146*
X029271Y034101*
X029316Y03407*
X02937Y03406*
X029424Y03407*
X029469Y034101*
X0295Y034146*
X029511Y0342*
X0295Y034254*
X02948Y034283*
X029516Y034319*
X029523Y034315*
X029569Y034306*
X029587Y034309*
X029617Y034264*
X02961Y034254*
X029599Y0342*
X02961Y034146*
X029641Y034101*
X029686Y03407*
X02974Y03406*
X029792Y03407*
X029794*
X029842Y034048*
Y03351*
X029792Y033478*
X029766Y033484*
X029719Y033474*
X02968Y033448*
X029654*
X029615Y033474*
X029569Y033484*
X029523Y033474*
X029512Y033467*
X029476Y033482*
X029461Y033493*
X029455Y033523*
X029436Y033552*
X029384Y033604*
X029355Y033623*
X02932Y03363*
X02903*
X028995Y033623*
X028966Y033604*
X028916Y033554*
X028897Y033525*
X02889Y03349*
Y033137*
X028863Y03311*
X02881*
Y03321*
X028495*
Y032856*
X02881*
Y03293*
X0289*
X028935Y032937*
X028964Y032956*
X029044Y033036*
X029063Y033065*
X02907Y0331*
Y03345*
X029227*
X029241Y033434*
X029259Y0334*
X029251Y033363*
Y032812*
X029261Y032766*
X029287Y032727*
X029277Y032673*
X02927Y032664*
X02926Y03261*
X02927Y032556*
X029298Y032514*
X029295Y032496*
X02928Y032464*
X029233*
Y03212*
Y03211*
Y03207*
Y03206*
Y031716*
X029567*
Y03206*
Y03207*
Y03211*
Y03212*
Y03219*
X029726*
X029741Y03214*
Y032139*
X02971Y032094*
X029699Y03204*
X02971Y031986*
X029741Y031941*
X029775Y031918*
X029776Y031916*
X029866Y031826*
X029895Y031807*
X02993Y0318*
X029933*
Y031716*
X030267*
Y03206*
Y03207*
Y03211*
Y032424*
X030317Y032445*
X030536Y032226*
X030565Y032207*
X0306Y0322*
X030613*
Y03211*
X030947*
Y032464*
X030613*
X030603Y03246*
X030579Y03248*
X030583Y032537*
X030589Y032541*
X03062Y032586*
X030631Y03264*
X03062Y032694*
X030589Y032739*
X030544Y03277*
X03049Y03278*
X030436Y03277*
X030391Y032739*
X030373Y032713*
X030315Y032693*
X03028Y0327*
X03009*
X030063Y03275*
X030074Y032766*
X030083Y032812*
Y032967*
X030648*
X030694Y032976*
X030733Y033002*
X030806Y033075*
X030852Y033051*
X030849Y03304*
X03086Y032986*
X030891Y032941*
X030936Y03291*
X03099Y032899*
X031044Y03291*
X031089Y032941*
X03112Y032986*
X03113Y03304*
X031123Y033076*
X031174Y033087*
X031219Y033117*
X03125Y033163*
X03126Y033216*
X03125Y03327*
X031227Y033304*
Y033925*
X030546*
X030544Y033927*
X030519Y033971*
X03055Y034016*
X030561Y03407*
X03055Y034124*
X030519Y034169*
X03051Y034176*
X03049Y034236*
X030501Y03429*
X03049Y034344*
X030459Y034389*
X030414Y03442*
X03036Y03443*
X03034Y034427*
X030335Y034429*
X030312Y034472*
X030373Y034533*
X030443*
X030489Y034542*
X030528Y034568*
X03091Y034949*
X030936Y034989*
X030945Y035035*
Y035166*
X03108*
X031236*
Y035402*
Y035421*
X031265Y035459*
X031286Y03547*
X03134Y035459*
X031394Y03547*
X031439Y035501*
X03147Y035546*
X031481Y0356*
X03147Y035654*
X031439Y035699*
X03143Y035705*
Y035933*
X031554Y036056*
X031573Y036085*
X031576Y0361*
X03221*
X032245Y036107*
X032274Y036126*
X032297Y03615*
X032361Y036143*
X03237Y036131*
X032415Y0361*
X032419Y036099*
X032442Y036078*
X032449Y03605*
Y036044*
Y035991*
X032087*
Y03544*
X032993*
Y03562*
X033093*
X033322Y03539*
Y035295*
X033329Y035261*
X033349Y035231*
X033629Y034951*
X033659Y034931*
X033693Y034924*
X033759*
X033775Y034886*
X033816Y034832*
X03387Y034791*
X033932Y034765*
X033999Y034757*
X034066Y034765*
X034068Y034766*
X034096Y034724*
X033549Y034177*
X033529Y034147*
X033522Y034113*
Y032907*
X033529Y032873*
X033549Y032843*
X033626Y032767*
X033607Y03272*
X032958*
X032912Y032711*
X032879Y032749*
X032859Y032779*
X032814Y03281*
X03276Y03282*
X032706Y03281*
X032661Y032779*
X03263Y032734*
X03262Y03268*
X032626Y032648*
X032593Y032598*
X032499*
X032453Y032589*
X032414Y032563*
X031131Y03128*
X030541*
X03049Y031291*
X030436Y03128*
X030391Y031249*
X03036Y031204*
X03035Y03115*
X03036Y031096*
X030391Y031051*
X030401Y031044*
X030406Y030994*
X029941Y030528*
X02993Y030531*
X029876Y03052*
X029831Y030489*
X0298Y030444*
X02979Y03039*
X0298Y030336*
X029831Y030291*
X029876Y03026*
X02993Y03025*
X029984Y03026*
X030029Y030291*
X03006Y030336*
X030071Y03039*
X030068Y030401*
X030537Y03087*
X03129*
X031292*
X031316Y030824*
X031111Y030618*
X0311Y030621*
X031046Y03061*
X031001Y030579*
X03097Y030534*
X030959Y03048*
X03097Y030426*
X031001Y030381*
X031046Y03035*
X0311Y03034*
X031154Y03035*
X031199Y030381*
X03123Y030426*
X03124Y03048*
X031238Y030491*
X032152Y031404*
X032321*
X032328Y031395*
X032373Y031364*
X032427Y031354*
X032481Y031364*
X032526Y031395*
X032557Y03144*
X032567Y031494*
X032557Y031548*
X032526Y031593*
X032481Y031624*
X032427Y031635*
X032373Y031624*
X032328Y031593*
X032321Y031584*
X032114*
X032113*
X032088Y03163*
X032697Y03224*
X03291*
X032945Y032247*
X032974Y032266*
X033067Y032359*
X035289*
X035324Y032366*
X035353Y032385*
X035577Y03261*
X036593*
X036906Y032296*
X036935Y032277*
X03697Y03227*
X037913*
X039426Y030756*
X039455Y030737*
X03949Y03073*
X039658*
X039671Y030711*
X039716Y03068*
X03977Y03067*
X039824Y03068*
X039869Y030711*
X0399Y030756*
X039905Y030783*
X039935Y030808*
X039985Y030802*
X040004Y030759*
X03998Y030724*
X039969Y03067*
X03998Y030616*
X040011Y030571*
X040056Y03054*
X04011Y030529*
X040164Y03054*
X040209Y030571*
X04024Y030616*
X040251Y03067*
X04024Y030724*
X040216Y03076*
X040227Y030794*
X040238Y03081*
X04136*
X041395Y030817*
X041424Y030836*
X041647Y031059*
X041667Y031089*
X041673Y031123*
Y031433*
X04175*
X04176*
X0418*
X04181*
X042154*
Y03151*
X042543*
X042568Y03146*
X04255Y031434*
X04254Y03138*
X04255Y031326*
X042581Y031281*
X042626Y03125*
X04268Y03124*
X042734Y03125*
X042779Y031281*
X04281Y031326*
X042821Y03138*
X04281Y031434*
X042792Y03146*
X042817Y03151*
X04303*
X043065Y031517*
X043094Y031536*
X043291Y031733*
X043292Y031735*
X043294Y031736*
X043313Y031765*
X04332Y0318*
Y03309*
X043313Y033125*
X043294Y033154*
X043117Y033331*
X043088Y03335*
X043053Y033357*
X042938*
Y033523*
X042478*
X042448*
X042398*
X042051*
X042021Y03356*
X04201Y033614*
X041979Y033659*
X041934Y03369*
X04188Y0337*
X041826Y03369*
X041781Y033659*
X04175Y033614*
X0417Y033619*
Y034212*
X041759*
Y034135*
X042103*
X042113*
X042154*
X042181Y034085*
X04218Y034084*
X042169Y03403*
X04218Y033976*
X042192Y033958*
Y03358*
X042428*
Y033959*
X04244Y033976*
X04245Y03403*
X04244Y034084*
X042439Y034085*
X042466Y034135*
X042507*
Y034212*
X042696*
X042719Y034162*
X0427Y034134*
X042689Y03408*
X0427Y034026*
X042702Y034024*
X042703Y033974*
Y03358*
X042939*
Y033974*
X042955Y034019*
X04296Y034026*
X04297Y03408*
X04296Y034134*
X042941Y034162*
X042964Y034212*
X043084*
X043485Y03381*
X043483Y033809*
X043448Y033722*
X043435Y03363*
X043448Y033537*
X043483Y033451*
X04354Y033377*
X043614Y03332*
X0437Y033285*
X043793Y033273*
X043885Y033285*
X043972Y03332*
X044046Y033377*
X044102Y033451*
X044138Y033537*
X04415Y03363*
X044138Y033722*
X044102Y033809*
X044046Y033883*
X043972Y033939*
X043885Y033975*
X043793Y033987*
X0437Y033975*
X043614Y033939*
X043612Y033938*
X043185Y034366*
X043156Y034385*
X043121Y034392*
X042507*
Y034469*
X042234*
X042229Y034519*
X042234Y03452*
X042279Y034551*
X042284Y034558*
X04232Y034591*
X042655*
Y034678*
X04277*
Y034589*
X043105*
Y034932*
Y034943*
Y034982*
Y034993*
Y035069*
X043163*
X043226Y035006*
X043255Y034987*
X04329Y03498*
X043451*
X043483Y034901*
X04354Y034827*
X043614Y03477*
X0437Y034735*
X043793Y034723*
X043885Y034735*
X043972Y03477*
X044046Y034827*
X044102Y034901*
X044138Y034987*
X04415Y03508*
X044138Y035173*
X044102Y035259*
X044046Y035333*
X043972Y03539*
X043885Y035425*
X043793Y035437*
X0437Y035425*
X043614Y03539*
X04354Y035333*
X043483Y035259*
X043448Y035173*
X043446Y03516*
X043327*
X043264Y035223*
X043235Y035243*
X043201Y03525*
X043105*
Y035337*
X04277*
Y034993*
Y034982*
Y034943*
Y034932*
Y034859*
X042655*
Y034935*
Y034946*
Y034985*
Y034996*
Y035339*
X042578*
Y035633*
X042571Y035667*
X042551Y035696*
X042458Y035789*
X04246Y0358*
X04245Y035854*
X042419Y035899*
X042374Y03593*
X04232Y03594*
X042266Y03593*
X042221Y035899*
X04219Y035854*
X042179Y0358*
X04219Y035746*
X042221Y035701*
X042266Y03567*
X04232Y035659*
X042331Y035662*
X042397Y035595*
Y035339*
X04232*
Y034996*
Y034985*
Y034946*
Y034935*
Y034859*
X042299*
X042264Y034852*
X042235Y034832*
X042191Y034788*
X04218Y03479*
X042126Y03478*
X042114Y034772*
X042064Y034798*
Y034935*
Y034946*
Y034985*
Y034996*
Y035339*
X042031Y035389*
X042037Y03542*
X042027Y035474*
X041996Y035519*
X041951Y03555*
X041897Y035561*
X041843Y03555*
X041797Y035519*
X041767Y035474*
X041756Y03542*
X041762Y035389*
X04173Y035339*
Y034996*
Y034985*
Y034946*
Y034935*
Y034834*
X04168Y034819*
X041659Y034849*
X04165Y034855*
Y03494*
X041643Y034975*
X041624Y035004*
X041584Y035044*
X041555Y035063*
X04152Y03507*
X041436*
Y035182*
X0412*
Y034788*
X041342*
X041374Y034738*
X041371Y034731*
X040975*
X040944*
X040895*
X040434*
Y034691*
X040384Y034664*
X04038Y034667*
Y035337*
X04043Y035364*
X040436Y03536*
X04049Y03535*
X040544Y03536*
X040573Y03538*
X040717Y035236*
Y035182*
X040689*
Y034788*
X040925*
Y035182*
X040897*
Y035273*
X040891Y035307*
X040871Y035337*
X040743Y035465*
X040762Y035511*
X041027*
Y03559*
X041263*
Y035512*
X041597*
Y035855*
Y035866*
Y035905*
Y035916*
Y035992*
X041903*
X041937Y035999*
X041966Y036019*
X042114Y036166*
X042133Y036195*
X04214Y03623*
Y036415*
X042149Y036421*
X04218Y036466*
X04219Y03652*
X04218Y036574*
X042149Y036619*
X042104Y03665*
X04205Y03666*
X041996Y03665*
X041951Y036619*
X04192Y036574*
X041909Y03652*
X04192Y036466*
X041951Y036421*
X04196Y036415*
Y036267*
X041865Y036173*
X041597*
Y03626*
X041263*
Y036205*
X041228Y036191*
X041213Y036187*
X04117Y036216*
X041116Y036227*
X041077Y036219*
X041027Y036248*
Y036259*
X040693*
Y035916*
Y035905*
Y035866*
Y035855*
Y035779*
X040419*
X040384Y035772*
X040355Y035752*
X040226Y035624*
X040207Y035595*
X0402Y03556*
Y034914*
X04015Y034904*
X04014Y034929*
X040083Y035003*
X040009Y03506*
X039922Y035095*
X03983Y035107*
X039738Y035095*
X039651Y03506*
X039577Y035003*
X03952Y034929*
X039485Y034843*
X039473Y03475*
X039485Y034657*
X03952Y034571*
X039577Y034497*
X039651Y03444*
X039738Y034405*
X03983Y034393*
X039922Y034405*
X040009Y03444*
X040083Y034497*
X04014Y034571*
X04015Y034596*
X0402Y034586*
Y03458*
X040207Y034545*
X040226Y034516*
X040331Y034411*
X040361Y034391*
X040395Y034385*
X040434*
Y034219*
Y034063*
X040655*
X040679Y034017*
X040672Y03401*
X040653Y033981*
X040646Y033946*
Y033836*
X040559*
Y033549*
X040509Y033529*
X040334Y033704*
X040305Y033723*
X04027Y03373*
X040175*
Y033733*
X040139Y033819*
X040083Y033893*
X040009Y03395*
X039922Y033985*
X03983Y033997*
X039737Y033985*
X039651Y03395*
X039577Y033893*
X03952Y033819*
X039485Y033733*
X039473Y03364*
X039485Y033547*
X03952Y033461*
X039577Y033387*
X039651Y03333*
X039737Y033295*
X03983Y033283*
X039922Y033295*
X040009Y03333*
X040083Y033387*
X040139Y033461*
X040175Y033547*
Y03355*
X040233*
X040567Y033215*
Y03314*
X040517Y033105*
X04049Y03311*
X040436Y0331*
X040391Y033069*
X04036Y033024*
X040349Y03297*
X040352Y032959*
X040324Y032931*
X040304Y032902*
X040297Y032868*
Y032546*
X040236*
X040188Y032562*
X040183Y032593*
X040175Y032655*
X040139Y032741*
X040083Y032815*
X040009Y032872*
X039922Y032908*
X03983Y03292*
X039737Y032908*
X039651Y032872*
X039577Y032815*
X03952Y032741*
X039485Y032655*
X039473Y032562*
X039485Y03247*
X03952Y032384*
X039577Y03231*
X039651Y032253*
X03971Y032229*
Y03108*
X039717Y031045*
X039736Y031016*
X039754Y030998*
X039738Y030944*
X039716Y03094*
X039672Y03091*
X039527*
X038014Y032424*
X037985Y032443*
X03795Y03245*
X037007*
X036694Y032764*
X036665Y032783*
X03663Y03279*
X03554*
X035519Y032837*
X035533Y032847*
X035574Y032901*
X035599Y032963*
X035608Y03303*
X035599Y033097*
X035574Y033159*
X035533Y033212*
X035479Y033253*
X03544Y03327*
Y03374*
X035433Y033775*
X035414Y033804*
X03535Y033867*
X035366Y033917*
X035426*
Y034252*
X03534*
Y034358*
X035415*
X035426*
X035465*
X035476*
X03582*
Y034435*
X036235*
X03627Y034442*
X036299Y034462*
X036414Y034576*
X036433Y034605*
X03644Y03464*
Y03545*
X036433Y035485*
X036414Y035514*
X036289Y035639*
X03626Y035658*
X036225Y035665*
X03609*
X036084Y035712*
Y035949*
X035763*
Y036232*
X035756Y036267*
X035736Y036296*
X035623Y036409*
X035639Y036448*
X035648Y036515*
X035639Y036581*
X035613Y036644*
X035572Y036697*
X035519Y036738*
X035457Y036764*
X03539Y036773*
X035323Y036764*
X035261Y036738*
X035207Y036697*
X035166Y036644*
X03514Y036581*
X035132Y036515*
X03514Y036448*
X035161Y036398*
X035149Y03636*
X035137Y036342*
X035126Y03634*
X035081Y036309*
X03505Y036264*
X03504Y03621*
X03505Y036156*
X035081Y036111*
X035086Y036058*
X035079Y036047*
X035072Y036012*
Y035949*
X03498*
Y03596*
X034973Y035998*
X034951Y036031*
X034675Y036307*
X034691Y036347*
Y036682*
X034635*
Y036784*
X03478Y03693*
X03549*
X035662Y036758*
X03567Y036716*
X035701Y036671*
X035746Y03664*
X0358Y03663*
X035854Y03664*
X035899Y036671*
X03593Y036716*
X03594Y03677*
X03593Y036824*
X035899Y036869*
X035874Y036886*
X035625Y037135*
X035586Y037161*
X03554Y03717*
G37*
G36*
X04037Y036626D02*
X040316Y036615D01*
X040271Y036585*
X04024Y036539*
X04023Y036485*
X04024Y036432*
X040271Y036386*
X040316Y036356*
X04037Y036345*
X040424Y036356*
X040469Y036386*
X0405Y036432*
X040511Y036485*
X0405Y036539*
X040469Y036585*
X040424Y036615*
X04037Y036626*
G37*
G36*
X03918Y037001D02*
X039086Y036989D01*
X038999Y036952*
X038924Y036895*
X038866Y03682*
X03883Y036732*
X038818Y036639*
X03883Y036545*
X038866Y036458*
X038924Y036383*
X038999Y036325*
X039086Y036289*
X03918Y036277*
X039274Y036289*
X039361Y036325*
X039436Y036383*
X039494Y036458*
X03953Y036545*
X039542Y036639*
X03953Y036732*
X039494Y03682*
X039436Y036895*
X039361Y036952*
X039274Y036989*
X03918Y037001*
G37*
G36*
X03818D02*
X038086Y036989D01*
X037999Y036952*
X037924Y036895*
X037866Y03682*
X03783Y036732*
X037818Y036639*
X03783Y036545*
X037866Y036458*
X037924Y036383*
X037999Y036325*
X038086Y036289*
X03818Y036277*
X038274Y036289*
X038361Y036325*
X038436Y036383*
X038494Y036458*
X03853Y036545*
X038542Y036639*
X03853Y036732*
X038494Y03682*
X038436Y036895*
X038361Y036952*
X038274Y036989*
X03818Y037001*
G37*
G36*
X020806Y036959D02*
X020688Y036944D01*
X020578Y036898*
X020483Y036826*
X02041Y036731*
X020365Y036621*
X020349Y036503*
X020365Y036384*
X02041Y036274*
X020483Y03618*
X020578Y036107*
X020688Y036061*
X020806Y036046*
X020924Y036061*
X021034Y036107*
X021129Y03618*
X021201Y036274*
X021247Y036384*
X021263Y036503*
X021247Y036621*
X021201Y036731*
X021129Y036826*
X021034Y036898*
X020924Y036944*
X020806Y036959*
G37*
G36*
X043241Y036657D02*
X043148Y036645D01*
X043062Y03661*
X042988Y036553*
X042931Y036479*
X042895Y036393*
X042883Y0363*
X042895Y036207*
X042931Y036121*
X042988Y036047*
X043062Y035991*
X043148Y035955*
X043241Y035943*
X043333Y035955*
X043419Y035991*
X043493Y036047*
X04355Y036121*
X043586Y036207*
X043598Y0363*
X043586Y036393*
X04355Y036479*
X043493Y036553*
X043419Y03661*
X043333Y036645*
X043241Y036657*
G37*
G36*
X02671Y036105D02*
X026656Y036094D01*
X026611Y036064*
X02658Y036018*
X026569Y035965*
X02658Y035911*
X026611Y035865*
X026656Y035835*
X02671Y035824*
X026764Y035835*
X026809Y035865*
X02684Y035911*
X026851Y035965*
X02684Y036018*
X026809Y036064*
X026764Y036094*
X02671Y036105*
G37*
G36*
X02155Y03613D02*
X021496Y03612D01*
X021451Y036089*
X02142Y036044*
X021409Y03599*
X02141Y035985*
X02138Y03594*
X021326Y03593*
X021281Y035899*
X02125Y035854*
X02124Y0358*
X02125Y035746*
X021281Y035701*
X021326Y03567*
X02138Y035659*
X021434Y03567*
X021479Y035701*
X02151Y035746*
X021521Y0358*
X02152Y035805*
X02155Y035849*
X021604Y03586*
X021649Y035891*
X02168Y035936*
X02169Y03599*
X02168Y036044*
X021649Y036089*
X021604Y03612*
X02155Y03613*
G37*
G36*
X04Y035701D02*
X039946Y03569D01*
X039901Y035659*
X03987Y035614*
X039859Y03556*
X03987Y035506*
X039901Y035461*
X039946Y03543*
X04Y035419*
X040054Y03543*
X040099Y035461*
X04013Y035506*
X040141Y03556*
X04013Y035614*
X040099Y035659*
X040054Y03569*
X04Y035701*
G37*
G36*
X03918Y036001D02*
X039086Y035989D01*
X038999Y035952*
X038924Y035895*
X038866Y03582*
X03883Y035732*
X038818Y035639*
X03883Y035545*
X038866Y035458*
X038924Y035383*
X038999Y035325*
X039086Y035289*
X03918Y035277*
X039274Y035289*
X039361Y035325*
X039436Y035383*
X039494Y035458*
X03953Y035545*
X039542Y035639*
X03953Y035732*
X039494Y03582*
X039436Y035895*
X039361Y035952*
X039274Y035989*
X03918Y036001*
G37*
G36*
X02413Y03644D02*
X024076Y03643D01*
X024031Y036399*
X024Y036354*
X02399Y0363*
X024Y036246*
X024031Y036201*
X024054Y036185*
Y035801*
X024192*
Y035543*
X024033Y035383*
X024016Y03538*
X023971Y035349*
X02394Y035304*
X02393Y03525*
Y035245*
X023885Y035215*
X023864Y03523*
X02381Y03524*
X023756Y03523*
X023711Y035199*
X02368Y035154*
X023676Y035132*
X023622Y035116*
X023576Y035161*
Y035427*
X023745*
Y035846*
X023227*
Y035427*
X023396*
Y035124*
X023403Y035089*
X023422Y03506*
X023686Y034796*
X023715Y034777*
X02375Y03477*
X024303*
X024462Y034611*
X02446Y0346*
X02447Y034546*
X024501Y034501*
X024546Y03447*
X0246Y03446*
X024654Y03447*
X024699Y034501*
X02473Y034546*
X024741Y0346*
X02473Y034654*
X024699Y034699*
X024654Y03473*
X0246Y034741*
X024589Y034738*
X024404Y034924*
X024375Y034943*
X02434Y03495*
X023924*
X023909Y035*
Y035001*
X02394Y035046*
X023951Y0351*
X02395Y035105*
X023995Y035135*
X024016Y03512*
X02407Y03511*
X024124Y03512*
X024169Y035151*
X0242Y035196*
X024203Y035213*
X024398Y035408*
X024424Y035447*
X024433Y035493*
Y035801*
X024572*
Y03622*
X024298*
X024264Y03627*
X024271Y0363*
X02426Y036354*
X024229Y036399*
X024184Y03643*
X02413Y03644*
G37*
G36*
X0268Y03511D02*
X026746Y0351D01*
X026701Y035069*
X02667Y035024*
X02666Y03497*
X02667Y034916*
X026701Y034871*
X026746Y03484*
X0268Y034829*
X026854Y03484*
X026899Y034871*
X02693Y034916*
X026941Y03497*
X02693Y035024*
X026899Y035069*
X026854Y0351*
X0268Y03511*
G37*
G36*
X022711Y035347D02*
X022644Y035338D01*
X022582Y035312*
X022528Y035271*
X022487Y035217*
X022461Y035155*
X022453Y035088*
X022461Y035022*
X022487Y034959*
X022528Y034906*
X022582Y034865*
X022611Y034852*
X02262Y034824*
X02261Y03477*
X02262Y034716*
X022651Y034671*
X022696Y03464*
X02275Y034629*
X022764Y034632*
X022788Y034586*
X022687Y034485*
X022644Y034479*
X022582Y034454*
X022528Y034413*
X022487Y034359*
X022461Y034297*
X022453Y03423*
X022461Y034163*
X022487Y034101*
X022528Y034047*
X022582Y034006*
X02262Y03399*
Y033648*
X022443Y03347*
X022345*
Y033754*
Y03403*
X021695*
Y033726*
X021632*
X02151Y033847*
Y034535*
X021519Y034541*
X021521Y034542*
X021588Y034555*
X021597Y034549*
Y034522*
X022266*
Y0346*
X022316Y034627*
X022326Y03462*
X02238Y034609*
X022434Y03462*
X022479Y034651*
X02251Y034696*
X02252Y03475*
X02251Y034804*
X022479Y034849*
X022434Y03488*
X02238Y03489*
X022326Y03488*
X022316Y034873*
X022266Y0349*
Y03527*
X021597*
Y035055*
X021308*
X021275Y035105*
X021197Y035158*
X021105Y035176*
X020829*
X020737Y035158*
X020659Y035105*
X020607Y035027*
X020588Y034935*
X020607Y034843*
X020659Y034765*
X020737Y034713*
X020829Y034694*
X020846*
Y034541*
X020603*
Y033675*
X020846*
Y033596*
X020603*
Y03273*
X020846*
Y032577*
X020829*
X020737Y032559*
X020659Y032507*
X020607Y032429*
X020588Y032337*
X020607Y032244*
X020659Y032166*
X020737Y032114*
X020803Y032101*
X020846Y032083*
X020856Y032037*
X020882Y031998*
X020984Y031896*
X021Y031851*
Y031517*
X021354*
Y031851*
X02131Y03186*
X021301Y031906*
X021275Y031945*
X021159Y032062*
X021173Y032109*
X021197Y032114*
X021275Y032166*
X021308Y032216*
X021597*
Y032002*
X02226*
Y031785*
X022223*
Y03143*
X022537*
Y031785*
X0225*
Y03225*
X022491Y032296*
X022465Y032335*
X022365Y032435*
X022326Y032461*
X02228Y03247*
X022266Y032517*
Y03275*
X021597*
Y032457*
X021308*
X021275Y032507*
X021197Y032559*
X021105Y032577*
X021087*
Y03273*
X021331*
Y033596*
X021087*
Y033675*
X021331*
Y033701*
X021381Y033721*
X02153Y033572*
X02156Y033552*
X021594Y033545*
X021695*
Y033242*
Y032986*
X022303*
X022345Y032945*
X022384Y032919*
X02243Y03291*
X022484*
X022487Y032901*
X022528Y032847*
X022582Y032806*
X0226Y032799*
Y032775*
X022609Y032729*
X022635Y03269*
X023385Y03194*
X023361Y031893*
X023317Y031899*
X023223Y031886*
X023135Y03185*
X02306Y031793*
X023003Y031718*
X022967Y03163*
X022954Y031537*
X022967Y031443*
X023003Y031356*
X02306Y031281*
X023135Y031223*
X023223Y031187*
X023317Y031174*
X02341Y031187*
X023498Y031223*
X023573Y031281*
X02363Y031356*
X023666Y031443*
X023679Y031537*
X023666Y03163*
X02363Y031718*
X023579Y031784*
X023588Y031815*
X023601Y031834*
X025155*
X025201Y031843*
X02524Y03187*
X025401Y03203*
X025447Y032006*
X02544Y03197*
X02545Y031916*
X025481Y031871*
X025526Y03184*
X02558Y03183*
X025634Y03184*
X025679Y031871*
X02571Y031916*
X025721Y03197*
X02571Y032024*
X025697Y032043*
X025724Y032093*
X0258*
Y032407*
X02574*
Y03246*
X02586Y03258*
X0264*
X026463Y032517*
X026442Y032467*
X026408*
Y032033*
X026821*
Y032467*
X026735*
Y032536*
X026734Y032541*
X026765Y03258*
X027092*
X027106Y03257*
X02716Y032559*
X027214Y03257*
X027259Y032601*
X02729Y032646*
X027301Y0327*
X02729Y032754*
X027259Y032799*
X027214Y03283*
X02716Y03284*
X027106Y03283*
X027092Y03282*
X02645*
X02581*
X025764Y032811*
X025725Y032785*
X025535Y032595*
X025509Y032556*
X0255Y03251*
Y032407*
X025446*
Y03237*
X025404Y032361*
X025365Y032335*
X025306Y032277*
X025252Y032293*
X025243Y032342*
X02519Y03242*
X025112Y032473*
X02502Y032491*
X024928Y032473*
X02485Y03242*
X024797Y032342*
X024779Y03225*
X024797Y032158*
X024819Y032125*
X024793Y032075*
X023591*
X023013Y032653*
X023029Y032707*
X023044Y03271*
X023089Y032741*
X02312Y032786*
X023131Y03284*
X02312Y032894*
X023089Y032939*
X023044Y03297*
X02299Y03298*
X022965Y033004*
X022969Y03303*
X02296Y033097*
X022934Y033159*
X022893Y033213*
X02284Y033254*
X022777Y033279*
X022711Y033288*
X022644Y033279*
X022582Y033254*
X022528Y033213*
X022511Y03319*
X022446Y033184*
X022421Y033209*
X022382Y033235*
X02236Y03324*
X022365Y03329*
X02248*
X022514Y033296*
X022544Y033316*
X022775Y033547*
X022794Y033576*
X022801Y033611*
Y03399*
X02284Y034006*
X022893Y034047*
X022934Y034101*
X02296Y034163*
X022969Y03423*
X02296Y034297*
X022934Y034359*
X022893Y034413*
X022892Y034434*
X022949Y034492*
X02296Y03449*
X023014Y0345*
X023059Y034531*
X02309Y034576*
X023101Y03463*
X02309Y034684*
X023059Y034729*
X023014Y03476*
X02296Y034771*
X022938Y034766*
X022901Y034769*
X022884Y034802*
X02288Y034824*
X022849Y034869*
Y034872*
X022893Y034906*
X022934Y034959*
X02296Y035022*
X022969Y035088*
X02296Y035155*
X022934Y035217*
X022893Y035271*
X02284Y035312*
X022777Y035338*
X022711Y035347*
G37*
G36*
X04468Y034366D02*
X044587Y034353D01*
X044501Y034318*
X044427Y034261*
X04437Y034187*
X044335Y034101*
X044323Y034008*
X044335Y033916*
X04437Y03383*
X044427Y033756*
X044501Y033699*
X044587Y033663*
X04468Y033651*
X044773Y033663*
X044859Y033699*
X044933Y033756*
X04499Y03383*
X045025Y033916*
X045037Y034008*
X045025Y034101*
X04499Y034187*
X044933Y034261*
X044859Y034318*
X044773Y034353*
X04468Y034366*
G37*
G36*
X02706Y03341D02*
X027006Y0334D01*
X026961Y033369*
X02693Y033324*
X02692Y03327*
X02693Y033216*
X026961Y033171*
X027006Y03314*
X02706Y033129*
X027114Y03314*
X027159Y033171*
X02719Y033216*
X027201Y03327*
X02719Y033324*
X027159Y033369*
X027114Y0334*
X02706Y03341*
G37*
G36*
X04468Y033578D02*
X044587Y033566D01*
X044501Y03353*
X044427Y033474*
X04437Y0334*
X044335Y033313*
X044323Y033221*
X044335Y033128*
X04437Y033042*
X044427Y032968*
X044501Y032911*
X044587Y032876*
X04468Y032863*
X044773Y032876*
X044859Y032911*
X044933Y032968*
X04499Y033042*
X045025Y033128*
X045037Y033221*
X045025Y033313*
X04499Y0334*
X044933Y033474*
X044859Y03353*
X044773Y033566*
X04468Y033578*
G37*
G36*
X037726Y034585D02*
X03754Y034567D01*
X037362Y034513*
X037198Y034425*
X037054Y034307*
X036936Y034163*
X036849Y033999*
X036795Y033821*
X036776Y033636*
X036795Y033451*
X036849Y033272*
X036936Y033108*
X037054Y032964*
X037198Y032846*
X037362Y032759*
X03754Y032705*
X037726Y032686*
X037911Y032705*
X038089Y032759*
X038253Y032846*
X038397Y032964*
X038515Y033108*
X038603Y033272*
X038657Y033451*
X038675Y033636*
X038657Y033821*
X038603Y033999*
X038515Y034163*
X038397Y034307*
X038253Y034425*
X038089Y034513*
X037911Y034567*
X037726Y034585*
G37*
G36*
X023952D02*
X023767Y034567D01*
X023589Y034513*
X023425Y034425*
X023281Y034307*
X023163Y034163*
X023075Y033999*
X023021Y033821*
X023003Y033636*
X023021Y033451*
X023075Y033272*
X023163Y033108*
X023281Y032964*
X023425Y032846*
X023589Y032759*
X023767Y032705*
X023952Y032686*
X024137Y032705*
X024316Y032759*
X02448Y032846*
X024624Y032964*
X024742Y033108*
X024829Y033272*
X024883Y033451*
X024902Y033636*
X024883Y033821*
X024829Y033999*
X024742Y034163*
X024624Y034307*
X02448Y034425*
X024316Y034513*
X024137Y034567*
X023952Y034585*
G37*
G36*
X03168Y032931D02*
X031626Y03292D01*
X031581Y032889*
X03155Y032844*
X031539Y03279*
X03155Y032736*
X031581Y032691*
X031626Y03266*
X03168Y03265*
X031734Y03266*
X031779Y032691*
X03181Y032736*
X03182Y03279*
X03181Y032844*
X031779Y032889*
X031734Y03292*
X03168Y032931*
G37*
G36*
X03115Y03275D02*
X031096Y03274D01*
X031051Y032709*
X03102Y032664*
X03101Y03261*
X03102Y032556*
X031051Y032511*
X031096Y03248*
X03115Y032469*
X031204Y03248*
X031249Y032511*
X03128Y032556*
X031291Y03261*
X03128Y032664*
X031249Y032709*
X031204Y03274*
X03115Y03275*
G37*
G36*
X032154Y032715D02*
X0321Y032704D01*
X032055Y032673*
X032024Y032628*
X032014Y032574*
X032024Y03252*
X032055Y032475*
X0321Y032444*
X032154Y032434*
X032208Y032444*
X032253Y032475*
X032284Y03252*
X032295Y032574*
X032284Y032628*
X032253Y032673*
X032208Y032704*
X032154Y032715*
G37*
G36*
X04468Y032791D02*
X044587Y032779D01*
X044501Y032743*
X044427Y032686*
X04437Y032612*
X044335Y032526*
X044323Y032433*
X044335Y032341*
X04437Y032255*
X044427Y032181*
X044501Y032124*
X044587Y032088*
X04468Y032076*
X044773Y032088*
X044859Y032124*
X044933Y032181*
X04499Y032255*
X045025Y032341*
X045037Y032433*
X045025Y032526*
X04499Y032612*
X044933Y032686*
X044859Y032743*
X044773Y032779*
X04468Y032791*
G37*
G36*
X03117Y032331D02*
X031116Y03232D01*
X031071Y032289*
X03104Y032244*
X03103Y03219*
X03104Y032136*
X031071Y032091*
X031116Y03206*
X03117Y03205*
X031224Y03206*
X031269Y032091*
X0313Y032136*
X031311Y03219*
X0313Y032244*
X031269Y032289*
X031224Y03232*
X03117Y032331*
G37*
G36*
X02866D02*
X028606Y03232D01*
X028561Y032289*
X02853Y032244*
X028519Y03219*
X02853Y032136*
X028561Y032091*
X028606Y03206*
X02866Y03205*
X028714Y03206*
X028759Y032091*
X02879Y032136*
X0288Y03219*
X02879Y032244*
X028759Y032289*
X028714Y03232*
X02866Y032331*
G37*
G36*
X043793Y032537D02*
X0437Y032525D01*
X043614Y03249*
X04354Y032433*
X043483Y032359*
X043448Y032273*
X043436Y03218*
X043448Y032088*
X043483Y032001*
X04354Y031927*
X043614Y03187*
X0437Y031835*
X043793Y031823*
X043885Y031835*
X043972Y03187*
X044046Y031927*
X044102Y032001*
X044138Y032088*
X04415Y03218*
X044138Y032273*
X044102Y032359*
X044046Y032433*
X043972Y03249*
X043885Y032525*
X043793Y032537*
G37*
G36*
X03927Y031615D02*
X039216Y031604D01*
X039171Y031574*
X03914Y031528*
X03913Y031475*
X03914Y031421*
X039171Y031375*
X039216Y031345*
X03927Y031334*
X039324Y031345*
X039369Y031375*
X0394Y031421*
X039411Y031475*
X0394Y031528*
X039369Y031574*
X039324Y031604*
X03927Y031615*
G37*
G36*
X042051Y031252D02*
X041997Y031241D01*
X041952Y03121*
X041921Y031165*
X041911Y031111*
X041921Y031057*
X041952Y031012*
X041997Y030981*
X042051Y030971*
X042105Y030981*
X04215Y031012*
X042181Y031057*
X042192Y031111*
X042181Y031165*
X04215Y03121*
X042105Y031241*
X042051Y031252*
G37*
G36*
X0386Y030961D02*
X038546Y03095D01*
X038501Y030919*
X03847Y030874*
X038459Y03082*
X03847Y030766*
X038501Y030721*
X038546Y03069*
X0386Y03068*
X038654Y03069*
X038699Y030721*
X03873Y030766*
X03874Y03082*
X03873Y030874*
X038699Y030919*
X038654Y03095*
X0386Y030961*
G37*
G36*
X03222Y03088D02*
X032166Y03087D01*
X032121Y030839*
X03209Y030794*
X03208Y03074*
X03209Y030686*
X032121Y030641*
X032166Y03061*
X03222Y0306*
X032274Y03061*
X032319Y030641*
X03235Y030686*
X03236Y03074*
X03235Y030794*
X032319Y030839*
X032274Y03087*
X03222Y03088*
G37*
G36*
X03294Y030591D02*
X032886Y03058D01*
X032868Y030567*
X03283Y030553*
X032792Y030567*
X032774Y03058*
X03272Y030591*
X032666Y03058*
X032621Y030549*
X03259Y030504*
X03258Y03045*
X03259Y030396*
X032621Y030351*
X032666Y03032*
X03272Y03031*
X032774Y03032*
X032819Y030351*
X032841*
X032886Y03032*
X03294Y03031*
X032994Y03032*
X033039Y030351*
X03307Y030396*
X03308Y03045*
X03307Y030504*
X033039Y030549*
X032994Y03058*
X03294Y030591*
G37*
G36*
X043241Y031267D02*
X043148Y031255D01*
X043062Y03122*
X042988Y031163*
X042931Y031089*
X042895Y031003*
X042883Y03091*
X042895Y030817*
X042931Y030731*
X042988Y030657*
X043062Y0306*
X043148Y030565*
X043241Y030553*
X043333Y030565*
X043419Y0306*
X043493Y030657*
X04355Y030731*
X043586Y030817*
X043598Y03091*
X043586Y031003*
X04355Y031089*
X043493Y031163*
X043419Y03122*
X043333Y031255*
X043241Y031267*
G37*
G36*
X026091Y031561D02*
X024989D01*
Y030459*
X026091*
Y031561*
G37*
G36*
X027897D02*
X026795D01*
Y030459*
X027897*
Y031561*
G37*
G36*
X0447Y031244D02*
X044582Y031228D01*
X044472Y031183*
X044377Y03111*
X044305Y031016*
X044259Y030906*
X044243Y030787*
X044259Y030669*
X044305Y030559*
X044377Y030464*
X044472Y030392*
X044582Y030346*
X0447Y030331*
X044818Y030346*
X044928Y030392*
X045023Y030464*
X045095Y030559*
X045141Y030669*
X045157Y030787*
X045141Y030906*
X045095Y031016*
X045023Y03111*
X044928Y031183*
X044818Y031228*
X0447Y031244*
G37*
G36*
X03197Y03061D02*
X031916Y0306D01*
X031871Y030569*
X03184Y030524*
X03183Y03047*
X03184Y030416*
X031871Y030371*
X031916Y03034*
X03197Y030329*
X032024Y03034*
X032069Y030371*
X0321Y030416*
X032111Y03047*
X0321Y030524*
X032069Y030569*
X032024Y0306*
X03197Y03061*
G37*
%LNvapeix_mini_pcb-3*%
%LPD*%
G36*
X033346Y035956D02*
X033375Y035937D01*
X03341Y03593*
X033663*
X03368Y035913*
Y03581*
X033687Y035775*
X033689Y035772*
X033659Y035727*
X03364Y035731*
X033586Y03572*
X033541Y035689*
X03351Y035644*
X0335Y03559*
X03351Y035536*
X033541Y035491*
X033586Y03546*
X03364Y03545*
X033694Y03546*
X033739Y035491*
X03377Y035536*
X03378Y035586*
X034024*
Y035439*
X034211*
X034329Y035322*
Y034956*
X03429Y034917*
X034247Y034946*
X034248Y034948*
X034257Y035015*
X034248Y035081*
X034222Y035144*
X034181Y035197*
X034128Y035238*
X034066Y035264*
X033999Y035273*
X033932Y035264*
X03387Y035238*
X033816Y035197*
X033775Y035144*
X03377Y035131*
X033713Y035123*
X033503Y035333*
Y035427*
X033496Y035462*
X033477Y035491*
X033208Y03576*
X033179Y035801*
X03321Y035846*
X033221Y0359*
X03321Y035954*
X033179Y035999*
X033134Y03603*
X03308Y03604*
X033026Y03603*
X032981Y035999*
X032975Y035991*
X03272*
X032715Y036041*
X032734Y036045*
X032779Y036075*
X03281Y036121*
X03282Y036175*
X03281Y036228*
X032779Y036274*
X032736Y036303*
Y036306*
X032757Y036353*
X032904*
X032936Y036366*
X033346Y035956*
G37*
G36*
X034414Y036326D02*
X034421Y036287D01*
X034443Y036255*
X03478Y035918*
Y03572*
X034787Y035682*
X034809Y035649*
X034954Y035504*
X034965Y035497*
Y035457*
X034957Y03541*
X0348*
X034765Y035403*
X034736Y035384*
X03471Y035358*
X03466Y035379*
Y035719*
X034653Y035754*
X034634Y035783*
X034511Y035906*
X034482Y035925*
X034462Y035929*
Y03594*
X034187*
X034175Y035985*
Y036044*
X034187Y03609*
X034209Y036105*
X034213Y036111*
X034222Y036123*
X03424Y036151*
X034251Y036205*
X03424Y036258*
X034214Y036297*
X034226Y036347*
X034287*
X034298*
X034337*
X034348*
X034414*
Y036326*
G37*
G36*
X035582Y036195D02*
Y035947D01*
X035416*
Y035457*
Y035437*
Y034946*
X035928*
Y034947*
X036084*
Y034983*
X036094*
X036128Y03499*
X036158Y03501*
X036204Y035056*
X03621Y035065*
X03626Y03505*
Y034677*
X036198Y034616*
X03582*
Y034693*
X035476*
X035465*
X035426*
X035415*
X035339*
Y034761*
X035332Y034796*
X035327Y034803*
X035331Y03482*
X03532Y034874*
X035305Y034897*
X035331Y034947*
X035359*
Y035152*
Y035183*
Y035202*
Y035407*
Y035438*
Y035488*
Y035662*
Y035693*
Y035712*
Y035949*
X03529*
X035264Y035994*
Y035999*
X03527Y03603*
Y036105*
X035279Y036111*
X03531Y036156*
X03532Y03621*
X035319Y036215*
X035361Y03626*
X03539Y036257*
X035457Y036265*
X035495Y036281*
X035582Y036195*
G37*
G36*
X040563Y032776D02*
Y032767D01*
X04057Y032732*
X04059Y032703*
X040702Y032591*
X040682Y032545*
X040642*
Y032054*
Y032035*
Y031544*
X040817*
Y031322*
X04073*
X04069*
X040336*
Y031263*
X040286Y031252*
X040244Y03128*
X04019Y031291*
X040147Y031282*
X040121Y031309*
X040114Y031322*
X04013Y031346*
X040141Y0314*
X04013Y031454*
X040099Y031499*
X04009Y031505*
Y031783*
X040134Y031827*
X040191*
Y031799*
X040584*
Y032035*
X040278*
X040238Y032085*
X040241Y0321*
X04023Y032154*
X040199Y032199*
X040154Y03223*
X0401Y032241*
X040066Y032234*
X040044Y03228*
X040083Y03231*
X040139Y032384*
X040141Y032387*
X040191Y032377*
Y03231*
X040584*
Y032546*
X040478*
Y032781*
X040482Y032797*
X040518Y032809*
X040563Y032776*
G37*
G54D13*
X028653Y033033D03*
Y033427D03*
X02238Y031607D03*
Y031214D03*
G54D15*
X0294Y031893D03*
Y032287D03*
X0301Y031893D03*
Y032287D03*
X03078D03*
Y031893D03*
X028634Y034723D03*
Y03433D03*
X04143Y035689D03*
Y036083D03*
X04086Y035689D03*
Y036082D03*
X042937Y034766D03*
Y035159D03*
X042487Y034769D03*
Y035162D03*
X041897Y034769D03*
Y035162D03*
X041548Y033197D03*
Y032803D03*
X034727Y03427D03*
Y034664D03*
X034292Y033823D03*
Y034217D03*
G54D16*
X027146Y03225D03*
X026614D03*
X029593Y035445D03*
X029061D03*
G54D18*
X025623Y03225D03*
X026017D03*
G54D26*
X029597Y035949D03*
X029203D03*
X021177Y031684D03*
X020783D03*
X041936Y034302D03*
X04233D03*
X040736Y033669D03*
X04113D03*
X042877Y032352D03*
X042483D03*
X034121Y036515D03*
X034514D03*
X032727Y03652D03*
X032333D03*
X035249Y034525D03*
X035643D03*
Y034085D03*
X035249D03*
X041977Y0316D03*
X041583D03*
X041573Y03206D03*
X041967D03*
X040907Y031155D03*
X040513D03*
G54D27*
X03254Y035715D03*
X029887Y036595D03*
G54D28*
X031792Y035715D03*
X029139Y036595D03*
G54D35*
X024313Y036011D03*
X023486Y036385D03*
Y035637D03*
G54D38*
X040552Y034985D03*
X040807D03*
X041318D03*
X041062D03*
Y03426D03*
X041318D03*
X040807D03*
X040552D03*
X042055Y033777D03*
X04231D03*
X042821D03*
X042565D03*
Y033052D03*
X042821D03*
X04231D03*
X042055D03*
G54D43*
X029185Y03595D02*
X02919Y035955D01*
X02883Y03595D02*
X029185D01*
X02878Y036D02*
X02883Y03595D01*
X02989Y03604D02*
Y03658D01*
X029807Y035957D02*
X02989Y03604D01*
X02959Y035957D02*
X029807D01*
X023486Y035124D02*
X02375Y03486D01*
X023486Y035124D02*
Y035637D01*
X02375Y03486D02*
X02434D01*
X02825Y0331D02*
X02826Y03311D01*
X040388Y031492D02*
X04039Y03149D01*
X040388Y031492D02*
Y031662D01*
X03984Y03241D02*
Y03255D01*
X0398Y03237D02*
X03984Y03241D01*
X0398Y03108D02*
Y03237D01*
Y03108D02*
X03998Y0309D01*
X04027Y03364D02*
X040657Y033253D01*
X03973Y03364D02*
X04027D01*
X033613Y032907D02*
Y034113D01*
Y032907D02*
X033772Y032748D01*
X033613Y034113D02*
X034419Y034919D01*
X02959Y035957D02*
X029593Y035955D01*
Y035445D02*
Y035955D01*
X03266Y03617D02*
X03268D01*
X03254Y03605D02*
X03266Y03617D01*
X03254Y035815D02*
Y03605D01*
Y035815D02*
X032623Y035733D01*
X03254Y03571D02*
X03313D01*
X02865Y03302D02*
X0289D01*
X029157Y03472D02*
X029175Y034702D01*
X028616Y03472D02*
X029157D01*
X02861Y034726D02*
X028616Y03472D01*
X0294Y03228D02*
X030143D01*
X0294Y03229D02*
Y03261D01*
X030143Y03228D02*
X03015Y032287D01*
X03007Y03237D02*
X03015Y03229D01*
X02993Y03189D02*
X03015D01*
X02984Y03198D02*
X02993Y03189D01*
X0289Y03302D02*
X02898Y0331D01*
X02863Y033034D02*
X028634Y03303D01*
X03303Y03245D02*
X033031Y032449D01*
X03478Y03292D02*
Y03377D01*
X034608Y032748D02*
X03478Y03292D01*
X034521Y032748D02*
X034608D01*
X034419Y034919D02*
Y035359D01*
X033772Y032748D02*
X034279D01*
X04029Y03556D02*
X040419Y035689D01*
X04029Y03458D02*
Y03556D01*
Y03458D02*
X040395Y034475D01*
X03565Y03376D02*
Y03408D01*
X03457Y03488D02*
Y035719D01*
X03429Y0346D02*
X03457Y03488D01*
X03429Y03421D02*
Y0346D01*
X034447Y035842D02*
X03457Y035719D01*
X03377Y03581D02*
X03389Y03569D01*
X03377Y03581D02*
Y03595D01*
X03341Y03602D02*
X0337D01*
X032915Y036515D02*
X03341Y03602D01*
X03273Y036515D02*
X032915D01*
X0337Y03602D02*
X03377Y03595D01*
X03525Y03409D02*
Y03454D01*
X03519Y03482D02*
X035249Y034761D01*
Y034525D02*
Y034761D01*
X030109Y035539D02*
X030314D01*
X029941Y035371D02*
X030109Y035539D01*
X029925Y035371D02*
X029941D01*
X041062Y035192D02*
X04131Y03544D01*
X04168*
X03472Y03561D02*
X03483Y0355D01*
X03472Y03561D02*
Y03588D01*
X034599Y036001D02*
X03472Y03588D01*
X034324Y036001D02*
X034599D01*
X034181Y035597D02*
X034419Y035359D01*
X03449Y03443D02*
X03473Y03467D01*
X03449Y03406D02*
Y03443D01*
Y03406D02*
X03478Y03377D01*
X034324Y035842D02*
X034447D01*
X03358Y03536D02*
X033729D01*
X041062Y034985D02*
Y035192D01*
X032302Y036282D02*
Y03652D01*
X03149Y03619D02*
Y036515D01*
Y03612D02*
Y03619D01*
X032302Y03652D02*
X032333D01*
X03221Y03619D02*
X032302Y036282D01*
X03149Y03619D02*
X03221D01*
X030314Y03487D02*
Y035284D01*
X03291Y03233D02*
X03303Y03245D01*
X03795Y03236D02*
X03949Y03082D01*
X03697Y03236D02*
X03795D01*
X03663Y0327D02*
X03697Y03236D01*
X03554Y0327D02*
X03663D01*
X035289Y032449D02*
X03554Y0327D01*
X033031Y032449D02*
X035289D01*
X034518Y032745D02*
X034521Y032748D01*
X034282Y032745D02*
X034518D01*
X034279Y032748D02*
X034282Y032745D01*
X036235Y034525D02*
X03635Y03464D01*
Y03545*
X03949Y03082D02*
X03977D01*
X04Y03182D02*
X040097Y031917D01*
X040388*
X042821Y033777D02*
Y034071D01*
X04283Y03408*
X03028Y03261D02*
X0306Y03229D01*
X03518Y03603D02*
Y03621D01*
X035162Y036012D02*
X03518Y03603D01*
X03519Y034801D02*
Y03482D01*
X03535Y03303D02*
Y03374D01*
X035249Y033841D02*
X03535Y03374D01*
X035249Y033841D02*
X03525Y03409D01*
X02984Y03198D02*
Y03204D01*
X03134Y0356D02*
Y03597D01*
X03149Y03612*
X041318Y034985D02*
X041323Y03498D01*
X029569Y032669D02*
Y033088D01*
X02191Y03442D02*
X02198D01*
X02202Y03438*
Y034148D02*
Y03438D01*
X029593Y035263D02*
Y035445D01*
X02956Y03523D02*
X029593Y035263D01*
X02956Y03471D02*
Y03523D01*
Y03471D02*
X029569Y034702D01*
X02878Y036D02*
Y03626D01*
X029372Y033088D02*
Y033488D01*
X02932Y03354D02*
X029372Y033488D01*
X02898Y0331D02*
Y03349D01*
X02903Y03354*
X02932*
X029766Y032664D02*
Y033088D01*
Y032664D02*
X02982Y03261D01*
X03028*
X034018Y035924D02*
Y036098D01*
X033375Y036516D02*
X03369Y0362D01*
X035162Y035831D02*
Y036012D01*
X034018Y036098D02*
X034121Y0362D01*
Y036515*
X03369Y0362D02*
X034121D01*
X03473Y03525D02*
X0348Y03532D01*
X03516*
X033729Y03536D02*
X033894Y035525D01*
X034391Y033039D02*
Y033379D01*
Y033039D02*
X0344Y03303D01*
X035672Y035192D02*
D01*
X036094Y035074D02*
X03614Y03512D01*
X035672Y035192D02*
X03579Y035074D01*
X036094*
X03539Y036515D02*
X035672Y036232D01*
Y035702D02*
Y036232D01*
X035887Y035575D02*
X036225D01*
X04231Y0328D02*
Y033052D01*
Y0328D02*
X04242Y03269D01*
X04276*
X042877Y032573*
Y032352D02*
Y032573D01*
X02951Y03261D02*
X029569Y032669D01*
X0306Y03229D02*
X03077D01*
X0294Y03261D02*
X02951D01*
X03429Y03348D02*
X034391Y033379D01*
X034667Y034664D02*
X034697D01*
X035643Y034525D02*
X036235D01*
X04143Y036083D02*
Y036135D01*
X04Y0314D02*
Y03182D01*
X041113Y032172D02*
X041278D01*
X04139Y03206*
X041573*
X041583Y031123D02*
Y0316D01*
X04136Y0309D02*
X041583Y031123D01*
X03998Y0309D02*
X04136D01*
X040907Y031155D02*
Y03178D01*
X040898Y031789D02*
X040907Y03178D01*
X041323Y03498D02*
X04152D01*
X04156Y03494*
Y03475D02*
Y03494D01*
X041936Y034302D02*
Y034474D01*
X0419Y03451D02*
X041936Y034474D01*
X0419Y03451D02*
Y03477D01*
X04093Y035689D02*
X040939Y03568D01*
X041421*
X04143Y035689*
X041112Y036082D02*
X041116Y036086D01*
X04086Y036082D02*
X041112D01*
X042487Y035162D02*
Y035633D01*
X04232Y0358D02*
X042487Y035633D01*
X041897Y035162D02*
Y03542D01*
Y03543*
X04143Y036083D02*
X041903D01*
X04205Y03623*
Y03652*
X042937Y035159D02*
X043201D01*
X04329Y03507*
X043783*
X043793Y03508*
X042487Y034769D02*
X042934D01*
X042937Y034766*
X041548Y032803D02*
X041867D01*
X041977Y0316D02*
X04303D01*
X043227Y031797*
X042693Y033267D02*
X043053D01*
X04323Y03309*
Y0318D02*
Y03309D01*
X040195Y031155D02*
X040513D01*
X04019Y03115D02*
X040195Y031155D01*
X04113Y033669D02*
X041419D01*
X041844Y032576D02*
X041967Y032453D01*
Y03206D02*
Y032453D01*
X040485Y035495D02*
X040585D01*
X040807Y035273*
Y034985D02*
Y035273D01*
X040419Y035689D02*
X04086D01*
X040395Y034475D02*
X040679D01*
X021892Y034935D02*
X021931Y034896D01*
X029372Y034202D02*
Y034702D01*
X040807Y034017D02*
Y03426D01*
X040736Y033669D02*
Y033946D01*
X040807Y034017*
X040844Y032576D02*
X041844D01*
X040653Y032767D02*
X040844Y032576D01*
X040388Y032428D02*
Y032868D01*
X04049Y03297*
X040653Y032897D02*
X040657Y032901D01*
X040653Y032767D02*
Y032897D01*
X040657Y032901D02*
Y033253D01*
X042299Y034769D02*
X042487D01*
X04218Y03465D02*
X042299Y034769D01*
X029766Y034702D02*
Y035036D01*
X03429Y03348D02*
Y03382D01*
X033693Y035015D02*
X033999D01*
X033413Y035295D02*
Y035427D01*
X03313Y03571D02*
X033413Y035427D01*
Y035295D02*
X033693Y035015D01*
X02937Y0342D02*
X029372Y034202D01*
X036225Y035575D02*
X03635Y03545D01*
X03Y0342D02*
X03001Y03419D01*
X03473Y03466D02*
Y03525D01*
X029766Y035036D02*
X029933Y035203D01*
X029995*
X030075Y035284*
X030314*
X03016Y03434D02*
X03017Y03435D01*
X04188Y0333D02*
Y03356D01*
Y0333D02*
X041913Y033267D01*
X042182*
X041189Y034475D02*
X041363Y034302D01*
X041548Y033197D02*
Y033408D01*
X04161Y03347*
Y034302*
X041363D02*
X04161D01*
X041936*
X04231Y033777D02*
D01*
Y03403D01*
X043121Y034302D02*
X043793Y03363D01*
X04233Y034302D02*
X043121D01*
X042483Y032017D02*
Y032352D01*
Y032017D02*
X04264Y03186D01*
X04305*
X02434Y03486D02*
X0246Y0346D01*
X021594Y033636D02*
X02202D01*
X022711Y03423D02*
Y034381D01*
X02296Y03463*
X02993Y03039D02*
X0305Y03096D01*
X0311Y03048D02*
X032114Y031494D01*
X032427*
X0305Y03096D02*
X03129D01*
X03266Y03233*
X03291*
X021892Y032337D02*
X021931Y032376D01*
X021957Y03235*
X02202Y03338D02*
X02248D01*
X022711Y033611*
Y03423*
X02142Y03381D02*
X021594Y033636D01*
X02142Y03381D02*
Y03465D01*
X02275Y03477D02*
Y03487D01*
X02269Y03493D02*
X02275Y03487D01*
X02269Y03493D02*
Y035068D01*
X022711Y035088*
G54D44*
X02407Y03525D02*
X024313Y035493D01*
X02562Y03225D02*
Y03251D01*
X02839Y03342D02*
X02865D01*
X02826Y03329D02*
X02839Y03342D01*
X02826Y03271D02*
X02837Y0326D01*
X032499Y032478D02*
X032836D01*
X032958Y0326*
X034218*
X034827Y032597D02*
X03498Y03275D01*
X034221Y032597D02*
X034827D01*
X034218Y0326D02*
X034221Y032597D01*
X0358Y036775D02*
X035815D01*
X03554Y03705D02*
X035815Y036775D01*
X03473Y03705D02*
X03554D01*
X03498Y03502D02*
X035025Y035065D01*
X03498Y03433D02*
Y03502D01*
X025764Y035924D02*
X026435Y036595D01*
X02914*
X02837Y0326D02*
X02907D01*
X029175Y032705*
Y033088*
X031059Y034969D02*
X031682D01*
X031792Y035332D02*
Y03569D01*
Y035332D02*
X032154Y034969D01*
X030648Y033088D02*
X03088Y03332D01*
X020967Y033163D02*
Y034108D01*
Y034935*
Y032337D02*
Y033163D01*
Y034935D02*
X021892D01*
X030873Y034783D02*
X031059Y034969D01*
X030825Y035035D02*
Y035411D01*
X030443Y034653D02*
X030825Y035035D01*
X029962Y033088D02*
X030648D01*
X029962D02*
Y034142D01*
X034514Y036515D02*
Y036834D01*
X03473Y03705*
X02974Y0342D02*
X03D01*
X029962Y034142D02*
X03001Y03419D01*
X03016Y03434*
X030323Y034653D02*
X030443D01*
X030873Y034279D02*
Y034783D01*
X03088Y03332D02*
Y03359D01*
X03017Y0345D02*
X030323Y034653D01*
X03017Y03435D02*
Y0345D01*
X025764Y03592D02*
Y035924D01*
X03498Y03275D02*
Y03433D01*
X02826Y03271D02*
Y03311D01*
Y03329*
X026614Y03227D02*
Y032536D01*
X024313Y035493D02*
Y036011D01*
X02202Y033124D02*
X022336D01*
X02243Y03303*
X022711*
X02272Y032775D02*
Y03303D01*
X02645Y0327D02*
X02716D01*
X02562Y03251D02*
X02581Y0327D01*
X02645*
X026614Y032536*
X02545Y03225D02*
X02562D01*
X02272Y032775D02*
X023541Y031955D01*
X025155*
X02545Y03225*
X03049Y03116D02*
X031181D01*
X032499Y032478*
X020967Y032337D02*
X021892D01*
X020967Y032083D02*
Y032337D01*
Y032083D02*
X02119Y03186D01*
Y03168D02*
Y03186D01*
X021957Y03235D02*
X02228D01*
X02238Y03225*
Y031607D02*
Y03225D01*
G54D47*
X03488Y03572D02*
Y03596D01*
Y03572D02*
X035025Y035575D01*
X035162*
X034514Y036326D02*
X03488Y03596D01*
X034514Y036326D02*
Y036515D01*
X035025Y035065D02*
X035162D01*
X03492Y03427D02*
X03498Y03433D01*
X03471Y03427D02*
X03492D01*
G54D49*
X02554Y031D03*
X02736D03*
G54D50*
X043241Y0363D03*
X043793Y03218D03*
Y03363D03*
Y03508D03*
X04468Y032433D03*
Y033221D03*
Y034796D03*
Y034008D03*
X043241Y03091D03*
X03983Y03364D03*
Y03475D03*
Y032562D03*
G54D51*
X020806Y030806D03*
Y036503D03*
X0447Y036484D03*
Y030787D03*
G54D52*
X020967Y032337D03*
Y034935D03*
G54D53*
X03818Y036639D03*
X03918D03*
Y035639D03*
X03818D03*
X021742Y031537D03*
X023317D03*
G54D54*
X02395Y03435D03*
X023426Y034124D03*
X023244Y033636D03*
X023426Y033159D03*
X02395Y032923D03*
X02447Y033159D03*
X02466Y033636D03*
X024458Y034124D03*
X038231D03*
X038434Y033635D03*
X038243Y033159D03*
X037724Y032923D03*
X0372Y033159D03*
X037018Y033635D03*
X0372Y034124D03*
X037724Y03435D03*
X022551Y035995D03*
X022944D03*
X022748Y036191D03*
Y035798D03*
G54D55*
X023952Y033636D03*
X037726D03*
G54D56*
X02481Y03543D03*
X02407Y03525D03*
X02413Y0363D03*
X02381Y0351D03*
X02716Y0327D03*
X02706Y03327D03*
X02558Y03197D03*
X04039Y03149D03*
X03402Y03392D03*
X0294Y03189D03*
X03268Y036175D03*
X03565Y03376D03*
X03283Y03025D03*
X03828Y03074D03*
X039Y03059D03*
X03879Y03041D03*
X03901Y03024D03*
X03112Y033216D03*
X04205Y03378D03*
X04168Y03544D03*
X03483Y0355D03*
X04055Y03499D03*
X032Y03659D03*
X030314Y03487D03*
X03312Y03166D03*
X0338Y03134D03*
X03442D03*
Y031D03*
X03346Y03183D03*
X0338Y03228D03*
Y03198D03*
X03442Y03228D03*
Y03166D03*
Y03198D03*
X03472Y03213D03*
X03576Y03484D03*
X03565Y03408D03*
X03785Y03201D03*
X03905Y03164D03*
X03855Y03024D03*
X03831Y03039D03*
X03854Y03058D03*
X03809Y03182D03*
X03312Y0313D03*
Y03096D03*
X03313Y03059D03*
Y03025D03*
X03312Y03198D03*
X03501D03*
X03859Y03467D03*
X03497Y0366D03*
X03624Y03643D03*
X03625Y03587D03*
X03862Y03545D03*
X03861Y03688D03*
Y03591D03*
X03862Y03639D03*
Y03664D03*
Y03568D03*
X03696Y03264D03*
X03674Y03288D03*
X03627Y03316D03*
X03775Y03527D03*
X0358Y03677D03*
X03605Y03678D03*
X03751Y03543D03*
X03726D03*
X03736Y03585D03*
Y03643D03*
X03872Y03486D03*
X0384D03*
X03806D03*
X03887Y03504D03*
X03853D03*
X03821D03*
X03789D03*
X03659Y03317D03*
X03651Y03349D03*
Y0338D03*
X03657Y03408D03*
X03671Y03432D03*
X0369Y03454D03*
X03764Y03493D03*
X03712Y03473D03*
X03737Y03485D03*
X03346Y03214D03*
X03737Y03518D03*
X036Y03483D03*
X0362Y03393D03*
X03626Y03417D03*
X03779Y03588D03*
X03778Y03643D03*
X03752Y03683D03*
X0364Y03679D03*
X03722Y03683D03*
X03711Y03507D03*
X0369Y03494D03*
X03669Y03478D03*
X03651Y03458D03*
X03637Y03438D03*
X0362Y03343D03*
X03619Y03368D03*
X0338Y03101D03*
Y03166D03*
X03412Y03183D03*
X03312Y03228D03*
X03347Y03041D03*
Y0308D03*
Y03117D03*
X03345Y03152D03*
X0338Y03061D03*
X03381Y03023D03*
X03413Y03082D03*
X03412Y03116D03*
X03413Y03042D03*
X03444Y03026D03*
X03443Y03063D03*
X0364Y03219D03*
X0362Y03239D03*
X0374Y03202D03*
X03768Y03182D03*
X037Y03203D03*
X0366Y03204D03*
X0372Y03183D03*
X0401Y0321D03*
X0368Y03184D03*
X03809Y03138D03*
X0381Y03098D03*
X03811Y03058D03*
X03812Y03023D03*
X03621Y03203D03*
X03788Y0304D03*
X03413Y03214D03*
X03472Y03183D03*
X03412Y03152D03*
X03601Y0322D03*
X0364Y03185D03*
X03601Y03186D03*
X03789Y03162D03*
X03787Y0312D03*
Y03079D03*
X0386Y03082D03*
X03768Y03024D03*
X03501Y03166D03*
Y03227D03*
X0358Y03239D03*
Y03204D03*
X03768Y03059D03*
Y03099D03*
Y03139D03*
X0374Y03165D03*
X037D03*
X0366D03*
X0362D03*
X0358D03*
X04283Y03408D03*
X03115Y03261D03*
X03099Y03304D03*
X03168Y03279D03*
X03049Y03264D03*
X03518Y03621D03*
X03519Y03482D03*
X03222Y03074D03*
X03977Y03081D03*
X03385Y03679D03*
X032469Y03623D03*
X03375Y036535D03*
X02984Y03204D03*
X02848Y03633D03*
X0268Y03497D03*
X02138Y0358D03*
X03134Y0356D03*
X02155Y03599D03*
X032154Y032574D03*
X0294Y03261D03*
X03276Y03268D03*
X03378Y03316D03*
X02299Y03284D03*
X02878Y03626D03*
X03411Y036205D03*
X03358Y035365D03*
X03614Y035205D03*
X03364Y03559D03*
X02671Y035965D03*
X03308Y0359D03*
X03401Y03321D03*
Y03344D03*
X04Y0314D03*
X04156Y03475D03*
X041116Y036086D03*
X041897Y03542D03*
X04232Y0358D03*
X04205Y03652D03*
X041867Y032803D03*
X04019Y03115D03*
X04142Y03367D03*
X03927Y031475D03*
X04049Y03549D03*
X03294Y03045D03*
X03272D03*
X03117Y03219D03*
X04Y03556D03*
X04049Y03297D03*
X04083Y03307D03*
X04218Y03465D03*
X042051Y031111D03*
X03395Y03368D03*
X04011Y03067D03*
X02974Y0342D03*
X02937D03*
X03036Y03429D03*
X03049Y03115D03*
X029925Y035371D03*
X03042Y03407D03*
X03033Y03364D03*
X03022Y03345D03*
X03043Y03385D03*
X04268Y03138D03*
X04273Y03686D03*
X04188Y03356D03*
X04231Y03403D03*
X04305Y03186D03*
X025764Y03592D03*
X03382Y034024D03*
X04037Y036485D03*
X02191Y03442D03*
X04122Y03142D03*
X02866Y03219D03*
X02296Y03463D03*
X0246Y0346D03*
X02142Y03464D03*
X03073Y03162D03*
X02993Y03039D03*
X0311Y03048D03*
X03197Y03047D03*
X032427Y031494D03*
X02238Y03475D03*
X02275Y03477D03*
G54D57*
X033099Y033552D03*
X032627D03*
X032154D03*
X031682D03*
X033099Y034025D03*
X032627D03*
X032154D03*
X031682D03*
X033099Y034497D03*
X032627D03*
X032154D03*
X031682D03*
X033099Y034969D03*
X032627D03*
X032154D03*
X031682D03*
G54D58*
X02502Y03225D03*
G54D69*
X021931Y032376D03*
Y034896D03*
G54D70*
X020967Y034108D03*
Y033163D03*
G54D71*
X02202Y034148D03*
Y033892D03*
Y033124D03*
Y03338D03*
Y033636D03*
G54D72*
X022711Y035088D03*
Y03423D03*
Y0322D03*
Y03303D03*
X03539Y036515D03*
X033375Y036516D03*
X033999Y035015D03*
X03149Y036515D03*
X03535Y03303D03*
X0344D03*
G54D73*
X041189Y034475D03*
X042693Y033267D03*
G54D74*
X040679Y034475D03*
X042182Y033267D03*
G54D75*
X035887Y035065D03*
Y03532D03*
Y035831D03*
Y035575D03*
X035162D03*
Y035831D03*
Y03532D03*
Y035065D03*
X031039Y035284D03*
Y035539D03*
Y03605D03*
Y035794D03*
X030314D03*
Y03605D03*
Y035539D03*
Y035284D03*
X041113Y031662D03*
Y031917D03*
Y032428D03*
Y032172D03*
X040388D03*
Y032428D03*
Y031917D03*
Y031662D03*
G54D76*
X035672Y035192D03*
X030825Y035411D03*
X040898Y031789D03*
G54D77*
X035672Y035702D03*
X030825Y035922D03*
X040898Y032299D03*
G54D78*
X033894Y035685D03*
Y035525D03*
X034324Y035842D03*
Y036001D03*
G54D79*
X034181Y035597D03*
X034018Y035924D03*
G54D80*
X030873Y03361D03*
Y034279D03*
G54D81*
X029175Y034702D03*
X029372D03*
X029569D03*
X029766D03*
X029962D03*
X029175Y033088D03*
X029372D03*
X029569D03*
X029766D03*
X029962D03*
G54D82*
X02554Y03101D03*
X027346D03*
M02*