%FSTAX23Y23*%
%MOIN*%
%SFA1B1*%

%IPPOS*%
%ADD14R,0.023600X0.021700*%
%ADD15R,0.023600X0.019700*%
%ADD20R,0.011800X0.027600*%
%ADD21R,0.029500X0.031500*%
%ADD25R,0.040000X0.030000*%
%ADD31R,0.021700X0.023600*%
%ADD32R,0.031500X0.031500*%
%ADD33R,0.078700X0.043300*%
%ADD34R,0.019700X0.023600*%
%ADD51C,0.060000*%
%ADD52C,0.059100*%
%ADD53C,0.019700*%
%ADD54C,0.177200*%
%ADD55C,0.078700*%
%ADD56O,0.063000X0.035400*%
%ADD57C,0.070900*%
%ADD70R,0.039400X0.037200*%
%ADD71R,0.039400X0.037300*%
%ADD72R,0.027600X0.011800*%
%ADD73R,0.098400X0.098400*%
%ADD74O,0.011800X0.066900*%
%ADD75R,0.059100X0.051200*%
%ADD76C,0.039400*%
%ADD77R,0.015700X0.007900*%
%ADD78R,0.019700X0.019700*%
%ADD79R,0.037300X0.039400*%
%ADD80R,0.037200X0.039400*%
%ADD81R,0.053200X0.015700*%
%ADD82R,0.061000X0.074800*%
%ADD83R,0.055100X0.063000*%
%LNvapeix_mini_pcb-1*%
%LPD*%
G54D14*
X04051Y03115D03*
X0409D03*
X04196Y03206D03*
X04157D03*
X04158Y0316D03*
X04197D03*
X03524Y03408D03*
X03564D03*
Y03452D03*
X03524D03*
X03233Y03652D03*
X03272D03*
X03451Y03651D03*
X03412D03*
X04248Y03235D03*
X04287D03*
X04113Y03366D03*
X04073D03*
X04233Y0343D03*
X04193D03*
X02078Y03168D03*
X02117D03*
X0292Y03594D03*
X02959D03*
G54D15*
X02601Y03225D03*
X02562D03*
G54D20*
X04205Y03305D03*
X04231D03*
X04282D03*
X04256D03*
Y03377D03*
X04282D03*
X04231D03*
X04205D03*
X04055Y03426D03*
X0408D03*
X04131D03*
X04106D03*
Y03498D03*
X04131D03*
X0408D03*
X04055D03*
G54D21*
X02906Y03544D03*
X02959D03*
X02661Y03225D03*
X02714D03*
G54D25*
X02348Y03563D03*
Y03638D03*
X02431Y03601D03*
G54D31*
X03429Y03421D03*
Y03382D03*
X03472Y03466D03*
Y03427D03*
X04154Y0328D03*
Y03319D03*
X04189Y03516D03*
Y03476D03*
X04248Y03516D03*
Y03476D03*
X04293Y03515D03*
Y03476D03*
X04086Y03608D03*
Y03568D03*
X04143Y03608D03*
Y03568D03*
X02863Y03433D03*
Y03472D03*
X03078Y03189D03*
Y03228D03*
X0301D03*
Y03189D03*
X0294Y03228D03*
Y03189D03*
G54D32*
X02913Y03659D03*
X03179Y03571D03*
G54D33*
X02988Y03659D03*
X03254Y03571D03*
G54D34*
X02238Y03121D03*
Y0316D03*
X02865Y03342D03*
Y03303D03*
G54D51*
X02331Y03153D03*
X02174D03*
X03818Y03563D03*
X03918D03*
Y03663D03*
X03818D03*
G54D52*
X03983Y03256D03*
Y03475D03*
Y03364D03*
X04324Y03091D03*
X04468Y034D03*
Y03479D03*
Y03322D03*
Y03243D03*
X04379Y03508D03*
Y03363D03*
Y03218D03*
X04324Y0363D03*
G54D53*
X03772Y03435D03*
X0372Y03412D03*
X03701Y03363D03*
X0372Y03315D03*
X03772Y03292D03*
X03824Y03315D03*
X03843Y03363D03*
X03823Y03412D03*
X02445D03*
X02466Y03363D03*
X02447Y03315D03*
X02395Y03292D03*
X02342Y03315D03*
X02324Y03363D03*
X02342Y03412D03*
X02395Y03435D03*
G54D54*
X03772Y03363D03*
X02395D03*
G54D55*
X0447Y03078D03*
Y03648D03*
X0208Y0365D03*
Y0308D03*
G54D56*
X02096Y03493D03*
Y03233D03*
G54D57*
X02736Y031D03*
X02554D03*
G54D70*
X04089Y03229D03*
X03082Y03592D03*
X03567Y0357D03*
G54D71*
X04089Y03178D03*
X03082Y03541D03*
X03567Y03519D03*
G54D72*
X04038Y03166D03*
Y03191D03*
Y03242D03*
Y03217D03*
X04111D03*
Y03242D03*
Y03191D03*
Y03166D03*
X03031Y03528D03*
Y03553D03*
Y03605D03*
Y03579D03*
X03103D03*
Y03605D03*
Y03553D03*
Y03528D03*
X03516Y03506D03*
Y03532D03*
Y03583D03*
Y03557D03*
X03588D03*
Y03583D03*
Y03532D03*
Y03506D03*
G54D73*
X02734Y03101D03*
X02554D03*
G54D74*
X02996Y03308D03*
X02976D03*
X02956D03*
X02937D03*
X02917D03*
X02996Y0347D03*
X02976D03*
X02956D03*
X02937D03*
X02917D03*
G54D75*
X03087Y03427D03*
Y03361D03*
G54D76*
X0344Y03303D03*
X03535D03*
X03149Y03651D03*
X03399Y03501D03*
X03337Y03651D03*
X03539Y03651D03*
X02271Y03303D03*
Y0322D03*
Y03423D03*
Y03508D03*
G54D77*
X03432Y036D03*
Y03584D03*
X03389Y03552D03*
Y03568D03*
G54D78*
X03401Y03592D03*
X03418Y03559D03*
G54D79*
X04218Y03326D03*
X04067Y03447D03*
G54D80*
X04269Y03326D03*
X04118Y03447D03*
G54D81*
X02202Y03363D03*
Y03338D03*
Y03312D03*
Y03389D03*
Y03414D03*
G54D82*
X02096Y03316D03*
Y0341D03*
G54D83*
X02193Y03489D03*
Y03237D03*
M02*