%FSTAX23Y23*%
%MOIN*%
%SFA1B1*%

%IPPOS*%
%AMD126*
4,1,4,-0.001400,0.008300,-0.008300,0.001400,0.001400,-0.008300,0.008300,-0.001400,-0.001400,0.008300,0.0*
%
%AMD207*
4,1,4,-0.008300,-0.001400,-0.001400,-0.008300,0.008300,0.001400,0.001400,0.008300,-0.008300,-0.001400,0.0*
%
%AMD208*
4,1,4,-0.039000,-0.011100,-0.011100,-0.039000,0.039000,0.011100,0.011100,0.039000,-0.039000,-0.011100,0.0*
%
%ADD100R,0.008000X0.015800*%
%ADD101R,0.019800X0.019800*%
%ADD102R,0.078800X0.043400*%
%ADD103R,0.031600X0.031600*%
%ADD106R,0.011100X0.017000*%
%ADD107R,0.015800X0.008000*%
%ADD108R,0.019800X0.019800*%
%ADD112R,0.013900X0.009900*%
%ADD113R,0.017000X0.011100*%
%ADD125R,0.009900X0.013900*%
G04~CAMADD=126~9~0.0~0.0~99.0~139.0~0.0~0.0~0~0.0~0.0~0.0~0.0~0~0.0~0.0~0.0~0.0~0~0.0~0.0~0.0~45.0~166.0~165.0*
%ADD126D126*%
%ADD191R,0.061000X0.061000*%
%ADD192R,0.061000X0.061000*%
%ADD193R,0.009800X0.027600*%
%ADD194R,0.009800X0.027600*%
%ADD195R,0.009800X0.027600*%
%ADD196R,0.009800X0.027600*%
%ADD197R,0.027600X0.009800*%
%ADD198R,0.027600X0.009800*%
%ADD199R,0.027600X0.009800*%
%ADD200R,0.047300X0.043400*%
%ADD201R,0.029600X0.031600*%
%ADD202R,0.000000X0.000000*%
%ADD203R,0.007300X0.007300*%
%ADD204R,0.031600X0.013900*%
%ADD205R,0.102400X0.023700*%
%ADD206R,0.098500X0.098500*%
G04~CAMADD=207~9~0.0~0.0~99.0~139.0~0.0~0.0~0~0.0~0.0~0.0~0.0~0~0.0~0.0~0.0~0.0~0~0.0~0.0~0.0~135.0~166.0~165.0*
%ADD207D207*%
G04~CAMADD=208~9~0.0~0.0~394.0~709.0~0.0~0.0~0~0.0~0.0~0.0~0.0~0~0.0~0.0~0.0~0.0~0~0.0~0.0~0.0~135.0~780.0~779.0*
%ADD208D208*%
%ADD209R,0.037500X0.033500*%
%ADD210R,0.130000X0.130000*%
%ADD211O,0.031600X0.009900*%
%ADD212O,0.009900X0.031600*%
%ADD213R,0.021700X0.023700*%
%ADD214R,0.027600X0.011900*%
%ADD215R,0.039400X0.037400*%
%ADD216R,0.039400X0.037300*%
%LNvapeix_mini_pcb-1*%
%LPD*%
G54D100*
X03584Y03216D03*
X03568D03*
X03537Y03259D03*
X03553D03*
G54D101*
X03576Y03247D03*
X03544Y0323D03*
G54D102*
X03068Y03169D03*
G54D103*
X03142Y03169D03*
G54D106*
X03548Y03179D03*
X03568D03*
X04198Y03203D03*
X04218D03*
X04185Y03159D03*
X04165D03*
X04345Y03112D03*
X04325D03*
X04229D03*
X04209D03*
X04109D03*
X04089D03*
X03552Y03294D03*
X03572D03*
X03284Y03233D03*
X03264D03*
X04112Y03597D03*
X04092D03*
X04201Y03485D03*
X04181D03*
X04201Y0369D03*
X04181D03*
X04112Y03564D03*
X04092D03*
X03485Y03183D03*
X03505D03*
X03726D03*
X03706D03*
X03875Y03147D03*
X03895D03*
X03563Y03145D03*
X03543D03*
X03483Y03144D03*
X03503D03*
X03725Y03147D03*
X03705D03*
X03643Y03112D03*
X03623D03*
X03875D03*
X03895D03*
X03757D03*
X03777D03*
X03798Y0329D03*
X03818D03*
X03856Y03247D03*
X03876D03*
G54D107*
X03772Y03215D03*
Y03231D03*
X03815Y03263D03*
Y03247D03*
G54D108*
X03803Y03223D03*
X03786Y03255D03*
G54D112*
X03233Y03429D03*
Y03448D03*
X04236Y03274D03*
Y03293D03*
X02945Y03028D03*
Y03047D03*
G54D113*
X03206Y03449D03*
Y03429D03*
X04209Y03294D03*
Y03274D03*
X02954Y03137D03*
Y03157D03*
X02991Y03138D03*
Y03158D03*
G54D125*
X0207Y03399D03*
X02089D03*
X0207Y03426D03*
X02089D03*
X02411Y03588D03*
X02392D03*
X02411Y03563D03*
X02392D03*
X02411Y03536D03*
X02392D03*
X04046Y03596D03*
X04027D03*
X0418Y03566D03*
X04161D03*
X0418Y03548D03*
X04161D03*
X04179Y03607D03*
X0416D03*
X04179Y03627D03*
X0416D03*
X04179Y03647D03*
X0416D03*
X04046Y03569D03*
X04027D03*
X0418Y03529D03*
X04161D03*
X04145Y03483D03*
X04126D03*
G54D126*
X02671Y0308D03*
X02685Y03094D03*
X02656D03*
X0267Y03108D03*
X02845Y03203D03*
X02859Y03217D03*
X0283Y03219D03*
X02844Y03233D03*
G54D191*
X02292Y0361D03*
X02219D03*
Y03537D03*
G54D192*
X02292Y03537D03*
G54D193*
X02196Y03674D03*
X02235D03*
X02314D03*
G54D194*
X02216Y03674D03*
X02255D03*
X02275D03*
X02295D03*
G54D195*
X02196Y03473D03*
X02235D03*
X02275Y03473D03*
X02314Y03473D03*
G54D196*
X02216Y03473D03*
X02255Y03473D03*
X02295Y03473D03*
G54D197*
X02356Y03514D03*
Y03534D03*
Y03554D03*
Y03573D03*
Y03613D03*
Y03632D03*
X02155D03*
Y03613D03*
Y03593D03*
Y03554D03*
Y03534D03*
Y03514D03*
G54D198*
X02356Y03593D03*
G54D199*
X02155Y03573D03*
G54D200*
X03973Y0334D03*
Y03411D03*
X03879Y0334D03*
Y03411D03*
G54D201*
X02786Y03288D03*
X02839D03*
G54D202*
X02255Y03573D03*
G54D203*
X02169Y03487D03*
G54D204*
X04391Y0365D03*
Y03572D03*
Y03591D03*
Y03611D03*
Y03631D03*
G54D205*
X043Y03516D03*
Y03706D03*
G54D206*
X03082Y03074D03*
X03264Y03072D03*
G54D207*
X02834Y03158D03*
X02848Y03144D03*
X02794Y03101D03*
X0278Y03115D03*
X02875Y03174D03*
X02861Y03188D03*
G54D208*
X02899Y03326D03*
X02968Y03257D03*
G54D209*
X02852Y03037D03*
Y03082D03*
X02909D03*
Y03037D03*
G54D210*
X03873Y03577D03*
G54D211*
X03774Y03645D03*
Y03626D03*
Y03606D03*
Y03586D03*
Y03567D03*
Y03547D03*
Y03527D03*
Y03508D03*
X03971D03*
Y03527D03*
Y03547D03*
Y03567D03*
Y03586D03*
Y03606D03*
Y03626D03*
Y03645D03*
G54D212*
X03804Y03478D03*
X03823D03*
X03843D03*
X03863D03*
X03882D03*
X03902D03*
X03922D03*
X03941D03*
Y03675D03*
X03922D03*
X03902D03*
X03882D03*
X03863D03*
X03843D03*
X03823D03*
X03804D03*
G54D213*
X03193Y03185D03*
Y03224D03*
G54D214*
X02923Y03589D03*
Y03563D03*
Y03512D03*
Y03538D03*
X02996D03*
Y03512D03*
Y03563D03*
Y03589D03*
G54D215*
X02945Y03576D03*
G54D216*
X02945Y03525D03*
M02*