%FSTAX23Y23*%
%MOIN*%
%SFA1B1*%

%IPPOS*%
%ADD48C,0.005900*%
%ADD52C,0.019700*%
%ADD55C,0.059100*%
%ADD58C,0.019700*%
%ADD59C,0.078700*%
%ADD60C,0.177200*%
%ADD61C,0.015700*%
%LNvapeix_mini_pcb-1*%
%LPD*%
G54D48*
X04399Y03171D02*
Y03246D01*
X04325Y03097D02*
X04399Y03171D01*
X02991Y03109D02*
X03007Y03125D01*
X03288*
X03316Y03097*
X02954Y03109D02*
X02981Y03136D01*
X03292*
X0332Y03108*
X03506Y03162D02*
X03703D01*
X04346Y03147D02*
Y03303D01*
X04368Y03325*
X04399*
X02801Y03117D02*
X029Y03217D01*
X02801Y03068D02*
Y03117D01*
X029Y03217D02*
X03012D01*
X03544Y03189D02*
Y03213D01*
X02681Y03351D02*
X02714Y03317D01*
X02216Y03689D02*
X02239Y03712D01*
X02434*
X02468Y03678*
Y03442D02*
Y03678D01*
Y03442D02*
X02539Y03371D01*
X02622*
X0264Y03353*
X02647Y03375D02*
Y03535D01*
X02737Y03625*
X03049*
X03086Y03662*
Y03676*
X0332Y03108D02*
X03452D01*
X03681Y03144D02*
X03682Y03145D01*
X03493Y03215D02*
Y03243D01*
X03516Y03266*
X03663*
X03666Y03263*
X03666*
X03694Y03236*
Y03214D02*
Y03236D01*
X03533Y03145D02*
X03682D01*
X03544Y03189D02*
X03553Y0318D01*
X03714*
X03766Y03128*
X03863*
X03907Y03172*
X03703Y03162D02*
X03752Y03113D01*
X04312*
X04346Y03147*
X03518Y0313D02*
X03533Y03145D01*
X03316Y03097D02*
X04325D01*
X03518Y03118D02*
Y0313D01*
X03452Y03108D02*
X03506Y03162D01*
X02681Y03351D02*
Y03355D01*
X03887Y03479D02*
X03957Y0341D01*
X04145*
X04268Y03287*
X02714Y03317D02*
X03088D01*
X0325Y03479*
X03887*
X03012Y03217D02*
X03259Y03464D01*
X03844*
X03861Y03447*
G54D52*
X02161Y03467D02*
Y03649D01*
X02144Y0345D02*
X02161Y03467D01*
X02903Y03169D02*
X03028D01*
X03125Y03266*
Y03301*
G54D55*
X04399Y03325D03*
Y03246D03*
G54D58*
X03655Y0341D03*
X03637Y03363D03*
X03657Y03313D03*
X03707Y03291D03*
X03754Y03312D03*
X03775Y03363D03*
X03755Y0341D03*
X03707Y03431D03*
X02369Y03433D03*
X02417Y03412D03*
X02437Y03365D03*
X02416Y03314D03*
X02369Y03293D03*
X02319Y03315D03*
X02299Y03365D03*
X02317Y03412D03*
G54D59*
X0208Y0308D03*
G54D60*
X02368Y03363D03*
X03707Y0336D03*
G54D61*
X02144Y0345D03*
X02161Y03649D03*
X02216Y03689D03*
X02799Y03058D03*
X02903Y03168D03*
X02972Y03157D03*
X02954Y03109D03*
X02991D03*
X03086Y03676D03*
X04268Y03287D03*
X03544Y03213D03*
X03682Y03145D03*
X02681Y03355D03*
X02118Y03094D03*
X02117Y03072D03*
X0204Y0307D03*
X02041Y03092D03*
X03861Y03447D03*
X03907Y03172D03*
X0264Y03353D03*
X02647Y03375D03*
X03493Y03215D03*
X03694Y03214D03*
X03518Y03118D03*
X03125Y03301D03*
M02*