%FSTAX23Y23*%
%MOIN*%
%SFA1B1*%

%IPPOS*%
%ADD51C,0.059100*%
%ADD55C,0.019700*%
%ADD60C,0.040000*%
%ADD61C,0.051200*%
%ADD62O,0.059100X0.031500*%
%ADD63C,0.023600*%
%ADD64C,0.110200*%
%ADD65C,0.047200*%
%ADD66C,0.031500*%
%LNvapeix_mini_pcb-1*%
%LPD*%
G54D51*
X0208Y0365D03*
X0447Y03078D03*
G54D55*
X03097Y03303D03*
X03112Y03321D03*
X02984Y03204D03*
X03037Y03429D03*
X027Y0333D03*
X03268Y03617D03*
X02407Y03525D03*
X02413Y0363D03*
X02381Y0351D03*
X02716Y0327D03*
X02558Y03197D03*
X03402Y03392D03*
X0294Y03189D03*
X03031Y03487D03*
X0358Y03677D03*
X0401Y0321D03*
X0386Y03082D03*
X04283Y03408D03*
X03115Y03261D03*
X03168Y03279D03*
X03049Y03264D03*
X03518Y03621D03*
X03519Y03482D03*
X03222Y03074D03*
X03977Y03081D03*
X03385Y03679D03*
X03246Y03623D03*
X03375Y03653D03*
X02848Y03633D03*
X0268Y03497D03*
X02138Y0358D03*
X03134Y0356D03*
X02155Y03599D03*
X03215Y03257D03*
X0294Y03261D03*
X03276Y03268D03*
X03378Y03316D03*
X02299Y03284D03*
X02878Y03626D03*
X03411Y0362D03*
X03614Y0352D03*
X03364Y03559D03*
X02671Y03596D03*
X03308Y0359D03*
X03401Y03321D03*
Y03344D03*
X04Y0314D03*
X04156Y03475D03*
X04111Y03608D03*
X04189Y03542D03*
X04232Y0358D03*
X04205Y03652D03*
X04186Y0328D03*
X04019Y03115D03*
X04142Y03367D03*
X03927Y03147D03*
X04049Y03549D03*
X03294Y03045D03*
X03272D03*
X03117Y03219D03*
X04Y03556D03*
X04049Y03297D03*
X04083Y03307D03*
X04218Y03465D03*
X04205Y03111D03*
X03395Y03368D03*
X04011Y03067D03*
X02974Y0342D03*
X02937D03*
X03049Y03115D03*
X02992Y03537D03*
X03042Y03407D03*
X03033Y03364D03*
X03022Y03345D03*
X03043Y03385D03*
X04268Y03138D03*
X04273Y03686D03*
X04188Y03356D03*
X04231Y03403D03*
X04305Y03186D03*
X02576Y03592D03*
X03382Y03402D03*
X04037Y03648D03*
X04122Y03142D03*
X02866Y03219D03*
X02296Y03463D03*
X0246Y0346D03*
X02142Y03464D03*
X02993Y03039D03*
X0311Y03048D03*
X03197Y03047D03*
X03242Y03149D03*
X02238Y03475D03*
X02275Y03477D03*
G54D60*
X02Y03D02*
X04551D01*
Y03728*
X02D02*
X04551D01*
X02Y03D02*
Y03728D01*
G54D61*
X02554Y031D03*
X02736D03*
X04324Y0363D03*
X04379Y03218D03*
Y03363D03*
Y03508D03*
X03818Y03663D03*
X03918D03*
Y03563D03*
X04468Y03243D03*
Y03322D03*
Y034D03*
X04324Y03091D03*
X03983Y03364D03*
Y03475D03*
Y03256D03*
G54D62*
X02096Y03233D03*
Y03493D03*
G54D63*
X02395Y03435D03*
X02342Y03412D03*
X02324Y03363D03*
X02342Y03315D03*
X02395Y03292D03*
X02447Y03315D03*
X02466Y03363D03*
X02445Y03412D03*
X03823D03*
X03843Y03363D03*
X03824Y03315D03*
X03772Y03292D03*
X0372Y03315D03*
X03701Y03363D03*
X0372Y03412D03*
X03772Y03435D03*
G54D64*
X02395Y03363D03*
X03772D03*
G54D65*
X02331Y03153D03*
G54D66*
X02502Y03225D03*
M02*