%FSTAX23Y23*%
%MOIN*%
%SFA1B1*%

%IPPOS*%
%AMD32*
4,1,4,0.009000,0.003500,0.003500,0.009000,-0.009000,-0.003500,-0.003500,-0.009000,0.009000,0.003500,0.0*
1,1,0.007900,0.006200,0.006200*
1,1,0.007900,-0.006200,-0.006200*
%
%AMD33*
4,1,4,0.003500,-0.009000,0.009000,-0.003500,-0.003500,0.009000,-0.009000,0.003500,0.003500,-0.009000,0.0*
1,1,0.007900,0.006200,-0.006200*
1,1,0.007900,-0.006200,0.006200*
%
%AMD34*
4,1,4,0.130800,0.000000,0.000000,0.130800,-0.130800,0.000000,0.000000,-0.130800,0.130800,0.000000,0.0*
%
%AMD41*
4,1,4,-0.001400,0.008300,-0.008300,0.001400,0.001400,-0.008300,0.008300,-0.001400,-0.001400,0.008300,0.0*
%
%ADD10C,0.006000*%
%ADD11R,0.035400X0.027600*%
%ADD12R,0.007900X0.015700*%
%ADD13R,0.019700X0.019700*%
%ADD14C,0.039400*%
%ADD15R,0.078700X0.043300*%
%ADD16R,0.031500X0.031500*%
%ADD17R,0.023600X0.019700*%
%ADD18O,0.066900X0.011800*%
%ADD19C,0.007900*%
%ADD20R,0.011000X0.016900*%
%ADD21R,0.015700X0.007900*%
%ADD22R,0.019700X0.019700*%
%ADD23R,0.043300X0.078700*%
%ADD24R,0.031500X0.031500*%
%ADD25R,0.040000X0.030000*%
%ADD26R,0.013800X0.009800*%
%ADD27R,0.016900X0.011000*%
%ADD28R,0.053200X0.015700*%
%ADD29R,0.061000X0.074800*%
%ADD30R,0.055100X0.063000*%
%ADD31R,0.031500X0.063000*%
G04~CAMADD=32~3~0.0~0.0~79.0~256.0~0.0~0.0~0~0.0~0.0~0.0~0.0~0~0.0~0.0~0.0~0.0~0~0.0~0.0~0.0~315.0~202.0~202.0*
%ADD32D32*%
G04~CAMADD=33~3~0.0~0.0~79.0~256.0~0.0~0.0~0~0.0~0.0~0.0~0.0~0~0.0~0.0~0.0~0.0~0~0.0~0.0~0.0~225.0~202.0~202.0*
%ADD33D33*%
G04~CAMADD=34~10~0.0~1850.5~0.0~0.0~0.0~0.0~0~0.0~0.0~0.0~0.0~0~0.0~0.0~0.0~0.0~0~0.0~0.0~0.0~315.0~1850.5~0.0*
%ADD34D34*%
%ADD35R,0.051200X0.059100*%
%ADD36R,0.023600X0.021700*%
%ADD37R,0.108300X0.055100*%
%ADD38R,0.013800X0.013800*%
%ADD39R,0.039400X0.017700*%
%ADD40R,0.009800X0.013800*%
G04~CAMADD=41~9~0.0~0.0~98.0~138.0~0.0~0.0~0~0.0~0.0~0.0~0.0~0~0.0~0.0~0.0~0.0~0~0.0~0.0~0.0~45.0~166.0~165.0*
%ADD41D41*%
%ADD42R,0.011800X0.027600*%
%ADD43R,0.037300X0.039400*%
%ADD44R,0.037200X0.039400*%
%ADD45R,0.031500X0.086600*%
%ADD46R,0.039400X0.031500*%
%ADD47C,0.008000*%
%ADD48C,0.005900*%
%ADD49C,0.011800*%
%ADD50C,0.015700*%
%ADD51C,0.008000*%
%ADD52C,0.018500*%
%ADD53C,0.019700*%
%ADD54C,0.013800*%
%ADD55C,0.007900*%
%ADD56C,0.078700*%
%ADD57C,0.059100*%
%ADD58C,0.060000*%
%ADD59O,0.063000X0.035400*%
%ADD60C,0.019700*%
%ADD61C,0.078700*%
%ADD62C,0.177200*%
%ADD63C,0.015700*%
%ADD64C,0.035400*%
%ADD65C,0.026000*%
%ADD66C,0.031500*%
%LNvapeix_mini_pcb-1*%
%LPD*%
G36*
X04537Y03081D02*
X04532Y0308D01*
X04532Y03085*
X04528Y03089*
X04524Y03093*
X04519Y03094*
X04513Y03093*
X04513Y03093*
X0451Y03099*
X04511Y03101*
X04515Y03104*
X04519Y03108*
X0452Y03114*
X04519Y03119*
X04515Y03123*
X04511Y03127*
X04506Y03128*
X045Y03127*
X04496Y03123*
X04493Y03119*
X04491Y03118*
X04483Y03122*
X04483Y03122*
X04484Y03128*
X04483Y03133*
X04479Y03137*
X04475Y03141*
X0447Y03142*
X04464Y03141*
X0446Y03137*
X04457Y03133*
X04455Y03128*
X04457Y03122*
X04456Y03122*
X04448Y03118*
X04447Y03119*
X04443Y03123*
X04439Y03127*
X04434Y03128*
X04428Y03127*
X04424Y03123*
X04421Y03119*
X0442Y03114*
X04421Y03108*
X04424Y03104*
X04428Y03101*
X04429Y03099*
X04427Y03093*
X04426Y03093*
X04421Y03094*
X04415Y03093*
X04411Y03089*
X04408Y03085*
X04406Y0308*
X04408Y03074*
X04411Y0307*
X04415Y03067*
X04421Y03065*
X04425Y03066*
X0443Y03055*
X0443Y03053*
X04428Y03051*
X04425Y03047*
X04424Y03042*
X04425Y03036*
X04428Y03032*
X04432Y03029*
X04438Y03028*
X04443Y03029*
X04447Y03032*
X04451Y03036*
X04452Y03037*
X04457Y03034*
X04457Y0303*
X04458Y03024*
X04461Y0302*
X04465Y03017*
X04471Y03015*
X04476Y03017*
X0448Y0302*
X04484Y03024*
X04485Y0303*
X04484Y03035*
Y03035*
X04489Y03037*
X0449Y03037*
X04493Y03033*
X04497Y0303*
X04503Y03028*
X04508Y0303*
X04512Y03033*
X04516Y03037*
X04517Y03043*
X04516Y03048*
X04512Y03052*
X04509Y03055*
X04509Y03055*
X04514Y03066*
X04519Y03065*
X04524Y03067*
X04528Y0307*
X04532Y03074*
X04532Y03079*
X04537Y03078*
Y03004*
X0289*
X0289Y03009*
X0289*
X02893Y03011*
X02905Y03023*
X02906Y03023*
X02911Y03024*
X02916Y03027*
X02919Y03032*
X0292Y03037*
X02919Y03042*
X02916Y03047*
X02913Y03049*
X02911Y03055*
X02921Y03064*
X02923Y03067*
X02924Y03071*
Y03094*
X02948*
X02951Y03095*
X02952Y03095*
X02954Y03094*
X02959Y03096*
X02963Y03099*
X02967Y03103*
X02968Y03109*
X02967Y03114*
X02963Y03118*
X02959Y03122*
X02954Y03123*
X02948Y03122*
X02944Y03118*
X02941Y03114*
X0294Y03112*
X02917*
X02915Y03113*
X02912Y03112*
X02889*
X02886Y03115*
Y03117*
Y03137*
X02897*
X02898Y03136*
X02902Y03133*
X02908Y03131*
X02913Y03133*
X02917Y03136*
X02921Y0314*
X02922Y03146*
X02921Y03151*
X02917Y03155*
X02913Y03158*
X02916Y03162*
X02917Y03168*
X02916Y03173*
X02912Y03177*
X02908Y03181*
X02906Y03181*
X02903Y03184*
Y03186*
Y03209*
X02886*
X02883Y03214*
X02884Y03215*
X02885Y03219*
X0289Y03221*
X02894Y03224*
X02898Y03228*
X02899Y03234*
X02898Y03239*
X02894Y03243*
X0289Y03247*
X02885Y03248*
X02881Y03247*
X02877Y0325*
X02877Y03251*
X02877Y03252*
X02876Y03257*
X02873Y03261*
X02868Y03265*
X02863Y03266*
X02862Y03265*
X02857Y03269*
Y033*
X02874Y03317*
X02987*
X03003Y03301*
Y03258*
X03003Y03254*
X03005Y03251*
X03056Y032*
X03059Y03198*
X03062Y03198*
X03085*
X03085Y03193*
X03084Y03193*
X0308Y03189*
X03077Y03185*
X03076Y03183*
X03073Y03182*
X03068Y03183*
X03062Y03182*
X03059Y03185*
X03059Y03186*
X03055Y0319*
X03051Y03194*
X03046Y03195*
X0304Y03194*
X03036Y0319*
X03033Y03186*
X03031Y03181*
X03033Y03175*
X03035Y03172*
X03036Y0317*
X03035Y03165*
X03034Y03163*
X03032Y03157*
X03034Y03152*
X03037Y03147*
X03041Y03144*
X03047Y03143*
X03052Y03144*
X03056Y03147*
X0306Y03152*
X03065Y03155*
X03068Y03154*
X03071Y03155*
X03073Y03156*
X03077Y03152*
Y03152*
X0308Y03147*
X03084Y03144*
X0309Y03143*
X03095Y03144*
X03099Y03147*
X03103Y03152*
X03104Y03157*
X03103Y03163*
X03099Y03167*
Y0317*
X03103Y03174*
X03104Y0318*
X03103Y03185*
X03099Y03189*
X03095Y03193*
X03094Y03193*
X03094Y03198*
X03198*
X03202Y03198*
X03205Y032*
X03227Y03222*
X03232Y03223*
X03236Y0322*
X03242Y03219*
X03247Y0322*
X03251Y03223*
X03255Y03227*
X03256Y03233*
X03255Y03238*
X03251Y03242*
X03247Y03246*
X03242Y03247*
X03236Y03246*
X03232Y03242*
X03231Y03242*
X03224*
X03221Y03241*
X03218Y03239*
X03195Y03216*
X03182*
X03178Y03221*
X03179Y03224*
X03178Y03229*
X03174Y03233*
X0317Y03237*
X03165Y03238*
X03159Y03237*
X03155Y03233*
X03154Y03233*
X03066*
X03032Y03266*
Y03309*
X03032Y03313*
X0303Y03316*
X0301Y03336*
X03012Y0334*
X03296*
X03299Y03341*
X03302Y03343*
X03327Y03368*
X03332Y03366*
X03331Y0336*
X03333Y0335*
X03336Y03341*
X03342Y03334*
X03349Y03328*
X03358Y03325*
X03368Y03323*
X03377Y03325*
X03386Y03328*
X03393Y03334*
X03399Y03341*
X03403Y0335*
X03404Y0336*
X03403Y03369*
X03399Y03378*
X03393Y03385*
X03386Y03391*
X03377Y03395*
X03378Y03399*
X03522*
X03526Y034*
X03529Y03402*
X03596Y0347*
X03748*
X03751Y0347*
X03754Y03472*
X03763Y03481*
X03765Y03484*
X03766Y03488*
Y03558*
X03765Y03561*
X03763Y03564*
X03754Y03573*
X03751Y03575*
X03747Y03576*
X03745*
X03744Y03577*
X0374Y0358*
X03735Y03581*
X03729Y0358*
X03725Y03577*
X03722Y03572*
X0372Y03567*
X03722Y03561*
X03725Y03557*
X03729Y03554*
X03735Y03553*
X0374Y03554*
X03743Y03556*
X03748Y03553*
Y03543*
X03743Y0354*
X03739Y03541*
X03733Y0354*
X03729Y03536*
X03726Y03532*
X03725Y03527*
X03726Y03521*
X03729Y03517*
X03733Y03514*
X03739Y03512*
X03743Y03513*
X03748Y0351*
Y03491*
X03744Y03488*
X03732*
X03729Y03493*
X0373Y03496*
X03729Y03501*
X03725Y03505*
X03721Y03509*
X03716Y0351*
X03711Y03509*
X03709Y03509*
X03706Y03512*
X03706Y03515*
X03702Y03519*
X03698Y03523*
X03693Y03524*
X0369Y03523*
X03686Y03526*
X03686Y03527*
X03685Y03532*
X03681Y03536*
X03677Y0354*
X03672Y03541*
X03671*
X03667Y03544*
X03666Y03549*
X03662Y03553*
X03658Y03557*
X03653Y03558*
X03647Y03557*
X03643Y03553*
X03642Y03553*
X03591*
X03587Y03552*
X03584Y0355*
X03499Y03465*
X03335*
X03332Y03464*
X03329Y03462*
X03273Y03406*
X03257*
Y03472*
X03137*
Y0345*
X03132Y03447*
X03129Y03448*
X03123Y03447*
X03119Y03443*
X03116Y03439*
X03114Y03434*
X03115Y03432*
X03111Y03432*
X03107Y03428*
X03104Y03424*
X03103Y03419*
X03104Y03413*
X03105Y03411*
X03103Y03406*
X02992*
Y03472*
X02872*
X02871Y03476*
Y03588*
X02887Y03605*
X02908*
X02909Y036*
X02908Y03598*
X02905Y03594*
X02903Y03589*
X02905Y03583*
X02908Y03579*
X02908Y03579*
Y03573*
X02908Y03572*
X02905Y03568*
X02903Y03563*
X02905Y03557*
X02908Y03553*
X02912Y0355*
X02918Y03548*
X02923Y0355*
X02927Y03553*
X02929*
X02933Y0355*
X02939Y03548*
X02944Y0355*
X02944Y0355*
X02949Y03553*
X02953Y0355*
X02953Y0355*
X02959Y03548*
X02964Y0355*
X02964Y0355*
X02968Y03546*
X02966Y03543*
X02965Y03538*
X02966Y03532*
X02969Y03528*
X02973Y03525*
X02979Y03524*
X02984Y03525*
X02987Y03527*
X0299Y03525*
X02996Y03524*
X03001Y03525*
X03005Y03528*
X03008Y03532*
X03009Y03532*
X03014Y03533*
X03016Y03532*
X03016Y03531*
X03018Y03526*
X03018Y03525*
X03016Y03522*
X03014Y03514*
X03015Y0351*
X03014Y03508*
X03011Y03504*
X03009Y03499*
X03011Y03493*
X03014Y03489*
X03018Y03486*
X03024Y03485*
X03027Y03485*
X03028Y03484*
X03032Y03481*
X03038Y03479*
X03043Y03481*
X03046Y03477*
X03047Y03474*
X03045Y03469*
X03047Y03463*
X0305Y03459*
X03054Y03456*
X0306Y03455*
X03065Y03456*
X03069Y03459*
X03073Y03463*
X03074Y03469*
X03073Y03471*
X03077Y03476*
X03091*
Y03505*
X03088*
Y03511*
X03095*
Y03526*
X03102*
X03103Y03524*
X03108Y03524*
X03161*
X03179Y03505*
X03183Y03502*
X03188Y03502*
X03233*
Y03499*
X03276*
Y03502*
X03332*
X03336Y03502*
X0334Y03505*
X03377Y03542*
X0338Y03546*
X03381Y03551*
Y03652*
X03381Y03652*
X03387Y03656*
X03391Y03662*
X03393Y03668*
X03394Y03675*
X03393Y03681*
X03391Y03687*
X03387Y03693*
X03381Y03697*
X03375Y03699*
X03369Y037*
X03362Y03699*
X03356Y03697*
X0335Y03693*
X03346Y03687*
X03344Y03681*
X03343Y03675*
X03344Y03668*
X03346Y03662*
X0335Y03656*
X03356Y03652*
X03357Y03652*
Y03556*
X03327Y03526*
X03276*
Y03528*
X03259*
X03255Y0353*
Y03533*
Y03541*
X03256Y03544*
Y0356*
X03281*
X03285Y0356*
X03289Y03563*
X03309Y03583*
X03312Y03587*
X03313Y03592*
Y03633*
X03314Y03639*
X03313Y03644*
X03309Y03648*
X03305Y03652*
X03303Y03652*
X03302Y03657*
X03304Y03659*
X03308Y03663*
X03309Y03669*
X03308Y03674*
X03304Y03678*
X033Y03682*
X03295Y03683*
X03266*
X03264Y03688*
X0326Y03694*
X03254Y03698*
X03248Y037*
X03242Y03701*
X03235Y037*
X03229Y03698*
X03223Y03694*
X03219Y03688*
X03217Y03682*
X03216Y03676*
X03217Y03669*
X03219Y03663*
X03223Y03657*
X03229Y03653*
X03235Y03651*
X03242Y0365*
X03246Y0365*
X0325Y03647*
Y03609*
X03232*
Y03598*
X03231Y03595*
Y03544*
X03232Y03541*
Y0353*
X03231Y03526*
X03193*
X03174Y03544*
X0317Y03547*
X03166Y03548*
X03165Y03549*
X03164Y03553*
X03172Y03561*
X03175Y03565*
X03176Y03569*
Y03594*
Y03653*
X03176Y03653*
X03182Y03657*
X03186Y03663*
X03188Y03669*
X03189Y03676*
X03188Y03682*
X03186Y03688*
X03182Y03694*
X03176Y03698*
X0317Y037*
X03164Y03701*
X03157Y037*
X03151Y03698*
X03145Y03694*
X03141Y03688*
X03139Y03682*
X03138Y03676*
X03139Y03669*
X03141Y03663*
X03145Y03657*
X03151Y03653*
X03152Y03653*
Y03608*
X03132*
Y036*
X03131Y03598*
X03129Y03593*
X0313Y03589*
X03126Y03586*
X03123Y03582*
X03121Y03577*
X03122Y03574*
X03119Y03569*
X03111*
Y03575*
X0308*
Y03566*
X03079Y03561*
X03051*
Y0356*
X03042*
X0304Y03562*
Y03577*
X03042*
Y0358*
X03047Y03581*
X03049Y03579*
X03053Y03576*
X03059Y03574*
X03064Y03576*
X03068Y03579*
X03072Y03583*
X03073Y03589*
X03072Y03594*
X03068Y03598*
X03064Y03602*
X03059Y03603*
X03053Y03602*
X03049Y03598*
X03047Y03596*
X03042Y03598*
Y03606*
X03023*
Y03654*
X03027Y03657*
X03031Y03663*
X03033Y03669*
X03034Y03676*
X03033Y03682*
X03031Y03688*
X03027Y03694*
X03021Y03698*
X03015Y037*
X03009Y03701*
X03002Y037*
X02996Y03698*
X0299Y03694*
X02986Y03688*
X02984Y03682*
X02983Y03676*
X02984Y03669*
X02986Y03663*
X0299Y03657*
X02996Y03653*
X02998Y03652*
Y03633*
X02988Y03623*
X02884*
X0288Y03622*
X02877Y0362*
X02855Y03598*
X02853Y03595*
X02853Y03592*
Y0353*
X02848Y03529*
X02793*
X02792Y03533*
Y03569*
X02791Y03572*
X02789Y03575*
X02781Y03583*
X02778Y03585*
X02775Y03586*
X0271*
Y03607*
X02688*
Y03582*
X0269*
X0269Y03579*
X02692Y03576*
X02698Y0357*
X02701Y03569*
X02699Y03566*
X02698Y03561*
X02698Y03558*
X02695Y03553*
X02688*
X02684Y03552*
X0268Y0355*
X0266Y0353*
X02657Y03526*
X02656Y03522*
Y03406*
Y03394*
X02657Y03389*
X02658Y03387*
X02658Y03386*
X02656Y03382*
X02652Y03382*
X02648Y03378*
X02645Y03374*
X02644Y03371*
X0264Y03367*
X02635Y03366*
X0263Y03368*
Y0337*
X02606*
X02604*
X02581*
X02579*
X02576*
X02555*
X02553*
X0253*
Y03358*
X02529Y03356*
X02528Y03351*
X02528Y03348*
X02523Y03346*
X02518Y03352*
Y03419*
X02517Y03422*
X02515Y03425*
X02498Y03442*
Y03454*
X02522*
Y03456*
X02523Y03456*
X02526Y03458*
X02531Y03463*
X02533Y03466*
X02534Y0347*
Y03488*
X02538Y03493*
X02541*
X02544Y03491*
X02548Y0349*
X02603*
X02608Y03491*
X02612Y03493*
X02614Y03496*
X02619Y03494*
Y03489*
X02604Y03475*
X02585*
X0258Y03474*
X02576Y03471*
X02559Y03454*
X02556Y0345*
X02555Y03447*
X02554Y03445*
X02551Y03443*
X0253*
Y03438*
X0253Y03437*
X02527Y03433*
X02525Y03428*
X02527Y03422*
X0253Y03418*
Y03414*
X02527Y03409*
X02525Y03404*
X02527Y03398*
X0253Y03394*
X0253*
Y03376*
X02576*
X02581*
X02581*
X0263*
Y03403*
X0263*
Y03443*
X02606*
X02604*
X02589*
X02587Y03447*
X0259Y03451*
X02609*
X02613Y03451*
X02617Y03454*
X02639Y03476*
X02642Y0348*
X02643Y03484*
Y03546*
X02642Y0355*
X02639Y03554*
X02624Y03569*
X0262Y03572*
X02615Y03573*
X02581*
X02575Y03579*
Y03607*
X02539*
Y03606*
X02534Y03605*
X02532Y03604*
X02528*
X02527Y03605*
X02522Y03606*
X02516Y03605*
X02512Y03601*
X02509Y03597*
X02508Y03592*
X02509Y03586*
X02512Y03582*
X02516Y03579*
X02522Y03578*
X02527Y03579*
X02528Y0358*
X02532*
X02534Y03579*
X02539Y03578*
Y03576*
X0254*
X02542Y03571*
X0254Y03569*
X02537Y03566*
X02537Y03564*
X02531Y03562*
X0253Y03564*
X02527Y03566*
X02524Y03567*
X0252*
Y03572*
X02497*
Y03543*
X02494Y0354*
X02493Y0354*
X02487Y03541*
X02459*
Y03658*
X02461Y03659*
X02465Y03665*
X02467Y03671*
X02468Y03678*
X02467Y03684*
X02465Y0369*
X02461Y03696*
X02455Y037*
X02449Y03702*
X02443Y03703*
X02436Y03702*
X0243Y037*
X02424Y03696*
X0242Y0369*
X02418Y03684*
X02417Y03678*
X02418Y03671*
X0242Y03665*
X02424Y03659*
X02426Y03658*
Y03569*
X02422Y03566*
X02421Y03566*
X02416Y03568*
X02392*
Y03595*
X02393Y03595*
X02398Y03597*
X02402Y036*
X02406Y03604*
X02407Y0361*
X02406Y03615*
X02405Y03616*
Y03621*
X02404Y03625*
X02401Y03629*
X02395Y03635*
X02391Y03637*
X02387Y03638*
X02386Y03643*
Y03648*
X02343*
Y03638*
X02315*
X02311Y03637*
X02307Y03635*
X023Y03628*
X02297Y03624*
X02297Y03622*
X02283*
Y0358*
X02334*
X02337Y03576*
Y03551*
X02334Y03547*
X02283*
Y03506*
X02296*
Y03501*
X02296Y03496*
X02299Y03491*
X02312Y03478*
X02317Y03475*
X02322Y03475*
X0233*
X02335Y03473*
X0234Y03475*
X02344Y03478*
X02345Y03478*
X0235*
X0235Y03478*
X02354Y03475*
X0236Y03473*
X02365Y03475*
X02368Y03477*
X02371Y03474*
X02375Y03471*
X02381Y03469*
X02386Y03471*
X0239Y03474*
X02394Y03478*
X02395Y03484*
X02394Y03488*
X02397Y03492*
X02398Y03498*
X02397Y03503*
X02393Y03507*
X02392Y03508*
Y03535*
X02409*
X02431Y03514*
X02436Y0351*
X02442Y03509*
X02462*
X02463Y03504*
X02462Y03502*
X02462Y03499*
Y0344*
X02462Y03436*
X02464Y03433*
X02488Y0341*
Y03337*
X02488Y03334*
X0249Y03331*
X02557Y03264*
X02556Y03258*
X02554Y03256*
X02551Y03252*
X0255Y0325*
X02548Y03246*
X02545Y03245*
X02542Y03245*
X02538Y03241*
X02535Y03237*
X02534Y03232*
X02535Y03226*
X02538Y03222*
X02542Y03219*
X02548Y03218*
X02553Y03219*
X02556Y03221*
X02561Y03215*
X02562Y03215*
X02564Y03212*
X02576Y03199*
X0258Y03197*
X02583Y03196*
X02587Y03197*
X0259Y03199*
X02593Y03202*
X02593Y03206*
X02594Y03207*
X02598Y03208*
X02602Y0321*
X02604Y03214*
X02605Y03217*
X02606Y03218*
X02609Y03219*
X02613Y03221*
X02615Y03225*
X02616Y03229*
X02617Y0323*
X02621Y0323*
X02624Y03233*
X02626Y03236*
X02627Y0324*
X02628Y03241*
X02632Y03242*
X02635Y03244*
X02637Y03247*
X02638Y03251*
X02639Y03252*
X02643Y03253*
X02646Y03255*
X02648Y03258*
X02649Y03262*
X0265Y03263*
X02654Y03264*
X02657Y03266*
X02659Y03269*
X0266Y03273*
X02661Y03274*
X02665Y03275*
X02668Y03277*
X02671Y0328*
X02671Y03284*
X02672Y03285*
X02676Y03286*
X0268Y03288*
X02682Y03291*
X02682Y03295*
X02684Y03296*
X02687Y03297*
X02691Y03299*
X02693Y03303*
X02694Y03306*
X02695Y03308*
X02699Y03308*
X02702Y03311*
X02704Y03314*
X02705Y03318*
X02706Y03319*
X0271Y03319*
X02713Y03322*
X02715Y03325*
X02716Y03329*
X02715Y03333*
X02714Y03335*
X02717Y03338*
X02719Y03341*
X0272Y03344*
X02726Y03351*
X02712Y03365*
X02713Y03369*
X02712Y03374*
X02709Y03378*
X02704Y03382*
X02699Y03383*
X02695Y03382*
X02693Y03386*
X02696Y03391*
X027*
Y03397*
X02777*
X0278Y03397*
X02783Y03399*
X02822Y03438*
X02829*
X02831Y03434*
X02748Y03351*
X02748Y03351*
X02745Y03348*
X02732Y03336*
X0273Y03333*
X02729Y03329*
X0273Y03325*
X02732Y03322*
X02735Y03319*
X02739Y03319*
X0274Y03318*
X02741Y03314*
X02743Y03311*
X02747Y03308*
X0275Y03308*
X02751Y03306*
X02752Y03303*
X02754Y03299*
X02758Y03297*
X02762Y03296*
X02763Y03295*
X02763Y03291*
X02766Y03288*
X02769Y03286*
X02773Y03285*
X02774Y03284*
X02775Y0328*
X02777Y03277*
X0278Y03275*
X02784Y03274*
X02785Y03273*
X02786Y03269*
X02788Y03266*
X02791Y03264*
X02795Y03263*
X02796Y03262*
X02797Y03258*
X02799Y03255*
X02802Y03253*
X02806Y03252*
X02807Y03251*
X02808Y03247*
X0281Y03244*
X02813Y03242*
X02817Y03241*
X02818Y0324*
X02819Y03236*
X02821Y03233*
X02824Y0323*
X02828Y0323*
X02829Y03229*
X0283Y03225*
X02832Y03221*
X02836Y03219*
X02839Y03218*
X02841Y03217*
X02841Y03214*
X02844Y0321*
X02847Y03208*
X02851Y03207*
X02852Y03206*
X02852Y03202*
X02855Y03199*
X02858Y03197*
X02862Y03196*
X02866Y03197*
X02869Y03199*
X02878Y0319*
X02881Y03188*
X02881Y03188*
Y03184*
X0289*
X02892Y03179*
X0289Y03177*
X02872*
X02869Y0318*
X02866Y03182*
X02862Y03183*
X02858Y03182*
X02855Y0318*
X02852Y03177*
X02852Y03173*
X02851Y03172*
X02847Y03171*
X02844Y03169*
X02841Y03166*
X02841Y03162*
X02839Y03161*
X02836Y0316*
X02832Y03158*
X0283Y03154*
X02829Y03151*
X0283Y03147*
X02832Y03143*
X02845Y03131*
X02848Y03129*
X02848Y03128*
X0285Y03122*
X02853Y03118*
X02853Y03117*
X02852Y03112*
X02843*
X0284Y03116*
X02839Y0312*
X02837Y03123*
X02824Y03135*
X02821Y03138*
X02817Y03138*
X02813Y03138*
X0281Y03135*
X02808Y03132*
X02807Y03128*
X02806Y03127*
X02802Y03126*
X02799Y03124*
X02797Y03121*
X02796Y03117*
X02795Y03116*
X02791Y03115*
X02788Y03113*
X02786Y0311*
X02785Y03106*
X02784Y03105*
X0278Y03104*
X02777Y03102*
X02775Y03099*
X02774Y03095*
X02773Y03094*
X02769Y03093*
X02766Y03091*
X02763Y03088*
X02763Y03084*
X02762Y03083*
X02758Y03082*
X02754Y0308*
X02752Y03076*
X02751Y03073*
X0275Y03072*
X02747Y03071*
X02743Y03069*
X02741Y03065*
X0274Y03061*
X02739Y0306*
X02735Y0306*
X02732Y03057*
X0273Y03054*
X02729Y0305*
X0273Y03047*
X02732Y03043*
X02744Y03031*
X02744Y03029*
X02742Y03026*
X02725*
X02723Y03031*
X02725Y03034*
X02726Y03039*
X02725Y03045*
X02722Y03049*
X02717Y03052*
X02715Y03053*
X02715Y03054*
X02713Y03057*
X0271Y0306*
X02706Y0306*
X02705Y03061*
X02704Y03065*
X02702Y03069*
X02699Y03071*
X02695Y03072*
X02694Y03073*
X02693Y03076*
X02691Y0308*
X02687Y03082*
X02684Y03083*
X02682Y03084*
X02682Y03088*
X0268Y03091*
X02676Y03093*
X02672Y03094*
X02671Y03095*
X02671Y03099*
X02668Y03102*
X02665Y03104*
X02661Y03105*
X02657Y03104*
X02654Y03102*
X02642Y03089*
X0264Y03086*
X02639Y03086*
X02638Y03085*
X02634Y03081*
X0263Y03085*
X02628Y03085*
X02626Y0309*
X0264Y03104*
X0264Y03104*
X02646Y0311*
X02648Y03113*
X02649Y03117*
X02648Y03121*
X02646Y03124*
X02643Y03126*
X02639Y03127*
X02638Y03128*
X02637Y03132*
X02635Y03135*
X02632Y03138*
X02628Y03138*
X02627Y03139*
X02626Y03143*
X02624Y03147*
X02621Y03149*
X02617Y03149*
X02616Y03151*
X02615Y03154*
X02613Y03158*
X02609Y0316*
X02606Y03161*
X02605Y03162*
X02604Y03166*
X02602Y03169*
X02598Y03171*
X02594Y03172*
X02593Y03173*
X02593Y03177*
X0259Y0318*
X02587Y03182*
X02583Y03183*
X0258Y03182*
X02576Y0318*
X02566Y03169*
X02563Y03168*
X02558Y03169*
X02557Y0317*
X02552Y03171*
X02546Y0317*
X02542Y03166*
X02539Y03162*
X02538Y03157*
X02538Y03155*
X02538Y03151*
X02534Y0315*
X02532Y0315*
X02528Y03146*
X02525Y03142*
X02524Y03137*
X02525Y03131*
X02528Y03127*
X02532Y03124*
X02534Y03123*
X02538Y0312*
X02539Y03118*
X0254Y03114*
X0254Y03113*
X02541Y03107*
X02538Y03103*
X02537Y03098*
X02538Y03092*
X02538Y03091*
X02535Y03086*
X02516*
X0251Y03085*
X02508Y03084*
X02498*
X02496Y03085*
X02491Y03086*
X02456*
Y03123*
X0246Y03126*
X02469*
Y03169*
X02418*
Y03126*
X02427*
X02431Y03123*
Y03086*
X02369*
Y03136*
X02132*
Y03009*
Y03008*
X0213Y03004*
X02004*
Y03722*
X02517*
X02517Y03717*
X02511Y03717*
X02502Y03713*
X02495Y03707*
X02489Y037*
X02486Y03691*
X02484Y03682*
X02486Y03672*
X02489Y03663*
X02495Y03656*
X02502Y0365*
X02511Y03647*
X02521Y03645*
X0253Y03647*
X02539Y0365*
X02546Y03656*
X02552Y03663*
X02556Y03672*
X02557Y03682*
X02556Y03691*
X02552Y037*
X02546Y03707*
X02539Y03713*
X0253Y03717*
X02524Y03717*
X02524Y03722*
X02717*
X02717Y03717*
X02711Y03717*
X02702Y03713*
X02695Y03707*
X02689Y037*
X02686Y03691*
X02684Y03682*
X02686Y03672*
X02689Y03663*
X02695Y03656*
X02702Y0365*
X02711Y03647*
X02721Y03645*
X0273Y03647*
X02739Y0365*
X02746Y03656*
X02752Y03663*
X02756Y03672*
X02757Y03682*
X02756Y03691*
X02752Y037*
X02746Y03707*
X02739Y03713*
X0273Y03717*
X02724Y03717*
X02724Y03722*
X02817*
X02817Y03717*
X02811Y03717*
X02802Y03713*
X02795Y03707*
X02789Y037*
X02786Y03691*
X02784Y03682*
X02786Y03672*
X02789Y03663*
X02795Y03656*
X02802Y0365*
X02811Y03647*
X02821Y03645*
X0283Y03647*
X02839Y0365*
X02846Y03656*
X02852Y03663*
X02856Y03672*
X02857Y03682*
X02856Y03691*
X02852Y037*
X02846Y03707*
X02839Y03713*
X0283Y03717*
X02824Y03717*
X02824Y03722*
X03432*
X03433Y03717*
X03426Y03714*
X03416Y03707*
X03409Y03697*
X03404Y03686*
X03403Y03675*
Y03571*
X03403Y03568*
Y03543*
X03413*
X03416Y03538*
X03426Y03531*
X03437Y03526*
X03449Y03525*
X0346Y03526*
X03471Y03531*
X03481Y03538*
X03484Y03543*
X03494*
Y03568*
X03494Y03571*
Y03675*
X03493Y03686*
X03488Y03697*
X03481Y03707*
X03471Y03714*
X03464Y03717*
X03465Y03722*
X04537*
Y03081*
G37*
G36*
X02793Y03498D02*
Y03438D01*
X02792Y03434*
X02773Y03415*
X027*
Y0342*
X02681*
Y03486*
X02686Y03489*
X0269Y03488*
X02694Y03489*
X02695Y03489*
X02697Y03487*
X02698Y03485*
X02698Y03482*
X02699Y03478*
X02701Y03474*
X02705Y03471*
X0271Y0347*
X02729*
Y03452*
X02727*
Y03423*
X0275*
Y03452*
X02748*
Y0347*
X02765*
X02769Y03471*
X02773Y03474*
X02776Y03478*
X02777Y03482*
X02776Y03487*
X02775Y03488*
X02774Y03492*
X02775Y03496*
X02776Y03497*
X02777Y03502*
X02777Y03504*
X0278Y03509*
X0278Y03509*
X02782Y03509*
X02793Y03498*
G37*
G36*
X02593Y03056D02*
X02593Y03055D01*
X02594Y03049*
X02597Y03045*
X02601Y03042*
X02607Y03041*
X02612Y03041*
X02612*
X02617Y03039*
Y03018*
X02634*
X02635Y03017*
X02641Y03016*
X02646Y03017*
X0265Y0302*
X02652Y03022*
X02654Y03024*
X02659Y03026*
X02661Y03025*
X02666Y03027*
X02669Y03027*
X02671Y03024*
X02685Y03011*
X02688Y03009*
X02688Y03009*
X02687Y03004*
X0237*
X02369Y03008*
Y03009*
Y03055*
X02491*
X02496Y03057*
X02499Y03058*
X02508*
X0251Y03057*
X02516Y03056*
X02547*
X0255Y03056*
X02555Y03052*
Y03041*
X0258*
Y03061*
X02589*
X02593Y03056*
G37*
%LNvapeix_mini_pcb-2*%
%LPC*%
G36*
X0208Y03713D02*
X02074Y03712D01*
X0207Y03708*
X02067Y03704*
X02065Y03699*
X02067Y03693*
X02061Y03691*
X02057Y0369*
X02054Y03693*
X02053Y03694*
X02049Y03698*
X02044Y03699*
X02038Y03698*
X02034Y03694*
X02031Y0369*
X02029Y03685*
X02031Y03679*
X02034Y03675*
X02038Y03672*
X02039Y03669*
X02037Y03663*
X02036Y03663*
X02031Y03664*
X02025Y03663*
X02021Y0366*
X02018Y03655*
X02016Y0365*
X02018Y03644*
X02021Y0364*
X02025Y03637*
X02031Y03636*
X02036Y03637*
X02037Y03637*
X0204Y03628*
X02036Y03625*
X02033Y03621*
X02031Y03616*
X02033Y0361*
X02036Y03606*
X0204Y03603*
X02046Y03601*
X02051Y03603*
X02055Y03606*
X02058Y0361*
X02066Y03606*
X02065Y03602*
X02067Y03596*
X0207Y03592*
X02074Y03589*
X0208Y03587*
X02085Y03589*
X02089Y03592*
X02093Y03596*
X02094Y03601*
X02094Y03602*
X02098Y03603*
X02099Y03603*
X02101Y03601*
X02105Y03598*
X02104Y03592*
X02105Y03587*
X02106Y03585*
X02108Y0358*
X02105Y03576*
X02104Y03571*
X02105Y03565*
X02108Y03561*
X02112Y03558*
X02118Y03557*
X02123Y03558*
X02127Y03561*
X02131Y03565*
X02132Y03571*
X02131Y03576*
X02129Y03577*
X02129Y0358*
X02132Y03585*
X02135Y03586*
X02136*
X0214Y03586*
X02161*
X02164Y03586*
X02167Y03588*
X02171Y03592*
X02175Y03594*
X022*
Y03595*
X02224*
X02227Y03596*
X0223Y03598*
X02241Y03609*
X02243Y03612*
X02244Y03615*
Y03649*
X02267*
Y0367*
X02264*
Y03678*
X02265Y03679*
X02268Y03683*
X02269Y03689*
X02268Y03694*
X02265Y03698*
X02261Y03702*
X02255Y03703*
X0225Y03702*
X02245Y03698*
X02242Y03694*
X02241Y03689*
X02242Y03683*
X02245Y03679*
X02246Y03678*
Y0367*
X02242*
Y03663*
X02237Y03661*
X02232Y03666*
X0223Y03667*
Y03671*
X02223*
X02222Y03673*
Y03676*
X02226Y03679*
X02229Y03683*
X0223Y03689*
X02229Y03694*
X02226Y03698*
X02221Y03702*
X02216Y03703*
X0221Y03702*
X02206Y03698*
X02205Y03698*
X02205*
X02201Y03697*
X02198Y03695*
X02189Y03686*
X02187Y03683*
X02187Y0368*
Y03647*
X02187Y03644*
X02189Y03641*
X02197Y03633*
X022Y03631*
X02201Y03631*
Y03628*
X02226*
Y03619*
X0222Y03613*
X022*
Y03615*
X02175*
Y03615*
X0217Y03613*
X02167Y03613*
X02164Y03611*
X02157Y03604*
X02148*
X02147Y03604*
X02144Y03609*
X02145Y03612*
X02144Y03617*
Y03617*
X02146Y03622*
X02164*
Y03635*
X02166Y03636*
X0217Y03639*
X02174Y03643*
X02175Y03649*
X02174Y03654*
X0217Y03658*
X02166Y03662*
X02161Y03663*
X02155Y03662*
X02151Y03658*
X02148Y03654*
X02147Y0365*
X02145Y03649*
X02142Y0365*
X0214Y03652*
X0214Y03653*
X02136Y03657*
X02132Y03661*
X02127Y03662*
X02125Y03661*
X02124Y03662*
X0212Y03671*
X02121Y03673*
X02125Y03676*
X02129Y0368*
X0213Y03686*
X02129Y03691*
X02125Y03695*
X02121Y03699*
X02116Y037*
X0211Y03699*
X02106Y03695*
X02103Y03691*
X02101Y0369*
X02093Y03694*
X02094Y03699*
X02093Y03704*
X02089Y03708*
X02085Y03712*
X0208Y03713*
G37*
G36*
X02371Y03701D02*
X02365Y037D01*
X02361Y03696*
X02358Y03692*
X02357Y03687*
X02358Y03681*
X02361Y03677*
X02365Y03674*
X02371Y03673*
X02376Y03674*
X0238Y03677*
X02384Y03681*
X02385Y03687*
X02384Y03692*
X0238Y03696*
X02376Y037*
X02371Y03701*
G37*
G36*
X04172Y03699D02*
X04151D01*
Y03674*
X04152*
Y03661*
X04133*
X04132*
X04128*
X04127*
X04065*
Y03635*
X04055*
X04051Y03634*
X04048Y03632*
X04042Y03625*
X04035Y03625*
X04028Y03632*
X04025Y03634*
X04021Y03635*
X04011*
X04008Y0364*
X04009Y0364*
X0401Y03646*
X04009Y03651*
X04005Y03655*
X04001Y03659*
X03996Y0366*
X03993Y03659*
X03988Y03658*
X03967*
Y03651*
X03966Y0365*
X03965Y03646*
X03966Y03641*
X03967Y0364*
Y03634*
X03965Y03634*
X03962Y03632*
X03951Y03621*
X03949Y03618*
X03949Y03615*
X03946*
Y03586*
X03948*
Y03581*
X03946*
Y03552*
X03967*
Y03527*
X03988*
X03992Y03525*
X03992Y03521*
X03993Y03515*
X03996Y03511*
X04Y03508*
X04006Y03506*
X04011Y03508*
X04015Y03511*
X04016Y03512*
X04038*
X04041Y03512*
X04044Y03514*
X04052Y03522*
X04054Y03525*
X04055Y03529*
Y03613*
X04059Y03617*
X04065*
Y0359*
X04127*
X04128*
X04132*
X04133*
X04195*
Y03661*
X0417*
Y03674*
X04172*
Y03699*
G37*
G36*
X03956Y03689D02*
X0395Y03688D01*
X03946Y03685*
X03943Y0368*
X03942Y03675*
X03943Y0367*
X03946Y03665*
X0395Y03662*
X03956Y03661*
X03961Y03662*
X03965Y03665*
X03969Y0367*
X0397Y03675*
X03969Y0368*
X03965Y03685*
X03961Y03688*
X03956Y03689*
G37*
G36*
X03086Y03701D02*
X03079Y037D01*
X03073Y03698*
X03067Y03694*
X03063Y03688*
X03061Y03682*
X0306Y03676*
X03061Y03669*
X03063Y03663*
X03067Y03657*
X03073Y03653*
X03079Y03651*
X03086Y0365*
X03092Y03651*
X03098Y03653*
X03104Y03657*
X03108Y03663*
X0311Y03669*
X03111Y03676*
X0311Y03682*
X03108Y03688*
X03104Y03694*
X03098Y03698*
X03092Y037*
X03086Y03701*
G37*
G36*
X03929Y03689D02*
X03908D01*
Y03664*
X03909Y03659*
X03909Y03656*
X0391Y0365*
X03913Y03646*
X03917Y03643*
X03923Y03641*
X03928Y03643*
X03932Y03646*
X03936Y0365*
X03937Y03656*
X03936Y03661*
X03932Y03665*
X03929Y03668*
Y03689*
G37*
G36*
X04269Y03639D02*
X04263Y03638D01*
X04259Y03634*
X04256Y0363*
X04255Y03629*
X04251Y03625*
X0425*
X04247Y03625*
X04244Y03623*
X04243Y03621*
X04232*
X04227*
X04202*
Y036*
X04227*
X04232*
X04255*
X04258Y03598*
X0426Y03596*
X04261Y03592*
X04261Y03591*
X0426Y0359*
X04256Y03587*
X04232*
X04231*
X04227Y03587*
X04202*
Y03566*
X04226*
X04227*
X04231Y03566*
X04256*
Y03568*
X0426*
X04263Y03568*
X04266Y0357*
X0428Y03584*
X04281Y03586*
X04283Y03588*
X04287Y03592*
X04288Y03598*
X04287Y03603*
X04283Y03607*
X0428Y0361*
X04279Y03613*
X04279Y03616*
X04282Y03619*
X04283Y03625*
X04282Y0363*
X04278Y03634*
X04274Y03638*
X04269Y03639*
G37*
G36*
X04326Y03688D02*
X04316Y03687D01*
X04307Y03683*
X043Y03677*
X04294Y0367*
X04291Y03661*
X04289Y03652*
X04291Y03642*
X04294Y03633*
X043Y03626*
X04307Y0362*
X04316Y03617*
X04326Y03615*
X04335Y03617*
X04344Y0362*
X04351Y03626*
X04357Y03633*
X04361Y03642*
X04362Y03652*
X04361Y03661*
X04357Y0367*
X04351Y03677*
X04344Y03683*
X04335Y03687*
X04326Y03688*
G37*
G36*
X02842Y0358D02*
X02799D01*
Y03537*
X02842*
Y0358*
G37*
G36*
X04326Y03609D02*
X04316Y03608D01*
X04307Y03604*
X043Y03598*
X04294Y03591*
X04291Y03582*
X04289Y03573*
X04291Y03563*
X04294Y03555*
X043Y03547*
X04307Y03541*
X04316Y03538*
X04326Y03537*
X04335Y03538*
X04344Y03541*
X04351Y03547*
X04357Y03555*
X04361Y03563*
X04362Y03573*
X04361Y03582*
X04357Y03591*
X04351Y03598*
X04344Y03604*
X04335Y03608*
X04326Y03609*
G37*
G36*
X04132Y03569D02*
X04128D01*
X04127*
X04065*
Y03498*
X04127*
X04128*
X04132*
X04133*
X04195*
Y03569*
X04133*
X04132*
G37*
G36*
X02255Y03471D02*
X0225Y0347D01*
X02245Y03466*
X02242Y03462*
X02238Y0346*
X02236Y03461*
X0223Y0346*
X02226Y03456*
X02223Y03452*
X02222Y03447*
X02223Y03441*
X02226Y03437*
X0223Y03434*
X02236Y03433*
X02241Y03434*
X02245Y03437*
X02249Y03441*
X02253Y03443*
X02255Y03443*
X02261Y03444*
X02265Y03447*
X02268Y03451*
X02269Y03457*
X02268Y03462*
X02265Y03466*
X02261Y0347*
X02255Y03471*
G37*
G36*
X03922Y03494D02*
X03917Y03493D01*
X03917Y03493*
X03909*
Y03477*
X03909Y03477*
X03908Y03472*
X03909Y03466*
X03912Y03462*
X03912Y03461*
X03913Y0346*
X03917Y03457*
X03922Y03456*
X03926Y03457*
X0393Y0346*
X03931Y03461*
X03932Y03462*
X03935Y03466*
X03936Y03472*
X03935Y03477*
X03935Y03477*
Y03493*
X03927*
X03926Y03493*
X03922Y03494*
G37*
G36*
X03861Y03461D02*
X03855Y0346D01*
X03851Y03456*
X03848Y03452*
X03847Y03447*
X03848Y03441*
X03851Y03437*
X03855Y03434*
X03861Y03433*
X03866Y03434*
X0387Y03437*
X03874Y03441*
X03875Y03447*
X03874Y03452*
X0387Y03456*
X03866Y0346*
X03861Y03461*
G37*
G36*
X04399Y0344D02*
X04389Y03438D01*
X04381Y03435*
X04377Y03432*
X04376Y03432*
X04372Y03436*
X04367Y03437*
X04361Y03436*
X04357Y03432*
X04354Y03428*
X04353Y03423*
X04353Y03421*
X0435Y03416*
X04346Y03412*
X04343Y03408*
X04341Y03403*
X04343Y03397*
X04346Y03393*
X0435Y0339*
X04353Y03389*
X04357Y03384*
X04356Y03384*
X04358Y03378*
X04361Y03374*
X04365Y03371*
X04371Y0337*
X04376Y03371*
X0438Y03373*
X04381Y03373*
X04389Y03369*
X04399Y03368*
X04408Y03369*
X04416Y03373*
X04417Y03374*
X04418*
X04422Y03371*
X04428Y0337*
X04433Y03371*
X04437Y03374*
X04441Y03378*
X04442Y03384*
X04441Y03385*
X04442Y03389*
X04445Y0339*
X04447Y03391*
X04451Y03394*
X04455Y03398*
X04456Y03404*
X04455Y03409*
X04451Y03413*
X04447Y03417*
X04447*
X04443Y03419*
X04444Y03425*
X04443Y0343*
X04439Y03434*
X04435Y03438*
X0443Y03439*
X04424Y03438*
X0442Y03434*
X04417Y03434*
X04416Y03435*
X04408Y03438*
X04399Y0344*
G37*
G36*
X02144Y03464D02*
X02138Y03463D01*
X02134Y03459*
X02131Y03455*
X0213Y0345*
X02131Y03444*
X02134Y0344*
X02138Y03437*
X02144Y03436*
X02144Y03436*
X02148Y03432*
Y03415*
X02147Y03415*
X02143Y03412*
X0214Y03413*
X02134Y03412*
X0213Y03408*
X02127Y03404*
X02126Y03399*
X02127Y03393*
X0213Y03389*
X02131Y03387*
Y03383*
X02128Y03379*
X02127Y03374*
X02128Y03368*
X02131Y03364*
X02135Y03361*
X02141Y0336*
X02143Y0336*
X02143Y0336*
X02148Y03357*
X02148Y03356*
Y03334*
X02213*
Y03359*
Y03385*
Y03411*
Y03438*
X02193*
Y03441*
X02192Y03445*
X02189Y03449*
X0218Y03458*
X02176Y03461*
X02172Y03462*
X0215*
X02149Y03463*
X02144Y03464*
G37*
G36*
X03894Y0346D02*
X03888Y03459D01*
X03884Y03455*
X03881Y03451*
X0388Y03446*
X03881Y0344*
X03882Y03439*
Y03387*
X03881*
Y03379*
X03881Y03377*
X03881Y03376*
Y03366*
X03888*
X03889Y03365*
X03894Y03364*
X03898Y03365*
X03899Y03366*
X03906*
Y03387*
X03906*
Y03439*
X03907Y0344*
X03908Y03446*
X03907Y03451*
X03903Y03455*
X03899Y03459*
X03894Y0346*
G37*
G36*
X0397Y0337D02*
D01*
X03957*
X03952Y03369*
X03951Y03369*
X03944*
Y03347*
X03951*
X03952Y03347*
X03957Y03346*
X03965*
X0397Y03341*
X03971Y03339*
X03974Y03335*
X03978Y03332*
X03984Y03331*
X03989Y03332*
X03993Y03335*
X03997Y03339*
X03998Y03345*
X03997Y0335*
X03993Y03354*
X03989Y03358*
X03987Y03358*
X03979Y03366*
X03975Y03369*
X0397Y0337*
G37*
G36*
X04334Y0332D02*
X04214D01*
Y03303*
X04069*
Y0332*
X03949*
Y03253*
X04069*
Y03271*
X04191*
X04193Y03266*
X04192Y03263*
X0419Y03258*
X04192Y03252*
X04194Y03248*
X04194Y03245*
X04193Y03243*
X04191Y03242*
X04186Y03239*
X04183Y03235*
X04182Y03229*
X04183Y03224*
X04186Y03219*
X04187Y03219*
X0419Y03216*
Y03203*
X0416*
Y03203*
X04155Y03201*
X04151Y03202*
X04145Y03201*
X04141Y03197*
X04138Y03193*
X04137Y03188*
X04138Y03182*
X04141Y03178*
X04141Y03177*
X0414Y03172*
X04136Y03172*
X04132Y03168*
X04129Y03164*
X04128Y03159*
X04129Y03153*
X04132Y03149*
X04136Y03146*
X04142Y03144*
X04147Y03146*
X04151Y03149*
X04155Y03153*
X04156Y03159*
X04155Y03164*
X04153Y03166*
X04154Y03172*
X04155Y03172*
X04157Y03173*
X0416Y03172*
X04175*
Y03152*
X04175Y03151*
X04172Y03147*
X0417Y03142*
X04172Y03136*
X04175Y03132*
X04179Y03129*
X04185Y03127*
X0419Y03129*
X04194Y03131*
X04199Y03134*
X04203Y03131*
X04209Y0313*
X04214Y03131*
X04218Y03134*
X04222Y03138*
X04223Y03144*
X04222Y03149*
X0422Y03151*
X04223Y03156*
X04224*
Y03187*
X04215*
X0421Y03188*
Y03209*
X04215Y03212*
X04219Y03212*
X04224Y03213*
X04228Y03216*
X04232Y0322*
X04233Y03226*
X04232Y03231*
X04228Y03235*
X04224Y03239*
X04219Y0324*
X04213Y03239*
X04211Y03237*
X04208Y03239*
X04209Y03244*
X0421Y03245*
X04214Y03248*
X04218Y03252*
X04218Y03253*
X04334*
Y0332*
G37*
G36*
X04399Y03361D02*
X04389Y0336D01*
X04381Y03356*
X04373Y0335*
X04368Y03343*
X04364Y03334*
X04363Y03325*
X04364Y03316*
X04368Y03307*
X04373Y033*
X04381Y03294*
X04389Y03291*
X04399Y03289*
X04408Y03291*
X04416Y03294*
X04424Y033*
X0443Y03307*
X04433Y03316*
X04434Y03325*
X04433Y03334*
X0443Y03343*
X04424Y0335*
X04416Y03356*
X04408Y0336*
X04399Y03361*
G37*
G36*
X03125Y03315D02*
X03119Y03314D01*
X03115Y0331*
X03112Y03306*
X0311Y03301*
X03112Y03295*
X03115Y03291*
X03119Y03288*
X03125Y03287*
X0313Y03288*
X03134Y03291*
X03138Y03295*
X03139Y03301*
X03138Y03306*
X03134Y0331*
X0313Y03314*
X03125Y03315*
G37*
G36*
X02368Y03458D02*
X02349Y03456D01*
X02331Y03451*
X02315Y03442*
X023Y0343*
X02289Y03416*
X0228Y03399*
X02274Y03382*
X02273Y03363*
X02274Y03345*
X0228Y03327*
X02289Y0331*
X023Y03296*
X02315Y03284*
X02331Y03275*
X02349Y0327*
X02368Y03268*
X02386Y0327*
X02404Y03275*
X0242Y03284*
X02435Y03296*
X02446Y0331*
X02455Y03327*
X02461Y03345*
X02462Y03363*
X02461Y03382*
X02455Y03399*
X02446Y03416*
X02435Y0343*
X0242Y03442*
X02404Y03451*
X02386Y03456*
X02368Y03458*
G37*
G36*
X03707Y03455D02*
X03688Y03453D01*
X0367Y03448*
X03654Y03439*
X03639Y03427*
X03628Y03413*
X03619Y03396*
X03613Y03379*
X03612Y0336*
X03613Y03342*
X03619Y03324*
X03628Y03307*
X03639Y03293*
X03654Y03281*
X0367Y03272*
X03688Y03267*
X03707Y03265*
X03725Y03267*
X0374Y03272*
X03743Y03269*
X03743Y03267*
X03741Y03264*
X0374Y03261*
Y03242*
X03738Y03238*
X03736Y03232*
X03738Y03227*
X03741Y03222*
X03745Y03219*
X03751Y03218*
X03756Y03219*
X0376Y03222*
X03764Y03227*
X03765Y03232*
X03764Y03238*
X03761Y03242*
Y03256*
X03771Y03267*
X03774Y03266*
X03779Y03268*
X03783Y03271*
X03787Y03275*
X03788Y03281*
X03787Y03286*
X03783Y0329*
X0378Y03293*
X03778Y03298*
X03785Y03307*
X03794Y03324*
X038Y03342*
X03801Y0336*
X038Y03379*
X03794Y03396*
X03785Y03413*
X03774Y03427*
X03759Y03439*
X03743Y03448*
X03725Y03453*
X03707Y03455*
G37*
G36*
X04399Y03282D02*
X04389Y03281D01*
X04381Y03277*
X04373Y03272*
X04368Y03264*
X04364Y03256*
X04363Y03246*
X04364Y03237*
X04368Y03228*
X04373Y03221*
X04381Y03215*
X04389Y03212*
X04399Y03211*
X04408Y03212*
X04416Y03215*
X04424Y03221*
X0443Y03228*
X04433Y03237*
X04434Y03246*
X04433Y03256*
X0443Y03264*
X04424Y03272*
X04416Y03277*
X04408Y03281*
X04399Y03282*
G37*
G36*
X03415Y03232D02*
X03409Y03231D01*
X03405Y03227*
X03402Y03223*
X034Y03218*
X03402Y03212*
X03405Y03208*
X03409Y03205*
X03415Y03203*
X0342Y03205*
X03424Y03208*
X03428Y03212*
X03429Y03218*
X03428Y03223*
X03424Y03227*
X0342Y03231*
X03415Y03232*
G37*
G36*
X03882Y03238D02*
X03875Y03237D01*
X03869Y03235*
X03863Y03231*
X03859Y03225*
X03857Y03219*
X03856Y03213*
X03857Y03206*
X03859Y032*
X03859Y03199*
X03857Y03194*
X03799*
Y03204*
X03752*
Y03165*
Y03126*
X03799*
Y03136*
X03829*
X03833Y03137*
X03836Y03139*
X03841Y03145*
X03842*
X03846Y03142*
X03852Y0314*
X03857Y03142*
X03861Y03145*
X03862*
X03867Y03143*
Y03118*
X03857Y03109*
X0374*
X03737Y03114*
X03738Y03118*
X03737Y03121*
X0374Y03126*
Y03165*
Y03204*
X03733*
X03731Y03209*
X03732Y03214*
X03731Y03219*
X03727Y03223*
X03723Y03227*
X03718Y03228*
X03712Y03227*
X03708Y03223*
X03703Y03225*
X03699Y03227*
X03694Y03228*
X03688Y03227*
X03684Y03224*
X03681Y0322*
X03679Y03214*
X03681Y03209*
X03684Y03204*
X03688Y03201*
X03693Y032*
Y0316*
X03688Y03158*
X03687Y03158*
X03682Y03159*
X03676Y03158*
X03672Y03155*
X03669Y03151*
X03667Y03145*
X03669Y0314*
X03672Y03136*
X03676Y03132*
X03682Y03131*
X03687Y03132*
X03688Y03133*
X03693Y0313*
Y03126*
X03707*
X0371Y03121*
X03709Y03118*
X0371Y03114*
X03707Y03109*
X03601*
X036Y03109*
X03597Y03114*
Y03174*
X03596Y03177*
X03594Y0318*
X03584Y0319*
X03581Y03192*
X03578Y03192*
X03576*
Y03203*
X03559*
X03557Y03208*
X03558Y03213*
X03557Y03218*
X03553Y03222*
X03549Y03226*
X03544Y03227*
X03538Y03226*
X03534Y03222*
X03531Y03218*
X03529Y03213*
X0353Y03208*
X03529Y03203*
Y03164*
Y03134*
X03524Y03131*
X03523Y03131*
X03518Y03132*
X03517Y03133*
Y03164*
Y03203*
X03508*
X03505Y03208*
X03506Y03209*
X03507Y03215*
X03506Y0322*
X03503Y03224*
X03499Y03228*
X03493Y03229*
X03488Y03228*
X03483Y03224*
X0348Y0322*
X03479Y03215*
X0348Y03209*
X03481Y03208*
X03478Y03203*
X0347*
Y03164*
Y03124*
X0347Y03119*
X03469Y03117*
X0347Y03114*
X03467Y03109*
X03447*
X03447Y03109*
X03447Y0311*
Y0311*
X03447Y03111*
X03446Y03113*
X03445Y03114*
X03445Y03114*
X03444Y03116*
X03444Y03117*
X03443Y03118*
X03443Y03118*
X03443Y03118*
X03442Y03119*
X03442Y03119*
X03442Y0312*
X0344Y03122*
X03438Y03124*
X03437Y03125*
X03436Y03125*
X03436Y03126*
X03433Y03127*
X03433Y03127*
X03432Y03128*
X03427Y0313*
X03426Y03129*
X03425Y0313*
X03424Y03129*
X03424Y03129*
X03422Y03129*
X03422Y03129*
X03422Y03129*
X03418Y03127*
X03415Y03129*
X03414Y03129*
X03413Y03129*
X03413*
X03411Y0313*
X0341Y03129*
X03409Y03129*
X03409*
X03409Y03129*
X03408Y03129*
X03407Y03129*
X03403Y03131*
X03402Y03132*
X03402Y03132*
Y03169*
X03403Y0317*
X03404Y03176*
X03403Y03181*
X03402Y03182*
Y03184*
X03404Y03187*
X03405Y03192*
X03404Y03198*
X034Y03202*
X03396Y03205*
X03391Y03206*
X03386Y03206*
X03383Y03207*
X03381Y03209*
Y03209*
X03347*
X03346*
X03342*
X03341*
X03306*
Y03204*
X03286*
Y03208*
X03255*
Y03199*
X03254Y03194*
X03228*
X03227Y03194*
X03223Y03198*
X03218Y03199*
X03212Y03198*
X03208Y03194*
X03205Y0319*
X03203Y03185*
X03205Y03179*
X03208Y03175*
X03212Y03172*
X03218Y0317*
X03223Y03172*
X03227Y03174*
X03239*
Y03144*
X03242*
Y03129*
X03243Y03124*
X03246Y0312*
X03252Y03115*
Y03105*
X03245Y03103*
X03238Y03097*
X03232Y0309*
X03229Y03081*
X03227Y03072*
X03229Y03062*
X03232Y03053*
X03238Y03046*
X03245Y0304*
X03254Y03037*
X03264Y03035*
X03273Y03037*
X03282Y0304*
X03289Y03046*
X03295Y03053*
X03299Y03062*
X033Y03072*
X03299Y03081*
X03295Y0309*
X03289Y03097*
X03282Y03103*
X03276Y03105*
Y0312*
X03275Y03124*
X03272Y03128*
X03266Y03134*
Y03144*
X0327*
Y03159*
X03294*
X03294Y03159*
X03298Y03156*
X03304Y03154*
X03309Y03156*
X03313Y03159*
X03317Y03163*
X03318Y03169*
X03317Y03171*
X03321Y03176*
X03341*
X03342*
X03346*
X03347*
X03375*
X03376Y03176*
X03377Y0317*
X03378Y03169*
Y03119*
X03378Y03114*
X03381Y0311*
X03388Y03103*
X03388Y03098*
X03384Y03095*
X03378Y03097*
X03368Y03095*
X03361Y0309*
X03355Y03082*
X03353Y03073*
X03355Y03063*
X03361Y03056*
X03368Y0305*
X03378Y03048*
X03383Y0305*
X0339Y03043*
X03391Y03041*
X03391Y03041*
X03391Y0304*
X03392Y03038*
X03393Y03037*
X03393Y03036*
X03394Y03036*
X03394Y03036*
X03394Y03035*
X03394Y03035*
X03395Y03034*
X03397Y03032*
X03398Y03031*
X034Y03029*
X034Y03029*
X03401Y03029*
X03403Y03027*
X03404Y03027*
X03405Y03026*
X03409Y03025*
X0341Y03025*
X03411Y03024*
X03412Y03025*
X03413Y03025*
X03414Y03025*
X03414Y03025*
X03415Y03025*
X03418Y03027*
X03422Y03025*
X03423Y03025*
X03423Y03025*
X03424*
X03425Y03025*
X03427Y03025*
X03427*
X03428*
X03428*
X03428Y03025*
X03431Y03026*
X03432Y03027*
X03433Y03027*
X03434Y03028*
X03434Y03028*
X03435Y03028*
X03436Y03029*
X03437Y0303*
X03437Y0303*
X03439Y03031*
X0344Y03032*
X0344Y03033*
X03441Y03033*
X03441Y03033*
X03442Y03034*
X03442Y03034*
X03442Y03035*
X03444Y03037*
X03445Y03039*
X03445Y0304*
Y0304*
X03445Y03041*
X03445Y03041*
X03496*
X03497Y03039*
X03502Y03032*
X0351Y03026*
X03518Y03023*
X03528Y03021*
X03537Y03023*
X03545Y03026*
X03553Y03032*
X03559Y03039*
X03562Y03048*
X03563Y03057*
X03562Y03066*
X03559Y03075*
X03553Y03082*
X03548Y03086*
X0355Y03091*
X03621*
X03623Y03086*
X03618Y03082*
X03613Y03075*
X03609Y03066*
X03608Y03057*
X03609Y03048*
X03613Y03039*
X03618Y03032*
X03626Y03026*
X03634Y03023*
X03644Y03021*
X03653Y03023*
X03661Y03026*
X03669Y03032*
X03675Y03039*
X03678Y03048*
X03679Y03057*
X03678Y03066*
X03675Y03075*
X03669Y03082*
X03664Y03086*
X03666Y03091*
X03734*
X03736Y03086*
X03731Y03082*
X03726Y03075*
X03722Y03066*
X03721Y03057*
X03722Y03048*
X03726Y03039*
X03731Y03032*
X03739Y03026*
X03747Y03023*
X03757Y03021*
X03766Y03023*
X03774Y03026*
X03782Y03032*
X03788Y03039*
X03791Y03048*
X03792Y03057*
X03791Y03066*
X03788Y03075*
X03782Y03082*
X03777Y03086*
X03779Y03091*
X03852*
X03854Y03086*
X03849Y03082*
X03844Y03075*
X0384Y03066*
X03839Y03057*
X0384Y03048*
X03844Y03039*
X03849Y03032*
X03857Y03026*
X03865Y03023*
X03875Y03021*
X03884Y03023*
X03892Y03026*
X039Y03032*
X03906Y03039*
X03909Y03048*
X0391Y03057*
X03909Y03066*
X03906Y03075*
X039Y03082*
X03892Y03088*
X03884Y03092*
X03875Y03093*
X03874Y03093*
X03871Y03097*
X03882Y03108*
X03884Y03111*
X03885Y03115*
Y03169*
X03884Y03173*
X03882Y03176*
X03875Y03183*
X03877Y03187*
X03882Y03187*
X03888Y03188*
X03894Y0319*
X039Y03194*
X03904Y032*
X03907Y03206*
X03907Y03213*
X03907Y03219*
X03904Y03225*
X039Y03231*
X03894Y03235*
X03888Y03237*
X03882Y03238*
G37*
G36*
X03594Y03261D02*
X03588Y0326D01*
X03584Y03257*
X03581Y03252*
X0358Y03247*
X03581Y03241*
X03584Y03237*
X03588Y03234*
X03594Y03233*
X03596Y03228*
X03595Y03226*
X03593Y0322*
X03592Y03214*
X03593Y03207*
X03595Y03201*
X03599Y03195*
X03605Y03191*
X03611Y03189*
X03618Y03188*
X03624Y03189*
X0363Y03191*
X03636Y03195*
X0364Y03201*
X03642Y03207*
X03643Y03214*
X03642Y0322*
X0364Y03226*
X03636Y03232*
X0363Y03236*
X03624Y03238*
X03618Y03239*
X03611Y03238*
X03611Y03238*
X03609Y0324*
X03607Y03242*
X03608Y03247*
X03607Y03252*
X03603Y03257*
X03599Y0326*
X03594Y03261*
G37*
G36*
X03981Y03237D02*
X03974Y03236D01*
X03968Y03234*
X03962Y0323*
X03958Y03224*
X03956Y03218*
X03955Y03212*
X03956Y03205*
X03958Y03199*
X03962Y03193*
X03968Y03189*
X03974Y03187*
X03981Y03186*
X03987Y03187*
X03993Y03189*
X03999Y03193*
X04003Y03199*
X04005Y03205*
X04006Y03212*
X04005Y03218*
X04003Y03224*
X03999Y0323*
X03993Y03234*
X03987Y03236*
X03981Y03237*
G37*
G36*
X03907Y03186D02*
X03901Y03185D01*
X03897Y03181*
X03894Y03177*
X03893Y03172*
X03894Y03166*
X03897Y03162*
X03901Y03159*
X03907Y03157*
X03912Y03159*
X03916Y03162*
X0392Y03166*
X03921Y03172*
X0392Y03177*
X03916Y03181*
X03912Y03185*
X03907Y03186*
G37*
G36*
X02972Y03171D02*
X02966Y0317D01*
X02962Y03167*
X02959Y03163*
X02958Y03157*
X02959Y03152*
X02962Y03147*
X02966Y03144*
X02972Y03143*
X02977Y03144*
X02982Y03147*
X02985Y03152*
X02986Y03157*
X02985Y03163*
X02982Y03167*
X02977Y0317*
X02972Y03171*
G37*
G36*
X04089Y03148D02*
X04083Y03147D01*
X04079Y03143*
X04076Y03139*
X04075Y03134*
X04076Y03128*
X04079Y03124*
X04083Y03121*
X04089Y0312*
X04094Y03121*
X04098Y03124*
X04102Y03128*
X04103Y03134*
X04102Y03139*
X04098Y03143*
X04094Y03147*
X04089Y03148*
G37*
G36*
X03112Y03119D02*
X03106Y03118D01*
X03102Y03114*
X03099Y0311*
X03098Y03107*
X03093Y03103*
X0309Y03105*
X03081Y03106*
X03071Y03105*
X03066Y03103*
X03065Y03103*
X03061Y03106*
X03061Y0311*
X03057Y03114*
X03053Y03118*
X03048Y03119*
X03042Y03118*
X03038Y03114*
X03035Y0311*
X03034Y03105*
X03035Y03099*
X03038Y03095*
X03042Y03092*
X03045Y03091*
X03046Y0309*
X03048Y03087*
X03048Y03086*
X03046Y03079*
X03044Y0307*
X03046Y0306*
X03046Y03059*
X03043Y03054*
X0304Y03054*
X03036Y0305*
X03033Y03046*
X03031Y03041*
X03033Y03035*
X03036Y03031*
X0304Y03028*
X03046Y03026*
X03051Y03028*
X03055Y03031*
X03058Y03035*
X03059Y03036*
X03064Y03038*
X03071Y03035*
X03081Y03033*
X0309Y03035*
X03095Y03037*
X03099Y03035*
X03102Y03031*
X03106Y03028*
X03112Y03026*
X03117Y03028*
X03121Y03031*
X03125Y03035*
X03126Y03041*
X03125Y03046*
X03121Y0305*
X03117Y03054*
X03115Y03058*
X03116Y0306*
X03117Y0307*
X03116Y03079*
X03113Y03086*
X03115Y0309*
X03115Y03091*
X03117Y03092*
X03121Y03095*
X03125Y03099*
X03126Y03105*
X03125Y0311*
X03121Y03114*
X03117Y03118*
X03112Y03119*
G37*
G36*
X02991Y03123D02*
X02985Y03122D01*
X02981Y03118*
X02978Y03114*
X02976Y03109*
X02978Y03103*
X02981Y03099*
X02985Y03096*
X02991Y03094*
X02996Y03096*
X03Y03099*
X03004Y03103*
X03005Y03109*
X03004Y03114*
X03Y03118*
X02996Y03122*
X02991Y03123*
G37*
G36*
X04023Y03094D02*
X04017Y03093D01*
X04013Y03089*
X04012Y03088*
X0401Y03088*
X04002Y03092*
X03993Y03093*
X03983Y03092*
X03975Y03088*
X03971Y03089*
X0397Y03089*
X03966Y03093*
X03961Y03094*
X03955Y03093*
X03951Y03089*
X03948Y03085*
X03946Y0308*
X03948Y03074*
X03948Y03074*
X03947Y03069*
X03943Y03065*
X0394Y03061*
X03939Y03056*
X0394Y0305*
X03943Y03046*
X03947Y03043*
X03949Y03042*
X03952Y03037*
X0395Y03032*
X03952Y03026*
X03955Y03022*
X03959Y03019*
X03965Y03018*
X0397Y03019*
X03974Y03022*
X03977Y03025*
X03983Y03023*
X03993Y03021*
X04002Y03023*
X04008Y03025*
X0401Y03022*
X04014Y03019*
X0402Y03018*
X04025Y03019*
X04029Y03022*
X04033Y03026*
X04034Y03032*
X04033Y03037*
X04035Y03042*
X04037Y03043*
X04041Y03046*
X04045Y0305*
X04046Y03056*
X04045Y03061*
X04041Y03065*
X04037Y03068*
X04037Y03069*
X04035Y03074*
X04036Y03074*
X04037Y0308*
X04036Y03085*
X04032Y03089*
X04028Y03093*
X04023Y03094*
G37*
G36*
X04345Y03093D02*
X04335Y03092D01*
X04327Y03088*
X04319Y03082*
X04314Y03075*
X0431Y03066*
X04309Y03057*
X0431Y03048*
X04314Y03039*
X04319Y03032*
X04327Y03026*
X04335Y03023*
X04345Y03021*
X04354Y03023*
X04362Y03026*
X0437Y03032*
X04376Y03039*
X04379Y03048*
X0438Y03057*
X04379Y03066*
X04376Y03075*
X0437Y03082*
X04362Y03088*
X04354Y03092*
X04345Y03093*
G37*
G36*
X04229D02*
X04219Y03092D01*
X04211Y03088*
X04203Y03082*
X04198Y03075*
X04194Y03066*
X04193Y03057*
X04194Y03048*
X04198Y03039*
X04203Y03032*
X04211Y03026*
X04219Y03023*
X04229Y03021*
X04238Y03023*
X04246Y03026*
X04254Y03032*
X0426Y03039*
X04263Y03048*
X04264Y03057*
X04263Y03066*
X0426Y03075*
X04254Y03082*
X04246Y03088*
X04238Y03092*
X04229Y03093*
G37*
G36*
X04109D02*
X04099Y03092D01*
X04091Y03088*
X04083Y03082*
X04078Y03075*
X04074Y03066*
X04073Y03057*
X04074Y03048*
X04078Y03039*
X04083Y03032*
X04091Y03026*
X04099Y03023*
X04109Y03021*
X04118Y03023*
X04126Y03026*
X04134Y03032*
X0414Y03039*
X04143Y03048*
X04144Y03057*
X04143Y03066*
X0414Y03075*
X04134Y03082*
X04126Y03088*
X04118Y03092*
X04109Y03093*
G37*
%LNvapeix_mini_pcb-3*%
%LPD*%
G36*
X0343Y03122D02*
X03432Y0312D01*
X03435Y03117*
X03437Y03115*
X0344Y03111*
X03441Y03107*
X03441Y03099*
X0344Y03096*
X03436Y03091*
X03433Y03087*
X03429Y03085*
X03425Y03084*
X03423Y03085*
X03422Y03087*
Y03121*
X03425Y03123*
X0343Y03122*
G37*
G36*
X03413Y03123D02*
X03414Y0312D01*
Y03087*
X03411Y03084*
X03407Y03085*
X03404Y03087*
X03401Y0309*
X03399Y03092*
X03397Y03096*
X03396Y031*
X03396Y03108*
X03397Y03111*
X034Y03117*
X03403Y0312*
X03407Y03122*
X03411Y03123*
X03413Y03123*
G37*
G36*
X0343Y03069D02*
X03432Y03067D01*
X03435Y03065*
X03437Y03062*
X0344Y03058*
X03441Y03055*
X03441Y03046*
X0344Y03043*
X03436Y03038*
X03433Y03035*
X03429Y03032*
X03425Y03031*
X03423Y03032*
X03422Y03034*
Y03068*
X03425Y03071*
X0343Y03069*
G37*
G36*
X03413Y0307D02*
X03414Y03068D01*
Y03034*
X03411Y03031*
X03407Y03032*
X03404Y03034*
X03401Y03037*
X03399Y03039*
X03397Y03043*
X03396Y03047*
X03396Y03056*
X03397Y03058*
X034Y03064*
X03403Y03067*
X03407Y03069*
X03411Y0307*
X03413Y0307*
G37*
G54D10*
X03425Y03034D02*
D01*
X03426Y03034*
X03428Y03034*
X03429Y03035*
X0343Y03036*
X03431Y03036*
X03432Y03037*
X03433Y03038*
X03434Y03039*
X03434Y0304*
X03435Y03041*
X03436Y03042*
X03436Y03043*
X03437Y03044*
X03437Y03045*
X03438Y03046*
X03438Y03047*
X03438Y03048*
X03438Y0305*
X03438Y03051*
X03438Y03052*
X03438Y03053*
X03438Y03055*
X03438Y03056*
X03437Y03057*
X03437Y03058*
X03436Y03059*
X03436Y0306*
X03435Y03061*
X03434Y03062*
X03433Y03063*
X03432Y03064*
X03431Y03065*
X0343Y03065*
X03429Y03066*
X03428Y03067*
X03427Y03067*
X03426Y03067*
X03425Y03068*
X03411D02*
D01*
X0341Y03067*
X03409Y03067*
X03408Y03066*
X03407Y03066*
X03406Y03065*
X03405Y03064*
X03404Y03064*
X03403Y03063*
X03402Y03062*
X03401Y03061*
X03401Y0306*
X034Y03059*
X03399Y03058*
X03399Y03056*
X03399Y03055*
X03398Y03054*
X03398Y03053*
X03398Y03052*
X03398Y0305*
X03398Y03049*
X03398Y03048*
X03398Y03047*
X03399Y03046*
X03399Y03044*
X034Y03043*
X034Y03042*
X03401Y03041*
X03401Y0304*
X03402Y03039*
X03403Y03038*
X03404Y03037*
X03405Y03037*
X03406Y03036*
X03407Y03035*
X03408Y03035*
X03409Y03034*
X0341Y03034*
X03411Y03034*
X03425Y03087D02*
D01*
X03426Y03087*
X03428Y03087*
X03429Y03088*
X0343Y03088*
X03431Y03089*
X03432Y0309*
X03433Y03091*
X03434Y03091*
X03434Y03092*
X03435Y03093*
X03436Y03094*
X03436Y03095*
X03437Y03097*
X03437Y03098*
X03438Y03099*
X03438Y031*
X03438Y03101*
X03438Y03102*
X03438Y03104*
X03438Y03105*
X03438Y03106*
X03438Y03107*
X03438Y03108*
X03437Y0311*
X03437Y03111*
X03436Y03112*
X03436Y03113*
X03435Y03114*
X03434Y03115*
X03433Y03116*
X03432Y03117*
X03431Y03117*
X0343Y03118*
X03429Y03119*
X03428Y03119*
X03427Y0312*
X03426Y0312*
X03425Y0312*
X03411D02*
D01*
X0341Y0312*
X03409Y0312*
X03408Y03119*
X03407Y03119*
X03406Y03118*
X03405Y03117*
X03404Y03116*
X03403Y03115*
X03402Y03115*
X03401Y03114*
X03401Y03113*
X034Y03112*
X03399Y0311*
X03399Y03109*
X03399Y03108*
X03398Y03107*
X03398Y03106*
X03398Y03104*
X03398Y03103*
X03398Y03102*
X03398Y03101*
X03398Y031*
X03399Y03098*
X03399Y03097*
X034Y03096*
X034Y03095*
X03401Y03094*
X03401Y03093*
X03402Y03092*
X03403Y03091*
X03404Y0309*
X03405Y03089*
X03406Y03089*
X03407Y03088*
X03408Y03088*
X03409Y03087*
X0341Y03087*
X03411Y03087*
G54D11*
X03776Y03185D03*
Y03145D03*
X03716Y03185D03*
Y03145D03*
X03552Y03183D03*
Y03144D03*
X03493Y03183D03*
Y03144D03*
G54D12*
X04216Y03202D03*
X042D03*
X04169Y03159D03*
X04185D03*
G54D13*
X04208Y03171D03*
X04176Y03188D03*
G54D14*
X03369Y03675D03*
X03449D03*
X02443Y03678D03*
X03618Y03214D03*
X03882Y03213D03*
X03981Y03212D03*
X03164Y03676D03*
X03242D03*
X03086D03*
X03009D03*
G54D15*
X03449Y03571D03*
G54D16*
X03523Y03571D03*
G54D17*
X02596Y03592D03*
X02557D03*
G54D18*
X02737Y03482D03*
Y03502D03*
Y03522D03*
Y03541D03*
Y03561D03*
X02576Y03482D03*
Y03502D03*
Y03522D03*
Y03541D03*
Y03561D03*
G54D19*
X03405Y03051D03*
X03432D03*
X03405Y03104D03*
X03432D03*
G54D20*
X03244Y03544D03*
X03264D03*
X03144Y03594D03*
X03164D03*
X03031Y03591D03*
X03011D03*
X03264Y03595D03*
X03244D03*
X03978Y03567D03*
X03958D03*
Y03601D03*
X03978D03*
X02821Y03035D03*
X02801D03*
X03265Y03514D03*
X03245D03*
X0308Y03491D03*
X0306D03*
X02489Y03489D03*
X02509D03*
X02489Y03524D03*
X02509D03*
X02489Y03558D03*
X02509D03*
X02759Y03438D03*
X02739D03*
X02689Y03406D03*
X02669D03*
G54D21*
X03065Y03567D03*
Y03551D03*
X03108Y0352D03*
Y03536D03*
X0324Y032D03*
Y03184D03*
X03283Y03153D03*
Y03169D03*
G54D22*
X03096Y03559D03*
X03079Y03527D03*
X03271Y03192D03*
X03254Y0316D03*
G54D23*
X02365Y03552D03*
X02821Y03484D03*
G54D24*
X02365Y03626D03*
X02821Y03558D03*
G54D25*
X02309Y03527D03*
Y03601D03*
X02226Y03564D03*
G54D26*
X02152Y03613D03*
Y03632D03*
X02188Y03585D03*
Y03604D03*
X02255Y03659D03*
Y0364D03*
X04215Y03576D03*
Y03557D03*
X02444Y0307D03*
Y03051D03*
Y03093D03*
Y03112D03*
X02568Y03032D03*
Y03051D03*
X03922Y03482D03*
Y03501D03*
X04215Y0363D03*
Y0361D03*
X04244Y03577D03*
Y03557D03*
X04245Y0363D03*
Y0361D03*
X03894Y03376D03*
Y03357D03*
X03957Y03358D03*
Y03377D03*
X0251Y03464D03*
Y03445D03*
G54D27*
X02216Y0366D03*
Y0364D03*
G54D28*
X02181Y03373D03*
Y03399D03*
Y03424D03*
Y03348D03*
Y03322D03*
G54D29*
X02075Y0342D03*
Y03326D03*
G54D30*
X02172Y03247D03*
Y03499D03*
G54D31*
X02175Y03069D03*
X02308D03*
G54D32*
X02868Y03213D03*
X02857Y03224D03*
X02846Y03235D03*
X02835Y03246D03*
X02823Y03257D03*
X02812Y03268D03*
X02801Y03279D03*
X0279Y0329D03*
X02779Y03302D03*
X02768Y03313D03*
X02757Y03324D03*
X02746Y03335D03*
X02577Y03167D03*
X02588Y03155D03*
X02599Y03144D03*
X0261Y03133D03*
X02622Y03122D03*
X02633Y03111D03*
X02644Y031D03*
X02655Y03089D03*
X02666Y03078D03*
X02677Y03066D03*
X02688Y03055D03*
X027Y03044D03*
G54D33*
X027Y03335D03*
X02688Y03324D03*
X02677Y03313D03*
X02666Y03302D03*
X02655Y0329D03*
X02644Y03279D03*
X02633Y03268D03*
X02622Y03257D03*
X0261Y03246D03*
X02599Y03235D03*
X02588Y03224D03*
X02577Y03213D03*
X02746Y03044D03*
X02757Y03055D03*
X02768Y03066D03*
X02779Y03078D03*
X0279Y03089D03*
X02801Y031D03*
X02812Y03111D03*
X02823Y03122D03*
X02835Y03133D03*
X02846Y03144D03*
X02857Y03155D03*
X02868Y03167D03*
G54D34*
X02723Y0319D03*
G54D35*
X04096Y03534D03*
X04163D03*
X04096Y03626D03*
X04163D03*
G54D36*
X03363Y03192D03*
X03324D03*
G54D37*
X02932Y03281D03*
Y03438D03*
X03197Y03281D03*
Y03438D03*
X04009Y03287D03*
Y03444D03*
X04274Y03287D03*
Y03444D03*
G54D38*
X02516Y03071D03*
X02491D03*
G54D39*
X02503Y03105D03*
X02504Y03037D03*
G54D40*
X02548Y03071D03*
X02567D03*
X02892Y03197D03*
X02911D03*
X02894Y03128D03*
X02875D03*
X02627Y03031D03*
X02608D03*
X03977Y03646D03*
X03958D03*
X03977Y0354D03*
X03958D03*
X04142Y03687D03*
X04161D03*
X03918Y03677D03*
X03899D03*
X02699Y03595D03*
X02718D03*
G54D41*
X0271Y03353D03*
X02724Y03367D03*
G54D42*
X02542Y03423D03*
X02567D03*
X02618D03*
X02593D03*
Y03351D03*
X02618D03*
X02567D03*
X02542D03*
G54D43*
X02554Y03402D03*
G54D44*
X02605Y03402D03*
G54D45*
X02499Y0321D03*
X02388D03*
G54D46*
X02444Y03147D03*
G54D47*
X03129Y03419D02*
Y03434D01*
X03117Y03419D02*
X03129D01*
X02778Y03035D02*
X02801D01*
X02444Y03044D02*
Y03051D01*
Y03044D02*
X02451Y03037D01*
X02504*
X02567Y03052D02*
Y03071D01*
X02568Y03032D02*
X02582D01*
X02075Y03326D02*
X02079Y03322D01*
X02567Y03071D02*
X02593D01*
X02723Y03178D02*
Y0319D01*
X02756*
X02778*
X03108Y0352D02*
X03138D01*
X03149Y03509*
X03922Y03501D02*
Y03527D01*
X0392Y0353D02*
X03922Y03527D01*
X04215Y03557D02*
X04243D01*
X04244Y03557*
X04215Y0363D02*
X04245D01*
X03899Y0365D02*
Y03677D01*
X03936Y03624D02*
X03958Y03646D01*
X0392Y03624D02*
X03936D01*
X03873D02*
X03899Y0365D01*
X03894Y03348D02*
Y03357D01*
Y03348D02*
X03897Y03345D01*
X03994Y03444D02*
X04009D01*
X02778Y0319D02*
X02835Y03133D01*
X02593Y03071D02*
X02633Y03111D01*
X02644Y031D02*
X02723Y03178D01*
X03045Y03568D02*
X03045Y03567D01*
X03065*
X03751Y0323D02*
Y03261D01*
X03771Y03281*
X02582Y03032D02*
X02607D01*
X02608Y03031*
X02503Y03105D02*
Y03126D01*
X02514Y03136*
X03918Y0353D02*
X0392D01*
G54D48*
X02776Y03037D02*
X02778Y03035D01*
X02783Y03522D02*
Y03569D01*
X02775Y03577D02*
X02783Y03569D01*
X02705Y03577D02*
X02775D01*
X02699Y03582D02*
X02705Y03577D01*
X02699Y03582D02*
Y03595D01*
X02992Y03614D02*
X03011Y03632D01*
X03757Y03488D02*
Y03558D01*
X03748Y03479D02*
X03757Y03488D01*
X03592Y03479D02*
X03748D01*
X03747Y03567D02*
X03757Y03558D01*
X03735Y03567D02*
X03747D01*
X0426Y03577D02*
X04274Y03591D01*
Y03598*
X04245Y0361D02*
X0425Y03616D01*
X04255D02*
X04263Y03625D01*
X04269*
X0425Y03616D02*
X04255D01*
X02131Y03604D02*
X0214Y03595D01*
X02131Y03604D02*
Y03612D01*
X02132Y03611*
X02665Y03326D02*
Y03334D01*
X0266Y03339D02*
X02664Y03334D01*
X0266Y03339D02*
Y03363D01*
X02651Y03316D02*
Y03323D01*
X02641Y03333D02*
X02651Y03323D01*
X0264Y03333D02*
X02641D01*
X0264D02*
Y0335D01*
X03022Y03538D02*
X0305D01*
X03014Y03547D02*
X03022Y03538D01*
X03014Y03547D02*
Y03563D01*
X02884Y03614D02*
X02992D01*
X02862Y03592D02*
X02884Y03614D01*
X02862Y03451D02*
Y03592D01*
X03242Y03676D02*
X03249Y03669D01*
X0305Y03538D02*
X03061Y03527D01*
X0282Y03065D02*
Y03081D01*
X02691Y03017D02*
X02886D01*
X02141Y03399D02*
X02181D01*
X02141Y03399D02*
X02141Y03399D01*
X02152Y03632D02*
Y0364D01*
X02161Y03649*
X02196Y03647D02*
X02203Y0364D01*
X02216*
X02196Y03647D02*
Y0368D01*
X02205Y03689*
X02216*
X02226Y0366D02*
X02235Y03651D01*
X02216Y0366D02*
X02226D01*
X02188Y03604D02*
X02224D01*
X02235Y03615*
Y03651*
X02255Y0366D02*
Y03689D01*
X02255Y03659D02*
X02255Y0366D01*
X027Y03044D02*
Y03044D01*
X0254Y03541D02*
X02576D01*
X02524Y03558D02*
X0254Y03541D01*
X02509Y03558D02*
X02524D01*
X02511Y03522D02*
X02576D01*
X02509Y03524D02*
X02511Y03522D01*
X0251Y03464D02*
X02519D01*
X02525Y0347*
Y03492*
X02534Y03502*
X02576*
X02489Y03439D02*
X02509Y03419D01*
X02489Y03439D02*
Y03489D01*
X02508Y03506D02*
X02509Y03507D01*
X02478Y03506D02*
X02508D01*
X02471Y03499D02*
X02478Y03506D01*
X02471Y0344D02*
Y03499D01*
Y0344D02*
X02497Y03414D01*
Y03337D02*
Y03414D01*
X02509Y03489D02*
Y03507D01*
Y03524*
X02565Y03247D02*
X02588Y03224D01*
X02591Y0331D02*
X02633Y03268D01*
X02651Y03316D02*
X02666Y03302D01*
X02635Y03311D02*
X02655Y0329D01*
X02635Y03311D02*
Y03317D01*
X02613Y03311D02*
X02613Y03311D01*
Y03317*
X02613Y03311D02*
X02644Y03279D01*
X02509Y03348D02*
Y03419D01*
Y03348D02*
X0261Y03246D01*
X02591Y0331D02*
Y03314D01*
X02569Y03311D02*
Y03315D01*
Y03311D02*
X02622Y03257D01*
Y03257D02*
Y03257D01*
X02563Y03246D02*
X02563Y03247D01*
X02497Y03337D02*
X02599Y03235D01*
X02563Y03247D02*
X02564D01*
X02548Y03232D02*
X02549Y0323D01*
X0256*
X02577Y03213*
X02801Y031D02*
X0282Y03081D01*
X02846Y03144D02*
X02862Y03128D01*
X02875*
X02884Y03197D02*
X02892D01*
X02868Y03213D02*
X02884Y03197D01*
X02868Y03167D02*
X02869Y03168D01*
X02903*
X03009Y03676D02*
X03011Y03674D01*
X03079Y03491D02*
Y03527D01*
Y03491D02*
X0308Y03491D01*
X03164Y03676D02*
D01*
X03958Y03567D02*
Y03601D01*
X03978D02*
X03999D01*
X04004Y03596*
X04013*
X03978Y03567D02*
X0401D01*
X04012Y03569*
X04161Y03627D02*
Y03687D01*
Y03627D02*
X04163Y03626D01*
X04215Y0361D02*
X04245D01*
X04215Y03576D02*
X04243D01*
X04244Y03577*
X04148Y03188D02*
Y03188D01*
Y03188D02*
X04176D01*
X04208Y03144D02*
Y03171D01*
Y03144D02*
X04209Y03144D01*
X04185Y03142D02*
Y03159D01*
X03977Y0354D02*
X03992D01*
X03724Y03118D02*
Y03138D01*
X03716Y03145D02*
X03724Y03138D01*
X03771Y03281D02*
X03774D01*
X03552Y03144D02*
X03563Y03134D01*
X042Y03202D02*
Y03226D01*
X03918Y0366D02*
Y03677D01*
Y0366D02*
X03923Y03656D01*
X04046Y03617D02*
X04055Y03626D01*
X04096*
X04006Y03521D02*
X04038D01*
X04046Y03529*
Y03617*
X03493Y03124D02*
Y03144D01*
X03552Y03183D02*
X03578D01*
X03486Y03117D02*
X03493Y03124D01*
X03578Y03183D02*
X03588Y03174D01*
X03432Y03104D02*
X03436D01*
X03283Y03169D02*
X03304D01*
X03218Y03185D02*
X0324D01*
X0324Y03184*
X02625Y03072D02*
X02625Y03072D01*
X02639*
X02655Y03089*
X02643Y03055D02*
X02666Y03078D01*
X02607Y03055D02*
X02643D01*
X02607Y03055D02*
X02607Y03055D01*
X0282Y03103D02*
X02948D01*
X02812Y03111D02*
X0282Y03103D01*
X02948D02*
X02954Y03109D01*
X02678Y03044D02*
X02688Y03055D01*
X02661Y0305D02*
X02677Y03066D01*
X02661Y0304D02*
Y0305D01*
X02564Y03246D02*
X02565Y03247D01*
X02563D02*
X02564Y03246D01*
X02161Y03595D02*
X0217Y03604D01*
X02188*
X02739Y03438D02*
Y03481D01*
X02737Y03482D02*
X02739Y03481D01*
X0269Y03502D02*
X02737D01*
Y03522D02*
X02783D01*
X02821Y03484*
X02665Y03326D02*
X02677Y03313D01*
X02676Y03336D02*
X02688Y03324D01*
X02676Y03336D02*
Y0335D01*
X03276Y03397D02*
X03335Y03456D01*
X03503*
X03591Y03544*
X03653*
X03281Y03385D02*
X0334Y03444D01*
X03507*
X0359Y03527*
X03672*
X03286Y03373D02*
X03345Y03432D01*
X03512*
X0359Y0351*
X03693*
X03291Y03361D02*
X0335Y0342D01*
X03517*
X03589Y03492*
X03712*
X03716Y03496*
X03296Y03349D02*
X03355Y03408D01*
X03522*
X03592Y03479*
X02846Y03235D02*
X02846D01*
X02863Y03252*
X02857Y03224D02*
X02867Y03234D01*
X02884*
X0279Y0329D02*
X02801Y03301D01*
X02779Y03302D02*
X02789Y03311D01*
X02768Y03313D02*
X02777Y03322D01*
X02757Y03324D02*
X02765Y03332D01*
X02689Y03406D02*
X02777D01*
X02821Y0345*
Y03484*
X02765Y03332D02*
Y03338D01*
X02801Y03279D02*
X02812Y0329D01*
Y03268D02*
X02824Y0328D01*
X02823Y03257D02*
X02836Y0327D01*
X02835Y03246D02*
Y03247D01*
X02848Y0326*
Y03304*
X0287Y03326*
X0299*
X02836Y0327D02*
Y03309D01*
X02865Y03338*
X02995*
X02824Y0328D02*
Y03314D01*
X0286Y03349*
X03296*
X02812Y0329D02*
Y03318D01*
X02855Y03361*
X03291*
X02801Y03301D02*
Y03323D01*
X0285Y03373*
X03286*
X02789Y03311D02*
Y03328D01*
X02845Y03385*
X03281*
X02777Y03322D02*
Y03333D01*
X02841Y03397*
X03276*
X02866Y03438D02*
X02932D01*
X02861Y0345D02*
D01*
X02862Y03451*
X02746Y03335D02*
X02846Y03435D01*
X02851Y03441*
X02861Y0345*
X02765Y03338D02*
X02851Y03424D01*
X02863Y03436*
X02866Y03438*
X0299Y03326D02*
X03012Y03305D01*
Y03258D02*
Y03305D01*
X03224Y03233D02*
X03242D01*
X02995Y03338D02*
X03023Y03309D01*
Y03262D02*
Y03309D01*
Y03262D02*
X03062Y03224D01*
X03165*
X03062Y03207D02*
X03198D01*
X03012Y03258D02*
X03062Y03207D01*
X03198D02*
X03224Y03233D01*
X02567Y03157D02*
X02577Y03167D01*
X0257Y03137D02*
X02588Y03155D01*
X02589Y0309D02*
X02622Y03122D01*
X02552Y03157D02*
X02567D01*
X02538Y03137D02*
X0257D01*
X02551Y03098D02*
X02566D01*
X0214Y03595D02*
X02161D01*
X02141Y03373D02*
X02181D01*
X0306Y03466D02*
D01*
Y03491D01*
X03588Y03114D02*
Y03174D01*
X03031Y03559D02*
Y03591D01*
Y03559D02*
X03038Y03551D01*
X03065*
X03061Y03527D02*
X03079D01*
X02867Y03146D02*
X02908D01*
X02857Y03155D02*
X02858D01*
X02857D02*
X02867Y03146D01*
X03716Y03185D02*
X03717Y03184D01*
X03718Y03184*
X04196Y03229D02*
X042Y03226D01*
X02566Y03098D02*
X02577Y03108D01*
X02586*
X0261Y03133*
X02575Y0312D02*
X02599Y03144D01*
X02553Y0312D02*
X02553Y0312D01*
X02575*
X02586Y0309D02*
X02589D01*
X02627Y03031D02*
X0263Y03028D01*
X02645*
X02799Y03058D02*
Y0308D01*
X0279Y03089D02*
X02799Y0308D01*
X02776Y03037D02*
X02777Y03038D01*
X03718Y03184D02*
Y03214D01*
X03776Y03185D02*
X03859D01*
X03876Y03169*
X03776Y03145D02*
X03829D01*
X03839Y03155*
X03852*
X03574Y031D02*
X03861D01*
X03876Y03115*
Y03169*
X03484Y03117D02*
X03486D01*
X03563Y03118D02*
Y03134D01*
X03574Y031D02*
X03588Y03114D01*
X03436Y03104D02*
X0344Y031D01*
X03574*
X02676Y0335D02*
X02681Y03355D01*
X02886Y03017D02*
X02906Y03037D01*
X02678Y03031D02*
Y03044D01*
Y03031D02*
X02691Y03017D01*
X02821Y03035D02*
X0284Y03054D01*
X04163Y03602D02*
Y03626D01*
X04244Y03577D02*
X0426D01*
X0284Y03054D02*
X02898D01*
X02915Y03071*
Y03104*
X03992Y0354D02*
X04Y03548D01*
X03958Y03601D02*
Y03615D01*
X03969Y03626*
X04022Y03548D02*
X04033Y03559D01*
X04Y03548D02*
X04022D01*
X03969Y03626D02*
X04021D01*
X04033Y03615*
Y03559D02*
Y03615D01*
G54D49*
X02669Y03522D02*
X02688Y03541D01*
X02669Y03406D02*
Y03522D01*
X03188Y03514D02*
X03245D01*
X03166Y03536D02*
X03188Y03514D01*
X03108Y03536D02*
X03166D01*
X03369Y03551D02*
Y03675D01*
X03332Y03514D02*
X03369Y03551D01*
X03265Y03514D02*
X03332D01*
X02181Y03424D02*
Y03441D01*
X02172Y0345D02*
X02181Y03441D01*
X02144Y0345D02*
X02172D01*
X02669Y03394D02*
X0268Y03383D01*
X02255Y03593D02*
Y0364D01*
Y03593D02*
X02256Y03592D01*
X0256Y03418D02*
X02565Y03413D01*
X02554Y03418D02*
X0256D01*
X03378Y03073D02*
X03399Y03051D01*
X03405*
X02669Y03394D02*
Y03406D01*
X02565Y03413D02*
X02567Y03414D01*
X03151Y03557D02*
X03164Y03569D01*
X03098Y03557D02*
X03151D01*
X03096Y03559D02*
X03098Y03557D01*
X03244Y03544D02*
Y03572D01*
Y03595*
Y03572D02*
X03281D01*
X03301Y03592*
X03957Y03381D02*
Y03406D01*
X02444Y0307D02*
Y03071D01*
Y03093*
Y03112D02*
Y03147D01*
X02169Y03424D02*
X02181D01*
X02309Y03601D02*
Y0362D01*
X02315Y03626*
X02365*
X03011Y03591D02*
Y03674D01*
X03164Y03569D02*
Y03594D01*
Y03676*
X03957Y03358D02*
X0397D01*
X03984Y03345*
X03893Y03377D02*
X03894Y03376D01*
Y03378D02*
Y03446D01*
X03893Y03377D02*
X03894Y03378D01*
X03977Y03646D02*
X03996D01*
X03957Y03406D02*
X03994Y03444D01*
X03254Y03129D02*
Y0316D01*
Y03129D02*
X03264Y0312D01*
Y03072D02*
Y0312D01*
X03363Y03192D02*
X03391D01*
X03271D02*
X03324D01*
X02365Y03626D02*
X02387D01*
X02393Y03621*
Y0361D02*
Y03621D01*
X02688Y03541D02*
X02737D01*
X02759Y03438D02*
Y03458D01*
D01*
X0251Y03445D02*
X02524D01*
X02538Y03459*
X03301Y03592D02*
Y03638D01*
X03922Y03468D02*
Y03472D01*
X02557Y0358D02*
X02576Y03561D01*
X02557Y0358D02*
Y03592D01*
X02522D02*
X02557D01*
X03922Y03472D02*
Y03482D01*
X02567Y03414D02*
Y03423D01*
X0339Y03119D02*
X03405Y03104D01*
X0339Y03119D02*
Y03191D01*
X03391Y03192*
X02576Y03561D02*
X02615D01*
X02631Y03546*
Y03484D02*
Y03546D01*
X02609Y03463D02*
X02631Y03484D01*
X02585Y03463D02*
X02609D01*
X02567Y03445D02*
X02585Y03463D01*
X02567Y03423D02*
Y03445D01*
G54D50*
X03249Y03669D02*
X03264Y03654D01*
X03249Y03669D02*
X03295D01*
X03264Y03595D02*
Y03654D01*
G54D51*
X03405Y03051D02*
X03432D01*
X03405Y03104D02*
X03432D01*
G54D52*
X02308Y03069D02*
Y03071D01*
X02444*
X02491*
X02516Y03071D02*
X02547D01*
G54D53*
X02079Y03322D02*
X02181D01*
X04009Y03287D02*
X04268D01*
X04274*
X02365Y03552D02*
X02416D01*
X02442Y03525*
X02443*
X02487*
X02443D02*
Y03676D01*
Y03678*
X02388Y0321D02*
X02429D01*
X02457Y03212D02*
X02497D01*
X03405Y03051D02*
Y03104D01*
G54D54*
X02309Y03501D02*
Y03527D01*
Y03501D02*
X02322Y03488D01*
X02335*
G54D55*
X03432Y03051D02*
X03521D01*
X03528Y03057*
X027Y03335D02*
X0271Y03345D01*
Y03353*
X02699Y03363D02*
X0271Y03353D01*
X02699Y03363D02*
Y03369D01*
X02704Y03039D02*
X02712D01*
X027Y03044D02*
X02704Y03039D01*
G54D56*
X03449Y03571D02*
Y03675D01*
G54D57*
X03875Y03057D03*
X03644D03*
X03757D03*
X03993D03*
X04345D03*
X04109D03*
X04229D03*
X03528D03*
X04399Y03404D03*
Y03483D03*
Y03325D03*
Y03246D03*
G54D58*
X04326Y03652D03*
Y03573D03*
X03368Y0336D03*
X03525D03*
X02521Y03682D03*
X02621D03*
X02821D03*
X02721D03*
X03081Y0307D03*
X03264Y03072D03*
G54D59*
X02075Y03243D03*
Y03503D03*
G54D60*
X03655Y0341D03*
X03637Y03363D03*
X03657Y03313D03*
X03707Y03291D03*
X03754Y03312D03*
X03775Y03363D03*
X03755Y0341D03*
X03707Y03431D03*
X02369Y03433D03*
X02417Y03412D03*
X02437Y03365D03*
X02416Y03314D03*
X02369Y03293D03*
X02319Y03315D03*
X02299Y03365D03*
X02317Y03412D03*
X02256Y03592D03*
X02235Y03573D03*
X02275D03*
X02255Y03554D03*
G54D61*
X0208Y0365D03*
Y0308D03*
X0447Y03078D03*
Y03648D03*
G54D62*
X02368Y03363D03*
X03707Y0336D03*
G54D63*
X04356Y03403D03*
X04442Y03404D03*
X04428Y03384D03*
X04371D03*
X0443Y03425D03*
X04367Y03423D03*
X03129Y03434D03*
X03117Y03419D03*
X04023Y0308D03*
X03961D03*
X0402Y03032D03*
X03965Y03032D03*
X03953Y03056D03*
X04032D03*
X0268Y03383D03*
X02557Y03591D03*
X02539Y03592D03*
X03405Y03104D03*
Y03051D03*
Y03076D03*
X04274Y03598D03*
X04269Y03625D03*
X0306Y03469D03*
X02127Y03648D03*
X03046Y03041D03*
X03048Y03105D03*
X03112D03*
Y03041D03*
X04503Y03043D03*
X04471Y0303D03*
X04438Y03042D03*
X04519Y0308D03*
X04421D03*
X04434Y03114D03*
X0447Y03128D03*
X04506Y03114D03*
X02569Y03315D03*
X02591Y03314D03*
X02555Y034D03*
X02554Y03418D03*
X02109Y03613D03*
X02118Y03592D03*
X02131Y03612D03*
X02044Y03685D03*
X02116Y03686D03*
X0208Y03602D03*
X02046Y03616D03*
X02031Y0365D03*
X0208Y03699D03*
X03129Y03419D03*
X02381Y03484D03*
X03046Y03181D03*
X0309Y0318D03*
Y03157D03*
X03047D03*
X03751Y03232D03*
X03377Y03193D03*
X0339Y03176D03*
X03363Y03192D03*
X0236Y03488D03*
X02384Y03498D03*
X03038Y03494D03*
X03024Y03499D03*
X02987Y03589D03*
X02979Y03538D03*
X02568Y03428D03*
X02569Y03404D03*
X0254Y03404D03*
Y03428D03*
X02542Y03351D03*
X02928Y03576D03*
X0295Y03576D03*
X02959Y03589D03*
Y03563D03*
X02939D03*
Y03589D03*
X02918Y03563D03*
Y03589D03*
X03449Y0364D03*
X0347D03*
X03423Y03639D03*
X03461Y03594D03*
X03435Y03592D03*
X03472Y03571D03*
X03425D03*
X03449Y03614D03*
Y03675D03*
X03471Y03615D03*
X03425Y03614D03*
X03144Y03593D03*
X03136Y03577D03*
X02996Y03538D03*
X03059Y03589D03*
X0282Y03065D03*
X02582Y03032D03*
X02504Y03037D03*
X02077Y03324D03*
X02141Y03374D03*
X0214Y03399D03*
X02144Y0345D03*
X02821Y03558D03*
X02161Y03649D03*
X02216Y03689D03*
X02255D03*
X02335Y03488D03*
X02635Y03317D03*
X02613Y03317D03*
X02564Y03247D03*
X02548Y03232D03*
X02236Y03447D03*
X02255Y03457D03*
X02778Y03037D03*
X02799Y03058D03*
X02908Y03146D03*
X02862Y03128D03*
X02903Y03168D03*
X02972Y03157D03*
X02945Y03061D03*
X02954Y03109D03*
X02991D03*
X03009Y03676D03*
X03086D03*
X03149Y03509D03*
X04009Y03444D03*
X04274D03*
X03984Y03345D03*
X03894Y03446D03*
X04013Y03596D03*
X04012Y03569D03*
X04151Y03188D03*
X04209Y03144D03*
X04185Y03142D03*
X04268Y03287D03*
X04205Y03258D03*
X03996Y03646D03*
X03882Y03213D03*
X03724Y03118D03*
X03774Y03281D03*
X03838Y03264D03*
X03982Y03213D03*
X03594Y03247D03*
X04089Y03134D03*
X03923Y03656D03*
X03739Y03527D03*
X03956Y03675D03*
X04006Y03521D03*
X03897Y03344D03*
X03485Y03183D03*
X03544Y03213D03*
X03682Y03145D03*
X04142Y03159D03*
X03391Y03192D03*
X03304Y03169D03*
X03242Y03233D03*
X03218Y03185D03*
X03068Y03169D03*
X03165Y03224D03*
X02625Y03072D03*
X02607Y03055D03*
X02906Y03037D03*
X02852Y03082D03*
X02661Y0304D03*
X02641Y0303D03*
X02712Y03039D03*
X02932Y03438D03*
X03324Y03192D03*
X02393Y0361D03*
X02567Y03351D03*
X0269Y03502D03*
X02759Y03458D03*
X02681Y03355D03*
X02699Y03369D03*
X03693Y0351D03*
X03716Y03496D03*
X03735Y03567D03*
X03672Y03527D03*
X03653Y03544D03*
X02863Y03252D03*
X02885Y03234D03*
X02552Y03157D03*
X02538Y03137D03*
X02553Y0312D03*
X02551Y03098D03*
X02586Y0309D03*
X02443Y03676D03*
X02538Y03459D03*
X02384Y03095D03*
Y03121D03*
Y03146D03*
X02351D03*
X02314D03*
X02278D03*
X02242D03*
X02205D03*
X02169D03*
X02132D03*
X02384Y03022D03*
Y03048D03*
X02413D03*
X02411Y0312D03*
Y03095D03*
X02413Y03022D03*
X02118Y03094D03*
Y0312D03*
Y03047D03*
X02117Y03072D03*
X02151Y03165D03*
X02188D03*
X02224D03*
X02261D03*
X02297D03*
X02333D03*
X02207Y03186D03*
X02243D03*
X0228D03*
X02316D03*
X02352D03*
X02225Y03204D03*
X02262D03*
X02298D03*
X02334D03*
X02133Y03186D03*
X0217D03*
X02116Y03165D03*
Y03202D03*
X02188Y032D03*
X02151D03*
X02468Y03048D03*
X02446Y03021D03*
X02467Y03095D03*
Y03118D03*
X02079Y032D03*
X02076Y03162D03*
X02096Y03184D03*
X02095Y03145D03*
X02039Y03198D03*
Y03161D03*
X02056Y03182D03*
X02055Y03142D03*
X02066Y03027D03*
X02099D03*
X0204Y0307D03*
X02041Y03045D03*
Y03118D03*
Y03092D03*
X02077Y03129D03*
X02514Y03136D03*
X02487Y03137D03*
X0241Y03147D03*
X03415Y03218D03*
X04196Y03229D03*
X04219Y03226D03*
X04097Y03534D03*
X03861Y03447D03*
X03907Y03172D03*
X03618Y03215D03*
X0264Y03353D03*
X02658Y03369D03*
X03182Y03438D03*
X033Y03639D03*
X03096Y0356D03*
X03295Y03669D03*
X02371Y03687D03*
X03449Y03571D03*
X03493Y03215D03*
X03014Y03563D03*
X03049Y03569D03*
X0376Y03213D03*
X03718Y03214D03*
X02118Y03571D03*
X03922Y03472D03*
X02457Y03185D03*
X02431Y03184D03*
X02457Y03212D03*
X02431Y03212D03*
X03694Y03214D03*
X02522Y03592D03*
X03852Y03155D03*
X0354Y03117D03*
X03518Y03118D03*
X03484Y03117D03*
X03563Y03118D03*
X03125Y03301D03*
X04161Y03514D03*
X0416Y03627D03*
X04Y03548D03*
G54D64*
X03378Y03073D03*
G54D65*
X02656Y03223D03*
Y03156D03*
X02689Y0319D03*
X02622D03*
X02823D03*
X02789Y03156D03*
X02756Y03123D03*
X02723Y03089D03*
X02789Y03223D03*
X02756Y0319D03*
X02723Y03156D03*
X02689Y03123D03*
X02756Y03256D03*
X02723Y03223D03*
Y0329D03*
X02689Y03256D03*
X0392Y03577D03*
Y03624D03*
X03873Y03529D03*
Y03577D03*
Y03624D03*
X03825Y03529D03*
Y03577D03*
Y03624D03*
X03918Y0353D03*
G54D66*
X03037Y03514D03*
M02*