%FSTAX23Y23*%
%MOIN*%
%SFA1B1*%

%IPPOS*%
%AMD157*
4,1,4,0.010400,0.002100,0.002100,0.010400,-0.010400,-0.002100,-0.002100,-0.010400,0.010400,0.002100,0.0*
1,1,0.011800,0.006200,0.006200*
1,1,0.011800,-0.006200,-0.006200*
%
%AMD158*
4,1,4,0.002100,-0.010400,0.010400,-0.002100,-0.002100,0.010400,-0.010400,0.002100,0.002100,-0.010400,0.0*
1,1,0.011800,0.006200,-0.006200*
1,1,0.011800,-0.006200,0.006200*
%
%AMD159*
4,1,4,0.133600,0.000000,0.000000,0.133600,-0.133600,0.000000,0.000000,-0.133600,0.133600,0.000000,0.0*
%
%AMD165*
4,1,4,-0.001300,0.011100,-0.011100,0.001300,0.001300,-0.011100,0.011100,-0.001300,-0.001300,0.011100,0.0*
%
%ADD19C,0.007900*%
%ADD30R,0.055100X0.063000*%
%ADD31R,0.031500X0.063000*%
%ADD46R,0.039400X0.031500*%
%ADD60C,0.019700*%
%ADD70C,0.023600*%
%ADD137C,0.024000*%
%ADD138R,0.011800X0.019700*%
%ADD139R,0.023600X0.023600*%
%ADD140C,0.043300*%
%ADD141R,0.082700X0.047200*%
%ADD142R,0.035400X0.035400*%
%ADD143R,0.027600X0.023600*%
%ADD144O,0.070900X0.015700*%
%ADD145C,0.011800*%
%ADD146R,0.015000X0.020900*%
%ADD147R,0.019700X0.011800*%
%ADD148R,0.023600X0.023600*%
%ADD149R,0.047200X0.082700*%
%ADD150R,0.035400X0.035400*%
%ADD151R,0.043900X0.033900*%
%ADD152R,0.017700X0.013800*%
%ADD153R,0.020900X0.015000*%
%ADD154R,0.057100X0.019700*%
%ADD155R,0.065000X0.078700*%
%ADD156R,0.059100X0.066900*%
G04~CAMADD=157~3~0.0~0.0~118.0~295.0~0.0~0.0~0~0.0~0.0~0.0~0.0~0~0.0~0.0~0.0~0.0~0~0.0~0.0~0.0~315.0~242.0~242.0*
%ADD157D157*%
G04~CAMADD=158~3~0.0~0.0~118.0~295.0~0.0~0.0~0~0.0~0.0~0.0~0.0~0~0.0~0.0~0.0~0.0~0~0.0~0.0~0.0~225.0~242.0~242.0*
%ADD158D158*%
G04~CAMADD=159~10~0.0~1890.1~0.0~0.0~0.0~0.0~0~0.0~0.0~0.0~0.0~0~0.0~0.0~0.0~0.0~0~0.0~0.0~0.0~315.0~1890.1~0.0*
%ADD159D159*%
%ADD160R,0.027600X0.025600*%
%ADD161R,0.112200X0.059100*%
%ADD162R,0.017700X0.017700*%
%ADD163R,0.043300X0.021700*%
%ADD164R,0.013800X0.017700*%
G04~CAMADD=165~9~0.0~0.0~138.0~177.0~0.0~0.0~0~0.0~0.0~0.0~0.0~0~0.0~0.0~0.0~0.0~0~0.0~0.0~0.0~45.0~222.0~221.0*
%ADD165D165*%
%ADD166R,0.015700X0.031500*%
%ADD167R,0.041200X0.043300*%
%ADD168R,0.041100X0.043300*%
%ADD169R,0.035400X0.090600*%
%ADD170R,0.043300X0.035400*%
%ADD171C,0.063000*%
%ADD172C,0.063900*%
%ADD173O,0.066900X0.039400*%
%ADD174C,0.082700*%
%ADD175C,0.181100*%
%ADD176C,0.013000*%
%LNvapeix_mini_pcb-1*%
%LPD*%
G54D19*
X04356Y03403D03*
X04442Y03404D03*
X04428Y03384D03*
X04371D03*
X0443Y03425D03*
X04367Y03423D03*
X03129Y03434D03*
X03117Y03419D03*
X04023Y0308D03*
X03961D03*
X0402Y03032D03*
X03965Y03032D03*
X03953Y03056D03*
X04032D03*
X0268Y03383D03*
X02557Y03591D03*
X02539Y03592D03*
X03405Y03104D03*
Y03051D03*
Y03076D03*
X04274Y03598D03*
X04269Y03625D03*
X0306Y03469D03*
X02127Y03648D03*
X03046Y03041D03*
X03048Y03105D03*
X03112D03*
Y03041D03*
X04503Y03043D03*
X04471Y0303D03*
X04438Y03042D03*
X04519Y0308D03*
X04421D03*
X04434Y03114D03*
X0447Y03128D03*
X04506Y03114D03*
X02569Y03315D03*
X02591Y03314D03*
X02555Y034D03*
X02554Y03418D03*
X02109Y03613D03*
X02118Y03592D03*
X02131Y03612D03*
X02044Y03685D03*
X02116Y03686D03*
X0208Y03602D03*
X02046Y03616D03*
X02031Y0365D03*
X0208Y03699D03*
X03129Y03419D03*
X02381Y03484D03*
X03046Y03181D03*
X0309Y0318D03*
Y03157D03*
X03047D03*
X03751Y03232D03*
X03377Y03193D03*
X0339Y03176D03*
X03363Y03192D03*
X0236Y03488D03*
X02384Y03498D03*
X03038Y03494D03*
X03024Y03499D03*
X02987Y03589D03*
X02979Y03538D03*
X02568Y03428D03*
X02569Y03404D03*
X0254Y03404D03*
Y03428D03*
X02542Y03351D03*
X02928Y03576D03*
X0295Y03576D03*
X02959Y03589D03*
Y03563D03*
X02939D03*
Y03589D03*
X02918Y03563D03*
Y03589D03*
X03449Y0364D03*
X0347D03*
X03423Y03639D03*
X03461Y03594D03*
X03435Y03592D03*
X03472Y03571D03*
X03425D03*
X03449Y03614D03*
Y03675D03*
X03471Y03615D03*
X03425Y03614D03*
X03144Y03593D03*
X03136Y03577D03*
X02996Y03538D03*
X03059Y03589D03*
X0282Y03065D03*
X02582Y03032D03*
X02504Y03037D03*
X02077Y03324D03*
X02141Y03374D03*
X0214Y03399D03*
X02144Y0345D03*
X02821Y03558D03*
X02161Y03649D03*
X02216Y03689D03*
X02255D03*
X02335Y03488D03*
X02635Y03317D03*
X02613Y03317D03*
X02564Y03247D03*
X02548Y03232D03*
X02236Y03447D03*
X02255Y03457D03*
X02778Y03037D03*
X02799Y03058D03*
X02908Y03146D03*
X02862Y03128D03*
X02903Y03168D03*
X02972Y03157D03*
X02945Y03061D03*
X02954Y03109D03*
X02991D03*
X03009Y03676D03*
X03086D03*
X03149Y03509D03*
X04009Y03444D03*
X04274D03*
X03984Y03345D03*
X03894Y03446D03*
X04013Y03596D03*
X04012Y03569D03*
X04151Y03188D03*
X04209Y03144D03*
X04185Y03142D03*
X04268Y03287D03*
X04205Y03258D03*
X03996Y03646D03*
X03882Y03213D03*
X03724Y03118D03*
X03774Y03281D03*
X03838Y03264D03*
X03982Y03213D03*
X03594Y03247D03*
X04089Y03134D03*
X03923Y03656D03*
X03739Y03527D03*
X03956Y03675D03*
X04006Y03521D03*
X03897Y03344D03*
X03485Y03183D03*
X03544Y03213D03*
X03682Y03145D03*
X04142Y03159D03*
X03391Y03192D03*
X03304Y03169D03*
X03242Y03233D03*
X03218Y03185D03*
X03068Y03169D03*
X03165Y03224D03*
X02625Y03072D03*
X02607Y03055D03*
X02906Y03037D03*
X02852Y03082D03*
X02661Y0304D03*
X02641Y0303D03*
X02712Y03039D03*
X02932Y03438D03*
X03324Y03192D03*
X02393Y0361D03*
X02567Y03351D03*
X0269Y03502D03*
X02759Y03458D03*
X02681Y03355D03*
X02699Y03369D03*
X03693Y0351D03*
X03716Y03496D03*
X03735Y03567D03*
X03672Y03527D03*
X03653Y03544D03*
X02863Y03252D03*
X02885Y03234D03*
X02552Y03157D03*
X02538Y03137D03*
X02553Y0312D03*
X02551Y03098D03*
X02586Y0309D03*
X02443Y03676D03*
X02538Y03459D03*
X02384Y03095D03*
Y03121D03*
Y03146D03*
X02351D03*
X02314D03*
X02278D03*
X02242D03*
X02205D03*
X02169D03*
X02132D03*
X02384Y03022D03*
Y03048D03*
X02413D03*
X02411Y0312D03*
Y03095D03*
X02413Y03022D03*
X02118Y03094D03*
Y0312D03*
Y03047D03*
X02117Y03072D03*
X02151Y03165D03*
X02188D03*
X02224D03*
X02261D03*
X02297D03*
X02333D03*
X02207Y03186D03*
X02243D03*
X0228D03*
X02316D03*
X02352D03*
X02225Y03204D03*
X02262D03*
X02298D03*
X02334D03*
X02133Y03186D03*
X0217D03*
X02116Y03165D03*
Y03202D03*
X02188Y032D03*
X02151D03*
X02468Y03048D03*
X02446Y03021D03*
X02467Y03095D03*
Y03118D03*
X02079Y032D03*
X02076Y03162D03*
X02096Y03184D03*
X02095Y03145D03*
X02039Y03198D03*
Y03161D03*
X02056Y03182D03*
X02055Y03142D03*
X02066Y03027D03*
X02099D03*
X0204Y0307D03*
X02041Y03045D03*
Y03118D03*
Y03092D03*
X02077Y03129D03*
X02514Y03136D03*
X02487Y03137D03*
X0241Y03147D03*
X03415Y03218D03*
X04196Y03229D03*
X04219Y03226D03*
X04097Y03534D03*
X03861Y03447D03*
X03907Y03172D03*
X03618Y03215D03*
X0264Y03353D03*
X02658Y03369D03*
X03182Y03438D03*
X033Y03639D03*
X03096Y0356D03*
X03295Y03669D03*
X02371Y03687D03*
X03449Y03571D03*
X03493Y03215D03*
X03014Y03563D03*
X03049Y03569D03*
X0376Y03213D03*
X03718Y03214D03*
X02118Y03571D03*
X03922Y03472D03*
X02457Y03185D03*
X02431Y03184D03*
X02457Y03212D03*
X02431Y03212D03*
X03694Y03214D03*
X02522Y03592D03*
X03852Y03155D03*
X0354Y03117D03*
X03518Y03118D03*
X03484Y03117D03*
X03563Y03118D03*
X03125Y03301D03*
X04161Y03514D03*
X0416Y03627D03*
X04Y03548D03*
G54D30*
X04096Y03534D03*
X04163D03*
X04096Y03626D03*
X04163D03*
G54D31*
X02175Y03069D03*
X02308D03*
G54D46*
X03776Y03185D03*
Y03145D03*
X03716Y03185D03*
Y03145D03*
X03552Y03183D03*
Y03144D03*
X03493Y03183D03*
Y03144D03*
G54D60*
X03378Y03073D03*
X03037Y03514D03*
G54D70*
X03655Y0341D03*
X03637Y03363D03*
X03657Y03313D03*
X03707Y03291D03*
X03754Y03312D03*
X03775Y03363D03*
X03755Y0341D03*
X03707Y03431D03*
X02369Y03433D03*
X02417Y03412D03*
X02437Y03365D03*
X02416Y03314D03*
X02369Y03293D03*
X02319Y03315D03*
X02299Y03365D03*
X02317Y03412D03*
G54D137*
X03428Y03051D02*
D01*
X03428Y03051*
X03428Y03052*
X03428Y03053*
X03428Y03054*
X03427Y03054*
X03427Y03055*
X03427Y03056*
X03426Y03057*
X03426Y03057*
X03426Y03058*
X03425Y03058*
X03424Y03059*
X03424Y03059*
X03423Y0306*
X03423Y0306*
X03422Y03061*
X03421Y03061*
X0342Y03061*
X0342Y03061*
X03419Y03062*
X03418Y03062*
X03417Y03062*
X03417*
X03416Y03062*
X03415Y03062*
X03414Y03061*
X03414Y03061*
X03413Y03061*
X03412Y03061*
X03412Y0306*
X03411Y0306*
X0341Y03059*
X0341Y03059*
X03409Y03058*
X03409Y03058*
X03408Y03057*
X03408Y03057*
X03407Y03056*
X03407Y03055*
X03407Y03054*
X03407Y03054*
X03406Y03053*
X03406Y03052*
X03406Y03051*
X03406Y03051*
X03406Y0305*
X03406Y03049*
X03406Y03048*
X03407Y03048*
X03407Y03047*
X03407Y03046*
X03407Y03046*
X03408Y03045*
X03408Y03044*
X03409Y03044*
X03409Y03043*
X0341Y03043*
X0341Y03042*
X03411Y03042*
X03412Y03041*
X03412Y03041*
X03413Y03041*
X03414Y0304*
X03414Y0304*
X03415Y0304*
X03416Y0304*
X03417Y0304*
X03417*
X03418Y0304*
X03419Y0304*
X0342Y0304*
X0342Y0304*
X03421Y03041*
X03422Y03041*
X03423Y03041*
X03423Y03042*
X03424Y03042*
X03424Y03043*
X03425Y03043*
X03426Y03044*
X03426Y03044*
X03426Y03045*
X03427Y03046*
X03427Y03046*
X03427Y03047*
X03428Y03048*
X03428Y03048*
X03428Y03049*
X03428Y0305*
X03428Y03051*
X0343D02*
D01*
X0343Y03051*
X0343Y03052*
X0343Y03053*
X0343Y03054*
X0343Y03054*
X03429Y03055*
X03429Y03056*
X03429Y03057*
X03428Y03057*
X03428Y03058*
X03427Y03058*
X03427Y03059*
X03426Y03059*
X03425Y0306*
X03425Y0306*
X03424Y03061*
X03423Y03061*
X03423Y03061*
X03422Y03061*
X03421Y03062*
X0342Y03062*
X0342Y03062*
X03419*
X03418Y03062*
X03417Y03062*
X03417Y03061*
X03416Y03061*
X03415Y03061*
X03414Y03061*
X03414Y0306*
X03413Y0306*
X03413Y03059*
X03412Y03059*
X03411Y03058*
X03411Y03058*
X0341Y03057*
X0341Y03057*
X0341Y03056*
X03409Y03055*
X03409Y03054*
X03409Y03054*
X03409Y03053*
X03408Y03052*
X03408Y03051*
X03408Y03051*
X03408Y0305*
X03408Y03049*
X03409Y03048*
X03409Y03048*
X03409Y03047*
X03409Y03046*
X0341Y03046*
X0341Y03045*
X0341Y03044*
X03411Y03044*
X03411Y03043*
X03412Y03043*
X03413Y03042*
X03413Y03042*
X03414Y03041*
X03414Y03041*
X03415Y03041*
X03416Y0304*
X03417Y0304*
X03417Y0304*
X03418Y0304*
X03419Y0304*
X0342*
X0342Y0304*
X03421Y0304*
X03422Y0304*
X03423Y0304*
X03423Y03041*
X03424Y03041*
X03425Y03041*
X03425Y03042*
X03426Y03042*
X03427Y03043*
X03427Y03043*
X03428Y03044*
X03428Y03044*
X03429Y03045*
X03429Y03046*
X03429Y03046*
X0343Y03047*
X0343Y03048*
X0343Y03048*
X0343Y03049*
X0343Y0305*
X0343Y03051*
X03428Y03104D02*
D01*
X03428Y03104*
X03428Y03105*
X03428Y03106*
X03428Y03107*
X03427Y03107*
X03427Y03108*
X03427Y03109*
X03426Y03109*
X03426Y0311*
X03426Y03111*
X03425Y03111*
X03424Y03112*
X03424Y03112*
X03423Y03113*
X03423Y03113*
X03422Y03113*
X03421Y03114*
X0342Y03114*
X0342Y03114*
X03419Y03114*
X03418Y03114*
X03417Y03114*
X03417*
X03416Y03114*
X03415Y03114*
X03414Y03114*
X03414Y03114*
X03413Y03114*
X03412Y03113*
X03412Y03113*
X03411Y03113*
X0341Y03112*
X0341Y03112*
X03409Y03111*
X03409Y03111*
X03408Y0311*
X03408Y03109*
X03407Y03109*
X03407Y03108*
X03407Y03107*
X03407Y03107*
X03406Y03106*
X03406Y03105*
X03406Y03104*
X03406Y03104*
X03406Y03103*
X03406Y03102*
X03406Y03101*
X03407Y031*
X03407Y031*
X03407Y03099*
X03407Y03098*
X03408Y03098*
X03408Y03097*
X03409Y03096*
X03409Y03096*
X0341Y03095*
X0341Y03095*
X03411Y03094*
X03412Y03094*
X03412Y03094*
X03413Y03093*
X03414Y03093*
X03414Y03093*
X03415Y03093*
X03416Y03093*
X03417Y03093*
X03417*
X03418Y03093*
X03419Y03093*
X0342Y03093*
X0342Y03093*
X03421Y03093*
X03422Y03094*
X03423Y03094*
X03423Y03094*
X03424Y03095*
X03424Y03095*
X03425Y03096*
X03426Y03096*
X03426Y03097*
X03426Y03098*
X03427Y03098*
X03427Y03099*
X03427Y031*
X03428Y031*
X03428Y03101*
X03428Y03102*
X03428Y03103*
X03428Y03104*
X0343D02*
D01*
X0343Y03104*
X0343Y03105*
X0343Y03106*
X0343Y03107*
X0343Y03107*
X03429Y03108*
X03429Y03109*
X03429Y03109*
X03428Y0311*
X03428Y03111*
X03427Y03111*
X03427Y03112*
X03426Y03112*
X03425Y03113*
X03425Y03113*
X03424Y03113*
X03423Y03114*
X03423Y03114*
X03422Y03114*
X03421Y03114*
X0342Y03114*
X0342Y03114*
X03419*
X03418Y03114*
X03417Y03114*
X03417Y03114*
X03416Y03114*
X03415Y03114*
X03414Y03113*
X03414Y03113*
X03413Y03113*
X03413Y03112*
X03412Y03112*
X03411Y03111*
X03411Y03111*
X0341Y0311*
X0341Y03109*
X0341Y03109*
X03409Y03108*
X03409Y03107*
X03409Y03107*
X03409Y03106*
X03408Y03105*
X03408Y03104*
X03408Y03104*
X03408Y03103*
X03408Y03102*
X03409Y03101*
X03409Y031*
X03409Y031*
X03409Y03099*
X0341Y03098*
X0341Y03098*
X0341Y03097*
X03411Y03096*
X03411Y03096*
X03412Y03095*
X03413Y03095*
X03413Y03094*
X03414Y03094*
X03414Y03094*
X03415Y03093*
X03416Y03093*
X03417Y03093*
X03417Y03093*
X03418Y03093*
X03419Y03093*
X0342*
X0342Y03093*
X03421Y03093*
X03422Y03093*
X03423Y03093*
X03423Y03093*
X03424Y03094*
X03425Y03094*
X03425Y03094*
X03426Y03095*
X03427Y03095*
X03427Y03096*
X03428Y03096*
X03428Y03097*
X03429Y03098*
X03429Y03098*
X03429Y03099*
X0343Y031*
X0343Y031*
X0343Y03101*
X0343Y03102*
X0343Y03103*
X0343Y03104*
G54D138*
X04216Y03202D03*
X042D03*
X04169Y03159D03*
X04185D03*
G54D139*
X04208Y03171D03*
X04176Y03188D03*
G54D140*
X03369Y03675D03*
X03449D03*
X02443Y03678D03*
X03618Y03214D03*
X03882Y03213D03*
X03981Y03212D03*
X03164Y03676D03*
X03242D03*
X03086D03*
X03009D03*
G54D141*
X03449Y03571D03*
G54D142*
X03523Y03571D03*
G54D143*
X02596Y03592D03*
X02557D03*
G54D144*
X02737Y03482D03*
Y03502D03*
Y03522D03*
Y03541D03*
Y03561D03*
X02576Y03482D03*
Y03502D03*
Y03522D03*
Y03541D03*
Y03561D03*
G54D145*
X03405Y03051D03*
X03432D03*
X03405Y03104D03*
X03432D03*
G54D146*
X03244Y03544D03*
X03264D03*
X03144Y03594D03*
X03164D03*
X03031Y03591D03*
X03011D03*
X03264Y03595D03*
X03244D03*
X03978Y03567D03*
X03958D03*
Y03601D03*
X03978D03*
X02821Y03035D03*
X02801D03*
X03265Y03514D03*
X03245D03*
X0308Y03491D03*
X0306D03*
X02489Y03489D03*
X02509D03*
X02489Y03524D03*
X02509D03*
X02489Y03558D03*
X02509D03*
X02759Y03438D03*
X02739D03*
X02689Y03406D03*
X02669D03*
G54D147*
X03065Y03567D03*
Y03551D03*
X03108Y0352D03*
Y03536D03*
X0324Y032D03*
Y03184D03*
X03283Y03153D03*
Y03169D03*
G54D148*
X03096Y03559D03*
X03079Y03527D03*
X03271Y03192D03*
X03254Y0316D03*
G54D149*
X02365Y03552D03*
X02821Y03484D03*
G54D150*
X02365Y03626D03*
X02821Y03558D03*
G54D151*
X02309Y03527D03*
Y03601D03*
X02226Y03564D03*
G54D152*
X02152Y03613D03*
Y03632D03*
X02188Y03585D03*
Y03604D03*
X02255Y03659D03*
Y0364D03*
X04215Y03576D03*
Y03557D03*
X02444Y0307D03*
Y03051D03*
Y03093D03*
Y03112D03*
X02568Y03032D03*
Y03051D03*
X03922Y03482D03*
Y03501D03*
X04215Y0363D03*
Y0361D03*
X04244Y03577D03*
Y03557D03*
X04245Y0363D03*
Y0361D03*
X03894Y03376D03*
Y03357D03*
X03957Y03358D03*
Y03377D03*
X0251Y03464D03*
Y03445D03*
G54D153*
X02216Y0366D03*
Y0364D03*
G54D154*
X02181Y03373D03*
Y03399D03*
Y03424D03*
Y03348D03*
Y03322D03*
G54D155*
X02075Y0342D03*
Y03326D03*
G54D156*
X02172Y03247D03*
Y03499D03*
G54D157*
X02868Y03213D03*
X02857Y03224D03*
X02846Y03235D03*
X02835Y03246D03*
X02823Y03257D03*
X02812Y03268D03*
X02801Y03279D03*
X0279Y0329D03*
X02779Y03302D03*
X02768Y03313D03*
X02757Y03324D03*
X02746Y03335D03*
X02577Y03167D03*
X02588Y03155D03*
X02599Y03144D03*
X0261Y03133D03*
X02622Y03122D03*
X02633Y03111D03*
X02644Y031D03*
X02655Y03089D03*
X02666Y03078D03*
X02677Y03066D03*
X02688Y03055D03*
X027Y03044D03*
G54D158*
X027Y03335D03*
X02688Y03324D03*
X02677Y03313D03*
X02666Y03302D03*
X02655Y0329D03*
X02644Y03279D03*
X02633Y03268D03*
X02622Y03257D03*
X0261Y03246D03*
X02599Y03235D03*
X02588Y03224D03*
X02577Y03213D03*
X02746Y03044D03*
X02757Y03055D03*
X02768Y03066D03*
X02779Y03078D03*
X0279Y03089D03*
X02801Y031D03*
X02812Y03111D03*
X02823Y03122D03*
X02835Y03133D03*
X02846Y03144D03*
X02857Y03155D03*
X02868Y03167D03*
G54D159*
X02723Y0319D03*
G54D160*
X03363Y03192D03*
X03324D03*
G54D161*
X02932Y03281D03*
Y03438D03*
X03197Y03281D03*
Y03438D03*
X04009Y03287D03*
Y03444D03*
X04274Y03287D03*
Y03444D03*
G54D162*
X02516Y03071D03*
X02491D03*
G54D163*
X02503Y03105D03*
X02504Y03037D03*
G54D164*
X02548Y03071D03*
X02567D03*
X02892Y03197D03*
X02911D03*
X02894Y03128D03*
X02875D03*
X02627Y03031D03*
X02608D03*
X03977Y03646D03*
X03958D03*
X03977Y0354D03*
X03958D03*
X04142Y03687D03*
X04161D03*
X03918Y03677D03*
X03899D03*
X02699Y03595D03*
X02718D03*
G54D165*
X0271Y03353D03*
X02724Y03367D03*
G54D166*
X02542Y03423D03*
X02567D03*
X02618D03*
X02593D03*
Y03351D03*
X02618D03*
X02567D03*
X02542D03*
G54D167*
X02554Y03402D03*
G54D168*
X02605Y03402D03*
G54D169*
X02499Y0321D03*
X02388D03*
G54D170*
X02444Y03147D03*
G54D171*
X03875Y03057D03*
X03644D03*
X03757D03*
X03993D03*
X04345D03*
X04109D03*
X04229D03*
X03528D03*
X04399Y03404D03*
Y03483D03*
Y03325D03*
Y03246D03*
G54D172*
X04326Y03652D03*
Y03573D03*
X03368Y0336D03*
X03525D03*
X02521Y03682D03*
X02621D03*
X02821D03*
X02721D03*
X03081Y0307D03*
X03264Y03072D03*
G54D173*
X02075Y03243D03*
Y03503D03*
G54D174*
X0208Y0365D03*
Y0308D03*
X0447Y03078D03*
Y03648D03*
G54D175*
X02368Y03363D03*
X03707Y0336D03*
G54D176*
X02656Y03223D03*
Y03156D03*
X02689Y0319D03*
X02622D03*
X02823D03*
X02789Y03156D03*
X02756Y03123D03*
X02723Y03089D03*
X02789Y03223D03*
X02756Y0319D03*
X02723Y03156D03*
X02689Y03123D03*
X02756Y03256D03*
X02723Y03223D03*
Y0329D03*
X02689Y03256D03*
M02*