%FSTAX24Y24*%
%MOIN*%
%SFA1B1*%

%IPPOS*%
%ADD14C,0.007900*%
%ADD20R,0.031500X0.063000*%
%ADD24R,0.039400X0.031500*%
%ADD54C,0.019700*%
%ADD62C,0.023600*%
%ADD122C,0.024000*%
%ADD123R,0.029500X0.023600*%
%ADD124R,0.035400X0.033500*%
%ADD125R,0.023600X0.027600*%
%ADD126C,0.011800*%
%ADD127R,0.025600X0.027600*%
%ADD128R,0.033500X0.035400*%
%ADD129R,0.074800X0.043300*%
%ADD130R,0.027600X0.023600*%
%ADD131R,0.037400X0.041300*%
%ADD132R,0.043300X0.021700*%
%ADD133R,0.017700X0.017700*%
%ADD134R,0.023600X0.029500*%
%ADD135R,0.043300X0.035400*%
%ADD136R,0.035400X0.090600*%
%ADD137R,0.027600X0.025600*%
%ADD138R,0.082700X0.047200*%
%ADD139R,0.035400X0.035400*%
%ADD140R,0.035400X0.017700*%
%ADD141R,0.106300X0.027600*%
%ADD142R,0.189000X0.189000*%
%ADD143O,0.011800X0.029500*%
%ADD144O,0.029500X0.011800*%
%ADD145R,0.043900X0.033900*%
%ADD146R,0.059100X0.112200*%
%ADD147R,0.033900X0.043900*%
%ADD148R,0.015700X0.031500*%
%ADD149R,0.021100X0.021100*%
%ADD150R,0.145700X0.145700*%
%ADD151R,0.027600X0.013800*%
%ADD152R,0.013800X0.027600*%
%ADD153C,0.074800*%
%ADD154C,0.063000*%
%ADD155C,0.082700*%
%ADD156O,0.066900X0.039400*%
%ADD157C,0.063900*%
%ADD158C,0.181100*%
%ADD159C,0.013000*%
%LNvapeix_mini_pcb-1*%
%LPD*%
G54D14*
X02481Y03543D03*
X02407Y03525D03*
X02413Y0363D03*
X02381Y0351D03*
X02716Y0327D03*
X02706Y03327D03*
X02558Y03197D03*
X04039Y03149D03*
X03402Y03392D03*
X0294Y03189D03*
X03268Y036175D03*
X03565Y03376D03*
X03283Y03025D03*
X03828Y03074D03*
X039Y03059D03*
X03879Y03041D03*
X03901Y03024D03*
X03112Y033216D03*
X04205Y03378D03*
X04168Y03544D03*
X03483Y0355D03*
X04055Y03499D03*
X032Y03659D03*
X030314Y03487D03*
X03312Y03166D03*
X0338Y03134D03*
X03442D03*
Y031D03*
X03346Y03183D03*
X0338Y03228D03*
Y03198D03*
X03442Y03228D03*
Y03166D03*
Y03198D03*
X03472Y03213D03*
X03576Y03484D03*
X03565Y03408D03*
X03785Y03201D03*
X03905Y03164D03*
X03855Y03024D03*
X03831Y03039D03*
X03854Y03058D03*
X03809Y03182D03*
X03312Y0313D03*
Y03096D03*
X03313Y03059D03*
Y03025D03*
X03312Y03198D03*
X03501D03*
X03859Y03467D03*
X03497Y0366D03*
X03624Y03643D03*
X03625Y03587D03*
X03862Y03545D03*
X03861Y03688D03*
Y03591D03*
X03862Y03639D03*
Y03664D03*
Y03568D03*
X03696Y03264D03*
X03674Y03288D03*
X03627Y03316D03*
X03775Y03527D03*
X0358Y03677D03*
X03605Y03678D03*
X03751Y03543D03*
X03726D03*
X03736Y03585D03*
Y03643D03*
X03872Y03486D03*
X0384D03*
X03806D03*
X03887Y03504D03*
X03853D03*
X03821D03*
X03789D03*
X03659Y03317D03*
X03651Y03349D03*
Y0338D03*
X03657Y03408D03*
X03671Y03432D03*
X0369Y03454D03*
X03764Y03493D03*
X03712Y03473D03*
X03737Y03485D03*
X03346Y03214D03*
X03737Y03518D03*
X036Y03483D03*
X0362Y03393D03*
X03626Y03417D03*
X03779Y03588D03*
X03778Y03643D03*
X03752Y03683D03*
X0364Y03679D03*
X03722Y03683D03*
X03711Y03507D03*
X0369Y03494D03*
X03669Y03478D03*
X03651Y03458D03*
X03637Y03438D03*
X0362Y03343D03*
X03619Y03368D03*
X0338Y03101D03*
Y03166D03*
X03412Y03183D03*
X03312Y03228D03*
X03347Y03041D03*
Y0308D03*
Y03117D03*
X03345Y03152D03*
X0338Y03061D03*
X03381Y03023D03*
X03413Y03082D03*
X03412Y03116D03*
X03413Y03042D03*
X03444Y03026D03*
X03443Y03063D03*
X0364Y03219D03*
X0362Y03239D03*
X0374Y03202D03*
X03768Y03182D03*
X037Y03203D03*
X0366Y03204D03*
X0372Y03183D03*
X0401Y0321D03*
X0368Y03184D03*
X03809Y03138D03*
X0381Y03098D03*
X03811Y03058D03*
X03812Y03023D03*
X03621Y03203D03*
X03788Y0304D03*
X03413Y03214D03*
X03472Y03183D03*
X03412Y03152D03*
X03601Y0322D03*
X0364Y03185D03*
X03601Y03186D03*
X03789Y03162D03*
X03787Y0312D03*
Y03079D03*
X0386Y03082D03*
X03768Y03024D03*
X03501Y03166D03*
Y03227D03*
X0358Y03239D03*
Y03204D03*
X03768Y03059D03*
Y03099D03*
Y03139D03*
X0374Y03165D03*
X037D03*
X0366D03*
X0362D03*
X0358D03*
X04283Y03408D03*
X03115Y03261D03*
X03099Y03304D03*
X03168Y03279D03*
X03049Y03264D03*
X03518Y03621D03*
X03519Y03482D03*
X03222Y03074D03*
X03977Y03081D03*
X03385Y03679D03*
X032469Y03623D03*
X03375Y036535D03*
X02984Y03204D03*
X02848Y03633D03*
X0268Y03497D03*
X02138Y0358D03*
X03134Y0356D03*
X02155Y03599D03*
X032154Y032574D03*
X0294Y03261D03*
X03276Y03268D03*
X03378Y03316D03*
X02299Y03284D03*
X02878Y03626D03*
X03411Y036205D03*
X03358Y035365D03*
X03614Y035205D03*
X03364Y03559D03*
X02671Y035965D03*
X03308Y0359D03*
X03401Y03321D03*
Y03344D03*
X04Y0314D03*
X04156Y03475D03*
X041116Y036086D03*
X041897Y03542D03*
X04232Y0358D03*
X04205Y03652D03*
X041867Y032803D03*
X04019Y03115D03*
X04142Y03367D03*
X03927Y031475D03*
X04049Y03549D03*
X03294Y03045D03*
X03272D03*
X03117Y03219D03*
X04Y03556D03*
X04049Y03297D03*
X04083Y03307D03*
X04218Y03465D03*
X042051Y031111D03*
X03395Y03368D03*
X04011Y03067D03*
X02974Y0342D03*
X02937D03*
X03036Y03429D03*
X03049Y03115D03*
X029925Y035371D03*
X03042Y03407D03*
X03033Y03364D03*
X03022Y03345D03*
X03043Y03385D03*
X04268Y03138D03*
X04273Y03686D03*
X04188Y03356D03*
X04231Y03403D03*
X04305Y03186D03*
X025764Y03592D03*
X03382Y034024D03*
X04037Y036485D03*
X02191Y03442D03*
X04122Y03142D03*
X02866Y03219D03*
X02296Y03463D03*
X0246Y0346D03*
X02142Y03464D03*
X03073Y03162D03*
X02993Y03039D03*
X0311Y03048D03*
X03197Y03047D03*
X032427Y031494D03*
X02238Y03475D03*
X02275Y03477D03*
G54D20*
X035371Y03076D03*
X036709D03*
G54D24*
X042368Y031107D03*
Y030714D03*
X041778Y031107D03*
Y030714D03*
X042368Y03652D03*
Y036127D03*
X041778Y03652D03*
Y036127D03*
G54D54*
X02502Y03225D03*
G54D62*
X02395Y03435D03*
X023426Y034124D03*
X023244Y033636D03*
X023426Y033159D03*
X02395Y032923D03*
X02447Y033159D03*
X02466Y033636D03*
X024458Y034124D03*
X038231D03*
X038434Y033635D03*
X038243Y033159D03*
X037724Y032923D03*
X0372Y033159D03*
X037018Y033635D03*
X0372Y034124D03*
X037724Y03435D03*
G54D122*
X030052Y03467D02*
D01*
X030051Y034677*
X03005Y034685*
X030049Y034692*
X030047Y0347*
X030045Y034707*
X030042Y034714*
X030039Y034721*
X030035Y034728*
X03003Y034734*
X030026Y03474*
X030021Y034746*
X030015Y034751*
X030009Y034756*
X030003Y034761*
X029997Y034765*
X02999Y034768*
X029983Y034771*
X029975Y034774*
X029968Y034776*
X029961Y034778*
X029953Y034779*
X029945Y034779*
X029938*
X02993Y034779*
X029922Y034778*
X029915Y034776*
X029908Y034774*
X0299Y034771*
X029893Y034768*
X029887Y034765*
X02988Y034761*
X029874Y034756*
X029868Y034751*
X029862Y034746*
X029857Y03474*
X029853Y034734*
X029848Y034728*
X029844Y034721*
X029841Y034714*
X029838Y034707*
X029836Y0347*
X029834Y034692*
X029833Y034685*
X029832Y034677*
X029832Y03467*
X029832Y034662*
X029833Y034654*
X029834Y034647*
X029836Y034639*
X029838Y034632*
X029841Y034625*
X029844Y034618*
X029848Y034611*
X029853Y034605*
X029857Y034599*
X029862Y034593*
X029868Y034588*
X029874Y034583*
X02988Y034578*
X029887Y034574*
X029893Y034571*
X0299Y034568*
X029908Y034565*
X029915Y034563*
X029922Y034561*
X02993Y03456*
X029938Y03456*
X029945*
X029953Y03456*
X029961Y034561*
X029968Y034563*
X029975Y034565*
X029983Y034568*
X02999Y034571*
X029997Y034574*
X030003Y034578*
X030009Y034583*
X030015Y034588*
X030021Y034593*
X030026Y034599*
X03003Y034605*
X030035Y034611*
X030039Y034618*
X030042Y034625*
X030045Y034632*
X030047Y034639*
X030049Y034647*
X03005Y034654*
X030051Y034662*
X030052Y03467*
X030074D02*
D01*
X030073Y034677*
X030072Y034685*
X030071Y034692*
X030069Y0347*
X030067Y034707*
X030064Y034714*
X030061Y034721*
X030057Y034728*
X030052Y034734*
X030048Y03474*
X030043Y034746*
X030037Y034751*
X030031Y034756*
X030025Y034761*
X030019Y034765*
X030012Y034768*
X030005Y034771*
X029997Y034774*
X02999Y034776*
X029983Y034778*
X029975Y034779*
X029967Y034779*
X02996*
X029952Y034779*
X029944Y034778*
X029937Y034776*
X02993Y034774*
X029922Y034771*
X029915Y034768*
X029909Y034765*
X029902Y034761*
X029896Y034756*
X02989Y034751*
X029884Y034746*
X029879Y03474*
X029875Y034734*
X02987Y034728*
X029866Y034721*
X029863Y034714*
X02986Y034707*
X029858Y0347*
X029856Y034692*
X029855Y034685*
X029854Y034677*
X029854Y03467*
X029854Y034662*
X029855Y034654*
X029856Y034647*
X029858Y034639*
X02986Y034632*
X029863Y034625*
X029866Y034618*
X02987Y034611*
X029875Y034605*
X029879Y034599*
X029884Y034593*
X02989Y034588*
X029896Y034583*
X029902Y034578*
X029909Y034574*
X029915Y034571*
X029922Y034568*
X02993Y034565*
X029937Y034563*
X029944Y034561*
X029952Y03456*
X02996Y03456*
X029967*
X029975Y03456*
X029983Y034561*
X02999Y034563*
X029997Y034565*
X030005Y034568*
X030012Y034571*
X030019Y034574*
X030025Y034578*
X030031Y034583*
X030037Y034588*
X030043Y034593*
X030048Y034599*
X030052Y034605*
X030057Y034611*
X030061Y034618*
X030064Y034625*
X030067Y034632*
X030069Y034639*
X030071Y034647*
X030072Y034654*
X030073Y034662*
X030074Y03467*
X030052Y033706D02*
D01*
X030051Y033713*
X03005Y033721*
X030049Y033728*
X030047Y033736*
X030045Y033743*
X030042Y03375*
X030039Y033757*
X030035Y033764*
X03003Y03377*
X030026Y033776*
X030021Y033782*
X030015Y033787*
X030009Y033792*
X030003Y033797*
X029997Y033801*
X02999Y033804*
X029983Y033807*
X029975Y03381*
X029968Y033812*
X029961Y033814*
X029953Y033815*
X029945Y033815*
X029938*
X02993Y033815*
X029922Y033814*
X029915Y033812*
X029908Y03381*
X0299Y033807*
X029893Y033804*
X029887Y033801*
X02988Y033797*
X029874Y033792*
X029868Y033787*
X029862Y033782*
X029857Y033776*
X029853Y03377*
X029848Y033764*
X029844Y033757*
X029841Y03375*
X029838Y033743*
X029836Y033736*
X029834Y033728*
X029833Y033721*
X029832Y033713*
X029832Y033706*
X029832Y033698*
X029833Y03369*
X029834Y033683*
X029836Y033675*
X029838Y033668*
X029841Y033661*
X029844Y033654*
X029848Y033647*
X029853Y033641*
X029857Y033635*
X029862Y033629*
X029868Y033624*
X029874Y033619*
X02988Y033614*
X029887Y03361*
X029893Y033607*
X0299Y033604*
X029908Y033601*
X029915Y033599*
X029922Y033597*
X02993Y033596*
X029938Y033596*
X029945*
X029953Y033596*
X029961Y033597*
X029968Y033599*
X029975Y033601*
X029983Y033604*
X02999Y033607*
X029997Y03361*
X030003Y033614*
X030009Y033619*
X030015Y033624*
X030021Y033629*
X030026Y033635*
X03003Y033641*
X030035Y033647*
X030039Y033654*
X030042Y033661*
X030045Y033668*
X030047Y033675*
X030049Y033683*
X03005Y03369*
X030051Y033698*
X030052Y033706*
X030074D02*
D01*
X030073Y033713*
X030072Y033721*
X030071Y033728*
X030069Y033736*
X030067Y033743*
X030064Y03375*
X030061Y033757*
X030057Y033764*
X030052Y03377*
X030048Y033776*
X030043Y033782*
X030037Y033787*
X030031Y033792*
X030025Y033797*
X030019Y033801*
X030012Y033804*
X030005Y033807*
X029997Y03381*
X02999Y033812*
X029983Y033814*
X029975Y033815*
X029967Y033815*
X02996*
X029952Y033815*
X029944Y033814*
X029937Y033812*
X02993Y03381*
X029922Y033807*
X029915Y033804*
X029909Y033801*
X029902Y033797*
X029896Y033792*
X02989Y033787*
X029884Y033782*
X029879Y033776*
X029875Y03377*
X02987Y033764*
X029866Y033757*
X029863Y03375*
X02986Y033743*
X029858Y033736*
X029856Y033728*
X029855Y033721*
X029854Y033713*
X029854Y033706*
X029854Y033698*
X029855Y03369*
X029856Y033683*
X029858Y033675*
X02986Y033668*
X029863Y033661*
X029866Y033654*
X02987Y033647*
X029875Y033641*
X029879Y033635*
X029884Y033629*
X02989Y033624*
X029896Y033619*
X029902Y033614*
X029909Y03361*
X029915Y033607*
X029922Y033604*
X02993Y033601*
X029937Y033599*
X029944Y033597*
X029952Y033596*
X02996Y033596*
X029967*
X029975Y033596*
X029983Y033597*
X02999Y033599*
X029997Y033601*
X030005Y033604*
X030012Y033607*
X030019Y03361*
X030025Y033614*
X030031Y033619*
X030037Y033624*
X030043Y033629*
X030048Y033635*
X030052Y033641*
X030057Y033647*
X030061Y033654*
X030064Y033661*
X030067Y033668*
X030069Y033675*
X030071Y033683*
X030072Y03369*
X030073Y033698*
X030074Y033706*
X040858Y03635D02*
D01*
X040857Y036357*
X040856Y036365*
X040855Y036372*
X040853Y03638*
X040851Y036387*
X040848Y036394*
X040845Y036401*
X040841Y036408*
X040836Y036414*
X040832Y03642*
X040827Y036426*
X040821Y036431*
X040815Y036436*
X040809Y036441*
X040803Y036445*
X040796Y036448*
X040789Y036451*
X040781Y036454*
X040774Y036456*
X040767Y036458*
X040759Y036459*
X040751Y036459*
X040744*
X040736Y036459*
X040728Y036458*
X040721Y036456*
X040714Y036454*
X040706Y036451*
X040699Y036448*
X040693Y036445*
X040686Y036441*
X04068Y036436*
X040674Y036431*
X040668Y036426*
X040663Y03642*
X040659Y036414*
X040654Y036408*
X04065Y036401*
X040647Y036394*
X040644Y036387*
X040642Y03638*
X04064Y036372*
X040639Y036365*
X040638Y036357*
X040638Y03635*
X040638Y036342*
X040639Y036334*
X04064Y036327*
X040642Y036319*
X040644Y036312*
X040647Y036305*
X04065Y036298*
X040654Y036291*
X040659Y036285*
X040663Y036279*
X040668Y036273*
X040674Y036268*
X04068Y036263*
X040686Y036258*
X040693Y036254*
X040699Y036251*
X040706Y036248*
X040714Y036245*
X040721Y036243*
X040728Y036241*
X040736Y03624*
X040744Y03624*
X040751*
X040759Y03624*
X040767Y036241*
X040774Y036243*
X040781Y036245*
X040789Y036248*
X040796Y036251*
X040803Y036254*
X040809Y036258*
X040815Y036263*
X040821Y036268*
X040827Y036273*
X040832Y036279*
X040836Y036285*
X040841Y036291*
X040845Y036298*
X040848Y036305*
X040851Y036312*
X040853Y036319*
X040855Y036327*
X040856Y036334*
X040857Y036342*
X040858Y03635*
X040836D02*
D01*
X040835Y036357*
X040834Y036365*
X040833Y036372*
X040831Y03638*
X040829Y036387*
X040826Y036394*
X040823Y036401*
X040819Y036408*
X040814Y036414*
X04081Y03642*
X040805Y036426*
X040799Y036431*
X040793Y036436*
X040787Y036441*
X040781Y036445*
X040774Y036448*
X040767Y036451*
X040759Y036454*
X040752Y036456*
X040745Y036458*
X040737Y036459*
X040729Y036459*
X040722*
X040714Y036459*
X040706Y036458*
X040699Y036456*
X040692Y036454*
X040684Y036451*
X040677Y036448*
X040671Y036445*
X040664Y036441*
X040658Y036436*
X040652Y036431*
X040646Y036426*
X040641Y03642*
X040637Y036414*
X040632Y036408*
X040628Y036401*
X040625Y036394*
X040622Y036387*
X04062Y03638*
X040618Y036372*
X040617Y036365*
X040616Y036357*
X040616Y03635*
X040616Y036342*
X040617Y036334*
X040618Y036327*
X04062Y036319*
X040622Y036312*
X040625Y036305*
X040628Y036298*
X040632Y036291*
X040637Y036285*
X040641Y036279*
X040646Y036273*
X040652Y036268*
X040658Y036263*
X040664Y036258*
X040671Y036254*
X040677Y036251*
X040684Y036248*
X040692Y036245*
X040699Y036243*
X040706Y036241*
X040714Y03624*
X040722Y03624*
X040729*
X040737Y03624*
X040745Y036241*
X040752Y036243*
X040759Y036245*
X040767Y036248*
X040774Y036251*
X040781Y036254*
X040787Y036258*
X040793Y036263*
X040799Y036268*
X040805Y036273*
X04081Y036279*
X040814Y036285*
X040819Y036291*
X040823Y036298*
X040826Y036305*
X040829Y036312*
X040831Y036319*
X040833Y036327*
X040834Y036334*
X040835Y036342*
X040836Y03635*
X040782Y03089D02*
D01*
X040781Y030897*
X04078Y030905*
X040779Y030912*
X040777Y03092*
X040775Y030927*
X040772Y030934*
X040769Y030941*
X040765Y030948*
X04076Y030954*
X040756Y03096*
X040751Y030966*
X040745Y030971*
X040739Y030976*
X040733Y030981*
X040727Y030985*
X04072Y030988*
X040713Y030991*
X040705Y030994*
X040698Y030996*
X040691Y030998*
X040683Y030999*
X040675Y030999*
X040668*
X04066Y030999*
X040652Y030998*
X040645Y030996*
X040638Y030994*
X04063Y030991*
X040623Y030988*
X040617Y030985*
X04061Y030981*
X040604Y030976*
X040598Y030971*
X040592Y030966*
X040587Y03096*
X040583Y030954*
X040578Y030948*
X040574Y030941*
X040571Y030934*
X040568Y030927*
X040566Y03092*
X040564Y030912*
X040563Y030905*
X040562Y030897*
X040562Y03089*
X040562Y030882*
X040563Y030874*
X040564Y030867*
X040566Y030859*
X040568Y030852*
X040571Y030845*
X040574Y030838*
X040578Y030831*
X040583Y030825*
X040587Y030819*
X040592Y030813*
X040598Y030808*
X040604Y030803*
X04061Y030798*
X040617Y030794*
X040623Y030791*
X04063Y030788*
X040638Y030785*
X040645Y030783*
X040652Y030781*
X04066Y03078*
X040668Y03078*
X040675*
X040683Y03078*
X040691Y030781*
X040698Y030783*
X040705Y030785*
X040713Y030788*
X04072Y030791*
X040727Y030794*
X040733Y030798*
X040739Y030803*
X040745Y030808*
X040751Y030813*
X040756Y030819*
X04076Y030825*
X040765Y030831*
X040769Y030838*
X040772Y030845*
X040775Y030852*
X040777Y030859*
X040779Y030867*
X04078Y030874*
X040781Y030882*
X040782Y03089*
X040804D02*
D01*
X040803Y030897*
X040802Y030905*
X040801Y030912*
X040799Y03092*
X040797Y030927*
X040794Y030934*
X040791Y030941*
X040787Y030948*
X040782Y030954*
X040778Y03096*
X040773Y030966*
X040767Y030971*
X040761Y030976*
X040755Y030981*
X040749Y030985*
X040742Y030988*
X040735Y030991*
X040727Y030994*
X04072Y030996*
X040713Y030998*
X040705Y030999*
X040697Y030999*
X04069*
X040682Y030999*
X040674Y030998*
X040667Y030996*
X04066Y030994*
X040652Y030991*
X040645Y030988*
X040639Y030985*
X040632Y030981*
X040626Y030976*
X04062Y030971*
X040614Y030966*
X040609Y03096*
X040605Y030954*
X0406Y030948*
X040596Y030941*
X040593Y030934*
X04059Y030927*
X040588Y03092*
X040586Y030912*
X040585Y030905*
X040584Y030897*
X040584Y03089*
X040584Y030882*
X040585Y030874*
X040586Y030867*
X040588Y030859*
X04059Y030852*
X040593Y030845*
X040596Y030838*
X0406Y030831*
X040605Y030825*
X040609Y030819*
X040614Y030813*
X04062Y030808*
X040626Y030803*
X040632Y030798*
X040639Y030794*
X040645Y030791*
X040652Y030788*
X04066Y030785*
X040667Y030783*
X040674Y030781*
X040682Y03078*
X04069Y03078*
X040697*
X040705Y03078*
X040713Y030781*
X04072Y030783*
X040727Y030785*
X040735Y030788*
X040742Y030791*
X040749Y030794*
X040755Y030798*
X040761Y030803*
X040767Y030808*
X040773Y030813*
X040778Y030819*
X040782Y030825*
X040787Y030831*
X040791Y030838*
X040794Y030845*
X040797Y030852*
X040799Y030859*
X040801Y030867*
X040802Y030874*
X040803Y030882*
X040804Y03089*
G54D123*
X031386Y036615D03*
X031012D03*
G54D124*
X031997Y036588D03*
Y036057D03*
X029637Y031418D03*
Y030886D03*
G54D125*
X02971Y035567D03*
Y035173D03*
X0354Y0356D03*
Y035207D03*
X033873Y035883D03*
Y03549D03*
X034388Y033842D03*
Y033448D03*
X03595Y033077D03*
Y032683D03*
X02217Y034477D03*
Y034083D03*
Y033677D03*
Y033283D03*
G54D126*
X02982Y03467D03*
X030086D03*
X02982Y033706D03*
X030086D03*
X04087Y03635D03*
X040604D03*
X04055Y03089D03*
X040816D03*
G54D127*
X033323Y036535D03*
Y036141D03*
X032941Y036535D03*
Y036141D03*
X022572Y034477D03*
Y034083D03*
Y033293D03*
Y033687D03*
X029106Y03668D03*
Y036287D03*
G54D128*
X030811Y036103D03*
X031342D03*
X030742Y035572D03*
X030211D03*
X031941Y031989D03*
X032472D03*
G54D129*
X029213Y034686D03*
Y033702D03*
G54D130*
X034877Y036308D03*
X034483D03*
X029263Y033194D03*
X029657D03*
X030177Y035108D03*
X03057D03*
X034801Y034652D03*
X034407D03*
X034799Y034288D03*
X034405D03*
X034983Y03269D03*
X035377D03*
X030213Y033194D03*
X030607D03*
X032427Y031494D03*
X032033D03*
X024407Y035645D03*
X0248D03*
X024407Y03521D03*
X0248D03*
G54D131*
X034473Y035744D03*
X034926D03*
Y035173D03*
X034473D03*
G54D132*
X035308Y033895D03*
X035312Y033206D03*
G54D133*
X035438Y03355D03*
X035182D03*
G54D134*
X034779Y033832D03*
Y033458D03*
G54D135*
X0368Y03676D03*
Y035528D03*
G54D136*
X036241Y03615D03*
X037359D03*
G54D137*
X038393Y031059D03*
X038786D03*
X0248Y036546D03*
X024407D03*
Y036091D03*
X0248D03*
X026617Y03064D03*
X026223D03*
X026243Y03124D03*
X026637D03*
G54D138*
X026144Y036401D03*
G54D139*
X026892Y036401D03*
G54D140*
X021509Y033243D03*
Y03403D03*
Y033833D03*
Y033636D03*
Y033439D03*
G54D141*
X020603Y034384D03*
Y032888D03*
G54D142*
X03239Y034261D03*
G54D143*
X031524Y035452D03*
X031682D03*
X031839D03*
X031997D03*
X032154D03*
X032312D03*
X032469D03*
X032627D03*
X032784D03*
X032941D03*
X033099D03*
X033256D03*
Y03307D03*
X033099D03*
X032941D03*
X032784D03*
X032627D03*
X032469D03*
X032312D03*
X032154D03*
X031997D03*
X031839D03*
X031682D03*
X031524D03*
G54D144*
X033581Y035127D03*
Y034969D03*
Y034812D03*
Y034654D03*
Y034497D03*
Y03434D03*
Y034182D03*
Y034025D03*
Y033867D03*
Y03371D03*
Y033552D03*
Y033395D03*
X031199D03*
Y033552D03*
Y03371D03*
Y033867D03*
Y034025D03*
Y034182D03*
Y03434D03*
Y034497D03*
Y034654D03*
Y034812D03*
Y034969D03*
Y035127D03*
G54D145*
X027494Y036367D03*
X028321Y036741D03*
Y035993D03*
G54D146*
X042625Y032321D03*
X041051D03*
X042625Y034979D03*
X041051D03*
X027597Y032321D03*
X026023D03*
X027597Y034979D03*
X026023D03*
G54D147*
X030731Y03164D03*
X031105Y030813D03*
X030357D03*
G54D148*
X032476Y030462D03*
X03222D03*
X031964D03*
X03222Y031092D03*
X032476D03*
X031964D03*
G54D149*
X021888Y03513D03*
G54D150*
X022748Y035995D03*
G54D151*
X021803Y035404D03*
Y035601D03*
Y035798D03*
Y035995D03*
Y036191D03*
Y036388D03*
Y036585D03*
X023693D03*
Y036388D03*
Y036191D03*
Y035995D03*
Y035798D03*
Y035601D03*
Y035404D03*
G54D152*
X022157Y036939D03*
X022354D03*
X022551D03*
X022748D03*
X022944D03*
X023141D03*
X023338D03*
Y03505D03*
X023141D03*
X022944D03*
X022748D03*
X022551D03*
X022354D03*
X022157D03*
G54D153*
X02554Y031D03*
X02736D03*
G54D154*
X043241Y0363D03*
X043793Y03218D03*
Y03363D03*
Y03508D03*
X04468Y032433D03*
Y033221D03*
Y034796D03*
Y034008D03*
X043241Y03091D03*
X03983Y03364D03*
Y03475D03*
Y032562D03*
G54D155*
X020806Y030806D03*
Y036503D03*
X0447Y036484D03*
Y030787D03*
G54D156*
X020967Y032337D03*
Y034935D03*
G54D157*
X03818Y036639D03*
X03918D03*
Y035639D03*
X03818D03*
X021742Y031537D03*
X023317D03*
G54D158*
X023952Y033636D03*
X037726D03*
G54D159*
X033099Y033552D03*
X032627D03*
X032154D03*
X031682D03*
X033099Y034025D03*
X032627D03*
X032154D03*
X031682D03*
X033099Y034497D03*
X032627D03*
X032154D03*
X031682D03*
X033099Y034969D03*
X032627D03*
X032154D03*
X031682D03*
M02*