%FSTAX23Y23*%
%MOIN*%
%SFA1B1*%

%IPPOS*%
%ADD13R,0.019700X0.023600*%
%ADD15R,0.021700X0.023600*%
%ADD16R,0.029500X0.031500*%
%ADD18R,0.023600X0.019700*%
%ADD26R,0.023600X0.021700*%
%ADD27R,0.078700X0.043300*%
%ADD28R,0.031500X0.031500*%
%ADD35R,0.040000X0.030000*%
%ADD38R,0.011800X0.027600*%
%ADD50C,0.070900*%
%ADD51C,0.059100*%
%ADD52C,0.078700*%
%ADD53O,0.063000X0.035400*%
%ADD54C,0.060000*%
%ADD55C,0.019700*%
%ADD56C,0.177200*%
%ADD69R,0.055100X0.063000*%
%ADD70R,0.061000X0.074800*%
%ADD71R,0.053200X0.015700*%
%ADD72C,0.039400*%
%ADD73R,0.037200X0.039400*%
%ADD74R,0.037300X0.039400*%
%ADD75R,0.027600X0.011800*%
%ADD76R,0.039400X0.037300*%
%ADD77R,0.039400X0.037200*%
%ADD78R,0.015700X0.007900*%
%ADD79R,0.019700X0.019700*%
%ADD80R,0.059100X0.051200*%
%ADD81O,0.011800X0.066900*%
%ADD82R,0.098400X0.098400*%
%LNvapeix_mini_pcb-1*%
%LPD*%
G54D13*
X02865Y03303D03*
Y03342D03*
X02238Y0316D03*
Y03121D03*
G54D15*
X0294Y03189D03*
Y03228D03*
X0301Y03189D03*
Y03228D03*
X03078D03*
Y03189D03*
X02863Y03472D03*
Y03433D03*
X04143Y03568D03*
Y03608D03*
X04086Y03568D03*
Y03608D03*
X04293Y03476D03*
Y03515D03*
X04248Y03476D03*
Y03516D03*
X04189Y03476D03*
Y03516D03*
X04154Y03319D03*
Y0328D03*
X03472Y03427D03*
Y03466D03*
X03429Y03382D03*
Y03421D03*
G54D16*
X02714Y03225D03*
X02661D03*
X02959Y03544D03*
X02906D03*
G54D18*
X02562Y03225D03*
X02601D03*
G54D26*
X02959Y03594D03*
X0292D03*
X02117Y03168D03*
X02078D03*
X04193Y0343D03*
X04233D03*
X04073Y03366D03*
X04113D03*
X04287Y03235D03*
X04248D03*
X03412Y03651D03*
X03451D03*
X03272Y03652D03*
X03233D03*
X03524Y03452D03*
X03564D03*
Y03408D03*
X03524D03*
X04197Y0316D03*
X04158D03*
X04157Y03206D03*
X04196D03*
X0409Y03115D03*
X04051D03*
G54D27*
X03254Y03571D03*
X02988Y03659D03*
G54D28*
X03179Y03571D03*
X02913Y03659D03*
G54D35*
X02431Y03601D03*
X02348Y03638D03*
Y03563D03*
G54D38*
X04055Y03498D03*
X0408D03*
X04131D03*
X04106D03*
Y03426D03*
X04131D03*
X0408D03*
X04055D03*
X04205Y03377D03*
X04231D03*
X04282D03*
X04256D03*
Y03305D03*
X04282D03*
X04231D03*
X04205D03*
G54D50*
X02554Y031D03*
X02736D03*
G54D51*
X04324Y0363D03*
X04379Y03218D03*
Y03363D03*
Y03508D03*
X04468Y03243D03*
Y03322D03*
Y03479D03*
Y034D03*
X04324Y03091D03*
X03983Y03364D03*
Y03475D03*
Y03256D03*
G54D52*
X0208Y0308D03*
Y0365D03*
X0447Y03648D03*
Y03078D03*
G54D53*
X02096Y03233D03*
Y03493D03*
G54D54*
X03818Y03663D03*
X03918D03*
Y03563D03*
X03818D03*
X02174Y03153D03*
X02331D03*
G54D55*
X02395Y03435D03*
X02342Y03412D03*
X02324Y03363D03*
X02342Y03315D03*
X02395Y03292D03*
X02447Y03315D03*
X02466Y03363D03*
X02445Y03412D03*
X03823D03*
X03843Y03363D03*
X03824Y03315D03*
X03772Y03292D03*
X0372Y03315D03*
X03701Y03363D03*
X0372Y03412D03*
X03772Y03435D03*
G54D56*
X02395Y03363D03*
X03772D03*
G54D69*
X02193Y03237D03*
Y03489D03*
G54D70*
X02096Y0341D03*
Y03316D03*
G54D71*
X02202Y03414D03*
Y03389D03*
Y03312D03*
Y03338D03*
Y03363D03*
G54D72*
X02271Y03508D03*
Y03423D03*
Y0322D03*
Y03303D03*
X03539Y03651D03*
X03337Y03651D03*
X03399Y03501D03*
X03149Y03651D03*
X03535Y03303D03*
X0344D03*
G54D73*
X04118Y03447D03*
X04269Y03326D03*
G54D74*
X04067Y03447D03*
X04218Y03326D03*
G54D75*
X03588Y03506D03*
Y03532D03*
Y03583D03*
Y03557D03*
X03516D03*
Y03583D03*
Y03532D03*
Y03506D03*
X03103Y03528D03*
Y03553D03*
Y03605D03*
Y03579D03*
X03031D03*
Y03605D03*
Y03553D03*
Y03528D03*
X04111Y03166D03*
Y03191D03*
Y03242D03*
Y03217D03*
X04038D03*
Y03242D03*
Y03191D03*
Y03166D03*
G54D76*
X03567Y03519D03*
X03082Y03541D03*
X04089Y03178D03*
G54D77*
X03567Y0357D03*
X03082Y03592D03*
X04089Y03229D03*
G54D78*
X03389Y03568D03*
Y03552D03*
X03432Y03584D03*
Y036D03*
G54D79*
X03418Y03559D03*
X03401Y03592D03*
G54D80*
X03087Y03361D03*
Y03427D03*
G54D81*
X02917Y0347D03*
X02937D03*
X02956D03*
X02976D03*
X02996D03*
X02917Y03308D03*
X02937D03*
X02956D03*
X02976D03*
X02996D03*
G54D82*
X02554Y03101D03*
X02734D03*
M02*