%FSTAX23Y23*%
%MOIN*%
%SFA1B1*%

%IPPOS*%
%ADD14C,0.007900*%
%ADD20R,0.031500X0.063000*%
%ADD24R,0.039400X0.031500*%
%ADD55C,0.019700*%
%ADD63C,0.023600*%
%ADD122C,0.024000*%
%ADD123R,0.029500X0.023600*%
%ADD124R,0.035400X0.033500*%
%ADD125R,0.023600X0.027600*%
%ADD126C,0.011800*%
%ADD127R,0.025600X0.027600*%
%ADD128R,0.033500X0.035400*%
%ADD129R,0.074800X0.043300*%
%ADD130R,0.027600X0.023600*%
%ADD131R,0.037400X0.041300*%
%ADD132R,0.043300X0.021700*%
%ADD133R,0.017700X0.017700*%
%ADD134R,0.023600X0.029500*%
%ADD135R,0.043300X0.035400*%
%ADD136R,0.035400X0.090600*%
%ADD137R,0.027600X0.025600*%
%ADD138R,0.082700X0.047200*%
%ADD139R,0.035400X0.035400*%
%ADD140R,0.035400X0.017700*%
%ADD141R,0.106300X0.027600*%
%ADD142R,0.189000X0.189000*%
%ADD143O,0.011800X0.029500*%
%ADD144O,0.029500X0.011800*%
%ADD145R,0.043900X0.033900*%
%ADD146R,0.059100X0.112200*%
%ADD147R,0.033900X0.043900*%
%ADD148R,0.015700X0.031500*%
%ADD149R,0.021100X0.021100*%
%ADD150R,0.145700X0.145700*%
%ADD151R,0.027600X0.013800*%
%ADD152R,0.013800X0.027600*%
%ADD153C,0.074800*%
%ADD154C,0.063000*%
%ADD155C,0.082700*%
%ADD156O,0.066900X0.039400*%
%ADD157C,0.063900*%
%ADD158C,0.181100*%
%ADD159C,0.013000*%
%LNvapeix_mini_pcb-1*%
%LPD*%
G54D14*
X03097Y03303D03*
X03112Y03321D03*
X02984Y03204D03*
X03037Y03429D03*
X027Y0333D03*
X03268Y03617D03*
X02481Y03543D03*
X02407Y03525D03*
X02413Y0363D03*
X02381Y0351D03*
X02716Y0327D03*
X02558Y03197D03*
X04039Y03149D03*
X03402Y03392D03*
X0294Y03189D03*
X03565Y03376D03*
X03283Y03025D03*
X03828Y03074D03*
X039Y03059D03*
X03879Y03041D03*
X03901Y03024D03*
X04205Y03378D03*
X04168Y03544D03*
X03483Y0355D03*
X04055Y03499D03*
X032Y03659D03*
X03031Y03487D03*
X03312Y03166D03*
X0338Y03134D03*
X03442D03*
Y031D03*
X03346Y03183D03*
X0338Y03228D03*
Y03198D03*
X03442Y03228D03*
Y03166D03*
Y03198D03*
X03472Y03213D03*
X03576Y03484D03*
X03565Y03408D03*
X03785Y03201D03*
X03905Y03164D03*
X03855Y03024D03*
X03831Y03039D03*
X03854Y03058D03*
X03809Y03182D03*
X03312Y0313D03*
Y03096D03*
X03313Y03059D03*
Y03025D03*
X03312Y03198D03*
X03501D03*
X03859Y03467D03*
X03497Y0366D03*
X03624Y03643D03*
X03625Y03587D03*
X03862Y03545D03*
X03861Y03688D03*
Y03591D03*
X03862Y03639D03*
Y03664D03*
Y03568D03*
X03696Y03264D03*
X03674Y03288D03*
X03627Y03316D03*
X03775Y03527D03*
X0358Y03677D03*
X03605Y03678D03*
X03751Y03543D03*
X03726D03*
X03736Y03585D03*
Y03643D03*
X03872Y03486D03*
X0384D03*
X03806D03*
X03887Y03504D03*
X03853D03*
X03821D03*
X03789D03*
X03659Y03317D03*
X03651Y03349D03*
Y0338D03*
X03657Y03408D03*
X03671Y03432D03*
X0369Y03454D03*
X03764Y03493D03*
X03712Y03473D03*
X03737Y03485D03*
X03346Y03214D03*
X03737Y03518D03*
X036Y03483D03*
X0362Y03393D03*
X03626Y03417D03*
X03779Y03588D03*
X03778Y03643D03*
X03752Y03683D03*
X0364Y03679D03*
X03722Y03683D03*
X03711Y03507D03*
X0369Y03494D03*
X03669Y03478D03*
X03651Y03458D03*
X03637Y03438D03*
X0362Y03343D03*
X03619Y03368D03*
X0338Y03101D03*
Y03166D03*
X03412Y03183D03*
X03312Y03228D03*
X03347Y03041D03*
Y0308D03*
Y03117D03*
X03345Y03152D03*
X0338Y03061D03*
X03381Y03023D03*
X03413Y03082D03*
X03412Y03116D03*
X03413Y03042D03*
X03444Y03026D03*
X03443Y03063D03*
X0364Y03219D03*
X0362Y03239D03*
X0374Y03202D03*
X03768Y03182D03*
X037Y03203D03*
X0366Y03204D03*
X0372Y03183D03*
X0401Y0321D03*
X0368Y03184D03*
X03809Y03138D03*
X0381Y03098D03*
X03811Y03058D03*
X03812Y03023D03*
X03621Y03203D03*
X03788Y0304D03*
X03413Y03214D03*
X03472Y03183D03*
X03412Y03152D03*
X03601Y0322D03*
X0364Y03185D03*
X03601Y03186D03*
X03789Y03162D03*
X03787Y0312D03*
Y03079D03*
X0386Y03082D03*
X03768Y03024D03*
X03501Y03166D03*
Y03227D03*
X0358Y03239D03*
Y03204D03*
X03768Y03059D03*
Y03099D03*
Y03139D03*
X0374Y03165D03*
X037D03*
X0366D03*
X0362D03*
X0358D03*
X04283Y03408D03*
X03115Y03261D03*
X03168Y03279D03*
X03049Y03264D03*
X03518Y03621D03*
X03519Y03482D03*
X03222Y03074D03*
X03977Y03081D03*
X03385Y03679D03*
X03246Y03623D03*
X03375Y03653D03*
X02848Y03633D03*
X0268Y03497D03*
X02138Y0358D03*
X03134Y0356D03*
X02155Y03599D03*
X03215Y03257D03*
X0294Y03261D03*
X03276Y03268D03*
X03378Y03316D03*
X02299Y03284D03*
X02878Y03626D03*
X03411Y0362D03*
X03358Y03536D03*
X03614Y0352D03*
X03364Y03559D03*
X02671Y03596D03*
X03308Y0359D03*
X03401Y03321D03*
Y03344D03*
X04Y0314D03*
X04156Y03475D03*
X04111Y03608D03*
X04189Y03542D03*
X04232Y0358D03*
X04205Y03652D03*
X04186Y0328D03*
X04019Y03115D03*
X04142Y03367D03*
X03927Y03147D03*
X04049Y03549D03*
X03294Y03045D03*
X03272D03*
X03117Y03219D03*
X04Y03556D03*
X04049Y03297D03*
X04083Y03307D03*
X04218Y03465D03*
X04205Y03111D03*
X03395Y03368D03*
X04011Y03067D03*
X02974Y0342D03*
X02937D03*
X03049Y03115D03*
X02992Y03537D03*
X03042Y03407D03*
X03033Y03364D03*
X03022Y03345D03*
X03043Y03385D03*
X04268Y03138D03*
X04273Y03686D03*
X04188Y03356D03*
X04231Y03403D03*
X04305Y03186D03*
X02576Y03592D03*
X03382Y03402D03*
X04037Y03648D03*
X02191Y03442D03*
X04122Y03142D03*
X02866Y03219D03*
X02296Y03463D03*
X0246Y0346D03*
X02142Y03464D03*
X03073Y03162D03*
X02993Y03039D03*
X0311Y03048D03*
X03197Y03047D03*
X03242Y03149D03*
X02238Y03475D03*
X02275Y03477D03*
G54D20*
X03537Y03076D03*
X0367D03*
G54D24*
X04236Y0311D03*
Y03071D03*
X04177Y0311D03*
Y03071D03*
X04236Y03652D03*
Y03612D03*
X04177Y03652D03*
Y03612D03*
G54D55*
X02502Y03225D03*
G54D63*
X02395Y03435D03*
X02342Y03412D03*
X02324Y03363D03*
X02342Y03315D03*
X02395Y03292D03*
X02447Y03315D03*
X02466Y03363D03*
X02445Y03412D03*
X03823D03*
X03843Y03363D03*
X03824Y03315D03*
X03772Y03292D03*
X0372Y03315D03*
X03701Y03363D03*
X0372Y03412D03*
X03772Y03435D03*
G54D122*
X03005Y03467D02*
D01*
X03005Y03467*
X03005Y03468*
X03004Y03469*
X03004Y0347*
X03004Y0347*
X03004Y03471*
X03003Y03472*
X03003Y03472*
X03003Y03473*
X03002Y03474*
X03002Y03474*
X03001Y03475*
X03Y03475*
X03Y03476*
X02999Y03476*
X02999Y03476*
X02998Y03477*
X02997Y03477*
X02996Y03477*
X02996Y03477*
X02995Y03477*
X02994Y03477*
X02993*
X02993Y03477*
X02992Y03477*
X02991Y03477*
X0299Y03477*
X0299Y03477*
X02989Y03476*
X02988Y03476*
X02988Y03476*
X02987Y03475*
X02986Y03475*
X02986Y03474*
X02985Y03474*
X02985Y03473*
X02984Y03472*
X02984Y03472*
X02984Y03471*
X02983Y0347*
X02983Y0347*
X02983Y03469*
X02983Y03468*
X02983Y03467*
X02983Y03467*
X02983Y03466*
X02983Y03465*
X02983Y03464*
X02983Y03463*
X02983Y03463*
X02984Y03462*
X02984Y03461*
X02984Y03461*
X02985Y0346*
X02985Y03459*
X02986Y03459*
X02986Y03458*
X02987Y03458*
X02988Y03457*
X02988Y03457*
X02989Y03457*
X0299Y03456*
X0299Y03456*
X02991Y03456*
X02992Y03456*
X02993Y03456*
X02993Y03456*
X02994*
X02995Y03456*
X02996Y03456*
X02996Y03456*
X02997Y03456*
X02998Y03456*
X02999Y03457*
X02999Y03457*
X03Y03457*
X03Y03458*
X03001Y03458*
X03002Y03459*
X03002Y03459*
X03003Y0346*
X03003Y03461*
X03003Y03461*
X03004Y03462*
X03004Y03463*
X03004Y03463*
X03004Y03464*
X03005Y03465*
X03005Y03466*
X03005Y03467*
X03007D02*
D01*
X03007Y03467*
X03007Y03468*
X03007Y03469*
X03006Y0347*
X03006Y0347*
X03006Y03471*
X03006Y03472*
X03005Y03472*
X03005Y03473*
X03004Y03474*
X03004Y03474*
X03003Y03475*
X03003Y03475*
X03002Y03476*
X03001Y03476*
X03001Y03476*
X03Y03477*
X02999Y03477*
X02999Y03477*
X02998Y03477*
X02997Y03477*
X02996Y03477*
X02996*
X02995Y03477*
X02994Y03477*
X02993Y03477*
X02993Y03477*
X02992Y03477*
X02991Y03476*
X0299Y03476*
X0299Y03476*
X02989Y03475*
X02989Y03475*
X02988Y03474*
X02987Y03474*
X02987Y03473*
X02987Y03472*
X02986Y03472*
X02986Y03471*
X02986Y0347*
X02985Y0347*
X02985Y03469*
X02985Y03468*
X02985Y03467*
X02985Y03467*
X02985Y03466*
X02985Y03465*
X02985Y03464*
X02985Y03463*
X02986Y03463*
X02986Y03462*
X02986Y03461*
X02987Y03461*
X02987Y0346*
X02987Y03459*
X02988Y03459*
X02989Y03458*
X02989Y03458*
X0299Y03457*
X0299Y03457*
X02991Y03457*
X02992Y03456*
X02993Y03456*
X02993Y03456*
X02994Y03456*
X02995Y03456*
X02996Y03456*
X02996*
X02997Y03456*
X02998Y03456*
X02999Y03456*
X02999Y03456*
X03Y03456*
X03001Y03457*
X03001Y03457*
X03002Y03457*
X03003Y03458*
X03003Y03458*
X03004Y03459*
X03004Y03459*
X03005Y0346*
X03005Y03461*
X03006Y03461*
X03006Y03462*
X03006Y03463*
X03006Y03463*
X03007Y03464*
X03007Y03465*
X03007Y03466*
X03007Y03467*
X03005Y0337D02*
D01*
X03005Y03371*
X03005Y03372*
X03004Y03372*
X03004Y03373*
X03004Y03374*
X03004Y03375*
X03003Y03375*
X03003Y03376*
X03003Y03377*
X03002Y03377*
X03002Y03378*
X03001Y03378*
X03Y03379*
X03Y03379*
X02999Y0338*
X02999Y0338*
X02998Y0338*
X02997Y03381*
X02996Y03381*
X02996Y03381*
X02995Y03381*
X02994Y03381*
X02993*
X02993Y03381*
X02992Y03381*
X02991Y03381*
X0299Y03381*
X0299Y0338*
X02989Y0338*
X02988Y0338*
X02988Y03379*
X02987Y03379*
X02986Y03378*
X02986Y03378*
X02985Y03377*
X02985Y03377*
X02984Y03376*
X02984Y03375*
X02984Y03375*
X02983Y03374*
X02983Y03373*
X02983Y03372*
X02983Y03372*
X02983Y03371*
X02983Y0337*
X02983Y03369*
X02983Y03369*
X02983Y03368*
X02983Y03367*
X02983Y03366*
X02984Y03366*
X02984Y03365*
X02984Y03364*
X02985Y03364*
X02985Y03363*
X02986Y03362*
X02986Y03362*
X02987Y03361*
X02988Y03361*
X02988Y03361*
X02989Y0336*
X0299Y0336*
X0299Y0336*
X02991Y03359*
X02992Y03359*
X02993Y03359*
X02993Y03359*
X02994*
X02995Y03359*
X02996Y03359*
X02996Y03359*
X02997Y0336*
X02998Y0336*
X02999Y0336*
X02999Y03361*
X03Y03361*
X03Y03361*
X03001Y03362*
X03002Y03362*
X03002Y03363*
X03003Y03364*
X03003Y03364*
X03003Y03365*
X03004Y03366*
X03004Y03366*
X03004Y03367*
X03004Y03368*
X03005Y03369*
X03005Y03369*
X03005Y0337*
X03007D02*
D01*
X03007Y03371*
X03007Y03372*
X03007Y03372*
X03006Y03373*
X03006Y03374*
X03006Y03375*
X03006Y03375*
X03005Y03376*
X03005Y03377*
X03004Y03377*
X03004Y03378*
X03003Y03378*
X03003Y03379*
X03002Y03379*
X03001Y0338*
X03001Y0338*
X03Y0338*
X02999Y03381*
X02999Y03381*
X02998Y03381*
X02997Y03381*
X02996Y03381*
X02996*
X02995Y03381*
X02994Y03381*
X02993Y03381*
X02993Y03381*
X02992Y0338*
X02991Y0338*
X0299Y0338*
X0299Y03379*
X02989Y03379*
X02989Y03378*
X02988Y03378*
X02987Y03377*
X02987Y03377*
X02987Y03376*
X02986Y03375*
X02986Y03375*
X02986Y03374*
X02985Y03373*
X02985Y03372*
X02985Y03372*
X02985Y03371*
X02985Y0337*
X02985Y03369*
X02985Y03369*
X02985Y03368*
X02985Y03367*
X02986Y03366*
X02986Y03366*
X02986Y03365*
X02987Y03364*
X02987Y03364*
X02987Y03363*
X02988Y03362*
X02989Y03362*
X02989Y03361*
X0299Y03361*
X0299Y03361*
X02991Y0336*
X02992Y0336*
X02993Y0336*
X02993Y03359*
X02994Y03359*
X02995Y03359*
X02996Y03359*
X02996*
X02997Y03359*
X02998Y03359*
X02999Y03359*
X02999Y0336*
X03Y0336*
X03001Y0336*
X03001Y03361*
X03002Y03361*
X03003Y03361*
X03003Y03362*
X03004Y03362*
X03004Y03363*
X03005Y03364*
X03005Y03364*
X03006Y03365*
X03006Y03366*
X03006Y03366*
X03006Y03367*
X03007Y03368*
X03007Y03369*
X03007Y03369*
X03007Y0337*
X04085Y03635D02*
D01*
X04085Y03635*
X04085Y03636*
X04085Y03637*
X04085Y03638*
X04085Y03638*
X04084Y03639*
X04084Y0364*
X04084Y0364*
X04083Y03641*
X04083Y03642*
X04082Y03642*
X04082Y03643*
X04081Y03643*
X0408Y03644*
X0408Y03644*
X04079Y03644*
X04078Y03645*
X04078Y03645*
X04077Y03645*
X04076Y03645*
X04075Y03645*
X04075Y03645*
X04074*
X04073Y03645*
X04072Y03645*
X04072Y03645*
X04071Y03645*
X0407Y03645*
X04069Y03644*
X04069Y03644*
X04068Y03644*
X04068Y03643*
X04067Y03643*
X04066Y03642*
X04066Y03642*
X04065Y03641*
X04065Y0364*
X04065Y0364*
X04064Y03639*
X04064Y03638*
X04064Y03638*
X04064Y03637*
X04063Y03636*
X04063Y03635*
X04063Y03635*
X04063Y03634*
X04063Y03633*
X04064Y03632*
X04064Y03631*
X04064Y03631*
X04064Y0363*
X04065Y03629*
X04065Y03629*
X04065Y03628*
X04066Y03627*
X04066Y03627*
X04067Y03626*
X04068Y03626*
X04068Y03625*
X04069Y03625*
X04069Y03625*
X0407Y03624*
X04071Y03624*
X04072Y03624*
X04072Y03624*
X04073Y03624*
X04074Y03624*
X04075*
X04075Y03624*
X04076Y03624*
X04077Y03624*
X04078Y03624*
X04078Y03624*
X04079Y03625*
X0408Y03625*
X0408Y03625*
X04081Y03626*
X04082Y03626*
X04082Y03627*
X04083Y03627*
X04083Y03628*
X04084Y03629*
X04084Y03629*
X04084Y0363*
X04085Y03631*
X04085Y03631*
X04085Y03632*
X04085Y03633*
X04085Y03634*
X04085Y03635*
X04083D02*
D01*
X04083Y03635*
X04083Y03636*
X04083Y03637*
X04083Y03638*
X04082Y03638*
X04082Y03639*
X04082Y0364*
X04081Y0364*
X04081Y03641*
X04081Y03642*
X0408Y03642*
X04079Y03643*
X04079Y03643*
X04078Y03644*
X04078Y03644*
X04077Y03644*
X04076Y03645*
X04075Y03645*
X04075Y03645*
X04074Y03645*
X04073Y03645*
X04072Y03645*
X04072*
X04071Y03645*
X0407Y03645*
X04069Y03645*
X04069Y03645*
X04068Y03645*
X04067Y03644*
X04067Y03644*
X04066Y03644*
X04065Y03643*
X04065Y03643*
X04064Y03642*
X04064Y03642*
X04063Y03641*
X04063Y0364*
X04062Y0364*
X04062Y03639*
X04062Y03638*
X04062Y03638*
X04061Y03637*
X04061Y03636*
X04061Y03635*
X04061Y03635*
X04061Y03634*
X04061Y03633*
X04061Y03632*
X04062Y03631*
X04062Y03631*
X04062Y0363*
X04062Y03629*
X04063Y03629*
X04063Y03628*
X04064Y03627*
X04064Y03627*
X04065Y03626*
X04065Y03626*
X04066Y03625*
X04067Y03625*
X04067Y03625*
X04068Y03624*
X04069Y03624*
X04069Y03624*
X0407Y03624*
X04071Y03624*
X04072Y03624*
X04072*
X04073Y03624*
X04074Y03624*
X04075Y03624*
X04075Y03624*
X04076Y03624*
X04077Y03625*
X04078Y03625*
X04078Y03625*
X04079Y03626*
X04079Y03626*
X0408Y03627*
X04081Y03627*
X04081Y03628*
X04081Y03629*
X04082Y03629*
X04082Y0363*
X04082Y03631*
X04083Y03631*
X04083Y03632*
X04083Y03633*
X04083Y03634*
X04083Y03635*
X04078Y03089D02*
D01*
X04078Y03089*
X04078Y0309*
X04077Y03091*
X04077Y03092*
X04077Y03092*
X04077Y03093*
X04076Y03094*
X04076Y03094*
X04076Y03095*
X04075Y03096*
X04075Y03096*
X04074Y03097*
X04073Y03097*
X04073Y03098*
X04072Y03098*
X04072Y03098*
X04071Y03099*
X0407Y03099*
X04069Y03099*
X04069Y03099*
X04068Y03099*
X04067Y03099*
X04066*
X04066Y03099*
X04065Y03099*
X04064Y03099*
X04063Y03099*
X04063Y03099*
X04062Y03098*
X04061Y03098*
X04061Y03098*
X0406Y03097*
X04059Y03097*
X04059Y03096*
X04058Y03096*
X04058Y03095*
X04057Y03094*
X04057Y03094*
X04057Y03093*
X04056Y03092*
X04056Y03092*
X04056Y03091*
X04056Y0309*
X04056Y03089*
X04056Y03089*
X04056Y03088*
X04056Y03087*
X04056Y03086*
X04056Y03085*
X04056Y03085*
X04057Y03084*
X04057Y03083*
X04057Y03083*
X04058Y03082*
X04058Y03081*
X04059Y03081*
X04059Y0308*
X0406Y0308*
X04061Y03079*
X04061Y03079*
X04062Y03079*
X04063Y03078*
X04063Y03078*
X04064Y03078*
X04065Y03078*
X04066Y03078*
X04066Y03078*
X04067*
X04068Y03078*
X04069Y03078*
X04069Y03078*
X0407Y03078*
X04071Y03078*
X04072Y03079*
X04072Y03079*
X04073Y03079*
X04073Y0308*
X04074Y0308*
X04075Y03081*
X04075Y03081*
X04076Y03082*
X04076Y03083*
X04076Y03083*
X04077Y03084*
X04077Y03085*
X04077Y03085*
X04077Y03086*
X04078Y03087*
X04078Y03088*
X04078Y03089*
X0408D02*
D01*
X0408Y03089*
X0408Y0309*
X0408Y03091*
X04079Y03092*
X04079Y03092*
X04079Y03093*
X04079Y03094*
X04078Y03094*
X04078Y03095*
X04077Y03096*
X04077Y03096*
X04076Y03097*
X04076Y03097*
X04075Y03098*
X04074Y03098*
X04074Y03098*
X04073Y03099*
X04072Y03099*
X04072Y03099*
X04071Y03099*
X0407Y03099*
X04069Y03099*
X04069*
X04068Y03099*
X04067Y03099*
X04066Y03099*
X04066Y03099*
X04065Y03099*
X04064Y03098*
X04063Y03098*
X04063Y03098*
X04062Y03097*
X04062Y03097*
X04061Y03096*
X0406Y03096*
X0406Y03095*
X0406Y03094*
X04059Y03094*
X04059Y03093*
X04059Y03092*
X04058Y03092*
X04058Y03091*
X04058Y0309*
X04058Y03089*
X04058Y03089*
X04058Y03088*
X04058Y03087*
X04058Y03086*
X04058Y03085*
X04059Y03085*
X04059Y03084*
X04059Y03083*
X0406Y03083*
X0406Y03082*
X0406Y03081*
X04061Y03081*
X04062Y0308*
X04062Y0308*
X04063Y03079*
X04063Y03079*
X04064Y03079*
X04065Y03078*
X04066Y03078*
X04066Y03078*
X04067Y03078*
X04068Y03078*
X04069Y03078*
X04069*
X0407Y03078*
X04071Y03078*
X04072Y03078*
X04072Y03078*
X04073Y03078*
X04074Y03079*
X04074Y03079*
X04075Y03079*
X04076Y0308*
X04076Y0308*
X04077Y03081*
X04077Y03081*
X04078Y03082*
X04078Y03083*
X04079Y03083*
X04079Y03084*
X04079Y03085*
X04079Y03085*
X0408Y03086*
X0408Y03087*
X0408Y03088*
X0408Y03089*
G54D123*
X03138Y03661D03*
X03101D03*
G54D124*
X03199Y03658D03*
Y03605D03*
X02963Y03141D03*
Y03088D03*
G54D125*
X02971Y03556D03*
Y03517D03*
X0354Y0356D03*
Y0352D03*
X03387Y03588D03*
Y03549D03*
X03438Y03384D03*
Y03344D03*
X03595Y03307D03*
Y03268D03*
X02217Y03447D03*
Y03408D03*
Y03367D03*
Y03328D03*
G54D126*
X02982Y03467D03*
X03008D03*
X02982Y0337D03*
X03008D03*
X04087Y03635D03*
X0406D03*
X04055Y03089D03*
X04081D03*
G54D127*
X03332Y03653D03*
Y03614D03*
X03294Y03653D03*
Y03614D03*
X02257Y03447D03*
Y03408D03*
Y03329D03*
Y03368D03*
X0291Y03668D03*
Y03628D03*
G54D128*
X03081Y0361D03*
X03134D03*
X03074Y03557D03*
X03021D03*
X03194Y03198D03*
X03247D03*
G54D129*
X02921Y03468D03*
Y0337D03*
G54D130*
X03487Y0363D03*
X03448D03*
X02926Y03319D03*
X02965D03*
X03017Y0351D03*
X03057D03*
X0348Y03465D03*
X0344D03*
X03479Y03428D03*
X0344D03*
X03498Y03269D03*
X03537D03*
X03021Y03319D03*
X0306D03*
X03242Y03149D03*
X03203D03*
X0244Y03564D03*
X0248D03*
X0244Y03521D03*
X0248D03*
G54D131*
X03447Y03574D03*
X03492D03*
Y03517D03*
X03447D03*
G54D132*
X0353Y03389D03*
X03531Y0332D03*
G54D133*
X03543Y03355D03*
X03518D03*
G54D134*
X03477Y03383D03*
Y03345D03*
G54D135*
X0368Y03676D03*
Y03552D03*
G54D136*
X03624Y03615D03*
X03735D03*
G54D137*
X03839Y03105D03*
X03878D03*
X0248Y03654D03*
X0244D03*
Y03609D03*
X0248D03*
X02661Y03064D03*
X02622D03*
X02624Y03124D03*
X02663D03*
G54D138*
X02614Y0364D03*
G54D139*
X02689Y0364D03*
G54D140*
X0215Y03324D03*
Y03403D03*
Y03383D03*
Y03363D03*
Y03343D03*
G54D141*
X0206Y03438D03*
Y03288D03*
G54D142*
X03239Y03426D03*
G54D143*
X03152Y03545D03*
X03168D03*
X03183D03*
X03199D03*
X03215D03*
X03231D03*
X03246D03*
X03262D03*
X03278D03*
X03294D03*
X03309D03*
X03325D03*
Y03307D03*
X03309D03*
X03294D03*
X03278D03*
X03262D03*
X03246D03*
X03231D03*
X03215D03*
X03199D03*
X03183D03*
X03168D03*
X03152D03*
G54D144*
X03358Y03512D03*
Y03496D03*
Y03481D03*
Y03465D03*
Y03449D03*
Y03434D03*
Y03418D03*
Y03402D03*
Y03386D03*
Y03371D03*
Y03355D03*
Y03339D03*
X03119D03*
Y03355D03*
Y03371D03*
Y03386D03*
Y03402D03*
Y03418D03*
Y03434D03*
Y03449D03*
Y03465D03*
Y03481D03*
Y03496D03*
Y03512D03*
G54D145*
X02749Y03636D03*
X02832Y03674D03*
Y03599D03*
G54D146*
X04262Y03232D03*
X04105D03*
X04262Y03497D03*
X04105D03*
X02759Y03232D03*
X02602D03*
X02759Y03497D03*
X02602D03*
G54D147*
X03073Y03164D03*
X0311Y03081D03*
X03035D03*
G54D148*
X03247Y03046D03*
X03222D03*
X03196D03*
X03222Y03109D03*
X03247D03*
X03196D03*
G54D149*
X02188Y03513D03*
G54D150*
X02274Y03599D03*
G54D151*
X0218Y0354D03*
Y0356D03*
Y03579D03*
Y03599D03*
Y03619D03*
Y03638D03*
Y03658D03*
X02369D03*
Y03638D03*
Y03619D03*
Y03599D03*
Y03579D03*
Y0356D03*
Y0354D03*
G54D152*
X02215Y03693D03*
X02235D03*
X02255D03*
X02274D03*
X02294D03*
X02314D03*
X02333D03*
Y03505D03*
X02314D03*
X02294D03*
X02274D03*
X02255D03*
X02235D03*
X02215D03*
G54D153*
X02554Y031D03*
X02736D03*
G54D154*
X04324Y0363D03*
X04379Y03218D03*
Y03363D03*
Y03508D03*
X04468Y03243D03*
Y03322D03*
Y03479D03*
Y034D03*
X04324Y03091D03*
X03983Y03364D03*
Y03475D03*
Y03256D03*
G54D155*
X0208Y0308D03*
Y0365D03*
X0447Y03648D03*
Y03078D03*
G54D156*
X02096Y03233D03*
Y03493D03*
G54D157*
X03818Y03663D03*
X03918D03*
Y03563D03*
X03818D03*
X02174Y03153D03*
X02331D03*
G54D158*
X02395Y03363D03*
X03772D03*
G54D159*
X03309Y03355D03*
X03262D03*
X03215D03*
X03168D03*
X03309Y03402D03*
X03262D03*
X03215D03*
X03168D03*
X03309Y03449D03*
X03262D03*
X03215D03*
X03168D03*
X03309Y03496D03*
X03262D03*
X03215D03*
X03168D03*
M02*