%FSTAX23Y23*%
%MOIN*%
%SFA1B1*%

%IPPOS*%
%ADD44C,0.005900*%
%ADD45C,0.011800*%
%ADD46C,0.007900*%
%ADD49C,0.039400*%
%ADD52C,0.059100*%
%ADD53C,0.019700*%
%ADD54C,0.177200*%
%ADD55C,0.078700*%
%ADD58C,0.015700*%
%ADD59C,0.035400*%
%LNvapeix_mini_pcb-1*%
%LPD*%
G54D44*
X02151Y03498D02*
X02266D01*
X02142Y03489D02*
X02151Y03498D01*
X02142Y03464D02*
Y03489D01*
X02275Y03477D02*
Y03489D01*
X02266Y03498D02*
X02275Y03489D01*
X03978Y03118D02*
X04Y0314D01*
X03925Y03118D02*
X03978D01*
X0381Y03233D02*
X03925Y03118D01*
X04039Y03309D02*
X0405Y03298D01*
X03938Y03309D02*
X04039D01*
X03875Y03246D02*
X03938Y03309D01*
X03548Y03293D02*
X03635D01*
X0354Y03281D02*
X0363D01*
X03678Y03233*
X03635Y03293D02*
X03682Y03246D01*
X03875*
X03678Y03233D02*
X0381D01*
X03674Y0322D02*
X03803D01*
X03626Y03269D02*
X03674Y0322D01*
X03277Y03269D02*
X03626D01*
X03449Y03392D02*
X03548Y03293D01*
X03453Y03368D02*
X0354Y03281D01*
X03276Y03268D02*
X03277Y03269D01*
X04156Y03475D02*
Y03513D01*
X04047Y03622D02*
X04156Y03513D01*
X03724Y03622D02*
X04047D01*
X03227Y03689D02*
X03246Y03708D01*
X03227Y03609D02*
Y03689D01*
Y03609D02*
X03246Y0359D01*
X03246Y03708D02*
X0421D01*
X03246Y0359D02*
X03308D01*
X03365Y03303D02*
X03378Y03316D01*
X03226Y03303D02*
X03365D01*
X0319Y03267D02*
X03226Y03303D01*
X03344Y03319D02*
X03362Y03337D01*
X03176Y03319D02*
X03344D01*
X03141Y03284D02*
X03176Y03319D01*
X03362Y03337D02*
Y03429D01*
X02665Y03474D02*
X027Y03439D01*
X02475Y03474D02*
X02665D01*
X0319Y03216D02*
Y03267D01*
X03161Y03187D02*
X0319Y03216D01*
X03057Y03187D02*
X03161D01*
X03141Y03229D02*
Y03284D01*
X03131Y03219D02*
X03141Y03229D01*
X03117Y03219D02*
X03131D01*
X03027Y03217D02*
X03057Y03187D01*
X03263Y03096D02*
X03294Y03065D01*
X02942Y03096D02*
X03263D01*
X02911Y03127D02*
X02942Y03096D01*
X02911Y03127D02*
Y03231D01*
X0294Y0326*
X03294Y03051D02*
Y03065D01*
X03029Y03695D02*
X03087Y03637D01*
Y03352D02*
Y03637D01*
X03049Y03314D02*
X03087Y03352D01*
X03023Y03683D02*
X03072Y03635D01*
Y03359D02*
Y03635D01*
X03027Y03314D02*
X03072Y03359D01*
X03036Y03707D02*
X03104Y03639D01*
Y03349D02*
Y03639D01*
X03073Y03318D02*
X03104Y03349D01*
X03049Y03264D02*
Y03314D01*
X03073Y03279D02*
Y03318D01*
X03598Y03447D02*
X03636Y03485D01*
X0338Y03447D02*
X03598D01*
X03362Y03429D02*
X0338Y03447D01*
X03604Y03435D02*
X03649Y0348D01*
X03398Y03435D02*
X03604D01*
X03636Y03485D02*
Y03534D01*
X03649Y0348D02*
Y03527D01*
X03027Y03217D02*
Y03314D01*
X04421Y0317D02*
Y0365D01*
X04389Y03138D02*
X04421Y0317D01*
X04268Y03138D02*
X04389D01*
X0246Y03459D02*
X02475Y03474D01*
X02459Y03461D02*
X0246Y0346D01*
X03382Y03403D02*
Y03419D01*
X03398Y03435*
X0219Y03695D02*
X03029D01*
X04103Y03403D02*
X04231D01*
X04273Y03686D02*
X04386D01*
X04421Y0365*
X03008Y03393D02*
Y03449D01*
X02992Y03537D02*
X02993Y03536D01*
Y03464D02*
Y03536D01*
Y03464D02*
X03008Y03449D01*
X02155Y03659D02*
X0219Y03695D01*
X02155Y03604D02*
Y03659D01*
X02937Y03396D02*
Y0342D01*
X04083Y03383D02*
X04103Y03403D01*
X04083Y03307D02*
Y03383D01*
X03398Y03392D02*
X03398Y03392D01*
X03308Y0359D02*
X0331D01*
X02138Y0358D02*
Y03659D01*
X03518Y03619D02*
X03518Y0362D01*
X03518Y03619D02*
Y03621D01*
X03073Y03279D02*
X03091Y03261D01*
X03375Y03653D02*
X03375Y03654D01*
X03091Y03261D02*
X03115D01*
X02138Y03659D02*
X02186Y03707D01*
X03036*
X03649Y03527D02*
X03732Y0361D01*
X03947*
X04001Y03556*
X03803Y0322D02*
X0386Y03164D01*
Y03082D02*
Y03164D01*
X03395Y03368D02*
X03453D01*
X03636Y03534D02*
X03724Y03622D01*
X02937Y03396D02*
X02954Y03379D01*
X02994*
X03008Y03393*
X0294Y03261D02*
Y03262D01*
X03398Y03392D02*
X03402D01*
X03449*
X03927Y03147D02*
X03959Y0318D01*
X0215Y03599D02*
X02155Y03604D01*
X02428Y03683D02*
X03023D01*
X02413Y03631D02*
Y03668D01*
X02428Y03683*
X027Y0333D02*
Y03439D01*
X03959Y0318D02*
X04151D01*
X04259Y03288*
Y03659*
X0421Y03708D02*
X04259Y03659D01*
G54D45*
X02605Y03498D02*
X02626Y03519D01*
X02393Y03498D02*
X02605D01*
X0238Y03511D02*
X02393Y03498D01*
X0316Y0354D02*
X03311D01*
X03133Y03513D02*
X0316Y0354D01*
X03133Y0331D02*
Y03513D01*
X03121Y03298D02*
X03133Y0331D01*
X0273Y03277D02*
Y0349D01*
X02701Y03519D02*
X0273Y0349D01*
X02626Y03519D02*
X02701D01*
X02723Y0327D02*
X0273Y03277D01*
X03411Y0362D02*
X03518D01*
X0333Y03559D02*
X03365D01*
X03311Y0354D02*
X0333Y03559D01*
X02716Y0327D02*
X02723D01*
X03097Y03303D02*
X03102Y03298D01*
X03121*
G54D46*
X04011Y03067D02*
X04114D01*
X04324Y03277*
Y0363*
G54D49*
X02035Y0338D02*
X0205Y03365D01*
X02035Y0338D02*
Y03604D01*
X02038Y03377D02*
X02196Y03225D01*
X02502*
X02035Y03604D02*
X0208Y0365D01*
G54D52*
X04324Y0363D03*
G54D53*
X03772Y03435D03*
X0372Y03412D03*
X03701Y03363D03*
X0372Y03315D03*
X03772Y03292D03*
X03824Y03315D03*
X03843Y03363D03*
X03823Y03412D03*
X02445D03*
X02466Y03363D03*
X02447Y03315D03*
X02395Y03292D03*
X02342Y03315D03*
X02324Y03363D03*
X02342Y03412D03*
X02395Y03435D03*
G54D54*
X03772Y03363D03*
X02395D03*
G54D55*
X0208Y0365D03*
G54D58*
X02275Y03477D03*
X02142Y03464D03*
X0246Y0346D03*
X03382Y03402D03*
X04231Y03403D03*
X04273Y03686D03*
X04268Y03138D03*
X02992Y03537D03*
X02937Y0342D03*
X04011Y03067D03*
X03395Y03368D03*
X04083Y03307D03*
X04049Y03297D03*
X04Y03556D03*
X03117Y03219D03*
X03294Y03045D03*
X03927Y03147D03*
X04156Y03475D03*
X04Y0314D03*
X03308Y0359D03*
X03364Y03559D03*
X03411Y0362D03*
X03378Y03316D03*
X03276Y03268D03*
X0294Y03261D03*
X02155Y03599D03*
X02138Y0358D03*
X03375Y03653D03*
X03518Y03621D03*
X03049Y03264D03*
X03115Y03261D03*
X0386Y03082D03*
X03402Y03392D03*
X02716Y0327D03*
X02381Y0351D03*
X02413Y0363D03*
X027Y0333D03*
X03097Y03303D03*
G54D59*
X02502Y03225D03*
M02*