%FSTAX24Y24*%
%MOIN*%
%SFA1B1*%

%IPPOS*%
%ADD50C,0.059100*%
%ADD54C,0.019700*%
%ADD59C,0.040000*%
%ADD60C,0.051200*%
%ADD61O,0.059100X0.031500*%
%ADD62C,0.023600*%
%ADD63C,0.110200*%
%ADD64C,0.047200*%
%ADD67C,0.010000*%
%ADD68C,0.024800*%
%LNvapeix_mini_pcb-1*%
%LPD*%
G54D50*
X020806Y030806D03*
Y036503D03*
X0447Y036484D03*
G54D54*
X02481Y03543D03*
X02407Y03525D03*
X02413Y0363D03*
X02381Y0351D03*
X02716Y0327D03*
X02706Y03327D03*
X02558Y03197D03*
X04039Y03149D03*
X03402Y03392D03*
X0294Y03189D03*
X03268Y036175D03*
X03565Y03376D03*
X03283Y03025D03*
X03828Y03074D03*
X039Y03059D03*
X03879Y03041D03*
X03901Y03024D03*
X03112Y033216D03*
X04205Y03378D03*
X04168Y03544D03*
X03483Y0355D03*
X04055Y03499D03*
X032Y03659D03*
X030314Y03487D03*
X03312Y03166D03*
X0338Y03134D03*
X03442D03*
Y031D03*
X03346Y03183D03*
X0338Y03228D03*
Y03198D03*
X03442Y03228D03*
Y03166D03*
Y03198D03*
X03472Y03213D03*
X03576Y03484D03*
X03565Y03408D03*
X03785Y03201D03*
X03905Y03164D03*
X03855Y03024D03*
X03831Y03039D03*
X03854Y03058D03*
X03809Y03182D03*
X03312Y0313D03*
Y03096D03*
X03313Y03059D03*
Y03025D03*
X03312Y03198D03*
X03501D03*
X03859Y03467D03*
X03497Y0366D03*
X03624Y03643D03*
X03625Y03587D03*
X03862Y03545D03*
X03861Y03688D03*
Y03591D03*
X03862Y03639D03*
Y03664D03*
Y03568D03*
X03696Y03264D03*
X03674Y03288D03*
X03627Y03316D03*
X03775Y03527D03*
X03605Y03678D03*
X03751Y03543D03*
X03726D03*
X03736Y03585D03*
Y03643D03*
X03872Y03486D03*
X0384D03*
X03806D03*
X03887Y03504D03*
X03853D03*
X03821D03*
X03789D03*
X03659Y03317D03*
X03651Y03349D03*
Y0338D03*
X03657Y03408D03*
X03671Y03432D03*
X0369Y03454D03*
X03764Y03493D03*
X03712Y03473D03*
X03737Y03485D03*
X03346Y03214D03*
X03737Y03518D03*
X036Y03483D03*
X0362Y03393D03*
X03626Y03417D03*
X03779Y03588D03*
X03778Y03643D03*
X03752Y03683D03*
X0364Y03679D03*
X03722Y03683D03*
X03711Y03507D03*
X0369Y03494D03*
X03669Y03478D03*
X03651Y03458D03*
X03637Y03438D03*
X0362Y03343D03*
X03619Y03368D03*
X0338Y03101D03*
Y03166D03*
X03412Y03183D03*
X03312Y03228D03*
X03347Y03041D03*
Y0308D03*
Y03117D03*
X03345Y03152D03*
X0338Y03061D03*
X03381Y03023D03*
X03413Y03082D03*
X03412Y03116D03*
X03413Y03042D03*
X03444Y03026D03*
X03443Y03063D03*
X0364Y03219D03*
X0362Y03239D03*
X0374Y03202D03*
X03768Y03182D03*
X037Y03203D03*
X0366Y03204D03*
X0372Y03183D03*
X0401Y0321D03*
X0368Y03184D03*
X03809Y03138D03*
X0381Y03098D03*
X03811Y03058D03*
X03812Y03023D03*
X03621Y03203D03*
X03788Y0304D03*
X03413Y03214D03*
X03472Y03183D03*
X03412Y03152D03*
X03601Y0322D03*
X0364Y03185D03*
X03601Y03186D03*
X03789Y03162D03*
X03787Y0312D03*
Y03079D03*
X0386Y03082D03*
X03768Y03024D03*
X03501Y03166D03*
Y03227D03*
X0358Y03239D03*
Y03204D03*
X03768Y03059D03*
Y03099D03*
Y03139D03*
X0374Y03165D03*
X037D03*
X0366D03*
X0362D03*
X0358D03*
X04283Y03408D03*
X03115Y03261D03*
X03099Y03304D03*
X03168Y03279D03*
X03049Y03264D03*
X03518Y03621D03*
X03519Y03482D03*
X03977Y03081D03*
X022551Y035995D03*
X022944D03*
X022748Y036191D03*
Y035798D03*
X03385Y03679D03*
X032469Y03623D03*
X03375Y036535D03*
X02984Y03204D03*
X02848Y03633D03*
X0268Y03497D03*
X02138Y0358D03*
X03134Y0356D03*
X02155Y03599D03*
X032154Y032574D03*
X0294Y03261D03*
X03276Y03268D03*
X03378Y03316D03*
X02299Y03284D03*
X02878Y03626D03*
X03411Y036205D03*
X03358Y035365D03*
X03614Y035205D03*
X03364Y03559D03*
X03308Y0359D03*
X03401Y03321D03*
Y03344D03*
X04Y0314D03*
X04156Y03475D03*
X041116Y036086D03*
X041897Y03542D03*
X04232Y0358D03*
X04205Y03652D03*
X041867Y032803D03*
X04019Y03115D03*
X04142Y03367D03*
X03927Y031475D03*
X04049Y03549D03*
X03294Y03045D03*
X03272D03*
X03117Y03219D03*
X04Y03556D03*
X04049Y03297D03*
X04083Y03307D03*
X04218Y03465D03*
X042051Y031111D03*
X03395Y03368D03*
X04011Y03067D03*
X02937Y0342D03*
X03036Y03429D03*
X029925Y035371D03*
X03042Y03407D03*
X03033Y03364D03*
X03022Y03345D03*
X03043Y03385D03*
X04268Y03138D03*
X04273Y03686D03*
X04188Y03356D03*
X04231Y03403D03*
X04305Y03186D03*
X025764Y03592D03*
X03382Y034024D03*
X02191Y03442D03*
X02866Y03219D03*
X02296Y03463D03*
X0246Y0346D03*
X02142Y03464D03*
X03073Y03162D03*
X02993Y03039D03*
X0311Y03048D03*
X03197Y03047D03*
X032427Y031494D03*
X02238Y03475D03*
X02275Y03477D03*
G54D59*
X02Y03D02*
X045512D01*
Y037283*
X02D02*
X045512D01*
X02Y03D02*
Y037283D01*
G54D60*
X02736Y031D03*
X043241Y0363D03*
X043793Y03218D03*
Y03363D03*
Y03508D03*
X03818Y036639D03*
X03918D03*
Y035639D03*
X03818D03*
X04468Y032433D03*
Y033221D03*
Y034796D03*
Y034008D03*
X03983Y03364D03*
Y03475D03*
Y032562D03*
G54D61*
X020967Y032337D03*
Y034935D03*
G54D62*
X02395Y03435D03*
X023426Y034124D03*
X023244Y033636D03*
X023426Y033159D03*
X02395Y032923D03*
X02447Y033159D03*
X02466Y033636D03*
X024458Y034124D03*
X038231D03*
X038434Y033635D03*
X038243Y033159D03*
X037724Y032923D03*
X0372Y033159D03*
X037018Y033635D03*
X0372Y034124D03*
X037724Y03435D03*
G54D63*
X023952Y033636D03*
X037726D03*
G54D64*
X021742Y031537D03*
X023317D03*
G54D67*
X02468Y03191D02*
X03166D01*
X02468D02*
Y03249D01*
X02469Y0325*
X03356*
X03367Y03189D02*
X03467Y03289D01*
X0328Y03189D02*
X03367D01*
X03262Y03171D02*
X0328Y03189D01*
X03166Y03191D02*
X03183Y03174D01*
X03262Y030647D02*
Y03171D01*
X032497Y03051D02*
X03262Y030647D01*
X031965Y03051D02*
X032497D01*
X03183Y030608D02*
X031965Y03051D01*
X03183Y030608D02*
Y03174D01*
X04509Y03028D02*
X04522Y03041D01*
X04425Y03028D02*
X04509D01*
X04411Y03042D02*
X04425Y03028D01*
X04411Y03042D02*
Y0311D01*
X04377Y03144D02*
X04411Y0311D01*
X04304Y03144D02*
X04377D01*
X04167Y03281D02*
X04304Y03144D01*
X04522Y03041D02*
Y03118D01*
X0446Y0318D02*
X04522Y03118D01*
X04343Y0318D02*
X0446D01*
X04225Y03298D02*
X04343Y0318D01*
X04167Y03281D02*
Y03369D01*
X04225Y03298D02*
Y03388D01*
X04008Y03528D02*
X04167Y03369D01*
X03997Y03616D02*
X04225Y03388D01*
X03715Y03528D02*
X04008D01*
X03679Y03492D02*
X03715Y03528D01*
X03731Y03616D02*
X03997D01*
X03658Y03543D02*
X03731Y03616D01*
X03544Y03543D02*
X03658D01*
X03422Y03421D02*
X03544Y03543D01*
X03573Y03492D02*
X03679D01*
X03467Y03386D02*
X03573Y03492D01*
X03467Y03289D02*
Y03386D01*
X03422Y03316D02*
Y03421D01*
X03356Y0325D02*
X03422Y03316D01*
G54D68*
X033099Y033552D03*
X032627D03*
X032154D03*
X031682D03*
X033099Y034025D03*
X032627D03*
X032154D03*
X031682D03*
X033099Y034497D03*
X032627D03*
X032154D03*
X031682D03*
X033099Y034969D03*
X032627D03*
X032154D03*
X031682D03*
M02*