%FSTAX23Y23*%
%MOIN*%
%SFA1B1*%

%IPPOS*%
%ADD20R,0.031500X0.063000*%
%ADD86R,0.009800X0.027600*%
%ADD87R,0.009800X0.027600*%
%ADD88R,0.009800X0.027600*%
%ADD89R,0.009800X0.027600*%
%ADD90R,0.027600X0.009800*%
%ADD91R,0.027600X0.009800*%
%ADD92R,0.027600X0.009800*%
%ADD93R,0.061000X0.061000*%
%ADD94R,0.025700X0.019800*%
%ADD95R,0.031600X0.029600*%
%ADD96R,0.019800X0.023700*%
%ADD97R,0.021700X0.023700*%
%ADD98R,0.029600X0.031600*%
%ADD99R,0.070900X0.039400*%
%ADD100R,0.023700X0.019800*%
%ADD101R,0.033500X0.037500*%
%ADD102R,0.039400X0.017800*%
%ADD103R,0.013900X0.013900*%
%ADD104R,0.019800X0.025700*%
%ADD105R,0.039400X0.031600*%
%ADD106R,0.031600X0.086700*%
%ADD107R,0.023700X0.021700*%
%ADD108R,0.078800X0.043400*%
%ADD109R,0.031600X0.031600*%
%ADD110R,0.035500X0.027600*%
%ADD111R,0.031600X0.013900*%
%ADD112R,0.102400X0.023700*%
%ADD113R,0.185100X0.185100*%
%ADD114O,0.008000X0.025700*%
%ADD115O,0.025700X0.008000*%
%ADD116R,0.040100X0.030100*%
%ADD117R,0.055200X0.108300*%
%ADD118R,0.030100X0.040100*%
%ADD119R,0.011900X0.027600*%
%ADD120R,0.007300X0.007300*%
%ADD121R,0.000000X0.000000*%
%LNvapeix_mini_pcb-1*%
%LPD*%
G54D20*
X03537Y03076D03*
X0367D03*
G54D86*
X02215Y03499D03*
X02274D03*
X02294D03*
X02314Y03699D03*
X02294D03*
X02215D03*
G54D87*
X02235Y03499D03*
X02314D03*
X02235Y03699D03*
G54D88*
X02255Y03499D03*
X02333D03*
X02255Y03699D03*
G54D89*
X02333Y03699D03*
X02274D03*
G54D90*
X02174Y03658D03*
Y03638D03*
X02375Y03619D03*
G54D91*
X02174Y03619D03*
Y03579D03*
Y0354D03*
X02375Y03658D03*
Y03599D03*
Y03579D03*
Y0356D03*
Y0354D03*
G54D92*
X02174Y03599D03*
Y0356D03*
X02375Y03638D03*
G54D93*
X02238Y03635D03*
Y03563D03*
X02311D03*
Y03635D03*
G54D94*
X03138Y03661D03*
X03101D03*
G54D95*
X03199Y03658D03*
Y03605D03*
X02963Y03141D03*
Y03088D03*
G54D96*
X02971Y03556D03*
Y03517D03*
X0354Y0356D03*
Y0352D03*
X03387Y03588D03*
Y03549D03*
X03438Y03384D03*
Y03344D03*
X03595Y03307D03*
Y03268D03*
X02217Y03447D03*
Y03408D03*
Y03367D03*
Y03328D03*
G54D97*
X03332Y03653D03*
Y03614D03*
X03294Y03653D03*
Y03614D03*
X02257Y03447D03*
Y03408D03*
Y03329D03*
Y03368D03*
X0291Y03668D03*
Y03628D03*
G54D98*
X03081Y0361D03*
X03134D03*
X03074Y03557D03*
X03021D03*
X03194Y03198D03*
X03247D03*
G54D99*
X02921Y03468D03*
Y0337D03*
G54D100*
X03487Y0363D03*
X03448D03*
X02926Y03319D03*
X02965D03*
X03017Y0351D03*
X03057D03*
X0348Y03465D03*
X0344D03*
X03479Y03428D03*
X0344D03*
X03498Y03269D03*
X03537D03*
X03021Y03319D03*
X0306D03*
X03242Y03149D03*
X03203D03*
X0244Y03564D03*
X0248D03*
X0244Y03521D03*
X0248D03*
G54D101*
X03447Y03574D03*
X03492D03*
Y03517D03*
X03447D03*
G54D102*
X0353Y03389D03*
X03531Y0332D03*
G54D103*
X03543Y03355D03*
X03518D03*
G54D104*
X03477Y03383D03*
Y03345D03*
G54D105*
X0368Y03676D03*
Y03552D03*
G54D106*
X03624Y03615D03*
X03735D03*
G54D107*
X03839Y03105D03*
X03878D03*
X0248Y03654D03*
X0244D03*
Y03609D03*
X0248D03*
X02661Y03064D03*
X02622D03*
X02624Y03124D03*
X02663D03*
G54D108*
X02614Y0364D03*
G54D109*
X02689Y0364D03*
G54D110*
X04236Y0311D03*
Y03071D03*
X04177Y0311D03*
Y03071D03*
X04236Y03652D03*
Y03612D03*
X04177Y03652D03*
Y03612D03*
G54D111*
X0215Y03324D03*
Y03403D03*
Y03383D03*
Y03363D03*
Y03343D03*
G54D112*
X0206Y03438D03*
Y03288D03*
G54D113*
X03239Y03426D03*
G54D114*
X03152Y03545D03*
X03168D03*
X03183D03*
X03199D03*
X03215D03*
X03231D03*
X03246D03*
X03262D03*
X03278D03*
X03294D03*
X03309D03*
X03325D03*
Y03307D03*
X03309D03*
X03294D03*
X03278D03*
X03262D03*
X03246D03*
X03231D03*
X03215D03*
X03199D03*
X03183D03*
X03168D03*
X03152D03*
G54D115*
X03358Y03512D03*
Y03496D03*
Y03481D03*
Y03465D03*
Y03449D03*
Y03434D03*
Y03418D03*
Y03402D03*
Y03386D03*
Y03371D03*
Y03355D03*
Y03339D03*
X03119D03*
Y03355D03*
Y03371D03*
Y03386D03*
Y03402D03*
Y03418D03*
Y03434D03*
Y03449D03*
Y03465D03*
Y03481D03*
Y03496D03*
Y03512D03*
G54D116*
X02749Y03636D03*
X02832Y03674D03*
Y03599D03*
G54D117*
X04262Y03232D03*
X04105D03*
X04262Y03497D03*
X04105D03*
X02759Y03232D03*
X02602D03*
X02759Y03497D03*
X02602D03*
G54D118*
X03073Y03164D03*
X0311Y03081D03*
X03035D03*
G54D119*
X03247Y03046D03*
X03222D03*
X03196D03*
X03222Y03109D03*
X03247D03*
X03196D03*
G54D120*
X02188Y03513D03*
G54D121*
X02274Y03599D03*
M02*