%FSTAX24Y24*%
%MOIN*%
%SFA1B1*%

%IPPOS*%
%ADD10C,0.006000*%
%ADD43C,0.005900*%
%ADD44C,0.011800*%
%ADD47C,0.007900*%
%ADD67C,0.010000*%
%ADD83C,0.009800*%
%ADD84C,0.003900*%
%ADD85C,0.001000*%
%LNvapeix_mini_pcb-1*%
%LPD*%
G36*
X038795Y035704D02*
X038796D01*
X038798Y035703*
X038799*
X038801Y035702*
X038803Y035701*
X038806*
X038811Y035698*
X038816Y035696*
X03882Y035693*
X038822Y035691*
X038824Y035689*
X038825*
Y035688*
X038826Y035687*
X038827Y035686*
Y035685*
X038828Y035683*
X038829Y035681*
X03883Y03568*
X038831Y035678*
X038832Y035673*
X038834Y035668*
Y035665*
Y035662*
Y035661*
Y035659*
X038833Y035657*
Y035655*
Y035653*
X038832Y035651*
X038831Y035648*
X03883Y035646*
X038829Y035643*
X038828Y035641*
X038826Y035638*
X038824Y035635*
X038822Y035633*
X038819Y03563*
X038818*
X038817Y035629*
X038816Y035628*
X038814Y035627*
X038812Y035626*
X038809Y035625*
X038806Y035623*
X038803Y035622*
X0388Y035621*
X038796Y03562*
X038792Y035619*
X038787Y035618*
X038782Y035617*
X038777*
X038772Y035616*
X03877*
X038768Y035617*
X038766*
X038764*
X038761*
X038757Y035618*
X038754*
X03875Y035619*
X038746Y03562*
X038742Y035621*
X038737Y035622*
X038733Y035624*
X03873Y035626*
X038726Y035628*
X038722Y035631*
X038721Y035632*
X03872Y035633*
X038719Y035634*
X038717Y035635*
X038716Y035637*
X038715Y035639*
X038713Y035641*
X038712Y035644*
X038711Y035647*
X038709Y03565*
X038708Y035653*
Y035656*
X038707Y03566*
Y035664*
Y035665*
Y035667*
Y035668*
Y03567*
X038708Y035671*
Y035673*
X03871Y035678*
X038711Y03568*
X038712Y035683*
X038713Y035685*
X038715Y035687*
X038717Y03569*
X038719Y035692*
X03872Y035693*
X038721Y035694*
X038722Y035695*
X038723Y035696*
X038725Y035697*
X038727Y035698*
X038728Y035699*
X03873Y0357*
X038732Y035701*
X038735*
X038737Y035702*
X03874Y035703*
X038743Y035704*
X038749Y035684*
X038748*
X038747Y035683*
X038745*
X038743Y035682*
X038741Y035681*
X038738Y03568*
X038736Y035678*
X038734Y035676*
X038733*
Y035675*
X038732Y035674*
X038731Y035672*
X03873Y03567*
X038729Y035668*
X038728Y035665*
Y035663*
Y035662*
Y035661*
X038729Y035659*
Y035656*
X038731Y035653*
X038732Y03565*
X038733Y035649*
X038735Y035647*
X038736Y035646*
X038738Y035644*
X038739*
X03874Y035643*
X038741*
X038742Y035642*
X038744*
X038746Y035641*
X038748Y03564*
X03875*
X038753Y035639*
X038756*
X038759Y035638*
X038762*
X038766Y035637*
X038772*
X038774Y035638*
X038776*
X038778*
X03878*
X038783*
X038788Y035639*
X038794Y03564*
X038796Y035641*
X038799Y035642*
X038801Y035643*
X038803Y035644*
Y035645*
X038804*
X038806Y035647*
X038808Y035649*
X03881Y035652*
X038811Y035655*
X038812Y035658*
Y03566*
X038813Y035662*
X038812Y035663*
Y035665*
Y035667*
X038811Y035669*
X03881Y035671*
X038808Y035674*
X038806Y035676*
X038805Y035677*
X038804Y035678*
X038802Y035679*
X038799Y035681*
X038795Y035682*
X038791Y035683*
X038786Y035684*
X038794Y035704*
X038795*
G37*
G36*
X038832Y035722D02*
X03871D01*
Y035742*
X038811*
Y035793*
X038832*
Y035722*
G37*
G36*
X038799Y035469D02*
X0388D01*
X038802*
X038804*
X038806Y035468*
X03881Y035467*
X038814Y035465*
X038817Y035464*
X038819Y035463*
X038821Y035461*
X038823Y03546*
Y035459*
X038824*
X038825Y035458*
X038826Y035457*
X038827Y035455*
X038828Y035454*
Y035452*
X03883Y03545*
Y035448*
X038831Y035445*
X038832Y035443*
X038833Y035439*
Y035436*
X038834Y035433*
Y035429*
Y035428*
Y035427*
Y035425*
X038833Y035423*
Y03542*
X038832Y035417*
X03883Y035413*
X038829Y03541*
X038826Y035406*
X038824Y035402*
X03882Y035399*
X038818Y035397*
X038816Y035396*
X038814Y035394*
X038811Y035393*
X038809Y035392*
X038806Y03539*
X038802*
X038799Y035389*
X038796Y035388*
X038792*
X038789Y035407*
X03879*
Y035408*
X038792*
X038793*
X038795Y035409*
X038797*
X038799Y03541*
X038801Y035411*
X038803Y035413*
X038806Y035414*
X038808Y035416*
X038809Y035418*
X038811Y03542*
X038812Y035423*
X038813Y035426*
Y035429*
Y03543*
Y035431*
Y035433*
X038812Y035435*
Y035437*
X038811Y035439*
X03881Y035442*
X038808Y035444*
X038807Y035445*
X038806Y035446*
X038805Y035447*
X038803Y035448*
X038801*
X038799Y035449*
X038796*
X038795*
X038794*
X038792Y035448*
X03879*
X038789Y035447*
X038788Y035446*
X038787Y035445*
X038786Y035444*
X038785Y035443*
X038784Y035442*
Y035441*
Y03544*
X038783Y035438*
X038782Y035437*
Y035436*
Y035434*
X038781Y035432*
X03878Y035431*
Y035428*
X038779Y035426*
X038778Y035423*
Y035422*
X038777Y035421*
Y03542*
Y035419*
X038776Y035416*
X038774Y035413*
X038773Y03541*
X038771Y035407*
X03877Y035404*
X038769*
Y035403*
X038768Y035402*
X038766Y035401*
X038765Y035399*
X038763Y035398*
X03876Y035396*
X038757Y035395*
Y035394*
X038756*
X038755*
X038753Y035393*
X03875Y035392*
X038747*
X038744Y035391*
X038741*
X03874*
X038738*
X038735Y035392*
X038733*
X038729Y035393*
X038726Y035394*
X038723Y035396*
X038722Y035397*
X038721Y035398*
X038719Y035399*
X038717Y035401*
X038715Y035403*
X038713Y035405*
X038711Y035408*
Y035409*
X03871Y03541*
Y035412*
X038709Y035414*
X038708Y035417*
Y03542*
X038707Y035424*
Y035428*
Y035429*
Y03543*
Y035431*
Y035433*
Y035435*
X038708Y035436*
Y035439*
X038709Y035443*
X038711Y035448*
X038712Y03545*
X038713Y035452*
X038715Y035454*
X038717Y035456*
Y035457*
X038718*
X038719Y035458*
Y035459*
X038721*
X038722Y03546*
X038724Y035461*
X038726Y035462*
X038728Y035463*
X03873Y035464*
X038732Y035465*
X038735Y035466*
X038738*
X038741Y035467*
X038744*
X038745Y035447*
X038744Y035446*
X038742*
X03874Y035445*
X038738Y035444*
X038735Y035443*
X038733Y035442*
X038731Y035441*
Y03544*
X03873Y035439*
X038729Y035437*
Y035435*
X038728Y035433*
Y035431*
X038727Y035428*
Y035427*
Y035426*
X038728Y035425*
Y035423*
Y035421*
X038729Y035419*
X03873Y035417*
X038731Y035415*
Y035414*
X038732*
X038733Y035413*
X038735Y035412*
X038736Y035411*
X038738*
X038739*
X03874*
X038741*
X038742*
X038744Y035412*
X038745*
X038746Y035413*
X038748Y035415*
Y035416*
X038749Y035417*
X03875Y035418*
Y03542*
X038751Y035421*
X038752Y035422*
Y035424*
X038753Y035426*
X038754Y035428*
X038755Y035431*
Y035433*
Y035434*
X038756Y035435*
Y035436*
X038757Y035437*
Y035439*
X038758Y035442*
X03876Y035445*
X038761Y035449*
X038763Y035453*
X038764Y035454*
X038765Y035455*
Y035456*
X038766Y035457*
X038767Y035458*
X038768Y035459*
X03877Y035461*
X038772Y035463*
X038775Y035465*
X038777Y035466*
X038778*
X038779Y035467*
X03878*
X038783Y035468*
X038785Y035469*
X038789*
X038792*
X038796Y03547*
X038798*
X038799Y035469*
G37*
G36*
X038832Y035585D02*
Y035563D01*
X03874Y035543*
X038832Y035523*
Y035501*
X038709Y035477*
Y035498*
X038794Y035513*
X038709Y035531*
Y035555*
X038795Y035573*
X038709Y035589*
Y035609*
X038832Y035585*
G37*
G36*
Y036607D02*
Y036585D01*
X03874Y036565*
X038832Y036545*
Y036523*
X038709Y036499*
Y03652*
X038794Y036535*
X038709Y036553*
Y036578*
X038795Y036595*
X038709Y036611*
Y036632*
X038832Y036607*
G37*
G36*
X038776Y036727D02*
X038777D01*
X038779Y036726*
X038781*
X038786*
X03879Y036725*
X038795Y036724*
X0388Y036723*
X038801*
X038802Y036722*
X038804*
X038806Y036721*
X038809Y036719*
X038812Y036718*
X038816Y036716*
X038818Y036714*
X038819*
Y036713*
X038821Y036712*
X038822Y03671*
X038824Y036708*
X038825Y036706*
X038827Y036703*
X038828Y0367*
X038829*
Y036699*
X03883Y036697*
Y036695*
X038831Y036692*
Y036689*
X038832Y036685*
Y03668*
Y036642*
X038709*
Y036679*
Y03668*
Y036682*
Y036683*
Y036684*
Y036687*
X03871Y03669*
Y036694*
X038711Y036697*
X038712Y0367*
Y036701*
X038713Y036702*
X038714Y036703*
X038715Y036705*
X038716Y036707*
X038718Y036709*
X03872Y036711*
X038723Y036714*
X038724Y036715*
X038726Y036716*
X038728Y036717*
X038731Y036719*
X038734Y03672*
X038738Y036722*
X038742Y036723*
X038743*
Y036724*
X038744*
X038745*
X038747*
X038749Y036725*
X03875*
X038752*
X038755Y036726*
X038757*
X03876*
X038765Y036727*
X038772*
X038774*
X038776*
G37*
G36*
X038832Y035873D02*
X038774Y035845D01*
X038795Y035829*
X038832*
Y035808*
X038709*
Y035829*
X038764*
X038709Y03587*
Y035897*
X038757Y035859*
X038832Y035899*
Y035873*
G37*
G36*
X038799Y036492D02*
X0388D01*
X038802Y036491*
X038804*
X038806*
X03881Y03649*
X038814Y036488*
X038817Y036487*
X038819Y036485*
X038821Y036484*
X038823Y036482*
X038824Y036481*
X038825Y03648*
X038826Y036479*
X038827Y036478*
X038828Y036476*
Y036474*
X03883Y036472*
Y03647*
X038831Y036468*
X038832Y036465*
X038833Y036462*
Y036458*
X038834Y036455*
Y036451*
Y03645*
Y036448*
X038833Y036445*
Y036442*
X038832Y036439*
X03883Y036436*
X038829Y036432*
X038826Y036428*
X038824Y036425*
X03882Y036421*
X038818Y03642*
X038816Y036418*
X038814Y036417*
X038811Y036415*
X038809Y036414*
X038806Y036413*
X038802Y036412*
X038799Y036411*
X038796Y03641*
X038792*
X038789Y03643*
X03879*
X038792*
X038793*
X038795Y036431*
X038797Y036432*
X038799Y036433*
X038801Y036434*
X038803Y036435*
X038806Y036436*
X038808Y036438*
X038809Y03644*
X038811Y036443*
X038812Y036445*
X038813Y036448*
Y036452*
Y036453*
Y036455*
X038812Y036457*
Y036459*
X038811Y036462*
X03881Y036464*
X038808Y036466*
X038807Y036467*
X038806Y036468*
X038805Y036469*
X038803Y03647*
X038801Y036471*
X038799*
X038796Y036472*
X038795Y036471*
X038794*
X038792*
X03879Y03647*
X038789*
Y036469*
X038788Y036468*
X038787Y036467*
X038786Y036466*
X038785Y036465*
X038784Y036464*
Y036463*
Y036462*
X038783Y03646*
X038782Y036459*
Y036458*
Y036456*
X038781Y036455*
X03878Y036453*
Y036451*
X038779Y036448*
X038778Y036446*
Y036445*
Y036444*
X038777*
Y036442*
Y036441*
X038776Y036438*
X038774Y036435*
X038773Y036432*
X038771Y036429*
X03877Y036427*
X038769Y036426*
X038768Y036425*
X038766Y036423*
X038765Y036422*
X038763Y03642*
X03876Y036418*
X038757Y036417*
X038756Y036416*
X038755*
X038753Y036415*
X03875*
X038747Y036414*
X038744*
X038741Y036413*
X03874*
X038738Y036414*
X038735*
X038733Y036415*
X038729*
X038726Y036417*
X038723Y036418*
X038722Y036419*
X038721Y03642*
X038719Y036421*
X038717Y036423*
X038715Y036425*
X038713Y036428*
X038711Y036431*
X03871Y036432*
Y036434*
X038709Y036436*
X038708Y036439*
Y036442*
X038707Y036446*
Y036451*
Y036452*
Y036454*
Y036455*
Y036457*
X038708Y036459*
Y036461*
X038709Y036465*
X038711Y03647*
X038712Y036472*
X038713Y036474*
X038715Y036476*
X038717Y036478*
Y036479*
X038718*
X038719Y03648*
Y036481*
X038721Y036482*
X038722Y036483*
X038724Y036484*
X038726*
X038728Y036486*
X03873*
X038732Y036487*
X038735Y036488*
X038738*
X038741Y036489*
X038744*
X038745Y036469*
X038744*
Y036468*
X038742*
X03874*
X038738Y036467*
X038735Y036466*
X038733Y036464*
X038731Y036463*
Y036462*
X03873Y036461*
X038729Y03646*
Y036458*
X038728Y036456*
Y036453*
X038727Y03645*
Y036449*
X038728Y036447*
Y036445*
Y036443*
X038729Y036441*
X03873Y036439*
X038731Y036437*
X038732Y036436*
X038733Y036435*
X038735Y036434*
X038736*
X038738Y036433*
X038739*
X03874*
X038741*
X038742Y036434*
X038744*
X038745Y036435*
X038746Y036436*
X038748Y036437*
Y036438*
X038749Y036439*
X03875Y036441*
Y036442*
X038751Y036443*
X038752Y036445*
Y036447*
X038753Y036448*
X038754Y036451*
X038755Y036453*
Y036456*
X038756Y036457*
Y036458*
X038757Y036459*
Y036461*
X038758Y036464*
X03876Y036468*
X038761Y036471*
X038763Y036475*
X038764Y036476*
X038765Y036478*
X038766Y036479*
X038767Y03648*
X038768Y036482*
X03877Y036483*
X038772Y036485*
X038775Y036487*
X038777Y036488*
X038778*
X038779Y036489*
X03878*
X038783Y03649*
X038785Y036491*
X038789*
X038792Y036492*
X038796*
X038798*
X038799*
G37*
G36*
X037845Y035588D02*
X037846Y035587D01*
X037848Y035585*
X03785Y035583*
X037852Y03558*
X037854Y035577*
X037856Y035573*
X037858Y035569*
X037859*
Y035568*
Y035567*
X03786Y035566*
Y035565*
X037861Y035561*
X037862Y035558*
X037863Y035554*
X037864Y035549*
Y035545*
Y035544*
Y035543*
Y035542*
Y035541*
Y035539*
X037863Y035538*
Y035536*
X037862Y035532*
X037861Y035527*
X037859Y035523*
X037857Y035518*
X037856*
Y035517*
X037855*
X037854Y035514*
X037851Y035512*
X037848Y035509*
X037844Y035506*
X03784Y035503*
X037835Y0355*
X037834*
X037833*
X037832Y035499*
X037831*
X037829Y035498*
X037827Y035497*
X037825*
X037823Y035496*
X03782*
X037817Y035495*
X037814*
X037808Y035494*
X0378*
X037798*
X037797*
X037795*
X037793*
X037791*
X037788*
X037783Y035495*
X037777Y035496*
X037771Y035498*
X037766Y0355*
X037765*
Y035501*
X037764*
X037763Y035502*
X037762*
X037761Y035503*
X037758Y035505*
X037754Y035508*
X037751Y03551*
X037747Y035514*
X037744Y035518*
X037743Y035519*
Y03552*
Y035521*
X037742Y035522*
X037741Y035523*
Y035525*
X037739Y035529*
X037738Y035533*
X037737Y035538*
Y035544*
Y035545*
Y035547*
Y035548*
Y03555*
X037738Y035552*
Y035554*
X037739Y035559*
X037741Y035563*
X037742Y035566*
X037743Y035568*
X037745Y035571*
X037746Y035573*
X037747*
Y035574*
X037748*
X037749Y035575*
X03775Y035576*
X037751Y035577*
X037753Y035578*
X037755Y03558*
X037757Y035581*
X037759Y035582*
X037761Y035583*
X037764Y035584*
X037767Y035585*
X03777Y035586*
X037773Y035587*
X037778Y035567*
X037777Y035566*
X037776*
X037775Y035565*
X037772*
X03777Y035563*
X037768Y035562*
X037765Y03556*
X037763Y035558*
Y035557*
X037762Y035556*
X037761Y035554*
X03776Y035552*
X037759Y03555*
X037758Y035547*
Y035544*
Y035543*
Y035542*
X037759Y035541*
Y035539*
Y035536*
X037761Y035533*
X037763Y035529*
X037764Y035528*
X037765Y035526*
X037767Y035524*
X037768Y035523*
X037769*
Y035522*
X03777Y035521*
X037771*
X037773Y03552*
X037774Y035519*
X037776*
X037778Y035518*
X03778Y035517*
X037783*
X037785Y035516*
X037789Y035515*
X037792*
X037795*
X037799*
X037801*
X037803*
X037805*
X037807*
X037809*
X037812Y035516*
X037817Y035517*
X037823Y035518*
X037828Y035521*
X03783Y035522*
X037833Y035523*
Y035524*
X037834Y035525*
X037836Y035526*
X037838Y035529*
X03784Y035531*
X037841Y035535*
X037842Y035539*
Y035541*
X037843Y035544*
Y035545*
X037842Y035546*
Y035547*
Y035549*
Y035551*
X037841Y035553*
X03784Y035556*
X037839Y035557*
Y035558*
X037838Y03556*
X037837Y035561*
X037836Y035563*
X037834Y035565*
X037832Y035567*
X037817*
Y035544*
X037796*
Y035588*
X037845*
G37*
G36*
X037862Y035667D02*
X037782Y035626D01*
X037862*
Y035607*
X037739*
Y035627*
X037821Y035668*
X037739*
Y035687*
X037862*
Y035667*
G37*
G36*
X038548Y030571D02*
X038551D01*
X038555*
X038559Y03057*
X038563Y030569*
X038572Y030567*
X038581Y030563*
X038586Y030561*
X03859Y030559*
X038594Y030556*
X038598Y030552*
X038599*
Y030551*
X0386Y03055*
X038602Y030548*
X038603Y030547*
X038605Y030544*
X038607Y030541*
X038608Y030538*
X03861Y030534*
X038612Y03053*
X038614Y030525*
X038616Y030521*
X038617Y030515*
X038618Y03051*
X038619Y030504*
X03862Y030497*
X038579Y030495*
Y030496*
Y030497*
X038578Y030498*
Y030501*
X038576Y030506*
X038575Y03051*
X038573Y030515*
X03857Y030519*
X038567Y030523*
X038566Y030524*
X038563Y030525*
X03856Y030527*
X038557Y030528*
X038552Y030529*
X038547Y03053*
X038542Y030531*
X038539*
X038536Y03053*
X038532*
X038528Y030529*
X038524Y030528*
X03852Y030526*
X038516Y030524*
Y030523*
X038515*
X038513Y030521*
X038512Y030519*
X03851Y030516*
X038509Y030513*
X038508Y03051*
X038507Y030507*
Y030506*
Y030505*
X038508Y030503*
Y030501*
X038509Y030498*
X038511Y030496*
X038513Y030493*
X038515Y03049*
X038516*
X038517Y030489*
X038519Y030488*
X038523Y030486*
X038525Y030485*
X038528Y030483*
X038531Y030482*
X038535Y030481*
X038538Y030479*
X038543Y030478*
X038547Y030476*
X038552Y030475*
X038553*
X038554*
X038555Y030474*
X038558Y030473*
X03856Y030472*
X038563*
X03857Y030469*
X038577Y030466*
X038584Y030463*
X038591Y03046*
X038594Y030458*
X038597Y030456*
X038598*
X038599Y030454*
X038602Y030452*
X038605Y030449*
X038608Y030446*
X038612Y030441*
X038615Y030436*
X038618Y030431*
Y03043*
X038619Y030428*
X03862Y030425*
X038622Y03042*
X038623Y030415*
X038624Y030408*
X038625Y030401*
Y030393*
Y030392*
Y03039*
Y030388*
X038624Y030385*
Y030382*
X038623Y030378*
Y030374*
X038621Y030366*
X038617Y030357*
X038615Y030352*
X038612Y030348*
X038609Y030343*
X038605Y030339*
X038604Y030338*
X038603Y030337*
X038602Y030336*
X038599Y030334*
X038597Y030332*
X038594Y03033*
X03859Y030329*
X038586Y030326*
X038582Y030325*
X038576Y030323*
X038571Y030321*
X038565Y030319*
X038558*
X038551Y030318*
X038544*
X03854*
X038537*
X038532Y030319*
X038526Y03032*
X03852Y030322*
X038513Y030325*
X038505Y030328*
X038498Y030333*
X038491Y030338*
X038484Y030345*
X038481Y030349*
X038477Y030353*
X038475Y030358*
X038472Y030363*
X038469Y030368*
X038467Y030374*
X038465Y030381*
X038463Y030387*
X038462Y030394*
X038461Y030402*
X038501Y030407*
Y030406*
Y030405*
Y030402*
X038502Y0304*
X038503Y030396*
X038505Y030392*
X038507Y030388*
X038509Y030383*
X038511Y030379*
X038514Y030374*
X038518Y03037*
X038522Y030367*
X038527Y030364*
X038532Y030362*
X038538Y03036*
X038545Y030359*
X038548*
X038551Y03036*
X038555Y030361*
X03856Y030362*
X038564Y030364*
X038569Y030366*
X038574Y030369*
X038575Y030371*
X038577Y030373*
X038579Y030376*
X038581Y030379*
X038583Y030383*
X038584Y030388*
Y030393*
Y030394*
Y030396*
Y030398*
X038583Y030402*
X038582Y030405*
X03858Y030407*
Y030408*
X038578Y03041*
X038576Y030412*
X038574Y030414*
X038572Y030415*
X038569Y030417*
X038568*
X038565Y030418*
X038562Y03042*
X03856Y030421*
X038557*
X038554Y030422*
X038551Y030424*
X038547Y030425*
X038543Y030426*
X038538Y030428*
X038533Y030429*
X038532*
Y03043*
X03853*
X038528Y030431*
X038526Y030432*
X038524*
X038518Y030434*
X038512Y030437*
X038505Y03044*
X0385Y030443*
X038495Y030446*
X038494Y030447*
X038493Y030448*
X038491Y03045*
X038488Y030453*
X038485Y030456*
X038481Y03046*
X038478Y030465*
X038475Y030471*
X038474Y030473*
X038473Y030476*
X038472Y03048*
X038471Y030485*
X038469Y030491*
Y030497*
X038468Y030503*
Y030504*
Y030505*
Y030506*
X038469Y03051*
Y030515*
X038471Y03052*
X038472Y030527*
X038475Y030533*
X038477Y030539*
X038478Y03054*
X038479Y030542*
X038481Y030544*
X038484Y030548*
X038488Y030552*
X038492Y030556*
X038497Y03056*
X038503Y030563*
Y030564*
X038505Y030565*
X038509Y030566*
X038514Y030568*
X03852Y030569*
X038526Y03057*
X038534Y030571*
X038543Y030572*
X038546*
X038548Y030571*
G37*
G36*
X039128D02*
X039131D01*
X039135*
X039138Y03057*
X039143Y030569*
X039152Y030567*
X039161Y030563*
X039165Y030561*
X03917Y030559*
X039174Y030556*
X039178Y030552*
X039179*
Y030551*
X03918Y03055*
X039181Y030548*
X039183Y030547*
X039185Y030544*
X039187Y030541*
X039188Y030538*
X03919Y030534*
X039192Y03053*
X039194Y030525*
X039196Y030521*
X039197Y030515*
X039198Y03051*
X039199Y030504*
X0392Y030497*
X039159Y030495*
Y030496*
X039158Y030497*
Y030498*
X039157Y030501*
X039156Y030506*
X039154Y03051*
X039153Y030515*
X03915Y030519*
X039147Y030523*
X039146*
X039145Y030524*
X039143Y030525*
X03914Y030527*
X039137Y030528*
X039132Y030529*
X039127Y03053*
X039121Y030531*
X039119*
X039116Y03053*
X039112*
X039108Y030529*
X039104Y030528*
X0391Y030526*
X039096Y030524*
Y030523*
X039094*
X039093Y030521*
X039092Y030519*
X03909Y030516*
X039089Y030513*
X039088Y03051*
X039087Y030507*
Y030506*
Y030505*
X039088Y030503*
Y030501*
X039089Y030498*
X03909Y030496*
X039093Y030493*
X039095Y03049*
X039096*
X039097Y030489*
X039099Y030488*
X039103Y030486*
X039105Y030485*
X039108Y030483*
X039111Y030482*
X039114Y030481*
X039118Y030479*
X039122Y030478*
X039127Y030476*
X039132Y030475*
X039133*
X039134*
X039135Y030474*
X039137Y030473*
X03914Y030472*
X039143*
X039149Y030469*
X039157Y030466*
X039164Y030463*
X039171Y03046*
X039174Y030458*
X039177Y030456*
X039179Y030454*
X039181Y030452*
X039185Y030449*
X039188Y030446*
X039192Y030441*
X039195Y030436*
X039198Y030431*
Y03043*
X039199Y030428*
X0392Y030425*
X039201Y03042*
X039203Y030415*
X039204Y030408*
X039205Y030401*
Y030393*
Y030392*
Y03039*
Y030388*
X039204Y030385*
Y030382*
X039203Y030378*
Y030374*
X0392Y030366*
X039197Y030357*
X039195Y030352*
X039192Y030348*
X039189Y030343*
X039185Y030339*
X039184Y030338*
X039183Y030337*
X039181Y030336*
X039179Y030334*
X039177Y030332*
X039173Y03033*
X03917Y030329*
X039166Y030326*
X039161Y030325*
X039156Y030323*
X039151Y030321*
X039145Y030319*
X039138*
X039131Y030318*
X039124*
X03912*
X039117*
X039112Y030319*
X039106Y03032*
X0391Y030322*
X039093Y030325*
X039085Y030328*
X039078Y030333*
X039071Y030338*
X039064Y030345*
X039061Y030349*
X039057Y030353*
X039054Y030358*
X039052Y030363*
X039049Y030368*
X039047Y030374*
X039045Y030381*
X039043Y030387*
X039042Y030394*
X039041Y030402*
X039081Y030407*
Y030406*
Y030405*
Y030402*
X039082Y0304*
X039083Y030396*
X039085Y030392*
X039086Y030388*
X039089Y030383*
X039091Y030379*
X039094Y030374*
X039098Y03037*
X039102Y030367*
X039107Y030364*
X039112Y030362*
X039118Y03036*
X039125Y030359*
X039128*
X039131Y03036*
X039135Y030361*
X03914Y030362*
X039144Y030364*
X039149Y030366*
X039153Y030369*
X039154*
X039155Y030371*
X039157Y030373*
X039159Y030376*
X039161Y030379*
X039162Y030383*
X039164Y030388*
Y030393*
Y030394*
Y030396*
Y030398*
X039162Y030402*
Y030405*
X03916Y030407*
Y030408*
X039157Y03041*
X039156Y030412*
X039154Y030414*
X039152Y030415*
X039149Y030417*
X039148*
X039145Y030418*
X039142Y03042*
X03914Y030421*
X039137*
X039134Y030422*
X03913Y030424*
X039127Y030425*
X039122Y030426*
X039118Y030428*
X039113Y030429*
X039112*
Y03043*
X03911*
X039108Y030431*
X039106Y030432*
X039104*
X039098Y030434*
X039092Y030437*
X039085Y03044*
X039079Y030443*
X039074Y030446*
Y030447*
X039073Y030448*
X03907Y03045*
X039067Y030453*
X039065Y030456*
X039061Y03046*
X039058Y030465*
X039055Y030471*
X039054Y030473*
X039053Y030476*
X039052Y03048*
X03905Y030485*
X039049Y030491*
Y030497*
X039048Y030503*
Y030504*
Y030505*
Y030506*
X039049Y03051*
Y030515*
X03905Y03052*
X039052Y030527*
X039054Y030533*
X039057Y030539*
X039058Y03054*
X039059Y030542*
X039061Y030544*
X039064Y030548*
X039067Y030552*
X039072Y030556*
X039077Y03056*
X039082Y030563*
X039083*
Y030564*
X039085Y030565*
X039089Y030566*
X039094Y030568*
X0391Y030569*
X039106Y03057*
X039114Y030571*
X039122Y030572*
X039126*
X039128Y030571*
G37*
G36*
X037796Y036707D02*
X037797D01*
X037799*
X037801*
X037806Y036706*
X03781Y036705*
X037815*
X03782Y036703*
X037821*
X037822*
X037824Y036702*
X037826Y036701*
X037829Y036699*
X037832Y036698*
X037836Y036696*
X037838Y036694*
X037839*
Y036693*
X037841Y036692*
X037842Y03669*
X037844Y036688*
X037845Y036686*
X037847Y036684*
X037848Y036681*
X037849Y03668*
Y036679*
X03785Y036678*
Y036675*
X037851Y036672*
Y036669*
X037852Y036665*
Y036661*
Y036622*
X037729*
Y036659*
Y03666*
Y036661*
Y036662*
Y036663*
Y036664*
Y036667*
X03773Y036671*
Y036674*
X037731Y036678*
X037732Y036681*
X037733Y036682*
X037734Y036683*
X037735Y036685*
X037736Y036687*
X037738Y036689*
X03774Y036691*
X037743Y036694*
X037744Y036695*
X037746Y036696*
X037748Y036697*
X037751Y036699*
X037754Y036701*
X037758Y036702*
X037762Y036703*
X037763Y036704*
X037764*
X037765*
X037767Y036705*
X037769*
X03777*
X037772*
X037775Y036706*
X037777*
X03778*
X037785Y036707*
X037792*
X037794*
X037796*
G37*
G36*
Y036809D02*
X037797D01*
X037799Y036808*
X037801*
X037806*
X03781Y036807*
X037815Y036806*
X03782Y036805*
X037821*
X037822Y036804*
X037824*
X037826Y036802*
X037829Y036801*
X037832Y0368*
X037836Y036798*
X037838Y036796*
X037839*
Y036795*
X037841Y036794*
X037842Y036792*
X037844Y03679*
X037845Y036788*
X037847Y036785*
X037848Y036782*
X037849*
Y036781*
X03785Y036779*
Y036777*
X037851Y036774*
Y036771*
X037852Y036767*
Y036762*
Y036724*
X037729*
Y036761*
Y036762*
Y036764*
Y036765*
Y036766*
Y036769*
X03773Y036772*
Y036776*
X037731Y036779*
X037732Y036782*
Y036783*
X037733Y036784*
X037734Y036785*
X037735Y036787*
X037736Y036789*
X037738Y036791*
X03774Y036793*
X037743Y036796*
X037744Y036797*
X037746Y036798*
X037748Y036799*
X037751Y036801*
X037754Y036802*
X037758Y036804*
X037762Y036805*
X037763*
Y036806*
X037764*
X037765*
X037767*
X037769Y036807*
X03777*
X037772*
X037775Y036808*
X037777*
X03778*
X037785Y036809*
X037792*
X037794*
X037796*
G37*
G36*
X037806Y035793D02*
X037807D01*
X037809*
X037811*
X037816Y035792*
X03782*
X037825Y035791*
X03783Y035789*
X037831*
X037832*
X037834Y035788*
X037836Y035787*
X037839Y035786*
X037842Y035784*
X037846Y035782*
X037848Y03578*
X037849*
Y035779*
X037851Y035778*
X037852Y035777*
X037854Y035775*
X037855Y035772*
X037857Y03577*
X037858Y035767*
X037859*
Y035765*
X03786Y035764*
Y035761*
X037861Y035759*
Y035755*
X037862Y035751*
Y035747*
Y035709*
X037739*
Y035746*
Y035747*
Y035748*
Y035749*
Y03575*
Y035753*
X03774Y035757*
Y03576*
X037741Y035764*
X037742Y035767*
X037743Y035768*
X037744Y035769*
X037745Y035771*
X037746Y035773*
X037748Y035775*
X03775Y035778*
X037753Y03578*
X037754Y035781*
X037756Y035782*
X037758Y035783*
X037761Y035785*
X037764Y035787*
X037768Y035788*
X037772Y03579*
X037773*
X037774*
X037775*
X037777Y035791*
X037779*
X03778*
X037782Y035792*
X037785*
X037787*
X03779Y035793*
X037795*
X037802*
X037804*
X037806*
G37*
G36*
X037852Y036576D02*
Y036554D01*
X037729Y036518*
Y03654*
X03782Y036566*
X037729Y03659*
Y036612*
X037852Y036576*
G37*
G36*
X026447Y030351D02*
X026419Y030312D01*
X026409Y030299*
X02641*
X026411*
X026413*
X026415Y0303*
X026416*
X026418*
X026449*
Y030279*
X026384*
Y030297*
X026411Y030336*
X026412Y030337*
X026413Y030339*
X026415Y030341*
X026416Y030343*
X026418Y030345*
X02642Y030347*
X026421Y030349*
X026419*
X026417*
X026412*
X026386*
Y030368*
X026447*
Y030351*
G37*
G36*
X026517D02*
X026489Y030312D01*
X026479Y030299*
X02648*
X026481*
X026482*
X026484*
X026485Y0303*
X026487*
X026488*
X02652*
Y030279*
X026454*
Y030297*
X026482Y030336*
X026483Y030337*
X026484Y030339*
X026485Y030341*
X026487Y030343*
X026489Y030345*
X02649Y030347*
X026491Y030349*
X026489*
X026488*
X026483*
X026457*
Y030368*
X026517*
Y030351*
G37*
G36*
X026063D02*
X026035Y030312D01*
X026025Y030299*
X026026*
X026028*
X026029*
X026031Y0303*
X026033*
X026034*
X026065*
Y030279*
X026*
Y030297*
X026027Y030336*
X026028*
Y030337*
X02603Y030339*
X026031Y030341*
X026033Y030343*
X026034Y030345*
X026036Y030347*
X026037Y030349*
X026035*
X026034*
X026028*
X026003*
Y030368*
X026063*
Y030351*
G37*
G36*
X02625Y030402D02*
X026253D01*
X026257Y030401*
X026261*
X026264Y0304*
X026266*
X026267Y030399*
X026268*
Y030398*
X02627*
X026271Y030396*
X026273Y030395*
X026275Y030393*
X026277Y030391*
X026279Y030388*
Y030387*
X02628Y030385*
X026281Y030383*
X026282Y030381*
X026283Y030378*
Y030375*
Y030371*
Y03037*
Y030368*
Y030366*
X026282Y030363*
Y030361*
X026281Y030358*
X026279Y030355*
Y030354*
X026278Y030353*
X026277Y030351*
X026275Y030349*
X026273Y030348*
X026271Y030346*
X026269Y030344*
X02627*
X026272Y030343*
X026274Y030342*
X026276Y03034*
X026279Y030339*
X026281Y030336*
X026283Y030333*
X026284Y030332*
X026285Y030331*
X026286Y030328*
X026287Y030325*
Y030322*
X026288Y030319*
Y030315*
Y030314*
Y030313*
Y030311*
Y03031*
X026287Y030307*
Y030303*
X026285Y030299*
X026284Y030296*
X026282Y030292*
X026281*
Y030291*
X026279Y030289*
X026277Y030287*
X026275Y030285*
X026272Y030283*
X026269Y030282*
X026266Y030281*
Y03028*
X026265*
X026264*
X026263*
X026262*
X026261*
X026259*
X026257*
X026254Y030279*
X026252*
X026249*
X026245*
X026204*
Y030402*
X026248*
X02625*
G37*
G36*
X026371Y030279D02*
X026353D01*
Y030292*
X026352Y030291*
Y03029*
X02635Y030288*
X026349Y030286*
X026347Y030285*
X026345Y030283*
X026343Y030281*
X026342*
X02634Y03028*
X026338Y030279*
X026336Y030278*
X026334*
X026332Y030277*
X026329*
X026328*
X026326*
X026325Y030278*
X026323*
X026321Y030279*
X026318*
X026316Y030281*
X026315*
X026314Y030282*
X026313Y030283*
X026312Y030285*
X02631Y030287*
X026309Y030289*
X026308Y030291*
X026307Y030292*
Y030293*
Y030294*
X026306Y030297*
Y030299*
X026305Y030303*
Y030307*
Y030312*
Y030368*
X026324*
Y030327*
Y030326*
Y030324*
Y030323*
Y030321*
X026325Y030318*
Y030314*
Y03031*
Y030309*
Y030307*
Y030306*
Y030305*
Y030304*
X026326Y030303*
Y030302*
X026327Y0303*
X026328Y030299*
X026329Y030298*
Y030297*
X02633*
X026331Y030296*
X026332*
X026333Y030295*
X026335*
X026336*
X026337*
X026338*
X026339*
X026341Y030296*
X026342Y030297*
X026344*
X026345Y030298*
Y030299*
X026346*
Y0303*
X026347Y030301*
X026348Y030302*
X026349Y030303*
X02635Y030305*
Y030307*
X026351Y030308*
Y030309*
Y03031*
Y030311*
Y030312*
Y030313*
X026352Y030315*
Y030317*
Y030319*
Y030322*
Y030324*
Y030327*
Y030331*
Y030368*
X026371*
Y030279*
G37*
G36*
X026938D02*
X02692D01*
X026891Y030368*
X026912*
X026925Y030323*
X026929Y030307*
X026933Y030323*
X026947Y030368*
X026967*
X026938Y030279*
G37*
G36*
X026746Y030402D02*
X026747D01*
X02675*
X026753Y030401*
X026757*
X02676Y0304*
X026763Y030399*
X026764*
X026765Y030398*
X026766Y030397*
X026768Y030396*
X02677Y030395*
X026772Y030393*
X026774Y030391*
X026777Y030388*
X026778Y030387*
X026779Y030385*
X02678Y030383*
X026782Y03038*
X026783Y030377*
X026785Y030373*
X026786Y030369*
Y030368*
X026787*
Y030367*
Y030366*
Y030364*
X026788Y030362*
Y030361*
Y030359*
X026789Y030356*
Y030354*
Y030351*
Y030346*
X02679Y030339*
Y030338*
Y030337*
X026789Y030335*
Y030334*
Y030332*
Y03033*
Y030325*
X026788Y030321*
X026787Y030316*
X026786Y030311*
Y03031*
X026785Y030309*
Y030307*
X026783Y030305*
X026782Y030302*
X026781Y030299*
X026779Y030295*
X026777Y030293*
Y030292*
X026776*
X026775Y03029*
X026773Y030289*
X026771Y030287*
X026769Y030286*
X026766Y030284*
X026763Y030283*
Y030282*
X026762*
X02676Y030281*
X026758*
X026755Y03028*
X026752*
X026748Y030279*
X026743*
X026705*
Y030402*
X026744*
X026746*
G37*
G36*
X026881Y030279D02*
X026862D01*
Y030368*
X026881*
Y030279*
G37*
G36*
X02596Y03037D02*
X025961D01*
X025963*
X025966Y030369*
X02597Y030367*
X025972Y030366*
X025974Y030365*
X025976Y030364*
X025978Y030362*
X02598Y030361*
X025982Y030359*
Y030358*
X025983Y030357*
Y030356*
X025984Y030355*
X025985Y030353*
X025986Y030351*
X025987Y030349*
X025988Y030346*
X025989Y030343*
X02599Y03034*
Y030337*
X025991Y030333*
X025992Y030329*
Y030324*
Y030319*
Y030317*
X025943*
Y030316*
Y030315*
X025944Y030313*
Y030311*
X025945Y030308*
Y030305*
X025947Y030303*
X025948Y0303*
X025949Y030299*
X02595*
X025951Y030298*
X025953Y030297*
X025955Y030296*
X025957Y030295*
X025959*
X02596*
X025961*
X025962*
X025964Y030296*
X025965Y030297*
X025966Y030298*
X025967Y030299*
X025968Y0303*
X025969Y030302*
X02597Y030303*
X025971Y030305*
X025972Y030307*
X025991Y030303*
Y030302*
X02599Y030301*
Y0303*
X025989Y030299*
X025988Y030296*
X025986Y030293*
X025984Y030289*
X025982Y030286*
X025979Y030283*
X025978*
X025977*
X025976Y030281*
X025973Y03028*
X02597Y030279*
X025967Y030278*
X025963Y030277*
X025959*
X025958*
X025956*
X025955*
X025953Y030278*
X02595*
X025946Y03028*
X025944Y030281*
X025942Y030282*
X025939Y030283*
X025938Y030284*
X025936Y030286*
X025934Y030288*
X025933Y030289*
X025932Y03029*
Y030291*
X025931Y030293*
X02593Y030295*
X025929Y030297*
X025928Y030299*
X025927Y030302*
X025926Y030305*
X025925Y030308*
Y030311*
X025924Y030315*
Y030319*
Y030323*
Y030324*
Y030325*
Y030327*
Y030329*
Y030331*
X025925Y030333*
Y030336*
X025926Y030341*
X025927Y030345*
X025928Y030348*
X025929Y03035*
X025931Y030353*
X025932Y030356*
X025934Y030359*
X025935Y03036*
X025936Y030361*
X025937Y030362*
X025938*
X02594Y030365*
X025944Y030367*
X025947Y030368*
X02595Y030369*
X025952Y03037*
X025955*
X025957*
X025959*
X02596*
G37*
G36*
X026114D02*
X026116D01*
X026117*
X026119Y030369*
X026121*
X026123Y030368*
X026126Y030367*
X026128Y030366*
X02613Y030364*
X026133Y030363*
X026135Y030361*
X026137Y030359*
X026139Y030356*
X02614Y030355*
X026141Y030354*
Y030353*
X026142Y030351*
X026143Y030349*
X026144Y030347*
X026145Y030345*
X026146Y030342*
X026147Y03034*
X026148Y030337*
X026149Y030331*
Y030327*
Y030324*
Y030323*
Y030322*
Y030321*
Y030319*
X026148Y030316*
Y030312*
X026147Y030308*
X026146Y030303*
X026144Y030299*
X026143Y030298*
Y030297*
X026142Y030295*
X02614Y030293*
X026138Y03029*
X026136Y030287*
X026133Y030285*
X02613Y030283*
Y030282*
X026129*
X026127Y030281*
X026125Y03028*
X026122Y030279*
X026119Y030278*
X026115Y030277*
X026111*
X02611*
X026109*
X026107*
X026106Y030278*
X026104*
X026102Y030279*
X026098Y03028*
X026095Y030281*
X026093Y030282*
X026091Y030284*
X026089Y030285*
X026086Y030287*
X026084Y030289*
Y03029*
X026083Y030291*
Y030292*
X026082Y030293*
X026081Y030295*
X02608Y030296*
X026079Y030299*
X026078Y030301*
X026077Y030303*
X026076Y030306*
X026075Y03031*
Y030313*
X026074Y030317*
Y030321*
Y030325*
Y030326*
Y030327*
Y030328*
Y030329*
Y030333*
X026075Y030336*
X026076Y03034*
X026077Y030344*
X026079Y030349*
Y03035*
X02608*
X026081Y030352*
X026082Y030355*
X026084Y030357*
X026087Y03036*
X026089Y030363*
X026092Y030365*
X026093*
X026094Y030366*
X026096Y030367*
X026098Y030368*
X026101Y030369*
X026104*
X026107Y03037*
X026111*
X026113*
X026114*
G37*
G36*
X038832Y036743D02*
X038709D01*
Y036764*
X038832*
Y036743*
G37*
G36*
X038776Y036877D02*
X038778Y036876D01*
X038781*
X038784*
X038788Y036875*
X038792Y036874*
X038796Y036873*
X0388Y036872*
X038804Y036871*
X038808Y036869*
X038812Y036867*
X038815Y036865*
X038819Y036862*
X03882Y036861*
X038821Y03686*
X038822Y036859*
X038824Y036857*
X038825Y036855*
X038826Y036853*
X038828Y036851*
X038829Y036848*
X03883Y036846*
X038832Y036842*
Y036839*
X038833Y036836*
X038834Y036832*
Y036828*
Y036827*
Y036826*
Y036824*
X038833Y036822*
Y03682*
Y036818*
X038832Y036815*
X038831Y036813*
X03883Y03681*
X038829Y036807*
X038828Y036804*
X038826Y036801*
X038824Y036798*
X038822Y036796*
X038819Y036793*
X038818*
X038817Y036792*
X038816Y036791*
X038814Y03679*
X038812Y036789*
X038809Y036788*
X038806Y036786*
X038803Y036785*
X0388Y036783*
X038796Y036782*
X038792Y036781*
X038787Y03678*
X038782Y036779*
X038777*
X038771*
X038769*
X038768*
X038766*
X038764*
X038761*
X038759Y03678*
X038753Y036781*
X038747Y036782*
X038741Y036783*
X038738Y036784*
X038735Y036785*
Y036786*
X038734*
X038733Y036787*
X038732*
X03873Y036788*
X038727Y03679*
X038724Y036792*
X03872Y036795*
X038717Y036799*
X038714Y036802*
Y036803*
X038713*
Y036804*
X038712Y036805*
Y036806*
X038711Y036808*
X03871Y036809*
X038709Y036813*
X038708Y036818*
X038707Y036822*
Y036828*
Y036829*
Y03683*
Y036832*
Y036833*
X038708Y036836*
Y036838*
X038709Y03684*
X03871Y036843*
X038711Y036846*
X038712Y036849*
X038714Y036852*
X038716Y036855*
X038718Y036858*
X038721Y03686*
X038723Y036863*
X038724*
Y036864*
X038725*
X038727Y036865*
X038728Y036866*
X03873Y036868*
X038733Y036869*
X038735Y03687*
X038739Y036871*
X038742Y036872*
X038746Y036874*
X03875Y036875*
X038755Y036876*
X03876*
X038765Y036877*
X03877*
X038773*
X038776*
G37*
G36*
X025838Y030402D02*
X025843D01*
X025846Y030401*
X025848*
X02585*
X025851*
X025853Y0304*
X025854*
X025856Y030399*
X025858Y030398*
X02586Y030396*
X025863Y030394*
X025865Y030391*
X025867Y030388*
X025868*
Y030387*
Y030386*
X025869*
Y030384*
X02587Y030383*
X025871Y030382*
X025872Y030378*
X025873Y030374*
Y030369*
Y030364*
Y030363*
Y030362*
Y030361*
Y030359*
Y030356*
X025872Y030353*
X025871Y030349*
X02587Y030345*
X025868Y030342*
Y030341*
X025867Y03034*
X025866Y030339*
X025865Y030337*
X025863Y030335*
X025861Y030333*
X025858Y030331*
X025856Y030329*
X025855*
X025854*
X025853Y030328*
X025852*
X025851*
X02585Y030327*
X025848*
X025846*
X025844Y030326*
X025842*
X025839*
X025836*
X025833Y030325*
X025816*
Y030279*
X025796*
Y030402*
X025835*
X025838*
G37*
G36*
X02591Y030279D02*
X02589D01*
Y030368*
X02591*
Y030279*
G37*
G36*
X026563Y03037D02*
X026564D01*
X026566*
X026569Y030369*
X026573Y030367*
X026575Y030366*
X026577Y030365*
X026579Y030364*
X026581Y030362*
X026583Y030361*
X026585Y030359*
Y030358*
X026586Y030357*
X026587Y030356*
Y030355*
X026588Y030353*
X026589Y030351*
X02659Y030349*
X026591Y030346*
X026592Y030343*
X026593Y03034*
X026594Y030337*
Y030333*
X026595Y030329*
Y030324*
Y030319*
Y030317*
X026547*
Y030316*
Y030315*
Y030313*
Y030311*
X026548Y030308*
X026549Y030305*
X02655Y030303*
X026551Y0303*
X026552*
Y030299*
X026553*
X026554Y030298*
X026556Y030297*
X026558Y030296*
X02656Y030295*
X026562*
X026563*
X026564*
X026566*
X026568Y030296*
Y030297*
X02657Y030298*
X026571Y030299*
X026572Y0303*
X026573Y030302*
X026574Y030303*
Y030305*
X026575Y030307*
X026594Y030303*
Y030302*
Y030301*
X026593Y0303*
Y030299*
X026591Y030296*
X02659Y030293*
X026587Y030289*
X026585Y030286*
X026582Y030283*
X026581*
X026579Y030281*
X026577Y03028*
X026574Y030279*
X02657Y030278*
X026566Y030277*
X026562*
X026561*
X02656*
X026558*
X026557Y030278*
X026553*
X026549Y03028*
X026547Y030281*
X026545Y030282*
X026543Y030283*
X026541Y030284*
X026539Y030286*
X026537Y030288*
X026536Y030289*
Y03029*
X026535Y030291*
X026534Y030293*
X026533Y030295*
X026532Y030297*
X026531Y030299*
X02653Y030302*
X026529Y030305*
Y030308*
X026528Y030311*
X026527Y030315*
Y030319*
Y030323*
Y030324*
Y030325*
Y030327*
Y030329*
X026528Y030331*
Y030333*
Y030336*
X02653Y030341*
Y030345*
X026531Y030348*
X026533Y03035*
X026534Y030353*
X026536Y030356*
X026537Y030359*
X026538*
Y03036*
X026539Y030361*
X02654Y030362*
X026541*
X026544Y030365*
X026547Y030367*
X026551Y030368*
X026553Y030369*
X026555Y03037*
X026558*
X02656*
X026562*
X026563*
G37*
G36*
X027009D02*
X027011D01*
X027012*
X027016Y030369*
X02702Y030367*
X027022Y030366*
X027024Y030365*
X027026Y030364*
X027028Y030362*
X02703Y030361*
X027031Y030359*
X027032Y030358*
Y030357*
X027033Y030356*
X027034Y030355*
X027035Y030353*
X027036Y030351*
X027037Y030349*
Y030346*
X027038Y030343*
X027039Y03034*
X02704Y030337*
X027041Y030333*
Y030329*
Y030324*
X027042Y030319*
Y030317*
X026993*
Y030316*
Y030315*
Y030313*
X026994Y030311*
Y030308*
X026995Y030305*
X026996Y030303*
X026998Y0303*
X026999Y030299*
X027*
X027001Y030298*
X027003Y030297*
X027005Y030296*
X027007Y030295*
X027009*
X02701*
X027012*
X027014Y030296*
X027015Y030297*
X027016Y030298*
X027017Y030299*
X027018Y0303*
X027019Y030302*
X02702Y030303*
X027021Y030305*
Y030307*
X027041Y030303*
X02704Y030302*
Y030301*
Y0303*
X027039Y030299*
X027038Y030296*
X027036Y030293*
X027034Y030289*
X027031Y030286*
X027029Y030283*
X027028*
X027027*
X027025Y030281*
X027023Y03028*
X02702Y030279*
X027017Y030278*
X027013Y030277*
X027009*
X027007*
X027006*
X027005*
X027003Y030278*
X027*
X026995Y03028*
X026993Y030281*
X026991Y030282*
X026989Y030283*
X026987Y030284*
X026985Y030286*
X026984Y030288*
X026983*
Y030289*
X026982Y03029*
X026981Y030291*
Y030293*
X02698Y030295*
X026979Y030297*
X026978Y030299*
X026977Y030302*
X026976Y030305*
X026975Y030308*
X026974Y030311*
Y030315*
Y030319*
X026973Y030323*
Y030324*
Y030325*
X026974Y030327*
Y030329*
Y030331*
Y030333*
X026975Y030336*
X026976Y030341*
X026977Y030345*
X026978Y030348*
X026979Y03035*
X02698Y030353*
X026982Y030356*
X026984Y030359*
X026985Y03036*
Y030361*
X026986Y030362*
X026987*
X02699Y030365*
X026993Y030367*
X026997Y030368*
X026999Y030369*
X027002Y03037*
X027004*
X027007*
X027008*
X027009*
G37*
G36*
X028264Y033923D02*
X028469D01*
Y033883*
X028264*
Y033822*
X028223*
Y033983*
X028264*
Y033923*
G37*
G36*
Y034095D02*
X028469D01*
Y034055*
X028264*
Y033995*
X028223*
Y034155*
X028264*
Y034095*
G37*
G36*
X028402Y033599D02*
X028404D01*
X028407Y033598*
X028413*
X02842Y033596*
X028428Y033594*
X028436Y03359*
X028443Y033586*
X028444Y033585*
X028446Y033584*
X028449Y033581*
X028453Y033577*
X028457Y033573*
X028461Y033567*
X028464Y033561*
X028466Y033555*
Y033554*
Y033553*
X028467Y033551*
Y033549*
Y033547*
Y033544*
X028468Y03354*
Y033536*
Y033531*
X028469Y033526*
Y03352*
Y033513*
Y033506*
Y033498*
Y03343*
X028223*
Y033511*
Y033512*
Y033514*
Y033516*
Y033519*
Y033522*
X028224Y033529*
Y033536*
X028225Y033544*
X028227Y033551*
X028228Y033554*
X028229Y033557*
Y033558*
X02823Y033559*
X028232Y033562*
X028234Y033565*
X028237Y033568*
X028241Y033572*
X028245Y033576*
X02825Y03358*
X028251*
X028253Y033581*
X028256Y033583*
X02826Y033584*
X028265Y033586*
X028271Y033588*
X028278Y033589*
X028285*
X028288*
X028291*
X028295Y033588*
X0283Y033587*
X028306Y033586*
X028312Y033584*
X028317Y033581*
X028318*
X028319Y03358*
X028322Y033578*
X028325Y033576*
X028328Y033572*
X028332Y033569*
X028335Y033565*
X028338Y03356*
Y033561*
X028339*
Y033563*
X028341Y033567*
X028343Y033571*
X028346Y033575*
X02835Y03358*
X028355Y033585*
X02836Y033589*
X028361*
X028363Y03359*
X028366Y033592*
X028371Y033594*
X028376Y033596*
X028382Y033598*
X02839Y033599*
X028398*
X0284*
X028402*
G37*
G36*
X028369Y033794D02*
X028374D01*
X02838Y033793*
X028391*
X028403Y033792*
X028409Y033791*
X028414Y03379*
X028419*
X028424Y033789*
X028425Y033788*
X028426*
X028427*
X028431Y033786*
X028436Y033784*
X028442Y03378*
X028448Y033776*
X028454Y033771*
X028459Y033765*
Y033764*
X02846*
X028461Y033763*
X028462Y033761*
X028463Y03376*
X028464Y033757*
X028465Y033754*
X028466Y033751*
X028469Y033745*
X028471Y033736*
X028472Y033727*
X028473Y033716*
Y033715*
Y033714*
Y033713*
Y033711*
Y033708*
X028472Y033705*
X028471Y033698*
X02847Y03369*
X028468Y033682*
X028465Y033674*
X028462Y033666*
X028461*
X028459Y033663*
X028457Y03366*
X028453Y033656*
X028449Y033652*
X028443Y033648*
X028437Y033644*
X02843Y03364*
X028429*
X028428*
X028426Y033639*
X028423*
X02842Y033638*
X028417Y033637*
X028413*
X028408Y033636*
X028402Y033635*
X028396*
X028389Y033634*
X028382*
X028373Y033633*
X028364*
X028223*
Y033674*
X028366*
X028373*
X028379*
X028386*
X028392Y033675*
X028394*
X028396*
X028397*
X028399Y033676*
X028402Y033677*
X028406Y033678*
X02841Y033679*
X028414Y033682*
X028418Y033684*
X028422Y033688*
X028423Y03369*
X028424Y033692*
X028426Y033695*
X028427Y033699*
X028429Y033703*
X02843Y033709*
Y033715*
Y033717*
Y03372*
Y033723*
X028429Y033727*
X028428Y03373*
X028426Y033734*
X028424Y033738*
X028423Y033739*
X028422Y033741*
X02842Y033742*
X028417Y033745*
X028414Y033746*
X028411Y033748*
X028407Y03375*
X028406*
X028405*
X028403*
X028402Y033751*
X028399*
X028397*
X028394Y033752*
X02839*
X028386Y033753*
X028382*
X028377*
X028372*
X028223*
Y033794*
X028364*
X028369*
G37*
G36*
X039306Y032985D02*
X039263Y032962D01*
X039262Y032961*
X039261Y03296*
X039259Y032959*
X039257Y032958*
X039255Y032957*
X039251Y032955*
X039246Y032952*
X039241Y032949*
X039239Y032948*
X039237Y032946*
X039235Y032945*
X039234Y032944*
X039233Y032943*
X039232Y032942*
X039231Y032941*
X039228Y032938*
X039227Y032937*
X039226Y032934*
X039225Y032932*
Y032931*
X039224Y032928*
Y032925*
Y032922*
Y032918*
Y032912*
X039306*
Y032879*
X039109*
Y032948*
Y032949*
Y03295*
Y032952*
Y032954*
Y032957*
X03911Y032962*
Y032969*
X039111Y032975*
X039113Y03298*
X039114Y032983*
X039115Y032985*
Y032986*
Y032987*
X039117Y032989*
X039119Y032992*
X039121Y032995*
X039124Y032998*
X039128Y033001*
X039133Y033004*
X039135Y033005*
X039138Y033006*
X039142Y033008*
X039146Y033009*
X039152Y03301*
X039158Y033011*
X039164*
X039167*
X039168*
X03917*
X039172*
X039178Y03301*
X039184Y033009*
X03919Y033007*
X039196Y033004*
X039202Y033*
Y032999*
X039204Y032998*
X039206Y032995*
X039209Y032992*
X039212Y032987*
X039215Y032982*
X039217Y032976*
X039219Y032969*
X03922Y03297*
X039222Y032972*
X039224Y032975*
X039226Y032977*
X039229Y03298*
X039232Y032983*
X039236Y032986*
X039237Y032987*
X03924Y032989*
X039243Y032991*
X039247Y032993*
X03925Y032995*
X039253Y032996*
X039256Y032998*
X039259Y033*
X039264Y033002*
X039268Y033004*
X039306Y033024*
Y032985*
G37*
G36*
X039279Y033186D02*
X039281Y033185D01*
X039283Y033183*
X039286Y033179*
X039289Y033175*
X039293Y03317*
X039297Y033164*
X0393Y033157*
X039301Y033156*
Y033155*
X039302Y033154*
Y033152*
X039303Y03315*
X039305Y033145*
X039306Y033139*
X039307Y033132*
X039309Y033125*
Y033118*
Y033117*
Y033115*
Y033114*
Y033112*
X039308Y033109*
Y033106*
X039307Y033104*
X039306Y033097*
X039304Y03309*
X039301Y033083*
X039297Y033076*
Y033075*
X039296Y033074*
X039295Y033073*
X039292Y033069*
X039289Y033065*
X039284Y03306*
X039278Y033056*
X039271Y033051*
X039262Y033047*
X039261Y033046*
X03926*
X039258Y033045*
X039256Y033044*
X039253Y033043*
X03925Y033042*
X039247Y033041*
X039243Y03304*
X039239Y033039*
X039234Y033038*
X039229*
X039219Y033037*
X039207Y033036*
X039204*
X039202*
X039199*
X039196Y033037*
X039192*
X039188*
X039179Y033039*
X03917Y033041*
X039161Y033043*
X039152Y033047*
X039151*
X039149Y033048*
X039148Y033049*
X039146Y03305*
X039144Y033051*
X039139Y033054*
X039133Y033058*
X039128Y033063*
X039122Y033069*
X039117Y033075*
Y033076*
X039116*
Y033078*
X039115Y033079*
X039114Y033081*
X039113Y033084*
X039112Y033086*
X03911Y033092*
X039108Y033099*
X039106Y033107*
Y033116*
Y033117*
Y033119*
Y033121*
Y033123*
X039107Y033126*
Y033129*
X039108Y033133*
X039109Y03314*
X039112Y033148*
X039114Y033152*
X039116Y033155*
X039118Y033159*
X039121Y033162*
Y033163*
X039122Y033164*
X039123Y033165*
X039125Y033166*
X039127Y033168*
X039129Y03317*
X039132Y033172*
X039135Y033174*
X039138Y033175*
X039141Y033177*
X039145Y033179*
X039149Y033181*
X039154Y033183*
X039159Y033184*
X039164Y033185*
X039171Y033153*
Y033152*
X039169*
X039166Y033151*
X039163Y03315*
X039159Y033148*
X039155Y033145*
X039151Y033143*
X039148Y033139*
X039147Y033138*
X039145Y033136*
X039144Y033133*
X039142Y033129*
X039141Y033126*
X03914Y033121*
Y033116*
Y033115*
Y033114*
Y033113*
Y033111*
X039141Y033109*
X039142Y033104*
X039144Y033099*
X039147Y033093*
X039149Y03309*
X039151Y033088*
X039153Y033085*
X039156Y033083*
X039157Y033082*
X039158Y033081*
X039159*
X039161Y03308*
X039163Y033079*
X039165Y033077*
X039168Y033076*
X039172Y033075*
X039175Y033074*
X039179Y033073*
X039184Y033072*
X039188Y033071*
X039194Y03307*
X039199*
X039205*
X039209*
X039211*
X039214*
X039218Y033071*
X039221*
X039225Y033072*
X039234Y033073*
X039243Y033076*
X039252Y033079*
X039255Y033081*
X039259Y033083*
Y033084*
X03926*
X039262Y033086*
X039264Y033088*
X039267Y033092*
X03927Y033097*
X039273Y033102*
X039274Y033109*
X039275Y033112*
Y033116*
Y033118*
Y03312*
X039274Y033122*
Y033125*
X039273Y033128*
X039272Y033132*
X039271Y033136*
X03927*
Y033137*
X039269Y033139*
X039267Y033142*
X039266Y033145*
X039264Y033148*
X039261Y033151*
X039258Y033154*
X039234*
Y033117*
X0392*
Y033187*
X039279*
Y033186*
G37*
G36*
X028356Y034368D02*
X028361D01*
X028367Y034367*
X028374Y034366*
X028381Y034365*
X028389Y034364*
X028396Y034362*
X028404Y034359*
X028412Y034356*
X02842Y034353*
X028428Y034349*
X028435Y034345*
X028442Y03434*
X028443Y034339*
X028444*
X028445Y034337*
X028447Y034335*
X028449Y034332*
X028452Y03433*
X028455Y034326*
X028458Y034322*
X028461Y034317*
X028463Y034312*
X028466Y034306*
X028468Y0343*
X02847Y034293*
X028471Y034286*
X028473Y034279*
Y034271*
Y034269*
Y034267*
Y034264*
X028472Y03426*
X028471Y034256*
X02847Y034251*
X028469Y034246*
X028467Y03424*
X028466Y034235*
X028463Y034229*
X02846Y034223*
X028457Y034218*
X028452Y034212*
X028448Y034207*
X028443Y034202*
X028442Y034201*
X028441*
X028439Y034199*
X028436Y034197*
X028433Y034195*
X028428Y034193*
X028423Y03419*
X028418Y034188*
X028411Y034185*
X028404Y034182*
X028396Y03418*
X028388Y034177*
X028379Y034176*
X028369Y034174*
X028359Y034173*
X028348*
X028343*
X02834*
X028337*
X028332Y034174*
X028327*
X028322*
X028311Y034176*
X028299Y034178*
X028287Y034181*
X028281Y034184*
X028275Y034186*
X028274*
X028273Y034187*
X02827Y034188*
X028268Y034189*
X028265Y034191*
X028259Y034195*
X028252Y0342*
X028245Y034205*
X028239Y034212*
X028233Y03422*
X028232Y034221*
Y034222*
X028231Y034223*
X02823Y034225*
X028229Y034228*
X028227Y034231*
X028226Y034234*
X028223Y034241*
X028221Y03425*
X02822Y03426*
X028219Y034271*
Y034273*
Y034275*
Y034278*
X02822Y034282*
X028221Y034286*
X028222Y034291*
X028223Y034296*
X028225Y034301*
X028227Y034307*
X02823Y034313*
X028233Y034319*
X028237Y034325*
X028241Y034331*
X028246Y034336*
X028252Y034342*
X028253Y034343*
X028255Y034344*
X028258Y034346*
X028261Y034348*
X028266Y03435*
X02827Y034353*
X028276Y034355*
X028283Y034358*
X028289Y03436*
X028297Y034363*
X028305Y034364*
X028315Y034366*
X028324Y034368*
X028335*
X028346Y034369*
X028352*
X028356Y034368*
G37*
G36*
X028469Y034521D02*
X028309Y034439D01*
X028469*
Y034402*
X028223*
Y034441*
X028387Y034524*
X028223*
Y034562*
X028469*
Y034521*
G37*
G36*
X045352Y030839D02*
X045473D01*
Y030738*
X045352*
Y030591*
X045271*
Y030738*
X04515*
Y030839*
X045271*
Y030985*
X045352*
Y030839*
G37*
G36*
X020272Y036558D02*
X020393D01*
Y036457*
X020272*
Y036311*
X020191*
Y036457*
X02007*
Y036558*
X020191*
Y036705*
X020272*
Y036558*
G37*
G36*
X045346Y03634D02*
X045235D01*
Y036557*
X045346*
Y03634*
G37*
G36*
X020296Y03069D02*
X020185D01*
Y030907*
X020296*
Y03069*
G37*
G36*
X028469Y033085D02*
X028223D01*
Y033235*
X028264*
Y033126*
X028319*
Y033227*
X02836*
Y033126*
X028427*
Y033239*
X028469*
Y033085*
G37*
G36*
X028512Y03325D02*
X028495D01*
Y033412*
X028512*
Y03325*
G37*
G36*
X028402Y032878D02*
X028404D01*
X028407*
X028413Y032877*
X02842Y032875*
X028428Y032873*
X028436Y03287*
X028443Y032865*
X028444Y032864*
X028446Y032863*
X028449Y03286*
X028453Y032856*
X028457Y032852*
X028461Y032847*
X028464Y032841*
X028466Y032835*
Y032834*
Y032833*
Y032832*
X028467Y03283*
Y032828*
Y032826*
Y032823*
X028468Y032819*
Y032815*
Y032811*
X028469Y032805*
Y032799*
Y032793*
Y032785*
Y032777*
Y032709*
X028223*
Y03279*
Y032791*
Y032793*
Y032795*
Y032798*
Y032801*
X028224Y032808*
Y032816*
X028225Y032823*
X028227Y032831*
X028228Y032833*
X028229Y032836*
Y032837*
X02823Y032839*
X028232Y032841*
X028234Y032844*
X028237Y032848*
X028241Y032852*
X028245Y032855*
X02825Y032859*
X028251*
X028253Y03286*
X028256Y032862*
X02826Y032864*
X028265Y032866*
X028271Y032867*
X028278Y032868*
X028285*
X028288*
X028291*
X028295Y032867*
X0283*
X028306Y032865*
X028312Y032863*
X028317Y03286*
X028318*
X028319Y032859*
X028322Y032857*
X028325Y032855*
X028328Y032852*
X028332Y032848*
X028335Y032844*
X028338Y03284*
X028339*
Y032843*
X028341Y032846*
X028343Y03285*
X028346Y032855*
X02835Y032859*
X028355Y032864*
X02836Y032868*
X028361*
X028363Y03287*
X028366Y032871*
X028371Y032873*
X028376Y032875*
X028382Y032877*
X02839Y032878*
X028398*
X0284*
X028402*
G37*
G36*
X028469Y032914D02*
X028225D01*
Y032954*
X028427*
Y033056*
X028469*
Y032914*
G37*
G36*
X038255Y030567D02*
X038258D01*
X038264*
X038271Y030566*
X038278Y030565*
X038285Y030563*
X03829Y030561*
X038291*
X038293Y03056*
X038295Y030558*
X038299Y030556*
X038303Y030553*
X038308Y03055*
X038312Y030545*
X038317Y03054*
X038318Y030539*
X038319Y030537*
X038321Y030534*
X038324Y030529*
X038327Y030524*
X03833Y030517*
X038333Y03051*
X038336Y030501*
X038337Y0305*
Y030499*
Y030497*
X038338Y030495*
Y030492*
X038339Y030488*
X03834Y030485*
Y030481*
X038341Y030476*
X038342Y030472*
Y030466*
X038343Y030455*
Y030442*
Y030441*
Y030439*
Y030437*
Y030434*
Y030431*
X038342Y030427*
Y030423*
X038341Y030414*
X03834Y030405*
X038338Y030396*
X038336Y030386*
X038335Y030385*
Y030384*
X038334Y030382*
X038333Y030378*
X038331Y030373*
X038328Y030367*
X038325Y030361*
X038321Y030354*
X038317Y030349*
Y030348*
X038315Y030347*
X038313Y030344*
X03831Y030341*
X038306Y030338*
X038302Y030335*
X038297Y030331*
X038291Y030329*
X03829Y030328*
X038288Y030327*
X038285Y030326*
X03828Y030325*
X038274Y030324*
X038267Y030323*
X038259Y030322*
X03825*
X038174*
Y030568*
X038253*
X038255Y030567*
G37*
G36*
X03881Y030526D02*
X038701D01*
Y030472*
X038802*
Y03043*
X038701*
Y030363*
X038813*
Y030322*
X03866*
Y030568*
X03881*
Y030526*
G37*
G36*
X039142Y034451D02*
X039306D01*
Y034419*
X039142*
Y034371*
X039109*
Y034499*
X039142*
Y034451*
G37*
G36*
X038065Y030567D02*
X038068D01*
X038075*
X038082Y030566*
X03809Y030565*
X038097Y030563*
X038101Y030562*
X038104Y030561*
Y03056*
X038106*
X038109Y030558*
X038112Y030555*
X038116Y030552*
X038119Y030548*
X038123Y030544*
X038127Y030538*
Y030537*
X038128Y030535*
X03813Y030531*
X038132Y030527*
X038133Y030521*
X038135Y030514*
X038136Y030507*
Y030499*
Y030498*
Y030497*
Y030496*
Y030494*
Y030491*
X038135Y030488*
X038134Y030482*
X038133Y030475*
X03813Y030467*
X038127Y030459*
X038122Y030452*
X038121Y030451*
X038119Y030449*
X038116Y030446*
X038112Y030443*
X038106Y030439*
X038099Y030435*
X038092Y030432*
X038082Y03043*
X038083*
X038085Y030428*
X038087Y030426*
X03809Y030424*
X038093Y030421*
X038097Y030417*
X038101Y030413*
X038104Y030409*
X038105Y030407*
X038108Y030404*
X03811Y0304*
X038113Y030395*
X038115Y030392*
X038117Y030388*
X03812Y030384*
X038122Y03038*
X038125Y030374*
X038127Y030369*
X038152Y030322*
X038103*
X038074Y030375*
Y030376*
X038073Y030377*
X038072Y030378*
X038071Y03038*
X03807Y030382*
X038068Y030385*
X038065Y03039*
X038061Y030397*
X038058Y030403*
X038056Y030405*
X038054Y030408*
X038053Y03041*
X038052Y030411*
Y030412*
X038051*
X03805Y030414*
X038048Y030415*
X038045Y030418*
X038042Y03042*
X03804Y030421*
X038039Y030422*
X038037*
X038035Y030423*
X038032Y030424*
X038029*
X038025*
X038012*
Y030322*
X037971*
Y030568*
X038062*
X038065Y030567*
G37*
G36*
X039009Y030322D02*
X038968D01*
X038887Y030482*
Y030322*
X038849*
Y030568*
X038888*
X038971Y030403*
Y030568*
X039009*
Y030322*
G37*
G36*
X03786Y030571D02*
X037863D01*
X037867*
X03787Y03057*
X037874Y030569*
X037883Y030566*
X037888Y030564*
X037893Y030562*
X037898Y030559*
X037902Y030556*
X037907Y030552*
X037911Y030548*
X037912*
Y030547*
X037913Y030546*
X037914Y030545*
X037915Y030543*
X037917Y030541*
X037919Y030539*
X037921Y030536*
X037922Y030532*
X037925Y030529*
X037926Y030525*
X037929Y030521*
X03793Y030516*
X037932Y030511*
X037934Y030505*
X037935Y030499*
X037895Y030488*
Y030489*
X037894Y030491*
X037893Y030495*
X037892Y030499*
X03789Y030504*
X037887Y030509*
X037883Y030514*
X037879Y030518*
Y030519*
X037878Y03052*
X037875Y030522*
X037872Y030524*
X037868Y030526*
X037863Y030527*
X037858Y030529*
X037852*
X03785*
X037849*
X037845Y030528*
X03784Y030527*
X037834Y030524*
X037828Y030521*
X037825Y030519*
X037822Y030516*
X037819Y030513*
X037816Y030509*
X037815*
Y030507*
X037814Y030506*
X037813Y030504*
X037812Y030501*
X037811Y030498*
X037809Y030494*
X037808Y03049*
X037807Y030485*
X037806Y03048*
X037804Y030474*
Y030468*
X037803Y030461*
X037802Y030453*
Y030445*
Y030443*
Y030441*
X037803Y030438*
Y030434*
Y03043*
Y030425*
X037804Y03042*
X037806Y030409*
X037808Y030398*
X03781Y030393*
X037811Y030388*
X037814Y030384*
X037816Y03038*
Y030379*
X037818Y030377*
X037821Y030373*
X037826Y03037*
X037831Y030366*
X037836Y030363*
X037844Y030361*
X037847*
X037851Y03036*
X037852*
X037854Y030361*
X037857*
X037861Y030362*
X037865Y030363*
X03787Y030365*
X037875Y030369*
X037879Y030373*
X037881Y030375*
X037883Y030378*
X037886Y030382*
X037888Y030388*
X037891Y030395*
X037894Y030403*
X037896Y030413*
X037936Y030397*
X037935Y030396*
Y030393*
X037934Y03039*
X037933Y030387*
X037932Y030383*
X03793Y030379*
X037929Y030374*
X037924Y030364*
X037919Y030354*
X037913Y030345*
X037909Y030341*
X037905Y030337*
Y030336*
X037904*
X037903Y030335*
X037901Y030334*
X037899Y030332*
X037896Y030331*
X037894Y030329*
X03789Y030327*
X037887Y030325*
X037883Y030323*
X037874Y030321*
X037863Y030318*
X037858*
X037852*
X03785*
X037848*
X037846*
X037842Y030319*
X037838*
X037834Y03032*
X037829Y030321*
X037824Y030323*
X037819Y030325*
X037814Y030327*
X037808Y03033*
X037803Y030334*
X037798Y030338*
X037793Y030342*
X037788Y030348*
X037787Y030349*
X037785Y030351*
X037784Y030354*
X037781Y030358*
X037779Y030362*
X037777Y030367*
X037774Y030373*
X037771Y030379*
X037769Y030386*
X037767Y030394*
X037764Y030402*
X037763Y030412*
X037761Y030421*
X03776Y030432*
Y030442*
Y030443*
Y030445*
Y030449*
Y030453*
X037761Y030458*
Y030464*
X037763Y030471*
X037764Y030478*
X037765Y030486*
X037767Y030494*
X037769Y030502*
X037772Y030511*
X037775Y030519*
X037779Y030526*
X037783Y030534*
X037788Y030541*
X037789*
Y030542*
X037791Y030544*
X037793Y030545*
X037795Y030548*
X037798Y030551*
X037802Y030554*
X037806Y030556*
X03781Y030559*
X037815Y030562*
X037821Y030564*
X037827Y030567*
X037833Y030569*
X03784Y03057*
X037847Y030571*
X037855Y030572*
X037858*
X03786Y030571*
G37*
G36*
X03939Y030526D02*
X03928D01*
Y030472*
X039382*
Y03043*
X03928*
Y030363*
X039393*
Y030322*
X03924*
Y030568*
X03939*
Y030526*
G37*
G36*
X038442Y030387D02*
X038366D01*
Y030434*
X038442*
Y030387*
G37*
G36*
X039306Y033506D02*
X03911D01*
Y033539*
X039273*
Y033619*
X039306*
Y033506*
G37*
G36*
Y033643D02*
X039109D01*
Y033763*
X039142*
Y033676*
X039186*
Y033757*
X039219*
Y033676*
X039273*
Y033766*
X039306*
Y033643*
G37*
G36*
X039252Y033352D02*
X039254D01*
X039256*
X039261Y033351*
X039267Y03335*
X039273Y033348*
X039279Y033345*
X039285Y033342*
X039286Y033341*
X039287Y03334*
X03929Y033338*
X039293Y033335*
X039296Y033331*
X039299Y033327*
X039302Y033322*
X039303Y033317*
X039304Y033316*
Y033315*
Y033314*
Y033312*
Y03331*
X039305Y033308*
Y033305*
Y033302*
Y033298*
Y033294*
Y033289*
X039306Y033284*
Y033278*
Y033272*
Y033217*
X039109*
Y033282*
Y033283*
Y033284*
Y033286*
Y033288*
Y033291*
X03911Y033296*
Y033302*
X039111Y033308*
X039112Y033314*
X039113Y033317*
X039114Y033319*
X039115Y033321*
X039116Y033323*
X039118Y033325*
X03912Y033328*
X039123Y033331*
X039127Y033334*
X039131Y033337*
X039132*
X039133Y033338*
X039136Y033339*
X039139Y033341*
X039143Y033342*
X039148Y033343*
X039153Y033344*
X039159*
X039161*
X039164*
X039167*
X039171Y033343*
X039175Y033342*
X03918Y03334*
X039184Y033338*
X039185*
X039186Y033337*
X039188Y033335*
X039191Y033334*
X039193Y033331*
X039196Y033328*
X039199Y033325*
X039201Y033321*
Y033322*
X039202*
Y033324*
X039204Y033326*
X039205Y03333*
X039208Y033333*
X039211Y033337*
X039214Y033341*
X039219Y033344*
X039221Y033345*
X039223Y033347*
X039227Y033348*
X039232Y03335*
X039236Y033351*
X039242Y033352*
X039249*
X039251*
X039252*
G37*
G36*
X03934Y033362D02*
X039326D01*
Y033491*
X03934*
Y033362*
G37*
G36*
X039306Y034082D02*
X039109D01*
Y034201*
X039142*
Y034114*
X039186*
Y034195*
X039219*
Y034114*
X039273*
Y034204*
X039306*
Y034082*
G37*
G36*
Y034327D02*
X039239Y034291D01*
X039306Y034254*
Y034215*
X039203Y034271*
X039109Y034221*
Y034259*
X039168Y034291*
X039109Y034323*
Y03436*
X039203Y03431*
X039306Y034366*
Y034327*
G37*
G36*
X039216Y033928D02*
X039218D01*
X039221*
X039225*
X039232Y033927*
X039239Y033926*
X039247Y033925*
X039254Y033923*
X039255Y033922*
X039256*
X039257*
X039261Y03392*
X039265Y033919*
X03927Y033917*
X039275Y033914*
X03928Y033911*
X039284Y033908*
X039285*
X039286Y033906*
X039288Y033904*
X03929Y033902*
X039293Y033899*
X039295Y033895*
X039298Y033891*
X0393Y033887*
X039301Y033886*
Y033884*
X039302Y033882*
X039303Y033878*
X039304Y033873*
X039305Y033868*
Y033861*
X039306Y033854*
Y033793*
X039109*
Y033853*
Y033855*
Y033856*
Y033858*
Y03386*
X03911Y033865*
Y033871*
X039111Y033876*
X039113Y033882*
X039114Y033886*
X039115Y033887*
Y033888*
X039117Y03389*
X039118Y033893*
X039121Y033897*
X039124Y0339*
X039127Y033904*
X039131Y033908*
X039132*
X039133Y033909*
X039136Y033911*
X03914Y033913*
X039144Y033916*
X039149Y033918*
X039155Y033921*
X039162Y033923*
X039163*
X039164Y033924*
X039166*
X039168*
X03917Y033925*
X039172*
X039175Y033926*
X039179*
X039182Y033927*
X039186*
X03919Y033928*
X039199*
X039209Y033929*
X039214*
X039216Y033928*
G37*
G36*
X03934Y033938D02*
X039326D01*
Y034067*
X03934*
Y033938*
G37*
G36*
X043186Y03379D02*
X04319D01*
X043194*
X043204*
X043213Y033789*
X043218Y033788*
X043222*
X043226Y033787*
X04323Y033786*
X043231*
X043233Y033785*
X043236Y033784*
X04324Y033782*
X043244Y03378*
X043249Y033776*
X043254Y033772*
X043258Y033767*
X043259*
Y033766*
X04326Y033765*
X043261Y033763*
X043262Y033761*
X043263Y033759*
Y033757*
X043265Y033751*
X043267Y033744*
X043268Y033737*
X043269Y033728*
Y033727*
Y033726*
Y033724*
Y033722*
X043268Y033719*
Y033714*
X043267Y033707*
X043265Y033701*
X043263Y033694*
X04326Y033689*
Y033688*
X043258Y033686*
X043256Y033684*
X043253Y033681*
X04325Y033677*
X043245Y033674*
X04324Y033671*
X043235Y033668*
X043234*
X043233Y033667*
X043231*
X043229Y033666*
X043227*
X043224Y033665*
X043221*
X043217Y033664*
X043212*
X043208Y033663*
X043202*
X043196Y033662*
X043189*
X043182*
X043069*
Y033694*
X043184*
X043189Y033695*
X043194*
X0432*
X043204*
X043206*
X043208Y033696*
X04321*
X043212Y033697*
X043215Y033698*
X043219Y033699*
X043222Y033701*
X043225Y033703*
X043228Y033706*
X043229Y033707*
X04323Y033709*
X043231Y033712*
X043233Y033714*
X043234Y033718*
X043235Y033723*
Y033727*
Y033728*
Y033729*
Y033731*
X043234Y033734*
Y033737*
X043233Y03374*
X043232Y033743*
X04323Y033746*
X043229Y033747*
X043228Y033748*
X043226Y033749*
X043224Y033751*
X043222Y033753*
X043219Y033754*
X043216Y033755*
X043215Y033756*
X043213*
X043212*
X04321*
X043208Y033757*
X043206*
X043203*
X0432Y033758*
X043196*
X043192*
X043188*
X043069*
Y033791*
X043182*
X043186Y03379*
G37*
G36*
X025162Y030428D02*
X025165D01*
X025168Y030427*
X025171Y030426*
X025175Y030424*
X025179Y030421*
X025169Y030389*
X025168*
X025166Y030391*
X025164Y030392*
X025162Y030393*
X025159Y030394*
X025157Y030395*
X025155*
X025153*
X025152*
X025151Y030394*
X025149*
X025147Y030393*
X025145Y030392*
X025143Y03039*
X025142Y030389*
X025141Y030388*
Y030386*
X025139Y030384*
X025138Y030381*
X025137Y030377*
X025136Y030373*
Y030372*
Y030371*
Y030369*
Y030367*
X025135Y030365*
Y030362*
Y030359*
Y030356*
Y030352*
X025134Y030348*
Y030343*
Y030338*
Y030333*
Y030327*
Y030283*
X025103*
Y030426*
X025132*
Y030405*
Y030406*
X025133Y030407*
X025134Y03041*
X025136Y030413*
X025138Y030416*
X025141Y030419*
X025143Y030422*
X025145Y030424*
X025146Y030425*
X025147Y030426*
X025149*
X025151Y030427*
X025153Y030428*
X025156*
X025158Y030429*
X02516*
X025162Y030428*
G37*
G36*
X023983Y030445D02*
X023952D01*
Y03048*
X023983*
Y030445*
G37*
G36*
X029015Y030731D02*
X02902D01*
X029026Y03073*
X029033Y030729*
X02904Y030728*
X029048Y030726*
X029055Y030725*
X029063Y030722*
X029071Y030719*
X029079Y030716*
X029087Y030712*
X029094Y030708*
X029101Y030702*
X029103Y030701*
X029104Y0307*
X029106Y030698*
X029108Y030695*
X029111Y030692*
X029113Y030689*
X029116Y030684*
X029119Y03068*
X029122Y030674*
X029124Y030669*
X029127Y030663*
X029129Y030656*
X02913Y030649*
X029131Y030642*
X029132Y030634*
Y030633*
Y030632*
X029131Y030629*
Y030626*
Y030623*
X02913Y030618*
X029129Y030614*
X029128Y030609*
X029126Y030603*
X029124Y030598*
X029122Y030592*
X029119Y030586*
X029115Y030581*
X029111Y030575*
X029107Y03057*
X029101Y030565*
Y030564*
X0291Y030563*
X029098Y030562*
X029095Y03056*
X029092Y030558*
X029087Y030555*
X029082Y030553*
X029077Y03055*
X02907Y030547*
X029063Y030545*
X029055Y030542*
X029047Y03054*
X029038Y030538*
X029028Y030537*
X029017Y030536*
X029006*
X029002*
X028999*
X028996*
X028991*
X028986Y030537*
X028981*
X028969Y030539*
X028957Y030541*
X028945Y030544*
X028939Y030546*
X028934Y030549*
X028933*
X028931Y03055*
X028929Y030551*
X028927Y030552*
X028924Y030554*
X028918Y030558*
X028911Y030563*
X028904Y030568*
X028898Y030575*
X028892Y030582*
Y030583*
X028891*
X02889Y030585*
Y030586*
X028888Y030588*
X028887Y030591*
X028886Y030594*
X028884Y030597*
X028882Y030604*
X02888Y030613*
X028878Y030623*
Y030634*
Y030635*
Y030638*
Y030641*
X028879Y030645*
Y030649*
X02888Y030654*
X028882Y030659*
X028883Y030664*
X028886Y03067*
X028888Y030676*
X028891Y030682*
X028895Y030688*
X0289Y030693*
X028905Y030699*
X028911Y030704*
Y030705*
X028912*
X028914Y030707*
X028917Y030709*
X02892Y03071*
X028925Y030713*
X028929Y030716*
X028935Y030718*
X028941Y030721*
X028948Y030723*
X028956Y030725*
X028964Y030727*
X028973Y030729*
X028983Y030731*
X028994*
X029005Y030732*
X02901*
X029015Y030731*
G37*
G36*
X028964Y03051D02*
X028967D01*
X028973Y030509*
X02898Y030508*
X028988Y030506*
X028995Y030503*
X029002Y0305*
X029003*
X029005Y030498*
X029009Y030496*
X029012Y030493*
X029016Y03049*
X029021Y030485*
X029024Y03048*
X029028Y030475*
Y030474*
Y030473*
X029029Y030472*
Y03047*
X02903Y030468*
Y030466*
X029031Y030463*
X029032Y030459*
X029033Y030455*
Y030451*
X029034Y030447*
Y030441*
Y030436*
X029035Y030429*
Y030423*
Y030396*
X029128*
Y030356*
X028882*
Y030421*
Y030422*
Y030424*
Y030427*
Y030429*
Y030433*
Y03044*
Y030449*
X028883Y030456*
Y03046*
X028884Y030463*
Y030466*
X028885Y030469*
X028886Y03047*
Y030472*
X028888Y030475*
X02889Y030479*
X028894Y030484*
X028898Y030489*
X028903Y030494*
X02891Y030498*
Y030499*
X028911*
X028913Y0305*
X028915Y030501*
X028917Y030502*
X028919Y030503*
X028923Y030504*
X02893Y030507*
X028938Y030508*
X028947Y03051*
X028958*
X028962*
X028964*
G37*
G36*
X043102Y033894D02*
X043266D01*
Y033861*
X043102*
Y033813*
X043069*
Y033942*
X043102*
Y033894*
G37*
G36*
X024721Y030283D02*
X024692D01*
Y030304*
X024691Y030302*
X024689Y0303*
X024688Y030297*
X024685Y030295*
X024682Y030292*
X024679Y030289*
X024675Y030286*
X024673Y030285*
X024671Y030284*
X024669Y030283*
X024665Y030282*
X024662Y030281*
X024657Y03028*
X024653*
X024651*
X024649*
X024647Y030281*
X024643*
X02464Y030282*
X024636Y030284*
X024633Y030286*
X024632*
X024631Y030287*
X02463Y030288*
X024628Y03029*
X024625Y030293*
X024623Y030295*
X024621Y030299*
X024619Y030303*
Y030305*
X024618Y030307*
X024617Y030311*
X024616Y030316*
Y030321*
X024615Y030328*
Y030335*
Y030426*
X024646*
Y03036*
Y030359*
Y030357*
Y030355*
Y030353*
Y030351*
Y030345*
Y030339*
X024647Y030333*
Y03033*
Y030328*
Y030326*
Y030324*
X024648Y030323*
Y030322*
X024649Y03032*
X02465Y030316*
X024652Y030314*
X024653Y030313*
X024654Y030312*
X024655Y030311*
X024657*
X024658Y03031*
X02466Y030309*
X024663*
X024665*
X024666*
X024668*
X02467*
X024672Y03031*
X024674Y030311*
X024677Y030312*
X024679Y030314*
X02468*
Y030315*
X024681Y030316*
X024683Y030318*
X024684Y03032*
X024686Y030322*
X024687Y030325*
X024688Y030328*
Y030329*
Y030331*
X024689Y030332*
Y030334*
Y030336*
Y030338*
Y030341*
Y030344*
X02469Y030347*
Y030351*
Y030355*
Y03036*
Y030365*
Y030426*
X024721*
Y030283*
G37*
G36*
X024955Y030398D02*
X024909Y030336D01*
X024894Y030315*
X024896*
X024898*
X024901Y030316*
X024903*
X024906*
X024908*
X024958*
Y030283*
X024854*
Y030312*
X024898Y030373*
Y030374*
X024899Y030376*
X024901Y030378*
X024904Y030382*
X024906Y030385*
X024909Y030389*
X024911Y030392*
X024913Y030395*
X024909*
X024907Y030394*
X024899*
X024858*
Y030426*
X024955*
Y030398*
G37*
G36*
X043266Y034372D02*
X043138Y034307D01*
X043266*
Y034276*
X043069*
Y034308*
X043201Y034374*
X043069*
Y034404*
X043266*
Y034372*
G37*
G36*
X043102Y034032D02*
X043266D01*
Y033999*
X043102*
Y033951*
X043069*
Y034079*
X043102*
Y034032*
G37*
G36*
X043176Y03425D02*
X04318D01*
X043185Y034249*
X04319Y034248*
X043196Y034247*
X043202Y034246*
X043208Y034245*
X043214Y034243*
X043221Y03424*
X043227Y034238*
X043233Y034234*
X043239Y034231*
X043245Y034227*
X043246Y034226*
X043247Y034225*
X043248Y034223*
X04325Y034221*
X043252Y034219*
X043254Y034216*
X043257Y034212*
X043259Y034209*
X043261Y034205*
X043263Y0342*
X043265Y034195*
X043267Y03419*
X043268Y034184*
X043269Y034178*
Y034172*
Y03417*
Y034168*
Y034166*
X043268Y034163*
Y03416*
X043267Y034156*
X043266Y034152*
X043265Y034147*
X043263Y034143*
X043261Y034138*
X043259Y034134*
X043256Y034129*
X043253Y034125*
X043249Y034121*
X043245Y034117*
Y034116*
X043244*
X043242Y034115*
X04324Y034113*
X043237Y034111*
X043233Y034109*
X043229Y034107*
X043225Y034105*
X04322Y034103*
X043214Y034101*
X043208Y034099*
X043201Y034097*
X043194Y034096*
X043186Y034095*
X043178Y034094*
X043169*
X043165*
X043163*
X04316*
X043157*
X043153Y034095*
X043148*
X043139Y034096*
X04313Y034098*
X04312Y0341*
X043115Y034102*
X043111Y034104*
X04311*
X043109Y034105*
X043107Y034106*
X043105Y034107*
X043103Y034108*
X043098Y034111*
X043093Y034115*
X043087Y03412*
X043082Y034125*
X043077Y034131*
Y034132*
X043076Y034133*
X043075Y034134*
Y034136*
X043074Y034138*
X043073Y03414*
X043071Y034142*
X043069Y034148*
X043068Y034155*
X043066Y034163*
Y034172*
Y034173*
Y034175*
Y034178*
X043067Y034181*
Y034184*
X043068Y034188*
X043069Y034192*
X04307Y034196*
X043072Y034201*
X043075Y034206*
X043077Y03421*
X04308Y034215*
X043084Y03422*
X043088Y034224*
X043092Y034228*
X043093Y034229*
X043095Y03423*
X043097Y034232*
X0431Y034233*
X043103Y034235*
X043107Y034237*
X043112Y034239*
X043117Y034241*
X043122Y034243*
X043128Y034245*
X043135Y034247*
X043142Y034248*
X04315Y034249*
X043159Y03425*
X043167*
X043172*
X043176*
G37*
G36*
X043212Y033634D02*
X043214D01*
X043216*
X043221*
X043227Y033632*
X043233Y03363*
X043239Y033628*
X043245Y033624*
X043246*
X043247Y033623*
X04325Y03362*
X043253Y033617*
X043256Y033614*
X043259Y033609*
X043262Y033605*
X043263Y0336*
Y033599*
X043264*
Y033598*
Y033596*
Y033595*
Y033593*
X043265Y033591*
Y033588*
Y033584*
Y033581*
Y033576*
Y033572*
X043266Y033566*
Y033561*
Y033554*
Y033499*
X043069*
Y033564*
Y033565*
Y033567*
Y033568*
Y03357*
Y033573*
X04307Y033579*
Y033585*
X043071Y033591*
X043072Y033597*
X043073Y033599*
X043074Y033601*
Y033602*
X043075Y033603*
X043076Y033605*
X043078Y033608*
X04308Y03361*
X043083Y033613*
X043087Y033616*
X043091Y033619*
X043092Y03362*
X043093*
X043096Y033622*
X043099Y033623*
X043103Y033625*
X043108Y033626*
X043113Y033627*
X043119*
X043121*
X043124*
X043127Y033626*
X043131Y033625*
X043135Y033624*
X04314Y033623*
X043144Y03362*
X043145*
X043146Y033619*
X043148Y033618*
X043151Y033616*
X043153Y033613*
X043156Y033611*
X043159Y033608*
X043161Y033604*
X043162*
Y033606*
X043164Y033609*
X043165Y033612*
X043168Y033616*
X043171Y03362*
X043174Y033623*
X043179Y033627*
X043181Y033628*
X043183Y033629*
X043187Y033631*
X043192Y033632*
X043197Y033634*
X043202*
X043209Y033635*
X043211*
X043212Y033634*
G37*
G36*
X0433Y033356D02*
X043286D01*
Y033485*
X0433*
Y033356*
G37*
G36*
X043266Y032821D02*
X043221Y032807D01*
Y032742*
X043266Y032729*
Y032694*
X043069Y032757*
Y032791*
X043266Y032856*
Y032821*
G37*
G36*
X043102Y032942D02*
X043266D01*
Y03291*
X043102*
Y032862*
X043069*
Y03299*
X043102*
Y032942*
G37*
G36*
X043176Y03316D02*
X04318D01*
X043185*
X04319Y033159*
X043196Y033158*
X043202Y033157*
X043208Y033155*
X043214Y033153*
X043221Y033151*
X043227Y033148*
X043233Y033145*
X043239Y033141*
X043245Y033137*
X043246*
X043247Y033135*
X043248Y033134*
X04325Y033132*
X043252Y033129*
X043254Y033126*
X043257Y033123*
X043259Y033119*
X043261Y033115*
X043263Y033111*
X043265Y033106*
X043267Y0331*
X043268Y033095*
X043269Y033089*
Y033082*
Y033081*
Y033079*
Y033077*
X043268Y033074*
Y03307*
X043267Y033066*
X043266Y033062*
X043265Y033058*
X043263Y033054*
X043261Y033049*
X043259Y033044*
X043256Y03304*
X043253Y033035*
X043249Y033031*
X043245Y033027*
X043244Y033026*
X043242Y033025*
X04324Y033024*
X043237Y033022*
X043233Y03302*
X043229Y033018*
X043225Y033016*
X04322Y033013*
X043214Y033011*
X043208Y033009*
X043201Y033008*
X043194Y033006*
X043186Y033005*
X043178Y033004*
X043169*
X043165*
X043163*
X04316*
X043157Y033005*
X043153*
X043148*
X043139Y033007*
X04313Y033008*
X04312Y033011*
X043115Y033013*
X043111Y033014*
X04311Y033015*
X043109*
X043107Y033016*
X043105Y033017*
X043103Y033018*
X043098Y033022*
X043093Y033026*
X043087Y03303*
X043082Y033036*
X043077Y033041*
Y033042*
X043076Y033043*
X043075Y033044*
Y033046*
X043074Y033048*
X043073Y03305*
X043071Y033053*
X043069Y033059*
X043068Y033066*
X043066Y033074*
Y033082*
Y033083*
Y033084*
Y033086*
Y033088*
X043067Y033091*
Y033095*
X043068Y033098*
X043069Y033102*
X04307Y033107*
X043072Y033112*
X043075Y033116*
X043077Y033121*
X04308Y033125*
X043084Y03313*
X043088Y033135*
X043092Y033139*
X043093*
Y03314*
X043095Y033141*
X043097Y033142*
X0431Y033144*
X043103Y033146*
X043107Y033148*
X043112Y03315*
X043117Y033152*
X043122Y033154*
X043128Y033156*
X043135Y033157*
X043142Y033159*
X04315Y03316*
X043159*
X043167Y033161*
X043172*
X043176Y03316*
G37*
G36*
X043266Y033312D02*
X043111D01*
X043266Y033279*
Y033248*
X043111Y033216*
X043266*
Y033186*
X043069*
Y033234*
X043204Y033264*
X043069Y033293*
Y033342*
X043266*
Y033312*
G37*
G36*
X029095Y032072D02*
X029096Y03207D01*
X029099Y032067*
X029103Y032063*
X029107Y032058*
X029112Y032051*
X029116Y032044*
X029121Y032035*
Y032034*
X029122Y032033*
X029123Y032031*
Y032029*
X029124Y032026*
X029126Y03202*
X029128Y032013*
X02913Y032004*
X029131Y031995*
X029132Y031986*
Y031985*
Y031983*
X029131Y031981*
Y031979*
Y031976*
Y031972*
X02913Y031968*
X029128Y03196*
X029125Y031951*
X029122Y031942*
X029117Y031934*
Y031933*
X029116Y031932*
Y031931*
X029114Y03193*
X029111Y031926*
X029106Y03192*
X0291Y031915*
X029092Y031908*
X029084Y031903*
X029073Y031897*
X029072Y031896*
X02907*
X029068Y031895*
X029065Y031894*
X029062Y031893*
X029058Y031892*
X029054Y031891*
X029049Y031889*
X029044Y031888*
X029038Y031887*
X029032Y031886*
X029019Y031885*
X029005Y031884*
X029001*
X028998*
X028994*
X02899Y031885*
X028986*
X028981Y031886*
X02897Y031887*
X028958Y03189*
X028946Y031893*
X028935Y031897*
X028934Y031898*
X028932Y031899*
X02893Y0319*
X028928Y031901*
X028925Y031903*
X028919Y031907*
X028912Y031912*
X028905Y031918*
X028898Y031925*
X028892Y031932*
Y031933*
X028891Y031934*
Y031935*
X02889Y031936*
X028889Y031938*
X028887Y031941*
X028886Y031944*
X028885Y031947*
X028882Y031955*
X02888Y031963*
X028878Y031973*
Y031984*
Y031986*
Y031988*
Y03199*
Y031993*
X028879Y031997*
Y032001*
X02888Y032005*
X028882Y032014*
X028885Y032024*
X028887Y032029*
X02889Y032033*
X028893Y032038*
X028896Y032042*
X028897*
Y032043*
X028898Y032044*
X028899Y032046*
X028902Y032047*
X028904Y032049*
X028907Y032051*
X02891Y032054*
X028914Y032056*
X028918Y032058*
X028922Y032061*
X028927Y032063*
X028932Y032065*
X028938Y032067*
X028944Y032069*
X02895Y03207*
X028959Y03203*
X028956Y032029*
X028953Y032028*
X028949Y032026*
X028944Y032024*
X028939Y032021*
X028934Y032017*
X02893Y032013*
X028929Y032011*
X028927Y032009*
X028925Y032005*
X028923Y032001*
X028922Y031996*
X028921Y031991*
X02892Y031984*
Y031983*
Y031982*
X028921Y03198*
Y031978*
Y031975*
X028923Y03197*
X028925Y031963*
X028929Y031956*
X028931Y031952*
X028934Y031949*
X028937Y031946*
X028941Y031942*
X028942*
X028943Y031941*
X028944Y03194*
X028946Y031939*
X028949Y031937*
X028952Y031936*
X028956Y031934*
X02896Y031933*
X028964Y031931*
X028969Y03193*
X028975Y031929*
X028981Y031928*
X028988Y031927*
X028994*
X029002Y031926*
X029006*
X029009Y031927*
X029013*
X029017*
X029022Y031928*
X029027*
X029038Y031931*
X029049Y031934*
X02906Y031938*
X029065Y03194*
X029069Y031943*
X02907Y031944*
X029072Y031946*
X029076Y03195*
X029079Y031954*
X029083Y03196*
X029086Y031967*
X029088Y031975*
X029089Y031979*
Y031984*
Y031986*
Y031988*
X029088Y031991*
Y031995*
X029087Y031999*
X029085Y032004*
X029084Y032009*
X029083*
Y032011*
X029081Y032013*
X02908Y032017*
X029077Y03202*
X029075Y032024*
X029072Y032028*
X029068Y032032*
X029037*
Y031985*
X028996*
Y032073*
X029094*
X029095Y032072*
G37*
G36*
X029128Y03103D02*
X028882D01*
Y03118*
X028923*
Y03107*
X028978*
Y031172*
X029019*
Y03107*
X029086*
Y031183*
X029128*
Y03103*
G37*
G36*
Y030959D02*
Y030916D01*
X028944Y030876*
X029128Y030836*
Y030791*
X028882Y030744*
Y030785*
X029051Y030815*
X028882Y030852*
Y0309*
X029054Y030936*
X028882Y030967*
Y031008*
X029128Y030959*
G37*
G36*
Y03135D02*
X029074Y031321D01*
X029073Y03132*
X029071Y031319*
X029069Y031318*
X029067Y031317*
X029065Y031315*
X029059Y031312*
X029053Y031309*
X029046Y031305*
X029044Y031303*
X029042Y031302*
X02904Y0313*
X029038Y031299*
X029037Y031298*
X029036Y031297*
X029034Y031295*
X029031Y031292*
X029029Y03129*
X029028Y031287*
Y031286*
X029027Y031284*
X029026Y031282*
Y031279*
X029025Y031276*
Y031272*
Y031267*
Y031259*
X029128*
Y031218*
X028882*
Y031304*
Y031305*
Y031307*
Y031309*
Y031312*
Y031315*
Y031322*
X028883Y03133*
X028884Y031337*
X028886Y031345*
X028887Y031348*
X028888Y031351*
X028889*
X02889Y031353*
X028891Y031356*
X028894Y031359*
X028897Y031363*
X028901Y031366*
X028906Y03137*
X028911Y031374*
X028912*
X028914Y031376*
X028918Y031377*
X028922Y031379*
X028928Y03138*
X028935Y031382*
X028942Y031383*
X028951*
X028954*
X028955*
X028958*
X028961Y031382*
X028967Y031381*
X028975Y03138*
X028982Y031377*
X02899Y031374*
X028997Y031369*
X028998*
Y031368*
X029Y031366*
X029003Y031363*
X029006Y031359*
X02901Y031353*
X029014Y031346*
X029017Y031339*
X029019Y03133*
X02902*
X029021Y031332*
X029023Y031334*
X029025Y031337*
X029028Y031341*
X029032Y031344*
X029036Y031348*
X02904Y031351*
X029042Y031353*
X029045Y031355*
X029049Y031357*
X029054Y031361*
X029058Y031362*
X029061Y031365*
X029065Y031367*
X02907Y031369*
X029075Y031372*
X02908Y031374*
X029128Y031399*
Y03135*
G37*
G36*
Y031703D02*
X028882D01*
Y031853*
X028923*
Y031744*
X028978*
Y031845*
X029019*
Y031744*
X029086*
Y031857*
X029128*
Y031703*
G37*
G36*
Y031632D02*
X029074Y031603D01*
X029073Y031602*
X029071Y031601*
X029069Y0316*
X029067Y031599*
X029065Y031597*
X029059Y031594*
X029053Y03159*
X029046Y031587*
X029044Y031585*
X029042Y031583*
X02904Y031582*
X029038Y031581*
Y03158*
X029037*
X029036Y031579*
X029034Y031577*
X029031Y031574*
X029029Y031571*
X029028Y031569*
Y031568*
X029027Y031566*
X029026Y031564*
Y031561*
X029025Y031558*
Y031553*
Y031548*
Y03154*
X029128*
Y0315*
X028882*
Y031586*
Y031587*
Y031589*
Y031591*
Y031594*
Y031597*
Y031604*
X028883Y031611*
X028884Y031619*
X028886Y031626*
X028887Y03163*
X028888Y031632*
X028889Y031633*
X02889Y031635*
X028891Y031638*
X028894Y031641*
X028897Y031644*
X028901Y031648*
X028906Y031652*
X028911Y031656*
X028912*
X028914Y031657*
X028918Y031659*
X028922Y031661*
X028928Y031662*
X028935Y031663*
X028942Y031665*
X028951*
X028954*
X028955*
X028958*
X028961Y031664*
X028967Y031663*
X028975Y031662*
X028982Y031659*
X02899Y031655*
X028997Y031651*
X028998*
Y03165*
X029Y031648*
X029003Y031645*
X029006Y031641*
X02901Y031635*
X029014Y031628*
X029017Y03162*
X029019Y031611*
X02902Y031612*
X029021Y031614*
X029023Y031616*
X029025Y031619*
X029028Y031622*
X029032Y031626*
X029036Y03163*
X02904Y031633*
X029042Y031634*
X029045Y031636*
X029049Y031639*
X029054Y031642*
X029058Y031644*
X029061Y031646*
X029065Y031648*
X02907Y031651*
X029075Y031654*
X02908Y031656*
X029128Y031681*
Y031632*
G37*
G36*
X027094Y03037D02*
X027095D01*
X027097Y030369*
X027099Y030368*
X027102Y030367*
X027104Y030366*
X027098Y030345*
X027097Y030346*
X027096*
X027095Y030347*
X027094Y030348*
X027092Y030349*
X02709*
X027089*
X027088*
X027087*
X027086*
X027085Y030348*
X027084*
X027083Y030347*
X027082Y030346*
X027081Y030345*
X02708Y030344*
X027079Y030342*
Y03034*
X027078Y030338*
X027077Y030335*
Y030334*
Y030333*
Y030332*
Y03033*
Y030329*
Y030327*
X027076Y030325*
Y030323*
Y03032*
Y030317*
Y030314*
Y03031*
Y030307*
Y030279*
X027057*
Y030368*
X027075*
Y030356*
Y030357*
X027076Y030358*
X027077Y03036*
X027079Y030362*
X02708Y030364*
X027081Y030366*
X027083Y030367*
Y030368*
X027084*
X027085Y030369*
X027086*
X027088Y03037*
X02709*
X027091*
X027092*
X027094*
G37*
G36*
X026843D02*
X026844D01*
X026846Y030369*
X026849Y030368*
X026851Y030367*
X026853Y030366*
X026847Y030345*
X026846Y030346*
X026845*
X026844Y030347*
X026843Y030348*
X026841Y030349*
X02684*
X026838*
X026837*
X026836*
X026835Y030348*
X026833*
X026832Y030347*
X026831Y030346*
X02683Y030345*
X026829Y030344*
Y030342*
X026828Y03034*
X026827Y030338*
Y030335*
X026826Y030334*
Y030333*
Y030332*
Y03033*
Y030329*
Y030327*
Y030325*
Y030323*
X026825Y03032*
Y030317*
Y030314*
Y03031*
Y030307*
Y030279*
X026806*
Y030368*
X026824*
Y030356*
X026825Y030357*
Y030358*
X026827Y03036*
X026828Y030362*
X026829Y030364*
X026831Y030366*
X026832Y030367*
Y030368*
X026833*
X026834Y030369*
X026836*
X026837Y03037*
X026839*
X02684*
X026841*
X026843*
G37*
G36*
X026647D02*
X026649D01*
X026651Y030369*
X026653Y030368*
X026655Y030367*
X026657Y030366*
X026651Y030345*
Y030346*
X02665*
X026648Y030347*
X026647Y030348*
X026645Y030349*
X026644*
X026642*
X026641*
X02664*
X026639Y030348*
X026638*
X026637Y030347*
X026635Y030346*
Y030345*
X026634*
Y030344*
X026633Y030342*
X026632Y03034*
X026631Y030338*
Y030335*
Y030334*
Y030333*
Y030332*
X02663Y03033*
Y030329*
Y030327*
Y030325*
Y030323*
Y03032*
Y030317*
Y030314*
Y03031*
Y030307*
Y030279*
X02661*
Y030368*
X026628*
Y030356*
X026629Y030357*
X02663Y030358*
X026631Y03036*
X026632Y030362*
X026634Y030364*
X026635Y030366*
X026636Y030367*
X026637Y030368*
X026638*
X026639Y030369*
X02664*
X026641Y03037*
X026643*
X026645*
X026646*
X026647*
G37*
G36*
X024063Y030428D02*
X024065D01*
X024068*
X024073Y030426*
X02408Y030424*
X024083Y030423*
X024086Y030421*
X024089Y030419*
X024092Y030416*
X024095Y030413*
X024098Y03041*
X024099Y030409*
X0241Y030408*
X024101Y030406*
X024102Y030404*
X024103Y030401*
X024105Y030398*
X024106Y030394*
X024108Y03039*
X024109Y030385*
X024111Y03038*
X024112Y030375*
X024113Y030369*
X024114Y030362*
Y030355*
Y030348*
Y030343*
X024037*
Y030342*
Y030341*
Y030338*
X024038Y030334*
X024039Y030329*
X02404Y030325*
X024042Y030321*
X024044Y030317*
X024045*
X024046Y030316*
X024047Y030314*
X024049Y030313*
X024052Y030311*
X024055Y030309*
X024058Y030308*
X024062*
X024063*
X024064*
X024067Y030309*
X02407Y030311*
X024072*
X024073Y030313*
X024075Y030315*
X024077Y030317*
X024078Y030319*
X02408Y030322*
X024081Y030325*
X024082Y030328*
X024113Y030322*
Y030321*
X024112Y03032*
Y030318*
X024111Y030317*
X02411Y030315*
X024108Y03031*
X024105Y030305*
X024102Y030299*
X024098Y030294*
X024094Y03029*
X024093*
X024091Y030288*
X024089Y030287*
X024085Y030285*
X02408Y030283*
X024075Y030281*
X024068Y03028*
X024062*
X024059*
X024057*
X024055*
X024053Y030281*
X024047Y030282*
X024041Y030284*
X024037Y030285*
X024034Y030287*
X024031Y030289*
X024028Y030291*
X024025Y030294*
X024022Y030297*
X024021Y030298*
X02402Y030299*
X024019Y030301*
X024018Y030303*
X024017Y030305*
X024015Y030308*
X024014Y030311*
X024012Y030315*
X024011Y03032*
X024009Y030324*
X024008Y030329*
X024007Y030335*
X024006Y030341*
Y030347*
X024005Y030353*
Y030354*
Y030355*
Y030357*
X024006Y030359*
Y030362*
Y030366*
X024007Y03037*
Y030374*
X024009Y030383*
X024011Y030388*
X024012Y030392*
X024014Y030397*
X024016Y030402*
X024019Y030406*
X024022Y03041*
Y030411*
X024023*
Y030412*
X024025Y030413*
X024026Y030415*
X024028Y030416*
X024032Y03042*
X024037Y030423*
X024043Y030426*
X024047Y030427*
X024051Y030428*
X024055*
X024059Y030429*
X024061*
X024063Y030428*
G37*
G36*
X026881Y03038D02*
X026862D01*
Y030402*
X026881*
Y03038*
G37*
G36*
X02591D02*
X02589D01*
Y030402*
X02591*
Y03038*
G37*
G36*
X027974Y031038D02*
X027905D01*
Y03108*
X027974*
Y031038*
G37*
G36*
X028176Y030979D02*
X028142D01*
Y031154*
X028106Y030979*
X028071*
X028034Y031154*
Y030979*
X028*
Y0312*
X028055*
X028088Y031049*
X028121Y0312*
X028176*
Y030979*
G37*
G36*
X0285D02*
X028463D01*
Y031076*
X028391*
Y030979*
X028355*
Y0312*
X028391*
Y031113*
X028463*
Y0312*
X0285*
Y030979*
G37*
G36*
X024656Y030909D02*
X024622D01*
Y031084*
X024586Y030909*
X024551*
X024514Y031084*
Y030909*
X02448*
Y03113*
X024535*
X024568Y030979*
X024601Y03113*
X024656*
Y030909*
G37*
G36*
X02498D02*
X024943D01*
Y031006*
X024871*
Y030909*
X024835*
Y03113*
X024871*
Y031043*
X024943*
Y03113*
X02498*
Y030909*
G37*
G36*
X028337Y03094D02*
X028192D01*
Y030955*
X028337*
Y03094*
G37*
G36*
X02431Y030428D02*
X024312D01*
X024315*
X024318Y030427*
X024321Y030426*
X024325Y030425*
X024329Y030423*
X024332Y030421*
X024336Y030419*
X02434Y030417*
X024343Y030414*
X024346Y03041*
X02435Y030407*
Y030406*
X024351Y030404*
X024352Y030403*
X024353Y0304*
X024355Y030398*
X024356Y030395*
X024358Y030392*
X024359Y030388*
X024361Y030384*
X024362Y03038*
X024363Y030375*
X024365Y030366*
X024366Y03036*
Y030355*
Y030354*
Y030353*
Y030351*
Y030349*
Y030347*
X024365Y030342*
X024364Y030336*
X024362Y030329*
X02436Y030322*
X024357Y030315*
Y030314*
Y030313*
X024356Y030312*
X024354Y030309*
X024352Y030305*
X024348Y030301*
X024345Y030296*
X02434Y030292*
X024335Y030288*
X024333Y030287*
X02433Y030286*
X024327Y030284*
X024322Y030283*
X024317Y030281*
X024311Y03028*
X024305*
X024303*
X024301*
X024299*
X024296Y030281*
X024293*
X02429Y030282*
X024284Y030285*
X02428Y030286*
X024276Y030288*
X024273Y03029*
X024269Y030293*
X024265Y030296*
X024262Y030299*
Y0303*
X024261*
Y030302*
X02426Y030303*
X024258Y030305*
X024257Y030308*
X024255Y030311*
X024254Y030314*
X024252Y030318*
X024251Y030322*
X024249Y030327*
X024248Y030332*
X024247Y030337*
X024246Y030343*
X024245Y030349*
Y030356*
Y030357*
Y030358*
Y030359*
Y030361*
X024246Y030364*
Y030368*
X024247Y030375*
X024249Y030381*
X024251Y030387*
X024253Y030394*
X024254Y030395*
Y030396*
X024255Y030397*
X024257Y0304*
X024259Y030404*
X024262Y030408*
X024266Y030412*
X02427Y030416*
X024275Y03042*
X024276*
X024277Y030421*
X02428Y030423*
X024284Y030424*
X024288Y030426*
X024293Y030427*
X024299Y030428*
X024305Y030429*
X024308*
X02431Y030428*
G37*
G36*
X024228Y030398D02*
X024183Y030336D01*
X024167Y030315*
X024168*
X024169*
X024172*
X024174Y030316*
X024177*
X02418*
X024182*
X024232*
Y030283*
X024127*
Y030312*
X024171Y030373*
Y030374*
X024172*
X024173Y030376*
X024175Y030378*
X024177Y030382*
X02418Y030385*
X024182Y030389*
X024185Y030392*
X024187Y030395*
X024183*
X024181Y030394*
X024173*
X024132*
Y030426*
X024228*
Y030398*
G37*
G36*
X023983Y030283D02*
X023952D01*
Y030426*
X023983*
Y030283*
G37*
G36*
X024817Y03087D02*
X024672D01*
Y030885*
X024817*
Y03087*
G37*
G36*
X024842Y030398D02*
X024797Y030336D01*
X024781Y030315*
X024783*
X024785*
X024788Y030316*
X02479*
X024793*
X024795*
X024845*
Y030283*
X024741*
Y030312*
X024785Y030373*
Y030374*
X024786Y030376*
X024788Y030378*
X024791Y030382*
X024793Y030385*
X024796Y030389*
X024798Y030392*
X0248Y030395*
X024797*
X024795Y030394*
X024786*
X024745*
Y030426*
X024842*
Y030398*
G37*
G36*
X024527Y030479D02*
X024532D01*
X024538Y030478*
X024544*
X02455Y030476*
X024552*
X024555Y030475*
Y030474*
X024556*
X024559Y030472*
X024561Y030471*
X024564Y030468*
X024567Y030465*
X02457Y030462*
X024573Y030458*
Y030457*
X024574Y030455*
X024575Y030453*
X024577Y03045*
X024578Y030446*
X024579Y030441*
X02458Y030436*
Y03043*
Y030428*
Y030425*
X024579Y030422*
Y030418*
X024578Y030413*
X024576Y030409*
X024574Y030404*
X024573Y030403*
X024571Y0304*
X02457Y030398*
X024567Y030395*
X024564Y030392*
X024561Y03039*
X024557Y030387*
X024558*
X02456*
X024562Y030385*
X024566Y030383*
X024569Y030381*
X024573Y030378*
X024577Y030374*
X02458Y03037*
Y030369*
X024581Y030368*
X024583Y030365*
X024584Y030361*
X024586Y030357*
X024587Y030352*
X024588Y030346*
Y03034*
Y030339*
Y030338*
Y030336*
Y030334*
Y030332*
X024587Y030327*
X024586Y030322*
X024584Y030316*
X024581Y030309*
X024578Y030304*
Y030303*
X024577*
X024576Y030301*
X024574Y030299*
X024571Y030296*
X024567Y030293*
X024563Y03029*
X024558Y030287*
X024553Y030285*
X024552*
X024551*
X02455*
X024548*
X024546Y030284*
X024544*
X024541*
X024538*
X024534*
X02453Y030283*
X024525*
X02452*
X024453*
Y03048*
X024524*
X024527Y030479*
G37*
G36*
X023869D02*
X023876D01*
X023882Y030478*
X023885*
X023887*
X02389Y030477*
X023892*
Y030476*
X023894*
X023897Y030474*
X0239Y030473*
X023904Y03047*
X023908Y030467*
X023912Y030462*
X023915Y030457*
X023916*
Y030456*
X023917Y030455*
X023918Y030453*
Y030451*
X023919Y030449*
X02392Y030447*
X023922Y030441*
X023924Y030435*
X023925Y030427*
Y030419*
Y030418*
Y030417*
Y030415*
Y030414*
Y030411*
X023924Y030406*
X023923Y030401*
X023922Y030395*
X023919Y030389*
X023917Y030383*
Y030382*
X023915Y030381*
X023914Y030378*
X023911Y030375*
X023908Y030372*
X023905Y030368*
X023901Y030366*
X023897Y030363*
X023896*
X023895Y030362*
X023894*
X023893Y030361*
X023891*
X023889*
X023887Y03036*
X023884Y030359*
X023881*
X023878*
X023874Y030358*
X02387*
X023865Y030357*
X02386*
X023834*
Y030283*
X023801*
Y03048*
X023863*
X023869Y030479*
G37*
G36*
X024404Y031038D02*
X024452D01*
Y030998*
X024404*
Y030941*
X024372*
Y030998*
X024324*
Y031038*
X024372*
Y031096*
X024404*
Y031038*
G37*
G36*
X025028Y030428D02*
X02503D01*
X025032*
X025038Y030426*
X025044Y030424*
X025047Y030423*
X025051Y030421*
X025054Y030419*
X025057Y030416*
X02506Y030413*
X025063Y03041*
Y030409*
X025064Y030408*
X025065Y030406*
X025067Y030404*
X025068Y030401*
X02507Y030398*
X025071Y030394*
X025072Y03039*
X025074Y030385*
X025075Y03038*
X025077Y030375*
X025078Y030369*
X025079Y030362*
Y030355*
Y030348*
Y030343*
X025002*
Y030342*
Y030341*
Y030338*
X025003Y030334*
Y030329*
X025005Y030325*
X025007Y030321*
X025009Y030317*
X02501Y030316*
X025012Y030314*
X025014Y030313*
X025017Y030311*
X02502Y030309*
X025023Y030308*
X025027*
X025029*
X025032Y030309*
X025035Y030311*
X025036*
X025038Y030313*
X02504Y030315*
X025042Y030317*
X025043Y030319*
X025045Y030322*
X025046Y030325*
X025047Y030328*
X025078Y030322*
X025077Y030321*
Y03032*
Y030318*
X025076Y030317*
X025075Y030315*
X025073Y03031*
X02507Y030305*
X025067Y030299*
X025063Y030294*
X025058Y03029*
X025056Y030288*
X025053Y030287*
X025049Y030285*
X025045Y030283*
X025039Y030281*
X025033Y03028*
X025026*
X025024*
X025022*
X02502*
X025017Y030281*
X025012Y030282*
X025005Y030284*
X025002Y030285*
X024999Y030287*
X024995Y030289*
X024992Y030291*
X024989Y030294*
X024987Y030297*
X024986*
Y030298*
X024985Y030299*
X024984Y030301*
X024983Y030303*
X024981Y030305*
X02498Y030308*
X024978Y030311*
X024977Y030315*
X024975Y03032*
X024974Y030324*
X024973Y030329*
X024971Y030335*
Y030341*
X02497Y030347*
Y030353*
Y030354*
Y030355*
Y030357*
Y030359*
X024971Y030362*
Y030366*
Y03037*
X024972Y030374*
X024974Y030383*
X024976Y030388*
X024977Y030392*
X024979Y030397*
X024981Y030402*
X024984Y030406*
X024987Y03041*
Y030411*
X024988Y030412*
X024989Y030413*
X024991Y030415*
X024992Y030416*
X024996Y03042*
X025002Y030423*
X025008Y030426*
X025012Y030427*
X025015Y030428*
X025019*
X025024Y030429*
X025026*
X025028Y030428*
G37*
%LNvapeix_mini_pcb-2*%
%LPC*%
G36*
X038776Y036706D02*
X038767D01*
X038766Y036705*
X038763*
X038759*
X038756*
X038752Y036704*
X038749*
X038748Y036703*
X038747*
X038745Y036702*
X038743Y036701*
X038741Y0367*
X038739Y036699*
X038737Y036698*
X038736Y036697*
X038735Y036696*
X038734Y036695*
X038733Y036694*
X038732Y036692*
X038731Y03669*
Y036688*
Y036687*
X03873Y036686*
Y036684*
Y036682*
Y036679*
Y036676*
Y036674*
Y036672*
Y036662*
X038811*
Y036678*
Y036679*
Y036681*
Y036683*
Y036685*
X03881Y036688*
Y03669*
X038809Y036692*
Y036693*
X038808Y036694*
X038806Y036697*
X038804Y036699*
X038803*
X038802Y0367*
X038801*
X038799Y036701*
X038797Y036702*
X038795Y036703*
X038792Y036704*
X038791*
X038789*
X038786Y036705*
X038783*
X03878*
X038776Y036706*
G37*
G36*
X037796Y036686D02*
X037787D01*
X037786*
X037783*
X037779Y036685*
X037776*
X037772*
X037769Y036684*
X037768Y036683*
X037767*
X037765Y036682*
X037763*
X037761Y036681*
X037759Y036679*
X037757Y036678*
X037756Y036677*
X037755Y036676*
X037754Y036675*
X037753Y036674*
X037752Y036672*
X037751Y03667*
Y036668*
Y036667*
X03775Y036666*
Y036665*
Y036662*
Y03666*
Y036656*
Y036654*
Y036652*
Y036643*
X037831*
Y036658*
Y036659*
Y036661*
Y036663*
Y036666*
X03783Y036668*
Y03667*
X037829Y036672*
Y036673*
X037828Y036675*
X037826Y036677*
X037824Y036679*
X037823Y03668*
X037822*
X037821Y036681*
X037819*
X037817Y036682*
X037815Y036683*
X037812Y036684*
X037811*
X037809Y036685*
X037806*
X037803*
X0378*
X037796Y036686*
G37*
G36*
Y036788D02*
X037787D01*
X037786Y036787*
X037783*
X037779*
X037776*
X037772Y036786*
X037769*
X037768Y036785*
X037767*
X037765Y036784*
X037763Y036783*
X037761Y036782*
X037759Y036781*
X037757Y03678*
X037756Y036779*
X037755Y036778*
X037754Y036777*
X037753Y036776*
X037752Y036774*
X037751Y036772*
Y03677*
Y036769*
X03775Y036768*
Y036766*
Y036764*
Y036761*
Y036758*
Y036756*
Y036754*
Y036744*
X037831*
Y03676*
Y036761*
Y036763*
Y036765*
Y036767*
X03783Y03677*
Y036772*
X037829Y036774*
Y036775*
X037828Y036776*
X037826Y036779*
X037824Y036781*
X037823*
X037822Y036782*
X037821*
X037819Y036783*
X037817Y036784*
X037815Y036785*
X037812Y036786*
X037811*
X037809*
X037806Y036787*
X037803*
X0378*
X037796Y036788*
G37*
G36*
X037806Y035772D02*
X037797D01*
X037796*
X037793*
X037789Y035771*
X037786*
X037782*
X037779Y03577*
X037778*
X037777Y035769*
X037775*
X037773Y035768*
X037771Y035767*
X037769Y035766*
X037767Y035764*
X037766Y035763*
X037765*
X037764Y035761*
X037763Y03576*
X037762Y035758*
X037761Y035757*
Y035755*
Y035754*
X03776Y035753*
Y035751*
Y035749*
Y035746*
Y035742*
Y03574*
Y035738*
Y035729*
X037841*
Y035744*
Y035745*
Y035746*
Y035747*
Y035749*
Y035752*
X03784Y035754*
Y035756*
X037839Y035758*
Y035759*
Y03576*
X037838Y035761*
X037836Y035763*
X037834Y035765*
X037833Y035766*
X037832*
X037831Y035767*
X037829Y035768*
X037827Y035769*
X037825*
X037822Y03577*
X037821*
X037819Y035771*
X037816*
X037813*
X03781Y035772*
X037806*
G37*
G36*
X026243Y030382D02*
X026224D01*
Y030353*
X026244*
X026246Y030354*
X026251*
X026252*
X026253*
X026254*
X026255*
X026257Y030355*
X026258Y030356*
X026259Y030357*
X02626Y030358*
X026261*
Y030359*
X026262Y03036*
X026263Y030362*
Y030364*
Y030366*
Y030368*
Y030369*
Y03037*
Y030371*
X026262Y030374*
Y030375*
X026261Y030376*
Y030377*
X02626*
X026259Y030378*
X026257Y03038*
X026256*
X026255Y030381*
X026254*
X026253*
X026252*
X026251*
X026249*
X026247*
X026245*
X026243Y030382*
G37*
G36*
X026245Y030333D02*
X026224D01*
Y0303*
X026247*
X026249*
X026252*
X026255*
X026257Y030301*
X026258*
X026259*
X02626Y030302*
X026261*
X026262Y030303*
X026263Y030304*
X026264Y030305*
X026265Y030306*
Y030307*
Y030308*
X026266Y030309*
Y03031*
X026267Y030312*
Y030314*
Y030316*
Y030317*
Y030318*
Y030319*
X026266Y030321*
Y030323*
X026265Y030324*
X026264Y030326*
X026263Y030327*
Y030328*
X026262Y030329*
X026261Y03033*
X026259*
X026258Y030331*
X026257*
X026256Y030332*
X026254*
X026252*
X026249Y030333*
X026247*
X026245*
G37*
G36*
X026739Y030381D02*
X026725D01*
Y0303*
X026742*
X026744*
X026746*
X026748*
X026751Y030301*
X026753*
X026755Y030302*
X026756*
X026757Y030303*
X02676Y030305*
X026762Y030307*
Y030308*
X026763Y030309*
Y03031*
X026764Y030312*
X026765Y030314*
X026766Y030316*
X026767Y030319*
Y03032*
Y030322*
X026768Y030325*
Y030328*
Y030331*
X026769Y030335*
Y03034*
Y030341*
Y030342*
Y030344*
X026768Y030345*
Y030348*
Y030352*
Y030355*
X026767Y030359*
Y030362*
X026766Y030363*
Y030364*
X026765Y030366*
X026764Y030368*
X026763Y03037*
X026762Y030372*
X026761Y030374*
X02676*
Y030375*
X026759Y030376*
X026758Y030377*
X026756Y030378*
X026755Y030379*
X026753Y03038*
X026751*
X02675*
X026749Y030381*
X026747*
X026745*
X026742*
X026739*
G37*
G36*
X025958Y030352D02*
X025957D01*
X025956*
X025955*
X025953Y030351*
X025951Y03035*
X025949Y030348*
X025948Y030347*
Y030346*
X025947*
Y030344*
X025946Y030343*
X025945Y03034*
X025944Y030338*
Y030335*
Y030331*
X025973*
Y030332*
Y030333*
X025972Y030335*
Y030337*
Y03034*
X025971Y030342*
X02597Y030345*
X025968Y030347*
Y030348*
X025967Y030349*
X025966Y03035*
X025964Y030351*
X025962Y030352*
X02596*
X025958*
G37*
G36*
X026111Y030351D02*
D01*
X02611*
X026109*
X026107Y03035*
X026105Y030349*
X026103Y030348*
X026101Y030346*
X026099Y030344*
X026098Y030343*
X026097Y030341*
X026096Y030339*
X026095Y030336*
X026094Y030332*
Y030328*
X026093Y030324*
Y030323*
Y030322*
Y030321*
X026094Y03032*
Y030319*
Y030316*
X026095Y030313*
X026096Y030309*
X026097Y030306*
X026099Y030303*
X0261Y030302*
X026101Y030301*
X026102Y0303*
X026104Y030299*
X026106Y030297*
X026109*
X026111Y030296*
X026112*
X026113Y030297*
X026114*
X026116*
X026118Y030298*
X02612Y030299*
X026122Y030301*
X026124Y030303*
Y030304*
X026125Y030305*
X026126Y030306*
X026127Y030308*
X026128Y030311*
X026129Y030315*
Y030319*
Y030324*
Y030325*
Y030326*
Y030327*
Y030328*
Y030331*
X026128Y030334*
X026127Y030338*
X026126Y030341*
X026124Y030344*
X026123Y030345*
X026122Y030346*
X02612Y030348*
X026118Y030349*
X026116Y03035*
X026114Y030351*
X026111*
G37*
G36*
X038774Y036856D02*
X038768D01*
X038767*
X038765*
X038763Y036855*
X038761*
X038758*
X038753Y036854*
X038748Y036852*
X038743Y03685*
X038741Y036849*
X038739Y036848*
X038738*
Y036847*
X038737Y036846*
X038735Y036845*
X038733Y036843*
X038731Y03684*
X03873Y036836*
X038729Y036834*
Y036832*
X038728Y03683*
Y036828*
Y036827*
Y036826*
X038729Y036825*
Y036824*
Y036821*
X038731Y036818*
Y036816*
X038733Y036814*
X038734Y036812*
X038735Y036811*
X038737Y036809*
X038739Y036808*
Y036807*
X03874*
X038741Y036806*
X038742*
X038743Y036805*
X038745*
X038746Y036804*
X038749Y036803*
X038751Y036802*
X038753*
X038756Y036801*
X038759*
X038763Y0368*
X038767*
X03877*
X038772*
X038774*
X038776*
X038778*
X03878Y036801*
X038782*
X038787Y036802*
X038793Y036804*
X038798Y036806*
X0388Y036807*
X038802Y036808*
X038803Y036809*
X038804Y03681*
X038805Y036811*
X038807Y036814*
X038809Y036816*
X038811Y03682*
X038812Y036822*
Y036824*
Y036826*
X038813Y036828*
Y036829*
X038812Y03683*
Y036831*
Y036832*
X038811Y036835*
X03881Y036838*
X038809Y03684*
X038808Y036841*
X038807Y036843*
X038806Y036845*
X038804Y036846*
X038802Y036848*
X038801*
X0388Y036849*
X038799Y03685*
X038798*
X038796Y036851*
X038794Y036852*
X038792*
X03879Y036853*
X038787Y036854*
X038784*
X038781Y036855*
X038778*
X038774Y036856*
G37*
G36*
X025831Y030381D02*
X025816D01*
Y030346*
X025831*
X025834*
X025836Y030347*
X025839*
X025841*
X025843Y030348*
X025844*
X025845Y030349*
X025846Y03035*
X025847Y030351*
X025848Y030352*
X02585Y030354*
Y030355*
X025851Y030356*
Y030358*
X025852Y03036*
Y030362*
Y030364*
Y030365*
Y030366*
Y030367*
Y030369*
X025851Y030371*
X02585Y030372*
Y030374*
X025849*
Y030375*
X025848Y030376*
X025847Y030377*
X025846Y030378*
X025844Y030379*
X025843Y03038*
X025842*
X025841*
X025839Y030381*
X025837*
X025834*
X025832*
X025831*
G37*
G36*
X026562Y030352D02*
X02656D01*
X026559*
X026558*
X026556Y030351*
X026555Y03035*
X026553Y030348*
X026551Y030347*
Y030346*
X02655*
Y030344*
X026549Y030343*
X026548Y03034*
Y030338*
X026547Y030335*
Y030331*
X026576*
Y030332*
Y030333*
Y030335*
X026575Y030337*
Y03034*
X026574Y030342*
X026573Y030345*
X026572Y030347*
X026571*
Y030348*
X02657Y030349*
X026569Y03035*
X026567Y030351*
X026566Y030352*
X026564*
X026562*
G37*
G36*
X027008D02*
X027007D01*
X027006*
X027004*
X027003Y030351*
X027001Y03035*
X026999Y030348*
X026998Y030347*
X026997Y030346*
X026996Y030344*
Y030343*
X026995Y03034*
X026994Y030338*
Y030335*
X026993Y030331*
X027023*
Y030332*
X027022Y030333*
Y030335*
Y030337*
X027021Y03034*
Y030342*
X027019Y030345*
X027018Y030347*
X027017Y030348*
X027016Y030349*
X027015Y03035*
X027014Y030351*
X027012Y030352*
X02701*
X027008*
G37*
G36*
X028292Y033549D02*
X02829D01*
X028288*
X028285*
X02828Y033547*
X028277Y033546*
X028275Y033544*
X028274*
X028273*
X028272Y033543*
X028271Y033541*
X028268Y033537*
X028266Y033535*
Y033533*
Y033532*
X028265Y033531*
Y033529*
Y033527*
Y033525*
Y033523*
Y03352*
X028264Y033517*
Y033513*
Y033509*
Y033505*
Y0335*
Y033494*
Y03347*
X02832*
Y033497*
Y033498*
Y033499*
Y033501*
Y033505*
Y03351*
Y033515*
Y03352*
Y033524*
Y033526*
Y033527*
Y033528*
X028319Y033529*
Y033531*
X028318Y033533*
X028317Y033536*
X028316Y033538*
X028313Y033541*
X028311Y033543*
Y033544*
X02831*
X028308Y033545*
X028306Y033547*
X028303Y033548*
X0283*
X028296Y033549*
X028292*
G37*
G36*
X028395Y033557D02*
X028393D01*
X028391Y033556*
X028388*
X028385Y033555*
X028382*
X028379Y033553*
X028376Y033551*
X028375*
X028374Y03355*
X028373Y033549*
X028371Y033548*
X02837Y033546*
X028368Y033544*
X028366Y033541*
X028365Y033538*
Y033537*
X028364Y033536*
Y033534*
X028363Y033531*
Y033526*
X028362Y03352*
Y033516*
X028361Y033512*
Y033508*
Y033503*
Y03347*
X028427*
Y033508*
Y033509*
Y03351*
Y033512*
Y033516*
Y033521*
Y033527*
X028426Y033532*
Y033536*
X028425Y033538*
Y03354*
X028424Y033541*
Y033542*
X028423Y033544*
X028421Y033546*
X028419Y033548*
X028417Y03355*
X028415Y033552*
X028414*
X028413*
X028412Y033553*
X028409Y033554*
X028407Y033555*
X028403Y033556*
X028399*
X028395Y033557*
G37*
G36*
X039167Y032978D02*
X039165D01*
X039164Y032977*
X039161*
X039156Y032976*
X039154Y032975*
X039152Y032974*
Y032973*
X039151*
X03915Y032972*
X039149Y032971*
X039147Y03297*
X039146Y032968*
X039145Y032966*
X039144Y032964*
Y032963*
Y032962*
X039143Y032961*
Y032959*
Y032957*
Y032955*
X039142Y032953*
Y03295*
Y032948*
Y032944*
Y032941*
Y032937*
Y032912*
X039192*
Y032936*
Y032937*
Y032938*
Y032939*
Y032941*
Y032943*
Y032948*
Y032952*
X039191Y032957*
Y032961*
Y032962*
Y032964*
X03919Y032965*
Y032966*
X039189Y032967*
X039188Y032969*
X039186Y032971*
X039185Y032972*
X039183Y032974*
X039182*
X039181*
X03918Y032975*
X039178Y032976*
X039176*
X039173Y032977*
X03917*
X039167Y032978*
G37*
G36*
X028353Y034327D02*
X028341D01*
X028338Y034326*
X028335*
X028331*
X028326Y034325*
X028321*
X028311Y034323*
X028301Y03432*
X028291Y034316*
X028286Y034314*
X028282Y034311*
X028281Y03431*
X02828Y034309*
X028279Y034308*
X028276Y034305*
X028272Y0343*
X028268Y034295*
X028265Y034288*
X028263Y034284*
X028262Y03428*
Y034275*
X028261Y034271*
Y03427*
Y034268*
X028262Y034267*
Y034265*
Y034262*
X028264Y034257*
X028266Y03425*
X028268Y034247*
X02827Y034244*
X028273Y03424*
X028275Y034237*
X028279Y034233*
X028282Y034231*
X028283*
Y03423*
X028284Y034229*
X028286Y034228*
X028288Y034227*
X028291Y034226*
X028294Y034224*
X028298Y034223*
X028302Y034221*
X028307Y03422*
X028312Y034219*
X028318Y034218*
X028324Y034217*
X028331Y034216*
X028338*
X028346Y034215*
X02835*
X028353Y034216*
X028356*
X02836*
X028365Y034217*
X02837*
X02838Y034219*
X02839Y034222*
X0284Y034226*
X028405Y034228*
X028409Y034231*
X02841Y034232*
X028411Y034233*
X028412Y034234*
X028416Y034237*
X02842Y034242*
X028424Y034248*
X028427Y034255*
X028428Y034259*
X028429Y034263*
X02843Y034267*
Y034271*
Y034272*
Y034273*
Y034275*
Y034277*
X028429Y034279*
X028428Y034285*
X028425Y034291*
X028423Y034295*
X028422Y034298*
X028419Y034301*
X028416Y034304*
X028413Y034308*
X02841Y034311*
X028409*
X028408*
X028407Y034312*
X028406Y034313*
X028403Y034314*
X0284Y034316*
X028397Y034317*
X028394Y034319*
X028389Y03432*
X028384Y034322*
X028379Y034323*
X028374Y034324*
X028367Y034325*
X02836Y034326*
X028353Y034327*
G37*
G36*
X028292Y032829D02*
X02829D01*
X028288Y032828*
X028285*
X02828Y032827*
X028277Y032825*
X028275Y032824*
X028274Y032823*
X028273*
X028272Y032822*
X028271Y03282*
X028268Y032817*
X028266Y032815*
Y032812*
X028265Y032811*
Y032808*
Y032807*
Y032805*
Y032803*
Y0328*
X028264Y032796*
Y032793*
Y032789*
Y032784*
Y032779*
Y032773*
Y03275*
X02832*
Y032776*
Y032777*
Y032779*
Y03278*
Y032784*
Y032789*
Y032795*
Y032799*
Y032804*
Y032805*
Y032807*
X028319Y032808*
Y03281*
X028318Y032812*
X028317Y032815*
X028316Y032817*
X028313Y03282*
X028311Y032823*
X02831Y032824*
X028308*
X028306Y032826*
X028303Y032827*
X0283Y032828*
X028296*
X028292Y032829*
G37*
G36*
X028395Y032836D02*
X028393D01*
X028391*
X028388Y032835*
X028385*
X028382Y032834*
X028379Y032832*
X028376Y032831*
X028375Y03283*
X028374Y032829*
X028373Y032828*
X028371Y032827*
X02837Y032825*
X028368Y032823*
X028366Y03282*
X028365Y032817*
X028364Y032815*
Y032813*
X028363Y03281*
Y032805*
X028362Y032799*
Y032796*
X028361Y032792*
Y032787*
Y032783*
Y03275*
X028427*
Y032787*
Y032788*
Y032789*
Y032791*
Y032796*
Y0328*
Y032806*
X028426Y032811*
Y032816*
X028425Y032817*
Y032819*
X028424Y03282*
Y032821*
X028423Y032823*
X028421Y032825*
X028419Y032827*
X028417Y032829*
X028415Y032831*
X028414*
X028413Y032832*
X028412*
X028409Y032833*
X028407Y032835*
X028403*
X028399Y032836*
X028395*
G37*
G36*
X038241Y030526D02*
X038215D01*
Y030363*
X038248*
X038251Y030364*
X038256*
X038261*
X038265Y030365*
X03827Y030366*
X038273Y030367*
X038274*
X038275Y030368*
X038276*
X038278Y03037*
X038283Y030373*
X038287Y030378*
X038288*
X038289Y030379*
X03829Y030381*
X038291Y030384*
X038292Y030387*
X038294Y030391*
X038295Y030396*
X038297Y030401*
Y030402*
X038298Y030404*
Y030408*
X038299Y030413*
X0383Y030419*
Y030426*
X038301Y030434*
Y030444*
Y030445*
Y030446*
Y030448*
Y030451*
Y030453*
Y03046*
X0383Y030467*
X038299Y030473*
X038298Y030481*
X038297Y030487*
Y030488*
X038296Y030489*
X038295Y030492*
X038294Y030496*
X038293Y0305*
X03829Y030504*
X038288Y030508*
X038285Y030512*
X038284Y030513*
X038282Y030515*
X03828Y030517*
X038277Y030519*
X038274Y030521*
X03827Y030523*
X038266Y030524*
X038264*
X038262Y030525*
X038259*
X038254*
X038248Y030526*
X038241*
G37*
G36*
X038052D02*
X038012D01*
Y030464*
X03805*
X038056*
X038062*
X038068Y030465*
X038073*
X038075*
X038077Y030466*
X038078*
X038079Y030467*
X038081Y030468*
X038083Y030469*
X038085Y030471*
X038087Y030473*
X038089Y030476*
X03809Y030477*
X038091Y030479*
X038092Y030481*
Y030484*
X038093Y030487*
Y030491*
X038094Y030495*
Y030496*
Y030497*
X038093Y030499*
Y030502*
X038092Y030508*
X038091Y030511*
X038089Y030514*
Y030515*
X038088*
X038087Y030517*
X038086Y030518*
X038084Y03052*
X038082Y030521*
X038079Y030523*
X038076Y030524*
X038075*
X038073Y030525*
X03807*
X038068*
X038066*
X038063Y030526*
X038056*
X038052*
G37*
G36*
X039247Y033319D02*
X039245D01*
X039243Y033318*
X039241*
X039239Y033317*
X039236*
X039234Y033316*
X039231Y033314*
X03923Y033313*
X039229Y033312*
X039228Y033311*
X039226Y03331*
X039225Y033308*
X039224Y033306*
X039223Y033303*
X039222Y033302*
Y0333*
X039221Y033298*
Y033294*
X03922Y033289*
Y033286*
Y033283*
Y03328*
Y033276*
Y03325*
X039273*
Y03328*
Y033281*
Y033283*
Y033286*
X039272Y03329*
Y033294*
Y033299*
X039271Y033302*
Y033304*
Y033305*
X03927Y033306*
Y033307*
X039269Y033308*
X039268Y03331*
X039266Y033311*
X039264Y033313*
X039262Y033315*
X039261*
X03926Y033316*
X039258Y033317*
X039256*
X039253Y033318*
X03925*
X039247Y033319*
G37*
G36*
X039164Y033313D02*
X039163D01*
X039161Y033312*
X039159*
X039155Y033311*
X039152Y03331*
X03915Y033309*
Y033308*
X039149*
Y033307*
X039147Y033306*
X039145Y033303*
X039144Y033301*
X039143Y033299*
Y033298*
Y033296*
Y033295*
X039142Y033294*
Y033292*
Y033289*
Y033287*
Y033284*
Y033281*
Y033277*
Y033273*
Y033268*
Y03325*
X039187*
Y033271*
Y033272*
Y033273*
Y033274*
Y033277*
Y033281*
Y033285*
Y033289*
Y033293*
X039186Y033294*
Y033295*
Y033296*
Y033298*
X039185Y0333*
X039184Y033302*
X039183Y033304*
X039181Y033306*
X03918Y033308*
X039179*
Y033309*
X039177*
X039176Y03331*
X039173Y033311*
X039171Y033312*
X039168*
X039164Y033313*
G37*
G36*
X039216Y033895D02*
X039202D01*
X0392Y033894*
X039195*
X03919*
X039184Y033893*
X039179*
X039174Y033892*
X039173*
X039172Y033891*
X039169Y03389*
X039166Y033889*
X039163Y033888*
X03916Y033886*
X039156Y033885*
X039154Y033882*
X039153*
X039152Y033881*
X039151Y03388*
X039149Y033878*
X039148Y033876*
X039146Y033873*
X039145Y03387*
X039144Y033867*
Y033865*
X039143Y033864*
Y033861*
Y033857*
X039142Y033853*
Y033847*
Y033844*
Y03384*
Y033826*
X039273*
Y03385*
Y033851*
Y033853*
X039272Y033855*
Y033859*
Y033862*
X039271Y033866*
Y03387*
X03927Y033873*
X039269*
Y033874*
Y033875*
X039267Y033877*
X039265Y033881*
X039261Y033884*
X03926Y033885*
X039258Y033886*
X039256Y033887*
X039254Y033888*
X03925Y033889*
X039246Y03389*
X039242Y033892*
X039241*
X03924*
X039237Y033893*
X039233*
X039228Y033894*
X039222*
X039216Y033895*
G37*
G36*
X029012Y030689D02*
X029D01*
X028997*
X028993*
X028989*
X028985Y030688*
X02898*
X02897Y030686*
X028959Y030683*
X028949Y030679*
X028945Y030677*
X028941Y030674*
X02894Y030673*
X028939Y030672*
X028938Y030671*
X028934Y030668*
X02893Y030663*
X028927Y030657*
X028923Y03065*
X028922Y030646*
X028921Y030642*
Y030638*
X02892Y030634*
Y030633*
Y030631*
X028921Y03063*
Y030627*
Y030625*
X028923Y030619*
X028925Y030613*
X028927Y03061*
X028929Y030606*
X028931Y030603*
X028934Y030599*
X028937Y030596*
X028941Y030593*
X028942*
X028943Y030592*
X028945Y030591*
X028947Y03059*
X02895Y030589*
X028953Y030587*
X028957Y030586*
X028961Y030584*
X028966Y030583*
X028971Y030582*
X028977Y030581*
X028983Y030579*
X02899*
X028997Y030578*
X029005*
X029009*
X029012*
X029015*
X029019Y030579*
X029024*
X029028Y03058*
X029038Y030582*
X029049Y030585*
X029059Y030589*
X029064Y030591*
X029068Y030594*
X029069Y030595*
X02907Y030596*
X029071Y030597*
X029074Y0306*
X029079Y030605*
X029083Y030611*
X029086Y030618*
X029087Y030621*
X029088Y030625*
X029089Y030629*
Y030634*
Y030635*
Y030636*
Y030638*
X029088Y03064*
Y030642*
X029087Y030647*
X029084Y030654*
X029082Y030657*
X02908Y030661*
X029078Y030664*
X029075Y030667*
X029072Y03067*
X029068Y030673*
Y030674*
X029067*
X029066Y030675*
X029064Y030676*
X029062Y030677*
X029059Y030678*
X029056Y03068*
X029052Y030681*
X029048Y030683*
X029043Y030684*
X029038Y030686*
X029032Y030687*
X029026Y030688*
X029019Y030689*
X029012*
G37*
G36*
X028958Y030468D02*
X028956D01*
X028954*
X028951Y030467*
X028948*
X028945Y030466*
X028941Y030464*
X028938Y030463*
X028937Y030462*
X028936Y030461*
X028935Y03046*
X028933Y030459*
X028931Y030457*
X028929Y030455*
X028927Y030452*
X028926Y030449*
Y030448*
X028925Y030445*
Y030442*
X028924Y030438*
X028923Y030432*
Y030428*
Y030425*
Y030421*
Y030416*
Y030396*
X028993*
Y030419*
Y03042*
Y030421*
Y030422*
Y030426*
Y030431*
Y030436*
X028992Y030441*
X028991Y030445*
X02899Y030449*
Y030451*
X028989Y030452*
X028988Y030454*
X028986Y030456*
X028984Y030458*
X028982Y03046*
X028979Y030463*
X028978*
X028977*
X028975Y030464*
X028973Y030466*
X02897*
X028967Y030467*
X028963Y030468*
X028958*
G37*
G36*
X043173Y034216D02*
X043164D01*
X043161*
X043158*
X043155*
X043152Y034215*
X043148*
X043139Y034214*
X043131Y034211*
X043123Y034208*
X04312Y034206*
X043116Y034204*
Y034203*
X043115*
X043114Y034202*
X043111Y034199*
X043108Y034195*
X043105Y034191*
X043102Y034185*
X043101Y034182*
X0431Y034179*
Y034175*
Y034172*
Y034171*
Y03417*
Y034169*
Y034167*
X043101Y034165*
X043102Y034161*
X043104Y034155*
X043105Y034153*
X043107Y03415*
X043109Y034147*
X043111Y034145*
X043114Y034142*
X043116Y03414*
X043117*
Y034139*
X043118Y034138*
X04312*
X043121Y034137*
X043123Y034136*
X043126Y034135*
X043129Y034134*
X043132Y034132*
X043136Y034131*
X04314Y03413*
X043145Y034129*
X04315*
X043155Y034128*
X043161*
X043167Y034127*
X043171*
X043173Y034128*
X043176*
X043179*
X043183Y034129*
X043186*
X043194Y034131*
X043203Y034133*
X043211Y034136*
X043215Y034138*
X043218Y03414*
X043219Y034141*
Y034142*
X043221Y034143*
X043223Y034145*
X043226Y034149*
X04323Y034154*
X043232Y034159*
X043233Y034162*
X043234Y034165*
X043235Y034168*
Y034172*
Y034173*
Y034174*
Y034175*
X043234Y034177*
Y034179*
X043233Y034183*
X043231Y034188*
X043229Y034191*
X043228Y034193*
X043226Y034196*
X043224Y034199*
X043221Y034201*
X043218Y034204*
X043217*
Y034205*
X043215Y034206*
X043213Y034207*
X043211Y034208*
X043208Y034209*
X043206Y03421*
X043202Y034211*
X043198Y034212*
X043194Y034214*
X04319*
X043184Y034215*
X043179Y034216*
X043173*
G37*
G36*
X043207Y033601D02*
X043205D01*
X043203*
X043201Y0336*
X043199*
X043196Y033599*
X043194Y033598*
X043191Y033597*
Y033596*
X04319*
X043189Y033595*
X043188Y033594*
X043186Y033592*
X043185Y033591*
X043184Y033588*
X043183Y033586*
X043182Y033584*
Y033583*
X043181Y03358*
Y033576*
X04318Y033571*
Y033569*
Y033565*
Y033562*
Y033558*
Y033532*
X043233*
Y033562*
Y033563*
Y033564*
Y033565*
Y033569*
X043232Y033572*
Y033577*
Y033581*
X043231Y033585*
Y033586*
Y033587*
Y033588*
X04323*
Y033589*
X043229Y033591*
X043228Y033592*
X043226Y033594*
X043224Y033595*
X043222Y033597*
X043221*
X04322Y033598*
X043218Y033599*
X043216Y0336*
X043213*
X04321Y033601*
X043207*
G37*
G36*
X043124Y033595D02*
X043123D01*
X043121*
X043119*
X043115Y033593*
X043112*
X04311Y033591*
X043109*
Y03359*
X043107Y033588*
X043105Y033586*
X043104Y033584*
X043103Y033582*
Y033581*
Y033579*
Y033577*
X043102Y033576*
Y033574*
Y033572*
Y033569*
Y033566*
Y033563*
Y033559*
Y033555*
Y033551*
Y033532*
X043147*
Y033553*
Y033554*
Y033555*
Y033556*
Y03356*
Y033564*
Y033568*
Y033572*
Y033575*
X043146Y033576*
Y033577*
Y033578*
Y033579*
Y03358*
X043145Y033582*
X043144Y033584*
X043143Y033586*
X043141Y033588*
X04314Y03359*
X043139Y033591*
X043137Y033592*
X043136Y033593*
X043133Y033594*
X043131*
X043128Y033595*
X043124*
G37*
G36*
X043188Y032796D02*
X043115Y032774D01*
X043188Y032752*
Y032796*
G37*
G36*
X043173Y033127D02*
X043164D01*
X043161*
X043158*
X043155Y033126*
X043152*
X043148Y033125*
X043139Y033124*
X043131Y033122*
X043123Y033119*
X04312Y033117*
X043116Y033114*
X043115Y033113*
X043114Y033112*
X043111Y033109*
X043108Y033106*
X043105Y033101*
X043102Y033096*
X043101Y033093*
X0431Y033089*
Y033086*
Y033082*
Y03308*
Y033079*
Y033077*
X043101Y033075*
X043102Y033071*
X043104Y033066*
X043105Y033063*
X043107Y033061*
X043109Y033058*
X043111Y033055*
X043114Y033052*
X043116Y03305*
X043117*
X043118Y033049*
X04312Y033048*
X043121Y033047*
X043123Y033046*
X043126Y033045*
X043129Y033044*
X043132Y033043*
X043136Y033042*
X04314Y033041*
X043145Y03304*
X04315Y033039*
X043155Y033038*
X043161*
X043167*
X043171*
X043173*
X043176*
X043179*
X043183Y033039*
X043186Y03304*
X043194Y033041*
X043203Y033043*
X043211Y033047*
X043215Y033048*
X043218Y033051*
X043219*
Y033052*
X043221Y033053*
X043223Y033056*
X043226Y033059*
X04323Y033064*
X043232Y03307*
X043233Y033073*
X043234Y033076*
X043235Y033079*
Y033082*
Y033083*
Y033084*
Y033086*
X043234Y033087*
Y033089*
X043233Y033093*
X043231Y033099*
X043229Y033101*
X043228Y033104*
X043226Y033107*
X043224Y033109*
X043221Y033112*
X043218Y033114*
X043217Y033115*
X043215Y033116*
X043213Y033117*
X043211Y033118*
X043208Y033119*
X043206Y033121*
X043202Y033122*
X043198Y033123*
X043194Y033124*
X04319Y033125*
X043184Y033126*
X043179*
X043173Y033127*
G37*
G36*
X028954Y031341D02*
X028952D01*
X02895*
X028947Y03134*
X028941Y031339*
X028938Y031338*
X028935Y031336*
X028934Y031335*
X028933Y031334*
X028931Y031333*
X02893Y031331*
X028928Y031329*
X028926Y031326*
X028925Y031323*
Y031322*
Y03132*
X028924Y031317*
Y031315*
Y031313*
X028923Y03131*
Y031307*
Y031303*
Y031299*
Y031295*
Y03129*
Y031259*
X028986*
Y031289*
Y03129*
Y031291*
Y031293*
Y031295*
Y031298*
X028985Y031303*
Y031309*
Y031315*
X028984Y03132*
Y031322*
X028983Y031324*
Y031325*
X028982Y031326*
X028981Y031328*
X02898Y03133*
X028978Y031332*
X028976Y031334*
X028974Y031336*
X028973Y031337*
X028972*
X028971Y031338*
X028968Y031339*
X028966*
X028962Y03134*
X028958Y031341*
X028954*
G37*
G36*
Y031623D02*
X028952D01*
X02895Y031622*
X028947*
X028941Y031621*
X028938Y031619*
X028935Y031618*
X028934Y031617*
X028933Y031616*
X028931Y031615*
X02893Y031613*
X028928Y031611*
X028926Y031608*
X028925Y031605*
Y031604*
Y031602*
X028924Y031599*
Y031597*
Y031595*
X028923Y031592*
Y031589*
Y031585*
Y031581*
Y031577*
Y031572*
Y03154*
X028986*
Y03157*
Y031571*
Y031573*
Y031575*
Y031577*
Y031579*
X028985Y031585*
Y031591*
Y031597*
X028984Y031602*
Y031604*
X028983Y031606*
Y031607*
X028982Y031608*
X028981Y03161*
X02898Y031612*
X028978Y031614*
X028976Y031616*
X028974Y031618*
X028973*
X028972Y031619*
X028971*
X028968Y03162*
X028966Y031621*
X028962Y031622*
X028958*
X028954Y031623*
G37*
G36*
X024061Y0304D02*
X024059D01*
X024057Y030399*
X024055*
X024052Y030398*
X02405Y030396*
X024047Y030394*
X024044Y030391*
X024043Y030389*
X024042Y030387*
X024041Y030384*
X024039Y030381*
Y030377*
X024038Y030372*
X024037Y030366*
X024084*
Y030367*
Y030368*
Y030369*
X024083Y030372*
Y030376*
X024082Y03038*
X024081Y030384*
X024079Y030388*
X024077Y030391*
X024076Y030392*
X024075Y030393*
X024074Y030394*
X024072Y030396*
X02407Y030397*
X024067Y030399*
X024064Y0304*
X024061*
G37*
G36*
X024305Y030398D02*
D01*
X024303*
X024301Y030397*
X024298Y030396*
X024295Y030395*
X024292Y030393*
X024288Y03039*
X024285Y030387*
Y030386*
X024284Y030384*
X024282Y030382*
X024281Y030378*
X024279Y030374*
X024278Y030368*
X024277Y030362*
Y030354*
Y030353*
Y030352*
Y030351*
Y030349*
Y030347*
X024278Y030342*
X024279Y030336*
X02428Y030331*
X024282Y030326*
X024285Y030321*
X024286*
X024287Y03032*
X024288Y030318*
X024291Y030316*
X024294Y030314*
X024297Y030312*
X024301Y030311*
X024306*
X024308*
X02431*
X024313Y030312*
X024316Y030313*
X024319Y030315*
X024323Y030318*
X024326Y030322*
X024327Y030324*
X024328Y030326*
X02433Y03033*
X024332Y030334*
X024333Y03034*
X024334Y030347*
Y030354*
Y030355*
Y030356*
Y030358*
Y030359*
Y030361*
X024333Y030366*
X024332Y030371*
X02433Y030377*
X024328Y030382*
X024325Y030387*
X024324Y030388*
X024322Y03039*
X02432Y030392*
X024317Y030394*
X024314Y030396*
X024309Y030397*
X024305Y030398*
G37*
G36*
X024519Y030369D02*
X024485D01*
Y030316*
X024522*
X024526*
X02453Y030317*
X024534*
X024538Y030318*
X02454*
X024541*
X024542*
X024543Y030319*
X024544Y03032*
X024546Y030321*
X024547Y030322*
X024549Y030324*
X02455Y030326*
X024551Y030327*
X024552Y030329*
Y030331*
X024553Y030333*
X024554Y030335*
Y030338*
Y030342*
Y030343*
Y030345*
Y030347*
X024553Y03035*
Y030352*
X024552Y030355*
X02455Y030357*
Y030358*
X024549Y030359*
X024548*
X024547Y030361*
X024546Y030362*
X024544Y030364*
X024542Y030365*
X024539Y030366*
X024538*
X024536Y030367*
X024534Y030368*
X02453*
X024525*
X024522*
X024519Y030369*
G37*
G36*
X024517Y030447D02*
X024485D01*
Y030402*
X024517*
X024521*
X024529*
X02453*
X024531*
X024532Y030403*
X024534*
X024536*
X024538Y030404*
X02454Y030405*
X024542Y030407*
X024544Y030409*
X024545Y03041*
Y030411*
X024546Y030413*
X024547Y030415*
X024548Y030418*
Y030421*
X024549Y030425*
Y030426*
X024548Y030428*
Y03043*
X024547Y030434*
X024546Y030436*
X024545Y030438*
X024544Y030439*
X024543Y03044*
X024542Y030441*
X024539Y030444*
X024537Y030445*
X024535*
X024534Y030446*
X024532*
X024531*
X024529*
X024525*
X024523*
X02452*
X024517Y030447*
G37*
G36*
X023857Y030446D02*
X023834D01*
Y03039*
X023858*
X023862Y030391*
X023866*
X02387*
X023873Y030392*
X023876Y030393*
X023877*
X023878Y030394*
X02388Y030395*
X023882Y030396*
X023883Y030398*
X023885Y0304*
X023887Y030402*
Y030403*
X023888Y030405*
X023889Y030407*
X02389Y030409*
X023891Y030412*
Y030415*
Y030418*
Y030419*
Y03042*
Y030422*
Y030424*
X02389Y030427*
Y030429*
X023888Y030432*
X023887Y030435*
X023886Y030436*
X023885Y030437*
X023884Y030439*
X023882Y03044*
X023881Y030442*
X023878Y030443*
X023876Y030444*
X023875*
X023873Y030445*
X023871*
X023867Y030446*
X023862*
X02386*
X023857*
G37*
G36*
X025025Y0304D02*
X025024D01*
X025022Y030399*
X025019*
X025017Y030398*
X025014Y030396*
X025011Y030394*
X025009Y030391*
X025008*
Y030389*
X025007Y030387*
X025006Y030384*
X025004Y030381*
X025003Y030377*
X025002Y030372*
Y030366*
X025049*
Y030367*
Y030368*
X025048Y030369*
Y030372*
X025047Y030376*
Y03038*
X025045Y030384*
X025044Y030388*
X025041Y030391*
Y030392*
X02504Y030393*
X025039Y030394*
X025037Y030396*
X025034Y030397*
X025032Y030399*
X025029Y0304*
X025025*
G37*
%LNvapeix_mini_pcb-3*%
%LPD*%
G54D10*
X042468Y03365D02*
D01*
X042466Y033693*
X042461Y033737*
X042454Y03378*
X042443Y033823*
X04243Y033865*
X042413Y033906*
X042394Y033945*
X042372Y033983*
X042347Y03402*
X04232Y034054*
X042291Y034087*
X042259Y034118*
X042225Y034146*
X04219Y034172*
X042153Y034195*
X042114Y034216*
X042074Y034234*
X042032Y034249*
X04199Y034261*
X041947Y03427*
X041903Y034276*
X041859Y034279*
X041816*
X041772Y034276*
X041728Y03427*
X041685Y034261*
X041643Y034249*
X041601Y034234*
X041561Y034216*
X041523Y034195*
X041485Y034172*
X04145Y034146*
X041416Y034118*
X041384Y034087*
X041355Y034054*
X041328Y03402*
X041303Y033983*
X041281Y033945*
X041262Y033906*
X041245Y033865*
X041232Y033823*
X041221Y03378*
X041214Y033737*
X041209Y033693*
X041208Y03365*
X041209Y033606*
X041214Y033562*
X041221Y033519*
X041232Y033476*
X041245Y033434*
X041262Y033393*
X041281Y033354*
X041303Y033316*
X041328Y033279*
X041355Y033245*
X041384Y033212*
X041416Y033181*
X04145Y033153*
X041485Y033127*
X041523Y033104*
X041561Y033083*
X041601Y033065*
X041643Y03305*
X041685Y033038*
X041728Y033029*
X041772Y033023*
X041816Y03302*
X041859*
X041903Y033023*
X041947Y033029*
X04199Y033038*
X042032Y03305*
X042074Y033065*
X042114Y033083*
X042153Y033104*
X04219Y033127*
X042225Y033153*
X042259Y033181*
X042291Y033212*
X04232Y033245*
X042347Y033279*
X042372Y033316*
X042394Y033354*
X042413Y033393*
X04243Y033434*
X042443Y033476*
X042454Y033519*
X042461Y033562*
X042466Y033606*
X042468Y03365*
X02744D02*
D01*
X027438Y033693*
X027433Y033737*
X027426Y03378*
X027415Y033823*
X027402Y033865*
X027385Y033906*
X027366Y033945*
X027344Y033983*
X027319Y03402*
X027292Y034054*
X027263Y034087*
X027231Y034118*
X027197Y034146*
X027162Y034172*
X027125Y034195*
X027086Y034216*
X027046Y034234*
X027004Y034249*
X026962Y034261*
X026919Y03427*
X026875Y034276*
X026831Y034279*
X026788*
X026744Y034276*
X0267Y03427*
X026657Y034261*
X026615Y034249*
X026573Y034234*
X026533Y034216*
X026495Y034195*
X026457Y034172*
X026422Y034146*
X026388Y034118*
X026356Y034087*
X026327Y034054*
X0263Y03402*
X026275Y033983*
X026253Y033945*
X026234Y033906*
X026217Y033865*
X026204Y033823*
X026193Y03378*
X026186Y033737*
X026181Y033693*
X02618Y03365*
X026181Y033606*
X026186Y033562*
X026193Y033519*
X026204Y033476*
X026217Y033434*
X026234Y033393*
X026253Y033354*
X026275Y033316*
X0263Y033279*
X026327Y033245*
X026356Y033212*
X026388Y033181*
X026422Y033153*
X026457Y033127*
X026495Y033104*
X026533Y033083*
X026573Y033065*
X026615Y03305*
X026657Y033038*
X0267Y033029*
X026744Y033023*
X026788Y03302*
X026831*
X026875Y033023*
X026919Y033029*
X026962Y033038*
X027004Y03305*
X027046Y033065*
X027086Y033083*
X027125Y033104*
X027162Y033127*
X027197Y033153*
X027231Y033181*
X027263Y033212*
X027292Y033245*
X027319Y033279*
X027344Y033316*
X027366Y033354*
X027385Y033393*
X027402Y033434*
X027415Y033476*
X027426Y033519*
X027433Y033562*
X027438Y033606*
X02744Y03365*
X031984Y030658D02*
D01*
X031983Y030659*
X031983Y03066*
X031983Y030662*
X031983Y030663*
X031982Y030664*
X031982Y030666*
X031981Y030667*
X03198Y030668*
X03198Y030669*
X031979Y03067*
X031978Y030671*
X031977Y030672*
X031976Y030673*
X031975Y030674*
X031974Y030675*
X031972Y030675*
X031971Y030676*
X03197Y030677*
X031968Y030677*
X031967Y030677*
X031966Y030677*
X031964Y030677*
X031963*
X031961Y030677*
X03196Y030677*
X031959Y030677*
X031957Y030677*
X031956Y030676*
X031955Y030675*
X031954Y030675*
X031952Y030674*
X031951Y030673*
X03195Y030672*
X031949Y030671*
X031948Y03067*
X031947Y030669*
X031947Y030668*
X031946Y030667*
X031945Y030666*
X031945Y030664*
X031944Y030663*
X031944Y030662*
X031944Y03066*
X031944Y030659*
X031944Y030658*
X031944Y030656*
X031944Y030655*
X031944Y030653*
X031944Y030652*
X031945Y030651*
X031945Y030649*
X031946Y030648*
X031947Y030647*
X031947Y030646*
X031948Y030645*
X031949Y030644*
X03195Y030643*
X031951Y030642*
X031952Y030641*
X031954Y03064*
X031955Y03064*
X031956Y030639*
X031957Y030638*
X031959Y030638*
X03196Y030638*
X031961Y030638*
X031963Y030638*
X031964*
X031966Y030638*
X031967Y030638*
X031968Y030638*
X03197Y030638*
X031971Y030639*
X031972Y03064*
X031974Y03064*
X031975Y030641*
X031976Y030642*
X031977Y030643*
X031978Y030644*
X031979Y030645*
X03198Y030646*
X03198Y030647*
X031981Y030648*
X031982Y030649*
X031982Y030651*
X031983Y030652*
X031983Y030653*
X031983Y030655*
X031983Y030656*
X031984Y030658*
X030845Y036477D02*
Y036752D01*
X031554Y036477D02*
Y036752D01*
X031298Y036477D02*
X031554D01*
X030845D02*
X031101D01*
X031298Y036752D02*
X031554D01*
X030845D02*
X031101D01*
X0318Y03586D02*
Y036224D01*
Y036421D02*
Y036785D01*
X032193Y03586D02*
Y036224D01*
Y036421D02*
Y036785D01*
X0318D02*
X032193D01*
X0318Y03586D02*
X032193D01*
X029848Y035468D02*
Y035724D01*
Y035016D02*
Y035272D01*
X029572Y035468D02*
Y035724D01*
Y035016D02*
Y035272D01*
Y035016D02*
X029848D01*
X029572Y035724D02*
X029848D01*
X033176Y036682D02*
X033471D01*
X033176Y035993D02*
X033471D01*
X033176D02*
Y036239D01*
Y036436D02*
Y036682D01*
X033471Y035993D02*
Y036239D01*
Y036436D02*
Y036682D01*
X032794D02*
X033089D01*
X032794Y035993D02*
X033089D01*
X032794D02*
Y036239D01*
Y036436D02*
Y036682D01*
X033089Y035993D02*
Y036239D01*
Y036436D02*
Y036682D01*
X030614Y035906D02*
Y036299D01*
X031539Y035906D02*
Y036299D01*
X030614D02*
X030978D01*
X031175D02*
X031539D01*
X030614Y035906D02*
X030978D01*
X031175D02*
X031539D01*
X034778Y03617D02*
X035034D01*
X034325D02*
X034581D01*
X034778Y036446D02*
X035034D01*
X034325D02*
X034581D01*
X034325Y03617D02*
Y036446D01*
X035034Y03617D02*
Y036446D01*
X029106Y033332D02*
X029362D01*
X029558D02*
X029814D01*
X029106Y033056D02*
X029362D01*
X029558D02*
X029814D01*
Y033332*
X029106Y033056D02*
Y033332D01*
X035046Y035396D02*
Y035522D01*
X034676Y035884D02*
X034723D01*
X034353Y035396D02*
Y035522D01*
X034676Y035034D02*
X034723D01*
X030014Y035769D02*
X030378D01*
X030575D02*
X030939D01*
X030014Y035375D02*
X030378D01*
X030575D02*
X030939D01*
Y035769*
X030014Y035375D02*
Y035769D01*
X030019Y035246D02*
X030275D01*
X030472D02*
X030728D01*
X030019Y034971D02*
X030275D01*
X030472D02*
X030728D01*
Y035246*
X030019Y034971D02*
Y035246D01*
X035538Y035502D02*
Y035758D01*
Y035049D02*
Y035305D01*
X035262Y035502D02*
Y035758D01*
Y035049D02*
Y035305D01*
Y035049D02*
X035538D01*
X035262Y035758D02*
X035538D01*
X034011Y035785D02*
Y036041D01*
Y035332D02*
Y035588D01*
X033736Y035785D02*
Y036041D01*
Y035332D02*
Y035588D01*
Y035332D02*
X034011D01*
X033736Y036041D02*
X034011D01*
X034702Y034515D02*
X034958D01*
X03425D02*
X034506D01*
X034702Y03479D02*
X034958D01*
X03425D02*
X034506D01*
X03425Y034515D02*
Y03479D01*
X034958Y034515D02*
Y03479D01*
X034701Y03415D02*
X034956D01*
X034248D02*
X034504D01*
X034701Y034425D02*
X034956D01*
X034248D02*
X034504D01*
X034248Y03415D02*
Y034425D01*
X034956Y03415D02*
Y034425D01*
X034826Y032828D02*
X035082D01*
X035278D02*
X035534D01*
X034826Y032552D02*
X035082D01*
X035278D02*
X035534D01*
Y032828*
X034826Y032552D02*
Y032828D01*
X034641Y03329D02*
X034917D01*
X034641Y033999D02*
X034917D01*
Y033743D02*
Y033999D01*
Y03329D02*
Y033546D01*
X034641Y033743D02*
Y033999D01*
Y03329D02*
Y033546D01*
X034526Y033743D02*
Y033999D01*
Y03329D02*
Y033546D01*
X03425Y033743D02*
Y033999D01*
Y03329D02*
Y033546D01*
Y03329D02*
X034526D01*
X03425Y033999D02*
X034526D01*
X036088Y032978D02*
Y033234D01*
Y032526D02*
Y032782D01*
X035812Y032978D02*
Y033234D01*
Y032526D02*
Y032782D01*
Y032526D02*
X036088D01*
X035812Y033234D02*
X036088D01*
X030056Y033332D02*
X030312D01*
X030508D02*
X030764D01*
X030056Y033056D02*
X030312D01*
X030508D02*
X030764D01*
Y033332*
X030056Y033056D02*
Y033332D01*
X022308Y034378D02*
Y034634D01*
Y033926D02*
Y034182D01*
X022032Y034378D02*
Y034634D01*
Y033926D02*
Y034182D01*
Y033926D02*
X022308D01*
X022032Y034634D02*
X022308D01*
X022425Y034624D02*
X02272D01*
X022425Y033936D02*
X02272D01*
X022425D02*
Y034182D01*
Y034378D02*
Y034624D01*
X02272Y033936D02*
Y034182D01*
Y034378D02*
Y034624D01*
X022425Y033146D02*
X02272D01*
X022425Y033834D02*
X02272D01*
Y033588D02*
Y033834D01*
Y033146D02*
Y033392D01*
X022425Y033588D02*
Y033834D01*
Y033146D02*
Y033392D01*
X022308Y033578D02*
Y033834D01*
Y033126D02*
Y033382D01*
X022032Y033578D02*
Y033834D01*
Y033126D02*
Y033382D01*
Y033126D02*
X022308D01*
X022032Y033834D02*
X022308D01*
X038245Y030912D02*
Y031207D01*
X038934Y030912D02*
Y031207D01*
X038688Y030912D02*
X038934D01*
X038245D02*
X038491D01*
X038688Y031207D02*
X038934D01*
X038245D02*
X038491D01*
X028958Y036828D02*
X029254D01*
X028958Y036139D02*
X029254D01*
X028958D02*
Y036385D01*
Y036582D02*
Y036828D01*
X029254Y036139D02*
Y036385D01*
Y036582D02*
Y036828D01*
X040657Y032469D02*
X043019D01*
X040657D02*
Y034831D01*
X043019*
Y032469D02*
Y034831D01*
X025629Y032469D02*
X027991D01*
X025629D02*
Y034831D01*
X027991*
Y032469D02*
Y034831D01*
X02944Y03069D02*
Y031054D01*
Y031251D02*
Y031615D01*
X029834Y03069D02*
Y031054D01*
Y031251D02*
Y031615D01*
X02944D02*
X029834D01*
X02944Y03069D02*
X029834D01*
X032305Y031792D02*
X032669D01*
X031744D02*
X032108D01*
X032305Y032186D02*
X032669D01*
X031744D02*
X032108D01*
X031744Y031792D02*
Y032186D01*
X032669Y031792D02*
Y032186D01*
X032328Y031356D02*
X032584D01*
X031876D02*
X032132D01*
X032328Y031632D02*
X032584D01*
X031876D02*
X032132D01*
X031876Y031356D02*
Y031632D01*
X032584Y031356D02*
Y031632D01*
X032555Y03054D02*
X032614D01*
X032555Y031013D02*
X032614D01*
X031826Y03054D02*
X031885D01*
X031826Y031013D02*
X031885D01*
X032614Y03054D02*
Y031013D01*
X031826Y03054D02*
Y031013D01*
X024948Y036399D02*
Y036694D01*
X024259Y036399D02*
Y036694D01*
X024505*
X024702D02*
X024948D01*
X024259Y036399D02*
X024505D01*
X024702D02*
X024948D01*
X024259Y035943D02*
Y036239D01*
X024948Y035943D02*
Y036239D01*
X024702Y035943D02*
X024948D01*
X024259D02*
X024505D01*
X024702Y036239D02*
X024948D01*
X024259D02*
X024505D01*
X024249Y035783D02*
X024505D01*
X024702D02*
X024958D01*
X024249Y035508D02*
X024505D01*
X024702D02*
X024958D01*
Y035783*
X024249Y035508D02*
Y035783D01*
Y035348D02*
X024505D01*
X024702D02*
X024958D01*
X024249Y035072D02*
X024505D01*
X024702D02*
X024958D01*
Y035348*
X024249Y035072D02*
Y035348D01*
X026764Y030492D02*
Y030788D01*
X026076Y030492D02*
Y030788D01*
X026322*
X026518D02*
X026764D01*
X026076Y030492D02*
X026322D01*
X026518D02*
X026764D01*
X026096Y031092D02*
Y031388D01*
X026784Y031092D02*
Y031388D01*
X026538Y031092D02*
X026784D01*
X026096D02*
X026342D01*
X026538Y031388D02*
X026784D01*
X026096D02*
X026342D01*
G54D43*
X02386Y032238D02*
D01*
X023956Y032235*
X024053Y032238*
X024149Y032249*
X024244Y032266*
X024338Y03229*
X024429Y03232*
X024519Y032357*
X024606Y0324*
X024689Y032449*
X024769Y032503*
X024845Y032563*
X024916Y032628*
X024983Y032698*
X025045Y032772*
X025101Y032851*
X025152Y032933*
X025197Y033018*
X025236Y033107*
X025269Y033198*
X025295Y033291*
X025315Y033386*
X025328Y033481*
X025334Y033578*
X025333Y033674*
X025326Y033771*
X025312Y033867*
X025292Y033961*
X025265Y034054*
X025231Y034144*
X025191Y034233*
X025146Y034318*
X025094Y034399*
X025037Y034477*
X024974Y034551*
X024907Y03462*
X024835Y034685*
X024758Y034744*
X024678Y034797*
X024594Y034845*
X024507Y034887*
X024417Y034923*
X024325Y034953*
X024231Y034976*
X024136Y034992*
X024039Y035002*
X023943Y035004*
X023869Y035002*
X037163Y036149D02*
D01*
X037162Y036174*
X037159Y036199*
X037155Y036224*
X037148Y036249*
X037141Y036273*
X037131Y036297*
X03712Y036319*
X037107Y036341*
X037093Y036362*
X037077Y036382*
X03706Y036401*
X037042Y036419*
X037023Y036435*
X037002Y03645*
X036981Y036464*
X036958Y036476*
X036935Y036486*
X036911Y036495*
X036887Y036502*
X036862Y036507*
X036837Y036511*
X036811Y036512*
X036786*
X03676Y036511*
X036735Y036507*
X03671Y036502*
X036686Y036495*
X036662Y036486*
X036639Y036476*
X036617Y036464*
X036595Y03645*
X036574Y036435*
X036555Y036419*
X036537Y036401*
X03652Y036382*
X036504Y036362*
X03649Y036341*
X036477Y036319*
X036466Y036297*
X036456Y036273*
X036449Y036249*
X036442Y036224*
X036438Y036199*
X036435Y036174*
X036435Y036149*
X036435Y036123*
X036438Y036098*
X036442Y036073*
X036449Y036048*
X036456Y036024*
X036466Y036*
X036477Y035978*
X03649Y035956*
X036504Y035935*
X03652Y035915*
X036537Y035896*
X036555Y035878*
X036574Y035862*
X036595Y035847*
X036617Y035833*
X036639Y035821*
X036662Y035811*
X036686Y035802*
X03671Y035795*
X036735Y03579*
X03676Y035786*
X036786Y035785*
X036811*
X036837Y035786*
X036862Y03579*
X036887Y035795*
X036911Y035802*
X036935Y035811*
X036958Y035821*
X036981Y035833*
X037002Y035847*
X037023Y035862*
X037042Y035878*
X03706Y035896*
X037077Y035915*
X037093Y035935*
X037107Y035956*
X03712Y035978*
X037131Y036*
X037141Y036024*
X037148Y036048*
X037155Y036073*
X037159Y036098*
X037162Y036123*
X037163Y036149*
X037639Y035071D02*
D01*
X037538Y035058*
X037439Y035039*
X037342Y035013*
X037247Y03498*
X037154Y03494*
X037064Y034894*
X036978Y034842*
X036895Y034785*
X036817Y034721*
X036743Y034652*
X036675Y034578*
X036611Y0345*
X036553Y034417*
X036501Y034331*
X036456Y034241*
X036416Y034148*
X036384Y034053*
X036358Y033955*
X036339Y033856*
X036326Y033756*
X036321Y033656*
X036323Y033555*
X036332Y033454*
X036348Y033355*
X03637Y033257*
X0364Y03316*
X036436Y033066*
X036479Y032975*
X036528Y032887*
X036583Y032802*
X036644Y032722*
X03671Y032645*
X036781Y032574*
X036857Y032508*
X036938Y032448*
X037022Y032393*
X037111Y032344*
X037202Y032301*
X037296Y032265*
X037393Y032236*
X037491Y032213*
X037546Y032204*
X025013Y033632D02*
D01*
X02501Y033706*
X025002Y033779*
X024989Y033853*
X024971Y033925*
X024948Y033995*
X024921Y034064*
X024888Y034131*
X024851Y034195*
X024809Y034256*
X024764Y034315*
X024714Y03437*
X024661Y034421*
X024604Y034469*
X024544Y034513*
X024481Y034552*
X024415Y034587*
X024348Y034617*
X024278Y034642*
X024207Y034663*
X024134Y034678*
X024061Y034689*
X023987Y034694*
X023912*
X023838Y034689*
X023765Y034678*
X023692Y034663*
X023621Y034642*
X023551Y034617*
X023484Y034587*
X023418Y034552*
X023355Y034513*
X023295Y034469*
X023238Y034421*
X023185Y03437*
X023135Y034315*
X02309Y034256*
X023048Y034195*
X023011Y034131*
X022978Y034064*
X022951Y033995*
X022928Y033925*
X02291Y033853*
X022897Y033779*
X022889Y033706*
X022887Y033632*
X022889Y033557*
X022897Y033484*
X02291Y03341*
X022928Y033338*
X022951Y033268*
X022978Y033199*
X023011Y033132*
X023048Y033068*
X02309Y033007*
X023135Y032948*
X023185Y032893*
X023238Y032842*
X023295Y032794*
X023355Y03275*
X023418Y032711*
X023484Y032676*
X023551Y032646*
X023621Y032621*
X023692Y0326*
X023765Y032585*
X023838Y032574*
X023912Y032569*
X023987*
X024061Y032574*
X024134Y032585*
X024207Y0326*
X024278Y032621*
X024348Y032646*
X024415Y032676*
X024481Y032711*
X024544Y03275*
X024604Y032794*
X024661Y032842*
X024714Y032893*
X024764Y032948*
X024809Y033007*
X024851Y033068*
X024888Y033132*
X024921Y033199*
X024948Y033268*
X024971Y033338*
X024989Y03341*
X025002Y033484*
X02501Y033557*
X025013Y033632*
X038773Y033636D02*
D01*
X03877Y03371*
X038762Y033783*
X038749Y033857*
X038731Y033929*
X038708Y033999*
X038681Y034068*
X038648Y034135*
X038611Y034199*
X038569Y03426*
X038524Y034319*
X038474Y034374*
X038421Y034425*
X038364Y034473*
X038304Y034517*
X038241Y034556*
X038175Y034591*
X038108Y034621*
X038038Y034646*
X037967Y034667*
X037894Y034682*
X037821Y034693*
X037747Y034698*
X037672*
X037598Y034693*
X037525Y034682*
X037452Y034667*
X037381Y034646*
X037311Y034621*
X037244Y034591*
X037178Y034556*
X037115Y034517*
X037055Y034473*
X036998Y034425*
X036945Y034374*
X036895Y034319*
X03685Y03426*
X036808Y034199*
X036771Y034135*
X036738Y034068*
X036711Y033999*
X036688Y033929*
X03667Y033857*
X036657Y033783*
X036649Y03371*
X036647Y033636*
X036649Y033561*
X036657Y033488*
X03667Y033414*
X036688Y033342*
X036711Y033272*
X036738Y033203*
X036771Y033136*
X036808Y033072*
X03685Y033011*
X036895Y032952*
X036945Y032897*
X036998Y032846*
X037055Y032798*
X037115Y032754*
X037178Y032715*
X037244Y03268*
X037311Y03265*
X037381Y032625*
X037452Y032604*
X037525Y032589*
X037598Y032578*
X037672Y032573*
X037747*
X037821Y032578*
X037894Y032589*
X037967Y032604*
X038038Y032625*
X038108Y03265*
X038175Y03268*
X038241Y032715*
X038304Y032754*
X038364Y032798*
X038421Y032846*
X038474Y032897*
X038524Y032952*
X038569Y033011*
X038611Y033072*
X038648Y033136*
X038681Y033203*
X038708Y033272*
X038731Y033342*
X038749Y033414*
X038762Y033488*
X03877Y033561*
X038773Y033636*
X021589Y03721D02*
D01*
X021354Y036839*
X021145Y036454*
X020964Y036055*
X020811Y035644*
X020687Y035223*
X020593Y034795*
X020529Y034362*
X020495Y033925*
X020492Y033486*
X020519Y033049*
X020577Y032614*
X020665Y032185*
X020783Y031763*
X02093Y03135*
X021105Y030948*
X021308Y03056*
X021538Y030186*
X021615Y030076*
X03336Y03244D02*
D01*
X03329Y032375*
X033225Y032306*
X033165Y032232*
X03311Y032155*
X033061Y032073*
X033017Y031989*
X03298Y031902*
X032949Y031812*
X032924Y03172*
X032905Y031627*
X032894Y031533*
X032888Y031438*
X03289Y031343*
X032897Y031248*
X032912Y031155*
X032933Y031062*
X03296Y030971*
X032994Y030882*
X033034Y030796*
X03308Y030713*
X033131Y030633*
X033188Y030557*
X03325Y030485*
X033317Y030418*
X033389Y030355*
X033464Y030298*
X033544Y030246*
X033627Y030199*
X033712Y030159*
X033801Y030125*
X033892Y030097*
X033984Y030075*
X03401Y030071*
X025992Y03101D02*
D01*
X02599Y031041*
X025987Y031072*
X025982Y031103*
X025974Y031134*
X025964Y031164*
X025952Y031193*
X025939Y031222*
X025923Y031249*
X025905Y031275*
X025886Y0313*
X025865Y031323*
X025842Y031345*
X025818Y031366*
X025792Y031384*
X025766Y031401*
X025738Y031416*
X025709Y031429*
X025679Y031439*
X025649Y031448*
X025618Y031455*
X025587Y031459*
X025555Y031461*
X025524*
X025492Y031459*
X025461Y031455*
X02543Y031448*
X0254Y031439*
X02537Y031429*
X025341Y031416*
X025314Y031401*
X025287Y031384*
X025261Y031366*
X025237Y031345*
X025214Y031323*
X025193Y0313*
X025174Y031275*
X025156Y031249*
X02514Y031222*
X025127Y031193*
X025115Y031164*
X025105Y031134*
X025097Y031103*
X025092Y031072*
X025089Y031041*
X025088Y03101*
X025089Y030978*
X025092Y030947*
X025097Y030916*
X025105Y030885*
X025115Y030855*
X025127Y030826*
X02514Y030797*
X025156Y03077*
X025174Y030744*
X025193Y030719*
X025214Y030696*
X025237Y030674*
X025261Y030653*
X025287Y030635*
X025314Y030618*
X025341Y030603*
X02537Y03059*
X0254Y03058*
X02543Y030571*
X025461Y030564*
X025492Y03056*
X025524Y030558*
X025555*
X025587Y03056*
X025618Y030564*
X025649Y030571*
X025679Y03058*
X025709Y03059*
X025738Y030603*
X025766Y030618*
X025792Y030635*
X025818Y030653*
X025842Y030674*
X025865Y030696*
X025886Y030719*
X025905Y030744*
X025923Y03077*
X025939Y030797*
X025952Y030826*
X025964Y030855*
X025974Y030885*
X025982Y030916*
X025987Y030947*
X02599Y030978*
X025992Y03101*
X027812Y031D02*
D01*
X02781Y031031*
X027807Y031062*
X027802Y031093*
X027794Y031124*
X027784Y031154*
X027772Y031183*
X027759Y031212*
X027743Y031239*
X027725Y031265*
X027706Y03129*
X027685Y031313*
X027662Y031335*
X027638Y031356*
X027612Y031374*
X027586Y031391*
X027558Y031406*
X027529Y031419*
X027499Y031429*
X027469Y031438*
X027438Y031445*
X027407Y031449*
X027375Y031451*
X027344*
X027312Y031449*
X027281Y031445*
X02725Y031438*
X02722Y031429*
X02719Y031419*
X027161Y031406*
X027134Y031391*
X027107Y031374*
X027081Y031356*
X027057Y031335*
X027034Y031313*
X027013Y03129*
X026994Y031265*
X026976Y031239*
X02696Y031212*
X026947Y031183*
X026935Y031154*
X026925Y031124*
X026917Y031093*
X026912Y031062*
X026909Y031031*
X026908Y031*
X026909Y030968*
X026912Y030937*
X026917Y030906*
X026925Y030875*
X026935Y030845*
X026947Y030816*
X02696Y030787*
X026976Y03076*
X026994Y030734*
X027013Y030709*
X027034Y030686*
X027057Y030664*
X027081Y030643*
X027107Y030625*
X027134Y030608*
X027161Y030593*
X02719Y03058*
X02722Y03057*
X02725Y030561*
X027281Y030554*
X027312Y03055*
X027344Y030548*
X027375*
X027407Y03055*
X027438Y030554*
X027469Y030561*
X027499Y03057*
X027529Y03058*
X027558Y030593*
X027586Y030608*
X027612Y030625*
X027638Y030643*
X027662Y030664*
X027685Y030686*
X027706Y030709*
X027725Y030734*
X027743Y03076*
X027759Y030787*
X027772Y030816*
X027784Y030845*
X027794Y030875*
X027802Y030906*
X027807Y030937*
X02781Y030968*
X027812Y031*
X022643Y031537D02*
D01*
X022642Y031543*
X022642Y03155*
X02264Y031557*
X022639Y031564*
X022637Y03157*
X022634Y031576*
X022631Y031583*
X022628Y031588*
X022624Y031594*
X02262Y031599*
X022615Y031605*
X02261Y031609*
X022605Y031614*
X022599Y031618*
X022594Y031621*
X022587Y031625*
X022581Y031627*
X022575Y03163*
X022568Y031632*
X022562Y031633*
X022555Y031634*
X022548Y031634*
X022541*
X022534Y031634*
X022527Y031633*
X022521Y031632*
X022514Y03163*
X022508Y031627*
X022502Y031625*
X022496Y031621*
X02249Y031618*
X022484Y031614*
X022479Y031609*
X022474Y031605*
X022469Y031599*
X022465Y031594*
X022461Y031588*
X022458Y031583*
X022455Y031576*
X022452Y03157*
X02245Y031564*
X022449Y031557*
X022447Y03155*
X022447Y031543*
X022447Y031537*
X022447Y03153*
X022447Y031523*
X022449Y031516*
X02245Y031509*
X022452Y031503*
X022455Y031497*
X022458Y03149*
X022461Y031485*
X022465Y031479*
X022469Y031474*
X022474Y031468*
X022479Y031464*
X022484Y031459*
X02249Y031455*
X022496Y031452*
X022502Y031448*
X022508Y031446*
X022514Y031443*
X022521Y031441*
X022527Y03144*
X022534Y031439*
X022541Y031439*
X022548*
X022555Y031439*
X022562Y03144*
X022568Y031441*
X022575Y031443*
X022581Y031446*
X022587Y031448*
X022594Y031452*
X022599Y031455*
X022605Y031459*
X02261Y031464*
X022615Y031468*
X02262Y031474*
X022624Y031479*
X022628Y031485*
X022631Y03149*
X022634Y031497*
X022637Y031503*
X022639Y031509*
X02264Y031516*
X022642Y031523*
X022642Y03153*
X022643Y031537*
X03897Y03448D02*
X0392Y03471D01*
Y03505*
Y03227D02*
Y03264D01*
X03897Y03287D02*
X0392Y03264D01*
X035627Y031075D02*
X036453D01*
X035627Y030445D02*
X036453D01*
X036311Y036662D02*
X037283D01*
X036288Y036639D02*
X036311Y036662D01*
X036288Y035669D02*
Y036639D01*
X037283Y036662D02*
X037312Y036634D01*
Y035669D02*
Y036634D01*
X036288Y035669D02*
X036319Y035638D01*
X037281*
X037312Y035669*
X020009Y03273D02*
Y034542D01*
X027534Y035796D02*
Y03615D01*
Y036583D02*
Y036938D01*
Y035796D02*
X028045D01*
X027534Y036938D02*
X028045D01*
X028164Y036229D02*
Y036505D01*
X038087Y030768D02*
Y031352D01*
X0391Y030768D02*
Y031352D01*
X038087Y030768D02*
X0391D01*
X038087Y031352D02*
X0391D01*
X03764Y03507D02*
Y03721D01*
X03958Y03543D02*
Y03721D01*
X0392Y03505D02*
X03958Y03543D01*
X03016Y031601D02*
X030514D01*
X030947D02*
X031302D01*
X03016Y031089D02*
Y031601D01*
X031302Y031089D02*
Y031601D01*
X030593Y030971D02*
X030869D01*
X02867Y032442D02*
X03336D01*
X02159Y03721D02*
X03764D01*
X02866Y030125D02*
Y037147D01*
X037555Y03007D02*
Y0322D01*
X02866Y0301D02*
Y03177D01*
X0396Y03007D02*
Y03187D01*
X0392Y03227D02*
X0396Y03187D01*
X03897Y03287D02*
Y03448D01*
X02162Y03007D02*
X03769D01*
X03768D02*
X04429D01*
X037643Y03721D02*
X04429D01*
Y03007D02*
Y03721D01*
X02402Y03177D02*
X02866D01*
X0204Y03323D02*
X020085D01*
Y033387*
X020138Y03344*
X020243*
X020295Y033387*
Y03323*
X0204Y033755D02*
Y033545D01*
X02019Y033755*
X020138*
X020085Y033702*
Y033597*
X020138Y033545*
Y03386D02*
X020085Y033912D01*
Y034017*
X020138Y03407*
X02019*
X020243Y034017*
Y033965*
Y034017*
X020295Y03407*
X020348*
X0204Y034017*
Y033912*
X020348Y03386*
X022207Y030871D02*
Y030557D01*
X022364*
X022416Y030609*
Y030662*
X022364Y030714*
X022207*
X022364*
X022416Y030767*
Y030819*
X022364Y030871*
X022207*
X022521D02*
X022731D01*
Y030819*
X022521Y030609*
Y030557*
X022731*
X022836D02*
X022941D01*
X022889*
Y030871*
X022836Y030819*
G54D44*
X042408Y031467D02*
D01*
X042407Y031469*
X042407Y031472*
X042407Y031475*
X042406Y031477*
X042405Y03148*
X042404Y031482*
X042403Y031485*
X042402Y031487*
X0424Y031489*
X042398Y031492*
X042397Y031494*
X042395Y031495*
X042393Y031497*
X04239Y031499*
X042388Y0315*
X042386Y031502*
X042383Y031503*
X042381Y031504*
X042378Y031504*
X042375Y031505*
X042373Y031505*
X04237Y031505*
X042367*
X042364Y031505*
X042362Y031505*
X042359Y031504*
X042356Y031504*
X042354Y031503*
X042351Y031502*
X042349Y0315*
X042347Y031499*
X042344Y031497*
X042342Y031495*
X04234Y031494*
X042339Y031492*
X042337Y031489*
X042335Y031487*
X042334Y031485*
X042333Y031482*
X042332Y03148*
X042331Y031477*
X04233Y031475*
X04233Y031472*
X04233Y031469*
X04233Y031467*
X04233Y031464*
X04233Y031461*
X04233Y031458*
X042331Y031456*
X042332Y031453*
X042333Y031451*
X042334Y031448*
X042335Y031446*
X042337Y031444*
X042339Y031441*
X04234Y031439*
X042342Y031438*
X042344Y031436*
X042347Y031434*
X042349Y031433*
X042351Y031431*
X042354Y03143*
X042356Y031429*
X042359Y031429*
X042362Y031428*
X042364Y031428*
X042367Y031428*
X04237*
X042373Y031428*
X042375Y031428*
X042378Y031429*
X042381Y031429*
X042383Y03143*
X042386Y031431*
X042388Y031433*
X04239Y031434*
X042393Y031436*
X042395Y031438*
X042397Y031439*
X042398Y031441*
X0424Y031444*
X042402Y031446*
X042403Y031448*
X042404Y031451*
X042405Y031453*
X042406Y031456*
X042407Y031458*
X042407Y031461*
X042407Y031464*
X042408Y031467*
Y03688D02*
D01*
X042407Y036882*
X042407Y036885*
X042407Y036888*
X042406Y03689*
X042405Y036893*
X042404Y036895*
X042403Y036898*
X042402Y0369*
X0424Y036902*
X042398Y036905*
X042397Y036907*
X042395Y036908*
X042393Y03691*
X04239Y036912*
X042388Y036913*
X042386Y036915*
X042383Y036916*
X042381Y036917*
X042378Y036917*
X042375Y036918*
X042373Y036918*
X04237Y036918*
X042367*
X042364Y036918*
X042362Y036918*
X042359Y036917*
X042356Y036917*
X042354Y036916*
X042351Y036915*
X042349Y036913*
X042347Y036912*
X042344Y03691*
X042342Y036908*
X04234Y036907*
X042339Y036905*
X042337Y036902*
X042335Y0369*
X042334Y036898*
X042333Y036895*
X042332Y036893*
X042331Y03689*
X04233Y036888*
X04233Y036885*
X04233Y036882*
X04233Y03688*
X04233Y036877*
X04233Y036874*
X04233Y036871*
X042331Y036869*
X042332Y036866*
X042333Y036864*
X042334Y036861*
X042335Y036859*
X042337Y036857*
X042339Y036854*
X04234Y036852*
X042342Y036851*
X042344Y036849*
X042347Y036847*
X042349Y036846*
X042351Y036844*
X042354Y036843*
X042356Y036842*
X042359Y036842*
X042362Y036841*
X042364Y036841*
X042367Y036841*
X04237*
X042373Y036841*
X042375Y036841*
X042378Y036842*
X042381Y036842*
X042383Y036843*
X042386Y036844*
X042388Y036846*
X04239Y036847*
X042393Y036849*
X042395Y036851*
X042397Y036852*
X042398Y036854*
X0424Y036857*
X042402Y036859*
X042403Y036861*
X042404Y036864*
X042405Y036866*
X042406Y036869*
X042407Y036871*
X042407Y036874*
X042407Y036877*
X042408Y03688*
G54D47*
X024041Y031537D02*
D01*
X024037Y031641*
X024026Y031745*
X024008Y031848*
X023983Y031949*
X02395Y032048*
X023911Y032145*
X023865Y032239*
X023813Y032329*
X023755Y032416*
X023691Y032498*
X023621Y032576*
X023546Y032648*
X023466Y032715*
X023381Y032777*
X023293Y032832*
X0232Y032881*
X023105Y032924*
X023007Y032959*
X022906Y032988*
X022804Y03301*
X022701Y033024*
X022597Y033032*
X022492*
X022388Y033024*
X022285Y03301*
X022183Y032988*
X022082Y032959*
X021984Y032924*
X021889Y032881*
X021797Y032832*
X021708Y032777*
X021623Y032715*
X021543Y032648*
X021468Y032576*
X021398Y032498*
X021334Y032416*
X021276Y032329*
X021224Y032239*
X021178Y032145*
X021139Y032048*
X021106Y031949*
X021081Y031848*
X021063Y031745*
X021052Y031641*
X021049Y031537*
X021052Y031432*
X021063Y031328*
X021081Y031225*
X021106Y031124*
X021139Y031025*
X021178Y030928*
X021224Y030834*
X021276Y030744*
X021334Y030657*
X021398Y030575*
X021468Y030497*
X021543Y030425*
X021623Y030358*
X021708Y030296*
X021797Y030241*
X021889Y030192*
X021984Y030149*
X022082Y030114*
X022183Y030085*
X022285Y030063*
X022388Y030049*
X022492Y030041*
X022597*
X022701Y030049*
X022804Y030063*
X022906Y030085*
X023007Y030114*
X023105Y030149*
X0232Y030192*
X023293Y030241*
X023381Y030296*
X023466Y030358*
X023546Y030425*
X023621Y030497*
X023691Y030575*
X023755Y030657*
X023813Y030744*
X023865Y030834*
X023911Y030928*
X02395Y031025*
X023983Y031124*
X024008Y031225*
X024026Y031328*
X024037Y031432*
X024041Y031537*
X031878Y036283D02*
Y036362D01*
X032115Y036283D02*
Y036362D01*
X031037Y036221D02*
X031116D01*
X031037Y035984D02*
X031116D01*
X029508Y033958D02*
Y03443D01*
X028918Y033958D02*
Y03443D01*
X030437Y03569D02*
X030516D01*
X030437Y035454D02*
X030516D01*
X021509Y032672D02*
Y033046D01*
Y034227D02*
Y034601D01*
X021184Y032672D02*
X021509D01*
X021184Y034601D02*
X021509D01*
X031209Y03308D02*
Y033277D01*
Y03308D02*
X031406D01*
X033375D02*
X033571D01*
Y033277*
Y035245D02*
Y035442D01*
X033375D02*
X033571D01*
X031209Y035245D02*
X031406Y035442D01*
X029519Y031113D02*
Y031192D01*
X029755Y031113D02*
Y031192D01*
X032167Y031871D02*
X032246D01*
X032167Y032107D02*
X032246D01*
X021626Y034872D02*
X02195D01*
X021626D02*
Y035197D01*
X023545Y034872D02*
X02387D01*
Y035197*
X023545Y037117D02*
X02387D01*
Y036792D02*
Y037117D01*
X021626D02*
X02195D01*
X021626Y036792D02*
Y037117D01*
G54D67*
X043634Y0363D02*
D01*
X043633Y036327*
X04363Y036354*
X043625Y036381*
X043618Y036408*
X04361Y036434*
X043599Y03646*
X043587Y036484*
X043574Y036508*
X043558Y036531*
X043541Y036553*
X043523Y036573*
X043503Y036592*
X043482Y03661*
X04346Y036626*
X043437Y036641*
X043412Y036654*
X043387Y036665*
X043361Y036674*
X043335Y036682*
X043308Y036688*
X043281Y036691*
X043253Y036693*
X043226*
X043198Y036691*
X043171Y036688*
X043144Y036682*
X043118Y036674*
X043092Y036665*
X043067Y036654*
X043043Y036641*
X043019Y036626*
X042997Y03661*
X042976Y036592*
X042956Y036573*
X042938Y036553*
X042921Y036531*
X042905Y036508*
X042892Y036484*
X04288Y03646*
X042869Y036434*
X042861Y036408*
X042854Y036381*
X042849Y036354*
X042846Y036327*
X042846Y0363*
X042846Y036272*
X042849Y036245*
X042854Y036218*
X042861Y036191*
X042869Y036165*
X04288Y036139*
X042892Y036115*
X042905Y036091*
X042921Y036068*
X042938Y036046*
X042956Y036026*
X042976Y036007*
X042997Y035989*
X043019Y035973*
X043043Y035958*
X043067Y035945*
X043092Y035934*
X043118Y035925*
X043144Y035917*
X043171Y035911*
X043198Y035908*
X043226Y035906*
X043253*
X043281Y035908*
X043308Y035911*
X043335Y035917*
X043361Y035925*
X043387Y035934*
X043412Y035945*
X043437Y035958*
X04346Y035973*
X043482Y035989*
X043503Y036007*
X043523Y036026*
X043541Y036046*
X043558Y036068*
X043574Y036091*
X043587Y036115*
X043599Y036139*
X04361Y036165*
X043618Y036191*
X043625Y036218*
X04363Y036245*
X043633Y036272*
X043634Y0363*
X044187Y03218D02*
D01*
X044186Y032207*
X044183Y032234*
X044178Y032261*
X044171Y032288*
X044163Y032314*
X044152Y03234*
X04414Y032364*
X044127Y032388*
X044111Y032411*
X044094Y032433*
X044076Y032453*
X044056Y032472*
X044035Y03249*
X044013Y032506*
X04399Y032521*
X043965Y032534*
X04394Y032545*
X043914Y032554*
X043888Y032562*
X043861Y032568*
X043834Y032571*
X043806Y032573*
X043779*
X043751Y032571*
X043724Y032568*
X043697Y032562*
X043671Y032554*
X043645Y032545*
X04362Y032534*
X043596Y032521*
X043572Y032506*
X04355Y03249*
X043529Y032472*
X043509Y032453*
X043491Y032433*
X043474Y032411*
X043458Y032388*
X043445Y032364*
X043433Y03234*
X043422Y032314*
X043414Y032288*
X043407Y032261*
X043402Y032234*
X043399Y032207*
X043399Y03218*
X043399Y032152*
X043402Y032125*
X043407Y032098*
X043414Y032071*
X043422Y032045*
X043433Y032019*
X043445Y031995*
X043458Y031971*
X043474Y031948*
X043491Y031926*
X043509Y031906*
X043529Y031887*
X04355Y031869*
X043572Y031853*
X043596Y031838*
X04362Y031825*
X043645Y031814*
X043671Y031805*
X043697Y031797*
X043724Y031791*
X043751Y031788*
X043779Y031786*
X043806*
X043834Y031788*
X043861Y031791*
X043888Y031797*
X043914Y031805*
X04394Y031814*
X043965Y031825*
X04399Y031838*
X044013Y031853*
X044035Y031869*
X044056Y031887*
X044076Y031906*
X044094Y031926*
X044111Y031948*
X044127Y031971*
X04414Y031995*
X044152Y032019*
X044163Y032045*
X044171Y032071*
X044178Y032098*
X044183Y032125*
X044186Y032152*
X044187Y03218*
Y03363D02*
D01*
X044186Y033657*
X044183Y033684*
X044178Y033711*
X044171Y033738*
X044163Y033764*
X044152Y03379*
X04414Y033814*
X044127Y033838*
X044111Y033861*
X044094Y033883*
X044076Y033903*
X044056Y033922*
X044035Y03394*
X044013Y033956*
X04399Y033971*
X043965Y033984*
X04394Y033995*
X043914Y034004*
X043888Y034012*
X043861Y034018*
X043834Y034021*
X043806Y034023*
X043779*
X043751Y034021*
X043724Y034018*
X043697Y034012*
X043671Y034004*
X043645Y033995*
X04362Y033984*
X043596Y033971*
X043572Y033956*
X04355Y03394*
X043529Y033922*
X043509Y033903*
X043491Y033883*
X043474Y033861*
X043458Y033838*
X043445Y033814*
X043433Y03379*
X043422Y033764*
X043414Y033738*
X043407Y033711*
X043402Y033684*
X043399Y033657*
X043399Y03363*
X043399Y033602*
X043402Y033575*
X043407Y033548*
X043414Y033521*
X043422Y033495*
X043433Y033469*
X043445Y033445*
X043458Y033421*
X043474Y033398*
X043491Y033376*
X043509Y033356*
X043529Y033337*
X04355Y033319*
X043572Y033303*
X043596Y033288*
X04362Y033275*
X043645Y033264*
X043671Y033255*
X043697Y033247*
X043724Y033241*
X043751Y033238*
X043779Y033236*
X043806*
X043834Y033238*
X043861Y033241*
X043888Y033247*
X043914Y033255*
X04394Y033264*
X043965Y033275*
X04399Y033288*
X044013Y033303*
X044035Y033319*
X044056Y033337*
X044076Y033356*
X044094Y033376*
X044111Y033398*
X044127Y033421*
X04414Y033445*
X044152Y033469*
X044163Y033495*
X044171Y033521*
X044178Y033548*
X044183Y033575*
X044186Y033602*
X044187Y03363*
Y03508D02*
D01*
X044186Y035107*
X044183Y035134*
X044178Y035161*
X044171Y035188*
X044163Y035214*
X044152Y03524*
X04414Y035264*
X044127Y035288*
X044111Y035311*
X044094Y035333*
X044076Y035353*
X044056Y035372*
X044035Y03539*
X044013Y035406*
X04399Y035421*
X043965Y035434*
X04394Y035445*
X043914Y035454*
X043888Y035462*
X043861Y035468*
X043834Y035471*
X043806Y035473*
X043779*
X043751Y035471*
X043724Y035468*
X043697Y035462*
X043671Y035454*
X043645Y035445*
X04362Y035434*
X043596Y035421*
X043572Y035406*
X04355Y03539*
X043529Y035372*
X043509Y035353*
X043491Y035333*
X043474Y035311*
X043458Y035288*
X043445Y035264*
X043433Y03524*
X043422Y035214*
X043414Y035188*
X043407Y035161*
X043402Y035134*
X043399Y035107*
X043399Y03508*
X043399Y035052*
X043402Y035025*
X043407Y034998*
X043414Y034971*
X043422Y034945*
X043433Y034919*
X043445Y034895*
X043458Y034871*
X043474Y034848*
X043491Y034826*
X043509Y034806*
X043529Y034787*
X04355Y034769*
X043572Y034753*
X043596Y034738*
X04362Y034725*
X043645Y034714*
X043671Y034705*
X043697Y034697*
X043724Y034691*
X043751Y034688*
X043779Y034686*
X043806*
X043834Y034688*
X043861Y034691*
X043888Y034697*
X043914Y034705*
X04394Y034714*
X043965Y034725*
X04399Y034738*
X044013Y034753*
X044035Y034769*
X044056Y034787*
X044076Y034806*
X044094Y034826*
X044111Y034848*
X044127Y034871*
X04414Y034895*
X044152Y034919*
X044163Y034945*
X044171Y034971*
X044178Y034998*
X044183Y035025*
X044186Y035052*
X044187Y03508*
X043634Y03091D02*
D01*
X043633Y030937*
X04363Y030964*
X043625Y030991*
X043618Y031018*
X04361Y031044*
X043599Y03107*
X043587Y031094*
X043574Y031118*
X043558Y031141*
X043541Y031163*
X043523Y031183*
X043503Y031202*
X043482Y03122*
X04346Y031236*
X043437Y031251*
X043412Y031264*
X043387Y031275*
X043361Y031284*
X043335Y031292*
X043308Y031298*
X043281Y031301*
X043253Y031303*
X043226*
X043198Y031301*
X043171Y031298*
X043144Y031292*
X043118Y031284*
X043092Y031275*
X043067Y031264*
X043043Y031251*
X043019Y031236*
X042997Y03122*
X042976Y031202*
X042956Y031183*
X042938Y031163*
X042921Y031141*
X042905Y031118*
X042892Y031094*
X04288Y03107*
X042869Y031044*
X042861Y031018*
X042854Y030991*
X042849Y030964*
X042846Y030937*
X042846Y03091*
X042846Y030882*
X042849Y030855*
X042854Y030828*
X042861Y030801*
X042869Y030775*
X04288Y030749*
X042892Y030725*
X042905Y030701*
X042921Y030678*
X042938Y030656*
X042956Y030636*
X042976Y030617*
X042997Y030599*
X043019Y030583*
X043043Y030568*
X043067Y030555*
X043092Y030544*
X043118Y030535*
X043144Y030527*
X043171Y030521*
X043198Y030518*
X043226Y030516*
X043253*
X043281Y030518*
X043308Y030521*
X043335Y030527*
X043361Y030535*
X043387Y030544*
X043412Y030555*
X043437Y030568*
X04346Y030583*
X043482Y030599*
X043503Y030617*
X043523Y030636*
X043541Y030656*
X043558Y030678*
X043574Y030701*
X043587Y030725*
X043599Y030749*
X04361Y030775*
X043618Y030801*
X043625Y030828*
X04363Y030855*
X043633Y030882*
X043634Y03091*
X040224Y03364D02*
D01*
X040223Y033667*
X04022Y033694*
X040215Y033721*
X040208Y033748*
X0402Y033774*
X040189Y0338*
X040177Y033824*
X040164Y033848*
X040148Y033871*
X040131Y033893*
X040113Y033913*
X040093Y033932*
X040072Y03395*
X04005Y033966*
X040027Y033981*
X040002Y033994*
X039977Y034005*
X039951Y034014*
X039925Y034022*
X039898Y034028*
X039871Y034031*
X039843Y034033*
X039816*
X039788Y034031*
X039761Y034028*
X039734Y034022*
X039708Y034014*
X039682Y034005*
X039657Y033994*
X039633Y033981*
X039609Y033966*
X039587Y03395*
X039566Y033932*
X039546Y033913*
X039528Y033893*
X039511Y033871*
X039495Y033848*
X039482Y033824*
X03947Y0338*
X039459Y033774*
X039451Y033748*
X039444Y033721*
X039439Y033694*
X039436Y033667*
X039436Y03364*
X039436Y033612*
X039439Y033585*
X039444Y033558*
X039451Y033531*
X039459Y033505*
X03947Y033479*
X039482Y033455*
X039495Y033431*
X039511Y033408*
X039528Y033386*
X039546Y033366*
X039566Y033347*
X039587Y033329*
X039609Y033313*
X039633Y033298*
X039657Y033285*
X039682Y033274*
X039708Y033265*
X039734Y033257*
X039761Y033251*
X039788Y033248*
X039816Y033246*
X039843*
X039871Y033248*
X039898Y033251*
X039925Y033257*
X039951Y033265*
X039977Y033274*
X040002Y033285*
X040027Y033298*
X04005Y033313*
X040072Y033329*
X040093Y033347*
X040113Y033366*
X040131Y033386*
X040148Y033408*
X040164Y033431*
X040177Y033455*
X040189Y033479*
X0402Y033505*
X040208Y033531*
X040215Y033558*
X04022Y033585*
X040223Y033612*
X040224Y03364*
Y03475D02*
D01*
X040223Y034777*
X04022Y034804*
X040215Y034831*
X040208Y034858*
X0402Y034884*
X040189Y03491*
X040177Y034934*
X040164Y034958*
X040148Y034981*
X040131Y035003*
X040113Y035023*
X040093Y035042*
X040072Y03506*
X04005Y035076*
X040027Y035091*
X040002Y035104*
X039977Y035115*
X039951Y035124*
X039925Y035132*
X039898Y035138*
X039871Y035141*
X039843Y035143*
X039816*
X039788Y035141*
X039761Y035138*
X039734Y035132*
X039708Y035124*
X039682Y035115*
X039657Y035104*
X039633Y035091*
X039609Y035076*
X039587Y03506*
X039566Y035042*
X039546Y035023*
X039528Y035003*
X039511Y034981*
X039495Y034958*
X039482Y034934*
X03947Y03491*
X039459Y034884*
X039451Y034858*
X039444Y034831*
X039439Y034804*
X039436Y034777*
X039436Y03475*
X039436Y034722*
X039439Y034695*
X039444Y034668*
X039451Y034641*
X039459Y034615*
X03947Y034589*
X039482Y034565*
X039495Y034541*
X039511Y034518*
X039528Y034496*
X039546Y034476*
X039566Y034457*
X039587Y034439*
X039609Y034423*
X039633Y034408*
X039657Y034395*
X039682Y034384*
X039708Y034375*
X039734Y034367*
X039761Y034361*
X039788Y034358*
X039816Y034356*
X039843*
X039871Y034358*
X039898Y034361*
X039925Y034367*
X039951Y034375*
X039977Y034384*
X040002Y034395*
X040027Y034408*
X04005Y034423*
X040072Y034439*
X040093Y034457*
X040113Y034476*
X040131Y034496*
X040148Y034518*
X040164Y034541*
X040177Y034565*
X040189Y034589*
X0402Y034615*
X040208Y034641*
X040215Y034668*
X04022Y034695*
X040223Y034722*
X040224Y03475*
Y032562D02*
D01*
X040223Y032589*
X04022Y032616*
X040215Y032643*
X040208Y03267*
X0402Y032696*
X040189Y032722*
X040177Y032746*
X040164Y03277*
X040148Y032793*
X040131Y032815*
X040113Y032835*
X040093Y032854*
X040072Y032872*
X04005Y032888*
X040027Y032903*
X040002Y032916*
X039977Y032927*
X039951Y032936*
X039925Y032944*
X039898Y03295*
X039871Y032953*
X039843Y032955*
X039816*
X039788Y032953*
X039761Y03295*
X039734Y032944*
X039708Y032936*
X039682Y032927*
X039657Y032916*
X039633Y032903*
X039609Y032888*
X039587Y032872*
X039566Y032854*
X039546Y032835*
X039528Y032815*
X039511Y032793*
X039495Y03277*
X039482Y032746*
X03947Y032722*
X039459Y032696*
X039451Y03267*
X039444Y032643*
X039439Y032616*
X039436Y032589*
X039436Y032562*
X039436Y032534*
X039439Y032507*
X039444Y03248*
X039451Y032453*
X039459Y032427*
X03947Y032401*
X039482Y032377*
X039495Y032353*
X039511Y03233*
X039528Y032308*
X039546Y032288*
X039566Y032269*
X039587Y032251*
X039609Y032235*
X039633Y03222*
X039657Y032207*
X039682Y032196*
X039708Y032187*
X039734Y032179*
X039761Y032173*
X039788Y03217*
X039816Y032168*
X039843*
X039871Y03217*
X039898Y032173*
X039925Y032179*
X039951Y032187*
X039977Y032196*
X040002Y032207*
X040027Y03222*
X04005Y032235*
X040072Y032251*
X040093Y032269*
X040113Y032288*
X040131Y032308*
X040148Y03233*
X040164Y032353*
X040177Y032377*
X040189Y032401*
X0402Y032427*
X040208Y032453*
X040215Y03248*
X04022Y032507*
X040223Y032534*
X040224Y032562*
X025634Y036191D02*
Y036626D01*
X044288Y031593D02*
X047419D01*
Y035633*
X046066Y032953D02*
X047412D01*
X046066D02*
Y034295D01*
X04741*
X044288Y031593D02*
Y035633D01*
X047419*
G54D83*
X030904Y035127D02*
D01*
X030903Y03513*
X030903Y035133*
X030902Y035137*
X030902Y03514*
X030901Y035143*
X030899Y035146*
X030898Y03515*
X030896Y035152*
X030894Y035155*
X030892Y035158*
X03089Y035161*
X030887Y035163*
X030885Y035165*
X030882Y035167*
X030879Y035169*
X030876Y035171*
X030873Y035172*
X03087Y035173*
X030866Y035174*
X030863Y035175*
X03086Y035175*
X030856Y035175*
X030853*
X030849Y035175*
X030846Y035175*
X030843Y035174*
X030839Y035173*
X030836Y035172*
X030833Y035171*
X03083Y035169*
X030827Y035167*
X030824Y035165*
X030822Y035163*
X030819Y035161*
X030817Y035158*
X030815Y035155*
X030813Y035152*
X030811Y03515*
X03081Y035146*
X030808Y035143*
X030807Y03514*
X030807Y035137*
X030806Y035133*
X030806Y03513*
X030806Y035127*
X030806Y035123*
X030806Y03512*
X030807Y035116*
X030807Y035113*
X030808Y03511*
X03081Y035107*
X030811Y035103*
X030813Y035101*
X030815Y035098*
X030817Y035095*
X030819Y035092*
X030822Y03509*
X030824Y035088*
X030827Y035086*
X03083Y035084*
X030833Y035082*
X030836Y035081*
X030839Y03508*
X030843Y035079*
X030846Y035078*
X030849Y035078*
X030853Y035078*
X030856*
X03086Y035078*
X030863Y035078*
X030866Y035079*
X03087Y03508*
X030873Y035081*
X030876Y035082*
X030879Y035084*
X030882Y035086*
X030885Y035088*
X030887Y03509*
X03089Y035092*
X030892Y035095*
X030894Y035098*
X030896Y035101*
X030898Y035103*
X030899Y035107*
X030901Y03511*
X030902Y035113*
X030902Y035116*
X030903Y03512*
X030903Y035123*
X030904Y035127*
X02836Y035638D02*
D01*
X028359Y03564*
X028359Y035643*
X028359Y035646*
X028358Y035648*
X028357Y035651*
X028356Y035653*
X028355Y035656*
X028354Y035658*
X028352Y03566*
X02835Y035663*
X028349Y035665*
X028347Y035666*
X028345Y035668*
X028342Y03567*
X02834Y035671*
X028338Y035673*
X028335Y035674*
X028333Y035675*
X02833Y035675*
X028327Y035676*
X028325Y035676*
X028322Y035676*
X028319*
X028316Y035676*
X028314Y035676*
X028311Y035675*
X028308Y035675*
X028306Y035674*
X028303Y035673*
X028301Y035671*
X028299Y03567*
X028296Y035668*
X028294Y035666*
X028292Y035665*
X028291Y035663*
X028289Y03566*
X028287Y035658*
X028286Y035656*
X028285Y035653*
X028284Y035651*
X028283Y035648*
X028282Y035646*
X028282Y035643*
X028282Y03564*
X028282Y035638*
X028282Y035635*
X028282Y035632*
X028282Y035629*
X028283Y035627*
X028284Y035624*
X028285Y035622*
X028286Y035619*
X028287Y035617*
X028289Y035615*
X028291Y035612*
X028292Y03561*
X028294Y035609*
X028296Y035607*
X028299Y035605*
X028301Y035604*
X028303Y035602*
X028306Y035601*
X028308Y0356*
X028311Y0356*
X028314Y035599*
X028316Y035599*
X028319Y035599*
X028322*
X028325Y035599*
X028327Y035599*
X02833Y0356*
X028333Y0356*
X028335Y035601*
X028338Y035602*
X02834Y035604*
X028342Y035605*
X028345Y035607*
X028347Y035609*
X028349Y03561*
X02835Y035612*
X028352Y035615*
X028354Y035617*
X028355Y035619*
X028356Y035622*
X028357Y035624*
X028358Y035627*
X028359Y035629*
X028359Y035632*
X028359Y035635*
X02836Y035638*
X045379Y034796D02*
D01*
X045378Y034799*
X045378Y034802*
X045377Y034806*
X045377Y034809*
X045376Y034812*
X045374Y034815*
X045373Y034819*
X045371Y034821*
X045369Y034824*
X045367Y034827*
X045365Y03483*
X045362Y034832*
X04536Y034834*
X045357Y034836*
X045354Y034838*
X045351Y03484*
X045348Y034841*
X045345Y034842*
X045341Y034843*
X045338Y034844*
X045335Y034844*
X045331Y034844*
X045328*
X045324Y034844*
X045321Y034844*
X045318Y034843*
X045314Y034842*
X045311Y034841*
X045308Y03484*
X045305Y034838*
X045302Y034836*
X045299Y034834*
X045297Y034832*
X045294Y03483*
X045292Y034827*
X04529Y034824*
X045288Y034821*
X045286Y034819*
X045285Y034815*
X045283Y034812*
X045282Y034809*
X045282Y034806*
X045281Y034802*
X045281Y034799*
X045281Y034796*
X045281Y034792*
X045281Y034789*
X045282Y034785*
X045282Y034782*
X045283Y034779*
X045285Y034776*
X045286Y034772*
X045288Y03477*
X04529Y034767*
X045292Y034764*
X045294Y034761*
X045297Y034759*
X045299Y034757*
X045302Y034755*
X045305Y034753*
X045308Y034751*
X045311Y03475*
X045314Y034749*
X045318Y034748*
X045321Y034747*
X045324Y034747*
X045328Y034747*
X045331*
X045335Y034747*
X045338Y034747*
X045341Y034748*
X045345Y034749*
X045348Y03475*
X045351Y034751*
X045354Y034753*
X045357Y034755*
X04536Y034757*
X045362Y034759*
X045365Y034761*
X045367Y034764*
X045369Y034767*
X045371Y03477*
X045373Y034772*
X045374Y034776*
X045376Y034779*
X045377Y034782*
X045377Y034785*
X045378Y034789*
X045378Y034792*
X045379Y034796*
X030042Y030813D02*
D01*
X030041Y030815*
X030041Y030818*
X030041Y030821*
X03004Y030823*
X030039Y030826*
X030038Y030828*
X030037Y030831*
X030036Y030833*
X030034Y030835*
X030032Y030838*
X030031Y03084*
X030029Y030841*
X030027Y030843*
X030024Y030845*
X030022Y030846*
X03002Y030848*
X030017Y030849*
X030015Y03085*
X030012Y03085*
X030009Y030851*
X030007Y030851*
X030004Y030851*
X030001*
X029998Y030851*
X029996Y030851*
X029993Y03085*
X02999Y03085*
X029988Y030849*
X029985Y030848*
X029983Y030846*
X029981Y030845*
X029978Y030843*
X029976Y030841*
X029974Y03084*
X029973Y030838*
X029971Y030835*
X029969Y030833*
X029968Y030831*
X029967Y030828*
X029966Y030826*
X029965Y030823*
X029964Y030821*
X029964Y030818*
X029964Y030815*
X029964Y030813*
X029964Y03081*
X029964Y030807*
X029964Y030804*
X029965Y030802*
X029966Y030799*
X029967Y030797*
X029968Y030794*
X029969Y030792*
X029971Y03079*
X029973Y030787*
X029974Y030785*
X029976Y030784*
X029978Y030782*
X029981Y03078*
X029983Y030779*
X029985Y030777*
X029988Y030776*
X02999Y030775*
X029993Y030775*
X029996Y030774*
X029998Y030774*
X030001Y030774*
X030004*
X030007Y030774*
X030009Y030774*
X030012Y030775*
X030015Y030775*
X030017Y030776*
X03002Y030777*
X030022Y030779*
X030024Y03078*
X030027Y030782*
X030029Y030784*
X030031Y030785*
X030032Y030787*
X030034Y03079*
X030036Y030792*
X030037Y030794*
X030038Y030797*
X030039Y030799*
X03004Y030802*
X030041Y030804*
X030041Y030807*
X030041Y03081*
X030042Y030813*
X031738Y030403D02*
D01*
X031737Y030406*
X031737Y030409*
X031736Y030413*
X031736Y030416*
X031735Y030419*
X031733Y030422*
X031732Y030426*
X03173Y030428*
X031728Y030431*
X031726Y030434*
X031724Y030437*
X031721Y030439*
X031719Y030441*
X031716Y030443*
X031713Y030445*
X03171Y030447*
X031707Y030448*
X031704Y030449*
X0317Y03045*
X031697Y030451*
X031694Y030451*
X03169Y030451*
X031687*
X031683Y030451*
X03168Y030451*
X031677Y03045*
X031673Y030449*
X03167Y030448*
X031667Y030447*
X031664Y030445*
X031661Y030443*
X031658Y030441*
X031656Y030439*
X031653Y030437*
X031651Y030434*
X031649Y030431*
X031647Y030428*
X031645Y030426*
X031644Y030422*
X031642Y030419*
X031641Y030416*
X031641Y030413*
X03164Y030409*
X03164Y030406*
X03164Y030403*
X03164Y030399*
X03164Y030396*
X031641Y030392*
X031641Y030389*
X031642Y030386*
X031644Y030383*
X031645Y030379*
X031647Y030377*
X031649Y030374*
X031651Y030371*
X031653Y030368*
X031656Y030366*
X031658Y030364*
X031661Y030362*
X031664Y03036*
X031667Y030358*
X03167Y030357*
X031673Y030356*
X031677Y030355*
X03168Y030354*
X031683Y030354*
X031687Y030354*
X03169*
X031694Y030354*
X031697Y030354*
X0317Y030355*
X031704Y030356*
X031707Y030357*
X03171Y030358*
X031713Y03036*
X031716Y030362*
X031719Y030364*
X031721Y030366*
X031724Y030368*
X031726Y030371*
X031728Y030374*
X03173Y030377*
X031732Y030379*
X031733Y030383*
X031735Y030386*
X031736Y030389*
X031736Y030392*
X031737Y030396*
X031737Y030399*
X031738Y030403*
X021941Y034656D02*
D01*
X02194Y034659*
X02194Y034662*
X021939Y034666*
X021939Y034669*
X021938Y034672*
X021936Y034675*
X021935Y034679*
X021933Y034681*
X021931Y034684*
X021929Y034687*
X021927Y03469*
X021924Y034692*
X021922Y034694*
X021919Y034696*
X021916Y034698*
X021913Y0347*
X02191Y034701*
X021907Y034702*
X021903Y034703*
X0219Y034704*
X021897Y034704*
X021893Y034704*
X02189*
X021886Y034704*
X021883Y034704*
X02188Y034703*
X021876Y034702*
X021873Y034701*
X02187Y0347*
X021867Y034698*
X021864Y034696*
X021861Y034694*
X021859Y034692*
X021856Y03469*
X021854Y034687*
X021852Y034684*
X02185Y034681*
X021848Y034679*
X021847Y034675*
X021845Y034672*
X021844Y034669*
X021844Y034666*
X021843Y034662*
X021843Y034659*
X021843Y034656*
X021843Y034652*
X021843Y034649*
X021844Y034645*
X021844Y034642*
X021845Y034639*
X021847Y034636*
X021848Y034632*
X02185Y03463*
X021852Y034627*
X021854Y034624*
X021856Y034621*
X021859Y034619*
X021861Y034617*
X021864Y034615*
X021867Y034613*
X02187Y034611*
X021873Y03461*
X021876Y034609*
X02188Y034608*
X021883Y034607*
X021886Y034607*
X02189Y034607*
X021893*
X021897Y034607*
X0219Y034607*
X021903Y034608*
X021907Y034609*
X02191Y03461*
X021913Y034611*
X021916Y034613*
X021919Y034615*
X021922Y034617*
X021924Y034619*
X021927Y034621*
X021929Y034624*
X021931Y034627*
X021933Y03463*
X021935Y034632*
X021936Y034636*
X021938Y034639*
X021939Y034642*
X021939Y034645*
X02194Y034649*
X02194Y034652*
X021941Y034656*
G54D84*
X02406Y031513D02*
D01*
X024059Y031527*
X024057Y031542*
X024055Y031557*
X024051Y031571*
X024047Y031585*
X024041Y031599*
X024035Y031612*
X024027Y031625*
X024019Y031637*
X02401Y031649*
X024Y03166*
X023989Y03167*
X023978Y03168*
X023966Y031688*
X023954Y031696*
X02394Y031703*
X023927Y031709*
X023913Y031714*
X023899Y031718*
X023884Y031721*
X02387Y031723*
X023855Y031724*
X02384*
X023825Y031723*
X023811Y031721*
X023796Y031718*
X023782Y031714*
X023768Y031709*
X023755Y031703*
X023742Y031696*
X023729Y031688*
X023717Y03168*
X023706Y03167*
X023695Y03166*
X023685Y031649*
X023676Y031637*
X023668Y031625*
X02366Y031612*
X023654Y031599*
X023648Y031585*
X023644Y031571*
X02364Y031557*
X023638Y031542*
X023636Y031527*
X023636Y031513*
X023636Y031498*
X023638Y031483*
X02364Y031468*
X023644Y031454*
X023648Y03144*
X023654Y031426*
X02366Y031413*
X023668Y0314*
X023676Y031388*
X023685Y031376*
X023695Y031365*
X023706Y031355*
X023717Y031345*
X023729Y031337*
X023742Y031329*
X023755Y031322*
X023768Y031316*
X023782Y031311*
X023796Y031307*
X023811Y031304*
X023825Y031302*
X02384Y031301*
X023855*
X02387Y031302*
X023884Y031304*
X023899Y031307*
X023913Y031311*
X023927Y031316*
X02394Y031322*
X023954Y031329*
X023966Y031337*
X023978Y031345*
X023989Y031355*
X024Y031365*
X02401Y031376*
X024019Y031388*
X024027Y0314*
X024035Y031413*
X024041Y031426*
X024047Y03144*
X024051Y031454*
X024055Y031468*
X024057Y031483*
X024059Y031498*
X02406Y031513*
X035555Y03308D02*
Y034021D01*
X035064D02*
X035555D01*
X035064Y03308D02*
X035555D01*
X035064D02*
Y034021D01*
X025749Y036101D02*
X027044D01*
X025759Y036711D02*
X027054D01*
X041523Y031318D02*
X042623D01*
X041523Y030498D02*
X042623D01*
Y031318*
X041523Y030498D02*
Y031318D01*
Y03673D02*
X042623D01*
X041523Y03591D02*
X042623D01*
Y03673*
X041523Y03591D02*
Y03673D01*
X023683Y031521D02*
X024013D01*
X023856Y031348D02*
Y031678D01*
X03598Y03582D02*
X035849D01*
X035783Y035886*
X035849Y035951*
X03598*
X035882*
Y03582*
X03598Y036017D02*
X035783D01*
X03598Y036148*
X035783*
Y036214D02*
Y036345D01*
Y036279*
X03598*
Y036542D02*
Y03641D01*
X035849Y036542*
X035816*
X035783Y036509*
Y036443*
X035816Y03641*
X029625Y031867D02*
X029592Y0319D01*
X029527*
X029494Y031867*
Y031736*
X029527Y031703*
X029592*
X029625Y031736*
X029691Y031703D02*
X029756D01*
X029724*
Y0319*
X029691Y031867*
X031431Y032044D02*
X031398Y032077D01*
X031333*
X0313Y032044*
Y031913*
X031333Y03188*
X031398*
X031431Y031913*
X031628Y03188D02*
X031497D01*
X031628Y032011*
Y032044*
X031595Y032077*
X03153*
X031497Y032044*
X031541Y031534D02*
X031508Y031567D01*
X031443*
X03141Y031534*
Y031403*
X031443Y03137*
X031508*
X031541Y031403*
X031607Y031534D02*
X03164Y031567D01*
X031705*
X031738Y031534*
Y031501*
X031705Y031468*
X031672*
X031705*
X031738Y031436*
Y031403*
X031705Y03137*
X03164*
X031607Y031403*
X030711Y034874D02*
X030678Y034907D01*
X030613*
X03058Y034874*
Y034743*
X030613Y03471*
X030678*
X030711Y034743*
X030875Y03471D02*
Y034907D01*
X030777Y034808*
X030908*
X031066Y035541D02*
X031033Y035508D01*
Y035443*
X031066Y03541*
X031197*
X03123Y035443*
Y035508*
X031197Y035541*
X031033Y035738D02*
Y035607D01*
X031132*
X031099Y035672*
Y035705*
X031132Y035738*
X031197*
X03123Y035705*
Y03564*
X031197Y035607*
X031971Y037034D02*
X031938Y037067D01*
X031873*
X03184Y037034*
Y036903*
X031873Y03687*
X031938*
X031971Y036903*
X032168Y037067D02*
X032102Y037034D01*
X032037Y036968*
Y036903*
X03207Y03687*
X032135*
X032168Y036903*
Y036936*
X032135Y036968*
X032037*
X034369Y033159D02*
X034336Y033192D01*
X034271*
X034238Y033159*
Y033028*
X034271Y032995*
X034336*
X034369Y033028*
X034435Y033192D02*
X034566D01*
Y033159*
X034435Y033028*
Y032995*
X033816Y036291D02*
X033783Y036258D01*
Y036193*
X033816Y03616*
X033947*
X03398Y036193*
Y036258*
X033947Y036291*
X033816Y036357D02*
X033783Y03639D01*
Y036455*
X033816Y036488*
X033849*
X033882Y036455*
X033914Y036488*
X033947*
X03398Y036455*
Y03639*
X033947Y036357*
X033914*
X033882Y03639*
X033849Y036357*
X033816*
X033882Y03639D02*
Y036455D01*
X034687Y036735D02*
X034654Y036768D01*
X034588*
X034555Y036735*
Y036604*
X034588Y036571*
X034654*
X034687Y036604*
X034752D02*
X034785Y036571D01*
X034851*
X034883Y036604*
Y036735*
X034851Y036768*
X034785*
X034752Y036735*
Y036702*
X034785Y036669*
X034883*
X035356Y035961D02*
X035323Y035928D01*
Y035863*
X035356Y03583*
X035487*
X03552Y035863*
Y035928*
X035487Y035961*
X03552Y036027D02*
Y036092D01*
Y03606*
X035323*
X035356Y036027*
Y036191D02*
X035323Y036224D01*
Y036289*
X035356Y036322*
X035487*
X03552Y036289*
Y036224*
X035487Y036191*
X035356*
X029637Y035996D02*
X029604Y035964D01*
Y035898*
X029637Y035865*
X029768*
X029801Y035898*
Y035964*
X029768Y035996*
X029801Y036062D02*
Y036128D01*
Y036095*
X029604*
X029637Y036062*
X029801Y036226D02*
Y036291D01*
Y036259*
X029604*
X029637Y036226*
X029333Y032926D02*
X029301Y032958D01*
X029235*
X029202Y032926*
Y032794*
X029235Y032762*
X029301*
X029333Y032794*
X029399Y032762D02*
X029465D01*
X029432*
Y032958*
X029399Y032926*
X029694Y032762D02*
X029563D01*
X029694Y032893*
Y032926*
X029661Y032958*
X029596*
X029563Y032926*
X035212Y034727D02*
X035179Y034759D01*
X035113*
X03508Y034727*
Y034595*
X035113Y034563*
X035179*
X035212Y034595*
X035277Y034563D02*
X035343D01*
X03531*
Y034759*
X035277Y034727*
X035441D02*
X035474Y034759D01*
X03554*
X035572Y034727*
Y034694*
X03554Y034661*
X035507*
X03554*
X035572Y034628*
Y034595*
X03554Y034563*
X035474*
X035441Y034595*
X03521Y034352D02*
X035177Y034384D01*
X035111*
X035078Y034352*
Y03422*
X035111Y034188*
X035177*
X03521Y03422*
X035275Y034188D02*
X035341D01*
X035308*
Y034384*
X035275Y034352*
X035538Y034188D02*
Y034384D01*
X035439Y034286*
X03557*
X034325Y032764D02*
X034292Y032797D01*
X034226*
X034193Y032764*
Y032633*
X034226Y0326*
X034292*
X034325Y032633*
X03439Y0326D02*
X034456D01*
X034423*
Y032797*
X03439Y032764*
X034685Y032797D02*
X034554D01*
Y032698*
X03462Y032731*
X034653*
X034685Y032698*
Y032633*
X034653Y0326*
X034587*
X034554Y032633*
X035876Y033511D02*
X035843Y033478D01*
Y033413*
X035876Y03338*
X036007*
X03604Y033413*
Y033478*
X036007Y033511*
X03604Y033577D02*
Y033642D01*
Y03361*
X035843*
X035876Y033577*
X035843Y033872D02*
X035876Y033806D01*
X035942Y033741*
X036007*
X03604Y033774*
Y033839*
X036007Y033872*
X035974*
X035942Y033839*
Y033741*
X030306Y032934D02*
X030273Y032967D01*
X030208*
X030175Y032934*
Y032803*
X030208Y03277*
X030273*
X030306Y032803*
X030372Y03277D02*
X030437D01*
X030405*
Y032967*
X030372Y032934*
X030536Y032967D02*
X030667D01*
Y032934*
X030536Y032803*
Y03277*
X021766Y034171D02*
X021733Y034138D01*
Y034073*
X021766Y03404*
X021897*
X02193Y034073*
Y034138*
X021897Y034171*
X02193Y034237D02*
Y034302D01*
Y03427*
X021733*
X021766Y034237*
Y034401D02*
X021733Y034434D01*
Y034499*
X021766Y034532*
X021799*
X021832Y034499*
X021864Y034532*
X021897*
X02193Y034499*
Y034434*
X021897Y034401*
X021864*
X021832Y034434*
X021799Y034401*
X021766*
X021832Y034434D02*
Y034499D01*
X021756Y033361D02*
X021723Y033328D01*
Y033263*
X021756Y03323*
X021887*
X02192Y033263*
Y033328*
X021887Y033361*
X02192Y033427D02*
Y033492D01*
Y03346*
X021723*
X021756Y033427*
X021887Y033591D02*
X02192Y033624D01*
Y033689*
X021887Y033722*
X021756*
X021723Y033689*
Y033624*
X021756Y033591*
X021789*
X021822Y033624*
Y033722*
X025178Y035738D02*
X025145Y03577D01*
X025079*
X025047Y035738*
Y035606*
X025079Y035574*
X025145*
X025178Y035606*
X025375Y035574D02*
X025243D01*
X025375Y035705*
Y035738*
X025342Y03577*
X025276*
X025243Y035738*
X02544D02*
X025473Y03577D01*
X025539*
X025571Y035738*
Y035705*
X025539Y035672*
X025506*
X025539*
X025571Y035639*
Y035606*
X025539Y035574*
X025473*
X02544Y035606*
X025178Y035262D02*
X025145Y035294D01*
X025079*
X025047Y035262*
Y03513*
X025079Y035098*
X025145*
X025178Y03513*
X025375Y035098D02*
X025243D01*
X025375Y035229*
Y035262*
X025342Y035294*
X025276*
X025243Y035262*
X025539Y035098D02*
Y035294D01*
X02544Y035196*
X025571*
X03147Y030935D02*
Y030738D01*
X031568*
X031601Y030771*
Y030902*
X031568Y030935*
X03147*
X031667Y030738D02*
X031732D01*
X0317*
Y030935*
X031667Y030902*
X02615Y036998D02*
Y036801D01*
X026248*
X026281Y036834*
Y036965*
X026248Y036998*
X02615*
X026347Y036965D02*
X02638Y036998D01*
X026445*
X026478Y036965*
Y036932*
X026445Y036899*
X026412*
X026445*
X026478Y036867*
Y036834*
X026445Y036801*
X02638*
X026347Y036834*
X035699Y03126D02*
Y031391D01*
X035764Y031457*
X03583Y031391*
Y03126*
Y031358*
X035699*
X035895Y03126D02*
Y031457D01*
X036027Y03126*
Y031457*
X036092D02*
X036223D01*
X036158*
Y03126*
X036289D02*
X036355D01*
X036322*
Y031457*
X036289Y031424*
X035241Y032988D02*
X03511D01*
Y032889*
X035176*
X03511*
Y032791*
X035307Y032988D02*
Y032791D01*
X035438*
X035504D02*
X035569D01*
X035537*
Y032988*
X035504Y032955*
X034678Y033192D02*
Y032995D01*
X034809*
X034875D02*
X03494D01*
X034908*
Y033192*
X034875Y033159*
X030187Y036199D02*
Y036003D01*
X030318*
X030515D02*
X030384D01*
X030515Y036134*
Y036167*
X030482Y036199*
X030417*
X030384Y036167*
X03102Y037027D02*
Y03683D01*
X031151*
X031217Y036994D02*
X03125Y037027D01*
X031315*
X031348Y036994*
Y036961*
X031315Y036928*
X031282*
X031315*
X031348Y036896*
Y036863*
X031315Y03683*
X03125*
X031217Y036863*
X041173Y036026D02*
X04137D01*
Y036157*
X041173Y036354D02*
Y036223D01*
X04137*
Y036354*
X041272Y036223D02*
Y036288D01*
X041173Y036419D02*
X04137D01*
Y036518*
X041337Y036551*
X041206*
X041173Y036518*
Y036419*
X04137Y036616D02*
Y036682D01*
Y036649*
X041173*
X041206Y036616*
X041221Y03054D02*
X041418D01*
Y030671*
X041221Y030868D02*
Y030737D01*
X041418*
Y030868*
X04132Y030737D02*
Y030802D01*
X041221Y030934D02*
X041418D01*
Y031032*
X041385Y031065*
X041254*
X041221Y031032*
Y030934*
X041418Y031262D02*
Y03113D01*
X041287Y031262*
X041254*
X041221Y031229*
Y031163*
X041254Y03113*
X027317Y035801D02*
X027186D01*
X027153Y035768*
Y035703*
X027186Y03567*
X027317*
X02735Y035703*
Y035768*
X027284Y035736D02*
X02735Y035801D01*
Y035768D02*
X027317Y035801D01*
X027153Y035998D02*
Y035867D01*
X027252*
X027219Y035932*
Y035965*
X027252Y035998*
X027317*
X02735Y035965*
Y0359*
X027317Y035867*
X02267Y03417D02*
X022473D01*
Y034268*
X022506Y034301*
X022572*
X022604Y034268*
Y03417*
Y034236D02*
X02267Y034301D01*
Y034367D02*
Y034432D01*
Y0344*
X022473*
X022506Y034367*
X02267Y03331D02*
X022473D01*
Y033408*
X022506Y033441*
X022572*
X022604Y033408*
Y03331*
Y033376D02*
X02267Y033441D01*
Y033638D02*
Y033507D01*
X022539Y033638*
X022506*
X022473Y033605*
Y03354*
X022506Y033507*
X025043Y036005D02*
Y036201D01*
X025142*
X025175Y036169*
Y036103*
X025142Y03607*
X025043*
X025109D02*
X025175Y036005D01*
X025339D02*
Y036201D01*
X02524Y036103*
X025371*
X025043Y03645D02*
Y036647D01*
X025142*
X025175Y036614*
Y036549*
X025142Y036516*
X025043*
X025109D02*
X025175Y03645D01*
X025371Y036647D02*
X02524D01*
Y036549*
X025306Y036581*
X025339*
X025371Y036549*
Y036483*
X025339Y03645*
X025273*
X02524Y036483*
X02894Y03582D02*
Y036017D01*
X029038*
X029071Y035984*
Y035918*
X029038Y035886*
X02894*
X029006D02*
X029071Y03582D01*
X029268Y036017D02*
X029202Y035984D01*
X029137Y035918*
Y035853*
X02917Y03582*
X029235*
X029268Y035853*
Y035886*
X029235Y035918*
X029137*
X0262Y03145D02*
Y031647D01*
X026298*
X026331Y031614*
Y031548*
X026298Y031516*
X0262*
X026266D02*
X026331Y03145D01*
X026397D02*
X026462D01*
X02643*
Y031647*
X026397Y031614*
X026561Y031647D02*
X026692D01*
Y031614*
X026561Y031483*
Y03145*
X02618Y03084D02*
Y031037D01*
X026278*
X026311Y031004*
Y030938*
X026278Y030906*
X02618*
X026246D02*
X026311Y03084D01*
X026377D02*
X026442D01*
X02641*
Y031037*
X026377Y031004*
X026541D02*
X026574Y031037D01*
X026639*
X026672Y031004*
Y030971*
X026639Y030938*
X026672Y030906*
Y030873*
X026639Y03084*
X026574*
X026541Y030873*
Y030906*
X026574Y030938*
X026541Y030971*
Y031004*
X026574Y030938D02*
X026639D01*
X03835Y03148D02*
Y031677D01*
X038448*
X038481Y031644*
Y031578*
X038448Y031546*
X03835*
X038416D02*
X038481Y03148D01*
X038678D02*
X038547D01*
X038678Y031611*
Y031644*
X038645Y031677*
X03858*
X038547Y031644*
X038744Y031677D02*
X038875D01*
Y031644*
X038744Y031513*
Y03148*
X032618Y036772D02*
Y036969D01*
X032716*
X032749Y036936*
Y036871*
X032716Y036838*
X032618*
X032683D02*
X032749Y036772D01*
X032814Y036936D02*
X032847Y036969D01*
X032913*
X032945Y036936*
Y036904*
X032913Y036871*
X03288*
X032913*
X032945Y036838*
Y036805*
X032913Y036772*
X032847*
X032814Y036805*
X033142Y036772D02*
X033011D01*
X033142Y036904*
Y036936*
X033109Y036969*
X033044*
X033011Y036936*
X03321Y036772D02*
Y036969D01*
X033308*
X033341Y036936*
Y036871*
X033308Y036838*
X03321*
X033276D02*
X033341Y036772D01*
X033407Y036936D02*
X03344Y036969D01*
X033505*
X033538Y036936*
Y036904*
X033505Y036871*
X033472*
X033505*
X033538Y036838*
Y036805*
X033505Y036772*
X03344*
X033407Y036805*
X033604Y036936D02*
X033636Y036969D01*
X033702*
X033735Y036936*
Y036904*
X033702Y036871*
X033669*
X033702*
X033735Y036838*
Y036805*
X033702Y036772*
X033636*
X033604Y036805*
X029861Y034174D02*
X029828Y034207D01*
X029763*
X02973Y034174*
Y034141*
X029763Y034108*
X029828*
X029861Y034076*
Y034043*
X029828Y03401*
X029763*
X02973Y034043*
X029927Y034207D02*
Y03401D01*
X030025*
X030058Y034043*
Y034076*
X030025Y034108*
X029927*
X030025*
X030058Y034141*
Y034174*
X030025Y034207*
X029927*
X030124Y03401D02*
X030189D01*
X030156*
Y034207*
X030124Y034174*
X030361Y034484D02*
X030328Y034517D01*
X030263*
X03023Y034484*
Y034451*
X030263Y034418*
X030328*
X030361Y034386*
Y034353*
X030328Y03432*
X030263*
X03023Y034353*
X030427Y034517D02*
Y03432D01*
X030525*
X030558Y034353*
Y034386*
X030525Y034418*
X030427*
X030525*
X030558Y034451*
Y034484*
X030525Y034517*
X030427*
X030755Y03432D02*
X030624D01*
X030755Y034451*
Y034484*
X030722Y034517*
X030656*
X030624Y034484*
X040631Y036844D02*
X040598Y036877D01*
X040533*
X0405Y036844*
Y036811*
X040533Y036778*
X040598*
X040631Y036746*
Y036713*
X040598Y03668*
X040533*
X0405Y036713*
X040697Y036877D02*
Y03668D01*
X040795*
X040828Y036713*
Y036746*
X040795Y036778*
X040697*
X040795*
X040828Y036811*
Y036844*
X040795Y036877*
X040697*
X041025D02*
X040894D01*
Y036778*
X040959Y036811*
X040992*
X041025Y036778*
Y036713*
X040992Y03668*
X040926*
X040894Y036713*
X040591Y030544D02*
X040558Y030577D01*
X040493*
X04046Y030544*
Y030511*
X040493Y030478*
X040558*
X040591Y030446*
Y030413*
X040558Y03038*
X040493*
X04046Y030413*
X040657Y030577D02*
Y03038D01*
X040755*
X040788Y030413*
Y030446*
X040755Y030478*
X040657*
X040755*
X040788Y030511*
Y030544*
X040755Y030577*
X040657*
X040985D02*
X040919Y030544D01*
X040854Y030478*
Y030413*
X040886Y03038*
X040952*
X040985Y030413*
Y030446*
X040952Y030478*
X040854*
X043941Y036625D02*
X043967Y036651D01*
Y036704*
X043941Y03673*
X043915*
X043889Y036704*
Y036651*
X043862Y036625*
X043836*
X04381Y036651*
Y036704*
X043836Y03673*
X043967Y036573D02*
X04381D01*
X043889*
Y036468*
X043967*
X04381*
Y036415D02*
Y036363D01*
Y036389*
X043967*
X043941Y036415*
X043784Y036284D02*
Y036179D01*
X04381Y036127D02*
X043967D01*
Y036048*
X043941Y036022*
X043889*
X043862Y036048*
Y036127*
X043967Y035969D02*
X04381D01*
X043862Y035917*
X04381Y035864*
X043967*
X043575Y034511D02*
X043549Y034537D01*
X043496*
X04347Y034511*
Y034485*
X043496Y034459*
X043549*
X043575Y034432*
Y034406*
X043549Y03438*
X043496*
X04347Y034406*
X043628Y034537D02*
Y03438D01*
Y034459*
X043732*
Y034537*
Y03438*
X043785D02*
X043837D01*
X043811*
Y034537*
X043785Y034511*
X043916Y034354D02*
X044021D01*
X044074Y03438D02*
Y034537D01*
X044152*
X044179Y034511*
Y034459*
X044152Y034432*
X044074*
X044126D02*
X044179Y03438D01*
X043555Y033081D02*
X043529Y033107D01*
X043476*
X04345Y033081*
Y033055*
X043476Y033029*
X043529*
X043555Y033002*
Y032976*
X043529Y03295*
X043476*
X04345Y032976*
X043607Y033107D02*
Y03295D01*
Y033029*
X043712*
Y033107*
Y03295*
X043765D02*
X043817D01*
X043791*
Y033107*
X043765Y033081*
X043896Y032924D02*
X044001D01*
X044158Y033081D02*
X044132Y033107D01*
X04408*
X044053Y033081*
Y032976*
X04408Y03295*
X044132*
X044158Y032976*
Y033029*
X044106*
X043555Y031601D02*
X043529Y031627D01*
X043476*
X04345Y031601*
Y031575*
X043476Y031549*
X043529*
X043555Y031522*
Y031496*
X043529Y03147*
X043476*
X04345Y031496*
X043608Y031627D02*
Y03147D01*
Y031549*
X043712*
Y031627*
Y03147*
X043765D02*
X043817D01*
X043791*
Y031627*
X043765Y031601*
X043896Y031444D02*
X044001D01*
X044054Y031627D02*
Y03147D01*
X044132*
X044159Y031496*
Y031522*
X044132Y031549*
X044054*
X044132*
X044159Y031575*
Y031601*
X044132Y031627*
X044054*
X042656Y032801D02*
X042623Y032768D01*
Y032703*
X042656Y03267*
X042689*
X042722Y032703*
Y032768*
X042754Y032801*
X042787*
X04282Y032768*
Y032703*
X042787Y03267*
X042623Y032867D02*
X04282D01*
X042754Y032932*
X04282Y032998*
X042623*
X04282Y033195D02*
Y033064D01*
X042689Y033195*
X042656*
X042623Y033162*
Y033096*
X042656Y033064*
X027656Y032771D02*
X027623Y032738D01*
Y032673*
X027656Y03264*
X027689*
X027722Y032673*
Y032738*
X027754Y032771*
X027787*
X02782Y032738*
Y032673*
X027787Y03264*
X027623Y032837D02*
X02782D01*
X027754Y032902*
X02782Y032968*
X027623*
X027656Y033034D02*
X027623Y033066D01*
Y033132*
X027656Y033165*
X027689*
X027722Y033132*
Y033099*
Y033132*
X027754Y033165*
X027787*
X02782Y033132*
Y033066*
X027787Y033034*
X03234Y035906D02*
Y035709D01*
X032379Y03567*
X032458*
X032497Y035709*
Y035906*
X032576Y03567D02*
X032655D01*
X032615*
Y035906*
X032576Y035867*
X03003Y031987D02*
Y031823D01*
X030063Y03179*
X030128*
X030161Y031823*
Y031987*
X030358Y03179D02*
X030227D01*
X030358Y031921*
Y031954*
X030325Y031987*
X03026*
X030227Y031954*
X0339Y035202D02*
X034031Y035006D01*
Y035202D02*
X0339Y035006D01*
X034097D02*
X034162D01*
X034129*
Y035202*
X034097Y03517*
X02903Y035217D02*
X029161Y03502D01*
Y035217D02*
X02903Y03502D01*
X029358D02*
X029227D01*
X029358Y035151*
Y035184*
X029325Y035217*
X02926*
X029227Y035184*
X044461Y035964D02*
X044428Y035997D01*
X044363*
X04433Y035964*
Y035833*
X044363Y0358*
X044428*
X044461Y035833*
X044625Y035997D02*
X04456D01*
X044527Y035964*
Y035833*
X04456Y0358*
X044625*
X044658Y035833*
Y035964*
X044625Y035997*
X044724Y0358D02*
Y035997D01*
X044855Y0358*
Y035997*
X04492Y0358D02*
X044986D01*
X044953*
Y035997*
X04492Y035964*
X03862Y03598D02*
X038423D01*
Y036078*
X038456Y036111*
X038522*
X038554Y036078*
Y03598*
X038423Y036308D02*
Y036177D01*
X038522*
X038489Y036242*
Y036275*
X038522Y036308*
X038587*
X03862Y036275*
Y03621*
X038587Y036177*
X021233Y03534D02*
X021397D01*
X02143Y035373*
Y035438*
X021397Y035471*
X021233*
Y035668D02*
Y035537D01*
X021332*
X021299Y035602*
Y035635*
X021332Y035668*
X021397*
X02143Y035635*
Y03557*
X021397Y035537*
X040389Y032265D02*
X040362Y032239D01*
Y032186*
X040389Y03216*
X040415*
X040441Y032186*
Y032239*
X040467Y032265*
X040494*
X04052Y032239*
Y032186*
X040494Y03216*
X040362Y032317D02*
X04052D01*
X040441*
Y032422*
X040362*
X04052*
Y03258D02*
Y032475D01*
X040415Y03258*
X040389*
X040362Y032554*
Y032501*
X040389Y032475*
X040546Y032632D02*
Y032737D01*
X040362Y03279D02*
X04052D01*
Y032868*
X040494Y032895*
X040467*
X040441Y032868*
Y03279*
Y032868*
X040415Y032895*
X040389*
X040362Y032868*
Y03279*
X040379Y033385D02*
X040352Y033359D01*
Y033306*
X040379Y03328*
X040405*
X040431Y033306*
Y033359*
X040457Y033385*
X040484*
X04051Y033359*
Y033306*
X040484Y03328*
X040352Y033437D02*
X04051D01*
X040431*
Y033542*
X040352*
X04051*
Y0337D02*
Y033595D01*
X040405Y0337*
X040379*
X040352Y033674*
Y033621*
X040379Y033595*
X040536Y033752D02*
Y033857D01*
X040379Y034015D02*
X040352Y033988D01*
Y033936*
X040379Y03391*
X040484*
X04051Y033936*
Y033988*
X040484Y034015*
X040431*
Y033962*
X043931Y031135D02*
X043957Y031161D01*
Y031214*
X043931Y03124*
X043905*
X043879Y031214*
Y031161*
X043852Y031135*
X043826*
X0438Y031161*
Y031214*
X043826Y03124*
X043957Y031083D02*
X0438D01*
X043879*
Y030978*
X043957*
X0438*
Y03082D02*
Y030925D01*
X043905Y03082*
X043931*
X043957Y030846*
Y030899*
X043931Y030925*
X043774Y030768D02*
Y030663D01*
X0438Y03061D02*
X043957D01*
Y030532*
X043931Y030505*
X043879*
X043852Y030532*
Y03061*
X043957Y030453D02*
X0438D01*
X043852Y0304*
X0438Y030348*
X043957*
X040379Y034505D02*
X040353Y034479D01*
Y034426*
X040379Y0344*
X040405*
X040431Y034426*
Y034479*
X040458Y034505*
X040484*
X04051Y034479*
Y034426*
X040484Y0344*
X040353Y034557D02*
X04051D01*
X040431*
Y034662*
X040353*
X04051*
Y03482D02*
Y034715D01*
X040405Y03482*
X040379*
X040353Y034794*
Y034741*
X040379Y034715*
X040536Y034872D02*
Y034977D01*
X04051Y03503D02*
X040353D01*
Y035108*
X040379Y035135*
X040431*
X040458Y035108*
Y03503*
Y035082D02*
X04051Y035135D01*
G54D85*
X03406Y03191D02*
X03416D01*
X03403Y0319D02*
X03418D01*
X03402Y03189D02*
X0342D01*
X03401Y03188D02*
X03421D01*
X034Y03187D02*
X03422D01*
X03399Y03186D02*
X03423D01*
X03398Y03185D02*
X03423D01*
X03398Y03184D02*
X03424D01*
X03397Y03183D02*
X03424D01*
X03397Y03182D02*
X03425D01*
X03396Y03181D02*
X03425D01*
X03396Y0318D02*
X03425D01*
X03396Y03179D02*
X03426D01*
X03396Y03178D02*
X03426D01*
X03395Y03177D02*
X03426D01*
X03393Y03176D02*
X03429D01*
X0339Y03175D02*
X03431D01*
X03388Y03174D02*
X03433D01*
X03386Y03173D02*
X03435D01*
X03385Y03172D02*
X03395D01*
X03397D02*
X03425D01*
X03426D02*
X03437D01*
X03383Y03171D02*
X03393D01*
X03397D02*
X034243D01*
X03429D02*
X03438D01*
X03382Y0317D02*
X03391D01*
X03398D02*
X03424D01*
X03431D02*
X0344D01*
X0338Y03169D02*
X03389D01*
X03398D02*
X034233D01*
X03433D02*
X03441D01*
X03379Y03168D02*
X03387D01*
X03399D02*
X034227D01*
X03434D02*
X03442D01*
X03378Y03167D02*
X03385D01*
X034D02*
X03422D01*
X03436D02*
X03444D01*
X03377Y03166D02*
X033838D01*
X03401D02*
X03421D01*
X03437D02*
X03445D01*
X03376Y03165D02*
X033824D01*
X03402D02*
X03419D01*
X03439D02*
X03446D01*
X03375Y03164D02*
X033811D01*
X03404D02*
X03418D01*
X0344D02*
X03447D01*
X03374Y03163D02*
X0338D01*
X03406D02*
X03416D01*
X03441D02*
X03448D01*
X03373Y03162D02*
X03379D01*
X03442D02*
X03449D01*
X03372Y03161D02*
X03378D01*
X03443D02*
X03449D01*
X03371Y0316D02*
X03377D01*
X03444D02*
X0345D01*
X033706Y03159D02*
X03376D01*
X03445D02*
X03451D01*
X033697Y03158D02*
X033754D01*
X03446D02*
X03452D01*
X03369Y03157D02*
X033746D01*
X03447D02*
X03452D01*
X033683Y03156D02*
X03374D01*
X03447D02*
X03453D01*
X03368Y03155D02*
X033732D01*
X03448D02*
X03454D01*
X033672Y03154D02*
X033726D01*
X03449D02*
X03454D01*
X03367Y03153D02*
X03372D01*
X03449D02*
X03455D01*
X033662Y03152D02*
X033715D01*
X0345D02*
X03455D01*
X033658Y03151D02*
X03371D01*
X0345D02*
X03456D01*
X033653Y0315D02*
X033704D01*
X03451D02*
X03456D01*
X03365Y03149D02*
X0337D01*
X03452D02*
X03457D01*
X033644Y03148D02*
X033695D01*
X03452D02*
X03457D01*
X03364Y03147D02*
X03369D01*
X03452D02*
X03457D01*
X03364Y03146D02*
X033685D01*
X03453D02*
X03458D01*
X03363Y03145D02*
X03368D01*
X03453D02*
X03458D01*
X03359Y03144D02*
X03368D01*
X03453D02*
X03463D01*
X03356Y03143D02*
X0337D01*
X03451D02*
X03465D01*
X03355Y03142D02*
X03372D01*
X0345D02*
X03467D01*
X03353Y03141D02*
X03373D01*
X03448D02*
X03468D01*
X03352Y0314D02*
X03374D01*
X03447D02*
X03469D01*
X03352Y03139D02*
X03375D01*
X03446D02*
X0347D01*
X03351Y03138D02*
X03376D01*
X03446D02*
X03471D01*
X0335Y03137D02*
X03376D01*
X03445D02*
X03471D01*
X0335Y03136D02*
X03377D01*
X03445D02*
X03472D01*
X03349Y03135D02*
X03377D01*
X03444D02*
X03472D01*
X03349Y03134D02*
X03378D01*
X03444D02*
X03472D01*
X03349Y03133D02*
X03378D01*
X03444D02*
X03473D01*
X03349Y03132D02*
X03378D01*
X03443D02*
X03473D01*
X03348Y03131D02*
X03378D01*
X03443D02*
X03473D01*
X03348Y0313D02*
X03378D01*
X03443D02*
X03473D01*
X03348Y03129D02*
X03378D01*
X03443D02*
X03473D01*
X03349Y03128D02*
X03378D01*
X03443D02*
X03473D01*
X03349Y03127D02*
X03378D01*
X03444D02*
X03473D01*
X03349Y03126D02*
X03378D01*
X03444D02*
X03473D01*
X03349Y03125D02*
X03377D01*
X03444D02*
X03472D01*
X0335Y03124D02*
X03377D01*
X03444D02*
X03472D01*
X0335Y03123D02*
X03377D01*
X03445D02*
X03471D01*
X03351Y03122D02*
X03376D01*
X03446D02*
X03471D01*
X03351Y03121D02*
X03375D01*
X03446D02*
X0347D01*
X03352Y0312D02*
X03374D01*
X03447D02*
X03469D01*
X03353Y03119D02*
X03373D01*
X03448D02*
X03468D01*
X03354Y03118D02*
X03372D01*
X03449D02*
X03467D01*
X03356Y03117D02*
X03371D01*
X03451D02*
X03466D01*
X03358Y03116D02*
X03369D01*
X03453D02*
X03463D01*
X03362Y03115D02*
X03368D01*
X03453D02*
X03459D01*
X033637Y03114D02*
X033687D01*
X03453D02*
X03458D01*
X03364Y03113D02*
X03369D01*
X03452D02*
X03458D01*
X033642Y03112D02*
X03369D01*
X03452D02*
X03457D01*
X033646Y03111D02*
X033696D01*
X03452D02*
X03457D01*
X03365Y0311D02*
X0337D01*
X03451D02*
X03456D01*
X033656Y03109D02*
X033707D01*
X03451D02*
X03456D01*
X03366Y03108D02*
X03371D01*
X0345D02*
X03455D01*
X033667Y03107D02*
X033716D01*
X0345D02*
X03455D01*
X033673Y03106D02*
X033723D01*
X03449D02*
X03454D01*
X03368Y03105D02*
X03373D01*
X03448D02*
X03454D01*
X033684Y03104D02*
X03374D01*
X03448D02*
X03453D01*
X03369Y03103D02*
X033746D01*
X03447D02*
X03453D01*
X0337Y03102D02*
X03375D01*
X03446D02*
X03452D01*
X033706Y03101D02*
X03376D01*
X03445D02*
X03451D01*
X03371Y031D02*
X03377D01*
X03444D02*
X0345D01*
X03372Y03099D02*
X03378D01*
X03443D02*
X0345D01*
X03373Y03098D02*
X03379D01*
X03442D02*
X03449D01*
X03374Y03097D02*
X0338D01*
X03407D02*
X03415D01*
X03441D02*
X03448D01*
X033747Y03096D02*
X03381D01*
X03404D02*
X03417D01*
X0344D02*
X03447D01*
X033755Y03095D02*
X03382D01*
X03403D02*
X03419D01*
X03439D02*
X03446D01*
X033765Y03094D02*
X03384D01*
X03401D02*
X0342D01*
X03438D02*
X03445D01*
X03378Y03093D02*
X03385D01*
X034D02*
X03421D01*
X03436D02*
X03444D01*
X03379Y03092D02*
X03387D01*
X03399D02*
X03422D01*
X03435D02*
X03443D01*
X0338Y03091D02*
X03388D01*
X03398D02*
X03423D01*
X03433D02*
X03442D01*
X03381Y0309D02*
X0339D01*
X03398D02*
X03424D01*
X03431D02*
X0344D01*
X03383Y03089D02*
X03392D01*
X03397D02*
X03424D01*
X03429D02*
X03439D01*
X03384Y03088D02*
X03395D01*
X03397D02*
X03425D01*
X03427D02*
X03437D01*
X03386Y03087D02*
X03436D01*
X03388Y03086D02*
X03434D01*
X0339Y03085D02*
X03432D01*
X03392Y03084D02*
X0343D01*
X03395Y03083D02*
X03427D01*
X03396Y03082D02*
X03426D01*
X03396Y03081D02*
X03426D01*
X03396Y0308D02*
X03425D01*
X03396Y03079D02*
X03425D01*
X03397Y03078D02*
X03425D01*
X03397Y03077D02*
X03425D01*
X03397Y03076D02*
X03424D01*
X03398Y03075D02*
X03424D01*
X03399Y03074D02*
X03423D01*
X03399Y03073D02*
X03422D01*
X034Y03072D02*
X03421D01*
X03401Y03071D02*
X0342D01*
X03403Y0307D02*
X03419D01*
X03405Y03069D02*
X03417D01*
X03408Y03068D02*
X03413D01*
M02*