%FSTAX23Y23*%
%MOIN*%
%SFA1B1*%

%IPPOS*%
%AMD165*
4,1,4,-0.001300,0.011100,-0.011100,0.001300,0.001300,-0.011100,0.011100,-0.001300,-0.001300,0.011100,0.0*
%
%AMD186*
4,1,4,-0.011100,-0.001300,-0.001300,-0.011100,0.011100,0.001300,0.001300,0.011100,-0.011100,-0.001300,0.0*
%
%AMD187*
4,1,4,-0.041700,-0.011200,-0.011200,-0.041700,0.041700,0.011200,0.011200,0.041700,-0.041700,-0.011200,0.0*
%
%ADD19C,0.007900*%
%ADD60C,0.019700*%
%ADD70C,0.023600*%
%ADD138R,0.011800X0.019700*%
%ADD139R,0.023600X0.023600*%
%ADD140C,0.043300*%
%ADD141R,0.082700X0.047200*%
%ADD142R,0.035400X0.035400*%
%ADD146R,0.015000X0.020900*%
%ADD147R,0.019700X0.011800*%
%ADD148R,0.023600X0.023600*%
%ADD152R,0.017700X0.013800*%
%ADD153R,0.020900X0.015000*%
%ADD164R,0.013800X0.017700*%
G04~CAMADD=165~9~0.0~0.0~138.0~177.0~0.0~0.0~0~0.0~0.0~0.0~0.0~0~0.0~0.0~0.0~0.0~0~0.0~0.0~0.0~45.0~222.0~221.0*
%ADD165D165*%
%ADD171C,0.063000*%
%ADD172C,0.063900*%
%ADD173O,0.066900X0.039400*%
%ADD174C,0.082700*%
%ADD175C,0.181100*%
%ADD176C,0.013000*%
%ADD177R,0.051200X0.047200*%
%ADD178R,0.033500X0.035400*%
%ADD179R,0.027600X0.013800*%
%ADD180R,0.013800X0.027600*%
%ADD181R,0.145700X0.145700*%
%ADD182R,0.021100X0.021100*%
%ADD183R,0.035400X0.017700*%
%ADD184R,0.106300X0.027600*%
%ADD185R,0.102400X0.102400*%
G04~CAMADD=186~9~0.0~0.0~138.0~177.0~0.0~0.0~0~0.0~0.0~0.0~0.0~0~0.0~0.0~0.0~0.0~0~0.0~0.0~0.0~135.0~222.0~221.0*
%ADD186D186*%
G04~CAMADD=187~9~0.0~0.0~433.0~748.0~0.0~0.0~0~0.0~0.0~0.0~0.0~0~0.0~0.0~0.0~0.0~0~0.0~0.0~0.0~135.0~834.0~833.0*
%ADD187D187*%
%ADD188R,0.041300X0.037400*%
%ADD189R,0.133900X0.133900*%
%ADD190O,0.035400X0.013800*%
%ADD191O,0.013800X0.035400*%
%ADD192R,0.025600X0.027600*%
%ADD193R,0.031500X0.015700*%
%ADD194R,0.043300X0.041200*%
%ADD195R,0.043300X0.041100*%
%LNvapeix_mini_pcb-1*%
%LPD*%
G54D19*
X04356Y03403D03*
X04442Y03404D03*
X04428Y03384D03*
X04371D03*
X0443Y03425D03*
X04367Y03423D03*
X03129Y03434D03*
X03117Y03419D03*
X04023Y0308D03*
X03961D03*
X0402Y03032D03*
X03965Y03032D03*
X03953Y03056D03*
X04032D03*
X0268Y03383D03*
X02557Y03591D03*
X02539Y03592D03*
X03405Y03104D03*
Y03051D03*
Y03076D03*
X04274Y03598D03*
X04269Y03625D03*
X0306Y03469D03*
X02127Y03648D03*
X02256Y03592D03*
X03046Y03041D03*
X03048Y03105D03*
X03112D03*
Y03041D03*
X04503Y03043D03*
X04471Y0303D03*
X04438Y03042D03*
X04519Y0308D03*
X04421D03*
X04434Y03114D03*
X0447Y03128D03*
X04506Y03114D03*
X02569Y03315D03*
X02591Y03314D03*
X02555Y034D03*
X02554Y03418D03*
X02109Y03613D03*
X02118Y03592D03*
X02131Y03612D03*
X02044Y03685D03*
X02116Y03686D03*
X0208Y03602D03*
X02046Y03616D03*
X02031Y0365D03*
X0208Y03699D03*
X03129Y03419D03*
X02381Y03484D03*
X03046Y03181D03*
X0309Y0318D03*
Y03157D03*
X03047D03*
X03751Y03232D03*
X03377Y03193D03*
X0339Y03176D03*
X03363Y03192D03*
X0236Y03488D03*
X02384Y03498D03*
X03038Y03494D03*
X03024Y03499D03*
X02987Y03589D03*
X02979Y03538D03*
X02568Y03428D03*
X02569Y03404D03*
X0254Y03404D03*
Y03428D03*
X02542Y03351D03*
X02928Y03576D03*
X0295Y03576D03*
X02959Y03589D03*
Y03563D03*
X02939D03*
Y03589D03*
X02918Y03563D03*
Y03589D03*
X03449Y0364D03*
X0347D03*
X03423Y03639D03*
X03461Y03594D03*
X03435Y03592D03*
X03472Y03571D03*
X03425D03*
X03449Y03614D03*
Y03675D03*
X03471Y03615D03*
X03425Y03614D03*
X03144Y03593D03*
X03136Y03577D03*
X02996Y03538D03*
X03059Y03589D03*
X0282Y03065D03*
X02235Y03573D03*
X02275D03*
X02255Y03554D03*
X02582Y03032D03*
X02504Y03037D03*
X02077Y03324D03*
X02141Y03374D03*
X0214Y03399D03*
X02144Y0345D03*
X02821Y03558D03*
X02161Y03649D03*
X02216Y03689D03*
X02255D03*
X02335Y03488D03*
X02635Y03317D03*
X02613Y03317D03*
X02564Y03247D03*
X02548Y03232D03*
X02236Y03447D03*
X02255Y03457D03*
X02778Y03037D03*
X02799Y03058D03*
X02908Y03146D03*
X02862Y03128D03*
X02903Y03168D03*
X02972Y03157D03*
X02945Y03061D03*
X02954Y03109D03*
X02991D03*
X03009Y03676D03*
X03086D03*
X03149Y03509D03*
X04009Y03444D03*
X04274D03*
X03984Y03345D03*
X03894Y03446D03*
X04013Y03596D03*
X04012Y03569D03*
X04151Y03188D03*
X04209Y03144D03*
X04185Y03142D03*
X04268Y03287D03*
X04205Y03258D03*
X03996Y03646D03*
X03882Y03213D03*
X03724Y03118D03*
X03774Y03281D03*
X03838Y03264D03*
X03982Y03213D03*
X03594Y03247D03*
X04089Y03134D03*
X03923Y03656D03*
X03739Y03527D03*
X03956Y03675D03*
X04006Y03521D03*
X03897Y03344D03*
X03485Y03183D03*
X03544Y03213D03*
X03682Y03145D03*
X04142Y03159D03*
X03391Y03192D03*
X03304Y03169D03*
X03242Y03233D03*
X03218Y03185D03*
X03068Y03169D03*
X03165Y03224D03*
X02625Y03072D03*
X02607Y03055D03*
X02906Y03037D03*
X02852Y03082D03*
X02661Y0304D03*
X02641Y0303D03*
X02712Y03039D03*
X02932Y03438D03*
X03324Y03192D03*
X02393Y0361D03*
X02567Y03351D03*
X0269Y03502D03*
X02759Y03458D03*
X02681Y03355D03*
X02699Y03369D03*
X03693Y0351D03*
X03716Y03496D03*
X03735Y03567D03*
X03672Y03527D03*
X03653Y03544D03*
X02863Y03252D03*
X02885Y03234D03*
X02552Y03157D03*
X02538Y03137D03*
X02553Y0312D03*
X02551Y03098D03*
X02586Y0309D03*
X02443Y03676D03*
X02538Y03459D03*
X02384Y03095D03*
Y03121D03*
Y03146D03*
X02351D03*
X02314D03*
X02278D03*
X02242D03*
X02205D03*
X02169D03*
X02132D03*
X02384Y03022D03*
Y03048D03*
X02413D03*
X02411Y0312D03*
Y03095D03*
X02413Y03022D03*
X02118Y03094D03*
Y0312D03*
Y03047D03*
X02117Y03072D03*
X02151Y03165D03*
X02188D03*
X02224D03*
X02261D03*
X02297D03*
X02333D03*
X02207Y03186D03*
X02243D03*
X0228D03*
X02316D03*
X02352D03*
X02225Y03204D03*
X02262D03*
X02298D03*
X02334D03*
X02133Y03186D03*
X0217D03*
X02116Y03165D03*
Y03202D03*
X02188Y032D03*
X02151D03*
X02468Y03048D03*
X02446Y03021D03*
X02467Y03095D03*
Y03118D03*
X02079Y032D03*
X02076Y03162D03*
X02096Y03184D03*
X02095Y03145D03*
X02039Y03198D03*
Y03161D03*
X02056Y03182D03*
X02055Y03142D03*
X02066Y03027D03*
X02099D03*
X0204Y0307D03*
X02041Y03045D03*
Y03118D03*
Y03092D03*
X02077Y03129D03*
X02514Y03136D03*
X02487Y03137D03*
X0241Y03147D03*
X03415Y03218D03*
X04196Y03229D03*
X04219Y03226D03*
X04097Y03534D03*
X03861Y03447D03*
X03907Y03172D03*
X03618Y03215D03*
X0264Y03353D03*
X02658Y03369D03*
X03182Y03438D03*
X033Y03639D03*
X03096Y0356D03*
X03295Y03669D03*
X02371Y03687D03*
X03449Y03571D03*
X03493Y03215D03*
X03014Y03563D03*
X03049Y03569D03*
X0376Y03213D03*
X03718Y03214D03*
X02118Y03571D03*
X03922Y03472D03*
X02457Y03185D03*
X02431Y03184D03*
X02457Y03212D03*
X02431Y03212D03*
X03694Y03214D03*
X02522Y03592D03*
X03852Y03155D03*
X0354Y03117D03*
X03518Y03118D03*
X03484Y03117D03*
X03563Y03118D03*
X03125Y03301D03*
X04161Y03514D03*
X0416Y03627D03*
X04Y03548D03*
G54D60*
X03378Y03073D03*
X03037Y03514D03*
G54D70*
X03655Y0341D03*
X03637Y03363D03*
X03657Y03313D03*
X03707Y03291D03*
X03754Y03312D03*
X03775Y03363D03*
X03755Y0341D03*
X03707Y03431D03*
X02369Y03433D03*
X02417Y03412D03*
X02437Y03365D03*
X02416Y03314D03*
X02369Y03293D03*
X02319Y03315D03*
X02299Y03365D03*
X02317Y03412D03*
G54D138*
X03584Y03216D03*
X03568D03*
X03537Y03259D03*
X03553D03*
G54D139*
X03576Y03247D03*
X03544Y0323D03*
G54D140*
X02144Y0345D03*
X02145Y03258D03*
G54D141*
X03068Y03169D03*
G54D142*
X03142Y03169D03*
G54D146*
X03548Y03179D03*
X03568D03*
X04198Y03203D03*
X04218D03*
X04185Y03159D03*
X04165D03*
X04345Y03112D03*
X04325D03*
X04229D03*
X04209D03*
X04109D03*
X04089D03*
X03552Y03294D03*
X03572D03*
X03284Y03233D03*
X03264D03*
X04112Y03597D03*
X04092D03*
X04201Y03485D03*
X04181D03*
X04201Y0369D03*
X04181D03*
X04112Y03564D03*
X04092D03*
X03485Y03183D03*
X03505D03*
X03726D03*
X03706D03*
X03875Y03147D03*
X03895D03*
X03563Y03145D03*
X03543D03*
X03483Y03144D03*
X03503D03*
X03725Y03147D03*
X03705D03*
X03643Y03112D03*
X03623D03*
X03875D03*
X03895D03*
X03757D03*
X03777D03*
X03798Y0329D03*
X03818D03*
X03856Y03247D03*
X03876D03*
G54D147*
X03772Y03215D03*
Y03231D03*
X03815Y03263D03*
Y03247D03*
G54D148*
X03803Y03223D03*
X03786Y03255D03*
G54D152*
X03233Y03429D03*
Y03448D03*
X04236Y03274D03*
Y03293D03*
X02945Y03028D03*
Y03047D03*
G54D153*
X03206Y03449D03*
Y03429D03*
X04209Y03294D03*
Y03274D03*
X02954Y03137D03*
Y03157D03*
X02991Y03138D03*
Y03158D03*
G54D164*
X0207Y03399D03*
X02089D03*
X0207Y03426D03*
X02089D03*
X02411Y03588D03*
X02392D03*
X02411Y03563D03*
X02392D03*
X02411Y03536D03*
X02392D03*
X04046Y03596D03*
X04027D03*
X0418Y03566D03*
X04161D03*
X0418Y03548D03*
X04161D03*
X04179Y03607D03*
X0416D03*
X04179Y03627D03*
X0416D03*
X04179Y03647D03*
X0416D03*
X04046Y03569D03*
X04027D03*
X0418Y03529D03*
X04161D03*
X04145Y03483D03*
X04126D03*
G54D165*
X02671Y0308D03*
X02685Y03094D03*
X02656D03*
X0267Y03108D03*
X02845Y03203D03*
X02859Y03217D03*
X0283Y03219D03*
X02844Y03233D03*
G54D171*
X03875Y03057D03*
X03644D03*
X03757D03*
X03993D03*
X04345D03*
X04109D03*
X04229D03*
X03528D03*
X04399Y03404D03*
Y03483D03*
Y03325D03*
Y03246D03*
G54D172*
X04326Y03652D03*
Y03573D03*
X03368Y0336D03*
X03525D03*
X02521Y03682D03*
X02621D03*
X02821D03*
X02721D03*
X03081Y0307D03*
X03264Y03072D03*
G54D173*
X02075Y03243D03*
Y03503D03*
G54D174*
X0208Y0365D03*
Y0308D03*
X0447Y03078D03*
Y03648D03*
G54D175*
X02368Y03363D03*
X03707Y0336D03*
G54D176*
X02656Y03223D03*
Y03156D03*
X02689Y0319D03*
X02622D03*
X02823D03*
X02789Y03156D03*
X02756Y03123D03*
X02723Y03089D03*
X02789Y03223D03*
X02756Y0319D03*
X02723Y03156D03*
X02689Y03123D03*
X02756Y03256D03*
X02723Y03223D03*
Y0329D03*
X02689Y03256D03*
X0392Y03577D03*
Y03624D03*
X03873Y03529D03*
Y03577D03*
Y03624D03*
X03825Y03529D03*
Y03577D03*
Y03624D03*
X03918Y0353D03*
G54D177*
X03973Y0334D03*
Y03411D03*
X03879Y0334D03*
Y03411D03*
G54D178*
X02786Y03288D03*
X02839D03*
G54D179*
X02161Y03514D03*
Y03534D03*
Y03554D03*
Y03573D03*
Y03593D03*
Y03613D03*
Y03632D03*
X0235D03*
Y03613D03*
Y03593D03*
Y03573D03*
Y03554D03*
Y03534D03*
Y03514D03*
G54D180*
X02196Y03668D03*
X02216D03*
X02235D03*
X02255D03*
X02275D03*
X02295D03*
X02314D03*
Y03479D03*
X02295D03*
X02275D03*
X02255D03*
X02235D03*
X02216D03*
X02196D03*
G54D181*
X02255Y03573D03*
G54D182*
X02169Y03487D03*
G54D183*
X04391Y0365D03*
Y03572D03*
Y03591D03*
Y03611D03*
Y03631D03*
G54D184*
X043Y03516D03*
Y03706D03*
G54D185*
X03082Y03074D03*
X03264Y03072D03*
G54D186*
X02834Y03158D03*
X02848Y03144D03*
X02794Y03101D03*
X0278Y03115D03*
X02875Y03174D03*
X02861Y03188D03*
G54D187*
X02899Y03326D03*
X02968Y03257D03*
G54D188*
X02852Y03037D03*
Y03082D03*
X02909D03*
Y03037D03*
G54D189*
X03873Y03577D03*
G54D190*
X03774Y03645D03*
Y03626D03*
Y03606D03*
Y03586D03*
Y03567D03*
Y03547D03*
Y03527D03*
Y03508D03*
X03971D03*
Y03527D03*
Y03547D03*
Y03567D03*
Y03586D03*
Y03606D03*
Y03626D03*
Y03645D03*
G54D191*
X03804Y03478D03*
X03823D03*
X03843D03*
X03863D03*
X03882D03*
X03902D03*
X03922D03*
X03941D03*
Y03675D03*
X03922D03*
X03902D03*
X03882D03*
X03863D03*
X03843D03*
X03823D03*
X03804D03*
G54D192*
X03193Y03185D03*
Y03224D03*
G54D193*
X02923Y03589D03*
Y03563D03*
Y03512D03*
Y03538D03*
X02996D03*
Y03512D03*
Y03563D03*
Y03589D03*
G54D194*
X02945Y03576D03*
G54D195*
X02945Y03525D03*
M02*