%FSTAX24Y24*%
%MOIN*%
%SFA1B1*%

%IPPOS*%
%ADD50C,0.059100*%
%ADD54C,0.019700*%
%ADD59C,0.040000*%
%ADD60C,0.051200*%
%ADD61O,0.059100X0.031500*%
%ADD62C,0.023600*%
%ADD63C,0.110200*%
%ADD64C,0.047200*%
%ADD65C,0.031500*%
%LNvapeix_mini_pcb-1*%
%LPD*%
G54D50*
X020806Y036503D03*
X0447Y030787D03*
G54D54*
X02407Y03525D03*
X02413Y0363D03*
X02381Y0351D03*
X02716Y0327D03*
X02706Y03327D03*
X02558Y03197D03*
X03402Y03392D03*
X0294Y03189D03*
X03268Y036175D03*
X03112Y033216D03*
X030314Y03487D03*
X0358Y03677D03*
X0401Y0321D03*
X0386Y03082D03*
X04283Y03408D03*
X03115Y03261D03*
X03099Y03304D03*
X03168Y03279D03*
X03049Y03264D03*
X03518Y03621D03*
X03519Y03482D03*
X03222Y03074D03*
X03977Y03081D03*
X03385Y03679D03*
X032469Y03623D03*
X03375Y036535D03*
X02984Y03204D03*
X02848Y03633D03*
X0268Y03497D03*
X02138Y0358D03*
X03134Y0356D03*
X02155Y03599D03*
X032154Y032574D03*
X0294Y03261D03*
X03276Y03268D03*
X03378Y03316D03*
X02299Y03284D03*
X02878Y03626D03*
X03411Y036205D03*
X03614Y035205D03*
X03364Y03559D03*
X02671Y035965D03*
X03308Y0359D03*
X03401Y03321D03*
Y03344D03*
X04Y0314D03*
X04156Y03475D03*
X041116Y036086D03*
X041897Y03542D03*
X04232Y0358D03*
X04205Y03652D03*
X041867Y032803D03*
X04019Y03115D03*
X04142Y03367D03*
X03927Y031475D03*
X04049Y03549D03*
X03294Y03045D03*
X03272D03*
X03117Y03219D03*
X04Y03556D03*
X04049Y03297D03*
X04083Y03307D03*
X04218Y03465D03*
X042051Y031111D03*
X03395Y03368D03*
X04011Y03067D03*
X02974Y0342D03*
X02937D03*
X03036Y03429D03*
X03049Y03115D03*
X029925Y035371D03*
X03042Y03407D03*
X03033Y03364D03*
X03022Y03345D03*
X03043Y03385D03*
X04268Y03138D03*
X04273Y03686D03*
X04188Y03356D03*
X04231Y03403D03*
X04305Y03186D03*
X025764Y03592D03*
X03382Y034024D03*
X04037Y036485D03*
X04122Y03142D03*
X02866Y03219D03*
X02296Y03463D03*
X0246Y0346D03*
X02142Y03464D03*
X02993Y03039D03*
X0311Y03048D03*
X03197Y03047D03*
X032427Y031494D03*
X02238Y03475D03*
X02275Y03477D03*
G54D59*
X02Y03D02*
X045512D01*
Y037283*
X02D02*
X045512D01*
X02Y03D02*
Y037283D01*
G54D60*
X02554Y031D03*
X02736D03*
X043241Y0363D03*
X043793Y03218D03*
Y03363D03*
Y03508D03*
X03818Y036639D03*
X03918D03*
Y035639D03*
X04468Y032433D03*
Y033221D03*
Y034008D03*
X043241Y03091D03*
X03983Y03364D03*
Y03475D03*
Y032562D03*
G54D61*
X020967Y032337D03*
Y034935D03*
G54D62*
X02395Y03435D03*
X023426Y034124D03*
X023244Y033636D03*
X023426Y033159D03*
X02395Y032923D03*
X02447Y033159D03*
X02466Y033636D03*
X024458Y034124D03*
X038231D03*
X038434Y033635D03*
X038243Y033159D03*
X037724Y032923D03*
X0372Y033159D03*
X037018Y033635D03*
X0372Y034124D03*
X037724Y03435D03*
G54D63*
X023952Y033636D03*
X037726D03*
G54D64*
X023317Y031537D03*
G54D65*
X02502Y03225D03*
M02*