%FSTAX24Y24*%
%MOIN*%
%SFA1B1*%

%IPPOS*%
%ADD20R,0.031500X0.063000*%
%ADD86R,0.009800X0.027600*%
%ADD87R,0.009800X0.027600*%
%ADD88R,0.009800X0.027600*%
%ADD89R,0.009800X0.027600*%
%ADD90R,0.027600X0.009800*%
%ADD91R,0.027600X0.009800*%
%ADD92R,0.027600X0.009800*%
%ADD93R,0.061000X0.061000*%
%ADD94R,0.025700X0.019800*%
%ADD95R,0.031600X0.029600*%
%ADD96R,0.019800X0.023700*%
%ADD97R,0.021700X0.023700*%
%ADD98R,0.029600X0.031600*%
%ADD99R,0.070900X0.039400*%
%ADD100R,0.023700X0.019800*%
%ADD101R,0.033500X0.037500*%
%ADD102R,0.039400X0.017800*%
%ADD103R,0.013900X0.013900*%
%ADD104R,0.019800X0.025700*%
%ADD105R,0.039400X0.031600*%
%ADD106R,0.031600X0.086700*%
%ADD107R,0.023700X0.021700*%
%ADD108R,0.078800X0.043400*%
%ADD109R,0.031600X0.031600*%
%ADD110R,0.035500X0.027600*%
%ADD111R,0.031600X0.013900*%
%ADD112R,0.102400X0.023700*%
%ADD113R,0.185100X0.185100*%
%ADD114O,0.008000X0.025700*%
%ADD115O,0.025700X0.008000*%
%ADD116R,0.040100X0.030100*%
%ADD117R,0.055200X0.108300*%
%ADD118R,0.030100X0.040100*%
%ADD119R,0.011900X0.027600*%
%ADD120R,0.007300X0.007300*%
%ADD121R,0.000000X0.000000*%
%LNvapeix_mini_pcb-1*%
%LPD*%
G54D20*
X035371Y03076D03*
X036709D03*
G54D86*
X022157Y034991D03*
X022748D03*
X022944D03*
X023141Y036998D03*
X022944D03*
X022157D03*
G54D87*
X022354Y034991D03*
X023141D03*
X022354Y036998D03*
G54D88*
X022551Y034991D03*
X023338D03*
X022551Y036998D03*
G54D89*
X023338Y036998D03*
X022748D03*
G54D90*
X021744Y036585D03*
Y036388D03*
X023752Y036191D03*
G54D91*
X021744Y036191D03*
Y035798D03*
Y035404D03*
X023752Y036585D03*
Y035995D03*
Y035798D03*
Y035601D03*
Y035404D03*
G54D92*
X021744Y035995D03*
Y035601D03*
X023752Y036388D03*
G54D93*
X022383Y036359D03*
Y03563D03*
X023112D03*
Y036359D03*
G54D94*
X031386Y036615D03*
X031012D03*
G54D95*
X031997Y036588D03*
Y036057D03*
X029637Y031418D03*
Y030886D03*
G54D96*
X02971Y035567D03*
Y035173D03*
X0354Y0356D03*
Y035207D03*
X033873Y035883D03*
Y03549D03*
X034388Y033842D03*
Y033448D03*
X03595Y033077D03*
Y032683D03*
X02217Y034477D03*
Y034083D03*
Y033677D03*
Y033283D03*
G54D97*
X033323Y036535D03*
Y036141D03*
X032941Y036535D03*
Y036141D03*
X022572Y034477D03*
Y034083D03*
Y033293D03*
Y033687D03*
X029106Y03668D03*
Y036287D03*
G54D98*
X030811Y036103D03*
X031342D03*
X030742Y035572D03*
X030211D03*
X031941Y031989D03*
X032472D03*
G54D99*
X029213Y034686D03*
Y033702D03*
G54D100*
X034877Y036308D03*
X034483D03*
X029263Y033194D03*
X029657D03*
X030177Y035108D03*
X03057D03*
X034801Y034652D03*
X034407D03*
X034799Y034288D03*
X034405D03*
X034983Y03269D03*
X035377D03*
X030213Y033194D03*
X030607D03*
X032427Y031494D03*
X032033D03*
X024407Y035645D03*
X0248D03*
X024407Y03521D03*
X0248D03*
G54D101*
X034473Y035744D03*
X034926D03*
Y035173D03*
X034473D03*
G54D102*
X035308Y033895D03*
X035312Y033206D03*
G54D103*
X035438Y03355D03*
X035182D03*
G54D104*
X034779Y033832D03*
Y033458D03*
G54D105*
X0368Y03676D03*
Y035528D03*
G54D106*
X036241Y03615D03*
X037359D03*
G54D107*
X038393Y031059D03*
X038786D03*
X0248Y036546D03*
X024407D03*
Y036091D03*
X0248D03*
X026617Y03064D03*
X026223D03*
X026243Y03124D03*
X026637D03*
G54D108*
X026144Y036401D03*
G54D109*
X026892Y036401D03*
G54D110*
X042368Y031107D03*
Y030714D03*
X041778Y031107D03*
Y030714D03*
X042368Y03652D03*
Y036127D03*
X041778Y03652D03*
Y036127D03*
G54D111*
X021509Y033243D03*
Y03403D03*
Y033833D03*
Y033636D03*
Y033439D03*
G54D112*
X020603Y034384D03*
Y032888D03*
G54D113*
X03239Y034261D03*
G54D114*
X031524Y035452D03*
X031682D03*
X031839D03*
X031997D03*
X032154D03*
X032312D03*
X032469D03*
X032627D03*
X032784D03*
X032941D03*
X033099D03*
X033256D03*
Y03307D03*
X033099D03*
X032941D03*
X032784D03*
X032627D03*
X032469D03*
X032312D03*
X032154D03*
X031997D03*
X031839D03*
X031682D03*
X031524D03*
G54D115*
X033581Y035127D03*
Y034969D03*
Y034812D03*
Y034654D03*
Y034497D03*
Y03434D03*
Y034182D03*
Y034025D03*
Y033867D03*
Y03371D03*
Y033552D03*
Y033395D03*
X031199D03*
Y033552D03*
Y03371D03*
Y033867D03*
Y034025D03*
Y034182D03*
Y03434D03*
Y034497D03*
Y034654D03*
Y034812D03*
Y034969D03*
Y035127D03*
G54D116*
X027494Y036367D03*
X028321Y036741D03*
Y035993D03*
G54D117*
X042625Y032321D03*
X041051D03*
X042625Y034979D03*
X041051D03*
X027597Y032321D03*
X026023D03*
X027597Y034979D03*
X026023D03*
G54D118*
X030731Y03164D03*
X031105Y030813D03*
X030357D03*
G54D119*
X032476Y030462D03*
X03222D03*
X031964D03*
X03222Y031092D03*
X032476D03*
X031964D03*
G54D120*
X021888Y03513D03*
G54D121*
X022748Y035995D03*
M02*