%FSTAX23Y23*%
%MOIN*%
%SFA1B1*%

%IPPOS*%
%ADD11R,0.031500X0.013800*%
%ADD12R,0.102400X0.023600*%
%ADD13R,0.078700X0.039400*%
%ADD14R,0.023600X0.021700*%
%ADD15R,0.023600X0.019700*%
%ADD16R,0.009800X0.023600*%
%ADD17R,0.023600X0.009800*%
%ADD18R,0.141700X0.141700*%
%ADD19R,0.017100X0.017100*%
%ADD20R,0.011800X0.027600*%
%ADD21R,0.029500X0.031500*%
%ADD22R,0.030000X0.040000*%
%ADD23R,0.031500X0.029500*%
%ADD24R,0.055100X0.108300*%
%ADD25R,0.040000X0.030000*%
%ADD26O,0.025600X0.007900*%
%ADD27O,0.007900X0.025600*%
%ADD28R,0.185000X0.185000*%
%ADD29R,0.035400X0.027600*%
%ADD30C,0.007900*%
%ADD31R,0.021700X0.023600*%
%ADD32R,0.031500X0.031500*%
%ADD33R,0.078700X0.043300*%
%ADD34R,0.019700X0.023600*%
%ADD35R,0.031500X0.086600*%
%ADD36R,0.039400X0.031500*%
%ADD37R,0.019700X0.025600*%
%ADD38R,0.013800X0.013800*%
%ADD39R,0.039400X0.017700*%
%ADD40R,0.031500X0.063000*%
%ADD41R,0.033500X0.037400*%
%ADD42R,0.070900X0.039400*%
%ADD43R,0.025600X0.019700*%
%ADD51C,0.060000*%
%ADD52C,0.059100*%
%ADD53C,0.019700*%
%ADD54C,0.177200*%
%ADD55C,0.078700*%
%ADD56O,0.063000X0.035400*%
%ADD57C,0.070900*%
%LNvapeix_mini_pcb-1*%
%LPD*%
G54D11*
X0215Y03324D03*
Y03403D03*
Y03383D03*
Y03363D03*
Y03343D03*
G54D12*
X0206Y03438D03*
Y03288D03*
G54D13*
X02085Y03393D03*
Y03333D03*
G54D14*
X02663Y03124D03*
X02624D03*
X02622Y03064D03*
X02661D03*
X0248Y03609D03*
X0244D03*
Y03654D03*
X0248D03*
X03878Y03105D03*
X03839D03*
G54D15*
X0248Y03521D03*
X0244D03*
X0248Y03564D03*
X0244D03*
X03203Y03149D03*
X03242D03*
X0306Y03319D03*
X03021D03*
X03537Y03269D03*
X03498D03*
X0344Y03428D03*
X03479D03*
X0344Y03465D03*
X0348D03*
X03057Y0351D03*
X03017D03*
X02965Y03319D03*
X02926D03*
X03448Y0363D03*
X03487D03*
G54D16*
X02215Y03505D03*
X02235D03*
X02255D03*
X02274D03*
X02294D03*
X02314D03*
X02333D03*
Y03693D03*
X02314D03*
X02294D03*
X02274D03*
X02255D03*
X02235D03*
X02215D03*
G54D17*
X02369Y0354D03*
Y0356D03*
Y03579D03*
Y03599D03*
Y03619D03*
Y03638D03*
Y03658D03*
X0218D03*
Y03638D03*
Y03619D03*
Y03599D03*
Y03579D03*
Y0356D03*
Y0354D03*
G54D18*
X02274Y03599D03*
G54D19*
X02188Y03513D03*
G54D20*
X03196Y03109D03*
X03247D03*
X03222D03*
X03196Y03046D03*
X03222D03*
X03247D03*
G54D21*
X03247Y03198D03*
X03194D03*
X03021Y03557D03*
X03074D03*
X03134Y0361D03*
X03081D03*
G54D22*
X03035Y03081D03*
X0311D03*
X03073Y03164D03*
G54D23*
X02963Y03088D03*
Y03141D03*
X03199Y03605D03*
Y03658D03*
G54D24*
X02602Y03497D03*
X02759D03*
X02602Y03232D03*
X02759D03*
X04105Y03497D03*
X04262D03*
X04105Y03232D03*
X04262D03*
G54D25*
X02832Y03599D03*
Y03674D03*
X02749Y03636D03*
G54D26*
X03119Y03512D03*
Y03496D03*
Y03481D03*
Y03465D03*
Y03449D03*
Y03434D03*
Y03418D03*
Y03402D03*
Y03386D03*
Y03371D03*
Y03355D03*
Y03339D03*
X03358D03*
Y03355D03*
Y03371D03*
Y03386D03*
Y03402D03*
Y03418D03*
Y03434D03*
Y03449D03*
Y03465D03*
Y03481D03*
Y03496D03*
Y03512D03*
G54D27*
X03152Y03307D03*
X03168D03*
X03183D03*
X03199D03*
X03215D03*
X03231D03*
X03246D03*
X03262D03*
X03278D03*
X03294D03*
X03309D03*
X03325D03*
Y03545D03*
X03309D03*
X03294D03*
X03278D03*
X03262D03*
X03246D03*
X03231D03*
X03215D03*
X03199D03*
X03183D03*
X03168D03*
X03152D03*
G54D28*
X03239Y03426D03*
G54D29*
X04177Y03612D03*
Y03652D03*
X04236Y03612D03*
Y03652D03*
X04177Y03071D03*
Y0311D03*
X04236Y03071D03*
Y0311D03*
G54D30*
X04081Y03089D03*
X04055D03*
X0406Y03635D03*
X04087D03*
X03008Y0337D03*
X02982D03*
X03008Y03467D03*
X02982D03*
G54D31*
X0291Y03628D03*
Y03668D03*
X02257Y03368D03*
Y03329D03*
Y03408D03*
Y03447D03*
X03294Y03614D03*
Y03653D03*
X03332Y03614D03*
Y03653D03*
G54D32*
X02689Y0364D03*
G54D33*
X02614Y0364D03*
G54D34*
X02217Y03328D03*
Y03367D03*
Y03408D03*
Y03447D03*
X03595Y03268D03*
Y03307D03*
X03438Y03344D03*
Y03384D03*
X03387Y03549D03*
Y03588D03*
X0354Y0352D03*
Y0356D03*
X02971Y03517D03*
Y03556D03*
G54D35*
X03735Y03615D03*
X03624D03*
G54D36*
X0368Y03552D03*
Y03676D03*
G54D37*
X03477Y03345D03*
Y03383D03*
G54D38*
X03518Y03355D03*
X03543D03*
G54D39*
X03531Y0332D03*
X0353Y03389D03*
G54D40*
X0367Y03076D03*
X03537D03*
G54D41*
X03447Y03517D03*
X03492D03*
Y03574D03*
X03447D03*
G54D42*
X02921Y0337D03*
Y03468D03*
G54D43*
X03101Y03661D03*
X03138D03*
G54D51*
X02331Y03153D03*
X02174D03*
X03818Y03563D03*
X03918D03*
Y03663D03*
X03818D03*
G54D52*
X03983Y03256D03*
Y03475D03*
Y03364D03*
X04324Y03091D03*
X04468Y034D03*
Y03479D03*
Y03322D03*
Y03243D03*
X04379Y03508D03*
Y03363D03*
Y03218D03*
X04324Y0363D03*
G54D53*
X03772Y03435D03*
X0372Y03412D03*
X03701Y03363D03*
X0372Y03315D03*
X03772Y03292D03*
X03824Y03315D03*
X03843Y03363D03*
X03823Y03412D03*
X02445D03*
X02466Y03363D03*
X02447Y03315D03*
X02395Y03292D03*
X02342Y03315D03*
X02324Y03363D03*
X02342Y03412D03*
X02395Y03435D03*
G54D54*
X03772Y03363D03*
X02395D03*
G54D55*
X0447Y03078D03*
Y03648D03*
X0208Y0365D03*
Y0308D03*
G54D56*
X02096Y03493D03*
Y03233D03*
G54D57*
X02736Y031D03*
X02554D03*
M02*