%FSTAX23Y23*%
%MOIN*%
%SFA1B1*%

%IPPOS*%
%AMD41*
4,1,4,-0.001400,0.008300,-0.008300,0.001400,0.001400,-0.008300,0.008300,-0.001400,-0.001400,0.008300,0.0*
%
%AMD87*
4,1,4,-0.008300,-0.001400,-0.001400,-0.008300,0.008300,0.001400,0.001400,0.008300,-0.008300,-0.001400,0.0*
%
%AMD88*
4,1,4,-0.039000,-0.011100,-0.011100,-0.039000,0.039000,0.011100,0.011100,0.039000,-0.039000,-0.011100,0.0*
%
%ADD12R,0.007900X0.015700*%
%ADD13R,0.019700X0.019700*%
%ADD14C,0.039400*%
%ADD15R,0.078700X0.043300*%
%ADD16R,0.031500X0.031500*%
%ADD20R,0.011000X0.016900*%
%ADD21R,0.015700X0.007900*%
%ADD22R,0.019700X0.019700*%
%ADD26R,0.013800X0.009800*%
%ADD27R,0.016900X0.011000*%
%ADD40R,0.009800X0.013800*%
G04~CAMADD=41~9~0.0~0.0~98.0~138.0~0.0~0.0~0~0.0~0.0~0.0~0.0~0~0.0~0.0~0.0~0.0~0~0.0~0.0~0.0~45.0~166.0~165.0*
%ADD41D41*%
%ADD47C,0.008000*%
%ADD48C,0.005900*%
%ADD49C,0.011800*%
%ADD50C,0.015700*%
%ADD53C,0.019700*%
%ADD54C,0.013800*%
%ADD55C,0.007900*%
%ADD57C,0.059100*%
%ADD58C,0.060000*%
%ADD59O,0.063000X0.035400*%
%ADD60C,0.019700*%
%ADD61C,0.078700*%
%ADD62C,0.177200*%
%ADD63C,0.015700*%
%ADD64C,0.035400*%
%ADD65C,0.026000*%
%ADD66C,0.031500*%
%ADD74C,0.039400*%
%ADD78R,0.047200X0.043300*%
%ADD79R,0.029500X0.031500*%
%ADD80R,0.023600X0.009800*%
%ADD81R,0.009800X0.023600*%
%ADD82R,0.141700X0.141700*%
%ADD83R,0.017100X0.017100*%
%ADD84R,0.031500X0.013800*%
%ADD85R,0.102400X0.023600*%
%ADD86R,0.098400X0.098400*%
G04~CAMADD=87~9~0.0~0.0~98.0~138.0~0.0~0.0~0~0.0~0.0~0.0~0.0~0~0.0~0.0~0.0~0.0~0~0.0~0.0~0.0~135.0~166.0~165.0*
%ADD87D87*%
G04~CAMADD=88~9~0.0~0.0~394.0~709.0~0.0~0.0~0~0.0~0.0~0.0~0.0~0~0.0~0.0~0.0~0.0~0~0.0~0.0~0.0~135.0~780.0~779.0*
%ADD88D88*%
%ADD89R,0.037400X0.033500*%
%ADD90R,0.129900X0.129900*%
%ADD91O,0.031500X0.009800*%
%ADD92O,0.009800X0.031500*%
%ADD93R,0.021700X0.023600*%
%ADD94R,0.027600X0.011800*%
%ADD95R,0.039400X0.037300*%
%ADD96R,0.039400X0.037200*%
%LNvapeix_mini_pcb-1*%
%LPD*%
G36*
X04548Y03004D02*
X0237D01*
X02369Y03008*
Y03009*
Y03136*
X02132*
Y03009*
Y03008*
X0213Y03004*
X02004*
Y03722*
X02517*
X02517Y03717*
X02511Y03717*
X02502Y03713*
X02495Y03707*
X02489Y037*
X02486Y03691*
X02484Y03682*
X02486Y03672*
X02489Y03663*
X02495Y03656*
X02502Y0365*
X02511Y03647*
X02521Y03645*
X0253Y03647*
X02539Y0365*
X02546Y03656*
X02552Y03663*
X02556Y03672*
X02557Y03682*
X02556Y03691*
X02552Y037*
X02546Y03707*
X02539Y03713*
X0253Y03717*
X02524Y03717*
X02524Y03722*
X02717*
X02717Y03717*
X02711Y03717*
X02702Y03713*
X02695Y03707*
X02689Y037*
X02686Y03691*
X02684Y03682*
X02686Y03672*
X02689Y03663*
X02695Y03656*
X02702Y0365*
X02711Y03647*
X02721Y03645*
X0273Y03647*
X02739Y0365*
X02746Y03656*
X02752Y03663*
X02756Y03672*
X02757Y03682*
X02756Y03691*
X02752Y037*
X02746Y03707*
X02739Y03713*
X0273Y03717*
X02724Y03717*
X02724Y03722*
X02817*
X02817Y03717*
X02811Y03717*
X02802Y03713*
X02795Y03707*
X02789Y037*
X02786Y03691*
X02784Y03682*
X02786Y03672*
X02789Y03663*
X02795Y03656*
X02798Y03653*
X02799Y03647*
X02789Y03637*
X02505*
X02454Y03688*
X02449Y03691*
X02443Y03693*
X02436Y03691*
X02431Y03688*
X02428Y03683*
X02426Y03677*
X02427Y03674*
X02422Y03671*
X02389Y03705*
X02383Y03709*
X02377Y03711*
X02371Y03712*
X02364Y03711*
X02358Y03709*
X02352Y03705*
X02348Y03699*
X02346Y03693*
X02345Y03687*
X02346Y0368*
X02348Y03674*
X02352Y03668*
X02392Y03628*
X0239Y03623*
X02387Y03623*
X02383Y03619*
X0238Y03615*
X02379Y0361*
X0238Y03604*
Y03563*
X0238Y03558*
X02381Y03557*
Y0355*
Y03542*
X02379Y03541*
X02379Y03536*
Y03512*
X02375Y03508*
X02374Y03507*
X02373Y03506*
X02372Y03506*
X02367Y03508*
Y03563*
Y03602*
Y03643*
X02332*
Y03602*
Y03563*
Y03523*
Y03504*
X0233Y03502*
X02328Y035*
X02325Y03497*
X02324Y03497*
X02185*
Y03461*
X02224*
X02225Y03458*
X02225Y03456*
X02223Y03452*
X02222Y03447*
X02223Y03441*
X02226Y03437*
X0223Y03434*
X02236Y03433*
X02241Y03434*
X02245Y03437*
X02249Y03441*
X02253Y03443*
X02255Y03443*
X02261Y03444*
X02265Y03447*
X02268Y03451*
X02269Y03457*
X02269Y03457*
X02272Y03461*
X02325*
Y03472*
X0233Y03474*
X02335Y03473*
X0234Y03475*
X02355*
X0236Y03473*
X02365Y03475*
X0237*
X02371Y03474*
X02375Y03471*
X02381Y03469*
X02386Y03471*
X0239Y03474*
X02394Y03478*
X02395Y03484*
X02394Y03488*
X02397Y03492*
X02397Y03493*
X02401Y03497*
X02404Y03502*
X02405Y03507*
Y03536*
X02404Y03541*
X02402Y03542*
Y03548*
Y03557*
X02403Y03558*
X02404Y03563*
Y03601*
X02406Y03604*
X02406Y03607*
X02411Y03609*
X0249Y0353*
X02496Y03526*
X02502Y03524*
X02509Y03523*
X02811*
X02817Y03524*
X02824Y03526*
X02829Y0353*
X02839Y0354*
X02843Y03545*
X02845Y03552*
X02846Y03558*
X02845Y03565*
X02843Y03571*
X02839Y03577*
X02833Y03581*
X02827Y03583*
X02821Y03584*
X02814Y03583*
X02808Y03581*
X02802Y03577*
X028Y03574*
X02565*
X02564Y03579*
X02567Y03581*
X0257Y03586*
X02571Y03591*
X0257Y03597*
X02568Y03599*
X0257Y03604*
X02796*
X02802Y03606*
X02807Y03609*
X02832Y03634*
X02835Y03639*
X02837Y03646*
Y03649*
X02839Y0365*
X02846Y03656*
X02852Y03663*
X02856Y03672*
X02857Y03682*
X02856Y03691*
X02852Y037*
X02846Y03707*
X02839Y03713*
X0283Y03717*
X02824Y03717*
X02824Y03722*
X04243*
Y03688*
X04307*
X04308Y03683*
X04307Y03683*
X043Y03677*
X04294Y0367*
X04291Y03662*
X04217*
X04211Y03668*
Y03675*
X04212*
Y03704*
X04169*
Y03675*
X04169Y0367*
Y03659*
X04149*
Y03652*
X04149Y03651*
X04148Y03647*
Y03633*
X04147Y03632*
X04146Y03627*
X04147Y03621*
X04148Y0362*
Y03612*
X04145Y03609*
X04123*
Y03611*
X0408*
Y03608*
X04057*
Y03608*
X04018*
X04018Y03609*
X04013Y0361*
X04007Y03609*
X04003Y03605*
X04Y03601*
X03999Y03596*
X03998Y03595*
X03993*
X03991Y036*
X03992Y03602*
X03993Y03606*
X03992Y0361*
X03991Y03613*
X0399Y03616*
X03991Y03619*
X03992Y03622*
X03993Y03626*
X03993Y03627*
X03995Y03631*
X03996Y03632*
X04001Y03633*
X04005Y03636*
X04009Y0364*
X0401Y03646*
X04009Y03651*
X04005Y03655*
X04001Y03659*
X03996Y0366*
X0399Y03659*
X03989Y03657*
X03971*
X03966Y03657*
X03966Y03656*
X0396*
X03958Y03656*
X03954Y03659*
X03954Y0366*
X03956Y03661*
X03961Y03662*
X03965Y03665*
X03969Y0367*
X0397Y03675*
X03969Y0368*
X03965Y03685*
X03961Y03688*
X03956Y03689*
X03954Y03689*
X03952Y0369*
X03949Y03694*
X03946Y03696*
X03941Y03697*
X03937Y03696*
X03935Y03695*
X03932Y03694*
X03928Y03695*
X03926Y03696*
X03922Y03697*
X03918Y03696*
X03915Y03695*
X03912Y03694*
X03909Y03695*
X03906Y03696*
X03902Y03697*
X03898Y03696*
X03896Y03695*
X03892Y03694*
X03889Y03695*
X03887Y03696*
X03882Y03697*
X03878Y03696*
X03876Y03695*
X03873Y03694*
X03869Y03695*
X03867Y03696*
X03863Y03697*
X03858Y03696*
X03856Y03695*
X03853Y03694*
X03849Y03695*
X03847Y03696*
X03843Y03697*
X03839Y03696*
X03837Y03695*
X03833Y03694*
X0383Y03695*
X03828Y03696*
X03823Y03697*
X03819Y03696*
X03817Y03695*
X03813Y03694*
X0381Y03695*
X03808Y03696*
X03804Y03697*
X03799Y03696*
X03796Y03694*
X03793Y0369*
X03793Y03686*
Y03664*
X03793Y0366*
X03795Y03658*
X03791Y03654*
X03789Y03656*
X03785Y03656*
X03763*
X03759Y03656*
X03757Y03654*
X03695*
X03692Y03654*
X03689Y03652*
X03646Y03609*
X03644Y03606*
X03644Y03603*
Y03554*
X03643Y03553*
X0364Y03549*
X03639Y03544*
X0364Y03538*
X03643Y03534*
X03647Y03531*
X03653Y03529*
X03653Y0353*
X03657Y03527*
X03659Y03521*
X03662Y03517*
X03666Y03514*
X03672Y03512*
X03674Y03513*
X03678Y0351*
X03679Y03509*
X0368Y03504*
X03683Y035*
X03687Y03497*
X03693Y03495*
X03697Y03496*
X03699Y03496*
X03702Y03493*
X03702Y03491*
X037Y03486*
X03594*
X0359Y03486*
X03587Y03484*
X03548Y03444*
X0334*
X03336Y03444*
X03333Y03442*
X03303Y03411*
X03211*
X03209Y03416*
X0321Y03418*
X0322*
Y03438*
X03245*
Y03459*
X0322*
Y03461*
X03191*
Y03458*
X0319Y03458*
X03187Y03456*
X03183Y03451*
X03182Y03452*
X0318Y03451*
X03175Y03457*
X03172Y03459*
X03169Y03459*
X03111*
X03108Y03462*
Y03553*
X03109Y03554*
X0311Y0356*
X03109Y03565*
X03105Y03569*
X03101Y03573*
X03096Y03574*
X0309Y03573*
X03089Y03571*
X03084Y03574*
Y03576*
X03083Y0358*
X0308Y03584*
X03072Y03592*
X03072Y03594*
X03068Y03598*
X03064Y03602*
X03059Y03603*
X03053Y03602*
X03052Y03601*
X02996*
X02994Y036*
X02994*
X02992Y03602*
X02987Y03603*
X02981Y03602*
X02981Y03601*
X02976Y036*
X02975Y036*
X0297Y036*
X02966*
X02964Y03602*
X02959Y03603*
X02953Y03602*
X02951Y036*
X02946*
X02944Y03602*
X02939Y03603*
X02933Y03602*
X02931Y036*
X02925*
X02923Y03602*
X02918Y03603*
X02912Y03602*
X0291Y036*
X02903*
Y0358*
Y03577*
Y03575*
Y03554*
Y03551*
Y03549*
Y03542*
X02898Y03541*
X02894Y03546*
Y03608*
X02902Y03616*
X03208*
X03215Y03618*
X0322Y03621*
X03251Y03652*
X03287*
X03288Y03651*
X03289Y03647*
X03287Y03644*
X03285Y03639*
X03287Y03633*
X0329Y03629*
X03294Y03626*
X033Y03624*
X03305Y03626*
X03309Y03629*
X03313Y03633*
X03314Y03639*
X03313Y03644*
X03309Y03648*
X03306Y03651*
X03305Y03654*
X03305Y03657*
X03306Y03657*
X03309Y03662*
X03311Y03669*
X03309Y03675*
X03306Y0368*
X03301Y03683*
X03295Y03685*
X03245*
X03238Y03683*
X03233Y0368*
X03202Y03649*
X02895*
X02889Y03647*
X02884Y03644*
X02866Y03626*
X02863Y03621*
X02861Y03615*
Y0354*
X02863Y03533*
X02866Y03528*
X02881Y03513*
X02886Y0351*
X02892Y03509*
X02903*
Y035*
X02943*
Y035*
X0297*
Y03516*
X02975Y03519*
X02976Y03519*
Y035*
X02984*
Y03457*
X02984Y03452*
X02987Y03448*
X02999Y03436*
X02997Y03432*
X02951*
X02946Y03437*
X02946Y03438*
X02945Y03444*
X02942Y03448*
X02937Y03451*
X02932Y03452*
X02926Y03451*
X02922Y03448*
X02919Y03444*
X02918Y03438*
X02919Y03433*
X02922Y03428*
X02926Y03425*
X02932Y03424*
X02933Y03424*
X02939Y03418*
X02937Y03413*
X02653*
X02651Y03418*
X02698Y03465*
X02701Y03468*
X02702Y03473*
Y03495*
X02703Y03496*
X02704Y03502*
X02703Y03507*
X02699Y03512*
X02695Y03515*
X0269Y03516*
X02684Y03515*
X0268Y03512*
X02677Y03507*
X02676Y03502*
X02677Y03496*
X02678Y03495*
Y03478*
X02563Y03364*
X02562Y03364*
X02557Y0336*
X02557Y0336*
X02552*
X02551Y0336*
X02547Y03364*
X02542Y03365*
X02536Y03364*
X02532Y0336*
X02529Y03356*
X02528Y03351*
X02529Y03345*
X02532Y03341*
X02536Y03338*
X02542Y03337*
X02547Y03338*
X02551Y03341*
X02552Y03341*
X02557*
X02557Y03341*
X02562Y03338*
X02567Y03337*
X02572Y03338*
X02577Y0334*
X02579Y0334*
X02582Y03338*
Y03328*
X02577Y03326*
X02576Y03326*
X02574Y03328*
X02569Y03329*
X02563Y03328*
X02559Y03324*
X02556Y0332*
X02554Y03315*
X02556Y03309*
X02558Y03305*
Y03277*
X02559Y03273*
X02561Y03269*
X02566Y03265*
X02564Y03262*
X02563Y03261*
X02558Y0326*
X02554Y03256*
X02551Y03252*
X0255Y0325*
X02548Y03246*
X02545Y03245*
X02542Y03245*
X02538Y03241*
X02535Y03237*
X02534Y03232*
X02535Y03226*
X02538Y03222*
X02542Y03219*
X02548Y03218*
X02553Y03219*
X02557Y03222*
X02561Y03226*
X02561Y03228*
X02563Y03232*
X02566Y03233*
X02569Y03234*
X02573Y03237*
X02577Y03241*
X02578Y03246*
X02579Y03247*
X02582Y03249*
X02767Y03063*
Y03046*
X02765Y03042*
X02764Y03037*
X02765Y03031*
X02768Y03027*
X02772Y03024*
X02778Y03022*
X02783Y03024*
X02787Y03027*
X02791Y03031*
X02792Y03037*
X02791Y0304*
X02791Y03041*
X02794Y03044*
X02795Y03044*
X02799Y03044*
X02804Y03045*
X02808Y03048*
X02812Y03052*
X02813Y03053*
X02814Y03052*
X0282Y03051*
X02825Y03052*
X02829Y03055*
X02833Y03059*
X02833Y0306*
X02877*
Y03102*
X02895*
X02898Y03102*
X02901Y03104*
X02914Y03117*
X02916Y0312*
X02917Y03124*
Y03135*
X02917Y03136*
X02921Y0314*
X02922Y03146*
X02921Y03151*
X02917Y03155*
X02913Y03158*
X02916Y03162*
X02917Y03168*
X02916Y03173*
X02912Y03177*
X02908Y03181*
X02903Y03182*
X02897Y03181*
X02893Y03177*
X02888Y03179*
X02876Y0319*
X02858Y03172*
X02874Y03157*
X02877Y0316*
X02878Y03159*
X02881Y03159*
X02892*
X02893Y03158*
X02897Y03155*
X02895Y03151*
X02893Y03146*
X02895Y0314*
X02898Y03136*
X02899Y03135*
Y03127*
X02891Y0312*
X02879*
X02876Y03125*
X02877Y03128*
X02875Y03133*
X02872Y03137*
X02868Y03141*
X02867Y03141*
X02864Y03145*
X02835Y03174*
X02827Y03167*
X02809Y03186*
Y03193*
X02809Y03194*
X02818Y03203*
X0282Y03205*
X0282Y03209*
Y03256*
X0283Y03266*
X02851*
X02852Y03263*
X02853Y03261*
X0285Y03257*
X02849Y03252*
X02849Y03251*
X02845Y03247*
X02842Y03249*
X02827Y03234*
X02842Y03218*
X02842Y03218*
X0286Y032*
X02875Y03215*
X02873Y03218*
X02877Y03222*
X02879Y03221*
X02885Y03219*
X0289Y03221*
X02894Y03224*
X02895Y03225*
X02942*
X02957Y03209*
X03016Y03268*
X02979Y03304*
X02921Y03246*
X0292Y03243*
X02895*
X02894Y03243*
X0289Y03247*
X02885Y03248*
X02881Y03247*
X02877Y0325*
X02877Y03251*
X02877Y03252*
X02876Y03257*
X02876Y03258*
Y03284*
X02881Y03286*
X02888Y03279*
X02946Y03337*
X02917Y03367*
X02919Y03372*
X03094*
X03096Y0337*
X031Y03369*
X03316*
X0332Y0337*
X03323Y03372*
X03335Y03384*
X03338Y03381*
X03336Y03378*
X03333Y03369*
X03331Y0336*
X03333Y0335*
X03335Y03344*
X03315Y03324*
X03313Y0332*
X03312Y03316*
Y03199*
X03311Y03198*
X0331Y03192*
X0331Y0319*
X03308Y03185*
X03307Y03184*
X03305Y03184*
X03296Y03193*
Y03233*
X03295Y03236*
Y03247*
X03252*
X03247Y03245*
X03247Y03246*
X03242Y03247*
X03236Y03246*
X03232Y03242*
X03229Y03238*
X03228Y03233*
X03229Y03227*
X03232Y03223*
X03236Y0322*
X03242Y03219*
X03247Y0322*
X03247Y0322*
X03252Y03218*
X03272*
Y03189*
X03272Y03184*
X03275Y0318*
X0329Y03165*
X03291Y03163*
X03294Y03159*
X03298Y03156*
X03304Y03154*
X03309Y03156*
X03313Y03159*
X03317Y03163*
X03318Y03169*
X03317Y03174*
X03316Y03175*
X03318Y03178*
X03319Y03179*
X03324Y03178*
X03329Y03179*
X03334Y03183*
X03337Y03187*
X03338Y03192*
X03337Y03198*
X03336Y03199*
Y03311*
X03352Y03327*
X03358Y03325*
X03368Y03323*
X03377Y03325*
X03386Y03328*
X03393Y03334*
X03399Y03341*
X03403Y0335*
X03404Y0336*
X03403Y03369*
X03399Y03378*
X03393Y03385*
X03386Y03391*
X03377Y03395*
X03368Y03396*
X03358Y03395*
X03349Y03391*
X03346Y03389*
X03343Y03392*
X03353Y03403*
X03541*
X03563Y03381*
Y03308*
X0354*
Y03279*
X03543*
Y03273*
X03543*
Y03246*
X03528*
Y03215*
X0353Y0321*
X03531Y03207*
X03534Y03203*
X03538Y032*
X03544Y03199*
X03549Y032*
X03553Y03203*
X03556Y03202*
X03559Y03201*
Y03193*
X03536*
Y0318*
X03531Y03175*
X03517*
Y03198*
X03514*
Y03203*
X03514Y03206*
X03512Y03209*
X03507Y03214*
X03507Y03215*
X03506Y0322*
X03503Y03224*
X03499Y03228*
X03493Y03229*
X03488Y03228*
X03483Y03224*
X0348Y0322*
X03479Y03215*
X0348Y03209*
X03483Y03205*
X03486Y03203*
X03484Y03198*
X03474*
Y03191*
X03472Y03189*
X03471Y03183*
X03472Y0318*
X0347Y03176*
X03469Y03175*
X03437*
X03424Y03188*
Y03207*
X03424Y03208*
X03428Y03212*
X03429Y03218*
X03428Y03223*
X03424Y03227*
X0342Y03231*
X03415Y03232*
X03409Y03231*
X03405Y03227*
X03402Y03223*
X034Y03218*
X03402Y03212*
X03404Y03209*
X03404Y03206*
X034Y03204*
X03398Y03204*
X03396Y03205*
X03391Y03206*
X03385Y03205*
X03384Y03204*
X03382Y03206*
X03377Y03207*
X03371Y03206*
X0337Y03205*
X03369Y03205*
X03363Y03206*
X03358Y03205*
X03353Y03202*
X0335Y03198*
X03349Y03192*
X0335Y03187*
X03353Y03183*
X03358Y03179*
X03363Y03178*
X03369Y03179*
X0337Y0318*
X03371Y0318*
X03376Y03179*
X03376Y03176*
X03377Y0317*
X0338Y03166*
X03384Y03163*
X0339Y03162*
X03395Y03163*
X03399Y03166*
X03403Y0317*
X03404Y03176*
X03404Y03176*
X03408Y03178*
X03427Y03159*
X0343Y03157*
X03433Y03157*
X03472*
Y0313*
X03473Y03125*
X03471Y03122*
X03469Y03117*
X03471Y03111*
X03474Y03107*
X03478Y03104*
X03484Y03103*
X03489Y03104*
X03493Y03107*
X03497Y03111*
X03498Y03117*
X03497Y03122*
X03494Y03125*
X03496Y0313*
X03497Y0313*
X03504*
X03507Y03126*
X03505Y03123*
X03504Y03118*
X03505Y03113*
X03508Y03108*
X03513Y03105*
X03518Y03104*
X03523Y03105*
X03524Y03106*
X0353Y03107*
X03534Y03104*
X0354Y03103*
X03545Y03104*
X03548Y03106*
X03553Y03108*
X03557Y03105*
X03563Y03104*
X03568Y03105*
X03572Y03108*
X03576Y03112*
X03577Y03118*
X03576Y03123*
X03573Y03126*
X03575Y03131*
Y0316*
X03576Y03164*
X03579*
Y03193*
X03577*
Y03202*
X03578*
Y0323*
X03583Y03231*
X03592*
Y03231*
X03594Y03233*
X03599Y03234*
X03603Y03237*
X03604Y03237*
X03609Y03235*
Y03225*
X03608Y03224*
X03605Y0322*
X03604Y03215*
X03605Y03209*
X03608Y03205*
X03612Y03202*
X03618Y032*
X03623Y03202*
X03627Y03205*
X03631Y03209*
X03632Y03215*
X03631Y0322*
X03627Y03224*
X03627Y03225*
Y03278*
X03626Y03281*
X03624Y03284*
X03608Y033*
X03605Y03302*
X03602Y03303*
X03583*
Y03308*
X03581*
Y03385*
X0358Y03388*
X03578Y03391*
X03559Y0341*
X0356Y03413*
X0356Y03415*
X03563Y03417*
X03602Y03457*
X03681*
X03682Y03452*
X0367Y03448*
X03654Y03439*
X03639Y03427*
X03628Y03413*
X03619Y03396*
X03613Y03379*
X03612Y0336*
X03613Y03342*
X03619Y03324*
X03628Y03307*
X03639Y03293*
X03654Y03281*
X0367Y03272*
X03688Y03267*
X03696Y03266*
X03697Y03264*
X03697Y03261*
X03687Y03251*
X03685Y03248*
X03685Y03245*
Y03225*
X03684Y03224*
X03681Y0322*
X03679Y03214*
X03681Y03209*
X03684Y03204*
X03685Y03204*
Y03192*
X03639*
X03636Y03192*
X03633Y0319*
X03616Y03173*
X03614Y0317*
X03613Y03167*
Y03126*
X03611*
Y03097*
X03634*
Y03091*
X03626Y03088*
X03618Y03082*
X03613Y03075*
X03609Y03066*
X03608Y03057*
X03609Y03048*
X03613Y03039*
X03618Y03032*
X03626Y03026*
X03634Y03023*
X03644Y03021*
X03653Y03023*
X03661Y03026*
X03669Y03032*
X03675Y03039*
X03678Y03048*
X03679Y03057*
X03678Y03066*
X03675Y03075*
X03669Y03082*
X03661Y03088*
X03653Y03092*
X03652Y03092*
Y03097*
X03654*
Y03126*
X03632*
Y03163*
X03643Y03174*
X03694*
Y03169*
X03698*
X037Y03165*
X03698Y03163*
X03698Y03163*
X03698Y03162*
X03697Y03161*
X03693*
Y0316*
X03688Y03158*
X03687Y03158*
X03682Y03159*
X03676Y03158*
X03672Y03155*
X03669Y03151*
X03667Y03145*
X03669Y0314*
X03672Y03136*
X03676Y03132*
X03682Y03131*
X03687Y03132*
X03688Y03133*
X03693Y03132*
X03712*
X03713Y03129*
X03713Y03127*
X03711Y03123*
X03709Y03118*
X03711Y03112*
X03714Y03108*
X03718Y03105*
X03724Y03104*
X03729Y03105*
X03733Y03108*
X03737Y03112*
X03738Y03118*
X03737Y03123*
X03734Y03127*
X03735Y03132*
X03736*
Y03156*
X03759*
X03768Y03147*
Y03126*
X03745*
Y03097*
X03747*
Y03092*
X03747Y03092*
X03739Y03088*
X03731Y03082*
X03726Y03075*
X03722Y03066*
X03721Y03057*
X03722Y03048*
X03726Y03039*
X03731Y03032*
X03739Y03026*
X03747Y03023*
X03757Y03021*
X03766Y03023*
X03774Y03026*
X03782Y03032*
X03788Y03039*
X03791Y03048*
X03792Y03057*
X03791Y03066*
X03788Y03075*
X03782Y03082*
X03774Y03088*
X03766Y03092*
X03766Y03092*
Y03097*
X03788*
Y03108*
X03809Y03129*
X03811Y03132*
X03812Y03135*
Y03207*
X03818*
Y03237*
X03829*
Y03238*
X03844*
Y03232*
X03858*
X0386Y03228*
X03858Y03226*
X03857Y03223*
X03856Y03219*
Y03205*
X03857Y03201*
X03858Y03199*
X03871Y03186*
X03874Y03184*
X03877Y03183*
X03892*
X03895Y03178*
X03894Y03177*
X03893Y03172*
X03893Y0317*
X03888Y03166*
X03886Y03163*
X03886Y03161*
X03864*
X03861Y03164*
X03857Y03168*
X03852Y03169*
X03846Y03168*
X03842Y03164*
X03839Y0316*
X03837Y03155*
X03839Y03149*
X03842Y03145*
X03846Y03142*
X03852Y0314*
X03853Y03141*
X03853Y0314*
X03856Y03138*
X0386Y03138*
X03863*
Y03132*
X03886*
Y03126*
X03863*
Y03097*
X03865*
Y03092*
X03865Y03092*
X03857Y03088*
X03849Y03082*
X03844Y03075*
X0384Y03066*
X03839Y03057*
X0384Y03048*
X03844Y03039*
X03849Y03032*
X03857Y03026*
X03865Y03023*
X03875Y03021*
X03884Y03023*
X03892Y03026*
X039Y03032*
X03906Y03039*
X03909Y03048*
X0391Y03057*
X03909Y03066*
X03906Y03075*
X039Y03082*
X03892Y03088*
X03884Y03092*
X03884Y03092*
Y03097*
X03906*
Y03126*
X03904*
Y03132*
X03906*
Y03157*
X03907Y03157*
X03912Y03159*
X03916Y03162*
X0392Y03166*
X03921Y03172*
X0392Y03177*
X03919Y03178*
X03921Y03183*
X03973*
X03977Y03184*
X0398Y03186*
X03988Y03194*
X0399Y03197*
X03991Y03201*
Y03202*
X03991Y03203*
X03995Y03207*
X03996Y03213*
X03995Y03218*
X03991Y03222*
X03991Y03223*
Y03285*
X0399Y03288*
X03988Y03291*
X03973Y03306*
X0397Y03308*
X0397Y03308*
X0397Y03313*
X04002*
Y03368*
X03943*
X03939Y0337*
X03936Y03373*
Y03438*
X03935Y03441*
X03933Y03444*
X03926Y03451*
X03926Y03451*
X03925Y03452*
X03926Y03456*
X03927Y03457*
X03928Y03459*
X03934Y03459*
X03937Y03457*
X03941Y03456*
X03946Y03457*
X03949Y03459*
X03952Y03463*
X03952Y03467*
Y03468*
X04041*
X04045Y03469*
X04048Y03471*
X04097Y0352*
X04102Y03521*
X04106Y03524*
X0411Y03528*
X04111Y03534*
X0411Y03539*
X04106Y03543*
X04105Y03544*
X04107Y03549*
X04123*
Y03552*
X04149*
Y0352*
X04148Y03519*
X04147Y03514*
X04148Y03508*
X04149Y03507*
Y03497*
X04147Y03495*
X04135*
Y03488*
X04134Y03487*
X04133Y03483*
X04134Y03478*
X04135Y03477*
Y0347*
X04156*
Y03471*
X0416Y03474*
X04164Y03478*
X04169Y03477*
Y0347*
X04212*
Y03499*
X04211*
Y03542*
X04231Y03563*
X04291*
X04294Y03555*
X043Y03547*
X04307Y03541*
X04314Y03539*
X04313Y03534*
X04243*
Y03498*
X04357*
Y03534*
X04338*
X04337Y03539*
X04344Y03541*
X04351Y03547*
X04357Y03555*
X04361Y03563*
X04362Y03573*
X04361Y03576*
X04365Y03579*
X04369Y03578*
Y03559*
X04412*
Y03578*
Y03618*
Y03663*
X04369*
Y03653*
X04368Y03652*
X04364Y0365*
X04362Y03652*
X04361Y03661*
X04357Y0367*
X04351Y03677*
X04344Y03683*
X04343Y03683*
X04344Y03688*
X04357*
Y03722*
X04548*
Y03004*
G37*
G36*
X03896Y03655D02*
X03898Y03654D01*
X03902Y03653*
X03906Y03654*
X03907Y03654*
X0391Y0365*
X03913Y03646*
X03917Y03643*
X03923Y03641*
X03928Y03643*
X03932Y03646*
X03936Y0365*
X03936Y03651*
X03937Y03654*
X03941Y03653*
X03946Y03654*
X03948Y03655*
X03951Y03652*
X0395Y0365*
X03949Y03645*
X0395Y03641*
X03951Y03639*
X03952Y03636*
X03951Y03632*
X0395Y0363*
X03949Y03626*
X0395Y03622*
X03951Y03619*
X03952Y03616*
X03951Y03613*
X0395Y0361*
X03949Y03606*
X0395Y03602*
X03951Y036*
X03952Y03596*
X03951Y03593*
X0395Y03591*
X03949Y03586*
X0395Y03582*
X03951Y0358*
X03952Y03577*
X03951Y03573*
X0395Y03571*
X03949Y03567*
X0395Y03562*
X03951Y0356*
X03952Y03557*
X03951Y03553*
X0395Y03551*
X03949Y03547*
X0395Y03543*
X03951Y03541*
X03952Y03537*
X03951Y03534*
X0395Y03532*
X03949Y03527*
X0395Y03523*
X03952Y0352*
X03956Y03517*
X0396Y03516*
X03982*
X03986Y03517*
X03987Y03518*
X03992Y03517*
X03993Y03515*
X03996Y03511*
X04Y03508*
X04006Y03506*
X04011Y03508*
X04015Y03511*
X04019Y03515*
X0402Y03521*
X04019Y03526*
X04015Y0353*
X04012Y03533*
X04011Y03535*
X0401Y03539*
X04013Y03542*
X04014Y03548*
X04013Y03553*
X04017Y03556*
X04017*
X04017Y03556*
X04057*
X04061Y03554*
X04065Y03551*
X0407Y03551*
X0408*
Y03549*
X04086*
X04088Y03544*
X04087Y03543*
X04084Y03539*
X04083Y03534*
X04037Y03488*
X03952*
Y03489*
X03952Y03493*
X03949Y03497*
X03946Y03499*
X03941Y035*
X03937Y03499*
X03935Y03498*
X03932Y03497*
X03928Y03498*
X03926Y03499*
X03922Y035*
X03918Y03499*
X03915Y03498*
X03912Y03497*
X03909Y03498*
X03906Y03499*
X03902Y035*
X03898Y03499*
X03896Y03498*
X03892Y03497*
X03889Y03498*
X03887Y03499*
X03882Y035*
X03878Y03499*
X03876Y03498*
X03873Y03497*
X03869Y03498*
X03867Y03499*
X03863Y035*
X03858Y03499*
X03856Y03498*
X03853Y03497*
X03849Y03498*
X03847Y03499*
X03843Y035*
X03839Y03499*
X03837Y03498*
X03833Y03497*
X0383Y03498*
X03828Y03499*
X03823Y035*
X03819Y03499*
X03817Y03498*
X03813Y03497*
X0381Y03498*
X03808Y03499*
X03804Y035*
X03799Y03499*
X03797Y03498*
X03794Y03501*
X03795Y03503*
X03796Y03508*
X03795Y03512*
X03793Y03515*
X03789Y03518*
X03785Y03519*
X03779*
X03779Y03519*
X03774Y0352*
X03756*
X03752Y03525*
X03753Y03527*
X03752Y0353*
X03755Y03534*
X03756Y03535*
X03774*
X03779Y03536*
X03779Y03536*
X03785*
X03789Y03537*
X03793Y03539*
X03795Y03543*
X03796Y03547*
X03795Y03551*
X03794Y03553*
X03793Y03557*
X03794Y0356*
X03795Y03562*
X03796Y03567*
X03795Y03571*
X03794Y03573*
X03793Y03577*
X03794Y0358*
X03795Y03582*
X03796Y03586*
X03795Y03591*
X03794Y03593*
X03793Y03596*
X03794Y036*
X03795Y03602*
X03796Y03606*
X03795Y0361*
X03794Y03613*
X03793Y03616*
X03794Y03619*
X03795Y03622*
X03796Y03626*
X03795Y0363*
X03794Y03632*
X03793Y03636*
X03794Y03639*
X03795Y03641*
X03796Y03645*
X03795Y0365*
X03794Y03652*
X03797Y03655*
X03799Y03654*
X03804Y03653*
X03808Y03654*
X0381Y03655*
X03813Y03656*
X03817Y03655*
X03819Y03654*
X03823Y03653*
X03828Y03654*
X0383Y03655*
X03833Y03656*
X03837Y03655*
X03839Y03654*
X03843Y03653*
X03847Y03654*
X03849Y03655*
X03853Y03656*
X03856Y03655*
X03858Y03654*
X03863Y03653*
X03867Y03654*
X03869Y03655*
X03873Y03656*
X03876Y03655*
X03878Y03654*
X03882Y03653*
X03887Y03654*
X03889Y03655*
X03892Y03656*
X03896Y03655*
G37*
G36*
X03817Y03459D02*
X03819Y03457D01*
X03823Y03456*
X03828Y03457*
X0383Y03459*
X03833Y03459*
X03837Y03459*
X03839Y03457*
X03843Y03456*
X03845Y03457*
X03848Y03452*
X03848Y03452*
X03847Y03447*
X03848Y03441*
X03849Y03438*
Y03383*
X03908*
Y03436*
X03913Y03438*
X03913*
X03913Y03438*
X03918Y03434*
Y0337*
X03918Y03366*
X0392Y03363*
X03943Y0334*
Y03313*
X03941Y03309*
X03865*
X03838Y03335*
Y03413*
X03838Y03417*
X03836Y0342*
X03804Y03451*
X03806Y03457*
X03808Y03457*
X0381Y03459*
X03813Y03459*
X03817Y03459*
G37*
G36*
X02765Y03266D02*
X02777D01*
Y03259*
X02738Y0322*
X02728Y0321*
X02726Y03207*
X02725Y03204*
Y03179*
X02726Y03176*
X02728Y03173*
X02775Y03125*
X02778Y03123*
X02781Y03123*
X02827*
X0284Y03109*
X02838Y03105*
X02827*
Y03091*
X02816*
X02808Y03099*
X0281Y03102*
X02795Y03117*
X02777Y03099*
X02792Y03084*
X02795Y03087*
X02805Y03077*
X02805Y03073*
X02804Y03071*
X02804Y03071*
X02799Y03072*
X02793Y03071*
X02792Y0307*
X02787Y03071*
X02785Y03075*
X02579Y03281*
Y03299*
X02584Y03302*
X02585Y03301*
X02591Y03299*
X02596Y03301*
X026Y03304*
X02603Y03307*
X02608Y03304*
X02613Y03303*
X02618Y03304*
X02623Y03307*
X02624*
X02625Y03307*
X02629Y03304*
X02635Y03302*
X0264Y03304*
X02644Y03307*
X02645Y03308*
X02765*
Y03266*
G37*
G36*
X02802Y03261D02*
X02802Y0326D01*
Y03213*
X02795Y03205*
X02793Y03202*
X02791Y032*
X02791Y03197*
Y03182*
X02791Y03178*
X02793Y03175*
X02818Y03151*
X0282Y03149*
X02824Y03149*
X02826Y03146*
X02824Y03141*
X02785*
X02743Y03183*
Y032*
X02751Y03208*
X02792Y03249*
X02794Y03252*
X02795Y03255*
Y03263*
X02799Y03264*
X02802Y03261*
G37*
G36*
X03739Y03245D02*
X0374Y03241D01*
X03738Y03238*
X03736Y03232*
X03738Y03227*
X03741Y03222*
X03745Y03219*
X03751Y03218*
X03756Y03219*
X03758Y03221*
X03786*
X03787Y03217*
Y03207*
X03794*
Y03139*
X0379Y03136*
X03786Y03137*
Y03151*
X03785Y03155*
X03783Y03157*
X0377Y03171*
X03767Y03173*
X03763Y03174*
X03737*
Y03198*
X03735*
Y03206*
X03734Y03209*
X03732Y03212*
X03731Y03212*
X03732Y03214*
X03731Y03219*
X03727Y03223*
X03723Y03227*
X03718Y03228*
X03712Y03227*
X03708Y03223*
X03703Y03225*
Y03241*
X03708Y03246*
X03738*
X03739Y03245*
G37*
%LNvapeix_mini_pcb-2*%
%LPC*%
G36*
X0208Y03713D02*
X02074Y03712D01*
X0207Y03708*
X02067Y03704*
X02065Y03699*
X02067Y03693*
X02061Y03691*
X02057Y0369*
X02054Y03693*
X02053Y03694*
X02049Y03698*
X02044Y03699*
X02038Y03698*
X02034Y03694*
X02031Y0369*
X02029Y03685*
X02031Y03679*
X02034Y03675*
X02038Y03672*
X02039Y03669*
X02037Y03663*
X02036Y03663*
X02031Y03664*
X02025Y03663*
X02021Y0366*
X02018Y03655*
X02016Y0365*
X02018Y03644*
X02021Y0364*
X02025Y03637*
X02031Y03636*
X02036Y03637*
X02037Y03637*
X0204Y03628*
X02036Y03625*
X02033Y03621*
X02031Y03616*
X02033Y0361*
X02036Y03606*
X0204Y03603*
X02046Y03601*
X02051Y03603*
X02055Y03606*
X02058Y0361*
X02066Y03606*
X02065Y03602*
X02067Y03596*
X0207Y03592*
X02074Y03589*
X0208Y03587*
X02085Y03589*
X02089Y03592*
X02093Y03596*
X02094Y03601*
X02094Y03602*
X02098Y03603*
X02099Y03603*
X02101Y03601*
X02105Y03598*
X02104Y03592*
X02105Y03587*
X02106Y03586*
X02108Y03581*
X02106Y03578*
X02105Y03576*
X02104Y03571*
X02105Y03565*
X02108Y03561*
X02112Y03558*
X02118Y03557*
X02123Y03558*
X02127Y03561*
X0213Y03564*
X02143*
Y03563*
X02178*
Y03602*
Y03643*
X02177*
X02174Y03647*
X02175Y03649*
X02174Y03654*
X02176Y03659*
X02185*
Y0365*
X02325*
Y03686*
X02272*
X02269Y03689*
X02268Y03694*
X02265Y03698*
X02261Y03702*
X02255Y03703*
X0225Y03702*
X02245Y03698*
X02242Y03694*
X02241Y03689*
X02239Y03686*
X02232*
X0223Y03689*
X02229Y03694*
X02226Y03698*
X02221Y03702*
X02216Y03703*
X0221Y03702*
X02206Y03698*
X02203Y03694*
X02202Y03689*
X02199Y03686*
X02185*
Y03677*
X02165*
X02161Y03676*
X02159Y03674*
X02154Y0367*
X02152Y03667*
X02152Y03664*
Y03659*
X02151Y03658*
X02148Y03654*
X02147Y03649*
X02145Y03648*
X0214Y0365*
X0214Y03653*
X02136Y03657*
X02132Y03661*
X02127Y03662*
X02125Y03661*
X02124Y03662*
X0212Y03671*
X02121Y03673*
X02125Y03676*
X02129Y0368*
X0213Y03686*
X02129Y03691*
X02125Y03695*
X02121Y03699*
X02116Y037*
X0211Y03699*
X02106Y03695*
X02103Y03691*
X02101Y0369*
X02093Y03694*
X02094Y03699*
X02093Y03704*
X02089Y03708*
X02085Y03712*
X0208Y03713*
G37*
G36*
X03086Y0369D02*
X0308Y03689D01*
X03076Y03685*
X03073Y03681*
X03071Y03676*
X03073Y0367*
X03076Y03666*
X0308Y03663*
X03086Y03662*
X03091Y03663*
X03095Y03666*
X03099Y0367*
X031Y03676*
X03099Y03681*
X03095Y03685*
X03091Y03689*
X03086Y0369*
G37*
G36*
X03009D02*
X03003Y03689D01*
X02999Y03685*
X02996Y03681*
X02995Y03676*
X02996Y0367*
X02999Y03666*
X03003Y03663*
X03009Y03662*
X03014Y03663*
X03018Y03666*
X03022Y0367*
X03023Y03676*
X03022Y03681*
X03018Y03685*
X03014Y03689*
X03009Y0369*
G37*
G36*
X03449Y03689D02*
X03443Y03688D01*
X03439Y03684*
X03436Y0368*
X03435Y03675*
X03436Y03669*
X03439Y03665*
X03443Y03662*
X03449Y0366*
X03454Y03662*
X03458Y03665*
X03462Y03669*
X03463Y03675*
X03462Y0368*
X03458Y03684*
X03454Y03688*
X03449Y03689*
G37*
G36*
Y03654D02*
X03443Y03653D01*
X03439Y03649*
X03438Y03649*
X03432Y03648*
X03428Y03652*
X03423Y03653*
X03417Y03652*
X03413Y03648*
X0341Y03644*
X03409Y03639*
X0341Y03633*
X03413Y03629*
X03413Y03628*
X03415Y03623*
X03414Y03622*
X03412Y03619*
X0341Y03614*
X03412Y03608*
X03415Y03604*
X03419Y03601*
X03421Y03595*
X0342Y03592*
X03421Y03589*
X03419Y03584*
X03418Y03583*
X03415Y0358*
X03412Y03576*
X0341Y03571*
X03412Y03565*
X03415Y03561*
X03419Y03558*
X03425Y03557*
X0343Y03558*
X03433Y0356*
X03437Y0356*
X0344Y0356*
X03443Y03558*
X03449Y03557*
X03454Y03558*
X03456Y03559*
X0346Y0356*
X03464Y03559*
X03466Y03558*
X03472Y03557*
X03477Y03558*
X03481Y03561*
X03485Y03565*
X03486Y03571*
X03485Y03576*
X03481Y0358*
X03477Y03584*
X03476Y03584*
X03474Y03588*
X03475Y03594*
X03474Y03596*
X03476Y03601*
X03477Y03602*
X0348Y03605*
X03484Y03609*
X03485Y03615*
X03484Y0362*
X03481Y03624*
X03479Y03626*
Y0363*
X03483Y03634*
X03484Y0364*
X03483Y03645*
X03479Y03649*
X03475Y03652*
X0347Y03654*
X03464Y03652*
X03463Y03652*
X03459Y0365*
X03455Y03652*
X03454Y03653*
X03449Y03654*
G37*
G36*
X03144Y03607D02*
X03138Y03606D01*
X03134Y03602*
X03131Y03598*
X03129Y03593*
X0313Y03589*
X03126Y03586*
X03123Y03582*
X03121Y03577*
X03123Y03571*
X03126Y03567*
X0313Y03564*
X03136Y03562*
X03141Y03564*
X03145Y03567*
X03149Y03571*
X0315Y03577*
X03149Y0358*
X03153Y03583*
X03156Y03587*
X03158Y03593*
X03156Y03598*
X03153Y03602*
X03149Y03606*
X03144Y03607*
G37*
G36*
X02178Y03545D02*
X02143D01*
Y03504*
X02178*
Y03523*
Y03545*
G37*
G36*
X02568Y03442D02*
X02562Y03441D01*
X02558Y03437*
X02557Y03436*
X02551*
X02549Y03437*
X02545Y03441*
X0254Y03442*
X02534Y03441*
X0253Y03437*
X02527Y03433*
X02525Y03428*
X02527Y03422*
X02529Y03419*
X02529Y03416*
X02529Y03412*
X02527Y03409*
X02525Y03404*
X02527Y03398*
X0253Y03394*
X02534Y03391*
X0254Y0339*
X02544Y03391*
X02545Y0339*
X02549Y03387*
X02555Y03386*
X0256Y03387*
X02564Y0339*
X02565Y0339*
X02569Y0339*
X02574Y03391*
X02578Y03394*
X02582Y03398*
X02583Y03404*
X02582Y03409*
X02579Y03413*
X02577Y03418*
X02581Y03422*
X02582Y03428*
X02581Y03433*
X02577Y03437*
X02573Y03441*
X02568Y03442*
G37*
G36*
X04399Y0344D02*
X04389Y03438D01*
X04381Y03435*
X04377Y03432*
X04376Y03432*
X04372Y03436*
X04367Y03437*
X04361Y03436*
X04357Y03432*
X04354Y03428*
X04353Y03423*
X04353Y03421*
X0435Y03416*
X04346Y03412*
X04343Y03408*
X04341Y03403*
X04343Y03397*
X04346Y03393*
X0435Y0339*
X04353Y03389*
X04357Y03384*
X04356Y03384*
X04358Y03378*
X04361Y03374*
X04365Y03371*
X04371Y0337*
X04376Y03371*
X0438Y03373*
X04381Y03373*
X04389Y03369*
X04399Y03368*
X04408Y03369*
X04416Y03373*
X04417Y03374*
X04418*
X04422Y03371*
X04428Y0337*
X04433Y03371*
X04437Y03374*
X04441Y03378*
X04442Y03384*
X04441Y03384*
X04446Y03389*
X04447Y03389*
X04452Y0339*
X04456Y03393*
X0446Y03397*
X04461Y03403*
X0446Y03408*
X04456Y03412*
X04452Y03416*
X04447Y03417*
X04446Y03417*
X04443Y03421*
X04444Y03425*
X04443Y0343*
X04439Y03434*
X04435Y03438*
X0443Y03439*
X04424Y03438*
X0442Y03434*
X04417Y03434*
X04416Y03435*
X04408Y03438*
X04399Y0344*
G37*
G36*
X02144Y03475D02*
X02137Y03474D01*
X02131Y03472*
X02125Y03468*
X02122Y03464*
X02101*
X02095Y03463*
X02091Y03459*
X02079Y03448*
X02076Y03444*
X02075Y03438*
Y03399*
X02076Y03394*
X02079Y03391*
Y03386*
X02084*
X02084Y03386*
X02089Y03385*
X02095Y03386*
X02095Y03386*
X021*
Y03391*
X02102Y03394*
X02103Y03399*
Y03433*
X02106Y03436*
X02122*
X02125Y03431*
X02131Y03427*
X02137Y03425*
X02144Y03424*
X0215Y03425*
X02156Y03427*
X02162Y03431*
X02166Y03437*
X02168Y03443*
X02169Y0345*
X02168Y03456*
X02166Y03462*
X02162Y03468*
X02156Y03472*
X0215Y03474*
X02144Y03475*
G37*
G36*
X0214Y03413D02*
X02134Y03412D01*
X0213Y03408*
X02127Y03404*
X02126Y03399*
X02127Y03393*
X0213Y03389*
X02131Y03387*
Y03383*
X02128Y03379*
X02127Y03374*
X02128Y03368*
X02131Y03364*
X02135Y03361*
X02141Y0336*
X02146Y03361*
X0215Y03364*
X02154Y03368*
X02155Y03374*
X02154Y03379*
X02151Y03383*
X02149Y03385*
Y03389*
X02153Y03393*
X02154Y03399*
X02153Y03404*
X02149Y03408*
X02145Y03412*
X0214Y03413*
G37*
G36*
X04399Y03361D02*
X04389Y0336D01*
X04381Y03356*
X04373Y0335*
X04368Y03343*
X04364Y03334*
X04363Y03325*
X04364Y03316*
X04368Y03307*
X04373Y033*
X04381Y03294*
X04389Y03291*
X04399Y03289*
X04408Y03291*
X04416Y03294*
X04424Y033*
X0443Y03307*
X04433Y03316*
X04434Y03325*
X04433Y03334*
X0443Y03343*
X04424Y0335*
X04416Y03356*
X04408Y0336*
X04399Y03361*
G37*
G36*
X03125Y03315D02*
X03119Y03314D01*
X03115Y0331*
X03112Y03306*
X0311Y03301*
X03112Y03295*
X03115Y03291*
X03119Y03288*
X03125Y03287*
X0313Y03288*
X03134Y03291*
X03138Y03295*
X03139Y03301*
X03138Y03306*
X03134Y0331*
X0313Y03314*
X03125Y03315*
G37*
G36*
X04235Y03306D02*
D01*
X04209*
X04205Y03305*
X04194*
Y03267*
X04192Y03263*
X0419Y03258*
X04192Y03252*
X04194Y03248*
X04194Y03245*
X04193Y03243*
X04191Y03242*
X04186Y03239*
X04183Y03235*
X04182Y03229*
X04183Y03224*
X04185Y03221*
X04187Y03217*
Y03194*
X04163*
X0416Y03197*
X04156Y03201*
X04151Y03202*
X04145Y03201*
X04141Y03197*
X04138Y03193*
X04137Y03188*
X04138Y03182*
X04141Y03178*
X04141Y03177*
X0414Y03172*
X04136Y03172*
X04132Y03168*
X04129Y03164*
X04128Y03159*
X04129Y03153*
X04132Y03149*
X04136Y03146*
X04142Y03144*
X04147Y03146*
X04148Y03146*
X04153Y03144*
X04168*
X0417Y03142*
X04172Y03136*
X04175Y03132*
X04179Y03129*
X04185Y03127*
X0419Y03129*
X04192Y0313*
X04197Y03128*
X04197Y03127*
Y03126*
Y03097*
X0422*
Y03092*
X04219Y03092*
X04211Y03088*
X04203Y03082*
X04198Y03075*
X04194Y03066*
X04193Y03057*
X04194Y03048*
X04198Y03039*
X04203Y03032*
X04211Y03026*
X04219Y03023*
X04229Y03021*
X04238Y03023*
X04246Y03026*
X04254Y03032*
X0426Y03039*
X04263Y03048*
X04264Y03057*
X04263Y03066*
X0426Y03075*
X04254Y03082*
X04246Y03088*
X04238Y03092*
X04238Y03092*
Y03097*
X0424*
Y03126*
X04218*
Y03133*
X04218Y03134*
X04222Y03138*
X04223Y03144*
X04222Y03149*
X04218Y03153*
X04214Y03157*
X04209Y03158*
X04203Y03157*
X04201Y03155*
X04196Y03158*
Y03171*
Y03173*
X042Y03176*
X04292*
X04315Y03153*
Y03126*
X04313*
Y03097*
X04336*
Y03092*
X04335Y03092*
X04327Y03088*
X04319Y03082*
X04314Y03075*
X0431Y03066*
X04309Y03057*
X0431Y03048*
X04314Y03039*
X04319Y03032*
X04327Y03026*
X04335Y03023*
X04345Y03021*
X04354Y03023*
X04362Y03026*
X0437Y03032*
X04376Y03039*
X04379Y03048*
X0438Y03057*
X04379Y03066*
X04376Y03075*
X0437Y03082*
X04362Y03088*
X04354Y03092*
X04354Y03092*
Y03097*
X04356*
Y03126*
X04334*
Y03157*
X04333Y0316*
X04331Y03163*
X04302Y03192*
X04299Y03194*
X04296Y03194*
X0423*
Y03217*
X04231Y03219*
X04232Y0322*
X04233Y03226*
X04232Y03231*
X04228Y03235*
X04224Y03239*
X04219Y0324*
X04213Y03239*
X04211Y03237*
X04208Y03239*
X04209Y03244*
X0421Y03245*
X04214Y03248*
X04218Y03252*
X04219Y03258*
X04218Y03258*
X04222Y03262*
X04223*
Y03282*
X04235*
X04236Y03281*
X04255*
X04258Y03277*
X04262Y03274*
X04268Y03273*
X04273Y03274*
X04277Y03277*
X04281Y03281*
X04282Y03287*
X04281Y03292*
X04277Y03297*
X04273Y033*
X04271Y033*
X04269Y03302*
X04266Y03305*
X04261Y03305*
X04236*
X04235Y03306*
G37*
G36*
X02368Y03458D02*
X02349Y03456D01*
X02331Y03451*
X02315Y03442*
X023Y0343*
X02289Y03416*
X0228Y03399*
X02274Y03382*
X02273Y03363*
X02274Y03345*
X0228Y03327*
X02289Y0331*
X023Y03296*
X02315Y03284*
X02331Y03275*
X02349Y0327*
X02368Y03268*
X02386Y0327*
X02404Y03275*
X0242Y03284*
X02435Y03296*
X02446Y0331*
X02455Y03327*
X02461Y03345*
X02462Y03363*
X02461Y03382*
X02455Y03399*
X02446Y03416*
X02435Y0343*
X0242Y03442*
X02404Y03451*
X02386Y03456*
X02368Y03458*
G37*
G36*
X03209Y03242D02*
X03176D01*
Y03236*
X0317*
X0317Y03237*
X03165Y03238*
X03159Y03237*
X03155Y03233*
X03152Y03229*
X0315Y03224*
X03152Y03218*
X03155Y03214*
X03159Y03211*
X03165Y03209*
X0317Y03211*
X03171Y03211*
X03176Y03209*
Y03207*
Y03203*
Y03202*
Y03167*
X03209*
Y03167*
X0321Y03168*
X03214Y03171*
X03218Y0317*
X03223Y03172*
X03227Y03175*
X03231Y03179*
X03232Y03185*
X03231Y0319*
X03227Y03194*
X03223Y03198*
X03218Y03199*
X03214Y03198*
X0321Y03201*
X03209Y03202*
Y03203*
Y03207*
Y03208*
Y03242*
G37*
G36*
X04399Y03282D02*
X04389Y03281D01*
X04381Y03277*
X04373Y03272*
X04368Y03264*
X04364Y03256*
X04363Y03246*
X04364Y03237*
X04368Y03228*
X04373Y03221*
X04381Y03215*
X04389Y03212*
X04399Y03211*
X04408Y03212*
X04416Y03215*
X04424Y03221*
X0443Y03228*
X04433Y03237*
X04434Y03246*
X04433Y03256*
X0443Y03264*
X04424Y03272*
X04416Y03277*
X04408Y03281*
X04399Y03282*
G37*
G36*
X0447Y03142D02*
X04464Y03141D01*
X0446Y03137*
X04457Y03133*
X04455Y03128*
X04457Y03122*
X04456Y03122*
X04448Y03118*
X04447Y03119*
X04443Y03123*
X04439Y03127*
X04434Y03128*
X04428Y03127*
X04424Y03123*
X04421Y03119*
X0442Y03114*
X04421Y03108*
X04424Y03104*
X04428Y03101*
X04429Y03099*
X04427Y03093*
X04426Y03093*
X04421Y03094*
X04415Y03093*
X04411Y03089*
X04408Y03085*
X04406Y0308*
X04408Y03074*
X04411Y0307*
X04415Y03067*
X04421Y03065*
X04425Y03066*
X0443Y03055*
X0443Y03053*
X04428Y03051*
X04425Y03047*
X04424Y03042*
X04425Y03036*
X04428Y03032*
X04432Y03029*
X04438Y03028*
X04443Y03029*
X04447Y03032*
X04451Y03036*
X04452Y03037*
X04457Y03034*
X04457Y0303*
X04458Y03024*
X04461Y0302*
X04465Y03017*
X04471Y03015*
X04476Y03017*
X0448Y0302*
X04484Y03024*
X04485Y0303*
X04484Y03035*
Y03035*
X04489Y03037*
X0449Y03037*
X04493Y03033*
X04497Y0303*
X04503Y03028*
X04508Y0303*
X04512Y03033*
X04516Y03037*
X04517Y03043*
X04516Y03048*
X04512Y03052*
X04509Y03055*
X04509Y03055*
X04514Y03066*
X04519Y03065*
X04524Y03067*
X04528Y0307*
X04532Y03074*
X04533Y0308*
X04532Y03085*
X04528Y03089*
X04524Y03093*
X04519Y03094*
X04513Y03093*
X04513Y03093*
X0451Y03099*
X04511Y03101*
X04515Y03104*
X04519Y03108*
X0452Y03114*
X04519Y03119*
X04515Y03123*
X04511Y03127*
X04506Y03128*
X045Y03127*
X04496Y03123*
X04493Y03119*
X04491Y03118*
X04483Y03122*
X04483Y03122*
X04484Y03128*
X04483Y03133*
X04479Y03137*
X04475Y03141*
X0447Y03142*
G37*
G36*
X02972Y03171D02*
X02966Y0317D01*
X02964Y03169*
X02939*
Y03126*
X02945*
Y03119*
X02944Y03118*
X02941Y03114*
X02939Y03109*
X02941Y03103*
X02944Y03099*
X02948Y03096*
X02954Y03094*
X02959Y03096*
X02963Y03099*
X02967Y03103*
X02968Y03109*
X02967Y03114*
X02963Y03118*
X02963Y03119*
Y03126*
X02968*
Y0314*
X02972Y03143*
X02972*
X02972Y03143*
X02976Y0314*
Y03126*
X02982*
Y03119*
X02981Y03118*
X02978Y03114*
X02976Y03109*
X02978Y03103*
X02981Y03099*
X02985Y03096*
X02991Y03094*
X02996Y03096*
X03Y03099*
X03004Y03103*
X03005Y03109*
X03004Y03114*
X03Y03118*
X03Y03119*
Y03126*
X03005*
Y03169*
X02979*
X02977Y0317*
X02972Y03171*
G37*
G36*
X03405Y03118D02*
X03399Y03117D01*
X03395Y03114*
X03392Y03109*
X0339Y03104*
X03392Y03099*
X03393Y03097*
X03389Y03093*
X03387Y03095*
X03378Y03097*
X03368Y03095*
X03361Y0309*
X03355Y03082*
X03353Y03073*
X03355Y03063*
X03361Y03056*
X03368Y0305*
X03378Y03048*
X03386Y0305*
X03387Y0305*
X03391Y03047*
X03392Y03045*
X03395Y03041*
X03399Y03038*
X03405Y03037*
X0341Y03038*
X03414Y03041*
X03418Y03045*
X03419Y03051*
X03418Y03056*
X03414Y03061*
Y03066*
X03418Y0307*
X03419Y03076*
X03418Y03081*
X03414Y03085*
X03413Y03087*
Y03093*
X03414Y03094*
X03418Y03099*
X03419Y03104*
X03418Y03109*
X03414Y03114*
X0341Y03117*
X03405Y03118*
G37*
G36*
X04023Y03094D02*
X04017Y03093D01*
X04013Y03089*
X04012Y03088*
X0401Y03088*
X04002Y03092*
X03993Y03093*
X03983Y03092*
X03975Y03088*
X03971Y03089*
X0397Y03089*
X03966Y03093*
X03961Y03094*
X03955Y03093*
X03951Y03089*
X03948Y03085*
X03946Y0308*
X03948Y03074*
X03948Y03074*
X03947Y03069*
X03943Y03065*
X0394Y03061*
X03939Y03056*
X0394Y0305*
X03943Y03046*
X03947Y03043*
X03949Y03042*
X03952Y03037*
X0395Y03032*
X03952Y03026*
X03955Y03022*
X03959Y03019*
X03965Y03018*
X0397Y03019*
X03974Y03022*
X03977Y03025*
X03983Y03023*
X03993Y03021*
X04002Y03023*
X04008Y03025*
X0401Y03022*
X04014Y03019*
X0402Y03018*
X04025Y03019*
X04029Y03022*
X04033Y03026*
X04034Y03032*
X04033Y03037*
X04035Y03042*
X04037Y03043*
X04041Y03046*
X04045Y0305*
X04046Y03056*
X04045Y03061*
X04041Y03065*
X04037Y03068*
X04037Y03069*
X04035Y03074*
X04036Y03074*
X04037Y0308*
X04036Y03085*
X04032Y03089*
X04028Y03093*
X04023Y03094*
G37*
G36*
X02552Y03171D02*
X02546Y0317D01*
X02542Y03166*
X02539Y03162*
X02538Y03157*
X02538Y03155*
X02538Y03151*
X02534Y0315*
X02532Y0315*
X02528Y03146*
X02525Y03142*
X02524Y03137*
X02525Y03131*
X02528Y03127*
X02532Y03124*
X02534Y03123*
X02538Y0312*
X02539Y03118*
X0254Y03114*
X0254Y03113*
X02541Y03107*
X02538Y03103*
X02537Y03098*
X02538Y03092*
X02541Y03088*
X02545Y03085*
X02551Y03084*
X02556Y03085*
X0256Y03088*
X02564Y03092*
X02565Y03098*
X02564Y03103*
X02563Y03104*
X02562Y0311*
X02566Y03114*
X02567Y0312*
X02566Y03125*
X02562Y03129*
X02558Y03133*
X02556Y03133*
X02552Y03136*
X02551Y03138*
X02552Y03142*
X02555Y03143*
X02557Y03144*
X02561Y03147*
X02565Y03151*
X02566Y03157*
X02565Y03162*
X02561Y03166*
X02557Y0317*
X02552Y03171*
G37*
G36*
X02654Y0311D02*
X02639Y03095D01*
X02642Y03092*
X02632Y03083*
X0263Y03085*
X02625Y03086*
X02619Y03085*
X02615Y03081*
X02612Y03077*
X0261Y03072*
X02609Y0307*
X02606Y03068*
X02601Y03068*
X02597Y03064*
X02594Y0306*
X02593Y03055*
X02594Y03049*
X02597Y03045*
X02601Y03042*
X02607Y03041*
X02612Y03042*
X02616Y03045*
X02617Y03046*
X0263*
X02632Y03041*
X02631Y0304*
X02628Y03035*
X02627Y0303*
X02628Y03024*
X02631Y0302*
X02635Y03017*
X02641Y03016*
X02646Y03017*
X0265Y0302*
X02652Y03022*
X02654Y03024*
X02659Y03026*
X02661Y03025*
X02666Y03027*
X0267Y0303*
X02674Y03034*
X02675Y0304*
X02674Y03045*
X0267Y03049*
X02666Y03053*
X02664Y03053*
X02662Y03058*
X02669Y03066*
X02672Y03063*
X02687Y03078*
X02669Y03096*
X02669Y03096*
X02654Y0311*
G37*
G36*
X02586Y03104D02*
X0258Y03103D01*
X02576Y03099*
X02573Y03095*
X02571Y0309*
X02573Y03084*
X02576Y0308*
X0258Y03077*
X02586Y03075*
X02591Y03077*
X02595Y0308*
X02599Y03084*
X026Y0309*
X02599Y03095*
X02595Y03099*
X02591Y03103*
X02586Y03104*
G37*
G36*
X02712Y03053D02*
X02706Y03052D01*
X02702Y03049*
X02699Y03045*
X02698Y03039*
X02699Y03034*
X02702Y0303*
X02706Y03026*
X02712Y03025*
X02717Y03026*
X02722Y0303*
X02725Y03034*
X02726Y03039*
X02725Y03045*
X02722Y03049*
X02717Y03052*
X02712Y03053*
G37*
G36*
X04089Y03148D02*
X04083Y03147D01*
X04079Y03143*
X04076Y03139*
X04075Y03134*
X04076Y03128*
X04077Y03126*
Y03097*
X041*
Y03092*
X04099Y03092*
X04091Y03088*
X04083Y03082*
X04078Y03075*
X04074Y03066*
X04073Y03057*
X04074Y03048*
X04078Y03039*
X04083Y03032*
X04091Y03026*
X04099Y03023*
X04109Y03021*
X04118Y03023*
X04126Y03026*
X04134Y03032*
X0414Y03039*
X04143Y03048*
X04144Y03057*
X04143Y03066*
X0414Y03075*
X04134Y03082*
X04126Y03088*
X04118Y03092*
X04118Y03092*
Y03097*
X0412*
Y03126*
X04106*
X04102Y03131*
X04103Y03134*
X04102Y03139*
X04098Y03143*
X04094Y03147*
X04089Y03148*
G37*
G36*
X03528Y03093D02*
X03518Y03092D01*
X0351Y03088*
X03502Y03082*
X03497Y03075*
X03493Y03066*
X03492Y03057*
X03493Y03048*
X03497Y03039*
X03502Y03032*
X0351Y03026*
X03518Y03023*
X03528Y03021*
X03537Y03023*
X03545Y03026*
X03553Y03032*
X03559Y03039*
X03562Y03048*
X03563Y03057*
X03562Y03066*
X03559Y03075*
X03553Y03082*
X03545Y03088*
X03537Y03092*
X03528Y03093*
G37*
G36*
X03113Y03196D02*
X03022D01*
Y03141*
X03064*
Y03129*
X03026*
Y03018*
X03137*
Y03129*
X03097*
Y03141*
X03113*
Y03196*
G37*
G36*
X03164Y0319D02*
X03121D01*
Y03147*
X03147*
X03159Y03135*
Y03095*
X03159Y0309*
X03162Y03086*
X03185Y03063*
X03189Y0306*
X03194Y0306*
X03208*
Y03016*
X03319*
Y03127*
X03208*
Y03084*
X03199*
X03183Y031*
Y0314*
X03182Y03145*
X03179Y03149*
X03164Y03164*
Y0319*
G37*
G36*
X02934Y0306D02*
X02884D01*
Y03014*
X02934*
Y03017*
X02957*
Y03039*
X0294*
X02936Y03043*
X02934Y03045*
Y0306*
G37*
%LNvapeix_mini_pcb-3*%
%LPD*%
G54D12*
X03584Y03216D03*
X03568D03*
X03537Y03259D03*
X03553D03*
G54D13*
X03576Y03247D03*
X03544Y0323D03*
G54D14*
X02144Y0345D03*
X02145Y03258D03*
G54D15*
X03068Y03169D03*
G54D16*
X03142Y03169D03*
G54D20*
X03548Y03179D03*
X03568D03*
X04198Y03203D03*
X04218D03*
X04185Y03159D03*
X04165D03*
X04345Y03112D03*
X04325D03*
X04229D03*
X04209D03*
X04109D03*
X04089D03*
X03552Y03294D03*
X03572D03*
X03284Y03233D03*
X03264D03*
X04112Y03597D03*
X04092D03*
X04201Y03485D03*
X04181D03*
X04201Y0369D03*
X04181D03*
X04112Y03564D03*
X04092D03*
X03485Y03183D03*
X03505D03*
X03726D03*
X03706D03*
X03875Y03147D03*
X03895D03*
X03563Y03145D03*
X03543D03*
X03483Y03144D03*
X03503D03*
X03725Y03147D03*
X03705D03*
X03643Y03112D03*
X03623D03*
X03875D03*
X03895D03*
X03757D03*
X03777D03*
X03798Y0329D03*
X03818D03*
X03856Y03247D03*
X03876D03*
G54D21*
X03772Y03215D03*
Y03231D03*
X03815Y03263D03*
Y03247D03*
G54D22*
X03803Y03223D03*
X03786Y03255D03*
G54D26*
X03233Y03429D03*
Y03448D03*
X04236Y03274D03*
Y03293D03*
X02945Y03028D03*
Y03047D03*
G54D27*
X03206Y03449D03*
Y03429D03*
X04209Y03294D03*
Y03274D03*
X02954Y03137D03*
Y03157D03*
X02991Y03138D03*
Y03158D03*
G54D40*
X0207Y03399D03*
X02089D03*
X0207Y03426D03*
X02089D03*
X02411Y03588D03*
X02392D03*
X02411Y03563D03*
X02392D03*
X02411Y03536D03*
X02392D03*
X04046Y03596D03*
X04027D03*
X0418Y03566D03*
X04161D03*
X0418Y03548D03*
X04161D03*
X04179Y03607D03*
X0416D03*
X04179Y03627D03*
X0416D03*
X04179Y03647D03*
X0416D03*
X04046Y03569D03*
X04027D03*
X0418Y03529D03*
X04161D03*
X04145Y03483D03*
X04126D03*
G54D41*
X02671Y0308D03*
X02685Y03094D03*
X02656D03*
X0267Y03108D03*
X02845Y03203D03*
X02859Y03217D03*
X0283Y03219D03*
X02844Y03233D03*
G54D47*
X02778Y03037D02*
Y03068D01*
X02569Y03277D02*
X02778Y03068D01*
X02569Y03277D02*
Y03315D01*
X04181Y03625D02*
X04269D01*
X0418Y03579D02*
X04199Y03598D01*
X04274*
X04227Y03573D02*
X04326D01*
X02945Y03047D02*
Y03061D01*
D01*
X04181Y03672D02*
Y0369D01*
X0418Y03671D02*
X04181Y03672D01*
X0418Y03647D02*
Y03671D01*
X04179Y03607D02*
Y03627D01*
Y03647*
X0418Y03548D02*
Y03566D01*
Y03529D02*
Y03548D01*
X04181Y03485D02*
Y03529D01*
X0434Y03573D02*
X04359Y03591D01*
X04391*
X04367Y03631D02*
X04391D01*
X04347Y03652D02*
X04367Y03631D01*
X04213Y03652D02*
X04326D01*
X04201Y03664D02*
X04213Y03652D01*
X04201Y03664D02*
Y0369D01*
Y03485D02*
Y03547D01*
X04227Y03573*
X03782Y0329D02*
X03798D01*
X03774Y03282D02*
X03782Y0329D01*
X03837Y03263D02*
X03838Y03264D01*
X03815Y03263D02*
X03837D01*
X03761Y03215D02*
X03772D01*
X03774Y03527D02*
X03823D01*
X03825Y03529*
X02938Y03082D02*
X02945Y03076D01*
Y03061D02*
Y03076D01*
X02756Y03123D02*
X02771D01*
X0278Y03115*
X02834Y03158D02*
Y03159D01*
X0283Y03218D02*
Y03219D01*
Y03218D02*
X02845Y03203D01*
X0286Y03188*
X02861*
X02823Y0319D02*
X02832D01*
X02845Y03203*
X02858Y03037D02*
X02903Y03082D01*
X02849Y03037D02*
X02852D01*
X02906Y03082D02*
X02909D01*
X02938*
X04009Y03444D02*
X0411D01*
X04126Y0346*
Y03483*
X03939Y03508D02*
X03971D01*
X03941Y03478D02*
X04041D01*
X04097Y03534*
X03133Y03417D02*
X03193D01*
X03206Y03429*
X0376Y03214D02*
X03761Y03215D01*
X03954Y03419D02*
X03979Y03444D01*
X04009*
X0418Y03566D02*
Y03579D01*
X03918Y0353D02*
X03939Y03508D01*
G54D48*
X03083Y03423D02*
X03111Y0345D01*
X03169D02*
X03182Y03438D01*
X03111Y0345D02*
X03169D01*
X03982Y03201D02*
Y03213D01*
X03973Y03192D02*
X03982Y03201D01*
X03877Y03192D02*
X03973D01*
X03865Y03205D02*
X03877Y03192D01*
X02645Y03404D02*
X03107D01*
X04179Y03627D02*
X04181Y03625D01*
X03433Y03166D02*
X03535D01*
X03415Y03184D02*
X03433Y03166D01*
X03415Y03184D02*
Y03218D01*
X02947Y03423D02*
X03083D01*
X02932Y03438D02*
X02947Y03423D01*
X03316Y03378D02*
X0335Y03412D01*
X03311Y0339D02*
X03345Y03423D01*
X0311Y03402D02*
X03306D01*
X03105Y0339D02*
X03311D01*
X031Y03378D02*
X03316D01*
X03097Y03381D02*
X031Y03378D01*
X02889Y03381D02*
X03097D01*
X03102Y03392D02*
X03105Y0339D01*
X02884Y03392D02*
X03102D01*
X03107Y03404D02*
X0311Y03402D01*
X02591Y0335D02*
X02645Y03404D01*
X02591Y03314D02*
Y0335D01*
X02118Y03592D02*
X02159D01*
X0216Y03594*
X02161Y03593*
X04089Y03112D02*
Y03134D01*
X03952Y03345D02*
X03984D01*
X03927Y0337D02*
X03952Y03345D01*
X03819Y03288D02*
X03878D01*
X03818Y0329D02*
X03819Y03288D01*
X03878D02*
X03894Y03272D01*
X03967Y033D02*
X03982Y03285D01*
X03861Y033D02*
X03967D01*
X03829Y03332D02*
X03861Y033D01*
X02852Y03111D02*
X02895D01*
X0283Y03132D02*
X02852Y03111D01*
X02895D02*
X02908Y03124D01*
X02781Y03132D02*
X0283D01*
X02734Y03179D02*
X02781Y03132D01*
X02734Y03179D02*
Y03204D01*
X02908Y03124D02*
Y03146D01*
X02734Y03204D02*
X02744Y03214D01*
X02786Y03255*
Y03288*
X02824Y03158D02*
X02834D01*
X028Y03182D02*
X02824Y03158D01*
X028Y03182D02*
Y03197D01*
X02801Y03198*
Y03199*
X02811Y03209*
Y0326*
X02839Y03288*
X02161Y03633D02*
Y03649D01*
Y03633D02*
X02161Y03632D01*
X02165Y03668D02*
X02196D01*
X02161Y03664D02*
X02165Y03668D01*
X02161Y03649D02*
Y03664D01*
X02216Y03668D02*
Y03689D01*
X02255Y03668D02*
Y03689D01*
Y03457D02*
Y03479D01*
X02848Y03143D02*
Y03144D01*
Y03143D02*
X02862Y03128D01*
X02875Y03174D02*
X02881Y03168D01*
X02903*
X0299Y03157D02*
X02991Y03158D01*
X02794Y03101D02*
X02812Y03082D01*
X02852*
X02938Y03028D02*
X02945D01*
X02929Y03037D02*
X02938Y03028D01*
X02954Y03109D02*
Y03137D01*
X02991Y03109D02*
Y03138D01*
X02996Y03563D02*
X03017D01*
X02996Y03563D02*
X02996Y03563D01*
X03882Y03457D02*
Y03478D01*
Y03457D02*
X03894Y03446D01*
X03897Y03442*
Y03419D02*
Y03442D01*
X03902Y03462D02*
Y03478D01*
Y03462D02*
X03919Y03445D01*
X03927Y03438*
Y0337D02*
Y03438D01*
X04012Y03569D02*
X04027D01*
X04013Y03596D02*
X04027D01*
X04089D02*
X04092Y03599D01*
X04091Y03563D02*
X04092Y03564D01*
X04179Y03647D02*
X0418Y03647D01*
X0418Y03529D02*
X04181Y03529D01*
X04326Y03573D02*
X0434D01*
X04326Y03652D02*
X04347D01*
X03643Y03058D02*
Y03112D01*
Y03058D02*
X03644Y03057D01*
X03757Y03057D02*
Y03112D01*
Y03057D02*
Y03057D01*
X03875Y03057D02*
Y03112D01*
Y03057D02*
Y03057D01*
X04109Y03057D02*
Y03112D01*
Y03057D02*
Y03057D01*
X04229D02*
Y03112D01*
Y03057D02*
Y03057D01*
X04345D02*
Y03112D01*
Y03057D02*
Y03057D01*
X04151Y03188D02*
X04153Y03185D01*
X04296*
X04325Y03157*
Y03112D02*
Y03157D01*
X04209Y03112D02*
Y03144D01*
Y03112D02*
D01*
X04185Y03142D02*
D01*
Y03159*
X04209Y03262D02*
Y03274D01*
X04205Y03258D02*
X04209Y03262D01*
X04003Y03586D02*
X04013Y03596D01*
X03971Y03586D02*
X04003D01*
X03971Y03586D02*
X03971Y03586D01*
X03971Y03567D02*
X0401D01*
X04012Y03569*
X03971Y03547D02*
X03999D01*
X04159Y03564D02*
X04161Y03566D01*
X03895Y03112D02*
Y03147D01*
X03815Y03247D02*
X03856D01*
X03815D02*
D01*
X03777Y03112D02*
X03779D01*
X03803Y03135*
Y03223*
X03725Y03119D02*
Y03147D01*
X03724Y03118D02*
X03725Y03119D01*
X03705Y03147D02*
Y03157D01*
X03777Y03112D02*
Y03151D01*
X03763Y03165D02*
X03777Y03151D01*
X03705Y03157D02*
X03713Y03165D01*
X03763*
X03774Y03281D02*
Y03282D01*
X03882Y03213D02*
X03894Y03224D01*
Y03272*
X03876Y0323D02*
Y03247D01*
X03865Y03219D02*
X03876Y0323D01*
X03865Y03205D02*
Y03219D01*
X03623Y03112D02*
Y03167D01*
X03639Y03183*
X03706*
X03563Y03118D02*
Y03145D01*
X03553Y03259D02*
Y03293D01*
X03552Y03294D02*
X03553Y03293D01*
X03572Y03294D02*
X03602D01*
X03618Y03278*
Y03215D02*
Y03278D01*
X03576Y03247D02*
X03593D01*
X03594Y03247*
X04088Y03135D02*
X04089Y03134D01*
X04198Y03203D02*
Y03226D01*
X03922Y03675D02*
X03923Y03674D01*
Y03656D02*
Y03674D01*
X03941Y03675D02*
X03956D01*
X03971Y03527D02*
X03999D01*
X04006Y03521*
X03482Y03143D02*
X03483Y03144D01*
X03568Y03179D02*
Y03215D01*
X03568Y03216*
X03544Y03213D02*
Y0323D01*
X03544Y03213D02*
X03544Y03213D01*
X03543Y03125D02*
Y03145D01*
X0354Y03122D02*
X03543Y03125D01*
X03683Y03147D02*
X03705D01*
X03682Y03145D02*
X03683Y03147D01*
X04142Y03159D02*
X04165D01*
X04218Y03203D02*
Y03225D01*
X03482Y03113D02*
X03483Y03114D01*
Y03144*
X03242Y03233D02*
X03264D01*
X03217Y03185D02*
X03218Y03185D01*
X03165Y03224D02*
X03165Y03224D01*
X02867Y03256D02*
Y03294D01*
X02899Y03326*
X02607Y03055D02*
X02646D01*
X02671Y0308*
X02625Y03072D02*
X02634D01*
X02656Y03094*
X02903Y03082D02*
X02906D01*
X02852Y03037D02*
X02858D01*
X02906D02*
X02909D01*
X02929*
X03206Y03449D02*
X03232D01*
X03233Y03448*
X03193Y03449D02*
X03206D01*
X02392Y03609D02*
X02393Y0361D01*
X03695Y03645D02*
X03774D01*
X03706Y03626D02*
X03774D01*
X03735Y03567D02*
X03774D01*
X03672Y03592D02*
X03706Y03626D01*
X03672Y03527D02*
Y03592D01*
X03653Y03603D02*
X03695Y03645D01*
X03653Y03544D02*
Y03603D01*
X02844Y03233D02*
X02867Y03256D01*
X02859Y03217D02*
X02876Y03234D01*
X02884*
X02945*
X02968Y03257*
X02131Y03613D02*
X02161D01*
X02117Y03573D02*
X02161D01*
X03535Y03166D02*
X03548Y03179D01*
X04218Y03225D02*
X04219Y03226D01*
X03863Y03449D02*
Y03478D01*
X03861Y03447D02*
X03863Y03449D01*
X03895Y03147D02*
Y0316D01*
X03907Y03172*
X03545Y03412D02*
X03572Y03385D01*
Y03294D02*
Y03385D01*
X0335Y03412D02*
X03545D01*
X02635Y03317D02*
X02825D01*
X02613Y03317D02*
Y03319D01*
X02628Y03333*
X02825*
X03345Y03423D02*
X03556D01*
X03829Y03332D02*
Y03413D01*
X03765Y03477D02*
X03829Y03413D01*
X03182Y03438D02*
X03193Y03449D01*
X03556Y03423D02*
X03599Y03466D01*
X03818Y0329D02*
Y03409D01*
X03599Y03466D02*
X03761D01*
X03818Y03409*
X03594Y03477D02*
X03765D01*
X03551Y03435D02*
X03594Y03477D01*
X0334Y03435D02*
X03551D01*
X02825Y03317D02*
X02889Y03381D01*
X03306Y03402D02*
X0334Y03435D01*
X02825Y03333D02*
X02884Y03392D01*
X03493Y03215D02*
X03493D01*
X03505Y03203*
Y03183D02*
Y03203D01*
X03751Y0323D02*
X03751Y03231D01*
X03772*
X03722Y03606D02*
X03774D01*
X03693Y0351D02*
Y03577D01*
X03722Y03606*
X03716Y03496D02*
Y03575D01*
X03727Y03586*
X03774*
X02117Y03573D02*
X02118Y03573D01*
Y03571D02*
Y03573D01*
X02235Y03447D02*
Y03479D01*
Y03447D02*
X02236Y03447D01*
X03694Y03245D02*
X03704Y03255D01*
X03786*
X03694Y03184D02*
Y03214D01*
Y03245*
X03982Y03213D02*
Y03285D01*
X03718Y03214D02*
X03726Y03206D01*
Y03183D02*
Y03206D01*
X0386Y03147D02*
X03875D01*
X03852Y03155D02*
X0386Y03147D01*
X03503Y03144D02*
X03518Y0313D01*
X0354Y03117D02*
Y03122D01*
X03518Y03118D02*
Y0313D01*
X03563Y03118D02*
X03563Y03118D01*
X03999Y03547D02*
X04Y03548D01*
G54D49*
X03077Y03438D02*
X03096Y03456D01*
X03015Y03438D02*
X03077D01*
X02996Y03457D02*
X03015Y03438D01*
X02996Y03457D02*
Y03512D01*
X03096Y03456D02*
Y0356D01*
X0269Y03473D02*
Y03502D01*
X02567Y03351D02*
X0269Y03473D01*
X04046Y03596D02*
X04089D01*
X04046Y03569D02*
X04064D01*
X0407Y03563*
X04091*
X0416Y03607D02*
Y03627D01*
Y03647*
X04161Y03529D02*
Y03548D01*
Y03566*
X04145Y03483D02*
X04152D01*
X04161Y03492*
Y03529*
X04209Y03294D02*
X04235D01*
X04236Y03293*
X04261*
X04268Y03287*
X03971Y03645D02*
X03995D01*
X03996Y03646*
X04112Y03564D02*
X04159D01*
X04112Y03597D02*
X0415D01*
X0416Y03607*
X03744Y03508D02*
X03774D01*
X03284Y03189D02*
Y03233D01*
Y03189D02*
X03304Y03169D01*
X03193Y03185D02*
X03217D01*
X03142Y03169D02*
X03171Y0314D01*
Y03095D02*
Y0314D01*
Y03095D02*
X03194Y03072D01*
X03264*
X03165Y03224D02*
X03193D01*
X0267Y03108D02*
X02671D01*
X02685Y03094*
Y03118D02*
X02689Y03123D01*
X02685Y03094D02*
Y03118D01*
X03324Y03192D02*
Y03316D01*
X03368Y0336*
X02075Y03243D02*
X0213D01*
X02145Y03258*
X02411Y03563D02*
Y03588D01*
Y03536D02*
Y03563D01*
X02392D02*
Y03588D01*
Y03609*
X03739Y03514D02*
X03744Y03508D01*
X03739Y0354D02*
X03746Y03547D01*
X03774*
X02161Y03554D02*
X02216D01*
X02235Y03573*
X02169Y03487D02*
X02169D01*
X02255Y03573*
X02996Y03538D02*
X03027D01*
X03037Y03528*
Y03514D02*
Y03528D01*
X03063Y03538D02*
X03072Y03547D01*
X03027Y03538D02*
X03063D01*
X02996Y03589D02*
X03059D01*
X03072Y03576*
Y03547D02*
Y03576D01*
X03739Y03514D02*
Y03527D01*
Y0354*
G54D50*
X02089Y03399D02*
Y03426D01*
Y03438*
X02101Y0345*
X02144*
G54D53*
X03245Y03669D02*
X03295D01*
X03118Y03632D02*
X03208D01*
X02895D02*
X03118D01*
X02892Y03525D02*
X02945D01*
X03208Y03632D02*
X03245Y03669D01*
X02878Y03615D02*
X02895Y03632D01*
X02878Y0354D02*
Y03615D01*
Y0354D02*
X02892Y03525D01*
X03068Y03169D02*
X03081Y03156D01*
Y0307D02*
Y03156D01*
X02821Y03646D02*
Y03682D01*
X02796Y03621D02*
X02821Y03646D01*
X02499Y03621D02*
X02796D01*
X02443Y03677D02*
X02499Y03621D01*
G54D54*
X02335Y03488D02*
X02373D01*
X02392Y03507*
Y03536*
G54D55*
X02954Y03157D02*
X02972D01*
X0299*
G54D57*
X03875Y03057D03*
X03644D03*
X03757D03*
X03993D03*
X04345D03*
X04109D03*
X04229D03*
X03528D03*
X04399Y03404D03*
Y03483D03*
Y03325D03*
Y03246D03*
G54D58*
X04326Y03652D03*
Y03573D03*
X03368Y0336D03*
X03525D03*
X02521Y03682D03*
X02621D03*
X02821D03*
X02721D03*
X03081Y0307D03*
X03264Y03072D03*
G54D59*
X02075Y03243D03*
Y03503D03*
G54D60*
X03655Y0341D03*
X03637Y03363D03*
X03657Y03313D03*
X03707Y03291D03*
X03754Y03312D03*
X03775Y03363D03*
X03755Y0341D03*
X03707Y03431D03*
X02369Y03433D03*
X02417Y03412D03*
X02437Y03365D03*
X02416Y03314D03*
X02369Y03293D03*
X02319Y03315D03*
X02299Y03365D03*
X02317Y03412D03*
X02256Y03592D03*
X02235Y03573D03*
X02275D03*
X02255Y03554D03*
G54D61*
X0208Y0365D03*
Y0308D03*
X0447Y03078D03*
Y03648D03*
G54D62*
X02368Y03363D03*
X03707Y0336D03*
G54D63*
X04356Y03403D03*
X04442Y03404D03*
X04428Y03384D03*
X04371D03*
X0443Y03425D03*
X04367Y03423D03*
X03129Y03434D03*
X03117Y03419D03*
X04023Y0308D03*
X03961D03*
X0402Y03032D03*
X03965Y03032D03*
X03953Y03056D03*
X04032D03*
X0268Y03383D03*
X02557Y03591D03*
X02539Y03592D03*
X03405Y03104D03*
Y03051D03*
Y03076D03*
X04274Y03598D03*
X04269Y03625D03*
X0306Y03469D03*
X02127Y03648D03*
X03046Y03041D03*
X03048Y03105D03*
X03112D03*
Y03041D03*
X04503Y03043D03*
X04471Y0303D03*
X04438Y03042D03*
X04519Y0308D03*
X04421D03*
X04434Y03114D03*
X0447Y03128D03*
X04506Y03114D03*
X02569Y03315D03*
X02591Y03314D03*
X02555Y034D03*
X02554Y03418D03*
X02109Y03613D03*
X02118Y03592D03*
X02131Y03612D03*
X02044Y03685D03*
X02116Y03686D03*
X0208Y03602D03*
X02046Y03616D03*
X02031Y0365D03*
X0208Y03699D03*
X03129Y03419D03*
X02381Y03484D03*
X03046Y03181D03*
X0309Y0318D03*
Y03157D03*
X03047D03*
X03751Y03232D03*
X03377Y03193D03*
X0339Y03176D03*
X03363Y03192D03*
X0236Y03488D03*
X02384Y03498D03*
X03038Y03494D03*
X03024Y03499D03*
X02987Y03589D03*
X02979Y03538D03*
X02568Y03428D03*
X02569Y03404D03*
X0254Y03404D03*
Y03428D03*
X02542Y03351D03*
X02928Y03576D03*
X0295Y03576D03*
X02959Y03589D03*
Y03563D03*
X02939D03*
Y03589D03*
X02918Y03563D03*
Y03589D03*
X03449Y0364D03*
X0347D03*
X03423Y03639D03*
X03461Y03594D03*
X03435Y03592D03*
X03472Y03571D03*
X03425D03*
X03449Y03614D03*
Y03675D03*
X03471Y03615D03*
X03425Y03614D03*
X03144Y03593D03*
X03136Y03577D03*
X02996Y03538D03*
X03059Y03589D03*
X0282Y03065D03*
X02582Y03032D03*
X02504Y03037D03*
X02077Y03324D03*
X02141Y03374D03*
X0214Y03399D03*
X02144Y0345D03*
X02821Y03558D03*
X02161Y03649D03*
X02216Y03689D03*
X02255D03*
X02335Y03488D03*
X02635Y03317D03*
X02613Y03317D03*
X02564Y03247D03*
X02548Y03232D03*
X02236Y03447D03*
X02255Y03457D03*
X02778Y03037D03*
X02799Y03058D03*
X02908Y03146D03*
X02862Y03128D03*
X02903Y03168D03*
X02972Y03157D03*
X02945Y03061D03*
X02954Y03109D03*
X02991D03*
X03009Y03676D03*
X03086D03*
X03149Y03509D03*
X04009Y03444D03*
X04274D03*
X03984Y03345D03*
X03894Y03446D03*
X04013Y03596D03*
X04012Y03569D03*
X04151Y03188D03*
X04209Y03144D03*
X04185Y03142D03*
X04268Y03287D03*
X04205Y03258D03*
X03996Y03646D03*
X03882Y03213D03*
X03724Y03118D03*
X03774Y03281D03*
X03838Y03264D03*
X03982Y03213D03*
X03594Y03247D03*
X04089Y03134D03*
X03923Y03656D03*
X03739Y03527D03*
X03956Y03675D03*
X04006Y03521D03*
X03897Y03344D03*
X03485Y03183D03*
X03544Y03213D03*
X03682Y03145D03*
X04142Y03159D03*
X03391Y03192D03*
X03304Y03169D03*
X03242Y03233D03*
X03218Y03185D03*
X03068Y03169D03*
X03165Y03224D03*
X02625Y03072D03*
X02607Y03055D03*
X02906Y03037D03*
X02852Y03082D03*
X02661Y0304D03*
X02641Y0303D03*
X02712Y03039D03*
X02932Y03438D03*
X03324Y03192D03*
X02393Y0361D03*
X02567Y03351D03*
X0269Y03502D03*
X02759Y03458D03*
X02681Y03355D03*
X02699Y03369D03*
X03693Y0351D03*
X03716Y03496D03*
X03735Y03567D03*
X03672Y03527D03*
X03653Y03544D03*
X02863Y03252D03*
X02885Y03234D03*
X02552Y03157D03*
X02538Y03137D03*
X02553Y0312D03*
X02551Y03098D03*
X02586Y0309D03*
X02443Y03676D03*
X02538Y03459D03*
X02384Y03095D03*
Y03121D03*
Y03146D03*
X02351D03*
X02314D03*
X02278D03*
X02242D03*
X02205D03*
X02169D03*
X02132D03*
X02384Y03022D03*
Y03048D03*
X02413D03*
X02411Y0312D03*
Y03095D03*
X02413Y03022D03*
X02118Y03094D03*
Y0312D03*
Y03047D03*
X02117Y03072D03*
X02151Y03165D03*
X02188D03*
X02224D03*
X02261D03*
X02297D03*
X02333D03*
X02207Y03186D03*
X02243D03*
X0228D03*
X02316D03*
X02352D03*
X02225Y03204D03*
X02262D03*
X02298D03*
X02334D03*
X02133Y03186D03*
X0217D03*
X02116Y03165D03*
Y03202D03*
X02188Y032D03*
X02151D03*
X02468Y03048D03*
X02446Y03021D03*
X02467Y03095D03*
Y03118D03*
X02079Y032D03*
X02076Y03162D03*
X02096Y03184D03*
X02095Y03145D03*
X02039Y03198D03*
Y03161D03*
X02056Y03182D03*
X02055Y03142D03*
X02066Y03027D03*
X02099D03*
X0204Y0307D03*
X02041Y03045D03*
Y03118D03*
Y03092D03*
X02077Y03129D03*
X02514Y03136D03*
X02487Y03137D03*
X0241Y03147D03*
X03415Y03218D03*
X04196Y03229D03*
X04219Y03226D03*
X04097Y03534D03*
X03861Y03447D03*
X03907Y03172D03*
X03618Y03215D03*
X0264Y03353D03*
X02658Y03369D03*
X03182Y03438D03*
X033Y03639D03*
X03096Y0356D03*
X03295Y03669D03*
X02371Y03687D03*
X03449Y03571D03*
X03493Y03215D03*
X03014Y03563D03*
X03049Y03569D03*
X0376Y03213D03*
X03718Y03214D03*
X02118Y03571D03*
X03922Y03472D03*
X02457Y03185D03*
X02431Y03184D03*
X02457Y03212D03*
X02431Y03212D03*
X03694Y03214D03*
X02522Y03592D03*
X03852Y03155D03*
X0354Y03117D03*
X03518Y03118D03*
X03484Y03117D03*
X03563Y03118D03*
X03125Y03301D03*
X04161Y03514D03*
X0416Y03627D03*
X04Y03548D03*
G54D64*
X03378Y03073D03*
G54D65*
X02656Y03223D03*
Y03156D03*
X02689Y0319D03*
X02622D03*
X02823D03*
X02789Y03156D03*
X02756Y03123D03*
X02723Y03089D03*
X02789Y03223D03*
X02756Y0319D03*
X02723Y03156D03*
X02689Y03123D03*
X02756Y03256D03*
X02723Y03223D03*
Y0329D03*
X02689Y03256D03*
X0392Y03577D03*
Y03624D03*
X03873Y03529D03*
Y03577D03*
Y03624D03*
X03825Y03529D03*
Y03577D03*
Y03624D03*
X03918Y0353D03*
G54D66*
X03037Y03514D03*
G54D74*
X02811Y03549D02*
X02821Y03558D01*
X02509Y03549D02*
X02811D01*
X02371Y03687D02*
X02509Y03549D01*
G54D78*
X03973Y0334D03*
Y03411D03*
X03879Y0334D03*
Y03411D03*
G54D79*
X02786Y03288D03*
X02839D03*
G54D80*
X02161Y03514D03*
Y03534D03*
Y03554D03*
Y03573D03*
Y03593D03*
Y03613D03*
Y03632D03*
X0235D03*
Y03613D03*
Y03593D03*
Y03573D03*
Y03554D03*
Y03534D03*
Y03514D03*
G54D81*
X02196Y03668D03*
X02216D03*
X02235D03*
X02255D03*
X02275D03*
X02295D03*
X02314D03*
Y03479D03*
X02295D03*
X02275D03*
X02255D03*
X02235D03*
X02216D03*
X02196D03*
G54D82*
X02255Y03573D03*
G54D83*
X02169Y03487D03*
G54D84*
X04391Y0365D03*
Y03572D03*
Y03591D03*
Y03611D03*
Y03631D03*
G54D85*
X043Y03516D03*
Y03706D03*
G54D86*
X03082Y03074D03*
X03264Y03072D03*
G54D87*
X02834Y03158D03*
X02848Y03144D03*
X02794Y03101D03*
X0278Y03115D03*
X02875Y03174D03*
X02861Y03188D03*
G54D88*
X02899Y03326D03*
X02968Y03257D03*
G54D89*
X02852Y03037D03*
Y03082D03*
X02909D03*
Y03037D03*
G54D90*
X03873Y03577D03*
G54D91*
X03774Y03645D03*
Y03626D03*
Y03606D03*
Y03586D03*
Y03567D03*
Y03547D03*
Y03527D03*
Y03508D03*
X03971D03*
Y03527D03*
Y03547D03*
Y03567D03*
Y03586D03*
Y03606D03*
Y03626D03*
Y03645D03*
G54D92*
X03804Y03478D03*
X03823D03*
X03843D03*
X03863D03*
X03882D03*
X03902D03*
X03922D03*
X03941D03*
Y03675D03*
X03922D03*
X03902D03*
X03882D03*
X03863D03*
X03843D03*
X03823D03*
X03804D03*
G54D93*
X03193Y03185D03*
Y03224D03*
G54D94*
X02923Y03589D03*
Y03563D03*
Y03512D03*
Y03538D03*
X02996D03*
Y03512D03*
Y03563D03*
Y03589D03*
G54D95*
X02945Y03576D03*
G54D96*
X02945Y03525D03*
M02*