%FSTAX23Y23*%
%MOIN*%
%SFA1B1*%

%IPPOS*%
%ADD10C,0.006000*%
%ADD43C,0.011800*%
%ADD44C,0.005900*%
%ADD48C,0.007900*%
%ADD67C,0.010000*%
%ADD83C,0.009800*%
%ADD84C,0.003900*%
%ADD85C,0.001000*%
%LNvapeix_mini_pcb-1*%
%LPD*%
G36*
X03884Y0355D02*
Y03546D01*
X03865Y03542*
X03884Y03538*
Y03533*
X03859Y03529*
Y03533*
X03876Y03536*
X03859Y03539*
Y03544*
X03876Y03548*
X03859Y03551*
Y03555*
X03884Y0355*
G37*
G36*
X03877Y03527D02*
X03878Y03527D01*
X03878*
X03878Y03527*
X03879*
X03879Y03527*
X0388Y03526*
X03881Y03526*
X03881Y03526*
X03882Y03526*
X03882Y03525*
X03882Y03525*
Y03525*
X03882Y03525*
X03883Y03525*
X03883Y03524*
X03883Y03524*
X03883Y03524*
X03883Y03523*
X03884Y03523*
X03884Y03522*
X03884Y03522*
X03884Y03521*
X03884Y0352*
X03884Y0352*
Y03519*
Y03519*
Y03519*
Y03519*
X03884Y03518*
Y03518*
X03884Y03517*
X03884Y03517*
X03884Y03516*
X03883Y03515*
X03883Y03514*
X03882Y03514*
X03882Y03513*
X03881Y03513*
X03881Y03512*
X0388Y03512*
X0388Y03512*
X03879Y03512*
X03879Y03511*
X03878Y03511*
X03877Y03511*
X03877Y03511*
X03876Y03511*
X03875Y03515*
X03876*
X03876*
X03876Y03515*
X03876Y03515*
X03877Y03515*
X03877Y03515*
X03878Y03516*
X03878Y03516*
X03879Y03516*
X03879Y03516*
X03879Y03517*
X0388Y03517*
X0388Y03518*
X0388Y03518*
Y03519*
Y03519*
Y0352*
X0388Y0352*
X0388Y03521*
X0388Y03521*
X03879Y03522*
X03879Y03522*
X03879Y03522*
X03879Y03522*
X03879Y03522*
X03878Y03523*
X03878Y03523*
X03878Y03523*
X03877Y03523*
X03877*
X03877*
X03876*
X03876*
X03876Y03523*
X03876Y03523*
X03875Y03523*
X03875*
X03875*
X03875Y03522*
X03875Y03522*
X03875Y03522*
X03875Y03522*
X03874Y03522*
X03874Y03521*
X03874Y03521*
X03874Y03521*
X03874Y03521*
X03874Y0352*
X03874Y0352*
X03874Y0352*
X03874Y03519*
X03873Y03519*
X03873Y03518*
X03873Y03518*
Y03518*
Y03518*
X03873Y03517*
X03873Y03517*
X03873Y03517*
X03873Y03516*
X03872Y03516*
X03872Y03515*
X03872Y03515*
X03871Y03514*
X03871Y03514*
X03871Y03514*
X03871Y03513*
X0387Y03513*
X0387Y03513*
X0387Y03512*
X03869Y03512*
X03869*
X03869Y03512*
X03868Y03512*
X03868Y03512*
X03868Y03512*
X03867Y03512*
X03866*
X03866Y03511*
X03865*
X03865Y03512*
X03865*
X03864Y03512*
X03863Y03512*
X03863Y03512*
X03862Y03512*
X03862*
Y03512*
X03862Y03513*
X03862Y03513*
X03861Y03513*
X03861Y03513*
X0386Y03514*
X0386Y03514*
X0386Y03515*
X0386Y03515*
X03859Y03516*
X03859Y03516*
X03859Y03517*
X03859Y03517*
X03859Y03518*
Y03519*
Y03519*
Y03519*
Y03519*
X03859Y0352*
Y0352*
Y03521*
X03859Y03521*
X03859Y03522*
X0386Y03523*
X0386Y03523*
X0386Y03524*
X0386Y03524*
X03861Y03524*
Y03525*
X03861Y03525*
X03861Y03525*
X03861Y03525*
X03862Y03525*
X03862Y03525*
X03862Y03525*
X03863Y03526*
X03863Y03526*
X03863Y03526*
X03864Y03526*
X03864Y03526*
X03865Y03526*
X03866Y03527*
X03866Y03527*
X03867Y03523*
X03866*
X03866*
X03866Y03522*
X03866Y03522*
X03865Y03522*
X03865Y03522*
X03865Y03522*
X03864Y03522*
X03864Y03521*
X03864Y03521*
X03864Y03521*
X03863Y03521*
X03863Y0352*
X03863Y0352*
Y03519*
X03863Y03519*
Y03519*
X03863Y03518*
Y03518*
X03863Y03517*
X03863Y03517*
X03863Y03517*
X03864Y03516*
X03864Y03516*
X03864Y03516*
X03864Y03516*
X03864Y03516*
X03865Y03516*
X03865Y03515*
X03865Y03515*
X03866*
X03866Y03515*
X03866*
X03866Y03516*
X03866Y03516*
X03867Y03516*
X03867Y03516*
Y03516*
X03867Y03516*
X03867Y03517*
X03867Y03517*
X03868Y03517*
X03868Y03517*
X03868Y03518*
X03868Y03518*
X03868Y03518*
X03868Y03519*
X03868Y03519*
X03869Y0352*
Y0352*
Y0352*
X03869Y0352*
Y0352*
X03869Y03521*
X03869Y03521*
X03869Y03522*
X03869Y03522*
X0387Y03523*
X0387Y03524*
X0387Y03524*
X0387Y03524*
X03871Y03525*
X03871Y03525*
X03871Y03525*
X03871Y03525*
X03872Y03526*
X03872Y03526*
X03873Y03526*
X03873*
X03873Y03527*
X03874Y03527*
X03874Y03527*
X03875Y03527*
X03875Y03527*
X03876Y03527*
X03877*
X03877*
X03877*
G37*
G36*
X03778Y03696D02*
X03778D01*
X03778*
X03779*
X0378Y03695*
X03781Y03695*
X03782Y03695*
X03782Y03695*
X03783Y03695*
X03783*
X03783Y03695*
X03783Y03695*
X03784Y03694*
X03784Y03694*
X03785Y03694*
X03786Y03693*
X03786Y03693*
X03786*
X03786Y03693*
X03787Y03693*
X03787Y03692*
X03787Y03692*
X03788Y03691*
X03788Y03691*
X03788Y0369*
X03788Y0369*
X03788Y0369*
X03789Y03689*
X03789Y03689*
X03789Y03688*
X03789Y03687*
Y03686*
Y03679*
X03764*
Y03686*
Y03686*
Y03686*
Y03687*
X03764Y03687*
Y03687*
Y03688*
X03764Y03688*
X03765Y03689*
X03765Y0369*
X03765Y0369*
Y0369*
X03765Y03691*
X03765Y03691*
X03765Y03691*
X03766Y03692*
X03766Y03692*
X03767Y03693*
X03767Y03693*
X03767*
X03767Y03693*
X03768Y03693*
X03768Y03694*
X03769Y03694*
X03769Y03694*
X0377Y03695*
X03771Y03695*
X03771*
X03771Y03695*
X03771*
X03772*
X03772Y03695*
X03772Y03695*
X03773Y03695*
X03773*
X03773Y03695*
X03774*
X03774Y03696*
X03776*
X03777Y03696*
X03777*
X03778Y03696*
G37*
G36*
X03876Y03574D02*
X03877Y03574D01*
X03877*
X03877Y03574*
X03878Y03574*
X03878Y03574*
X03879Y03573*
X0388Y03573*
X03881Y03572*
X03882Y03572*
X03882Y03571*
X03882Y03571*
X03882*
Y03571*
X03883Y03571*
X03883Y03571*
X03883Y0357*
X03883Y0357*
X03883Y0357*
X03883Y0357*
X03883Y03569*
X03884Y03569*
X03884Y03568*
X03884Y03567*
X03884Y03566*
Y03566*
Y03566*
Y03566*
Y03565*
Y03565*
X03884Y03565*
Y03564*
X03884Y03564*
X03884Y03563*
X03884Y03563*
X03884Y03562*
X03883Y03562*
X03883Y03561*
X03883Y03561*
X03882Y0356*
X03882Y0356*
X03881Y03559*
Y03559*
X03881Y03559*
X03881Y03559*
X03881Y03559*
X0388Y03559*
X0388Y03558*
X03879Y03558*
X03879Y03558*
X03878Y03558*
X03877Y03557*
X03877Y03557*
X03876Y03557*
X03875Y03557*
X03874Y03557*
X03873Y03557*
X03872*
X03871*
X03871*
X03871*
X0387*
X0387Y03557*
X03869Y03557*
X03868Y03557*
X03867Y03557*
X03867Y03557*
X03866Y03557*
X03865Y03558*
X03864Y03558*
X03863Y03558*
X03863Y03559*
X03862Y03559*
X03862Y03559*
X03862Y0356*
X03861Y0356*
X03861Y0356*
X03861Y0356*
X03861Y03561*
X0386Y03561*
X0386Y03562*
X0386Y03562*
X0386Y03563*
X03859Y03563*
X03859Y03564*
X03859Y03564*
X03859Y03565*
Y03566*
Y03566*
Y03566*
Y03566*
Y03567*
X03859Y03567*
Y03567*
X03859Y03568*
X03859Y03568*
X03859Y03569*
X0386Y03569*
X0386Y0357*
X0386Y0357*
X0386Y03571*
X03861Y03571*
X03861Y03572*
Y03572*
X03861*
X03862Y03572*
X03862Y03572*
X03862Y03572*
X03862Y03572*
X03862Y03573*
X03863Y03573*
X03863Y03573*
X03864Y03573*
X03864Y03573*
X03864Y03574*
X03865Y03574*
X03866Y03574*
X03866Y03574*
X03867Y0357*
X03867Y0357*
X03867*
X03867*
X03867Y0357*
X03866Y0357*
X03866Y03569*
X03865Y03569*
X03865Y03569*
X03864Y03568*
X03864*
X03864Y03568*
X03864Y03568*
X03864Y03568*
X03863Y03567*
X03863Y03567*
X03863Y03566*
Y03566*
Y03566*
Y03566*
Y03565*
X03863Y03565*
X03863Y03564*
X03864Y03564*
X03864Y03563*
X03864Y03563*
X03864Y03563*
X03865Y03562*
X03865Y03562*
X03865*
Y03562*
X03865*
X03865Y03562*
X03866Y03562*
X03866Y03562*
X03866Y03562*
X03867Y03561*
X03867Y03561*
X03867Y03561*
X03868Y03561*
X03869Y03561*
X03869Y03561*
X0387Y03561*
X03871*
X03872*
X03872*
X03873*
X03873*
X03874Y03561*
X03874Y03561*
X03875Y03561*
X03876Y03561*
X03877Y03561*
X03877Y03562*
X03878Y03562*
X03878Y03562*
X03878*
Y03562*
X03878Y03562*
X03879Y03563*
X03879Y03563*
X03879Y03564*
X0388Y03564*
X0388Y03565*
Y03565*
X0388Y03566*
Y03566*
X0388Y03566*
Y03566*
X0388Y03567*
X0388Y03567*
X03879Y03567*
X03879Y03568*
X03879Y03568*
X03879*
X03879Y03569*
X03878Y03569*
X03878Y03569*
X03877Y03569*
X03877Y0357*
X03876Y0357*
X03875Y0357*
X03876Y03574*
X03876*
X03876*
G37*
G36*
X03877Y03634D02*
X03878D01*
X03878*
X03878Y03634*
X03879Y03633*
X03879Y03633*
X0388Y03633*
X03881Y03633*
X03881Y03632*
X03882Y03632*
X03882Y03632*
Y03632*
X03882*
Y03631*
X03882Y03631*
X03883Y03631*
X03883Y03631*
X03883Y03631*
X03883Y0363*
X03883Y0363*
X03884Y03629*
X03884Y03629*
X03884Y03628*
X03884Y03628*
X03884Y03627*
X03884Y03626*
Y03626*
Y03625*
Y03625*
Y03625*
X03884Y03625*
Y03624*
X03884Y03624*
X03884Y03623*
X03884Y03622*
X03883Y03622*
X03883Y03621*
X03882Y0362*
X03882Y0362*
X03881Y03619*
X03881Y03619*
X0388Y03619*
X0388Y03618*
X03879Y03618*
X03879Y03618*
X03878Y03618*
X03877Y03618*
X03877Y03617*
X03876Y03617*
X03875Y03621*
X03876Y03621*
X03876*
X03876Y03621*
X03876Y03622*
X03877Y03622*
X03877Y03622*
X03878Y03622*
X03878Y03622*
X03879Y03623*
X03879Y03623*
X03879Y03623*
X0388Y03624*
X0388Y03624*
X0388Y03625*
Y03626*
Y03626*
Y03626*
Y03626*
X0388Y03627*
X0388Y03627*
X0388Y03628*
X03879Y03628*
X03879Y03629*
X03879*
X03879Y03629*
X03879Y03629*
X03878Y03629*
X03878Y03629*
X03878Y03629*
X03877Y0363*
X03877Y0363*
X03877*
X03876Y0363*
X03876*
X03876Y03629*
X03876Y03629*
X03875Y03629*
X03875*
X03875Y03629*
X03875Y03629*
X03875Y03629*
X03875Y03629*
X03875Y03628*
X03874Y03628*
Y03628*
X03874Y03628*
X03874Y03628*
X03874Y03627*
X03874Y03627*
X03874Y03627*
X03874Y03627*
X03874Y03626*
X03874Y03626*
X03873Y03625*
X03873Y03625*
X03873Y03624*
Y03624*
Y03624*
X03873Y03624*
X03873Y03624*
X03873Y03624*
X03873Y03623*
X03872Y03622*
X03872Y03622*
X03872Y03621*
X03871Y03621*
X03871Y0362*
X03871Y0362*
X03871Y0362*
X0387Y0362*
X0387Y03619*
X0387Y03619*
X03869Y03619*
X03869Y03619*
X03869*
X03868Y03618*
X03868Y03618*
X03868Y03618*
X03867Y03618*
X03866Y03618*
X03866*
X03865*
X03865*
X03865Y03618*
X03864Y03618*
X03863Y03618*
X03863Y03619*
X03862Y03619*
X03862*
X03862Y03619*
X03862Y03619*
X03861Y0362*
X03861Y0362*
X0386Y0362*
X0386Y03621*
X0386Y03621*
Y03622*
X0386Y03622*
X03859Y03622*
X03859Y03623*
X03859Y03623*
X03859Y03624*
X03859Y03625*
Y03625*
Y03626*
Y03626*
Y03626*
X03859Y03626*
Y03627*
Y03627*
X03859Y03627*
X03859Y03628*
X0386Y03629*
X0386Y0363*
X0386Y0363*
X0386Y03631*
X03861Y03631*
X03861Y03631*
X03861Y03631*
X03861Y03631*
X03862Y03632*
X03862Y03632*
X03862Y03632*
X03863Y03632*
X03863Y03632*
X03863Y03633*
X03864Y03633*
X03864Y03633*
X03865Y03633*
X03866Y03633*
X03866*
X03867Y03629*
X03866*
X03866*
X03866*
X03866Y03629*
X03865Y03629*
X03865Y03629*
X03865Y03628*
X03864Y03628*
X03864Y03628*
X03864Y03628*
X03864Y03628*
X03863Y03627*
X03863Y03627*
X03863Y03626*
Y03626*
X03863Y03625*
Y03625*
Y03625*
X03863Y03625*
Y03624*
X03863Y03624*
X03863Y03624*
X03863Y03623*
X03864Y03623*
X03864Y03623*
X03864Y03623*
X03864Y03622*
X03864Y03622*
X03865Y03622*
X03865Y03622*
X03865*
X03866*
X03866*
X03866Y03622*
X03866Y03622*
X03866Y03622*
X03867Y03622*
X03867Y03623*
X03867Y03623*
X03867Y03623*
X03867Y03623*
X03868Y03624*
X03868Y03624*
X03868Y03624*
X03868Y03625*
X03868Y03625*
X03868Y03625*
X03868Y03626*
X03869Y03626*
Y03627*
X03869Y03627*
Y03627*
X03869Y03627*
X03869Y03627*
X03869Y03628*
X03869Y03629*
X0387Y0363*
X0387Y0363*
X0387Y03631*
X0387Y03631*
Y03631*
X03871Y03631*
X03871Y03631*
X03871Y03632*
X03871Y03632*
X03872Y03632*
X03872Y03633*
X03873Y03633*
X03873Y03633*
X03873*
X03874Y03633*
X03874Y03633*
X03875Y03633*
X03875Y03634*
X03876*
X03877Y03634*
X03877*
X03877Y03634*
G37*
G36*
X03884Y03608D02*
X03872Y03602D01*
X03876Y03599*
X03884*
Y03595*
X03859*
Y03599*
X0387*
X03859Y03607*
Y03613*
X03869Y03605*
X03884Y03613*
Y03608*
G37*
G36*
Y03578D02*
X03859D01*
Y03582*
X0388*
Y03592*
X03884*
Y03578*
G37*
G36*
X03778Y03675D02*
X03778D01*
X03778*
X03779*
X0378Y03675*
X03781Y03675*
X03782Y03675*
X03782Y03675*
X03783*
X03783Y03674*
X03783*
X03783Y03674*
X03784Y03674*
X03784Y03674*
X03785Y03673*
X03786Y03673*
X03786Y03673*
X03786Y03673*
X03786Y03673*
X03787Y03672*
X03787Y03672*
X03787Y03672*
X03788Y03671*
X03788Y03671*
X03788Y0367*
Y0367*
X03788Y0367*
X03788Y03669*
X03789Y03669*
X03789Y03668*
X03789Y03668*
X03789Y03667*
Y03666*
Y03658*
X03764*
Y03666*
Y03666*
Y03666*
Y03666*
X03764Y03666*
Y03667*
Y03667*
X03764Y03668*
X03765Y03669*
X03765Y03669*
X03765Y0367*
X03765Y0367*
X03765Y03671*
X03765Y03671*
X03766Y03671*
X03766Y03672*
X03767Y03672*
X03767Y03673*
X03767Y03673*
X03767Y03673*
X03768Y03673*
X03768Y03673*
X03769Y03674*
X03769Y03674*
X0377Y03674*
X03771Y03675*
X03771Y03675*
X03771*
X03771Y03675*
X03772*
X03772Y03675*
X03772*
X03773Y03675*
X03773*
X03773Y03675*
X03774Y03675*
X03774*
X03776Y03675*
X03777*
X03777*
X03778*
G37*
G36*
X03917Y03057D02*
X03918D01*
X03918Y03057*
X03918*
X03919Y03057*
X0392Y03056*
X03921Y03056*
X03921Y03056*
X03922Y03056*
X03922Y03055*
X03923Y03055*
X03923*
Y03055*
X03923Y03055*
X03923Y03054*
X03923Y03054*
X03924Y03054*
X03924Y03054*
X03924Y03053*
X03924Y03053*
X03924Y03052*
X03925Y03052*
X03925Y03051*
X03925Y03051*
X03925Y0305*
X03925Y0305*
Y03049*
X03921Y03049*
Y03049*
Y03049*
X03921Y03049*
X0392Y03049*
X0392Y0305*
X0392Y0305*
X0392Y03051*
X0392Y03051*
X03919Y03052*
X03919Y03052*
X03919Y03052*
X03919Y03052*
X03919Y03052*
X03918Y03052*
X03918Y03052*
X03917Y03052*
X03917*
X03916*
X03916*
X03915*
X03915Y03052*
X03915Y03052*
X03914Y03052*
X03914Y03052*
X03914Y03052*
X03914Y03052*
X03913Y03051*
X03913Y03051*
X03913Y03051*
X03913Y03051*
X03913Y0305*
Y0305*
Y0305*
Y0305*
Y03049*
X03913Y03049*
X03913Y03049*
X03913Y03049*
X03913Y03048*
X03914Y03048*
Y03048*
X03914*
X03914Y03048*
X03914Y03048*
X03915Y03047*
X03915Y03047*
X03915Y03047*
X03916Y03047*
X03916Y03047*
X03917Y03047*
X03917Y03047*
X03918Y03046*
X03918*
X03918Y03046*
X03918Y03046*
X03919Y03046*
X03919Y03046*
X0392Y03046*
X0392Y03045*
X03921Y03045*
X03922Y03045*
X03922Y03044*
X03923Y03044*
X03923Y03044*
X03923Y03044*
X03924Y03044*
X03924Y03043*
X03924Y03043*
X03925Y03042*
X03925Y03041*
X03925Y03041*
X03925Y03041*
X03925Y0304*
X03926Y0304*
X03926Y03039*
X03926Y03038*
Y03037*
Y03037*
Y03037*
Y03037*
Y03037*
X03926Y03036*
Y03036*
X03926Y03036*
X03925Y03035*
X03925Y03034*
X03925Y03033*
X03925Y03033*
X03924Y03032*
X03924Y03032*
X03924Y03031*
X03923Y03031*
X03923Y03031*
X03923Y03031*
X03923Y03031*
X03923Y03031*
X03922Y0303*
X03922Y0303*
X03921Y0303*
X03921Y0303*
X0392Y0303*
X0392Y03029*
X03919Y03029*
X03918Y03029*
X03918Y03029*
X03917*
X03916*
X03916Y03029*
X03915*
X03915Y03029*
X03914Y0303*
X03913Y0303*
X03913Y0303*
X03912Y03031*
X03911Y03031*
X0391Y03032*
X0391Y03032*
X03909Y03033*
X03909Y03033*
X03909Y03034*
X03909Y03035*
X03908Y03035*
X03908Y03036*
X03908Y03037*
X03908Y03037*
X03908Y03038*
X03912Y03039*
Y03039*
X03912Y03038*
Y03038*
X03912Y03038*
X03912Y03037*
X03913Y03037*
X03913Y03036*
X03913Y03036*
X03914Y03035*
X03914Y03035*
X03914Y03034*
X03915Y03034*
X03915Y03034*
X03916Y03034*
X03917*
X03917*
X03918*
X03918Y03034*
X03919Y03034*
X03919Y03034*
X0392Y03034*
X0392Y03035*
Y03035*
X0392Y03035*
X0392Y03035*
X03921Y03035*
X03921Y03036*
X03921Y03036*
X03921Y03037*
Y03037*
Y03037*
Y03038*
Y03038*
X03921Y03038*
X03921Y03039*
X03921Y03039*
Y03039*
X03921Y03039*
X0392Y03039*
X0392Y03039*
X0392Y0304*
X0392Y0304*
X0392Y0304*
X03919Y0304*
X03919Y0304*
X03919Y0304*
X03919Y0304*
X03918Y0304*
X03918Y03041*
X03918Y03041*
X03917Y03041*
X03917Y03041*
X03916Y03041*
X03916Y03041*
X03915*
X03915Y03041*
X03915*
X03915Y03042*
X03915Y03042*
X03914Y03042*
X03913Y03042*
X03913Y03042*
X03912Y03043*
X03911Y03043*
X03911Y03043*
X03911Y03044*
X03911Y03044*
X0391Y03044*
X0391Y03045*
X0391Y03045*
X03909Y03046*
X03909Y03046*
Y03046*
X03909Y03047*
X03909Y03047*
X03909Y03047*
X03909Y03048*
Y03049*
X03908Y03049*
Y0305*
Y0305*
Y0305*
X03909Y0305*
Y03051*
X03909Y03051*
X03909Y03052*
X03909Y03053*
X03909Y03053*
X0391*
X0391Y03054*
X0391Y03054*
X0391Y03054*
X03911Y03055*
X03911Y03055*
X03912Y03056*
X03912Y03056*
X03912Y03056*
X03913Y03056*
X03913Y03056*
X03913Y03057*
X03914Y03057*
X03915Y03057*
X03916Y03057*
X03917Y03057*
X03917*
X03917Y03057*
G37*
G36*
X03853D02*
X03854D01*
X03854Y03057*
X03855*
X03855Y03057*
X03856Y03056*
X03857Y03056*
X03857Y03056*
X03858Y03056*
X03858Y03055*
X03859Y03055*
X03859*
Y03055*
X03859Y03055*
X03859Y03054*
X03859Y03054*
X0386Y03054*
X0386Y03054*
X0386Y03053*
X0386Y03053*
X0386Y03052*
X03861Y03052*
X03861Y03051*
X03861Y03051*
X03861Y0305*
X03861Y0305*
Y03049*
X03857Y03049*
Y03049*
Y03049*
X03857Y03049*
Y03049*
X03856Y0305*
X03856Y0305*
X03856Y03051*
X03856Y03051*
X03855Y03052*
Y03052*
X03855Y03052*
X03855Y03052*
X03855Y03052*
X03854Y03052*
X03854Y03052*
X03853Y03052*
X03853*
X03852*
X03852*
X03852*
X03851Y03052*
X03851Y03052*
X0385Y03052*
X0385Y03052*
X0385Y03052*
X0385Y03052*
X0385Y03051*
X03849Y03051*
X03849Y03051*
X03849Y03051*
X03849Y0305*
X03849Y0305*
Y0305*
Y0305*
X03849Y03049*
Y03049*
X03849Y03049*
X03849Y03049*
X03849Y03048*
X0385Y03048*
Y03048*
X0385*
X0385Y03048*
X03851Y03048*
X03851Y03047*
X03851Y03047*
X03851Y03047*
X03852Y03047*
X03852Y03047*
X03853Y03047*
X03853Y03047*
X03854Y03046*
X03854*
X03854Y03046*
X03854Y03046*
X03855Y03046*
X03855Y03046*
X03856Y03046*
X03857Y03045*
X03857Y03045*
X03858Y03045*
X03858Y03044*
X03859Y03044*
X03859*
X03859Y03044*
X03859Y03044*
X0386Y03044*
X0386Y03043*
X0386Y03043*
X03861Y03042*
X03861Y03041*
X03861*
Y03041*
X03861Y03041*
X03861Y0304*
X03862Y0304*
X03862Y03039*
X03862Y03038*
Y03037*
Y03037*
Y03037*
Y03037*
Y03037*
X03862Y03036*
Y03036*
X03862Y03036*
X03862Y03035*
X03861Y03034*
X03861Y03033*
X03861Y03033*
X0386Y03032*
X0386Y03032*
X0386Y03031*
X0386Y03031*
X03859Y03031*
X03859Y03031*
X03859Y03031*
X03859Y03031*
X03858Y0303*
X03858Y0303*
X03858Y0303*
X03857Y0303*
X03856Y0303*
X03856Y03029*
X03855Y03029*
X03854Y03029*
X03854Y03029*
X03853*
X03853*
X03852Y03029*
X03852*
X03851Y03029*
X0385Y0303*
X03849Y0303*
X03849Y0303*
X03848Y03031*
X03847Y03031*
X03846Y03032*
X03846Y03032*
X03846Y03033*
X03845Y03033*
X03845Y03034*
X03845Y03035*
X03844Y03035*
X03844Y03036*
X03844Y03037*
X03844Y03037*
X03844Y03038*
X03848Y03039*
Y03039*
X03848Y03038*
X03848Y03038*
X03848Y03038*
X03849Y03037*
X03849Y03037*
X03849Y03036*
X03849Y03036*
X0385Y03035*
X0385Y03035*
X03851Y03034*
X03851Y03034*
X03852Y03034*
X03852Y03034*
X03853*
X03853*
X03854*
X03854Y03034*
X03855Y03034*
X03855Y03034*
X03856Y03034*
X03856Y03035*
X03856Y03035*
X03856Y03035*
X03857Y03035*
X03857Y03035*
X03857Y03036*
X03857Y03036*
X03857Y03037*
Y03037*
Y03037*
Y03038*
Y03038*
X03857Y03038*
X03857Y03039*
X03857Y03039*
Y03039*
X03857Y03039*
X03857Y03039*
X03856Y03039*
X03856Y0304*
X03856Y0304*
X03856Y0304*
X03856Y0304*
X03855Y0304*
X03855Y0304*
X03855Y0304*
X03854Y0304*
X03854Y03041*
X03854Y03041*
X03853Y03041*
X03853Y03041*
X03852Y03041*
X03852Y03041*
X03852*
X03851Y03041*
X03851*
X03851Y03042*
X03851Y03042*
X0385Y03042*
X03849Y03042*
X03849Y03042*
X03848Y03043*
X03847Y03043*
X03847Y03043*
X03847Y03044*
X03847Y03044*
X03846Y03044*
X03846Y03045*
X03846Y03045*
X03845Y03046*
Y03046*
X03845Y03046*
X03845Y03047*
X03845Y03047*
X03845Y03047*
X03845Y03048*
X03845Y03049*
X03845Y03049*
Y0305*
Y0305*
Y0305*
X03845Y0305*
X03845Y03051*
X03845Y03051*
X03845Y03052*
X03845Y03053*
X03846Y03053*
X03846*
X03846Y03054*
X03846Y03054*
X03846Y03054*
X03847Y03055*
X03847Y03055*
X03848Y03056*
X03848Y03056*
X03848Y03056*
X03849Y03056*
X03849Y03056*
X0385Y03057*
X0385Y03057*
X03851Y03057*
X03852Y03057*
X03853Y03057*
X03853*
X03853Y03057*
G37*
G36*
X03778D02*
X03778D01*
X03778Y03057*
X03779*
X03779Y03057*
X0378Y03056*
X03781Y03056*
X03781Y03056*
X03782Y03056*
X03782Y03055*
X03783Y03055*
X03783Y03054*
X03783Y03054*
Y03054*
X03784Y03054*
X03784Y03054*
X03784Y03054*
X03784Y03053*
X03784Y03053*
X03784Y03053*
X03785Y03052*
X03785Y03052*
X03785Y03051*
X03785Y03051*
X03786Y0305*
X03786Y0305*
X03786Y03049*
X03781Y03048*
X03781Y03048*
Y03048*
Y03048*
X03781Y03049*
X03781Y03049*
X03781Y0305*
X03781Y0305*
X0378Y03051*
X0378Y03051*
X0378*
X0378Y03051*
X03779Y03052*
X03779Y03052*
X03778Y03052*
X03778Y03052*
X03777Y03052*
X03777Y03052*
X03776*
X03776Y03052*
X03776Y03052*
X03775Y03052*
X03775Y03052*
X03774Y03051*
X03774Y03051*
X03773Y03051*
X03773Y03051*
X03773Y0305*
X03773Y0305*
Y0305*
X03772Y0305*
X03772Y0305*
X03772Y03049*
X03772Y03049*
X03772Y03048*
X03772Y03048*
X03772Y03048*
X03772Y03047*
X03771Y03046*
X03771Y03046*
X03771Y03045*
Y03044*
Y03043*
Y03043*
Y03043*
Y03042*
Y03042*
Y03041*
X03771Y03041*
X03771Y0304*
X03772Y03039*
X03772Y03038*
X03772Y03037*
X03772Y03037*
X03772Y03036*
X03773Y03036*
Y03036*
X03773*
X03773Y03036*
X03773Y03035*
X03774Y03035*
X03774Y03034*
X03775Y03034*
X03776Y03034*
X03776*
X03777*
X03777*
X03777*
X03778Y03034*
X03778Y03034*
X03779Y03034*
X03779Y03035*
X0378Y03035*
X0378Y03035*
X0378Y03035*
X0378Y03036*
X0378Y03036*
X03781Y03037*
X03781Y03038*
X03781Y03038*
X03782Y03039*
X03786Y03038*
Y03038*
X03786Y03038*
X03786Y03037*
Y03037*
X03786Y03037*
X03785Y03036*
X03785Y03036*
X03785Y03035*
X03785Y03034*
X03784Y03033*
X03783Y03032*
X03783Y03032*
X03783Y03031*
X03782Y03031*
X03782*
X03782Y03031*
X03782Y03031*
X03782Y03031*
X03782Y0303*
X03781Y0303*
X03781Y0303*
X03781Y0303*
X0378Y0303*
X03779Y03029*
X03778Y03029*
X03777Y03029*
X03777*
X03776*
X03776*
X03776*
X03776Y03029*
X03775*
X03775Y03029*
X03774Y03029*
X03774Y0303*
X03773Y0303*
X03772Y0303*
X03772Y0303*
X03771Y03031*
X03771Y03031*
X0377Y03032*
X0377Y03032*
X0377*
Y03033*
X03769Y03033*
X03769Y03033*
X03769Y03033*
X03769Y03034*
X03768Y03034*
X03768Y03035*
X03768Y03036*
X03768Y03037*
X03767Y03037*
X03767Y03038*
X03767Y03039*
X03767Y0304*
X03767Y03042*
Y03043*
Y03043*
Y03043*
Y03043*
Y03044*
X03767Y03045*
X03767Y03045*
X03767Y03046*
X03767Y03047*
X03767Y03048*
X03767Y03048*
X03768Y03049*
X03768Y0305*
X03768Y03051*
X03769Y03052*
X03769Y03053*
X0377Y03054*
X0377*
Y03054*
X0377Y03054*
X0377Y03054*
X0377Y03054*
X03771Y03055*
X03771Y03055*
X03772Y03055*
X03772Y03056*
X03773Y03056*
X03773Y03056*
X03774Y03056*
X03775Y03057*
X03775Y03057*
X03776Y03057*
X03777Y03057*
X03777*
X03778Y03057*
G37*
G36*
X03786Y03551D02*
X03786Y03551D01*
X03786Y03551*
X03786Y03551*
X03787Y0355*
X03787Y03549*
X03788Y03549*
X03788Y03548*
Y03548*
X03788Y03548*
Y03547*
X03788Y03547*
X03788Y03547*
Y03547*
X03789Y03546*
X03789Y03545*
X03789Y03545*
X03789Y03544*
Y03543*
Y03543*
Y03543*
Y03543*
Y03542*
Y03542*
X03789Y03542*
Y03541*
X03789Y03541*
X03789Y0354*
X03789Y03539*
X03788Y03538*
X03788Y03538*
X03788*
Y03537*
X03788Y03537*
X03788Y03537*
X03787Y03537*
X03787Y03536*
X03786Y03536*
X03785Y03535*
X03784Y03534*
X03783Y03534*
X03783*
X03783Y03534*
X03783Y03534*
X03783Y03534*
X03783*
X03782Y03534*
X03782Y03533*
X03781Y03533*
X03781Y03533*
X0378Y03533*
X0378Y03533*
X03779*
X03778Y03533*
X03777Y03533*
X03776*
X03776Y03533*
X03776*
X03775*
X03775Y03533*
X03774*
X03773Y03533*
X03772Y03533*
X03771Y03534*
X0377Y03534*
X0377*
X03769Y03534*
X03769*
X03769Y03534*
X03769Y03534*
X03769Y03534*
X03768Y03535*
X03767Y03535*
X03767Y03536*
X03766Y03537*
X03765Y03537*
X03765Y03538*
X03765Y03538*
X03765Y03538*
X03765Y03538*
X03765Y03538*
X03765Y03539*
X03765Y03539*
X03764Y0354*
X03764Y03541*
X03764Y03542*
X03764Y03543*
Y03543*
Y03543*
Y03543*
X03764Y03544*
Y03544*
Y03544*
X03764Y03545*
X03764Y03546*
X03765Y03547*
X03765Y03547*
X03765Y03548*
X03765Y03548*
X03766Y03548*
Y03548*
Y03549*
X03766Y03549*
X03766Y03549*
X03766Y03549*
X03766Y03549*
X03767Y03549*
X03767Y0355*
X03767Y0355*
X03768Y0355*
X03768Y0355*
X03769Y03551*
X03769Y03551*
X0377Y03551*
X0377Y03551*
X03771Y03551*
X03772Y03547*
X03772*
X03772Y03547*
X03771Y03547*
X03771Y03547*
X03771Y03547*
X0377Y03546*
X0377Y03546*
X03769Y03546*
X03769Y03545*
X03769Y03545*
X03769Y03545*
X03769Y03545*
X03768Y03544*
X03768Y03544*
X03768Y03543*
Y03543*
Y03543*
Y03542*
Y03542*
Y03542*
X03768Y03542*
X03768Y03541*
X03769Y0354*
X03769Y0354*
X03769Y03539*
X03769Y03539*
X0377Y03539*
X0377Y03538*
X0377Y03538*
X0377Y03538*
X03771Y03538*
X03771Y03538*
X03771Y03538*
X03771Y03538*
X03772Y03538*
X03772Y03537*
X03773Y03537*
X03773Y03537*
X03774Y03537*
X03774Y03537*
X03775Y03537*
X03776*
X03776*
X03777*
X03777*
X03777*
X03778Y03537*
X03778*
X03779Y03537*
X0378Y03537*
X03781Y03538*
X03782Y03538*
X03783Y03538*
X03783Y03539*
X03783Y03539*
X03783Y03539*
X03784Y03539*
X03784Y0354*
X03784Y0354*
X03785Y03541*
X03785Y03542*
Y03542*
Y03543*
Y03543*
Y03543*
Y03543*
X03785Y03544*
X03785Y03544*
X03785Y03545*
X03784Y03545*
Y03545*
X03784Y03545*
X03784Y03546*
X03784Y03546*
X03784Y03546*
X03784Y03547*
X03783Y03547*
X03783Y03547*
X0378*
Y03543*
X03776*
Y03551*
X03785*
X03786*
G37*
G36*
X03789Y03649D02*
Y03645D01*
X03764Y03638*
Y03642*
X03783Y03647*
X03764Y03652*
Y03656*
X03789Y03649*
G37*
G36*
X03778Y03592D02*
X03778D01*
X03778*
X03779*
X0378Y03592*
X03781Y03592*
X03781Y03592*
X03782Y03592*
X03782*
X03783*
X03783Y03592*
X03783Y03591*
X03784Y03591*
X03784Y03591*
X03785Y03591*
X03786Y0359*
X03786Y0359*
X03786Y0359*
X03786Y0359*
X03787Y03589*
X03787Y03589*
X03787Y03589*
X03788Y03588*
X03788Y03588*
X03788Y03587*
X03788Y03587*
Y03587*
X03788Y03587*
X03788Y03586*
X03789Y03586*
X03789Y03585*
X03789Y03584*
Y03583*
Y03576*
X03764*
Y03583*
Y03583*
Y03583*
Y03583*
Y03584*
Y03584*
X03764Y03585*
Y03585*
X03765Y03586*
X03765Y03587*
X03765Y03587*
Y03587*
X03765Y03587*
X03765Y03588*
X03765Y03588*
X03766Y03589*
X03766Y03589*
X03767Y03589*
X03767Y0359*
Y0359*
X03767Y0359*
X03768Y0359*
X03768Y03591*
X03769Y03591*
X03769Y03591*
X0377Y03592*
X03771Y03592*
X03771*
X03771*
X03771Y03592*
X03772*
X03772Y03592*
X03772Y03592*
X03773*
X03773Y03592*
X03773*
X03774Y03592*
X03774*
X03776Y03592*
X03777Y03593*
X03777*
X03778Y03592*
G37*
G36*
X03789Y03567D02*
X03773Y03559D01*
X03789*
Y03555*
X03764*
Y03559*
X03781Y03568*
X03764*
Y03571*
X03789*
Y03567*
G37*
G36*
X02433Y03071D02*
X02434Y03071D01*
X02434*
X02435Y03071*
X02436Y03071*
X02436Y0307*
X02436Y0307*
X02437Y0307*
X02437Y0307*
X02438Y03069*
X02438Y03069*
X02438Y03069*
X02438Y03069*
X02438Y03068*
X02438Y03068*
X02439Y03068*
X02439Y03067*
X02439Y03067*
X02439Y03066*
X02439Y03066*
X02439Y03065*
X0244Y03064*
X0244Y03064*
X0244Y03063*
Y03062*
X0244Y03061*
Y0306*
X0243*
Y0306*
Y0306*
Y0306*
Y0306*
X0243Y03059*
X0243Y03059*
X02431Y03058*
X02431Y03058*
X02431Y03057*
X02431Y03057*
X02432Y03057*
X02432Y03057*
X02432Y03056*
X02432Y03056*
X02433Y03056*
X02433*
X02433*
X02434*
X02434Y03056*
X02434Y03056*
X02435Y03056*
X02435Y03057*
X02435Y03057*
X02435Y03057*
X02435Y03057*
X02436Y03058*
X02436Y03058*
X02436Y03059*
X0244Y03058*
X0244Y03058*
Y03058*
X0244Y03057*
Y03057*
X02439Y03057*
X02439Y03056*
X02439Y03056*
X02438Y03055*
X02438Y03054*
X02437Y03054*
X02437Y03054*
X02437Y03053*
X02436Y03053*
X02436Y03053*
X02435Y03053*
X02434Y03053*
X02433*
X02433*
X02433*
X02433*
X02432Y03053*
X02432Y03053*
X02431Y03053*
X0243Y03053*
X0243Y03053*
X02429Y03054*
X02429Y03054*
X02429Y03054*
X02428Y03055*
X02428*
Y03055*
X02428Y03055*
X02428Y03055*
X02428Y03055*
X02428Y03056*
X02427Y03056*
X02427Y03056*
X02427Y03057*
X02427Y03057*
X02427Y03058*
X02427Y03059*
X02426Y03059*
X02426Y0306*
X02426Y03061*
Y03062*
Y03062*
Y03062*
Y03062*
X02426Y03063*
Y03063*
X02426Y03064*
X02427Y03064*
X02427Y03065*
X02427Y03066*
X02427Y03067*
X02427Y03067*
X02428Y03068*
X02428Y03068*
X02428Y03069*
X02428Y03069*
X02429Y03069*
X02429Y03069*
X02429Y03069*
X02429Y0307*
X0243Y0307*
X0243Y0307*
X02431Y03071*
X02431Y03071*
X02432Y03071*
X02432Y03071*
X02433*
X02433*
X02433*
G37*
G36*
X02479Y03041D02*
X0248D01*
X0248Y03041*
X02481Y03041*
X02481Y03041*
X02481Y0304*
X0248Y03036*
X0248Y03036*
X0248Y03036*
X0248Y03036*
X0248Y03037*
X02479Y03037*
X02479Y03037*
X02479Y03037*
X02478*
X02478*
X02478*
X02478*
X02478Y03037*
X02477Y03037*
X02477Y03037*
X02477Y03036*
X02477Y03036*
X02477Y03036*
X02477Y03036*
X02477Y03036*
X02476Y03035*
X02476Y03035*
X02476Y03034*
Y03034*
X02476Y03034*
Y03034*
Y03034*
Y03034*
Y03033*
Y03033*
X02476Y03033*
Y03032*
Y03032*
Y03031*
Y03031*
X02476Y0303*
Y03029*
Y03028*
Y03023*
X02472*
Y03041*
X02476*
Y03038*
X02476*
X02476Y03039*
X02476Y03039*
X02476Y03039*
X02476Y0304*
X02477Y0304*
X02477Y0304*
X02477Y03041*
X02477Y03041*
X02478Y03041*
X02478Y03041*
X02478Y03041*
X02478Y03041*
X02479*
X02479Y03041*
X02479*
X02479Y03041*
G37*
G36*
X02424Y03023D02*
X02421D01*
Y03026*
Y03026*
X0242Y03025*
X0242Y03025*
X0242Y03025*
X0242Y03024*
X02419Y03024*
X02419Y03024*
X02418Y03023*
X02418*
X02418Y03023*
X02418Y03023*
X02418Y03023*
X02417Y03023*
X02417Y03023*
X02416*
X02416Y03023*
X02415*
X02415Y03023*
X02415*
X02415Y03023*
X02414Y03023*
X02414Y03023*
X02413Y03023*
X02413Y03023*
X02413Y03024*
X02413Y03024*
X02412Y03024*
X02412Y03025*
X02412Y03025*
X02411Y03025*
Y03026*
Y03026*
X02411Y03026*
Y03027*
X02411Y03027*
X02411Y03028*
X02411Y03029*
Y03029*
Y03041*
X02415*
Y03033*
Y03033*
Y03032*
Y03032*
Y03032*
Y03032*
Y03031*
Y03031*
Y0303*
X02415Y03029*
Y03029*
Y03029*
Y03028*
Y03028*
X02415Y03028*
Y03028*
X02415Y03028*
X02415Y03027*
X02416Y03027*
X02416Y03027*
X02416*
X02416Y03027*
X02416Y03026*
X02416Y03026*
X02417Y03026*
X02417*
X02417Y03026*
X02417*
X02418Y03026*
X02418*
X02418Y03026*
X02418Y03026*
X02419Y03027*
X02419Y03027*
X02419*
X02419Y03027*
X02419Y03027*
X02419Y03027*
X0242Y03028*
X0242Y03028*
X0242Y03028*
X0242Y03029*
Y03029*
Y03029*
X0242Y03029*
Y03029*
Y03029*
Y0303*
X0242Y0303*
Y0303*
Y03031*
Y03031*
Y03032*
X0242Y03032*
Y03033*
Y03033*
Y03041*
X02424*
Y03023*
G37*
G36*
X02464Y03071D02*
X02465Y03071D01*
X02465*
X02465Y03071*
X02466Y03071*
X02466Y03071*
X02467Y0307*
X02467Y0307*
X02468Y0307*
X02468Y0307*
X02469Y03069*
X02469Y03069*
X02469Y03068*
Y03068*
X0247Y03068*
X0247Y03068*
X0247Y03068*
X0247Y03067*
X0247Y03067*
X0247Y03067*
X02471Y03066*
X02471Y03066*
X02471Y03065*
X02471Y03064*
X02471Y03063*
X02471Y03063*
Y03062*
Y03062*
Y03062*
Y03062*
Y03061*
Y03061*
Y03061*
X02471Y0306*
X02471Y0306*
X02471Y03059*
X02471Y03058*
X0247Y03057*
X0247Y03057*
X0247Y03057*
Y03057*
X0247Y03056*
X0247Y03056*
X02469Y03055*
X02469Y03055*
X02468Y03054*
X02468Y03054*
X02467Y03054*
X02467Y03053*
X02467Y03053*
X02466Y03053*
X02466Y03053*
X02465Y03053*
X02465Y03053*
X02464*
X02463*
X02463*
X02463*
X02463Y03053*
X02462Y03053*
X02462Y03053*
X02461Y03053*
X02461Y03053*
X0246Y03054*
X0246Y03054*
X02459Y03054*
X02459Y03055*
X02458Y03055*
Y03055*
X02458*
Y03055*
X02458Y03055*
X02458Y03056*
X02458Y03056*
X02458Y03056*
X02457Y03057*
X02457Y03057*
X02457Y03058*
X02457Y03058*
X02457Y03059*
X02456Y0306*
X02456Y0306*
X02456Y03061*
Y03062*
Y03062*
Y03062*
Y03062*
Y03063*
X02456Y03063*
Y03064*
X02457Y03064*
X02457Y03065*
X02457Y03066*
X02457Y03067*
X02457Y03067*
Y03067*
X02457Y03067*
X02458Y03068*
X02458Y03068*
X02458Y03069*
X02459Y03069*
X02459Y0307*
X0246Y0307*
X0246Y0307*
X02461Y0307*
X02461Y03071*
X02462Y03071*
X02462Y03071*
X02463Y03071*
X02464*
X02464*
X02464*
G37*
G36*
X02454Y03067D02*
X02448Y0306D01*
X02447Y03057*
X02447*
X02447*
X02447*
X02447*
X02448Y03057*
X02448*
X02448*
X02455*
Y03053*
X02442*
Y03057*
X02447Y03064*
Y03064*
X02447Y03065*
X02447Y03065*
X02448Y03065*
X02448Y03066*
X02448Y03066*
X02449Y03067*
X02449Y03067*
X02448*
X02448*
X02447*
X02442*
Y03071*
X02454*
Y03067*
G37*
G36*
X02423Y03053D02*
X0242D01*
Y03071*
X02423*
Y03053*
G37*
G36*
X02409Y03077D02*
X0241D01*
X02411Y03077*
X02411*
X02412Y03077*
X02412*
X02412Y03077*
X02412*
X02412Y03077*
X02413Y03077*
X02413Y03077*
X02414Y03076*
X02414Y03076*
X02415Y03075*
X02415Y03075*
Y03075*
X02415Y03075*
Y03074*
X02415Y03074*
Y03074*
X02415Y03074*
X02416Y03073*
X02416Y03073*
X02416Y03072*
X02416Y03071*
X02416Y0307*
Y0307*
Y0307*
Y03069*
X02416Y03069*
Y03069*
Y03068*
X02416Y03068*
X02416Y03067*
X02416Y03066*
X02415Y03065*
Y03065*
X02415Y03065*
X02415Y03065*
X02415Y03064*
X02414Y03064*
X02414Y03064*
X02413Y03063*
X02413Y03063*
X02413Y03063*
X02412*
X02412*
X02412Y03063*
X02412*
X02412Y03063*
X02411Y03063*
X02411Y03062*
X02411*
X0241Y03062*
X0241*
X02409Y03062*
X02409*
X02408Y03062*
X02405*
Y03053*
X02401*
Y03078*
X02408*
X02409Y03077*
G37*
G36*
X02453Y03037D02*
X02448Y0303D01*
X02446Y03027*
X02446Y03027*
X02446*
X02447*
X02447*
X02447*
X02448Y03027*
X02454*
Y03023*
X02441*
Y03027*
X02446Y03034*
X02446*
X02446Y03035*
X02447Y03035*
X02447Y03035*
X02447Y03036*
X02448Y03036*
X02448Y03037*
X02448Y03037*
X02448*
X02448*
X02446*
X02441Y03037*
Y03041*
X02453*
Y03037*
G37*
G36*
X03884Y03684D02*
X03859D01*
Y03688*
X03884*
Y03684*
G37*
G36*
X03873Y03681D02*
X03873D01*
X03873Y03681*
X03874*
X03875Y0368*
X03876Y0368*
X03876Y0368*
X03877Y0368*
X03877*
X03878Y0368*
X03878Y0368*
X03878Y0368*
X03879Y03679*
X03879Y03679*
X0388Y03679*
X03881Y03678*
X03881Y03678*
X03881*
X03881Y03678*
X03882Y03678*
X03882Y03677*
X03882Y03677*
X03883Y03677*
X03883Y03676*
X03883Y03675*
X03883Y03675*
Y03675*
X03883Y03675*
X03883Y03674*
X03884Y03674*
X03884Y03673*
X03884Y03672*
Y03671*
Y03664*
X03859*
Y03671*
Y03671*
Y03671*
Y03672*
Y03672*
Y03672*
X03859Y03673*
Y03673*
X0386Y03674*
X0386Y03675*
X0386Y03675*
Y03675*
X0386Y03676*
X0386Y03676*
X0386Y03676*
X03861Y03677*
X03861Y03677*
X03862Y03678*
X03862Y03678*
Y03678*
X03862Y03678*
X03863Y03678*
X03863Y03679*
X03864Y03679*
X03864Y03679*
X03865Y0368*
X03866Y0368*
X03866Y0368*
X03866*
X03866*
X03867Y0368*
X03867*
X03867Y0368*
X03868Y0368*
X03868*
X03868Y0368*
X03869Y03681*
X03869*
X03871Y03681*
X03872*
X03872*
X03873*
G37*
G36*
X03884Y03657D02*
Y03652D01*
X03865Y03648*
X03884Y03644*
Y0364*
X03859Y03635*
Y03639*
X03876Y03642*
X03859Y03646*
Y03651*
X03876Y03654*
X03859Y03658*
Y03662*
X03884Y03657*
G37*
G36*
X03873Y03711D02*
X03873D01*
X03874Y03711*
X03874Y0371*
X03875Y0371*
X03876Y0371*
X03877Y0371*
X03877Y0371*
X03878Y03709*
X03879Y03709*
X0388Y03709*
X03881Y03708*
X03881Y03708*
X03881Y03708*
X03881Y03708*
X03882Y03707*
X03882Y03707*
X03882Y03707*
X03882Y03706*
X03883Y03706*
X03883Y03705*
X03883Y03705*
X03884Y03704*
X03884Y03704*
X03884Y03703*
X03884Y03702*
X03884Y03702*
Y03701*
Y03701*
Y03701*
Y037*
Y037*
X03884Y037*
Y03699*
X03884Y03699*
X03884Y03698*
X03884Y03698*
X03884Y03697*
X03883Y03697*
X03883Y03696*
X03883Y03696*
X03882Y03695*
X03882Y03695*
X03881Y03694*
X03881Y03694*
X03881Y03694*
X03881Y03694*
X0388Y03693*
X0388Y03693*
X03879Y03693*
X03879Y03693*
X03878Y03692*
X03877Y03692*
X03877Y03692*
X03876Y03692*
X03875Y03691*
X03874Y03691*
X03873Y03691*
X03872*
X03871*
X03871*
X03871*
X0387*
X0387Y03691*
X03869*
X03868Y03691*
X03867Y03692*
X03866Y03692*
X03865Y03692*
X03864Y03692*
X03864Y03692*
X03864Y03693*
X03864Y03693*
X03864Y03693*
X03864Y03693*
X03863Y03693*
X03862Y03694*
X03862Y03694*
X03861Y03695*
X0386Y03696*
Y03696*
X0386*
Y03696*
X0386Y03696*
X0386Y03696*
X0386Y03697*
X0386Y03697*
X0386Y03697*
X03859Y03698*
X03859Y03699*
X03859Y037*
X03859Y03701*
Y03701*
Y03701*
Y03702*
X03859Y03702*
X03859Y03702*
X03859Y03703*
X03859Y03703*
X03859Y03704*
X0386Y03705*
X0386Y03705*
X0386Y03706*
X03861Y03706*
X03861Y03707*
X03862Y03707*
X03862Y03708*
Y03708*
X03862*
X03862Y03708*
X03863Y03708*
X03863Y03709*
X03864Y03709*
X03864Y03709*
X03865Y03709*
X03865Y0371*
X03866Y0371*
X03867Y0371*
X03868Y0371*
X03868Y0371*
X03869Y03711*
X0387Y03711*
X03872*
X03872*
X03873*
G37*
G36*
X02439Y03037D02*
X02434Y0303D01*
X02432Y03027*
X02432*
X02432Y03027*
X02432*
X02433*
X02433*
X02433*
X02434Y03027*
X0244*
Y03023*
X02427*
Y03027*
X02432Y03034*
X02432*
X02432Y03035*
X02433Y03035*
X02433Y03035*
X02433Y03036*
X02434Y03036*
X02434Y03037*
X02434Y03037*
X02434*
X02433*
X02432*
X02427Y03037*
Y03041*
X02439*
Y03037*
G37*
G36*
X024Y03048D02*
X02401D01*
X02401Y03047*
X02402Y03047*
X02403Y03047*
X02403Y03047*
X02403Y03047*
X02403*
X02404Y03047*
X02404Y03047*
X02404Y03046*
X02405Y03046*
X02405Y03046*
X02405Y03045*
X02406Y03045*
Y03045*
X02406Y03045*
X02406Y03044*
X02406Y03044*
X02406Y03043*
X02406Y03043*
X02407Y03042*
X02407Y03041*
Y03041*
Y03041*
X02407Y03041*
X02406Y0304*
Y0304*
X02406Y03039*
X02406Y03039*
X02406Y03038*
X02406Y03038*
X02406Y03038*
X02405Y03038*
X02405Y03037*
X02405Y03037*
X02405Y03037*
X02404Y03036*
X02404Y03036*
X02404Y03036*
X02404Y03036*
X02405Y03036*
X02405Y03035*
X02406Y03035*
X02406Y03034*
X02407Y03034*
X02407Y03034*
X02407Y03034*
X02407Y03033*
X02407Y03033*
X02407Y03032*
X02407Y03032*
X02408Y03031*
Y0303*
Y0303*
Y0303*
Y0303*
Y03029*
Y03029*
X02407Y03029*
X02407Y03028*
X02407Y03027*
X02407Y03026*
X02406Y03026*
Y03025*
X02406Y03025*
X02406Y03025*
X02405Y03025*
X02405Y03024*
X02404Y03024*
X02404Y03023*
X02403Y03023*
X02403*
X02403*
X02403*
X02403*
X02403*
X02402Y03023*
X02402*
X02402Y03023*
X02401*
X02401*
X024*
X024*
X02399Y03023*
X02391*
Y03048*
X024*
X024*
G37*
G36*
X02463Y03041D02*
X02463D01*
X02463*
X02464Y03041*
X02465Y03041*
X02465Y0304*
X02465Y0304*
X02466Y0304*
X02466Y0304*
X02467Y03039*
X02467Y03039*
X02467Y03039*
X02467Y03039*
X02467Y03038*
X02467Y03038*
X02468Y03038*
X02468Y03037*
X02468Y03037*
X02468Y03036*
X02468Y03036*
X02469Y03035*
X02469Y03034*
X02469Y03034*
X02469Y03033*
Y03032*
Y03031*
Y03031*
X02459*
Y0303*
Y0303*
Y0303*
Y0303*
X02459Y03029*
X0246Y03029*
X0246Y03028*
X0246Y03028*
X0246Y03027*
X0246Y03027*
X02461Y03027*
X02461Y03027*
X02461Y03026*
X02462Y03026*
X02462Y03026*
X02462*
X02463*
X02463*
X02463Y03026*
X02463Y03026*
X02464Y03027*
X02464Y03027*
X02464Y03027*
X02464Y03027*
X02464Y03027*
X02465Y03028*
X02465Y03028*
X02465Y03029*
X02469Y03028*
X02469Y03028*
Y03028*
X02469Y03027*
X02469Y03027*
X02468Y03027*
X02468Y03026*
X02468Y03026*
X02467Y03025*
X02467Y03024*
X02466Y03024*
X02466*
X02466Y03024*
X02466Y03023*
X02465Y03023*
X02465Y03023*
X02464Y03023*
X02463Y03023*
X02462Y03023*
X02462*
X02462Y03023*
X02462*
X02461*
X02461Y03023*
X0246Y03023*
X02459Y03023*
X02459Y03023*
X02459Y03024*
X02458Y03024*
X02458Y03024*
X02457Y03025*
X02457*
Y03025*
X02457Y03025*
X02457Y03025*
X02457Y03025*
X02457Y03026*
X02457Y03026*
X02456Y03027*
X02456Y03027*
X02456Y03028*
X02456Y03028*
X02456Y03029*
X02456Y03029*
X02455Y0303*
X02455Y03031*
Y03032*
Y03032*
Y03032*
Y03032*
Y03033*
X02455Y03033*
Y03033*
X02456Y03034*
Y03034*
X02456Y03035*
X02456Y03036*
X02456Y03037*
X02456Y03037*
X02457Y03038*
X02457Y03038*
X02457Y03039*
Y03039*
X02458Y03039*
X02458Y03039*
X02458Y03039*
X02458Y0304*
X02459Y0304*
X02459Y0304*
X0246Y03041*
X02461Y03041*
X02461Y03041*
X02462*
X02462Y03041*
X02462*
X02463Y03041*
G37*
G36*
X03904Y03029D02*
X039D01*
X03891Y03047*
Y03029*
X03886*
Y03057*
X03891*
X039Y03038*
Y03057*
X03904*
Y03029*
G37*
G36*
X02813Y03393D02*
X02835D01*
Y03389*
X02813*
Y03382*
X02808*
Y034*
X02813*
Y03393*
G37*
G36*
X02824Y03379D02*
X02825D01*
X02826*
X02827Y03379*
X02828Y03379*
X02829Y03379*
X02829Y03379*
X0283*
X02831Y03378*
X02831*
X02831*
X02831Y03378*
X02831Y03378*
X02832Y03378*
X02833Y03378*
X02833Y03377*
X02834Y03377*
X02834Y03376*
X02835Y03376*
Y03376*
X02835Y03375*
X02835Y03375*
X02835Y03375*
X02835Y03375*
X02835Y03374*
X02835Y03374*
X02836Y03373*
X02836Y03372*
X02836Y0337*
Y0337*
Y0337*
X02836Y0337*
Y0337*
Y03369*
X02836Y03368*
X02836Y03368*
X02835Y03367*
X02835Y03366*
X02835Y03365*
Y03365*
X02834Y03365*
X02834Y03364*
X02834Y03364*
X02833Y03363*
X02833Y03363*
X02832Y03363*
X02831Y03362*
X02831*
X02831*
X02831Y03362*
X02831*
X0283Y03362*
X0283Y03362*
X0283*
X02829Y03362*
X02829Y03362*
X02828*
X02827Y03362*
X02827Y03361*
X02826*
X02825Y03361*
X02824*
X02808*
Y03366*
X02824*
X02825*
X02826*
X02826*
X02827Y03366*
X02827*
X02828*
X02828Y03366*
X02828Y03366*
X02829Y03366*
X02829Y03366*
X02829Y03367*
X0283Y03367*
X0283Y03367*
X0283Y03367*
X0283Y03368*
X02831Y03368*
X02831Y03368*
X02831Y03369*
X02831Y03369*
X02831Y0337*
Y0337*
Y0337*
Y03371*
Y03371*
X02831Y03371*
X02831Y03372*
X02831Y03372*
X02831Y03372*
X02831Y03373*
Y03373*
X0283Y03373*
X0283Y03373*
X0283Y03373*
X0283Y03374*
X02829Y03374*
X02829Y03374*
X02829Y03374*
X02829*
X02828Y03374*
X02828*
X02828Y03374*
X02828*
X02828*
X02827Y03374*
X02827*
X02826Y03375*
X02826*
X02825*
X02825*
X02808*
Y03379*
X02824*
X02824*
G37*
G36*
X02828Y03358D02*
X02828D01*
X02829*
X02829Y03357*
X0283Y03357*
X02831Y03357*
X02832Y03357*
X02833Y03356*
X02833Y03356*
X02833Y03356*
X02833Y03356*
X02834Y03355*
X02834Y03355*
X02835Y03354*
X02835Y03353*
X02835Y03353*
X02835Y03353*
Y03353*
Y03352*
Y03352*
Y03352*
X02835Y03351*
Y03351*
Y03351*
X02835Y0335*
Y0335*
Y03349*
Y03348*
Y03347*
Y03346*
Y03339*
X02808*
Y03348*
Y03348*
Y03348*
Y03348*
Y03349*
X02808Y03349*
Y0335*
X02809Y03351*
X02809Y03352*
X02809Y03352*
X02809Y03353*
X02809Y03353*
X02809Y03353*
Y03353*
X02809Y03354*
X0281Y03354*
X0281Y03354*
X0281Y03355*
X02811Y03355*
X02811Y03355*
X02812Y03356*
X02812Y03356*
X02812Y03356*
X02813Y03356*
X02813Y03356*
X02814Y03356*
X02814Y03356*
X02815Y03357*
X02816*
X02816Y03356*
X02816Y03356*
X02817*
X02818Y03356*
X02818Y03356*
X02819Y03356*
X02819Y03356*
X02819Y03355*
X02819Y03355*
X0282Y03355*
X0282Y03355*
X0282Y03354*
X02821Y03354*
X02821Y03353*
X02821Y03353*
X02821Y03354*
X02821Y03354*
X02822Y03355*
X02822Y03355*
X02822Y03356*
X02823Y03356*
X02824Y03356*
Y03357*
X02824Y03357*
X02824Y03357*
X02825Y03357*
X02825Y03357*
X02826Y03357*
X02827Y03358*
X02828*
X02828*
X02828*
G37*
G36*
X02813Y03412D02*
X02835D01*
Y03408*
X02813*
Y03401*
X02808*
Y03419*
X02813*
Y03412*
G37*
G36*
X03921Y03263D02*
X03915Y0326D01*
X03915*
X03915*
X03915Y0326*
X03914Y0326*
X03914Y03259*
X03914Y03259*
X03913Y03259*
X03913Y03259*
X03912Y03258*
X03912Y03258*
X03911Y03258*
X03911Y03258*
X03911Y03257*
X03911Y03257*
X03911Y03257*
X03911Y03257*
X0391Y03257*
X0391Y03256*
X0391Y03256*
X0391Y03256*
Y03256*
X0391Y03256*
X0391Y03255*
Y03255*
Y03254*
Y03254*
Y03253*
X03921*
Y03249*
X03894*
Y03258*
Y03258*
Y03258*
Y03259*
Y03259*
Y03259*
Y0326*
X03894Y03261*
X03894Y03262*
X03894Y03263*
X03894Y03263*
X03894Y03263*
X03895Y03263*
Y03263*
X03895Y03264*
X03895Y03264*
X03895Y03265*
X03896Y03265*
X03896Y03265*
X03897Y03266*
X03897*
X03897Y03266*
X03898Y03266*
X03898Y03266*
X03899Y03266*
X039Y03267*
X039Y03267*
X03901*
X03902*
X03902*
X03902*
X03902Y03267*
X03903Y03267*
X03904Y03266*
X03905Y03266*
X03906Y03266*
X03906Y03265*
X03907*
X03907Y03265*
X03907Y03265*
X03907Y03264*
X03908Y03263*
X03908Y03263*
X03909Y03262*
X03909Y03261*
X03909Y03261*
X03909Y03261*
X03909Y03261*
X0391Y03262*
X0391Y03262*
X0391Y03262*
X03911Y03263*
X03911Y03263*
X03911Y03263*
X03912Y03264*
X03912Y03264*
X03913Y03264*
X03913Y03264*
X03914Y03265*
X03914Y03265*
X03914Y03265*
X03915Y03266*
X03916Y03266*
X03921Y03269*
Y03263*
G37*
G36*
X02835Y03459D02*
X02818Y0345D01*
X02835*
Y03446*
X02808*
Y0345*
X02827Y03459*
X02808*
Y03464*
X02835*
Y03459*
G37*
G36*
X02823Y03442D02*
X02824D01*
X02824Y03442*
X02825Y03442*
X02826Y03442*
X02827Y03442*
X02828Y03442*
X02828Y03441*
X02829Y03441*
X0283Y03441*
X02831Y0344*
X02832Y0344*
X02833Y03439*
X02833*
X02833Y03439*
X02833Y03439*
X02833Y03439*
X02833Y03438*
X02834Y03438*
X02834Y03438*
X02834Y03437*
X02835Y03437*
X02835Y03436*
X02835Y03436*
X02835Y03435*
X02836Y03434*
X02836Y03433*
X02836Y03433*
X02836Y03432*
Y03432*
Y03431*
X02836Y03431*
Y03431*
Y0343*
X02836Y0343*
X02836Y03429*
X02836Y03429*
X02835Y03428*
X02835Y03428*
X02835Y03427*
X02835Y03426*
X02834Y03426*
X02834Y03425*
X02833Y03425*
X02833Y03424*
X02833*
X02832Y03424*
X02832Y03424*
X02832Y03424*
X02832Y03423*
X02831Y03423*
X0283Y03423*
X0283Y03422*
X02829Y03422*
X02828Y03422*
X02828Y03422*
X02827Y03421*
X02826Y03421*
X02825Y03421*
X02823Y03421*
X02822*
X02822*
X02821*
X02821*
X0282Y03421*
X0282*
X02819*
X02818Y03421*
X02817Y03421*
X02815Y03422*
X02815Y03422*
X02814Y03422*
X02814Y03422*
X02814*
X02814Y03423*
X02813Y03423*
X02813Y03423*
X02812Y03423*
X02812Y03424*
X02811Y03424*
X0281Y03425*
X0281Y03426*
Y03426*
X02809*
X02809Y03426*
X02809Y03426*
X02809Y03427*
X02809Y03427*
X02809Y03427*
X02809Y03428*
X02808Y03428*
X02808Y03429*
X02808Y0343*
X02808Y03432*
Y03432*
Y03432*
Y03432*
X02808Y03433*
X02808Y03433*
X02808Y03434*
X02808Y03434*
X02809Y03435*
X02809Y03436*
X02809Y03436*
X02809Y03437*
X0281Y03438*
X0281Y03438*
X02811Y03439*
X02812Y03439*
X02812Y03439*
X02812Y0344*
X02812Y0344*
X02812Y0344*
X02813Y0344*
X02813Y0344*
X02814Y03441*
X02814Y03441*
X02815Y03441*
X02816Y03441*
X02817Y03442*
X02817Y03442*
X02818Y03442*
X0282Y03442*
X02821Y03442*
X02822Y03442*
X02823*
X02823Y03442*
G37*
G36*
X0284Y03319D02*
X02838D01*
Y03337*
X0284*
Y03319*
G37*
G36*
X04535Y03083D02*
X04547D01*
Y03073*
X04535*
Y03059*
X04527*
Y03073*
X04515*
Y03083*
X04527*
Y03098*
X04535*
Y03083*
G37*
G36*
X02029Y03069D02*
X02018D01*
Y0309*
X02029*
Y03069*
G37*
G36*
X04534Y03634D02*
X04523D01*
Y03655*
X04534*
Y03634*
G37*
G36*
X02027Y03655D02*
X02039D01*
Y03645*
X02027*
Y03631*
X02019*
Y03645*
X02007*
Y03655*
X02019*
Y0367*
X02027*
Y03655*
G37*
G36*
X02835Y03301D02*
X02808D01*
Y03317*
X02813*
Y03305*
X02819*
Y03317*
X02824*
Y03305*
X02831*
Y03318*
X02835*
Y03301*
G37*
G36*
Y03282D02*
X02809D01*
Y03287*
X02831*
Y03298*
X02835*
Y03282*
G37*
G36*
X02828Y03278D02*
X02828D01*
X02829*
X02829Y03278*
X0283Y03278*
X02831Y03278*
X02832Y03277*
X02833Y03277*
X02833Y03277*
X02833Y03277*
X02833Y03276*
X02834Y03276*
X02834Y03275*
X02835Y03275*
X02835Y03274*
X02835Y03273*
X02835Y03273*
Y03273*
Y03273*
Y03273*
Y03272*
X02835Y03272*
Y03272*
Y03271*
X02835Y03271*
Y0327*
Y03269*
Y03269*
Y03268*
Y03267*
Y0326*
X02808*
Y03268*
Y03269*
Y03269*
Y03269*
Y03269*
X02808Y0327*
Y0327*
X02809Y03271*
X02809Y03272*
X02809Y03273*
X02809Y03273*
X02809Y03274*
X02809Y03274*
Y03274*
X02809Y03274*
X0281Y03274*
X0281Y03275*
X0281Y03275*
X02811Y03276*
X02811Y03276*
X02812Y03276*
X02812Y03276*
X02812Y03276*
X02813Y03277*
X02813Y03277*
X02814Y03277*
X02814Y03277*
X02815Y03277*
X02816*
X02816Y03277*
X02816Y03277*
X02817*
X02818Y03277*
X02818Y03277*
X02819Y03276*
X02819Y03276*
X02819Y03276*
X02819Y03276*
X0282Y03276*
X0282Y03275*
X0282Y03275*
X02821Y03274*
X02821Y03274*
X02821Y03274*
X02821Y03274*
X02821Y03275*
X02822Y03275*
X02822Y03276*
X02822Y03276*
X02823Y03277*
X02824Y03277*
Y03277*
X02824Y03277*
X02824Y03277*
X02825Y03278*
X02825Y03278*
X02826Y03278*
X02827Y03278*
X02828*
X02828*
X02828*
G37*
G36*
X038Y03057D02*
X038D01*
X03801Y03056*
X03802Y03056*
X03803Y03056*
X03804Y03056*
X03804Y03056*
X03804Y03056*
Y03056*
X03805Y03056*
X03805Y03055*
X03805Y03055*
X03806Y03055*
X03806Y03054*
X03807Y03054*
X03807Y03053*
X03807*
X03807Y03053*
X03807Y03053*
X03807Y03052*
X03808Y03051*
X03808Y03051*
X03808Y0305*
Y03049*
Y03049*
Y03049*
Y03048*
Y03048*
X03808Y03048*
X03808Y03047*
X03808Y03046*
X03807Y03045*
X03807Y03045*
X03806Y03044*
Y03044*
X03806*
X03806Y03043*
X03806Y03043*
X03805Y03043*
X03805Y03042*
X03804Y03042*
X03803Y03042*
X03802Y03041*
X03802Y03041*
X03802Y03041*
X03803Y03041*
X03803Y03041*
X03803Y0304*
X03804Y0304*
X03804Y0304*
X03804Y03039*
Y03039*
X03805Y03039*
X03805Y03039*
X03805Y03038*
X03805Y03038*
X03806Y03037*
X03806Y03037*
X03806Y03036*
X03806Y03036*
X03807Y03035*
X03807Y03035*
X0381Y03029*
X03804*
X03801Y03035*
X03801Y03036*
X03801Y03036*
X03801Y03036*
X03801Y03036*
X03801Y03036*
X038Y03037*
X038Y03038*
X03799Y03038*
X03799Y03039*
X03799Y03039*
X03799Y03039*
X03799Y03039*
X03799*
X03799Y03039*
X03798Y0304*
X03798Y0304*
X03798Y0304*
X03798Y0304*
X03797Y0304*
X03797*
X03797Y03041*
X03797Y03041*
X03797*
X03796Y03041*
X03796*
X03794*
Y03029*
X0379*
Y03057*
X038*
X038*
G37*
G36*
X03898Y03465D02*
X03921D01*
Y03461*
X03898*
Y03454*
X03894*
Y03472*
X03898*
Y03465*
G37*
G36*
X03921Y03448D02*
X03912Y03443D01*
X03921Y03438*
Y03433*
X03907Y0344*
X03894Y03433*
Y03439*
X03902Y03443*
X03894Y03447*
Y03453*
X03907Y03446*
X03921Y03453*
Y03448*
G37*
G36*
X03821Y03057D02*
X03821D01*
X03822Y03056*
X03823*
X03824Y03056*
X03824Y03056*
X03825Y03056*
X03825*
X03825Y03056*
X03826Y03056*
X03826Y03055*
X03826Y03055*
X03827Y03055*
X03827Y03054*
X03828Y03054*
Y03053*
X03828Y03053*
X03828Y03053*
X03829Y03052*
X03829Y03052*
X03829Y03051*
X0383Y0305*
X0383Y03049*
Y03049*
X0383Y03049*
Y03049*
Y03049*
X0383Y03048*
X0383Y03048*
X0383Y03047*
Y03047*
X03831Y03047*
X03831Y03046*
Y03045*
X03831Y03044*
Y03043*
Y03043*
Y03043*
Y03042*
Y03042*
Y03042*
Y03041*
Y03041*
Y03041*
X03831Y0304*
X0383Y03039*
X0383Y03038*
X0383Y03037*
Y03037*
Y03036*
Y03036*
X0383Y03036*
X0383Y03036*
X03829Y03035*
X03829Y03034*
X03829Y03034*
X03828Y03033*
X03828Y03032*
Y03032*
X03828Y03032*
X03827Y03032*
X03827Y03032*
X03827Y03031*
X03826Y03031*
X03826Y03031*
X03825Y0303*
X03825Y0303*
X03825*
X03824Y0303*
X03824Y0303*
X03823Y0303*
X03822Y0303*
X03822*
X03821Y03029*
X03812*
Y03057*
X03821*
X03821*
G37*
G36*
X03842Y03037D02*
X03833D01*
Y03042*
X03842*
Y03037*
G37*
G36*
X03946Y03052D02*
X03934D01*
Y03046*
X03945*
Y03041*
X03934*
Y03034*
X03946*
Y03029*
X0393*
Y03057*
X03946*
Y03052*
G37*
G36*
X03882D02*
X0387D01*
Y03046*
X03881*
Y03041*
X0387*
Y03034*
X03883*
Y03029*
X03866*
Y03057*
X03882*
Y03052*
G37*
G36*
X03921Y03414D02*
X03894D01*
Y03431*
X03898*
Y03419*
X03904*
Y0343*
X03909*
Y03419*
X03916*
Y03431*
X03921*
Y03414*
G37*
G36*
X03926Y03315D02*
X03924D01*
Y03333*
X03926*
Y03315*
G37*
G36*
X03913Y03314D02*
X03914D01*
X03914Y03314*
X03915Y03314*
X03915Y03313*
X03916Y03313*
X03917Y03313*
X03918Y03312*
X03918*
Y03312*
X03918Y03312*
X03919Y03312*
X03919Y03311*
X03919Y03311*
X0392Y0331*
X0392Y0331*
X0392Y03309*
Y03309*
X03921Y03309*
Y03309*
Y03308*
Y03308*
X03921Y03308*
Y03308*
Y03307*
Y03307*
X03921Y03306*
Y03306*
Y03305*
X03921Y03304*
Y03304*
Y03303*
Y03295*
X03894*
Y03304*
Y03304*
Y03304*
Y03305*
Y03305*
Y03305*
Y03306*
X03894Y03307*
X03894Y03308*
X03894Y03308*
X03894Y03309*
X03894Y03309*
X03894Y03309*
X03895Y03309*
X03895Y0331*
X03895Y0331*
X03895Y0331*
X03896Y03311*
X03896Y03311*
X03897Y03312*
X03897*
X03897Y03312*
X03897Y03312*
X03898Y03312*
X03898Y03312*
X03899Y03313*
X039Y03313*
X03901*
X03901*
X03901*
X03902Y03313*
X03902Y03312*
X03903Y03312*
X03903Y03312*
X03904Y03312*
X03904*
X03904Y03312*
X03905Y03311*
X03905Y03311*
X03905Y03311*
X03906Y0331*
X03906Y0331*
X03906Y0331*
X03907Y0331*
X03907Y0331*
X03907Y03311*
X03907Y03311*
X03908Y03312*
X03908Y03312*
X03909Y03313*
X03909*
X03909Y03313*
X03909Y03313*
X0391Y03313*
X03911Y03313*
X03911Y03314*
X03912Y03314*
X03913*
X03913*
X03913*
G37*
G36*
X03917Y03291D02*
X03917Y03291D01*
X03918Y0329*
X03918Y0329*
X03919Y03289*
X03919Y03289*
X0392Y03288*
X0392Y03287*
Y03287*
Y03287*
X0392Y03287*
X0392Y03286*
X0392Y03286*
X0392Y03286*
X03921Y03285*
X03921Y03284*
X03921Y03283*
X03921Y03282*
Y03281*
Y03281*
Y03281*
Y03281*
Y03281*
Y03281*
X03921Y0328*
Y0328*
X03921Y03279*
X03921Y03279*
X03921Y03278*
X0392Y03277*
X0392Y03276*
Y03276*
X0392Y03275*
X03919Y03275*
X03919Y03275*
X03919Y03275*
X03918Y03274*
X03918Y03274*
X03917Y03273*
X03916Y03272*
X03915Y03272*
X03915Y03272*
X03915Y03271*
X03914Y03271*
X03914Y03271*
X03914Y03271*
X03913Y03271*
X03913Y03271*
X03912Y03271*
X03912Y03271*
X03911Y0327*
X0391*
X03909Y0327*
X03907Y0327*
X03907*
X03907Y0327*
X03906*
X03906*
X03905*
X03905Y0327*
X03903Y03271*
X03902Y03271*
X03901Y03271*
X039Y03272*
X039*
X03899Y03272*
X03899Y03272*
X03899Y03272*
X03899Y03272*
X03899Y03272*
X03898Y03273*
X03897Y03273*
X03896Y03274*
X03896Y03275*
X03895Y03275*
Y03276*
X03895Y03276*
Y03276*
X03895Y03276*
X03895Y03276*
X03894Y03276*
X03894Y03277*
X03894Y03277*
X03894Y03278*
X03894Y03279*
X03893Y0328*
X03893Y03281*
Y03281*
Y03281*
Y03282*
X03893Y03282*
Y03282*
Y03283*
X03893Y03283*
X03894Y03283*
X03894Y03285*
X03894Y03286*
X03894Y03286*
X03895Y03287*
X03895Y03287*
X03895Y03288*
Y03288*
X03896Y03288*
X03896Y03288*
X03896Y03288*
X03896Y03288*
X03896Y03289*
X03897Y03289*
X03897Y03289*
X03898Y03289*
X03898Y0329*
X03899Y0329*
X03899Y0329*
X039Y0329*
X03901Y03291*
X03901Y03291*
X03902Y03286*
X03902Y03286*
X03902Y03286*
X03901Y03286*
X03901Y03286*
X039Y03285*
X039Y03285*
X03899Y03284*
X03899Y03284*
X03899Y03284*
X03899Y03284*
X03898Y03283*
X03898Y03283*
X03898Y03282*
X03898Y03281*
Y03281*
Y03281*
X03898Y03281*
Y03281*
Y0328*
X03898Y0328*
X03899Y03279*
X03899Y03278*
X03899Y03278*
X03899Y03277*
X039Y03277*
X039Y03277*
X039Y03276*
X039*
X03901Y03276*
X03901Y03276*
X03901Y03276*
X03901Y03276*
X03902Y03276*
X03902Y03276*
X03903Y03275*
X03903Y03275*
X03904Y03275*
X03905Y03275*
X03905Y03275*
X03906*
X03907*
X03907*
X03908*
X03908*
X03909Y03275*
X03909*
X0391Y03275*
X03911Y03275*
X03912Y03276*
X03913Y03276*
X03914Y03276*
X03914Y03277*
Y03277*
X03915Y03277*
X03915Y03277*
X03915Y03278*
X03916Y03279*
X03916Y03279*
X03916Y0328*
X03917Y03281*
Y03281*
Y03281*
Y03281*
Y03282*
X03916Y03282*
Y03282*
X03916Y03283*
X03916Y03283*
X03916Y03284*
Y03284*
X03916Y03284*
X03916Y03284*
X03916Y03285*
X03915Y03285*
X03915Y03286*
X03915Y03286*
X03914Y03286*
X03911*
Y03281*
X03906*
Y03291*
X03917*
X03917Y03291*
G37*
G36*
X03921Y03335D02*
X03894D01*
Y03339*
X03916*
Y03351*
X03921*
Y03335*
G37*
G36*
X03926Y03394D02*
X03924D01*
Y03412*
X03926*
Y03394*
G37*
G36*
X03908Y03393D02*
X03909D01*
X03909Y03393*
X0391*
X03911Y03393*
X03912Y03393*
X03913Y03393*
X03914Y03392*
X03914*
X03914*
X03914Y03392*
X03914Y03392*
X03915Y03392*
X03915Y03392*
X03916Y03392*
X03917Y03391*
X03917Y03391*
X03918Y0339*
Y0339*
X03918Y0339*
X03918Y0339*
X03919Y0339*
X03919Y03389*
X03919Y03389*
X0392Y03388*
X0392Y03387*
Y03387*
X0392Y03387*
X0392Y03387*
X0392Y03386*
X03921Y03386*
X03921Y03385*
X03921Y03384*
X03921Y03383*
Y03375*
X03894*
Y03383*
Y03383*
Y03383*
Y03383*
Y03383*
Y03383*
Y03384*
Y03384*
X03894Y03385*
X03894Y03386*
X03894Y03387*
X03894Y03387*
Y03387*
X03895Y03388*
X03895Y03388*
X03895Y03388*
X03895Y03389*
X03896Y03389*
X03896Y0339*
X03897Y0339*
X03897Y0339*
X03897Y03391*
X03897Y03391*
X03898Y03391*
X03899Y03391*
X03899Y03392*
X039Y03392*
X03901Y03392*
X03901Y03392*
X03901*
X03902Y03393*
X03902*
X03902Y03393*
X03902Y03393*
X03903*
X03903Y03393*
X03904Y03393*
X03904*
X03905Y03393*
X03906Y03393*
X03908*
X03908*
X03908*
G37*
G36*
X03921Y03354D02*
X03894D01*
Y0337*
X03898*
Y03358*
X03904*
Y03369*
X03909*
Y03358*
X03916*
Y03371*
X03921*
Y03354*
G37*
G36*
X0432Y03451D02*
X04321D01*
X04322Y03451*
X04322Y03451*
X04323Y03451*
X04324Y03451*
X04325Y0345*
X04325Y0345*
X04326Y0345*
X04327Y0345*
X04328Y03449*
X04328Y03449*
X04329Y03448*
X04329Y03448*
X04329Y03448*
X0433Y03448*
X0433Y03447*
X0433Y03447*
X0433Y03447*
X04331Y03446*
X04331Y03446*
X04331Y03445*
X04331Y03445*
X04332Y03444*
X04332Y03444*
X04332Y03443*
X04332Y03442*
Y03441*
Y03441*
Y03441*
Y03441*
Y03441*
X04332Y0344*
Y0344*
X04332Y03439*
X04332Y03439*
X04332Y03438*
X04331Y03438*
X04331Y03437*
X04331Y03437*
X04331Y03436*
X0433Y03435*
X0433Y03435*
X04329Y03434*
X04329Y03434*
X04329Y03434*
X04329Y03434*
X04328Y03434*
X04328Y03433*
X04327Y03433*
X04327Y03433*
X04326Y03433*
X04325Y03432*
X04325Y03432*
X04324Y03432*
X04323Y03432*
X04322Y03432*
X04321Y03432*
X0432*
X04319*
X04319*
X04319*
X04318*
X04318Y03432*
X04317*
X04316Y03432*
X04315Y03432*
X04314Y03432*
X04313Y03433*
X04312Y03433*
X04312*
X04312Y03433*
X04312Y03433*
X04312Y03433*
X04312Y03433*
X04311Y03433*
X04311Y03434*
X0431Y03434*
X04309Y03435*
X04309Y03435*
X04308Y03436*
Y03436*
X04308Y03436*
X04308Y03437*
X04308Y03437*
X04308Y03437*
X04308Y03437*
X04307Y03438*
X04307Y03438*
X04307Y03439*
X04307Y0344*
X04307Y03441*
Y03441*
Y03442*
Y03442*
X04307Y03442*
X04307Y03443*
X04307Y03443*
X04307Y03444*
X04307Y03444*
X04308Y03445*
X04308Y03446*
X04308Y03446*
X04309Y03447*
X04309Y03447*
X04309Y03448*
X0431Y03448*
X0431*
X0431Y03448*
X0431Y03449*
X04311Y03449*
X04311Y03449*
X04311Y03449*
X04312Y03449*
X04312Y0345*
X04313Y0345*
X04314Y0345*
X04315Y0345*
X04315Y03451*
X04316Y03451*
X04317Y03451*
X04318Y03451*
X04319*
X0432*
X0432*
G37*
G36*
X04311Y03424D02*
X04332D01*
Y0342*
X04311*
Y03414*
X04307*
Y0343*
X04311*
Y03424*
G37*
G36*
Y03407D02*
X04332D01*
Y03402*
X04311*
Y03396*
X04307*
Y03413*
X04311*
Y03407*
G37*
G36*
X02629Y03035D02*
X02623Y03027D01*
X02621Y03024*
X02621*
X02622*
X02622*
X02622Y03025*
X02623*
X02623*
X02623*
X02629*
Y0302*
X02616*
Y03024*
X02622Y03032*
Y03032*
X02622*
X02622Y03032*
X02622Y03032*
X02623Y03033*
X02623Y03033*
X02623Y03034*
X02624Y03034*
X02624Y03034*
X02623*
X02623Y03034*
X02622*
X02617*
Y03038*
X02629*
Y03035*
G37*
G36*
X04332Y03466D02*
X04316Y03458D01*
X04332*
Y03454*
X04307*
Y03458*
X04324Y03467*
X04307*
Y0347*
X04332*
Y03466*
G37*
G36*
X02643Y03035D02*
X02637Y03027D01*
X02635Y03024*
X02636*
X02636*
X02636*
X02636Y03025*
X02637*
X02637*
X02637*
X02644*
Y0302*
X0263*
Y03024*
X02636Y03032*
Y03032*
X02636*
X02636Y03032*
X02636Y03032*
X02637Y03033*
X02637Y03033*
X02637Y03034*
X02638Y03034*
X02638Y03034*
X02637*
X02637Y03034*
X02636*
X02631*
Y03038*
X02643*
Y03035*
G37*
G36*
X04322Y03394D02*
X04322D01*
X04323*
X04324Y03393*
X04325Y03393*
X04326*
X04326Y03393*
X04327Y03393*
X04327Y03393*
X04327*
X04327Y03393*
X04328*
X04328Y03393*
X04329Y03393*
X04329Y03392*
X0433Y03392*
X0433Y03391*
X04331Y03391*
Y03391*
X04331Y0339*
X04331Y0339*
X04331Y0339*
X04331Y0339*
X04331Y0339*
X04331Y03389*
X04332Y03389*
X04332Y03388*
X04332Y03387*
X04332Y03386*
Y03386*
Y03385*
Y03385*
Y03385*
X04332Y03385*
Y03384*
X04332Y03383*
X04332Y03382*
X04331Y03382*
X04331Y03381*
Y03381*
X04331Y03381*
X04331Y0338*
X0433Y0338*
X0433Y03379*
X04329Y03379*
X04329Y03379*
X04328Y03378*
X04328*
X04328Y03378*
X04327*
X04327Y03378*
X04327Y03378*
X04327*
X04326Y03378*
X04326*
X04325Y03378*
X04324Y03378*
X04324*
X04323Y03378*
X04322*
X04321Y03377*
X04307*
Y03382*
X04322*
X04322Y03382*
X04323*
X04324*
X04324*
X04324*
X04325Y03382*
X04325*
X04325Y03382*
X04325Y03382*
X04326Y03382*
X04326Y03382*
X04327Y03383*
X04327Y03383*
Y03383*
X04327Y03383*
X04327Y03383*
X04327Y03384*
X04328Y03384*
X04328Y03385*
X04328Y03385*
X04328Y03386*
Y03386*
Y03386*
X04328Y03386*
Y03387*
X04328Y03387*
X04328Y03387*
X04328Y03388*
X04327Y03388*
Y03388*
X04327Y03388*
X04327Y03388*
X04327Y03388*
X04327Y03389*
X04326Y03389*
X04326Y03389*
X04326Y03389*
X04325Y03389*
X04325*
X04325*
X04325Y03389*
X04325*
X04324*
X04324Y03389*
X04324*
X04323*
X04323Y0339*
X04322*
X04307*
Y03394*
X04321*
X04322Y03394*
G37*
G36*
X04336Y03339D02*
X04334D01*
Y03355*
X04336*
Y03339*
G37*
G36*
X02614Y0302D02*
X0261D01*
Y03023*
Y03023*
X0261Y03023*
X0261Y03023*
X0261Y03022*
X02609Y03022*
X02609Y03022*
X02609Y03021*
X02608Y03021*
X02608*
X02608Y03021*
X02608Y03021*
X02607Y0302*
X02607Y0302*
X02606Y0302*
X02606Y0302*
X02605*
X02605*
X02605*
X02605Y0302*
X02604Y0302*
X02604Y0302*
X02603Y03021*
X02603Y03021*
X02603Y03021*
X02603Y03021*
X02602Y03021*
X02602Y03021*
X02602Y03022*
X02602Y03022*
X02601Y03022*
X02601Y03023*
X02601Y03023*
X02601Y03024*
Y03024*
X02601Y03025*
X02601Y03025*
Y03026*
Y03027*
Y03038*
X02605*
Y0303*
Y0303*
Y0303*
Y0303*
Y03029*
Y03029*
Y03028*
Y03027*
Y03027*
Y03026*
X02605Y03026*
Y03026*
Y03026*
Y03026*
Y03025*
X02605Y03025*
X02605Y03025*
X02605Y03025*
X02605Y03024*
X02605Y03024*
X02606Y03024*
X02606*
X02606Y03024*
X02606Y03024*
X02606*
X02607Y03024*
X02607*
X02607*
X02607*
X02607Y03024*
X02608*
X02608Y03024*
X02608Y03024*
X02609Y03024*
X02609Y03024*
X02609Y03025*
X02609Y03025*
X02609Y03025*
X02609Y03025*
X0261Y03026*
X0261Y03026*
Y03026*
Y03026*
X0261Y03027*
Y03027*
Y03027*
Y03027*
X0261Y03028*
Y03028*
Y03028*
Y03029*
X0261Y0303*
Y0303*
Y03031*
Y03038*
X02614*
Y0302*
G37*
G36*
X04332Y03334D02*
X04312D01*
X04332Y0333*
Y03326*
X04312Y03322*
X04332*
Y03318*
X04307*
Y03324*
X04324Y03328*
X04307Y03331*
Y03337*
X04332*
Y03334*
G37*
G36*
X04325Y03374D02*
X04325D01*
X04326*
X04326Y03374*
X04327Y03374*
X04328Y03374*
X04328Y03373*
X04329Y03373*
X04329*
X04329Y03373*
X0433Y03372*
X0433Y03372*
X04331Y03371*
X04331Y03371*
X04331Y0337*
X04331Y0337*
Y0337*
X04332Y0337*
Y03369*
Y03369*
Y03369*
Y03369*
X04332Y03369*
Y03368*
Y03368*
Y03367*
X04332Y03367*
Y03366*
Y03366*
Y03365*
Y03364*
Y03357*
X04307*
Y03365*
Y03365*
Y03366*
Y03366*
Y03366*
Y03366*
X04307Y03367*
X04307Y03368*
X04307Y03369*
X04308Y03369*
X04308Y0337*
X04308Y0337*
X04308*
Y0337*
X04308Y0337*
X04308Y03371*
X04309Y03371*
X04309Y03371*
X04309Y03372*
X0431Y03372*
Y03372*
X0431Y03372*
X04311Y03372*
X04311Y03373*
X04311Y03373*
X04312Y03373*
X04313Y03373*
X04313Y03373*
X04314*
X04314Y03373*
X04314*
X04315Y03373*
X04315Y03373*
X04316Y03373*
X04317Y03372*
X04317Y03372*
X04317Y03372*
X04317Y03372*
X04317Y03372*
X04318Y03371*
X04318Y03371*
X04318Y03371*
X04319Y0337*
X04319Y0337*
X04319Y03371*
X04319Y03371*
X04319Y03371*
X04319Y03372*
X0432Y03372*
X0432Y03373*
X04321Y03373*
X04321Y03373*
X04321Y03373*
X04321Y03373*
X04322Y03374*
X04322Y03374*
X04323Y03374*
X04324Y03374*
X04325Y03374*
X04325*
X04325Y03374*
G37*
G36*
X02689Y03045D02*
X02689D01*
X0269Y03045*
X0269*
X02691Y03045*
X02692Y03045*
X02692Y03044*
X02692*
X02693Y03044*
X02693Y03044*
X02693Y03044*
X02694Y03044*
X02694Y03043*
X02694Y03043*
X02695Y03042*
X02695Y03042*
X02695Y03042*
X02696Y03041*
X02696Y03041*
X02696Y0304*
X02697Y03039*
X02697Y03038*
Y03038*
X02697Y03038*
Y03038*
Y03038*
X02697Y03037*
X02697Y03037*
X02697Y03037*
Y03036*
X02697Y03036*
Y03035*
X02697Y03035*
X02698Y03034*
Y03032*
Y03032*
Y03032*
Y03032*
Y03032*
Y03031*
X02697Y03031*
Y03031*
X02697Y0303*
X02697Y03029*
X02697Y03028*
X02697Y03027*
Y03027*
X02697*
Y03027*
X02697Y03027*
X02697Y03026*
X02696Y03026*
X02696Y03025*
X02696Y03024*
X02695Y03024*
X02695Y03023*
X02695Y03023*
X02695Y03023*
X02694Y03022*
X02694Y03022*
X02693Y03022*
X02693Y03021*
X02692Y03021*
X02692*
X02692Y03021*
X02692Y03021*
X02691Y03021*
X02691Y03021*
X0269Y03021*
X02689Y0302*
X02688*
X02681*
Y03045*
X02689*
X02689*
G37*
G36*
X02716Y0302D02*
X02712D01*
Y03038*
X02716*
Y0302*
G37*
G36*
X02742Y03039D02*
X02742D01*
X02742Y03039*
X02743Y03038*
X02744Y03038*
X02744Y03038*
X02744Y03038*
X02745Y03037*
X02745Y03037*
X02746Y03037*
X02746Y03036*
Y03036*
X02746Y03036*
X02746Y03036*
X02746Y03036*
X02747Y03035*
X02747Y03035*
X02747Y03034*
X02747Y03034*
X02747Y03033*
X02747Y03033*
X02748Y03032*
X02748Y03031*
X02748Y0303*
X02748Y03029*
Y03029*
Y03028*
X02738*
Y03028*
Y03028*
Y03028*
X02738Y03027*
Y03027*
X02738Y03026*
X02739Y03026*
X02739Y03025*
X02739Y03025*
X02739Y03025*
X02739Y03025*
X0274Y03024*
X0274Y03024*
X0274Y03024*
X02741Y03024*
X02741Y03024*
X02741Y03024*
X02742Y03024*
X02742Y03024*
X02742Y03024*
X02743Y03024*
X02743Y03024*
X02743Y03024*
X02743Y03025*
X02743Y03025*
X02744Y03025*
X02744Y03026*
X02744Y03026*
X02748Y03025*
Y03025*
Y03025*
X02748Y03025*
X02748Y03025*
X02747Y03024*
X02747Y03024*
X02747Y03023*
X02746Y03022*
X02746Y03022*
X02745Y03021*
X02745Y03021*
X02745Y03021*
X02745Y03021*
X02744Y03021*
X02744Y0302*
X02743Y0302*
X02742Y0302*
X02741Y0302*
X02741*
X02741*
X02741Y0302*
X0274*
X0274Y0302*
X02739Y03021*
X02738Y03021*
X02738Y03021*
X02737Y03021*
X02737Y03022*
X02737Y03022*
X02736Y03022*
Y03022*
Y03022*
X02736Y03022*
X02736Y03023*
X02736Y03023*
X02736Y03023*
X02736Y03024*
X02735Y03024*
X02735Y03024*
X02735Y03025*
X02735Y03026*
X02735Y03026*
X02734Y03027*
X02734Y03028*
Y03028*
Y03029*
Y03029*
Y0303*
Y0303*
Y0303*
X02734Y03031*
Y03031*
X02735Y03032*
X02735Y03033*
X02735Y03034*
X02735Y03034*
X02735Y03035*
X02736Y03035*
X02736Y03036*
X02736Y03036*
X02736Y03036*
X02737Y03037*
X02737Y03037*
X02737Y03037*
X02737Y03037*
X02738Y03038*
X02738Y03038*
X02739Y03038*
X0274Y03038*
X0274Y03039*
X0274Y03039*
X02741*
X02741*
X02742*
G37*
G36*
X02652D02*
X02652D01*
X02653Y03039*
X02654Y03038*
X02654Y03038*
X02655Y03038*
X02655Y03038*
X02656Y03037*
X02656Y03037*
X02656Y03037*
X02657Y03036*
X02657Y03036*
X02657Y03036*
X02657Y03036*
X02657Y03036*
X02657Y03035*
X02657Y03035*
X02658Y03034*
X02658Y03034*
X02658Y03033*
X02658Y03033*
X02658Y03032*
X02658Y03031*
X02659Y0303*
X02659Y03029*
Y03029*
Y03028*
X02649*
Y03028*
Y03028*
Y03028*
X02649Y03027*
Y03027*
X02649Y03026*
X02649Y03026*
X0265Y03025*
X0265Y03025*
X0265Y03025*
X0265Y03025*
X0265Y03024*
X02651Y03024*
X02651Y03024*
X02651Y03024*
X02652Y03024*
X02652Y03024*
X02652Y03024*
X02653Y03024*
X02653Y03024*
X02653Y03024*
X02654Y03024*
X02654Y03024*
X02654Y03025*
X02654Y03025*
X02654Y03025*
X02654Y03026*
X02655Y03026*
X02658Y03025*
Y03025*
Y03025*
X02658Y03025*
X02658Y03025*
X02658Y03024*
X02658Y03024*
X02658Y03023*
X02657Y03022*
X02657Y03022*
X02656Y03021*
X02656Y03021*
X02656Y03021*
X02655Y03021*
X02655Y03021*
X02654Y0302*
X02654Y0302*
X02653Y0302*
X02652Y0302*
X02652*
X02652*
X02651Y0302*
X02651*
X0265Y0302*
X02649Y03021*
X02649Y03021*
X02649Y03021*
X02648Y03021*
X02648Y03022*
X02647Y03022*
X02647Y03022*
Y03022*
Y03022*
X02647Y03022*
X02647Y03023*
X02647Y03023*
X02646Y03023*
X02646Y03024*
X02646Y03024*
X02646Y03024*
X02646Y03025*
X02645Y03026*
X02645Y03026*
X02645Y03027*
X02645Y03028*
Y03028*
Y03029*
Y03029*
Y0303*
Y0303*
Y0303*
X02645Y03031*
X02645Y03031*
Y03032*
X02646Y03033*
X02646Y03034*
X02646Y03034*
X02646Y03035*
X02646Y03035*
X02647Y03036*
X02647Y03036*
X02647Y03036*
X02647Y03037*
X02647Y03037*
X02648Y03037*
X02648Y03037*
X02648Y03038*
X02649Y03038*
X0265Y03038*
X0265Y03038*
X02651Y03039*
X02651Y03039*
X02652*
X02652*
X02652*
G37*
G36*
X0284Y03134D02*
X02836D01*
Y03145*
X02828*
Y03134*
X02824*
Y03158*
X02828*
Y03149*
X02836*
Y03158*
X0284*
Y03134*
G37*
G36*
X0259Y03045D02*
X0259Y03045D01*
X02591*
X02592Y03045*
X02592Y03045*
X02593Y03045*
X02593Y03044*
X02593Y03044*
X02593*
X02594Y03044*
X02594Y03044*
X02594Y03044*
X02595Y03043*
X02595Y03043*
X02595Y03042*
X02595Y03042*
X02596Y03042*
X02596Y03041*
X02596Y03041*
X02596Y0304*
X02596Y0304*
Y03039*
Y03039*
Y03039*
Y03038*
X02596Y03038*
X02596Y03037*
X02596Y03037*
X02596Y03036*
X02595Y03036*
Y03036*
X02595Y03035*
X02595Y03035*
X02595Y03035*
X02595Y03034*
X02594Y03034*
X02594Y03034*
X02593Y03034*
Y03033*
X02594*
X02594Y03033*
X02594Y03033*
X02595Y03033*
X02595Y03032*
X02596Y03032*
X02596Y03031*
Y03031*
X02596Y03031*
X02597Y03031*
X02597Y0303*
X02597Y0303*
X02597Y03029*
X02597Y03028*
Y03028*
Y03027*
Y03027*
Y03027*
Y03027*
X02597Y03027*
Y03026*
X02597Y03025*
X02597Y03025*
X02596Y03024*
X02596Y03023*
Y03023*
X02596*
X02596Y03023*
X02595Y03022*
X02595Y03022*
X02595Y03022*
X02594Y03021*
X02594Y03021*
X02593Y03021*
X02593*
X02593*
X02592Y03021*
X02592*
X02592*
X02592Y03021*
X02591*
X02591*
X0259*
X0259Y0302*
X02589*
X02589*
X0258*
Y03045*
X02589*
X0259*
G37*
G36*
X02576Y0302D02*
X02572D01*
Y03025*
X02576*
Y0302*
G37*
G36*
X02562Y03045D02*
X02563Y03045D01*
X02564*
X02564Y03045*
X02564Y03045*
X02565*
X02565Y03045*
X02565Y03045*
X02566Y03044*
X02566Y03044*
X02567Y03044*
X02567Y03043*
X02567Y03043*
X02568Y03042*
Y03042*
X02568Y03042*
X02568Y03042*
X02568Y03042*
X02568Y03042*
X02568Y03041*
X02569Y03041*
X02569Y0304*
X02569Y03039*
X02569Y03039*
Y03037*
Y03037*
Y03037*
Y03037*
Y03037*
Y03036*
X02569Y03036*
X02569Y03035*
X02569Y03034*
X02568Y03034*
X02568Y03033*
Y03033*
X02568Y03033*
X02568Y03032*
X02567Y03032*
X02567Y03032*
X02567Y03031*
X02566Y03031*
X02566Y0303*
X02565Y0303*
X02565*
X02565Y0303*
X02565*
X02565Y0303*
X02564Y0303*
X02564*
X02564Y0303*
X02563*
X02563Y0303*
X02562*
X02562Y0303*
X02561*
X02558*
Y0302*
X02554*
Y03045*
X02561*
X02562*
G37*
G36*
X02804Y03134D02*
X028D01*
Y03153*
X02796Y03134*
X02792*
X02788Y03153*
Y03134*
X02784*
Y03158*
X02791*
X02794Y03141*
X02798Y03158*
X02804*
Y03134*
G37*
G36*
X02468D02*
X02465D01*
Y03153*
X02461Y03134*
X02457*
X02453Y03153*
Y03134*
X02449*
Y03158*
X02455*
X02459Y03141*
X02462Y03158*
X02468*
Y03134*
G37*
G36*
X0244Y03148D02*
X02446D01*
Y03144*
X0244*
Y03137*
X02437*
Y03144*
X02431*
Y03148*
X02437*
Y03154*
X0244*
Y03148*
G37*
G36*
X02486Y03129D02*
X0247D01*
Y03131*
X02486*
Y03129*
G37*
G36*
X02782Y0314D02*
X02774D01*
Y03145*
X02782*
Y0314*
G37*
G36*
X02822Y03129D02*
X02806D01*
Y03131*
X02822*
Y03129*
G37*
G36*
X02504Y03134D02*
X025D01*
Y03145*
X02492*
Y03134*
X02488*
Y03158*
X02492*
Y03149*
X025*
Y03158*
X02504*
Y03134*
G37*
G36*
X02896Y03045D02*
X02896D01*
X02897*
X02897Y03045*
X02898Y03045*
X02899Y03045*
X029Y03044*
X029*
X029Y03044*
X029Y03044*
X02901Y03044*
X02901Y03043*
X02902Y03043*
X02902Y03042*
X02903Y03041*
X02903Y03041*
Y03041*
X02903Y03041*
Y03041*
X02903Y0304*
X02903Y0304*
X02903Y0304*
Y03039*
X02903Y03039*
X02903Y03038*
Y03038*
Y03037*
X02903Y03037*
Y03036*
Y03033*
X02914*
Y03028*
X02886*
Y03036*
Y03036*
Y03036*
Y03036*
Y03037*
Y03037*
Y03038*
X02887Y03039*
X02887Y03039*
Y0304*
X02887Y0304*
Y03041*
X02887Y03041*
Y03041*
X02887Y03041*
X02887Y03042*
X02887Y03042*
X02888Y03042*
X02888Y03043*
X02889Y03044*
X0289Y03044*
X0289Y03044*
X0289Y03044*
X0289*
X0289Y03044*
X0289Y03045*
X02891Y03045*
X02891Y03045*
X02892Y03045*
X02893Y03045*
X02894Y03045*
X02895Y03045*
X02895*
X02896Y03045*
G37*
G36*
X02914Y03138D02*
X02908Y03135D01*
X02908Y03135*
X02907Y03135*
X02907Y03134*
X02907Y03134*
X02907Y03134*
X02906Y03134*
X02905Y03133*
X02905Y03133*
X02904Y03133*
X02904Y03133*
X02904Y03132*
X02904Y03132*
X02904Y03132*
X02904Y03132*
X02903Y03132*
X02903Y03132*
X02903Y03132*
X02903Y03131*
X02903Y03131*
Y03131*
X02902Y03131*
Y0313*
X02902Y0313*
X02902Y0313*
Y03129*
Y03129*
Y03128*
X02914*
Y03123*
X02886*
Y03133*
Y03133*
Y03133*
Y03133*
Y03134*
Y03134*
X02887Y03135*
X02887Y03136*
X02887Y03137*
X02887Y03137*
X02887Y03138*
X02887Y03138*
X02887Y03138*
X02888Y03139*
X02888Y03139*
X02888Y03139*
X02889Y0314*
X02889Y0314*
X0289Y03141*
X0289Y03141*
X0289Y03141*
X0289Y03141*
X02891Y03141*
X02892Y03141*
X02892Y03141*
X02893Y03142*
X02894*
X02894*
X02895*
X02895*
X02895*
X02896Y03141*
X02897Y03141*
X02898Y03141*
X02898Y03141*
X02899Y0314*
Y0314*
X029Y0314*
X029Y03139*
X029Y03139*
X02901Y03138*
X02901Y03138*
X02901Y03137*
X02902Y03136*
Y03136*
X02902Y03136*
X02902Y03136*
X02902Y03137*
X02903Y03137*
X02903Y03137*
X02903Y03138*
X02904Y03138*
X02904Y03138*
X02904Y03138*
X02905Y03139*
X02906Y03139*
X02906Y03139*
X02906Y0314*
X02907Y0314*
X02907Y0314*
X02908Y0314*
X02908Y03141*
X02914Y03143*
Y03138*
G37*
G36*
Y03169D02*
X02908Y03166D01*
X02908Y03166*
X02907*
X02907Y03165*
X02907Y03165*
X02907Y03165*
X02906Y03165*
X02905Y03164*
X02905Y03164*
X02904Y03164*
X02904Y03164*
X02904Y03163*
X02904Y03163*
X02904*
X02904Y03163*
X02903Y03163*
X02903Y03163*
X02903Y03163*
X02903Y03162*
X02903Y03162*
Y03162*
X02902Y03162*
Y03162*
X02902Y03161*
X02902Y03161*
Y0316*
Y0316*
Y03159*
X02914*
Y03154*
X02886*
Y03164*
Y03164*
Y03164*
Y03164*
Y03164*
Y03165*
Y03165*
X02887Y03166*
X02887Y03167*
X02887Y03168*
X02887Y03168*
X02887Y03169*
X02887Y03169*
Y03169*
X02887Y03169*
X02888Y0317*
X02888Y0317*
X02888Y0317*
X02889Y03171*
X02889Y03171*
X0289Y03172*
X0289*
X0289Y03172*
X0289Y03172*
X02891Y03172*
X02892Y03172*
X02892Y03172*
X02893Y03173*
X02894Y03173*
X02894*
X02895Y03173*
X02895*
X02895*
X02896Y03172*
X02897Y03172*
X02898Y03172*
X02898Y03172*
X02899Y03171*
Y03171*
X029Y03171*
X029Y0317*
X029Y0317*
X02901Y03169*
X02901Y03169*
X02901Y03168*
X02902Y03167*
Y03167*
X02902Y03167*
X02902Y03167*
X02902Y03168*
X02903Y03168*
X02903Y03168*
X02903Y03169*
X02904Y03169*
Y03169*
X02904Y03169*
X02904Y03169*
X02905Y0317*
X02906Y0317*
X02906Y0317*
X02906Y03171*
X02907Y03171*
X02907Y03171*
X02908Y03171*
X02908Y03172*
X02914Y03174*
Y03169*
G37*
G36*
X02423Y03073D02*
X0242D01*
Y03078*
X02423*
Y03073*
G37*
G36*
X02914Y03095D02*
Y0309D01*
X02893Y03086*
X02914Y03081*
Y03076*
X02886Y03071*
Y03076*
X02905Y03079*
X02886Y03083*
Y03088*
X02905Y03092*
X02886Y03096*
Y031*
X02914Y03095*
G37*
G36*
X02901Y0307D02*
X02902D01*
X02902Y0307*
X02903Y0307*
X02904Y03069*
X02905Y03069*
X02906Y03069*
X02906Y03069*
X02907Y03068*
X02908Y03068*
X02909Y03068*
X0291Y03067*
X02911Y03067*
X02911Y03066*
X02911Y03066*
X02911Y03066*
X02911Y03066*
X02912Y03065*
X02912Y03065*
X02912Y03065*
X02913Y03064*
X02913Y03064*
X02913Y03063*
X02913Y03062*
X02914Y03062*
X02914Y03061*
X02914Y0306*
X02914Y03059*
Y03059*
Y03059*
X02914Y03059*
Y03058*
X02914Y03058*
Y03057*
X02914Y03057*
X02914Y03056*
X02913Y03056*
X02913Y03055*
X02913Y03054*
X02913Y03054*
X02912Y03053*
X02912Y03053*
X02911Y03052*
X02911Y03051*
X02911Y03051*
X0291Y03051*
X0291Y03051*
X0291Y03051*
X02909Y0305*
X02909Y0305*
X02908Y0305*
X02907Y0305*
X02906Y03049*
X02906Y03049*
X02905Y03049*
X02904Y03049*
X02903Y03048*
X02901Y03048*
X029*
X029*
X02899*
X02899*
X02899Y03048*
X02898*
X02897*
X02896Y03049*
X02895Y03049*
X02893Y03049*
X02893Y03049*
X02892Y0305*
X02892*
Y0305*
X02892*
X02892Y0305*
X02891Y0305*
X02891Y0305*
X0289Y03051*
X0289Y03051*
X02889Y03052*
X02888Y03053*
X02888Y03053*
Y03053*
X02887*
Y03054*
X02887Y03054*
X02887Y03054*
X02887Y03054*
X02887Y03055*
X02887Y03055*
X02886Y03056*
X02886Y03057*
X02886Y03058*
Y03059*
Y03059*
Y03059*
Y0306*
X02886Y0306*
X02886Y03061*
X02886Y03061*
X02886Y03062*
X02887Y03062*
X02887Y03063*
X02887Y03064*
X02888Y03064*
X02888Y03065*
X02888Y03066*
X02889Y03066*
X0289Y03067*
X0289Y03067*
X0289Y03067*
X0289Y03067*
X0289Y03067*
X02891Y03067*
X02891Y03068*
X02892Y03068*
X02892Y03068*
X02893Y03069*
X02894Y03069*
X02895Y03069*
X02896Y03069*
X02897Y0307*
X02898Y0307*
X02899Y0307*
X029Y0307*
X02901*
X02901Y0307*
G37*
G36*
X02669Y03039D02*
X02669Y03039D01*
X0267Y03038*
X0267Y03038*
X02671Y03038*
X02671Y03038*
X0267Y03034*
X0267Y03034*
X0267Y03034*
X02669Y03034*
X02669Y03034*
X02669Y03034*
X02668Y03034*
X02668*
X02668*
X02668*
X02668Y03034*
X02667*
X02667Y03034*
X02667Y03034*
X02667Y03034*
X02667Y03034*
X02666Y03034*
X02666Y03033*
X02666Y03033*
X02666Y03033*
X02666Y03032*
X02666Y03032*
X02666Y03032*
Y03031*
Y03031*
Y03031*
X02666Y03031*
Y0303*
Y0303*
Y0303*
Y03029*
X02666Y03029*
Y03028*
Y03027*
Y03027*
Y03026*
Y0302*
X02662*
Y03038*
X02665*
Y03036*
Y03036*
X02665Y03036*
X02666Y03036*
X02666Y03037*
X02666Y03037*
X02666Y03037*
X02667Y03038*
X02667Y03038*
X02667*
X02667Y03038*
X02667*
X02667Y03038*
X02668Y03039*
X02668Y03039*
X02668*
X02669*
X02669*
X02669*
G37*
G36*
X02914Y03103D02*
X02886D01*
Y03119*
X02891*
Y03107*
X02897*
Y03118*
X02902*
Y03107*
X02909*
Y0312*
X02914*
Y03103*
G37*
G36*
Y03177D02*
X02886D01*
Y03193*
X02891*
Y03181*
X02897*
Y03193*
X02902*
Y03181*
X02909*
Y03194*
X02914*
Y03177*
G37*
G36*
X0432Y03315D02*
X04321D01*
X04322Y03315*
X04322Y03315*
X04323Y03314*
X04324Y03314*
X04325Y03314*
X04325Y03314*
X04326Y03314*
X04327Y03313*
X04328Y03313*
X04328Y03312*
X04329Y03312*
X04329Y03312*
X04329Y03312*
X0433Y03311*
X0433Y03311*
X0433Y03311*
X0433Y03311*
X04331Y0331*
X04331Y0331*
X04331Y03309*
X04331Y03309*
X04332Y03308*
X04332Y03307*
X04332Y03307*
X04332Y03306*
Y03305*
Y03305*
Y03305*
Y03305*
Y03304*
X04332Y03304*
Y03303*
X04332Y03303*
X04332Y03303*
X04332Y03302*
X04331Y03301*
X04331Y03301*
X04331Y033*
X04331Y033*
X0433Y03299*
X0433Y03299*
X04329Y03298*
Y03298*
X04329Y03298*
X04329Y03298*
X04329Y03298*
X04328Y03297*
X04328Y03297*
X04327Y03297*
X04327Y03297*
X04326Y03296*
X04325Y03296*
X04325Y03296*
X04324Y03296*
X04323Y03295*
X04322Y03295*
X04321Y03295*
X0432*
X04319*
X04319*
X04319*
X04318*
X04318Y03295*
X04317*
X04316Y03296*
X04315Y03296*
X04314Y03296*
X04313Y03296*
X04312Y03297*
X04312*
X04312*
X04312Y03297*
X04312Y03297*
X04312Y03297*
X04311Y03297*
X04311Y03297*
X0431Y03298*
X04309Y03298*
X04309Y03299*
X04308Y033*
Y033*
X04308Y033*
X04308Y033*
X04308Y033*
X04308Y03301*
X04308Y03301*
X04307Y03301*
X04307Y03302*
X04307Y03303*
X04307Y03304*
X04307Y03305*
Y03305*
Y03305*
Y03306*
X04307Y03306*
X04307Y03307*
X04307Y03307*
X04307Y03308*
X04307Y03308*
X04308Y03309*
X04308Y03309*
X04308Y0331*
X04309Y0331*
X04309Y03311*
X04309Y03312*
X0431Y03312*
X0431Y03312*
X0431*
X0431Y03312*
X04311Y03313*
X04311Y03313*
X04311Y03313*
X04312Y03313*
X04312Y03313*
X04313Y03314*
X04314Y03314*
X04315Y03314*
X04315Y03314*
X04316Y03315*
X04317Y03315*
X04318*
X04319Y03315*
X0432*
X0432Y03315*
G37*
G36*
X04311Y03287D02*
X04332D01*
Y03283*
X04311*
Y03277*
X04307*
Y03293*
X04311*
Y03287*
G37*
G36*
X02716Y03041D02*
X02712D01*
Y03045*
X02716*
Y03041*
G37*
G36*
X02758Y03039D02*
X02759Y03039D01*
X02759Y03038*
X02759Y03038*
X0276Y03038*
X0276Y03038*
X02759Y03034*
X02759Y03034*
X02759Y03034*
X02759Y03034*
X02758Y03034*
X02758Y03034*
X02758Y03034*
X02757*
X02757*
X02757*
X02757Y03034*
X02757*
X02756Y03034*
X02756Y03034*
X02756Y03034*
X02756Y03034*
X02756Y03034*
X02756Y03033*
X02755Y03033*
X02755Y03033*
X02755Y03032*
X02755Y03032*
Y03032*
Y03031*
Y03031*
Y03031*
X02755Y03031*
Y0303*
Y0303*
Y0303*
Y03029*
X02755Y03029*
Y03028*
Y03027*
Y03027*
Y03026*
Y0302*
X02751*
Y03038*
X02755*
Y03036*
Y03036*
X02755Y03036*
X02755Y03036*
X02755Y03037*
X02755Y03037*
X02756Y03037*
X02756Y03038*
X02756Y03038*
X02756*
X02756Y03038*
X02756*
X02757Y03038*
X02757Y03039*
X02757Y03039*
X02758*
X02758*
X02758*
X02758*
G37*
G36*
X02727Y0302D02*
X02724D01*
X02718Y03038*
X02722*
X02725Y03029*
X02725Y03026*
X02726Y03029*
X02729Y03038*
X02733*
X02727Y0302*
G37*
G36*
X04332Y03272D02*
X04326Y03271D01*
Y03262*
X04332Y03261*
Y03256*
X04307Y03264*
Y03269*
X04332Y03277*
Y03272*
G37*
G36*
X0291Y03217D02*
X0291Y03217D01*
X0291Y03217*
X02911Y03216*
X02911Y03216*
X02912Y03215*
X02912Y03214*
X02913Y03213*
Y03213*
Y03213*
X02913Y03213*
X02913Y03213*
Y03213*
X02913Y03212*
X02913Y03212*
X02914Y03211*
X02914Y0321*
X02914Y03209*
X02914Y03208*
Y03208*
Y03208*
Y03208*
X02914Y03207*
Y03207*
Y03207*
X02914Y03206*
Y03206*
X02914Y03205*
X02913Y03204*
X02913Y03203*
X02912Y03202*
X02912Y03202*
Y03202*
X02912Y03202*
X02912Y03202*
X02912Y03201*
X02911Y03201*
X02911Y032*
X0291Y03199*
X02909Y03199*
X02908Y03198*
X02907Y03198*
X02907Y03198*
X02907Y03198*
X02907Y03198*
X02906Y03198*
X02906Y03198*
X02905Y03197*
X02905Y03197*
X02904Y03197*
X02904Y03197*
X02903Y03197*
X02902Y03197*
X029Y03197*
X029*
X02899*
X02899*
X02898Y03197*
X02898*
X02897Y03197*
X02896Y03197*
X02895Y03197*
X02894Y03198*
X02892Y03198*
X02892Y03198*
X02892Y03198*
X02892Y03199*
X02892Y03199*
X02891Y03199*
X02891Y03199*
X0289Y032*
X02889Y032*
X02888Y03201*
X02888Y03202*
Y03202*
X02888Y03202*
X02887Y03202*
X02887Y03203*
X02887Y03203*
X02887Y03203*
X02887Y03203*
X02887Y03204*
X02887Y03205*
X02886Y03206*
X02886Y03207*
Y03208*
Y03208*
Y03208*
Y03208*
Y03208*
Y03209*
X02886Y03209*
Y0321*
X02886Y0321*
X02886Y03211*
X02887Y03212*
X02887Y03213*
X02887Y03213*
X02888Y03214*
X02888Y03214*
X02888Y03214*
X02888Y03214*
X02888Y03215*
X02889Y03215*
X02889Y03215*
X02889Y03215*
X0289Y03215*
X0289Y03216*
X0289Y03216*
X02891Y03216*
X02891Y03216*
X02892Y03217*
X02893Y03217*
X02893Y03217*
X02894Y03217*
X02895Y03213*
X02895*
Y03213*
X02895*
X02894Y03213*
X02894Y03212*
X02893Y03212*
X02893Y03212*
X02892Y03211*
X02892Y03211*
X02892*
X02892Y03211*
X02891Y0321*
X02891Y0321*
X02891Y0321*
X02891Y03209*
X02891Y03209*
Y03208*
Y03208*
Y03208*
Y03207*
Y03207*
X02891Y03207*
X02891Y03206*
X02891Y03205*
X02892Y03205*
X02892Y03204*
X02892Y03204*
X02893Y03204*
X02893Y03203*
X02893Y03203*
X02893*
X02893Y03203*
X02894Y03203*
X02894Y03203*
X02894Y03202*
X02895Y03202*
X02895Y03202*
X02896Y03202*
X02896Y03202*
X02897Y03202*
X02897Y03202*
X02898Y03201*
X02899*
X029*
X029*
X02901*
X02901*
X02901Y03202*
X02902*
X02902Y03202*
X02904Y03202*
X02905Y03202*
X02906Y03203*
X02907Y03203*
X02907Y03203*
Y03203*
X02907*
X02907Y03204*
X02908Y03204*
X02908Y03204*
X02909Y03205*
X02909Y03206*
X02909Y03207*
Y03207*
X02909Y03208*
Y03208*
Y03208*
X02909Y03208*
Y03209*
X02909Y03209*
X02909Y03209*
X02909Y0321*
X02909Y0321*
X02909Y03211*
X02909Y03211*
X02908Y03211*
X02908Y03211*
X02908Y03212*
X02908Y03212*
X02907Y03213*
X02907Y03213*
X02904*
Y03208*
X02899*
Y03218*
X0291*
X0291Y03217*
G37*
G36*
X02708Y03039D02*
X02709Y03039D01*
X02709Y03038*
X02709Y03038*
X0271Y03038*
X0271Y03038*
X02709Y03034*
X02709*
X02709Y03034*
X02709Y03034*
X02708Y03034*
X02708Y03034*
X02708Y03034*
X02708Y03034*
X02707*
X02707*
X02707*
X02707Y03034*
X02707*
X02706Y03034*
X02706Y03034*
X02706Y03034*
X02706*
X02706Y03034*
X02706Y03034*
X02705Y03033*
X02705Y03033*
X02705Y03033*
X02705Y03032*
X02705Y03032*
X02705Y03032*
Y03031*
Y03031*
Y03031*
Y03031*
Y0303*
X02705Y0303*
Y0303*
Y03029*
Y03029*
Y03028*
X02705Y03027*
Y03027*
Y03026*
Y0302*
X02701*
Y03038*
X02704*
Y03036*
X02704Y03036*
X02705Y03036*
X02705Y03036*
X02705Y03037*
X02705Y03037*
X02705Y03037*
X02706Y03038*
X02706Y03038*
X02706Y03038*
X02706*
X02706Y03038*
X02707Y03039*
X02707Y03039*
X02707*
X02708*
X02708*
X02708*
G37*
%LNvapeix_mini_pcb-2*%
%LPC*%
G36*
X03778Y03691D02*
X03776D01*
X03776Y03691*
X03775*
X03774*
X03774Y03691*
X03773Y03691*
X03772Y03691*
X03772*
X03772Y03691*
X03772Y03691*
X03771Y03691*
X03771Y03691*
X03771Y0369*
X0377Y0369*
X0377Y0369*
X0377Y0369*
X0377Y0369*
X03769Y03689*
X03769Y03689*
X03769Y03689*
X03769Y03688*
X03769Y03688*
Y03688*
Y03688*
X03769Y03688*
Y03687*
Y03687*
X03768Y03686*
Y03685*
Y03685*
Y03685*
Y03683*
X03785*
Y03686*
Y03686*
Y03686*
Y03686*
Y03687*
X03785Y03687*
X03785Y03688*
X03784Y03688*
X03784Y03689*
Y03689*
X03784Y03689*
X03784Y03689*
X03784Y0369*
X03783Y0369*
Y0369*
X03783*
X03783Y0369*
X03783Y0369*
X03782Y03691*
X03782Y03691*
X03781Y03691*
X03781Y03691*
X03781*
X03781*
X0378Y03691*
X0378Y03691*
X03779Y03691*
X03778*
X03778Y03691*
G37*
G36*
Y03671D02*
X03776D01*
X03776*
X03775*
X03774Y03671*
X03774Y03671*
X03773*
X03772Y03671*
X03772*
X03772Y03671*
X03772*
X03771Y0367*
X03771Y0367*
X03771Y0367*
X0377Y0367*
X0377Y0367*
Y03669*
X0377Y03669*
X0377Y03669*
X03769Y03669*
X03769Y03669*
X03769Y03668*
X03769Y03668*
X03769Y03668*
Y03667*
X03769Y03667*
Y03667*
Y03666*
X03768Y03666*
Y03665*
Y03665*
Y03664*
Y03662*
X03785*
Y03665*
Y03666*
Y03666*
Y03666*
Y03666*
Y03667*
X03785Y03667*
X03785Y03667*
X03784Y03668*
X03784Y03668*
Y03668*
Y03668*
X03784Y03669*
X03784Y03669*
X03784Y03669*
X03783Y0367*
X03783Y0367*
X03783Y0367*
X03783Y0367*
X03782Y0367*
X03782Y0367*
X03781Y03671*
X03781Y03671*
X03781*
Y03671*
X03781*
X0378Y03671*
X0378*
X03779Y03671*
X03778*
X03778Y03671*
G37*
G36*
X03778Y03588D02*
X03776D01*
X03776*
X03775*
X03774Y03588*
X03774*
X03773Y03588*
X03772Y03588*
X03772*
X03772*
X03772Y03588*
X03771Y03588*
X03771Y03587*
X03771Y03587*
X0377Y03587*
X0377Y03587*
X0377Y03587*
X0377Y03587*
X0377Y03586*
X03769Y03586*
X03769Y03586*
X03769Y03586*
X03769Y03585*
X03769Y03585*
X03769Y03585*
Y03584*
Y03584*
X03768Y03584*
Y03583*
Y03582*
Y03582*
Y03581*
Y0358*
X03785*
Y03583*
Y03583*
Y03583*
Y03583*
X03785Y03583*
Y03584*
Y03584*
X03785Y03585*
X03784Y03585*
X03784Y03586*
X03784Y03586*
X03784Y03586*
X03784Y03586*
X03784Y03587*
X03783Y03587*
X03783Y03587*
X03783Y03587*
X03783Y03587*
X03782Y03587*
X03782Y03588*
X03781Y03588*
X03781Y03588*
Y03588*
X03781*
X0378Y03588*
X0378Y03588*
X03779*
X03778Y03588*
X03778*
G37*
G36*
X02433Y03068D02*
X02433D01*
X02433Y03067*
X02432Y03067*
X02432Y03067*
X02432Y03067*
X02431Y03067*
X02431Y03066*
X02431Y03066*
X02431Y03066*
X02431Y03066*
X02431Y03066*
X02431Y03065*
X0243Y03065*
X0243Y03064*
Y03063*
X02436*
Y03063*
Y03064*
Y03064*
Y03064*
X02436Y03065*
X02436Y03065*
X02436Y03066*
X02435Y03066*
X02435Y03066*
Y03067*
X02435Y03067*
X02435Y03067*
X02435Y03067*
X02434Y03067*
X02434Y03067*
X02434Y03068*
X02433*
G37*
G36*
X02464Y03067D02*
D01*
X02464*
X02463*
X02463Y03067*
X02463Y03067*
X02462Y03067*
X02462Y03066*
X02461Y03066*
Y03066*
X02461Y03066*
X02461Y03065*
X02461Y03065*
X02461Y03064*
X0246Y03064*
X0246Y03063*
Y03062*
Y03062*
Y03062*
Y03061*
Y03061*
Y03061*
X0246Y0306*
X0246Y0306*
X02461Y03059*
X02461Y03058*
X02461Y03058*
X02461Y03058*
X02461Y03057*
X02462Y03057*
X02462Y03057*
X02462Y03057*
X02463Y03057*
X02463Y03056*
X02464Y03056*
X02464Y03056*
X02464*
X02465Y03057*
X02465Y03057*
X02465Y03057*
X02466Y03057*
X02466Y03058*
Y03058*
X02467Y03058*
X02467Y03058*
X02467Y03059*
X02467Y03059*
X02467Y0306*
X02467Y03061*
Y03062*
Y03062*
Y03062*
Y03062*
Y03062*
Y03063*
X02467Y03063*
X02467Y03064*
X02467Y03065*
X02467Y03065*
X02466Y03066*
Y03066*
X02466Y03066*
X02466Y03066*
X02466Y03067*
X02465Y03067*
X02465Y03067*
X02464Y03067*
X02464*
G37*
G36*
X02408Y03073D02*
X02405D01*
Y03066*
X02408*
X02408*
X02409Y03066*
X02409*
X0241Y03067*
X0241Y03067*
X0241*
X0241Y03067*
X0241*
X02411Y03067*
X02411Y03067*
X02411Y03067*
X02411Y03068*
X02411Y03068*
Y03068*
X02412Y03068*
X02412Y03068*
X02412Y03068*
X02412Y03069*
X02412Y03069*
Y03069*
Y0307*
Y0307*
Y0307*
Y0307*
Y03071*
X02412Y03071*
X02412Y03071*
X02412Y03072*
X02411Y03072*
X02411Y03072*
X02411Y03072*
X02411Y03072*
X02411Y03073*
X02411Y03073*
X0241Y03073*
X0241Y03073*
X0241Y03073*
X0241*
X02409Y03073*
X02409*
X02408Y03073*
X02408*
X02408*
G37*
G36*
X03873Y03676D02*
X03871D01*
X03871*
X0387*
X03869Y03676*
X03869Y03676*
X03868Y03676*
X03867Y03676*
X03867*
X03867Y03676*
X03867*
X03866Y03676*
X03866Y03676*
X03866Y03675*
X03865Y03675*
X03865Y03675*
X03865*
X03865Y03675*
X03865Y03675*
X03864Y03674*
X03864Y03674*
X03864Y03674*
X03864Y03673*
X03864Y03673*
X03864Y03673*
Y03673*
Y03672*
X03863Y03672*
Y03671*
Y0367*
Y0367*
Y0367*
Y03668*
X0388*
Y03671*
Y03671*
Y03671*
Y03671*
X0388Y03671*
Y03672*
Y03672*
X0388Y03673*
X03879Y03673*
X03879Y03674*
Y03674*
X03879Y03674*
X03879Y03674*
X03879Y03674*
X03879Y03675*
X03878Y03675*
Y03675*
X03878Y03675*
X03878Y03675*
X03878Y03675*
X03877Y03676*
X03877Y03676*
X03876Y03676*
X03876Y03676*
X03876Y03676*
X03875*
X03875Y03676*
X03874Y03676*
X03873*
X03873Y03676*
G37*
G36*
X03872Y03706D02*
X03871D01*
X03871*
X0387*
X0387*
X0387Y03706*
X03869Y03706*
X03868Y03706*
X03867Y03706*
X03866Y03705*
X03866Y03705*
X03865Y03705*
Y03705*
X03865Y03705*
X03865Y03705*
X03865Y03704*
X03864Y03704*
X03864Y03703*
X03863Y03703*
X03863Y03702*
X03863Y03702*
Y03701*
Y03701*
Y03701*
Y03701*
Y03701*
Y03701*
Y037*
X03863Y037*
X03863Y03699*
X03864Y03699*
X03864Y03699*
X03864Y03698*
X03864Y03698*
X03864Y03697*
X03865Y03697*
X03865Y03697*
X03865*
Y03697*
X03865*
X03866Y03697*
X03866Y03697*
X03866Y03696*
X03866Y03696*
X03867Y03696*
X03867Y03696*
X03868Y03696*
X03868Y03696*
X03869Y03696*
X03869Y03695*
X0387*
X03871Y03695*
X03872*
X03872*
X03872*
X03873*
X03873Y03695*
X03873*
X03874Y03696*
X03875Y03696*
X03876Y03696*
X03877Y03696*
X03877Y03697*
X03878Y03697*
X03878*
Y03697*
X03878Y03697*
X03878Y03697*
X03879Y03698*
X03879Y03698*
X03879Y03699*
X0388Y03699*
X0388Y037*
Y037*
X0388Y037*
X0388Y03701*
Y03701*
Y03701*
X0388Y03701*
Y03702*
X0388Y03702*
X0388Y03702*
X03879Y03703*
X03879Y03703*
X03879Y03704*
X03879Y03704*
X03879Y03704*
X03878Y03705*
X03878Y03705*
X03878Y03705*
X03878Y03705*
X03878Y03705*
X03877Y03705*
X03877Y03705*
X03877Y03706*
X03876Y03706*
X03876Y03706*
X03875Y03706*
X03875Y03706*
X03874Y03706*
X03874Y03706*
X03873Y03706*
X03872*
G37*
G36*
X02399Y03034D02*
X02395D01*
Y03027*
X02399*
X024*
X024Y03027*
X02401*
X02401Y03027*
X02402*
X02402*
X02402Y03027*
X02402*
X02402Y03028*
X02402Y03028*
X02402Y03028*
X02403Y03028*
X02403Y03028*
X02403Y03029*
Y03029*
X02403Y03029*
X02403Y03029*
Y0303*
X02403Y0303*
Y0303*
Y03031*
Y03031*
X02403Y03031*
Y03031*
X02403Y03032*
X02403Y03032*
X02403Y03032*
X02403*
Y03032*
X02403Y03033*
X02402Y03033*
X02402Y03033*
X02402Y03033*
X02402Y03033*
X02401Y03033*
X02401Y03033*
X02401Y03034*
X02401*
X024Y03034*
X024*
X02399*
X02399Y03034*
G37*
G36*
X02399Y03043D02*
X02395D01*
Y03038*
X02399*
X02399*
X024*
X024Y03038*
X024*
X02401*
X02401*
X02401Y03038*
X02401Y03038*
X02402Y03038*
X02402Y03039*
X02402Y03039*
X02402Y03039*
Y03039*
X02402Y03039*
X02402Y0304*
X02403Y0304*
Y0304*
X02403Y03041*
Y03041*
X02403Y03041*
Y03041*
X02402Y03042*
X02402Y03042*
X02402Y03042*
X02402*
Y03043*
X02402Y03043*
X02402Y03043*
X02401Y03043*
X02401Y03043*
X02401*
X02401Y03043*
X02401*
X024*
X024Y03043*
X024*
X02399*
X02399*
X02399*
G37*
G36*
X02462Y03038D02*
X02462D01*
X02462Y03038*
X02462Y03037*
X02461Y03037*
X02461Y03037*
X02461Y03037*
X0246Y03036*
X0246Y03036*
X0246Y03036*
X0246Y03036*
X0246Y03035*
X02459Y03035*
X02459Y03034*
Y03033*
X02465*
Y03034*
Y03034*
Y03034*
X02465Y03034*
Y03035*
X02465Y03035*
X02465Y03036*
X02465Y03036*
X02464Y03037*
X02464Y03037*
X02464Y03037*
X02464Y03037*
X02463Y03037*
X02463Y03037*
X02463Y03038*
X02462Y03038*
G37*
G36*
X02827Y03353D02*
X02827D01*
X02827*
X02827Y03353*
X02826Y03353*
X02826*
X02826Y03353*
X02825Y03352*
X02825*
X02825Y03352*
X02825Y03352*
X02825Y03352*
X02825Y03352*
X02824Y03351*
X02824Y03351*
X02824Y03351*
X02824Y03351*
Y0335*
X02824Y0335*
X02824Y0335*
Y03349*
Y03348*
X02824Y03348*
Y03348*
Y03347*
Y03343*
X02831*
Y03348*
Y03348*
Y03348*
Y03348*
Y03348*
X02831Y03349*
Y0335*
X02831Y0335*
Y03351*
X02831Y03351*
Y03351*
X02831Y03351*
Y03351*
X0283Y03352*
X0283Y03352*
X0283Y03352*
X0283Y03352*
X0283Y03352*
X02829Y03352*
X02829*
X02829Y03353*
X02829Y03353*
X02829Y03353*
X02828Y03353*
X02828Y03353*
X02827*
G37*
G36*
X02816Y03352D02*
X02816D01*
X02816*
X02815Y03352*
X02815Y03352*
X02814Y03352*
X02814Y03352*
X02814Y03351*
X02814Y03351*
X02814Y03351*
X02813Y03351*
X02813Y03351*
Y0335*
X02813Y0335*
Y0335*
Y0335*
X02813Y03349*
Y03349*
Y03349*
Y03349*
Y03348*
Y03348*
Y03347*
Y03347*
Y03346*
Y03343*
X02819*
Y03346*
Y03346*
Y03347*
Y03347*
Y03347*
Y03348*
X02819Y03348*
Y03349*
Y03349*
Y0335*
Y0335*
Y0335*
Y0335*
X02819Y0335*
X02819Y0335*
X02819Y03351*
X02819Y03351*
X02818Y03351*
X02818Y03351*
X02818*
X02818Y03352*
X02818Y03352*
X02818Y03352*
X02817Y03352*
X02817Y03352*
X02816Y03352*
X02816*
G37*
G36*
X03902Y03262D02*
X03901D01*
X03901Y03262*
X03901*
X039Y03262*
X039Y03262*
X039Y03262*
X039*
X03899*
X03899Y03261*
X03899Y03261*
X03899Y03261*
X03899Y03261*
X03899Y03261*
X03899Y0326*
X03898Y0326*
Y0326*
Y03259*
X03898Y03259*
Y03259*
Y03259*
Y03258*
Y03258*
X03898Y03258*
Y03257*
Y03257*
Y03253*
X03905*
Y03256*
Y03256*
Y03257*
Y03257*
Y03257*
Y03257*
Y03258*
Y03259*
X03905Y03259*
Y0326*
X03905Y0326*
Y0326*
X03905Y0326*
Y03261*
X03905Y03261*
X03905Y03261*
X03904Y03261*
X03904Y03261*
X03904Y03262*
Y03262*
X03904*
X03904Y03262*
X03903Y03262*
X03903Y03262*
X03903Y03262*
X03902*
X03902Y03262*
G37*
G36*
X02823Y03438D02*
X02821D01*
X02821*
X02821*
X0282Y03438*
X0282Y03438*
X02819*
X02818Y03437*
X02817Y03437*
X02816Y03437*
X02815Y03436*
X02815Y03436*
X02815*
Y03436*
X02815Y03436*
X02815Y03436*
X02814Y03435*
X02814Y03435*
X02813Y03434*
X02813Y03433*
X02813Y03433*
X02813Y03433*
X02813Y03432*
Y03432*
Y03432*
Y03431*
Y03431*
Y03431*
X02813Y03431*
Y03431*
X02813Y0343*
X02813Y03429*
X02813Y03429*
X02814Y03429*
X02814Y03428*
X02814Y03428*
X02815Y03427*
X02815Y03427*
X02815Y03427*
X02815*
X02815Y03427*
X02816Y03427*
X02816Y03427*
X02816Y03426*
X02817Y03426*
X02817Y03426*
X02818Y03426*
X02818Y03426*
X02819Y03426*
X0282Y03426*
X0282Y03426*
X02821*
X02822Y03425*
X02822*
X02823Y03426*
X02823*
X02824*
X02824Y03426*
X02825Y03426*
X02826Y03426*
X02827Y03426*
X02828Y03427*
X02828Y03427*
X02829Y03427*
Y03427*
X02829Y03427*
X02829Y03428*
X0283Y03428*
X0283Y03428*
X02831Y03429*
X02831Y0343*
X02831Y0343*
X02831Y03431*
X02831Y03431*
Y03432*
Y03432*
Y03432*
Y03432*
X02831Y03432*
Y03433*
X02831Y03433*
X02831Y03434*
X0283Y03434*
X0283Y03435*
X0283Y03435*
X0283Y03435*
X02829Y03436*
X02829Y03436*
Y03436*
X02829*
X02829Y03436*
X02829Y03436*
X02828Y03436*
X02828Y03437*
X02828Y03437*
X02827Y03437*
X02827Y03437*
X02826Y03437*
X02826Y03437*
X02825Y03437*
X02824Y03438*
X02824Y03438*
X02823Y03438*
G37*
G36*
X02827Y03274D02*
X02827D01*
X02827*
X02827Y03273*
X02826Y03273*
X02826*
X02826Y03273*
X02825Y03273*
X02825*
X02825Y03273*
X02825Y03273*
X02825Y03273*
X02825Y03272*
X02824Y03272*
X02824Y03272*
X02824Y03271*
X02824Y03271*
Y03271*
X02824Y03271*
X02824Y0327*
Y03269*
Y03269*
X02824Y03269*
Y03268*
Y03268*
Y03264*
X02831*
Y03268*
Y03268*
Y03268*
Y03269*
Y03269*
X02831Y0327*
Y0327*
X02831Y03271*
Y03271*
X02831Y03272*
Y03272*
Y03272*
X02831*
Y03272*
X0283Y03272*
X0283Y03272*
X0283Y03273*
X0283Y03273*
X0283Y03273*
X02829Y03273*
X02829*
X02829Y03273*
X02829Y03273*
X02829Y03273*
X02828Y03273*
X02828Y03274*
X02827*
G37*
G36*
X02816Y03273D02*
X02816D01*
X02816*
X02815Y03273*
X02815Y03273*
X02814Y03272*
X02814Y03272*
X02814*
X02814Y03272*
X02814Y03272*
X02813Y03271*
X02813Y03271*
Y03271*
X02813Y03271*
Y0327*
Y0327*
X02813Y0327*
Y0327*
Y0327*
Y03269*
Y03269*
Y03268*
Y03268*
Y03267*
Y03267*
Y03264*
X02819*
Y03267*
Y03267*
Y03267*
Y03267*
Y03268*
Y03268*
X02819Y03269*
Y03269*
Y0327*
Y0327*
Y0327*
Y0327*
Y0327*
X02819Y03271*
X02819Y03271*
X02819Y03271*
X02819Y03272*
X02818Y03272*
X02818Y03272*
X02818Y03272*
X02818*
X02818Y03272*
X02818Y03272*
X02817Y03273*
X02817Y03273*
X02816Y03273*
X02816*
G37*
G36*
X03799Y03052D02*
X03794D01*
Y03045*
X03799*
X03799*
X038*
X038Y03045*
X03801*
X03801Y03045*
X03801*
X03802*
X03802Y03045*
X03802Y03046*
X03802Y03046*
X03802Y03046*
X03803Y03046*
X03803Y03046*
Y03047*
X03803Y03047*
X03803Y03047*
X03803Y03047*
X03803Y03048*
Y03048*
X03803Y03049*
Y03049*
Y03049*
X03803Y03049*
Y03049*
X03803Y0305*
X03803Y0305*
X03803Y03051*
X03803Y03051*
X03803Y03051*
X03802Y03051*
X03802Y03051*
X03802Y03051*
X03802Y03052*
X03801Y03052*
X03801*
X03801Y03052*
X03801*
X038Y03052*
X038*
X038*
X03799*
X03799*
G37*
G36*
X0382D02*
X03817D01*
Y03034*
X0382*
X03821*
X03821*
X03822Y03034*
X03822*
X03823Y03034*
X03823Y03034*
X03823*
X03823Y03035*
X03823*
X03824Y03035*
X03824Y03035*
X03825Y03036*
X03825Y03036*
X03825Y03036*
X03825Y03036*
X03825Y03037*
X03825Y03037*
X03826Y03038*
X03826Y03038*
X03826Y03038*
Y03039*
X03826Y03039*
X03826Y03039*
X03826Y0304*
Y03041*
X03826Y03042*
Y03043*
Y03043*
Y03043*
Y03043*
Y03044*
X03826Y03044*
Y03045*
Y03045*
X03826Y03046*
X03826Y03047*
X03826Y03048*
Y03048*
Y03048*
X03826Y03048*
X03825Y03049*
X03825Y03049*
X03825Y0305*
X03825Y0305*
X03824Y0305*
X03824*
X03824Y03051*
X03824Y03051*
X03824Y03051*
X03823Y03051*
X03823Y03051*
X03823Y03052*
X03822Y03052*
X03822*
X03822Y03052*
X03821*
X03821Y03052*
X0382*
X0382*
G37*
G36*
X03901Y03308D02*
X03901D01*
X03901*
X03901*
X039Y03308*
X039Y03308*
X03899Y03308*
X03899Y03308*
X03899*
X03899Y03308*
X03899Y03307*
X03899Y03307*
X03899Y03307*
X03898Y03306*
Y03306*
X03898Y03306*
Y03306*
Y03306*
Y03305*
Y03305*
X03898Y03305*
Y03304*
Y03304*
Y03303*
Y03303*
Y03302*
Y033*
X03904*
Y03303*
Y03303*
Y03303*
Y03303*
Y03303*
Y03304*
Y03305*
Y03305*
Y03306*
X03904Y03306*
Y03306*
Y03306*
X03904Y03306*
Y03306*
X03904Y03307*
X03904Y03307*
X03904Y03307*
X03903Y03308*
X03903Y03308*
X03903Y03308*
X03903Y03308*
X03903Y03308*
X03902Y03308*
X03902Y03308*
X03901*
G37*
G36*
X03913Y03309D02*
X03912D01*
X03912Y03309*
X03912*
X03912Y03309*
X03911Y03309*
X03911Y03309*
X03911Y03308*
X0391Y03308*
X0391Y03308*
X0391Y03308*
X0391Y03308*
X0391Y03308*
X0391Y03307*
X03909Y03307*
Y03307*
Y03307*
X03909Y03307*
X03909Y03306*
Y03306*
X03909Y03305*
Y03305*
X03909Y03304*
Y03304*
Y03303*
Y033*
X03916*
Y03304*
Y03304*
Y03304*
Y03304*
Y03305*
Y03305*
X03916Y03306*
Y03306*
X03916Y03307*
Y03307*
X03916Y03307*
Y03307*
X03916Y03307*
X03916Y03308*
X03916Y03308*
X03915Y03308*
X03915Y03308*
X03915Y03309*
X03915Y03309*
X03915*
X03914Y03309*
X03914Y03309*
X03914Y03309*
X03913*
X03913Y03309*
G37*
G36*
X03908Y03388D02*
X03907D01*
X03906*
X03906*
X03905Y03388*
X03904Y03388*
X03903*
X03903Y03388*
X03903*
X03902Y03388*
X03902Y03388*
X03902Y03388*
X03901Y03388*
X03901Y03387*
X039Y03387*
X039Y03387*
X039Y03387*
X039Y03386*
X03899Y03386*
X03899Y03386*
X03899Y03385*
X03899Y03385*
X03899Y03385*
X03898Y03384*
Y03384*
Y03384*
X03898Y03383*
Y03383*
X03898Y03382*
Y03381*
Y03381*
Y03379*
X03916*
Y03382*
Y03382*
Y03383*
Y03383*
Y03383*
Y03384*
X03916Y03384*
X03916Y03385*
X03916Y03385*
X03916Y03385*
X03916Y03386*
X03916Y03386*
X03916Y03386*
X03915Y03387*
X03915Y03387*
X03914Y03387*
X03914Y03387*
X03914Y03387*
X03914Y03388*
X03913Y03388*
X03913Y03388*
X03912Y03388*
X03912*
X03912Y03388*
X03911Y03388*
X03911*
X0391Y03388*
X03909Y03388*
X03908*
G37*
G36*
X0432Y03447D02*
X04319D01*
X04319*
X04318*
X04318Y03447*
X04317*
X04317Y03447*
X04316Y03447*
X04315Y03446*
X04314Y03446*
X04313Y03446*
X04313Y03445*
Y03445*
X04313Y03445*
X04313Y03445*
X04312Y03445*
X04312Y03444*
X04312Y03444*
X04311Y03443*
X04311Y03443*
X04311Y03442*
Y03442*
Y03441*
Y03441*
Y03441*
Y03441*
Y03441*
Y03441*
X04311Y0344*
X04311Y0344*
X04312Y03439*
X04312Y03439*
X04312Y03439*
X04312Y03438*
X04312Y03438*
X04313Y03438*
X04313Y03437*
X04313*
X04313Y03437*
X04313*
X04313Y03437*
X04314Y03437*
X04314Y03437*
X04314Y03437*
X04315Y03436*
X04315Y03436*
X04316Y03436*
X04316Y03436*
X04317Y03436*
X04317Y03436*
X04318*
X04319Y03436*
X04319*
X0432*
X0432*
X04321*
X04321Y03436*
X04321*
X04322Y03436*
X04323Y03436*
X04324Y03436*
X04325Y03437*
X04325Y03437*
X04326Y03437*
X04326*
Y03437*
X04326Y03438*
X04326Y03438*
X04326Y03438*
X04327Y03438*
X04327Y03439*
X04328Y0344*
X04328Y0344*
Y0344*
X04328Y03441*
X04328Y03441*
Y03441*
Y03442*
X04328Y03442*
Y03442*
X04328Y03442*
X04328Y03443*
X04327Y03443*
X04327Y03444*
X04327Y03444*
X04327Y03444*
X04327Y03445*
X04326Y03445*
X04326Y03445*
X04326Y03445*
X04326Y03445*
X04325Y03446*
X04325Y03446*
X04325Y03446*
X04325Y03446*
X04324Y03446*
X04324Y03446*
X04323Y03446*
X04323Y03447*
X04322Y03447*
X04322Y03447*
X04321*
X0432Y03447*
G37*
G36*
X04324Y0337D02*
X04324D01*
X04324*
X04324*
X04323Y0337*
X04323Y0337*
X04323Y0337*
X04322Y03369*
X04322Y03369*
X04322Y03369*
X04322Y03369*
X04322Y03369*
X04322Y03369*
X04322Y03368*
X04321Y03368*
Y03368*
X04321Y03368*
X04321Y03367*
Y03367*
X04321Y03366*
Y03366*
Y03365*
Y03365*
Y03365*
Y03361*
X04328*
Y03365*
Y03365*
Y03365*
Y03365*
Y03366*
X04328Y03366*
Y03367*
Y03367*
X04327Y03368*
X04327Y03368*
Y03368*
Y03368*
X04327Y03368*
X04327Y03369*
X04327Y03369*
X04327Y03369*
X04327Y03369*
X04326Y03369*
Y03369*
X04326*
X04326Y0337*
X04326Y0337*
X04326Y0337*
X04325Y0337*
X04325*
X04324*
G37*
G36*
X04314Y03369D02*
X04314D01*
X04314*
X04313Y03369*
X04313Y03369*
X04313Y03369*
X04312Y03369*
X04312*
Y03369*
X04312Y03368*
X04312Y03368*
X04312Y03368*
X04312Y03368*
X04311Y03367*
Y03367*
X04311Y03367*
Y03367*
Y03367*
Y03367*
Y03366*
Y03366*
Y03366*
X04311Y03365*
Y03365*
Y03364*
Y03364*
Y03361*
X04317*
Y03364*
Y03364*
Y03364*
Y03364*
Y03365*
Y03365*
X04317Y03366*
Y03366*
Y03367*
Y03367*
Y03367*
Y03367*
X04317Y03367*
X04317Y03368*
X04317Y03368*
X04316Y03368*
X04316Y03368*
X04316Y03369*
X04316*
X04316Y03369*
X04316Y03369*
X04315Y03369*
X04315Y03369*
X04315Y03369*
X04314Y03369*
X04314*
G37*
G36*
X02687Y03041D02*
X02685D01*
Y03025*
X02688*
X02688Y03025*
X02689*
X02689*
X0269Y03025*
X0269Y03025*
X02691Y03025*
X02691Y03025*
X02691Y03025*
X02691Y03025*
X02692Y03026*
X02692Y03026*
X02692*
Y03026*
X02692Y03026*
X02692Y03027*
X02692Y03027*
X02693Y03027*
X02693Y03028*
X02693Y03028*
Y03029*
X02693Y03029*
X02693Y0303*
X02693Y0303*
Y03031*
X02693Y03032*
Y03033*
Y03033*
Y03033*
Y03033*
Y03033*
X02693Y03034*
Y03034*
Y03035*
X02693Y03036*
X02693Y03036*
X02693Y03037*
Y03037*
X02693Y03037*
X02693Y03038*
X02693Y03038*
X02692Y03038*
X02692Y03039*
X02692Y03039*
X02692Y03039*
Y0304*
X02692Y0304*
X02691Y0304*
X02691Y0304*
X02691Y0304*
X02691Y0304*
X0269Y03041*
X0269Y03041*
X0269*
X0269Y03041*
X02689*
X02689*
X02689Y03041*
X02688*
X02687Y03041*
G37*
G36*
X02741Y03035D02*
X02741D01*
X02741*
X0274Y03035*
X0274Y03035*
X0274Y03035*
X02739Y03034*
X02739Y03034*
X02739Y03034*
X02739Y03034*
X02739Y03033*
X02739Y03033*
X02738Y03032*
X02738Y03032*
Y03031*
X02744*
Y03031*
Y03031*
Y03031*
X02744Y03032*
X02744Y03032*
X02744Y03033*
X02744Y03033*
X02744Y03034*
X02743Y03034*
X02743*
X02743Y03034*
X02743Y03034*
X02743Y03035*
X02742Y03035*
X02742Y03035*
X02742Y03035*
X02741*
G37*
G36*
X02652D02*
X02652D01*
X02651*
X02651Y03035*
X02651Y03035*
X02651Y03035*
X0265Y03034*
X0265Y03034*
X0265Y03034*
X0265Y03034*
X02649Y03033*
X02649Y03033*
X02649Y03032*
X02649Y03032*
Y03031*
X02655*
Y03031*
Y03031*
Y03031*
X02655Y03032*
Y03032*
X02655Y03033*
X02654Y03033*
X02654Y03034*
X02654Y03034*
X02654Y03034*
X02654Y03034*
X02653Y03035*
X02653Y03035*
X02653Y03035*
X02652Y03035*
X02652*
G37*
G36*
X02588Y03041D02*
X02584D01*
Y03035*
X02588*
X02589Y03035*
X0259*
X0259*
X0259*
X0259Y03035*
X0259*
X02591Y03036*
X02591Y03036*
X02591Y03036*
X02591Y03036*
X02592Y03036*
X02592*
X02592Y03036*
Y03036*
X02592Y03037*
X02592Y03037*
X02592Y03037*
Y03038*
X02592Y03038*
Y03038*
Y03038*
X02592Y03039*
Y03039*
X02592Y03039*
X02592Y0304*
X02592Y0304*
X02592Y0304*
X02592Y0304*
X02591Y0304*
X02591Y03041*
X02591Y03041*
X02591Y03041*
X0259*
X0259Y03041*
X0259*
X0259*
X02589*
X02589Y03041*
X02589*
X02588*
G37*
G36*
X02589Y03031D02*
X02584D01*
Y03025*
X02589*
X02589Y03025*
X0259*
X02591Y03025*
X02591*
X02591Y03025*
X02591*
X02591*
X02592Y03025*
X02592Y03025*
X02592Y03025*
X02592Y03025*
X02592Y03026*
X02593Y03026*
Y03026*
X02593Y03026*
Y03026*
X02593Y03026*
X02593Y03027*
X02593Y03027*
X02593Y03027*
Y03028*
Y03028*
Y03028*
Y03028*
X02593Y03028*
X02593Y03029*
Y03029*
X02593Y03029*
X02592Y0303*
Y0303*
X02592Y0303*
X02592Y0303*
X02592Y0303*
X02592Y0303*
X02592Y03031*
X02591Y03031*
X02591Y03031*
X02591*
X02591Y03031*
X0259Y03031*
X0259*
X02589Y03031*
X02589*
X02589*
G37*
G36*
X02561Y03041D02*
X02558D01*
Y03034*
X02561*
X02561Y03034*
X02562*
X02562*
X02563Y03034*
X02563Y03034*
X02563Y03034*
X02563Y03034*
X02564Y03034*
X02564Y03035*
X02564Y03035*
X02564Y03035*
X02564Y03035*
X02564*
Y03035*
X02565Y03036*
X02565Y03036*
X02565Y03036*
X02565Y03037*
X02565Y03037*
Y03037*
Y03037*
Y03038*
Y03038*
X02565Y03038*
X02565Y03038*
Y03039*
X02565Y03039*
X02564Y03039*
X02564Y0304*
X02564Y0304*
X02564Y0304*
X02564Y0304*
X02564Y0304*
X02563Y0304*
X02563Y03041*
X02563*
X02563Y03041*
X02562*
X02562Y03041*
X02561*
X02561*
X02561Y03041*
G37*
G36*
X02895Y03041D02*
X02895D01*
X02894*
X02894Y03041*
X02894*
X02893Y03041*
X02893Y0304*
X02893Y0304*
X02893*
X02892Y0304*
X02892Y0304*
X02892Y0304*
X02892Y0304*
X02892Y03039*
X02892Y03039*
X02891Y03039*
Y03039*
X02891Y03038*
X02891Y03038*
Y03037*
X02891Y03037*
Y03036*
Y03036*
Y03036*
Y03035*
Y03033*
X02899*
Y03035*
Y03035*
Y03036*
Y03036*
Y03036*
Y03037*
X02899Y03037*
Y03038*
X02899Y03038*
X02898Y03039*
Y03039*
X02898Y03039*
X02898Y03039*
X02898Y03039*
X02898Y03039*
X02898Y0304*
X02897Y0304*
X02897Y0304*
Y0304*
X02897*
X02897Y0304*
X02897Y0304*
X02896Y03041*
X02896Y03041*
X02895Y03041*
X02895*
G37*
G36*
X02894Y03137D02*
X02894D01*
X02894Y03137*
X02894*
X02893Y03137*
X02893Y03137*
X02892Y03136*
Y03136*
X02892*
X02892Y03136*
X02892Y03136*
X02892Y03136*
X02892Y03136*
X02891Y03135*
X02891Y03135*
Y03135*
Y03135*
X02891Y03135*
Y03134*
Y03134*
Y03134*
X02891Y03134*
Y03133*
Y03133*
Y03132*
Y03132*
Y03131*
Y03128*
X02898*
Y03131*
Y03131*
Y03131*
Y03132*
Y03132*
Y03132*
X02898Y03133*
Y03133*
Y03134*
X02898Y03135*
Y03135*
X02898Y03135*
Y03135*
X02898Y03135*
X02897Y03136*
X02897Y03136*
X02897Y03136*
X02897Y03136*
X02897Y03136*
X02897*
X02896*
X02896Y03137*
X02896Y03137*
X02896Y03137*
X02895Y03137*
X02895*
X02894Y03137*
G37*
G36*
Y03168D02*
X02894D01*
X02894*
X02894Y03168*
X02893Y03168*
X02893Y03168*
X02892Y03167*
X02892Y03167*
X02892Y03167*
X02892Y03167*
X02892Y03167*
X02892Y03167*
X02891Y03166*
X02891Y03166*
Y03166*
X02891Y03166*
Y03165*
Y03165*
Y03165*
X02891Y03165*
Y03164*
Y03164*
Y03163*
Y03163*
Y03162*
Y03159*
X02898*
Y03162*
Y03162*
Y03162*
Y03162*
Y03163*
Y03163*
Y03163*
X02898Y03164*
Y03164*
Y03165*
X02898Y03166*
Y03166*
X02898Y03166*
Y03166*
Y03166*
X02898Y03166*
X02897Y03167*
X02897Y03167*
X02897Y03167*
X02897Y03167*
X02897Y03167*
X02897*
X02896Y03168*
X02896Y03168*
X02896Y03168*
X02896Y03168*
X02895*
X02895Y03168*
X02894*
G37*
G36*
X02901Y03065D02*
X02899D01*
X02899*
X02899*
X02898Y03065*
X02898Y03065*
X02897*
X02896Y03065*
X02895Y03064*
X02894Y03064*
X02893Y03064*
X02893Y03063*
Y03063*
X02893Y03063*
X02893Y03063*
X02892Y03063*
X02892Y03062*
X02891Y03062*
X02891Y03061*
X02891Y0306*
X02891Y0306*
Y03059*
Y03059*
Y03059*
Y03059*
Y03059*
Y03059*
Y03058*
X02891Y03058*
X02891Y03057*
X02891Y03057*
X02891Y03056*
X02892Y03056*
X02892Y03056*
X02892Y03055*
X02893Y03055*
X02893Y03055*
X02893*
X02893Y03054*
X02893*
X02893Y03054*
X02894Y03054*
X02894Y03054*
X02894Y03054*
X02895Y03054*
X02895Y03054*
X02896Y03053*
X02896Y03053*
X02897Y03053*
X02898Y03053*
X02898Y03053*
X02899*
X029Y03053*
X029*
X02901Y03053*
X02901*
X02902*
X02902Y03053*
X02903Y03053*
X02904Y03053*
X02905Y03054*
X02906Y03054*
X02907Y03054*
X02907Y03055*
X02907*
Y03055*
X02907Y03055*
X02907Y03055*
X02908Y03055*
X02908Y03056*
X02909Y03056*
X02909Y03057*
X02909Y03058*
Y03058*
X02909Y03059*
X02909Y03059*
Y03059*
Y03059*
X02909Y03059*
Y0306*
X02909Y0306*
X02909Y03061*
X02909Y03061*
X02909Y03062*
X02908Y03062*
X02908Y03062*
X02908Y03063*
X02907Y03063*
X02907Y03063*
X02907Y03063*
X02907Y03064*
X02907Y03064*
X02906Y03064*
X02906Y03064*
X02906Y03064*
X02905Y03064*
X02905Y03064*
X02904Y03065*
X02904Y03065*
X02903Y03065*
X02902Y03065*
X02902Y03065*
X02901Y03065*
G37*
G36*
X0432Y03311D02*
X04319D01*
X04319*
X04318*
X04318*
X04317Y0331*
X04317*
X04316Y0331*
X04315Y0331*
X04314Y0331*
X04313Y03309*
X04313Y03309*
Y03309*
X04313Y03309*
X04313Y03309*
X04312Y03308*
X04312Y03308*
X04312Y03307*
X04311Y03307*
X04311Y03306*
X04311Y03306*
Y03305*
Y03305*
Y03305*
Y03305*
Y03305*
Y03304*
X04311Y03304*
X04311Y03304*
X04312Y03303*
X04312Y03303*
X04312Y03302*
X04312Y03302*
X04312Y03302*
X04313Y03301*
X04313Y03301*
X04313*
X04313*
X04313Y03301*
X04313Y03301*
X04314Y03301*
X04314Y03301*
X04314Y033*
X04315Y033*
X04315Y033*
X04316Y033*
X04316Y033*
X04317Y033*
X04317Y033*
X04318*
X04319Y03299*
X04319*
X0432*
X0432*
X04321*
X04321Y033*
X04321*
X04322Y033*
X04323Y033*
X04324Y033*
X04325Y03301*
X04325Y03301*
X04326Y03301*
X04326*
Y03301*
X04326Y03301*
X04326Y03301*
X04326Y03302*
X04327Y03302*
X04327Y03303*
X04328Y03303*
X04328Y03304*
Y03304*
X04328Y03305*
X04328Y03305*
Y03305*
Y03305*
X04328Y03305*
Y03306*
X04328Y03306*
X04328Y03306*
X04327Y03307*
X04327Y03307*
X04327Y03308*
X04327Y03308*
X04327Y03308*
X04326Y03309*
X04326Y03309*
X04326Y03309*
X04326Y03309*
X04325Y03309*
X04325Y03309*
X04325Y03309*
X04325Y0331*
X04324Y0331*
X04324Y0331*
X04323Y0331*
X04323Y0331*
X04322Y0331*
X04322Y0331*
X04321Y03311*
X0432*
G37*
G36*
X04322Y03269D02*
X04313Y03266D01*
X04322Y03264*
Y03269*
G37*
%LNvapeix_mini_pcb-3*%
%LPD*%
G54D10*
X04246Y03365D02*
D01*
X04246Y03369*
X04246Y03373*
X04245Y03378*
X04244Y03382*
X04243Y03386*
X04241Y0339*
X04239Y03394*
X04237Y03398*
X04234Y03402*
X04232Y03405*
X04229Y03408*
X04225Y03411*
X04222Y03414*
X04219Y03417*
X04215Y03419*
X04211Y03421*
X04207Y03423*
X04203Y03424*
X04199Y03426*
X04194Y03427*
X0419Y03427*
X04185Y03427*
X04181*
X04177Y03427*
X04172Y03427*
X04168Y03426*
X04164Y03424*
X0416Y03423*
X04156Y03421*
X04152Y03419*
X04148Y03417*
X04145Y03414*
X04141Y03411*
X04138Y03408*
X04135Y03405*
X04132Y03402*
X0413Y03398*
X04128Y03394*
X04126Y0339*
X04124Y03386*
X04123Y03382*
X04122Y03378*
X04121Y03373*
X0412Y03369*
X0412Y03365*
X0412Y0336*
X04121Y03356*
X04122Y03351*
X04123Y03347*
X04124Y03343*
X04126Y03339*
X04128Y03335*
X0413Y03331*
X04132Y03327*
X04135Y03324*
X04138Y03321*
X04141Y03318*
X04145Y03315*
X04148Y03312*
X04152Y0331*
X04156Y03308*
X0416Y03306*
X04164Y03305*
X04168Y03303*
X04172Y03302*
X04177Y03302*
X04181Y03302*
X04185*
X0419Y03302*
X04194Y03302*
X04199Y03303*
X04203Y03305*
X04207Y03306*
X04211Y03308*
X04215Y0331*
X04219Y03312*
X04222Y03315*
X04225Y03318*
X04229Y03321*
X04232Y03324*
X04234Y03327*
X04237Y03331*
X04239Y03335*
X04241Y03339*
X04243Y03343*
X04244Y03347*
X04245Y03351*
X04246Y03356*
X04246Y0336*
X04246Y03365*
X02744D02*
D01*
X02743Y03369*
X02743Y03373*
X02742Y03378*
X02741Y03382*
X0274Y03386*
X02738Y0339*
X02736Y03394*
X02734Y03398*
X02731Y03402*
X02729Y03405*
X02726Y03408*
X02723Y03411*
X02719Y03414*
X02716Y03417*
X02712Y03419*
X02708Y03421*
X02704Y03423*
X027Y03424*
X02696Y03426*
X02691Y03427*
X02687Y03427*
X02683Y03427*
X02678*
X02674Y03427*
X0267Y03427*
X02665Y03426*
X02661Y03424*
X02657Y03423*
X02653Y03421*
X02649Y03419*
X02645Y03417*
X02642Y03414*
X02638Y03411*
X02635Y03408*
X02632Y03405*
X0263Y03402*
X02627Y03398*
X02625Y03394*
X02623Y0339*
X02621Y03386*
X0262Y03382*
X02619Y03378*
X02618Y03373*
X02618Y03369*
X02618Y03365*
X02618Y0336*
X02618Y03356*
X02619Y03351*
X0262Y03347*
X02621Y03343*
X02623Y03339*
X02625Y03335*
X02627Y03331*
X0263Y03327*
X02632Y03324*
X02635Y03321*
X02638Y03318*
X02642Y03315*
X02645Y03312*
X02649Y0331*
X02653Y03308*
X02657Y03306*
X02661Y03305*
X02665Y03303*
X0267Y03302*
X02674Y03302*
X02678Y03302*
X02683*
X02687Y03302*
X02691Y03302*
X02696Y03303*
X027Y03305*
X02704Y03306*
X02708Y03308*
X02712Y0331*
X02716Y03312*
X02719Y03315*
X02723Y03318*
X02726Y03321*
X02729Y03324*
X02731Y03327*
X02734Y03331*
X02736Y03335*
X02738Y03339*
X0274Y03343*
X02741Y03347*
X02742Y03351*
X02743Y03356*
X02743Y0336*
X02744Y03365*
X03198Y03065D02*
D01*
X03198Y03065*
X03198Y03066*
X03198Y03066*
X03198Y03066*
X03198Y03066*
X03198Y03066*
X03198Y03066*
X03198Y03066*
X03198Y03066*
X03197Y03067*
X03197Y03067*
X03197Y03067*
X03197Y03067*
X03197Y03067*
X03197Y03067*
X03197Y03067*
X03197Y03067*
X03197Y03067*
X03196Y03067*
X03196Y03067*
X03196Y03067*
X03196Y03067*
X03196*
X03196Y03067*
X03196Y03067*
X03195Y03067*
X03195Y03067*
X03195Y03067*
X03195Y03067*
X03195Y03067*
X03195Y03067*
X03195Y03067*
X03195Y03067*
X03194Y03067*
X03194Y03067*
X03194Y03066*
X03194Y03066*
X03194Y03066*
X03194Y03066*
X03194Y03066*
X03194Y03066*
X03194Y03066*
X03194Y03066*
X03194Y03065*
X03194Y03065*
X03194Y03065*
X03194Y03065*
X03194Y03065*
X03194Y03065*
X03194Y03065*
X03194Y03064*
X03194Y03064*
X03194Y03064*
X03194Y03064*
X03194Y03064*
X03194Y03064*
X03195Y03064*
X03195Y03064*
X03195Y03064*
X03195Y03064*
X03195Y03064*
X03195Y03063*
X03195Y03063*
X03195Y03063*
X03196Y03063*
X03196Y03063*
X03196Y03063*
X03196*
X03196Y03063*
X03196Y03063*
X03196Y03063*
X03197Y03063*
X03197Y03063*
X03197Y03064*
X03197Y03064*
X03197Y03064*
X03197Y03064*
X03197Y03064*
X03197Y03064*
X03197Y03064*
X03198Y03064*
X03198Y03064*
X03198Y03064*
X03198Y03064*
X03198Y03065*
X03198Y03065*
X03198Y03065*
X03198Y03065*
X03198Y03065*
X03198Y03065*
X03084Y03647D02*
Y03675D01*
X03155Y03647D02*
Y03675D01*
X03129Y03647D02*
X03155D01*
X03084D02*
X0311D01*
X03129Y03675D02*
X03155D01*
X03084D02*
X0311D01*
X0318Y03586D02*
Y03622D01*
Y03642D02*
Y03678D01*
X03219Y03586D02*
Y03622D01*
Y03642D02*
Y03678D01*
X0318D02*
X03219D01*
X0318Y03586D02*
X03219D01*
X02984Y03546D02*
Y03572D01*
Y03501D02*
Y03527D01*
X02957Y03546D02*
Y03572D01*
Y03501D02*
Y03527D01*
Y03501D02*
X02984D01*
X02957Y03572D02*
X02984D01*
X03317Y03668D02*
X03347D01*
X03317Y03599D02*
X03347D01*
X03317D02*
Y03623D01*
Y03643D02*
Y03668D01*
X03347Y03599D02*
Y03623D01*
Y03643D02*
Y03668D01*
X03279D02*
X03308D01*
X03279Y03599D02*
X03308D01*
X03279D02*
Y03623D01*
Y03643D02*
Y03668D01*
X03308Y03599D02*
Y03623D01*
Y03643D02*
Y03668D01*
X03061Y0359D02*
Y03629D01*
X03153Y0359D02*
Y03629D01*
X03061D02*
X03097D01*
X03117D02*
X03153D01*
X03061Y0359D02*
X03097D01*
X03117D02*
X03153D01*
X03477Y03617D02*
X03503D01*
X03432D02*
X03458D01*
X03477Y03644D02*
X03503D01*
X03432D02*
X03458D01*
X03432Y03617D02*
Y03644D01*
X03503Y03617D02*
Y03644D01*
X0291Y03333D02*
X02936D01*
X02955D02*
X02981D01*
X0291Y03305D02*
X02936D01*
X02955D02*
X02981D01*
Y03333*
X0291Y03305D02*
Y03333D01*
X03504Y03539D02*
Y03552D01*
X03467Y03588D02*
X03472D01*
X03435Y03539D02*
Y03552D01*
X03467Y03503D02*
X03472D01*
X03001Y03576D02*
X03037D01*
X03057D02*
X03093D01*
X03001Y03537D02*
X03037D01*
X03057D02*
X03093D01*
Y03576*
X03001Y03537D02*
Y03576D01*
X03001Y03524D02*
X03027D01*
X03047D02*
X03072D01*
X03001Y03497D02*
X03027D01*
X03047D02*
X03072D01*
Y03524*
X03001Y03497D02*
Y03524D01*
X03553Y0355D02*
Y03575D01*
Y03504D02*
Y0353D01*
X03526Y0355D02*
Y03575D01*
Y03504D02*
Y0353D01*
Y03504D02*
X03553D01*
X03526Y03575D02*
X03553D01*
X03401Y03578D02*
Y03604D01*
Y03533D02*
Y03558D01*
X03373Y03578D02*
Y03604D01*
Y03533D02*
Y03558D01*
Y03533D02*
X03401D01*
X03373Y03604D02*
X03401D01*
X0347Y03451D02*
X03495D01*
X03425D02*
X0345D01*
X0347Y03479D02*
X03495D01*
X03425D02*
X0345D01*
X03425Y03451D02*
Y03479D01*
X03495Y03451D02*
Y03479D01*
X0347Y03415D02*
X03495D01*
X03424D02*
X0345D01*
X0347Y03442D02*
X03495D01*
X03424D02*
X0345D01*
X03424Y03415D02*
Y03442D01*
X03495Y03415D02*
Y03442D01*
X03482Y03282D02*
X03508D01*
X03527D02*
X03553D01*
X03482Y03255D02*
X03508D01*
X03527D02*
X03553D01*
Y03282*
X03482Y03255D02*
Y03282D01*
X03464Y03329D02*
X03491D01*
X03464Y03399D02*
X03491D01*
Y03374D02*
Y03399D01*
Y03329D02*
Y03354D01*
X03464Y03374D02*
Y03399D01*
Y03329D02*
Y03354D01*
X03452Y03374D02*
Y03399D01*
Y03329D02*
Y03354D01*
X03425Y03374D02*
Y03399D01*
Y03329D02*
Y03354D01*
Y03329D02*
X03452D01*
X03425Y03399D02*
X03452D01*
X03608Y03297D02*
Y03323D01*
Y03252D02*
Y03278D01*
X03581Y03297D02*
Y03323D01*
Y03252D02*
Y03278D01*
Y03252D02*
X03608D01*
X03581Y03323D02*
X03608D01*
X03005Y03333D02*
X03031D01*
X0305D02*
X03076D01*
X03005Y03305D02*
X03031D01*
X0305D02*
X03076D01*
Y03333*
X03005Y03305D02*
Y03333D01*
X0223Y03437D02*
Y03463D01*
Y03392D02*
Y03418D01*
X02203Y03437D02*
Y03463D01*
Y03392D02*
Y03418D01*
Y03392D02*
X0223D01*
X02203Y03463D02*
X0223D01*
X02242Y03462D02*
X02272D01*
X02242Y03393D02*
X02272D01*
X02242D02*
Y03418D01*
Y03437D02*
Y03462D01*
X02272Y03393D02*
Y03418D01*
Y03437D02*
Y03462D01*
X02242Y03314D02*
X02272D01*
X02242Y03383D02*
X02272D01*
Y03358D02*
Y03383D01*
Y03314D02*
Y03339D01*
X02242Y03358D02*
Y03383D01*
Y03314D02*
Y03339D01*
X0223Y03357D02*
Y03383D01*
Y03312D02*
Y03338D01*
X02203Y03357D02*
Y03383D01*
Y03312D02*
Y03338D01*
Y03312D02*
X0223D01*
X02203Y03383D02*
X0223D01*
X03824Y03091D02*
Y0312D01*
X03893Y03091D02*
Y0312D01*
X03868Y03091D02*
X03893D01*
X03824D02*
X03849D01*
X03868Y0312D02*
X03893D01*
X03824D02*
X03849D01*
X02895Y03682D02*
X02925D01*
X02895Y03613D02*
X02925D01*
X02895D02*
Y03638D01*
Y03658D02*
Y03682D01*
X02925Y03613D02*
Y03638D01*
Y03658D02*
Y03682D01*
X04065Y03246D02*
X04301D01*
X04065D02*
Y03483D01*
X04301*
Y03246D02*
Y03483D01*
X02562Y03246D02*
X02799D01*
X02562D02*
Y03483D01*
X02799*
Y03246D02*
Y03483D01*
X02944Y03069D02*
Y03105D01*
Y03125D02*
Y03161D01*
X02983Y03069D02*
Y03105D01*
Y03125D02*
Y03161D01*
X02944D02*
X02983D01*
X02944Y03069D02*
X02983D01*
X0323Y03179D02*
X03266D01*
X03174D02*
X0321D01*
X0323Y03218D02*
X03266D01*
X03174D02*
X0321D01*
X03174Y03179D02*
Y03218D01*
X03266Y03179D02*
Y03218D01*
X03232Y03135D02*
X03258D01*
X03187D02*
X03213D01*
X03232Y03163D02*
X03258D01*
X03187D02*
X03213D01*
X03187Y03135D02*
Y03163D01*
X03258Y03135D02*
Y03163D01*
X03255Y03054D02*
X03261D01*
X03255Y03101D02*
X03261D01*
X03182Y03054D02*
X03188D01*
X03182Y03101D02*
X03188D01*
X03261Y03054D02*
Y03101D01*
X03182Y03054D02*
Y03101D01*
X02494Y03639D02*
Y03669D01*
X02425Y03639D02*
Y03669D01*
X0245*
X0247D02*
X02494D01*
X02425Y03639D02*
X0245D01*
X0247D02*
X02494D01*
X02425Y03594D02*
Y03623D01*
X02494Y03594D02*
Y03623D01*
X0247Y03594D02*
X02494D01*
X02425D02*
X0245D01*
X0247Y03623D02*
X02494D01*
X02425D02*
X0245D01*
X02424Y03578D02*
X0245D01*
X0247D02*
X02495D01*
X02424Y0355D02*
X0245D01*
X0247D02*
X02495D01*
Y03578*
X02424Y0355D02*
Y03578D01*
Y03534D02*
X0245D01*
X0247D02*
X02495D01*
X02424Y03507D02*
X0245D01*
X0247D02*
X02495D01*
Y03534*
X02424Y03507D02*
Y03534D01*
X02676Y03049D02*
Y03078D01*
X02607Y03049D02*
Y03078D01*
X02632*
X02651D02*
X02676D01*
X02607Y03049D02*
X02632D01*
X02651D02*
X02676D01*
X02609Y03109D02*
Y03138D01*
X02678Y03109D02*
Y03138D01*
X02653Y03109D02*
X02678D01*
X02609D02*
X02634D01*
X02653Y03138D02*
X02678D01*
X02609D02*
X02634D01*
G54D43*
X0424Y03146D02*
D01*
X0424Y03146*
X0424Y03147*
X0424Y03147*
X0424Y03147*
X0424Y03148*
X0424Y03148*
X0424Y03148*
X0424Y03148*
X0424Y03148*
X04239Y03149*
X04239Y03149*
X04239Y03149*
X04239Y03149*
X04239Y03149*
X04238Y0315*
X04238Y0315*
X04238Y0315*
X04238Y0315*
X04237Y0315*
X04237Y0315*
X04237Y0315*
X04237Y0315*
X04236*
X04236Y0315*
X04236Y0315*
X04235Y0315*
X04235Y0315*
X04235Y0315*
X04235Y0315*
X04234Y0315*
X04234Y03149*
X04234Y03149*
X04234Y03149*
X04234Y03149*
X04233Y03149*
X04233Y03148*
X04233Y03148*
X04233Y03148*
X04233Y03148*
X04233Y03148*
X04233Y03147*
X04233Y03147*
X04233Y03147*
X04233Y03146*
X04233Y03146*
X04233Y03146*
X04233Y03146*
X04233Y03145*
X04233Y03145*
X04233Y03145*
X04233Y03145*
X04233Y03144*
X04233Y03144*
X04233Y03144*
X04233Y03144*
X04234Y03143*
X04234Y03143*
X04234Y03143*
X04234Y03143*
X04234Y03143*
X04235Y03143*
X04235Y03143*
X04235Y03142*
X04235Y03142*
X04236Y03142*
X04236Y03142*
X04236Y03142*
X04237*
X04237Y03142*
X04237Y03142*
X04237Y03142*
X04238Y03142*
X04238Y03143*
X04238Y03143*
X04238Y03143*
X04239Y03143*
X04239Y03143*
X04239Y03143*
X04239Y03143*
X04239Y03144*
X0424Y03144*
X0424Y03144*
X0424Y03144*
X0424Y03145*
X0424Y03145*
X0424Y03145*
X0424Y03145*
X0424Y03146*
X0424Y03146*
X0424Y03146*
Y03688D02*
D01*
X0424Y03688*
X0424Y03688*
X0424Y03688*
X0424Y03689*
X0424Y03689*
X0424Y03689*
X0424Y03689*
X0424Y0369*
X0424Y0369*
X04239Y0369*
X04239Y0369*
X04239Y0369*
X04239Y03691*
X04239Y03691*
X04238Y03691*
X04238Y03691*
X04238Y03691*
X04238Y03691*
X04237Y03691*
X04237Y03691*
X04237Y03691*
X04237Y03691*
X04236*
X04236Y03691*
X04236Y03691*
X04235Y03691*
X04235Y03691*
X04235Y03691*
X04235Y03691*
X04234Y03691*
X04234Y03691*
X04234Y03691*
X04234Y0369*
X04234Y0369*
X04233Y0369*
X04233Y0369*
X04233Y0369*
X04233Y03689*
X04233Y03689*
X04233Y03689*
X04233Y03689*
X04233Y03688*
X04233Y03688*
X04233Y03688*
X04233Y03688*
X04233Y03687*
X04233Y03687*
X04233Y03687*
X04233Y03686*
X04233Y03686*
X04233Y03686*
X04233Y03686*
X04233Y03685*
X04233Y03685*
X04233Y03685*
X04234Y03685*
X04234Y03685*
X04234Y03684*
X04234Y03684*
X04234Y03684*
X04235Y03684*
X04235Y03684*
X04235Y03684*
X04235Y03684*
X04236Y03684*
X04236Y03684*
X04236Y03684*
X04237*
X04237Y03684*
X04237Y03684*
X04237Y03684*
X04238Y03684*
X04238Y03684*
X04238Y03684*
X04238Y03684*
X04239Y03684*
X04239Y03684*
X04239Y03685*
X04239Y03685*
X04239Y03685*
X0424Y03685*
X0424Y03685*
X0424Y03686*
X0424Y03686*
X0424Y03686*
X0424Y03686*
X0424Y03687*
X0424Y03687*
X0424Y03687*
X0424Y03688*
G54D44*
X02386Y03223D02*
D01*
X02395Y03223*
X02405Y03223*
X02414Y03224*
X02424Y03226*
X02433Y03229*
X02442Y03232*
X02451Y03235*
X0246Y0324*
X02468Y03244*
X02476Y0325*
X02484Y03256*
X02491Y03262*
X02498Y03269*
X02504Y03277*
X0251Y03285*
X02515Y03293*
X02519Y03301*
X02523Y0331*
X02526Y03319*
X02529Y03329*
X02531Y03338*
X02532Y03348*
X02533Y03357*
X02533Y03367*
X02532Y03377*
X02531Y03386*
X02529Y03396*
X02526Y03405*
X02523Y03414*
X02519Y03423*
X02514Y03431*
X02509Y03439*
X02503Y03447*
X02497Y03455*
X0249Y03462*
X02483Y03468*
X02475Y03474*
X02467Y03479*
X02459Y03484*
X0245Y03488*
X02441Y03492*
X02432Y03495*
X02423Y03497*
X02413Y03499*
X02403Y035*
X02394Y035*
X02386Y035*
X03716Y03614D02*
D01*
X03716Y03617*
X03715Y03619*
X03715Y03622*
X03714Y03624*
X03714Y03627*
X03713Y03629*
X03712Y03631*
X0371Y03634*
X03709Y03636*
X03707Y03638*
X03706Y0364*
X03704Y03641*
X03702Y03643*
X037Y03645*
X03698Y03646*
X03695Y03647*
X03693Y03648*
X03691Y03649*
X03688Y0365*
X03686Y0365*
X03683Y03651*
X03681Y03651*
X03678*
X03676Y03651*
X03673Y0365*
X03671Y0365*
X03668Y03649*
X03666Y03648*
X03663Y03647*
X03661Y03646*
X03659Y03645*
X03657Y03643*
X03655Y03641*
X03653Y0364*
X03652Y03638*
X0365Y03636*
X03649Y03634*
X03647Y03631*
X03646Y03629*
X03645Y03627*
X03644Y03624*
X03644Y03622*
X03643Y03619*
X03643Y03617*
X03643Y03614*
X03643Y03612*
X03643Y03609*
X03644Y03607*
X03644Y03604*
X03645Y03602*
X03646Y036*
X03647Y03597*
X03649Y03595*
X0365Y03593*
X03652Y03591*
X03653Y03589*
X03655Y03587*
X03657Y03586*
X03659Y03584*
X03661Y03583*
X03663Y03582*
X03666Y03581*
X03668Y0358*
X03671Y03579*
X03673Y03579*
X03676Y03578*
X03678Y03578*
X03681*
X03683Y03578*
X03686Y03579*
X03688Y03579*
X03691Y0358*
X03693Y03581*
X03695Y03582*
X03698Y03583*
X037Y03584*
X03702Y03586*
X03704Y03587*
X03706Y03589*
X03707Y03591*
X03709Y03593*
X0371Y03595*
X03712Y03597*
X03713Y036*
X03714Y03602*
X03714Y03604*
X03715Y03607*
X03715Y03609*
X03716Y03612*
X03716Y03614*
X03757Y03506D02*
D01*
X03747Y03504*
X03738Y03502*
X03728Y03499*
X03719Y03495*
X0371Y03491*
X03701Y03486*
X03692Y0348*
X03684Y03474*
X03677Y03468*
X0367Y0346*
X03663Y03453*
X03657Y03445*
X03652Y03436*
X03647Y03427*
X03643Y03418*
X03639Y03409*
X03636Y03399*
X03634Y03389*
X03633Y03379*
X03632Y03369*
X03632Y03359*
X03632Y03349*
X03634Y03339*
X03636Y03329*
X03638Y03319*
X03642Y0331*
X03646Y03301*
X0365Y03292*
X03656Y03283*
X03661Y03275*
X03668Y03267*
X03675Y0326*
X03682Y03253*
X0369Y03247*
X03698Y03241*
X03707Y03236*
X03716Y03231*
X03725Y03227*
X03735Y03224*
X03745Y03222*
X03754Y0322*
X02501Y03363D02*
D01*
X02501Y0337*
X025Y03377*
X02498Y03385*
X02497Y03392*
X02494Y03399*
X02492Y03406*
X02488Y03413*
X02485Y03419*
X0248Y03425*
X02476Y03431*
X02471Y03437*
X02466Y03442*
X0246Y03446*
X02454Y03451*
X02448Y03455*
X02441Y03458*
X02434Y03461*
X02427Y03464*
X0242Y03466*
X02413Y03467*
X02406Y03468*
X02398Y03469*
X02391*
X02383Y03468*
X02376Y03467*
X02369Y03466*
X02362Y03464*
X02355Y03461*
X02348Y03458*
X02341Y03455*
X02335Y03451*
X02329Y03446*
X02323Y03442*
X02318Y03437*
X02313Y03431*
X02309Y03425*
X02304Y03419*
X02301Y03413*
X02297Y03406*
X02295Y03399*
X02292Y03392*
X02291Y03385*
X02289Y03377*
X02288Y0337*
X02288Y03363*
X02288Y03355*
X02289Y03348*
X02291Y03341*
X02292Y03333*
X02295Y03326*
X02297Y03319*
X02301Y03313*
X02304Y03306*
X02309Y033*
X02313Y03294*
X02318Y03289*
X02323Y03284*
X02329Y03279*
X02335Y03275*
X02341Y03271*
X02348Y03267*
X02355Y03264*
X02362Y03262*
X02369Y0326*
X02376Y03258*
X02383Y03257*
X02391Y03256*
X02398*
X02406Y03257*
X02413Y03258*
X0242Y0326*
X02427Y03262*
X02434Y03264*
X02441Y03267*
X02448Y03271*
X02454Y03275*
X0246Y03279*
X02466Y03284*
X02471Y03289*
X02476Y03294*
X0248Y033*
X02485Y03306*
X02488Y03313*
X02492Y03319*
X02494Y03326*
X02497Y03333*
X02498Y03341*
X025Y03348*
X02501Y03355*
X02501Y03363*
X03877Y03363D02*
D01*
X03877Y03371*
X03876Y03378*
X03874Y03385*
X03873Y03392*
X0387Y03399*
X03868Y03406*
X03864Y03413*
X03861Y03419*
X03856Y03426*
X03852Y03431*
X03847Y03437*
X03842Y03442*
X03836Y03447*
X0383Y03451*
X03824Y03455*
X03817Y03459*
X0381Y03462*
X03803Y03464*
X03796Y03466*
X03789Y03468*
X03782Y03469*
X03774Y03469*
X03767*
X03759Y03469*
X03752Y03468*
X03745Y03466*
X03738Y03464*
X03731Y03462*
X03724Y03459*
X03717Y03455*
X03711Y03451*
X03705Y03447*
X03699Y03442*
X03694Y03437*
X03689Y03431*
X03685Y03426*
X0368Y03419*
X03677Y03413*
X03673Y03406*
X03671Y03399*
X03668Y03392*
X03667Y03385*
X03665Y03378*
X03664Y03371*
X03664Y03363*
X03664Y03356*
X03665Y03348*
X03667Y03341*
X03668Y03334*
X03671Y03327*
X03673Y0332*
X03677Y03313*
X0368Y03307*
X03685Y03301*
X03689Y03295*
X03694Y03289*
X03699Y03284*
X03705Y03279*
X03711Y03275*
X03717Y03271*
X03724Y03268*
X03731Y03265*
X03738Y03262*
X03745Y0326*
X03752Y03258*
X03759Y03257*
X03767Y03257*
X03774*
X03782Y03257*
X03789Y03258*
X03796Y0326*
X03803Y03262*
X0381Y03265*
X03817Y03268*
X03824Y03271*
X0383Y03275*
X03836Y03279*
X03842Y03284*
X03847Y03289*
X03852Y03295*
X03856Y03301*
X03861Y03307*
X03864Y03313*
X03868Y0332*
X0387Y03327*
X03873Y03334*
X03874Y03341*
X03876Y03348*
X03877Y03356*
X03877Y03363*
X02158Y03721D02*
D01*
X02135Y03683*
X02114Y03645*
X02096Y03605*
X02081Y03564*
X02068Y03522*
X02059Y03479*
X02052Y03436*
X02049Y03392*
X02049Y03348*
X02051Y03304*
X02057Y03261*
X02066Y03218*
X02078Y03176*
X02093Y03135*
X0211Y03094*
X0213Y03056*
X02153Y03018*
X02161Y03007*
X03336Y03244D02*
D01*
X03329Y03237*
X03322Y0323*
X03316Y03223*
X03311Y03215*
X03306Y03207*
X03301Y03198*
X03298Y0319*
X03294Y03181*
X03292Y03172*
X0329Y03162*
X03289Y03153*
X03288Y03143*
X03289Y03134*
X03289Y03124*
X03291Y03115*
X03293Y03106*
X03296Y03097*
X03299Y03088*
X03303Y03079*
X03308Y03071*
X03313Y03063*
X03318Y03055*
X03325Y03048*
X03331Y03041*
X03338Y03035*
X03346Y03029*
X03354Y03024*
X03362Y03019*
X03371Y03015*
X0338Y03012*
X03389Y03009*
X03398Y03007*
X03401Y03007*
X02599Y03101D02*
D01*
X02599Y03104*
X02598Y03107*
X02598Y0311*
X02597Y03113*
X02596Y03116*
X02595Y03119*
X02593Y03122*
X02592Y03124*
X0259Y03127*
X02588Y0313*
X02586Y03132*
X02584Y03134*
X02581Y03136*
X02579Y03138*
X02576Y0314*
X02573Y03141*
X0257Y03142*
X02567Y03143*
X02564Y03144*
X02561Y03145*
X02558Y03145*
X02555Y03146*
X02552*
X02549Y03145*
X02546Y03145*
X02543Y03144*
X0254Y03143*
X02537Y03142*
X02534Y03141*
X02531Y0314*
X02528Y03138*
X02526Y03136*
X02523Y03134*
X02521Y03132*
X02519Y0313*
X02517Y03127*
X02515Y03124*
X02514Y03122*
X02512Y03119*
X02511Y03116*
X0251Y03113*
X02509Y0311*
X02509Y03107*
X02508Y03104*
X02508Y03101*
X02508Y03097*
X02509Y03094*
X02509Y03091*
X0251Y03088*
X02511Y03085*
X02512Y03082*
X02514Y03079*
X02515Y03077*
X02517Y03074*
X02519Y03071*
X02521Y03069*
X02523Y03067*
X02526Y03065*
X02528Y03063*
X02531Y03061*
X02534Y0306*
X02537Y03059*
X0254Y03058*
X02543Y03057*
X02546Y03056*
X02549Y03056*
X02552Y03055*
X02555*
X02558Y03056*
X02561Y03056*
X02564Y03057*
X02567Y03058*
X0257Y03059*
X02573Y0306*
X02576Y03061*
X02579Y03063*
X02581Y03065*
X02584Y03067*
X02586Y03069*
X02588Y03071*
X0259Y03074*
X02592Y03077*
X02593Y03079*
X02595Y03082*
X02596Y03085*
X02597Y03088*
X02598Y03091*
X02598Y03094*
X02599Y03097*
X02599Y03101*
X02781Y031D02*
D01*
X02781Y03103*
X0278Y03106*
X0278Y03109*
X02779Y03112*
X02778Y03115*
X02777Y03118*
X02775Y03121*
X02774Y03123*
X02772Y03126*
X0277Y03129*
X02768Y03131*
X02766Y03133*
X02763Y03135*
X02761Y03137*
X02758Y03139*
X02755Y0314*
X02752Y03141*
X02749Y03142*
X02746Y03143*
X02743Y03144*
X0274Y03144*
X02737Y03145*
X02734*
X02731Y03144*
X02728Y03144*
X02725Y03143*
X02722Y03142*
X02719Y03141*
X02716Y0314*
X02713Y03139*
X0271Y03137*
X02708Y03135*
X02705Y03133*
X02703Y03131*
X02701Y03129*
X02699Y03126*
X02697Y03123*
X02696Y03121*
X02694Y03118*
X02693Y03115*
X02692Y03112*
X02691Y03109*
X02691Y03106*
X0269Y03103*
X0269Y031*
X0269Y03096*
X02691Y03093*
X02691Y0309*
X02692Y03087*
X02693Y03084*
X02694Y03081*
X02696Y03078*
X02697Y03076*
X02699Y03073*
X02701Y0307*
X02703Y03068*
X02705Y03066*
X02708Y03064*
X0271Y03062*
X02713Y0306*
X02716Y03059*
X02719Y03058*
X02722Y03057*
X02725Y03056*
X02728Y03055*
X02731Y03055*
X02734Y03054*
X02737*
X0274Y03055*
X02743Y03055*
X02746Y03056*
X02749Y03057*
X02752Y03058*
X02755Y03059*
X02758Y0306*
X02761Y03062*
X02763Y03064*
X02766Y03066*
X02768Y03068*
X0277Y0307*
X02772Y03073*
X02774Y03076*
X02775Y03078*
X02777Y03081*
X02778Y03084*
X02779Y03087*
X0278Y0309*
X0278Y03093*
X02781Y03096*
X02781Y031*
X02264Y03153D02*
D01*
X02264Y03154*
X02264Y03155*
X02264Y03155*
X02263Y03156*
X02263Y03157*
X02263Y03157*
X02263Y03158*
X02262Y03158*
X02262Y03159*
X02262Y03159*
X02261Y0316*
X02261Y0316*
X0226Y03161*
X02259Y03161*
X02259Y03162*
X02258Y03162*
X02258Y03162*
X02257Y03163*
X02256Y03163*
X02256Y03163*
X02255Y03163*
X02254Y03163*
X02254*
X02253Y03163*
X02252Y03163*
X02252Y03163*
X02251Y03163*
X0225Y03162*
X0225Y03162*
X02249Y03162*
X02249Y03161*
X02248Y03161*
X02247Y0316*
X02247Y0316*
X02246Y03159*
X02246Y03159*
X02246Y03158*
X02245Y03158*
X02245Y03157*
X02245Y03157*
X02245Y03156*
X02244Y03155*
X02244Y03155*
X02244Y03154*
X02244Y03153*
X02244Y03153*
X02244Y03152*
X02244Y03151*
X02245Y0315*
X02245Y0315*
X02245Y03149*
X02245Y03149*
X02246Y03148*
X02246Y03147*
X02246Y03147*
X02247Y03146*
X02247Y03146*
X02248Y03145*
X02249Y03145*
X02249Y03145*
X0225Y03144*
X0225Y03144*
X02251Y03144*
X02252Y03144*
X02252Y03144*
X02253Y03143*
X02254Y03143*
X02254*
X02255Y03143*
X02256Y03144*
X02256Y03144*
X02257Y03144*
X02258Y03144*
X02258Y03144*
X02259Y03145*
X02259Y03145*
X0226Y03145*
X02261Y03146*
X02261Y03146*
X02262Y03147*
X02262Y03147*
X02262Y03148*
X02263Y03149*
X02263Y03149*
X02263Y0315*
X02263Y0315*
X02264Y03151*
X02264Y03152*
X02264Y03153*
X02264Y03153*
X03758Y03507D02*
X0376Y03509D01*
X0392Y03486D02*
X03931Y03475D01*
X0392Y03486D02*
Y03508D01*
Y03214D02*
Y03233D01*
X03931Y03244*
X03562Y03107D02*
X03645D01*
X03562Y03044D02*
X03645D01*
X03631Y03666D02*
X03728D01*
X03628Y03663D02*
X03631Y03666D01*
X03628Y03566D02*
Y03663D01*
X03728Y03666D02*
X03731Y03663D01*
Y03566D02*
Y03663D01*
X03628Y03566D02*
X03631Y03563D01*
X03728*
X03731Y03566*
X02Y03273D02*
Y03454D01*
X02753Y03579D02*
Y03615D01*
Y03658D02*
Y03693D01*
Y03579D02*
X02804D01*
X02753Y03693D02*
X02804D01*
X02816Y03622D02*
Y0365D01*
X03808Y03076D02*
Y03135D01*
X0391Y03076D02*
Y03135D01*
X03808Y03076D02*
X0391D01*
X03808Y03135D02*
X0391D01*
X0376Y03509D02*
Y03721D01*
X03958Y03546D02*
Y03721D01*
X0392Y03508D02*
X03958Y03546D01*
X03016Y0316D02*
X03051D01*
X03094D02*
X0313D01*
X03016Y03108D02*
Y0316D01*
X0313Y03108D02*
Y0316D01*
X03059Y03097D02*
X03086D01*
X02867Y03244D02*
X03336D01*
X02159Y03721D02*
X0376D01*
X02866Y03012D02*
Y03714D01*
X03755Y03007D02*
Y0322D01*
X02866Y0301D02*
Y03177D01*
X0396Y03007D02*
Y03174D01*
X0392Y03214D02*
X0396Y03174D01*
X03931Y03244D02*
Y03475D01*
X02162Y03007D02*
X03769D01*
X03768D02*
X04429D01*
X03764Y03721D02*
X04429D01*
Y03007D02*
Y03721D01*
X02402Y03177D02*
X02866D01*
X03598Y03564D02*
X03579D01*
X0357Y03573*
X03579Y03582*
X03598*
X03584*
Y03564*
X03598Y03591D02*
X0357D01*
X03598Y03609*
X0357*
Y03619D02*
Y03637D01*
Y03628*
X03598*
Y03665D02*
Y03646D01*
X03579Y03665*
X03575*
X0357Y0366*
Y03651*
X03575Y03646*
X02961Y03196D02*
X02957Y032D01*
X02949*
X02946Y03196*
Y0318*
X02949Y03177*
X02957*
X02961Y0318*
X02969Y03177D02*
X02977D01*
X02973*
Y032*
X02969Y03196*
X03134Y03205D02*
X0313Y03209D01*
X03122*
X03119Y03205*
Y03189*
X03122Y03186*
X0313*
X03134Y03189*
X03158Y03186D02*
X03142D01*
X03158Y03201*
Y03205*
X03154Y03209*
X03146*
X03142Y03205*
X03154Y03157D02*
X0315Y03161D01*
X03142*
X03139Y03157*
Y03141*
X03142Y03138*
X0315*
X03154Y03141*
X03162Y03157D02*
X03166Y03161D01*
X03174*
X03178Y03157*
Y03153*
X03174Y03149*
X0317*
X03174*
X03178Y03145*
Y03141*
X03174Y03138*
X03166*
X03162Y03141*
X03045Y03474D02*
X03041Y03478D01*
X03033*
X0303Y03474*
Y03458*
X03033Y03455*
X03041*
X03045Y03458*
X03065Y03455D02*
Y03478D01*
X03053Y03466*
X03069*
X03014Y03605D02*
X0301Y03609D01*
X03002*
X02999Y03605*
Y03589*
X03002Y03586*
X0301*
X03014Y03589*
X03038Y03609D02*
X03022D01*
Y03597*
X0303Y03601*
X03034*
X03038Y03597*
Y03589*
X03034Y03586*
X03026*
X03022Y03589*
X03194Y03706D02*
X0319Y0371D01*
X03182*
X03179Y03706*
Y0369*
X03182Y03687*
X0319*
X03194Y0369*
X03218Y0371D02*
X0321Y03706D01*
X03202Y03698*
Y0369*
X03206Y03687*
X03214*
X03218Y0369*
Y03694*
X03214Y03698*
X03202*
X03432Y0328D02*
X03428Y03276D01*
Y03268*
X03432Y03265*
X03448*
X03452Y03268*
Y03276*
X03448Y0328*
X03428Y03288D02*
Y03304D01*
X03432*
X03448Y03288*
X03452*
X03379Y03633D02*
X03375Y03629D01*
Y03621*
X03379Y03618*
X03395*
X03399Y03621*
Y03629*
X03395Y03633*
X03379Y03641D02*
X03375Y03645D01*
Y03653*
X03379Y03657*
X03383*
X03387Y03653*
X03391Y03657*
X03395*
X03399Y03653*
Y03645*
X03395Y03641*
X03391*
X03387Y03645*
X03383Y03641*
X03379*
X03387Y03645D02*
Y03653D01*
X0346Y03675D02*
X03456Y03679D01*
X03448*
X03445Y03675*
Y03659*
X03448Y03656*
X03456*
X0346Y03659*
X03468D02*
X03472Y03656D01*
X0348*
X03484Y03659*
Y03675*
X0348Y03679*
X03472*
X03468Y03675*
Y03671*
X03472Y03667*
X03484*
X0353Y03604D02*
X03526Y036D01*
Y03592*
X0353Y03589*
X03546*
X0355Y03592*
Y036*
X03546Y03604*
X0355Y03612D02*
Y0362D01*
Y03616*
X03526*
X0353Y03612*
Y03632D02*
X03526Y03636D01*
Y03644*
X0353Y03648*
X03546*
X0355Y03644*
Y03636*
X03546Y03632*
X0353*
X02962Y03603D02*
X02958Y03599D01*
Y03591*
X02962Y03588*
X02978*
X02982Y03591*
Y03599*
X02978Y03603*
X02982Y03611D02*
Y03619D01*
Y03615*
X02958*
X02962Y03611*
X02982Y03631D02*
Y03639D01*
Y03635*
X02958*
X02962Y03631*
X02931Y03288D02*
X02927Y03292D01*
X02919*
X02916Y03288*
Y03272*
X02919Y03269*
X02927*
X02931Y03272*
X02939Y03269D02*
X02947D01*
X02943*
Y03292*
X02939Y03288*
X02975Y03269D02*
X02959D01*
X02975Y03284*
Y03288*
X02971Y03292*
X02963*
X02959Y03288*
X03523Y03475D02*
X03519Y03479D01*
X03512*
X03508Y03475*
Y0346*
X03512Y03456*
X03519*
X03523Y0346*
X03531Y03456D02*
X03539D01*
X03535*
Y03479*
X03531Y03475*
X03551D02*
X03555Y03479D01*
X03563*
X03567Y03475*
Y03472*
X03563Y03468*
X03559*
X03563*
X03567Y03464*
Y0346*
X03563Y03456*
X03555*
X03551Y0346*
X03523Y03435D02*
X03519Y03439D01*
X03511*
X03508Y03435*
Y03419*
X03511Y03416*
X03519*
X03523Y03419*
X03531Y03416D02*
X03539D01*
X03535*
Y03439*
X03531Y03435*
X03563Y03416D02*
Y03439D01*
X03551Y03427*
X03567*
X03504Y03229D02*
X035Y03233D01*
X03492*
X03489Y03229*
Y03213*
X03492Y0321*
X035*
X03504Y03213*
X03512Y0321D02*
X0352D01*
X03516*
Y03233*
X03512Y03229*
X03548Y03233D02*
X03532D01*
Y03221*
X0354Y03225*
X03544*
X03548Y03221*
Y03213*
X03544Y0321*
X03536*
X03532Y03213*
X03586Y03231D02*
X03582Y03235D01*
X03574*
X03571Y03231*
Y03215*
X03574Y03212*
X03582*
X03586Y03215*
X03594Y03212D02*
X03602D01*
X03598*
Y03235*
X03594Y03231*
X0363Y03235D02*
X03622Y03231D01*
X03614Y03223*
Y03215*
X03618Y03212*
X03626*
X0363Y03215*
Y03219*
X03626Y03223*
X03614*
X03026Y03288D02*
X03022Y03292D01*
X03014*
X03011Y03288*
Y03272*
X03014Y03269*
X03022*
X03026Y03272*
X03034Y03269D02*
X03042D01*
X03038*
Y03292*
X03034Y03288*
X03054Y03292D02*
X0307D01*
Y03288*
X03054Y03272*
Y03269*
X02175Y0341D02*
X02171Y03406D01*
Y03398*
X02175Y03395*
X02191*
X02195Y03398*
Y03406*
X02191Y0341*
X02195Y03418D02*
Y03426D01*
Y03422*
X02171*
X02175Y03418*
Y03438D02*
X02171Y03442D01*
Y0345*
X02175Y03454*
X02179*
X02183Y0345*
X02187Y03454*
X02191*
X02195Y0345*
Y03442*
X02191Y03438*
X02187*
X02183Y03442*
X02179Y03438*
X02175*
X02183Y03442D02*
Y0345D01*
X02175Y03332D02*
X02171Y03328D01*
Y0332*
X02175Y03317*
X02191*
X02195Y0332*
Y03328*
X02191Y03332*
X02195Y0334D02*
Y03348D01*
Y03344*
X02171*
X02175Y0334*
X02191Y0336D02*
X02195Y03364D01*
Y03372*
X02191Y03376*
X02175*
X02171Y03372*
Y03364*
X02175Y0336*
X02179*
X02183Y03364*
Y03376*
X02519Y03572D02*
X02515Y03576D01*
X02507*
X02504Y03572*
Y03556*
X02507Y03553*
X02515*
X02519Y03556*
X02543Y03553D02*
X02527D01*
X02543Y03568*
Y03572*
X02539Y03576*
X02531*
X02527Y03572*
X02551D02*
X02555Y03576D01*
X02563*
X02567Y03572*
Y03568*
X02563Y03564*
X02559*
X02563*
X02567Y0356*
Y03556*
X02563Y03553*
X02555*
X02551Y03556*
X02519Y03528D02*
X02515Y03532D01*
X02507*
X02504Y03528*
Y03512*
X02507Y03509*
X02515*
X02519Y03512*
X02543Y03509D02*
X02527D01*
X02543Y03524*
Y03528*
X02539Y03532*
X02531*
X02527Y03528*
X02563Y03509D02*
Y03532D01*
X02551Y0352*
X02567*
X03136Y03088D02*
Y03065D01*
X03147*
X03151Y03068*
Y03084*
X03147Y03088*
X03136*
X03159Y03065D02*
X03167D01*
X03163*
Y03088*
X03159Y03084*
X02615Y03703D02*
Y0368D01*
X02626*
X0263Y03684*
Y03699*
X02626Y03703*
X02615*
X02638Y03699D02*
X02642Y03703D01*
X0265*
X02654Y03699*
Y03695*
X0265Y03691*
X02646*
X0265*
X02654Y03688*
Y03684*
X0265Y0368*
X02642*
X02638Y03684*
X03551Y03126D02*
Y03144D01*
X0356Y03153*
X03569Y03144*
Y03126*
Y03139*
X03551*
X03578Y03126D02*
Y03153D01*
X03596Y03126*
Y03153*
X03606D02*
X03624D01*
X03615*
Y03126*
X03633D02*
X03642D01*
X03638*
Y03153*
X03633Y03149*
X03583Y03351D02*
Y03336D01*
X03595*
Y03343*
Y03336*
X03607*
X03583Y03359D02*
X03607D01*
Y03375*
Y03383D02*
Y03391D01*
Y03387*
X03583*
X03587Y03383*
X03462Y03313D02*
Y0329D01*
X03477*
X03485D02*
X03493D01*
X03489*
Y03313*
X03485Y03309*
X03Y03651D02*
Y03628D01*
X03015*
X03039D02*
X03023D01*
X03039Y03643*
Y03647*
X03035Y03651*
X03027*
X03023Y03647*
X03097Y03709D02*
Y03686D01*
X03112*
X0312Y03705D02*
X03124Y03709D01*
X03132*
X03136Y03705*
Y03701*
X03132Y03697*
X03128*
X03132*
X03136Y03693*
Y03689*
X03132Y03686*
X03124*
X0312Y03689*
X04115Y03594D02*
X04139D01*
Y03609*
X04115Y03633D02*
Y03617D01*
X04139*
Y03633*
X04127Y03617D02*
Y03625D01*
X04115Y03641D02*
X04139D01*
Y03653*
X04135Y03657*
X04119*
X04115Y03653*
Y03641*
X04139Y03664D02*
Y03672D01*
Y03668*
X04115*
X04119Y03664*
X04115Y03048D02*
X04139D01*
Y03063*
X04115Y03087D02*
Y03071D01*
X04139*
Y03087*
X04127Y03071D02*
Y03079D01*
X04115Y03095D02*
X04139D01*
Y03107*
X04135Y03111*
X04119*
X04115Y03107*
Y03095*
X04139Y03134D02*
Y03118D01*
X04123Y03134*
X04119*
X04115Y0313*
Y03122*
X04119Y03118*
X02738Y03573D02*
X02722D01*
X02718Y03569*
Y03561*
X02722Y03558*
X02738*
X02742Y03561*
Y03569*
X02734Y03565D02*
X02742Y03573D01*
Y03569D02*
X02738Y03573D01*
X02718Y03597D02*
Y03581D01*
X0273*
X02726Y03589*
Y03593*
X0273Y03597*
X02738*
X02742Y03593*
Y03585*
X02738Y03581*
X0227Y0341D02*
X02246D01*
Y03421*
X0225Y03425*
X02258*
X02262Y03421*
Y0341*
Y03417D02*
X0227Y03425D01*
Y03433D02*
Y03441D01*
Y03437*
X02246*
X0225Y03433*
X0227Y03327D02*
X02246D01*
Y03338*
X0225Y03342*
X02258*
X02262Y03338*
Y03327*
Y03334D02*
X0227Y03342D01*
Y03366D02*
Y0335D01*
X02254Y03366*
X0225*
X02246Y03362*
Y03354*
X0225Y0335*
X02505Y03598D02*
Y03621D01*
X02516*
X0252Y03617*
Y03609*
X02516Y03605*
X02505*
X02512D02*
X0252Y03598D01*
X0254D02*
Y03621D01*
X02528Y03609*
X02544*
X02505Y03642D02*
Y03665D01*
X02516*
X0252Y03661*
Y03653*
X02516Y03649*
X02505*
X02512D02*
X0252Y03642D01*
X02544Y03665D02*
X02528D01*
Y03653*
X02536Y03657*
X0254*
X02544Y03653*
Y03645*
X0254Y03642*
X02532*
X02528Y03645*
X02891Y03577D02*
Y036D01*
X02902*
X02906Y03596*
Y03588*
X02902Y03584*
X02891*
X02898D02*
X02906Y03577D01*
X0293Y036D02*
X02922Y03596D01*
X02914Y03588*
Y0358*
X02918Y03577*
X02926*
X0293Y0358*
Y03584*
X02926Y03588*
X02914*
X02615Y03143D02*
Y03166D01*
X02626*
X0263Y03162*
Y03154*
X02626Y0315*
X02615*
X02622D02*
X0263Y03143D01*
X02638D02*
X02646D01*
X02642*
Y03166*
X02638Y03162*
X02658Y03166D02*
X02674D01*
Y03162*
X02658Y03146*
Y03143*
X02614Y03083D02*
Y03106D01*
X02625*
X02629Y03102*
Y03094*
X02625Y0309*
X02614*
X02621D02*
X02629Y03083D01*
X02637D02*
X02645D01*
X02641*
Y03106*
X02637Y03102*
X02657D02*
X02661Y03106D01*
X02669*
X02673Y03102*
Y03098*
X02669Y03094*
X02673Y0309*
Y03086*
X02669Y03083*
X02661*
X02657Y03086*
Y0309*
X02661Y03094*
X02657Y03098*
Y03102*
X02661Y03094D02*
X02669D01*
X03821Y03145D02*
Y03168D01*
X03832*
X03836Y03164*
Y03156*
X03832Y03152*
X03821*
X03828D02*
X03836Y03145D01*
X0386D02*
X03844D01*
X0386Y0316*
Y03164*
X03856Y03168*
X03848*
X03844Y03164*
X03868Y03168D02*
X03884D01*
Y03164*
X03868Y03148*
Y03145*
X03268Y03599D02*
X03244D01*
Y0361*
X03248Y03614*
X03256*
X0326Y0361*
Y03599*
Y03606D02*
X03268Y03614D01*
X03248Y03622D02*
X03244Y03626D01*
Y03634*
X03248Y03638*
X03252*
X03256Y03634*
Y0363*
Y03634*
X0326Y03638*
X03264*
X03268Y03634*
Y03626*
X03264Y03622*
X03268Y03662D02*
Y03646D01*
X03252Y03662*
X03248*
X03244Y03658*
Y0365*
X03248Y03646*
X03293Y03679D02*
Y03702D01*
X03304*
X03308Y03698*
Y0369*
X03304Y03686*
X03293*
X033D02*
X03308Y03679D01*
X03316Y03698D02*
X0332Y03702D01*
X03328*
X03332Y03698*
Y03694*
X03328Y0369*
X03324*
X03328*
X03332Y03686*
Y03682*
X03328Y03679*
X0332*
X03316Y03682*
X0334Y03698D02*
X03344Y03702D01*
X03352*
X03356Y03698*
Y03694*
X03352Y0369*
X03348*
X03352*
X03356Y03686*
Y03682*
X03352Y03679*
X03344*
X0334Y03682*
X03041Y03377D02*
X03037Y03381D01*
X03029*
X03026Y03377*
Y03373*
X03029Y03369*
X03037*
X03041Y03365*
Y03361*
X03037Y03358*
X03029*
X03026Y03361*
X03049Y03381D02*
Y03358D01*
X03061*
X03065Y03361*
Y03365*
X03061Y03369*
X03049*
X03061*
X03065Y03373*
Y03377*
X03061Y03381*
X03049*
X03073Y03358D02*
X03081D01*
X03077*
Y03381*
X03073Y03377*
X02976Y03424D02*
X02972Y03428D01*
X02964*
X02961Y03424*
Y0342*
X02964Y03416*
X02972*
X02976Y03412*
Y03408*
X02972Y03405*
X02964*
X02961Y03408*
X02984Y03428D02*
Y03405D01*
X02996*
X03Y03408*
Y03412*
X02996Y03416*
X02984*
X02996*
X03Y0342*
Y03424*
X02996Y03428*
X02984*
X03024Y03405D02*
X03008D01*
X03024Y0342*
Y03424*
X0302Y03428*
X03012*
X03008Y03424*
X03986Y03644D02*
X03982Y03648D01*
X03974*
X03971Y03644*
Y0364*
X03974Y03636*
X03982*
X03986Y03632*
Y03628*
X03982Y03625*
X03974*
X03971Y03628*
X03994Y03648D02*
Y03625D01*
X04006*
X0401Y03628*
Y03632*
X04006Y03636*
X03994*
X04006*
X0401Y0364*
Y03644*
X04006Y03648*
X03994*
X04034D02*
X04018D01*
Y03636*
X04026Y0364*
X0403*
X04034Y03636*
Y03628*
X0403Y03625*
X04022*
X04018Y03628*
X03983Y03099D02*
X03979Y03103D01*
X03971*
X03968Y03099*
Y03095*
X03971Y03091*
X03979*
X03983Y03087*
Y03083*
X03979Y0308*
X03971*
X03968Y03083*
X03991Y03103D02*
Y0308D01*
X04003*
X04007Y03083*
Y03087*
X04003Y03091*
X03991*
X04003*
X04007Y03095*
Y03099*
X04003Y03103*
X03991*
X04031D02*
X04023Y03099D01*
X04015Y03091*
Y03083*
X04019Y0308*
X04027*
X04031Y03083*
Y03087*
X04027Y03091*
X04015*
X04381Y03663D02*
X04406D01*
Y0365*
X04402Y03645*
X04393*
X04389Y0365*
Y03663*
X04406Y03637D02*
X04381D01*
X04389Y03628*
X04381Y0362*
X04406*
X04381Y03611D02*
Y03603D01*
Y03607*
X04406*
X04402Y03611*
X04365Y0343D02*
Y03455D01*
X04377*
X04382Y03451*
Y03442*
X04377Y03438*
X04365*
X04373D02*
X04382Y0343D01*
X0439D02*
X04399D01*
X04394*
Y03455*
X0439Y03451*
X04382Y03304D02*
X04377Y03308D01*
X04369*
X04365Y03304*
Y03287*
X04369Y03283*
X04377*
X04382Y03287*
Y03295*
X04373*
X0439Y03283D02*
X04399D01*
X04394*
Y03308*
X0439Y03304*
X04367Y03164D02*
Y03139D01*
X04379*
X04384Y03143*
Y03147*
X04379Y03151*
X04367*
X04379*
X04384Y03156*
Y0316*
X04379Y03164*
X04367*
X04392Y03139D02*
X04401D01*
X04396*
Y03164*
X04392Y0316*
X02762Y03349D02*
X02757Y03344D01*
Y03334*
X02762Y03329*
X02767*
X02772Y03334*
Y03344*
X02777Y03349*
X02782*
X02787Y03344*
Y03334*
X02782Y03329*
X02757Y03359D02*
X02787D01*
X02777Y03369*
X02787Y03379*
X02757*
X02762Y03389D02*
X02757Y03394D01*
Y03404*
X02762Y03409*
X02767*
X02772Y03404*
Y03399*
Y03404*
X02777Y03409*
X02782*
X02787Y03404*
Y03394*
X02782Y03389*
X03345Y03285D02*
Y03264D01*
X03349Y0326*
X03357*
X03362Y03264*
Y03285*
X0337Y0326D02*
X03379D01*
X03374*
Y03285*
X0337Y03281*
X02997Y03206D02*
Y03185D01*
X03001Y03181*
X03009*
X03014Y03185*
Y03206*
X03039Y03181D02*
X03022D01*
X03039Y03198*
Y03202*
X03035Y03206*
X03026*
X03022Y03202*
X03384Y03515D02*
X03399Y03492D01*
Y03515D02*
X03384Y03492D01*
X03407D02*
X03415D01*
X03411*
Y03515*
X03407Y03511*
X02899Y03522D02*
X02914Y03499D01*
Y03522D02*
X02899Y03499D01*
X02938D02*
X02922D01*
X02938Y03514*
Y03518*
X02934Y03522*
X02926*
X02922Y03518*
X0204Y03323D02*
X02012D01*
Y03336*
X02017Y03341*
X02026*
X0203Y03336*
Y03323*
X0204Y03368D02*
Y0335D01*
X02021Y03368*
X02017*
X02012Y03364*
Y03355*
X02017Y0335*
Y03378D02*
X02012Y03382D01*
Y03391*
X02017Y03396*
X02021*
X02026Y03391*
Y03387*
Y03391*
X0203Y03396*
X02035*
X0204Y03391*
Y03382*
X02035Y03378*
X04453Y03598D02*
X04449Y03602D01*
X04441*
X04438Y03598*
Y03582*
X04441Y03579*
X04449*
X04453Y03582*
X04473Y03602D02*
X04465D01*
X04461Y03598*
Y03582*
X04465Y03579*
X04473*
X04477Y03582*
Y03598*
X04473Y03602*
X04485Y03579D02*
Y03602D01*
X04501Y03579*
Y03602*
X04508Y03579D02*
X04516D01*
X04512*
Y03602*
X04508Y03598*
X038Y03482D02*
Y03505D01*
X03811*
X03815Y03501*
Y03493*
X03811Y03489*
X038*
X03839Y03505D02*
X03823D01*
Y03493*
X03831Y03497*
X03835*
X03839Y03493*
Y03485*
X03835Y03482*
X03827*
X03823Y03485*
X02113Y03534D02*
X02138D01*
X02143Y03539*
Y03549*
X02138Y03554*
X02113*
Y03584D02*
Y03564D01*
X02128*
X02123Y03574*
Y03579*
X02128Y03584*
X02138*
X02143Y03579*
Y03569*
X02138Y03564*
X04032Y03236D02*
X04056D01*
Y03247*
X04052Y03251*
X04048*
X04044Y03247*
Y03236*
Y03247*
X0404Y03251*
X04036*
X04032Y03247*
Y03236*
X04056Y03275D02*
Y03259D01*
X0404Y03275*
X04036*
X04032Y03271*
Y03263*
X04036Y03259*
X04034Y03357D02*
X0403Y03353D01*
Y03345*
X04034Y03342*
X0405*
X04054Y03345*
Y03353*
X0405Y03357*
X04042*
Y03349*
X04054Y03381D02*
Y03365D01*
X04038Y03381*
X04034*
X0403Y03377*
Y03369*
X04034Y03365*
X04379Y03117D02*
X04404D01*
Y03104*
X044Y03099*
X04391*
X04387Y03104*
Y03117*
X04404Y03091D02*
X04379D01*
X04387Y03082*
X04379Y03074*
X04404*
X04379Y03048D02*
Y03065D01*
X04396Y03048*
X044*
X04404Y03053*
Y03061*
X044Y03065*
X04054Y03456D02*
X0403D01*
Y03467*
X04034Y03471*
X04042*
X04046Y03467*
Y03456*
Y03463D02*
X04054Y03471D01*
Y03495D02*
Y03479D01*
X04038Y03495*
X04034*
X0403Y03491*
Y03483*
X04034Y03479*
X0222Y03083D02*
Y03055D01*
X02234*
X02239Y0306*
Y03064*
X02234Y03069*
X0222*
X02234*
X02239Y03074*
Y03078*
X02234Y03083*
X0222*
X02248D02*
X02266D01*
Y03078*
X02248Y0306*
Y03055*
X02266*
X02275D02*
X02284D01*
X0228*
Y03083*
X02275Y03078*
G54D48*
X02404Y03153D02*
D01*
X02403Y03164*
X02402Y03174*
X024Y03184*
X02398Y03194*
X02395Y03204*
X02391Y03214*
X02386Y03223*
X02381Y03232*
X02375Y03241*
X02369Y03249*
X02362Y03257*
X02354Y03264*
X02346Y03271*
X02338Y03277*
X02329Y03283*
X0232Y03288*
X0231Y03292*
X023Y03295*
X0229Y03298*
X0228Y03301*
X0227Y03302*
X02259Y03303*
X02249*
X02238Y03302*
X02228Y03301*
X02218Y03298*
X02208Y03295*
X02198Y03292*
X02188Y03288*
X02179Y03283*
X0217Y03277*
X02162Y03271*
X02154Y03264*
X02146Y03257*
X02139Y03249*
X02133Y03241*
X02127Y03232*
X02122Y03223*
X02117Y03214*
X02113Y03204*
X0211Y03194*
X02108Y03184*
X02106Y03174*
X02105Y03164*
X02104Y03153*
X02105Y03143*
X02106Y03132*
X02108Y03122*
X0211Y03112*
X02113Y03102*
X02117Y03092*
X02122Y03083*
X02127Y03074*
X02133Y03065*
X02139Y03057*
X02146Y03049*
X02154Y03042*
X02162Y03035*
X0217Y03029*
X02179Y03024*
X02188Y03019*
X02198Y03014*
X02208Y03011*
X02218Y03008*
X02228Y03006*
X02238Y03004*
X02249Y03004*
X02259*
X0227Y03004*
X0228Y03006*
X0229Y03008*
X023Y03011*
X0231Y03014*
X0232Y03019*
X02329Y03024*
X02338Y03029*
X02346Y03035*
X02354Y03042*
X02362Y03049*
X02369Y03057*
X02375Y03065*
X02381Y03074*
X02386Y03083*
X02391Y03092*
X02395Y03102*
X02398Y03112*
X024Y03122*
X02402Y03132*
X02403Y03143*
X02404Y03153*
X03187Y03628D02*
Y03636D01*
X03211Y03628D02*
Y03636D01*
X03103Y03622D02*
X03111D01*
X03103Y03598D02*
X03111D01*
X0295Y03395D02*
Y03443D01*
X02891Y03395D02*
Y03443D01*
X03043Y03569D02*
X03051D01*
X03043Y03545D02*
X03051D01*
X0215Y03267D02*
Y03304D01*
Y03422D02*
Y0346D01*
X02118Y03267D02*
X0215D01*
X02118Y0346D02*
X0215D01*
X0312Y03308D02*
Y03327D01*
Y03308D02*
X0314D01*
X03337D02*
X03357D01*
Y03327*
Y03524D02*
Y03544D01*
X03337D02*
X03357D01*
X0312Y03524D02*
X0314Y03544D01*
X02951Y03111D02*
Y03119D01*
X02975Y03111D02*
Y03119D01*
X03216Y03187D02*
X03224D01*
X03216Y0321D02*
X03224D01*
X02162Y03487D02*
X02195D01*
X02162D02*
Y03519D01*
X02354Y03487D02*
X02387D01*
Y03519*
X02354Y03711D02*
X02387D01*
Y03679D02*
Y03711D01*
X02162D02*
X02195D01*
X02162Y03679D02*
Y03711D01*
G54D67*
X04363Y0363D02*
D01*
X04363Y03632*
X04363Y03635*
X04362Y03638*
X04361Y0364*
X04361Y03643*
X04359Y03646*
X04358Y03648*
X04357Y0365*
X04355Y03653*
X04354Y03655*
X04352Y03657*
X0435Y03659*
X04348Y03661*
X04346Y03662*
X04343Y03664*
X04341Y03665*
X04338Y03666*
X04336Y03667*
X04333Y03668*
X0433Y03668*
X04328Y03669*
X04325Y03669*
X04322*
X04319Y03669*
X04317Y03668*
X04314Y03668*
X04311Y03667*
X04309Y03666*
X04306Y03665*
X04304Y03664*
X04301Y03662*
X04299Y03661*
X04297Y03659*
X04295Y03657*
X04293Y03655*
X04292Y03653*
X0429Y0365*
X04289Y03648*
X04288Y03646*
X04286Y03643*
X04286Y0364*
X04285Y03638*
X04284Y03635*
X04284Y03632*
X04284Y0363*
X04284Y03627*
X04284Y03624*
X04285Y03621*
X04286Y03619*
X04286Y03616*
X04288Y03613*
X04289Y03611*
X0429Y03609*
X04292Y03606*
X04293Y03604*
X04295Y03602*
X04297Y036*
X04299Y03598*
X04301Y03597*
X04304Y03595*
X04306Y03594*
X04309Y03593*
X04311Y03592*
X04314Y03591*
X04317Y03591*
X04319Y0359*
X04322Y0359*
X04325*
X04328Y0359*
X0433Y03591*
X04333Y03591*
X04336Y03592*
X04338Y03593*
X04341Y03594*
X04343Y03595*
X04346Y03597*
X04348Y03598*
X0435Y036*
X04352Y03602*
X04354Y03604*
X04355Y03606*
X04357Y03609*
X04358Y03611*
X04359Y03613*
X04361Y03616*
X04361Y03619*
X04362Y03621*
X04363Y03624*
X04363Y03627*
X04363Y0363*
X04418Y03218D02*
D01*
X04418Y0322*
X04418Y03223*
X04417Y03226*
X04417Y03228*
X04416Y03231*
X04415Y03234*
X04414Y03236*
X04412Y03238*
X04411Y03241*
X04409Y03243*
X04407Y03245*
X04405Y03247*
X04403Y03249*
X04401Y0325*
X04399Y03252*
X04396Y03253*
X04394Y03254*
X04391Y03255*
X04388Y03256*
X04386Y03256*
X04383Y03257*
X0438Y03257*
X04377*
X04375Y03257*
X04372Y03256*
X04369Y03256*
X04367Y03255*
X04364Y03254*
X04362Y03253*
X04359Y03252*
X04357Y0325*
X04355Y03249*
X04352Y03247*
X0435Y03245*
X04349Y03243*
X04347Y03241*
X04345Y03238*
X04344Y03236*
X04343Y03234*
X04342Y03231*
X04341Y03228*
X0434Y03226*
X0434Y03223*
X04339Y0322*
X04339Y03218*
X04339Y03215*
X0434Y03212*
X0434Y03209*
X04341Y03207*
X04342Y03204*
X04343Y03201*
X04344Y03199*
X04345Y03197*
X04347Y03194*
X04349Y03192*
X0435Y0319*
X04352Y03188*
X04355Y03186*
X04357Y03185*
X04359Y03183*
X04362Y03182*
X04364Y03181*
X04367Y0318*
X04369Y03179*
X04372Y03179*
X04375Y03178*
X04377Y03178*
X0438*
X04383Y03178*
X04386Y03179*
X04388Y03179*
X04391Y0318*
X04394Y03181*
X04396Y03182*
X04399Y03183*
X04401Y03185*
X04403Y03186*
X04405Y03188*
X04407Y0319*
X04409Y03192*
X04411Y03194*
X04412Y03197*
X04414Y03199*
X04415Y03201*
X04416Y03204*
X04417Y03207*
X04417Y03209*
X04418Y03212*
X04418Y03215*
X04418Y03218*
Y03363D02*
D01*
X04418Y03365*
X04418Y03368*
X04417Y03371*
X04417Y03373*
X04416Y03376*
X04415Y03379*
X04414Y03381*
X04412Y03383*
X04411Y03386*
X04409Y03388*
X04407Y0339*
X04405Y03392*
X04403Y03394*
X04401Y03395*
X04399Y03397*
X04396Y03398*
X04394Y03399*
X04391Y034*
X04388Y03401*
X04386Y03401*
X04383Y03402*
X0438Y03402*
X04377*
X04375Y03402*
X04372Y03401*
X04369Y03401*
X04367Y034*
X04364Y03399*
X04362Y03398*
X04359Y03397*
X04357Y03395*
X04355Y03394*
X04352Y03392*
X0435Y0339*
X04349Y03388*
X04347Y03386*
X04345Y03383*
X04344Y03381*
X04343Y03379*
X04342Y03376*
X04341Y03373*
X0434Y03371*
X0434Y03368*
X04339Y03365*
X04339Y03363*
X04339Y0336*
X0434Y03357*
X0434Y03354*
X04341Y03352*
X04342Y03349*
X04343Y03346*
X04344Y03344*
X04345Y03342*
X04347Y03339*
X04349Y03337*
X0435Y03335*
X04352Y03333*
X04355Y03331*
X04357Y0333*
X04359Y03328*
X04362Y03327*
X04364Y03326*
X04367Y03325*
X04369Y03324*
X04372Y03324*
X04375Y03323*
X04377Y03323*
X0438*
X04383Y03323*
X04386Y03324*
X04388Y03324*
X04391Y03325*
X04394Y03326*
X04396Y03327*
X04399Y03328*
X04401Y0333*
X04403Y03331*
X04405Y03333*
X04407Y03335*
X04409Y03337*
X04411Y03339*
X04412Y03342*
X04414Y03344*
X04415Y03346*
X04416Y03349*
X04417Y03352*
X04417Y03354*
X04418Y03357*
X04418Y0336*
X04418Y03363*
Y03508D02*
D01*
X04418Y0351*
X04418Y03513*
X04417Y03516*
X04417Y03518*
X04416Y03521*
X04415Y03524*
X04414Y03526*
X04412Y03528*
X04411Y03531*
X04409Y03533*
X04407Y03535*
X04405Y03537*
X04403Y03539*
X04401Y0354*
X04399Y03542*
X04396Y03543*
X04394Y03544*
X04391Y03545*
X04388Y03546*
X04386Y03546*
X04383Y03547*
X0438Y03547*
X04377*
X04375Y03547*
X04372Y03546*
X04369Y03546*
X04367Y03545*
X04364Y03544*
X04362Y03543*
X04359Y03542*
X04357Y0354*
X04355Y03539*
X04352Y03537*
X0435Y03535*
X04349Y03533*
X04347Y03531*
X04345Y03528*
X04344Y03526*
X04343Y03524*
X04342Y03521*
X04341Y03518*
X0434Y03516*
X0434Y03513*
X04339Y0351*
X04339Y03508*
X04339Y03505*
X0434Y03502*
X0434Y03499*
X04341Y03497*
X04342Y03494*
X04343Y03491*
X04344Y03489*
X04345Y03487*
X04347Y03484*
X04349Y03482*
X0435Y0348*
X04352Y03478*
X04355Y03476*
X04357Y03475*
X04359Y03473*
X04362Y03472*
X04364Y03471*
X04367Y0347*
X04369Y03469*
X04372Y03469*
X04375Y03468*
X04377Y03468*
X0438*
X04383Y03468*
X04386Y03469*
X04388Y03469*
X04391Y0347*
X04394Y03471*
X04396Y03472*
X04399Y03473*
X04401Y03475*
X04403Y03476*
X04405Y03478*
X04407Y0348*
X04409Y03482*
X04411Y03484*
X04412Y03487*
X04414Y03489*
X04415Y03491*
X04416Y03494*
X04417Y03497*
X04417Y03499*
X04418Y03502*
X04418Y03505*
X04418Y03508*
X04363Y03091D02*
D01*
X04363Y03093*
X04363Y03096*
X04362Y03099*
X04361Y03101*
X04361Y03104*
X04359Y03107*
X04358Y03109*
X04357Y03111*
X04355Y03114*
X04354Y03116*
X04352Y03118*
X0435Y0312*
X04348Y03122*
X04346Y03123*
X04343Y03125*
X04341Y03126*
X04338Y03127*
X04336Y03128*
X04333Y03129*
X0433Y03129*
X04328Y0313*
X04325Y0313*
X04322*
X04319Y0313*
X04317Y03129*
X04314Y03129*
X04311Y03128*
X04309Y03127*
X04306Y03126*
X04304Y03125*
X04301Y03123*
X04299Y03122*
X04297Y0312*
X04295Y03118*
X04293Y03116*
X04292Y03114*
X0429Y03111*
X04289Y03109*
X04288Y03107*
X04286Y03104*
X04286Y03101*
X04285Y03099*
X04284Y03096*
X04284Y03093*
X04284Y03091*
X04284Y03088*
X04284Y03085*
X04285Y03082*
X04286Y0308*
X04286Y03077*
X04288Y03074*
X04289Y03072*
X0429Y0307*
X04292Y03067*
X04293Y03065*
X04295Y03063*
X04297Y03061*
X04299Y03059*
X04301Y03058*
X04304Y03056*
X04306Y03055*
X04309Y03054*
X04311Y03053*
X04314Y03052*
X04317Y03052*
X04319Y03051*
X04322Y03051*
X04325*
X04328Y03051*
X0433Y03052*
X04333Y03052*
X04336Y03053*
X04338Y03054*
X04341Y03055*
X04343Y03056*
X04346Y03058*
X04348Y03059*
X0435Y03061*
X04352Y03063*
X04354Y03065*
X04355Y03067*
X04357Y0307*
X04358Y03072*
X04359Y03074*
X04361Y03077*
X04361Y0308*
X04362Y03082*
X04363Y03085*
X04363Y03088*
X04363Y03091*
X04022Y03364D02*
D01*
X04022Y03366*
X04022Y03369*
X04021Y03372*
X0402Y03374*
X0402Y03377*
X04018Y0338*
X04017Y03382*
X04016Y03384*
X04014Y03387*
X04013Y03389*
X04011Y03391*
X04009Y03393*
X04007Y03395*
X04005Y03396*
X04002Y03398*
X04Y03399*
X03997Y034*
X03995Y03401*
X03992Y03402*
X03989Y03402*
X03987Y03403*
X03984Y03403*
X03981*
X03978Y03403*
X03976Y03402*
X03973Y03402*
X0397Y03401*
X03968Y034*
X03965Y03399*
X03963Y03398*
X0396Y03396*
X03958Y03395*
X03956Y03393*
X03954Y03391*
X03952Y03389*
X03951Y03387*
X03949Y03384*
X03948Y03382*
X03947Y0338*
X03945Y03377*
X03945Y03374*
X03944Y03372*
X03943Y03369*
X03943Y03366*
X03943Y03364*
X03943Y03361*
X03943Y03358*
X03944Y03355*
X03945Y03353*
X03945Y0335*
X03947Y03347*
X03948Y03345*
X03949Y03343*
X03951Y0334*
X03952Y03338*
X03954Y03336*
X03956Y03334*
X03958Y03332*
X0396Y03331*
X03963Y03329*
X03965Y03328*
X03968Y03327*
X0397Y03326*
X03973Y03325*
X03976Y03325*
X03978Y03324*
X03981Y03324*
X03984*
X03987Y03324*
X03989Y03325*
X03992Y03325*
X03995Y03326*
X03997Y03327*
X04Y03328*
X04002Y03329*
X04005Y03331*
X04007Y03332*
X04009Y03334*
X04011Y03336*
X04013Y03338*
X04014Y0334*
X04016Y03343*
X04017Y03345*
X04018Y03347*
X0402Y0335*
X0402Y03353*
X04021Y03355*
X04022Y03358*
X04022Y03361*
X04022Y03364*
Y03475D02*
D01*
X04022Y03477*
X04022Y0348*
X04021Y03483*
X0402Y03485*
X0402Y03488*
X04018Y03491*
X04017Y03493*
X04016Y03495*
X04014Y03498*
X04013Y035*
X04011Y03502*
X04009Y03504*
X04007Y03506*
X04005Y03507*
X04002Y03509*
X04Y0351*
X03997Y03511*
X03995Y03512*
X03992Y03513*
X03989Y03513*
X03987Y03514*
X03984Y03514*
X03981*
X03978Y03514*
X03976Y03513*
X03973Y03513*
X0397Y03512*
X03968Y03511*
X03965Y0351*
X03963Y03509*
X0396Y03507*
X03958Y03506*
X03956Y03504*
X03954Y03502*
X03952Y035*
X03951Y03498*
X03949Y03495*
X03948Y03493*
X03947Y03491*
X03945Y03488*
X03945Y03485*
X03944Y03483*
X03943Y0348*
X03943Y03477*
X03943Y03475*
X03943Y03472*
X03943Y03469*
X03944Y03466*
X03945Y03464*
X03945Y03461*
X03947Y03458*
X03948Y03456*
X03949Y03454*
X03951Y03451*
X03952Y03449*
X03954Y03447*
X03956Y03445*
X03958Y03443*
X0396Y03442*
X03963Y0344*
X03965Y03439*
X03968Y03438*
X0397Y03437*
X03973Y03436*
X03976Y03436*
X03978Y03435*
X03981Y03435*
X03984*
X03987Y03435*
X03989Y03436*
X03992Y03436*
X03995Y03437*
X03997Y03438*
X04Y03439*
X04002Y0344*
X04005Y03442*
X04007Y03443*
X04009Y03445*
X04011Y03447*
X04013Y03449*
X04014Y03451*
X04016Y03454*
X04017Y03456*
X04018Y03458*
X0402Y03461*
X0402Y03464*
X04021Y03466*
X04022Y03469*
X04022Y03472*
X04022Y03475*
Y03256D02*
D01*
X04022Y03258*
X04022Y03261*
X04021Y03264*
X0402Y03267*
X0402Y03269*
X04018Y03272*
X04017Y03274*
X04016Y03277*
X04014Y03279*
X04013Y03281*
X04011Y03283*
X04009Y03285*
X04007Y03287*
X04005Y03288*
X04002Y0329*
X04Y03291*
X03997Y03292*
X03995Y03293*
X03992Y03294*
X03989Y03295*
X03987Y03295*
X03984Y03295*
X03981*
X03978Y03295*
X03976Y03295*
X03973Y03294*
X0397Y03293*
X03968Y03292*
X03965Y03291*
X03963Y0329*
X0396Y03288*
X03958Y03287*
X03956Y03285*
X03954Y03283*
X03952Y03281*
X03951Y03279*
X03949Y03277*
X03948Y03274*
X03947Y03272*
X03945Y03269*
X03945Y03267*
X03944Y03264*
X03943Y03261*
X03943Y03258*
X03943Y03256*
X03943Y03253*
X03943Y0325*
X03944Y03248*
X03945Y03245*
X03945Y03242*
X03947Y0324*
X03948Y03237*
X03949Y03235*
X03951Y03233*
X03952Y0323*
X03954Y03228*
X03956Y03226*
X03958Y03225*
X0396Y03223*
X03963Y03222*
X03965Y0322*
X03968Y03219*
X0397Y03218*
X03973Y03217*
X03976Y03217*
X03978Y03217*
X03981Y03216*
X03984*
X03987Y03217*
X03989Y03217*
X03992Y03217*
X03995Y03218*
X03997Y03219*
X04Y0322*
X04002Y03222*
X04005Y03223*
X04007Y03225*
X04009Y03226*
X04011Y03228*
X04013Y0323*
X04014Y03233*
X04016Y03235*
X04017Y03237*
X04018Y0324*
X0402Y03242*
X0402Y03245*
X04021Y03248*
X04022Y0325*
X04022Y03253*
X04022Y03256*
X02563Y03619D02*
Y03662D01*
X04428Y03159D02*
X04741D01*
Y03563*
X04606Y03295D02*
X04741D01*
X04606D02*
Y03429D01*
X04741*
X04428Y03159D02*
Y03563D01*
X04741*
G54D83*
X0309Y03512D02*
D01*
X0309Y03513*
X0309Y03513*
X0309Y03513*
X0309Y03514*
X0309Y03514*
X03089Y03514*
X03089Y03515*
X03089Y03515*
X03089Y03515*
X03089Y03515*
X03089Y03516*
X03088Y03516*
X03088Y03516*
X03088Y03516*
X03087Y03516*
X03087Y03517*
X03087Y03517*
X03087Y03517*
X03086Y03517*
X03086Y03517*
X03086Y03517*
X03085Y03517*
X03085*
X03084Y03517*
X03084Y03517*
X03084Y03517*
X03083Y03517*
X03083Y03517*
X03083Y03517*
X03083Y03516*
X03082Y03516*
X03082Y03516*
X03082Y03516*
X03081Y03516*
X03081Y03515*
X03081Y03515*
X03081Y03515*
X03081Y03515*
X03081Y03514*
X0308Y03514*
X0308Y03514*
X0308Y03513*
X0308Y03513*
X0308Y03513*
X0308Y03512*
X0308Y03512*
X0308Y03512*
X0308Y03511*
X0308Y03511*
X0308Y03511*
X03081Y0351*
X03081Y0351*
X03081Y0351*
X03081Y03509*
X03081Y03509*
X03081Y03509*
X03082Y03509*
X03082Y03508*
X03082Y03508*
X03083Y03508*
X03083Y03508*
X03083Y03508*
X03083Y03508*
X03084Y03507*
X03084Y03507*
X03084Y03507*
X03085Y03507*
X03085*
X03086Y03507*
X03086Y03507*
X03086Y03507*
X03087Y03508*
X03087Y03508*
X03087Y03508*
X03087Y03508*
X03088Y03508*
X03088Y03508*
X03088Y03509*
X03089Y03509*
X03089Y03509*
X03089Y03509*
X03089Y0351*
X03089Y0351*
X03089Y0351*
X0309Y03511*
X0309Y03511*
X0309Y03511*
X0309Y03512*
X0309Y03512*
X0309Y03512*
X02836Y03563D02*
D01*
X02835Y03564*
X02835Y03564*
X02835Y03564*
X02835Y03564*
X02835Y03565*
X02835Y03565*
X02835Y03565*
X02835Y03565*
X02835Y03566*
X02835Y03566*
X02834Y03566*
X02834Y03566*
X02834Y03566*
X02834Y03567*
X02834Y03567*
X02833Y03567*
X02833Y03567*
X02833Y03567*
X02833Y03567*
X02832Y03567*
X02832Y03567*
X02832Y03567*
X02831*
X02831Y03567*
X02831Y03567*
X02831Y03567*
X0283Y03567*
X0283Y03567*
X0283Y03567*
X0283Y03567*
X02829Y03567*
X02829Y03566*
X02829Y03566*
X02829Y03566*
X02829Y03566*
X02828Y03566*
X02828Y03565*
X02828Y03565*
X02828Y03565*
X02828Y03565*
X02828Y03564*
X02828Y03564*
X02828Y03564*
X02828Y03564*
X02828Y03563*
X02828Y03563*
X02828Y03563*
X02828Y03562*
X02828Y03562*
X02828Y03562*
X02828Y03562*
X02828Y03561*
X02828Y03561*
X02828Y03561*
X02829Y03561*
X02829Y03561*
X02829Y0356*
X02829Y0356*
X02829Y0356*
X0283Y0356*
X0283Y0356*
X0283Y0356*
X0283Y0356*
X02831Y0356*
X02831Y03559*
X02831Y03559*
X02831Y03559*
X02832*
X02832Y03559*
X02832Y03559*
X02833Y0356*
X02833Y0356*
X02833Y0356*
X02833Y0356*
X02834Y0356*
X02834Y0356*
X02834Y0356*
X02834Y0356*
X02834Y03561*
X02835Y03561*
X02835Y03561*
X02835Y03561*
X02835Y03561*
X02835Y03562*
X02835Y03562*
X02835Y03562*
X02835Y03562*
X02835Y03563*
X02835Y03563*
X02836Y03563*
X04537Y03479D02*
D01*
X04537Y03479*
X04537Y0348*
X04537Y0348*
X04537Y0348*
X04537Y03481*
X04537Y03481*
X04537Y03481*
X04537Y03482*
X04536Y03482*
X04536Y03482*
X04536Y03483*
X04536Y03483*
X04536Y03483*
X04535Y03483*
X04535Y03483*
X04535Y03484*
X04534Y03484*
X04534Y03484*
X04534Y03484*
X04533Y03484*
X04533Y03484*
X04533Y03484*
X04532*
X04532Y03484*
X04532Y03484*
X04531Y03484*
X04531Y03484*
X04531Y03484*
X0453Y03484*
X0453Y03483*
X0453Y03483*
X04529Y03483*
X04529Y03483*
X04529Y03483*
X04529Y03482*
X04529Y03482*
X04528Y03482*
X04528Y03481*
X04528Y03481*
X04528Y03481*
X04528Y0348*
X04528Y0348*
X04528Y0348*
X04528Y03479*
X04528Y03479*
X04528Y03479*
X04528Y03478*
X04528Y03478*
X04528Y03478*
X04528Y03477*
X04528Y03477*
X04528Y03477*
X04528Y03477*
X04529Y03476*
X04529Y03476*
X04529Y03476*
X04529Y03475*
X04529Y03475*
X0453Y03475*
X0453Y03475*
X0453Y03475*
X04531Y03475*
X04531Y03474*
X04531Y03474*
X04532Y03474*
X04532Y03474*
X04532Y03474*
X04533*
X04533Y03474*
X04533Y03474*
X04534Y03474*
X04534Y03474*
X04534Y03475*
X04535Y03475*
X04535Y03475*
X04535Y03475*
X04536Y03475*
X04536Y03475*
X04536Y03476*
X04536Y03476*
X04536Y03476*
X04537Y03477*
X04537Y03477*
X04537Y03477*
X04537Y03477*
X04537Y03478*
X04537Y03478*
X04537Y03478*
X04537Y03479*
X04537Y03479*
X03004Y03081D02*
D01*
X03004Y03081*
X03004Y03081*
X03004Y03082*
X03004Y03082*
X03003Y03082*
X03003Y03082*
X03003Y03083*
X03003Y03083*
X03003Y03083*
X03003Y03083*
X03003Y03084*
X03002Y03084*
X03002Y03084*
X03002Y03084*
X03002Y03084*
X03002Y03084*
X03001Y03084*
X03001Y03085*
X03001Y03085*
X03Y03085*
X03Y03085*
X03Y03085*
X03*
X02999Y03085*
X02999Y03085*
X02999Y03085*
X02999Y03085*
X02998Y03084*
X02998Y03084*
X02998Y03084*
X02998Y03084*
X02997Y03084*
X02997Y03084*
X02997Y03084*
X02997Y03083*
X02997Y03083*
X02996Y03083*
X02996Y03083*
X02996Y03082*
X02996Y03082*
X02996Y03082*
X02996Y03082*
X02996Y03081*
X02996Y03081*
X02996Y03081*
X02996Y03081*
X02996Y0308*
X02996Y0308*
X02996Y0308*
X02996Y03079*
X02996Y03079*
X02996Y03079*
X02996Y03079*
X02997Y03079*
X02997Y03078*
X02997Y03078*
X02997Y03078*
X02997Y03078*
X02998Y03078*
X02998Y03077*
X02998Y03077*
X02998Y03077*
X02999Y03077*
X02999Y03077*
X02999Y03077*
X02999Y03077*
X03Y03077*
X03*
X03Y03077*
X03Y03077*
X03001Y03077*
X03001Y03077*
X03001Y03077*
X03002Y03077*
X03002Y03077*
X03002Y03078*
X03002Y03078*
X03002Y03078*
X03003Y03078*
X03003Y03078*
X03003Y03079*
X03003Y03079*
X03003Y03079*
X03003Y03079*
X03003Y03079*
X03004Y0308*
X03004Y0308*
X03004Y0308*
X03004Y03081*
X03004Y03081*
X03173Y0304D02*
D01*
X03173Y0304*
X03173Y0304*
X03173Y03041*
X03173Y03041*
X03173Y03041*
X03173Y03042*
X03173Y03042*
X03173Y03042*
X03172Y03043*
X03172Y03043*
X03172Y03043*
X03172Y03043*
X03171Y03044*
X03171Y03044*
X03171Y03044*
X03171Y03044*
X0317Y03044*
X0317Y03044*
X0317Y03045*
X03169Y03045*
X03169Y03045*
X03169Y03045*
X03168*
X03168Y03045*
X03168Y03045*
X03167Y03045*
X03167Y03044*
X03167Y03044*
X03166Y03044*
X03166Y03044*
X03166Y03044*
X03165Y03044*
X03165Y03043*
X03165Y03043*
X03165Y03043*
X03164Y03043*
X03164Y03042*
X03164Y03042*
X03164Y03042*
X03164Y03041*
X03164Y03041*
X03164Y03041*
X03164Y0304*
X03164Y0304*
X03164Y0304*
X03164Y03039*
X03164Y03039*
X03164Y03039*
X03164Y03038*
X03164Y03038*
X03164Y03038*
X03164Y03037*
X03164Y03037*
X03164Y03037*
X03165Y03037*
X03165Y03036*
X03165Y03036*
X03165Y03036*
X03166Y03036*
X03166Y03036*
X03166Y03035*
X03167Y03035*
X03167Y03035*
X03167Y03035*
X03168Y03035*
X03168Y03035*
X03168Y03035*
X03169*
X03169Y03035*
X03169Y03035*
X0317Y03035*
X0317Y03035*
X0317Y03035*
X03171Y03035*
X03171Y03036*
X03171Y03036*
X03171Y03036*
X03172Y03036*
X03172Y03036*
X03172Y03037*
X03172Y03037*
X03173Y03037*
X03173Y03037*
X03173Y03038*
X03173Y03038*
X03173Y03038*
X03173Y03039*
X03173Y03039*
X03173Y03039*
X03173Y0304*
X02194Y03465D02*
D01*
X02194Y03465*
X02194Y03466*
X02193Y03466*
X02193Y03466*
X02193Y03467*
X02193Y03467*
X02193Y03467*
X02193Y03468*
X02193Y03468*
X02192Y03468*
X02192Y03469*
X02192Y03469*
X02192Y03469*
X02191Y03469*
X02191Y03469*
X02191Y0347*
X02191Y0347*
X0219Y0347*
X0219Y0347*
X0219Y0347*
X02189Y0347*
X02189Y0347*
X02189*
X02188Y0347*
X02188Y0347*
X02188Y0347*
X02187Y0347*
X02187Y0347*
X02187Y0347*
X02186Y03469*
X02186Y03469*
X02186Y03469*
X02185Y03469*
X02185Y03469*
X02185Y03468*
X02185Y03468*
X02185Y03468*
X02184Y03467*
X02184Y03467*
X02184Y03467*
X02184Y03466*
X02184Y03466*
X02184Y03466*
X02184Y03465*
X02184Y03465*
X02184Y03465*
X02184Y03464*
X02184Y03464*
X02184Y03464*
X02184Y03463*
X02184Y03463*
X02184Y03463*
X02185Y03463*
X02185Y03462*
X02185Y03462*
X02185Y03462*
X02185Y03461*
X02186Y03461*
X02186Y03461*
X02186Y03461*
X02187Y03461*
X02187Y03461*
X02187Y0346*
X02188Y0346*
X02188Y0346*
X02188Y0346*
X02189Y0346*
X02189*
X02189Y0346*
X0219Y0346*
X0219Y0346*
X0219Y0346*
X02191Y03461*
X02191Y03461*
X02191Y03461*
X02191Y03461*
X02192Y03461*
X02192Y03461*
X02192Y03462*
X02192Y03462*
X02193Y03462*
X02193Y03463*
X02193Y03463*
X02193Y03463*
X02193Y03463*
X02193Y03464*
X02193Y03464*
X02194Y03464*
X02194Y03465*
X02194Y03465*
G54D84*
X02406Y03151D02*
D01*
X02405Y03152*
X02405Y03154*
X02405Y03155*
X02405Y03157*
X02404Y03158*
X02404Y03159*
X02403Y03161*
X02402Y03162*
X02401Y03163*
X02401Y03164*
X024Y03166*
X02398Y03167*
X02397Y03168*
X02396Y03168*
X02395Y03169*
X02394Y0317*
X02392Y0317*
X02391Y03171*
X02389Y03171*
X02388Y03172*
X02387Y03172*
X02385Y03172*
X02384*
X02382Y03172*
X02381Y03172*
X02379Y03171*
X02378Y03171*
X02376Y0317*
X02375Y0317*
X02374Y03169*
X02372Y03168*
X02371Y03168*
X0237Y03167*
X02369Y03166*
X02368Y03164*
X02367Y03163*
X02366Y03162*
X02366Y03161*
X02365Y03159*
X02364Y03158*
X02364Y03157*
X02364Y03155*
X02363Y03154*
X02363Y03152*
X02363Y03151*
X02363Y03149*
X02363Y03148*
X02364Y03146*
X02364Y03145*
X02364Y03144*
X02365Y03142*
X02366Y03141*
X02366Y0314*
X02367Y03138*
X02368Y03137*
X02369Y03136*
X0237Y03135*
X02371Y03134*
X02372Y03133*
X02374Y03132*
X02375Y03132*
X02376Y03131*
X02378Y03131*
X02379Y0313*
X02381Y0313*
X02382Y0313*
X02384Y0313*
X02385*
X02387Y0313*
X02388Y0313*
X02389Y0313*
X02391Y03131*
X02392Y03131*
X02394Y03132*
X02395Y03132*
X02396Y03133*
X02397Y03134*
X02398Y03135*
X024Y03136*
X02401Y03137*
X02401Y03138*
X02402Y0314*
X02403Y03141*
X02404Y03142*
X02404Y03144*
X02405Y03145*
X02405Y03146*
X02405Y03148*
X02405Y03149*
X02406Y03151*
X03555Y03308D02*
Y03402D01*
X03506D02*
X03555D01*
X03506Y03308D02*
X03555D01*
X03506D02*
Y03402D01*
X02574Y0361D02*
X02704D01*
X02575Y03671D02*
X02705D01*
X04152Y03131D02*
X04262D01*
X04152Y03049D02*
X04262D01*
Y03131*
X04152Y03049D02*
Y03131D01*
Y03673D02*
X04262D01*
X04152Y03591D02*
X04262D01*
Y03673*
X04152Y03591D02*
Y03673D01*
X02368Y03152D02*
X02401D01*
X02385Y03134D02*
Y03167D01*
X04265Y0328D02*
X04262Y03276D01*
Y0327*
X04265Y03267*
X04268*
X04272Y0327*
Y03276*
X04275Y0328*
X04278*
X04282Y03276*
Y0327*
X04278Y03267*
X04262Y03286D02*
X04282D01*
X04275Y03293*
X04282Y03299*
X04262*
X04282Y03319D02*
Y03306D01*
X04268Y03319*
X04265*
X04262Y03316*
Y03309*
X04265Y03306*
G54D85*
X03406Y03191D02*
X03416D01*
X03403Y0319D02*
X03418D01*
X03402Y03189D02*
X0342D01*
X03401Y03188D02*
X03421D01*
X034Y03187D02*
X03422D01*
X03399Y03186D02*
X03423D01*
X03398Y03185D02*
X03423D01*
X03398Y03184D02*
X03424D01*
X03397Y03183D02*
X03424D01*
X03397Y03182D02*
X03425D01*
X03396Y03181D02*
X03425D01*
X03396Y0318D02*
X03425D01*
X03396Y03179D02*
X03426D01*
X03396Y03178D02*
X03426D01*
X03395Y03177D02*
X03426D01*
X03393Y03176D02*
X03429D01*
X0339Y03175D02*
X03431D01*
X03388Y03174D02*
X03433D01*
X03386Y03173D02*
X03435D01*
X03385Y03172D02*
X03395D01*
X03397D02*
X03425D01*
X03426D02*
X03437D01*
X03383Y03171D02*
X03393D01*
X03397D02*
X03424D01*
X03429D02*
X03438D01*
X03382Y0317D02*
X03391D01*
X03398D02*
X03424D01*
X03431D02*
X0344D01*
X0338Y03169D02*
X03389D01*
X03398D02*
X03423D01*
X03433D02*
X03441D01*
X03379Y03168D02*
X03387D01*
X03399D02*
X03422D01*
X03434D02*
X03442D01*
X03378Y03167D02*
X03385D01*
X034D02*
X03422D01*
X03436D02*
X03444D01*
X03377Y03166D02*
X03383D01*
X03401D02*
X03421D01*
X03437D02*
X03445D01*
X03376Y03165D02*
X03382D01*
X03402D02*
X03419D01*
X03439D02*
X03446D01*
X03375Y03164D02*
X03381D01*
X03404D02*
X03418D01*
X0344D02*
X03447D01*
X03374Y03163D02*
X0338D01*
X03406D02*
X03416D01*
X03441D02*
X03448D01*
X03373Y03162D02*
X03379D01*
X03442D02*
X03449D01*
X03372Y03161D02*
X03378D01*
X03443D02*
X03449D01*
X03371Y0316D02*
X03377D01*
X03444D02*
X0345D01*
X0337Y03159D02*
X03376D01*
X03445D02*
X03451D01*
X03369Y03158D02*
X03375D01*
X03446D02*
X03452D01*
X03369Y03157D02*
X03374D01*
X03447D02*
X03452D01*
X03368Y03156D02*
X03374D01*
X03447D02*
X03453D01*
X03368Y03155D02*
X03373D01*
X03448D02*
X03454D01*
X03367Y03154D02*
X03372D01*
X03449D02*
X03454D01*
X03367Y03153D02*
X03372D01*
X03449D02*
X03455D01*
X03366Y03152D02*
X03371D01*
X0345D02*
X03455D01*
X03365Y03151D02*
X03371D01*
X0345D02*
X03456D01*
X03365Y0315D02*
X0337D01*
X03451D02*
X03456D01*
X03365Y03149D02*
X0337D01*
X03452D02*
X03457D01*
X03364Y03148D02*
X03369D01*
X03452D02*
X03457D01*
X03364Y03147D02*
X03369D01*
X03452D02*
X03457D01*
X03364Y03146D02*
X03368D01*
X03453D02*
X03458D01*
X03363Y03145D02*
X03368D01*
X03453D02*
X03458D01*
X03359Y03144D02*
X03368D01*
X03453D02*
X03463D01*
X03356Y03143D02*
X0337D01*
X03451D02*
X03465D01*
X03355Y03142D02*
X03372D01*
X0345D02*
X03467D01*
X03353Y03141D02*
X03373D01*
X03448D02*
X03468D01*
X03352Y0314D02*
X03374D01*
X03447D02*
X03469D01*
X03352Y03139D02*
X03375D01*
X03446D02*
X0347D01*
X03351Y03138D02*
X03376D01*
X03446D02*
X03471D01*
X0335Y03137D02*
X03376D01*
X03445D02*
X03471D01*
X0335Y03136D02*
X03377D01*
X03445D02*
X03472D01*
X03349Y03135D02*
X03377D01*
X03444D02*
X03472D01*
X03349Y03134D02*
X03378D01*
X03444D02*
X03472D01*
X03349Y03133D02*
X03378D01*
X03444D02*
X03473D01*
X03349Y03132D02*
X03378D01*
X03443D02*
X03473D01*
X03348Y03131D02*
X03378D01*
X03443D02*
X03473D01*
X03348Y0313D02*
X03378D01*
X03443D02*
X03473D01*
X03348Y03129D02*
X03378D01*
X03443D02*
X03473D01*
X03349Y03128D02*
X03378D01*
X03443D02*
X03473D01*
X03349Y03127D02*
X03378D01*
X03444D02*
X03473D01*
X03349Y03126D02*
X03378D01*
X03444D02*
X03473D01*
X03349Y03125D02*
X03377D01*
X03444D02*
X03472D01*
X0335Y03124D02*
X03377D01*
X03444D02*
X03472D01*
X0335Y03123D02*
X03377D01*
X03445D02*
X03471D01*
X03351Y03122D02*
X03376D01*
X03446D02*
X03471D01*
X03351Y03121D02*
X03375D01*
X03446D02*
X0347D01*
X03352Y0312D02*
X03374D01*
X03447D02*
X03469D01*
X03353Y03119D02*
X03373D01*
X03448D02*
X03468D01*
X03354Y03118D02*
X03372D01*
X03449D02*
X03467D01*
X03356Y03117D02*
X03371D01*
X03451D02*
X03466D01*
X03358Y03116D02*
X03369D01*
X03453D02*
X03463D01*
X03362Y03115D02*
X03368D01*
X03453D02*
X03459D01*
X03363Y03114D02*
X03368D01*
X03453D02*
X03458D01*
X03364Y03113D02*
X03369D01*
X03452D02*
X03458D01*
X03364Y03112D02*
X03369D01*
X03452D02*
X03457D01*
X03364Y03111D02*
X03369D01*
X03452D02*
X03457D01*
X03365Y0311D02*
X0337D01*
X03451D02*
X03456D01*
X03365Y03109D02*
X0337D01*
X03451D02*
X03456D01*
X03366Y03108D02*
X03371D01*
X0345D02*
X03455D01*
X03366Y03107D02*
X03371D01*
X0345D02*
X03455D01*
X03367Y03106D02*
X03372D01*
X03449D02*
X03454D01*
X03368Y03105D02*
X03373D01*
X03448D02*
X03454D01*
X03368Y03104D02*
X03374D01*
X03448D02*
X03453D01*
X03369Y03103D02*
X03374D01*
X03447D02*
X03453D01*
X0337Y03102D02*
X03375D01*
X03446D02*
X03452D01*
X0337Y03101D02*
X03376D01*
X03445D02*
X03451D01*
X03371Y031D02*
X03377D01*
X03444D02*
X0345D01*
X03372Y03099D02*
X03378D01*
X03443D02*
X0345D01*
X03373Y03098D02*
X03379D01*
X03442D02*
X03449D01*
X03374Y03097D02*
X0338D01*
X03407D02*
X03415D01*
X03441D02*
X03448D01*
X03374Y03096D02*
X03381D01*
X03404D02*
X03417D01*
X0344D02*
X03447D01*
X03375Y03095D02*
X03382D01*
X03403D02*
X03419D01*
X03439D02*
X03446D01*
X03376Y03094D02*
X03384D01*
X03401D02*
X0342D01*
X03438D02*
X03445D01*
X03378Y03093D02*
X03385D01*
X034D02*
X03421D01*
X03436D02*
X03444D01*
X03379Y03092D02*
X03387D01*
X03399D02*
X03422D01*
X03435D02*
X03443D01*
X0338Y03091D02*
X03388D01*
X03398D02*
X03423D01*
X03433D02*
X03442D01*
X03381Y0309D02*
X0339D01*
X03398D02*
X03424D01*
X03431D02*
X0344D01*
X03383Y03089D02*
X03392D01*
X03397D02*
X03424D01*
X03429D02*
X03439D01*
X03384Y03088D02*
X03395D01*
X03397D02*
X03425D01*
X03427D02*
X03437D01*
X03386Y03087D02*
X03436D01*
X03388Y03086D02*
X03434D01*
X0339Y03085D02*
X03432D01*
X03392Y03084D02*
X0343D01*
X03395Y03083D02*
X03427D01*
X03396Y03082D02*
X03426D01*
X03396Y03081D02*
X03426D01*
X03396Y0308D02*
X03425D01*
X03396Y03079D02*
X03425D01*
X03397Y03078D02*
X03425D01*
X03397Y03077D02*
X03425D01*
X03397Y03076D02*
X03424D01*
X03398Y03075D02*
X03424D01*
X03399Y03074D02*
X03423D01*
X03399Y03073D02*
X03422D01*
X034Y03072D02*
X03421D01*
X03401Y03071D02*
X0342D01*
X03403Y0307D02*
X03419D01*
X03405Y03069D02*
X03417D01*
X03408Y03068D02*
X03413D01*
M02*