%FSTAX24Y24*%
%MOIN*%
%SFA1B1*%

%IPPOS*%
%ADD43C,0.005900*%
%ADD44C,0.011800*%
%ADD51C,0.078700*%
%ADD54C,0.019700*%
%ADD55C,0.177200*%
%ADD56C,0.015700*%
%ADD58C,0.035400*%
%ADD66C,0.039400*%
%LNvapeix_mini_pcb-1*%
%LPD*%
G54D43*
X02413Y03668D02*
X024283Y036833D01*
X02413Y03631D02*
Y03668D01*
X024283Y036833D02*
X030237D01*
X0215Y03599D02*
X02155Y03604D01*
X02706Y03327D02*
Y03445D01*
X04237Y0318D02*
X04321Y03264D01*
X039595Y0318D02*
X04237D01*
X03927Y031475D02*
X039595Y0318D01*
X04033Y03192D02*
X04049Y03208D01*
X038677Y03192D02*
X04033D01*
X038137Y03246D02*
X038677Y03192D01*
X03402Y03392D02*
X03449D01*
X03398D02*
X03402D01*
X0294Y03261D02*
Y03262D01*
Y03213D02*
Y03261D01*
X035314Y033096D02*
X036098D01*
X03449Y03392D02*
X035314Y033096D01*
X02994Y03379D02*
X03008Y03393D01*
X02954Y03379D02*
X02994D01*
X02937Y03396D02*
X02954Y03379D01*
X03027Y03314D02*
X03065Y03352D01*
X03027Y03217D02*
Y03314D01*
Y03217D02*
X030417Y032023D01*
X031323*
X030237Y036833D02*
X03065Y03642D01*
Y03352D02*
Y03642D01*
X030299Y036951D02*
X030768Y036482D01*
X03049Y03311D02*
X030768Y033388D01*
Y036482*
X03036Y03707D02*
X0309Y03653D01*
Y03324D02*
Y03653D01*
X03073Y03307D02*
X0309Y03324D01*
X041513Y034797D02*
Y035417D01*
Y034797D02*
X04156Y03475D01*
X04071Y03622D02*
X041513Y035417D01*
X0337Y03618D02*
X0339Y03638D01*
X03268Y03618D02*
X0337D01*
X0339Y03638D02*
X03582D01*
X03649Y035053D02*
Y03527D01*
X036285Y034848D02*
X03649Y035053D01*
X036285Y034712D02*
Y034848D01*
X03636Y03509D02*
Y03534D01*
X036167Y034897D02*
X03636Y03509D01*
X036167Y034761D02*
Y034897D01*
X03636Y03534D02*
X03724Y03622D01*
X035235Y032978D02*
X036048D01*
X034533Y03368D02*
X035235Y032978D01*
X03395Y03368D02*
X034533D01*
X03132Y032512D02*
Y03287D01*
X031546Y033096*
X031323Y032023D02*
X03144Y03214D01*
X0386Y03082D02*
Y03164D01*
X038033Y032207D02*
X0386Y03164D01*
X036652Y032207D02*
X038033D01*
X036733Y03246D02*
X038137D01*
X03918Y03125D02*
X03985D01*
X0381Y03233D02*
X03918Y03125D01*
X036696Y03233D02*
X0381D01*
X035999Y03286D02*
X036652Y032207D01*
X036048Y032978D02*
X036696Y03233D01*
X036103Y033091D02*
X036733Y03246D01*
X036103Y033091D02*
D01*
X03294Y03286D02*
X035999D01*
X036098Y033096D02*
X036103Y033091D01*
X03582Y03638D02*
X03597Y03623D01*
Y035375D02*
Y03623D01*
Y035375D02*
X03614Y035205D01*
X03947Y0361D02*
X04001Y03556D01*
X03732Y0361D02*
X03947D01*
X03649Y03527D02*
X03732Y0361D01*
X03724Y03622D02*
X04071D01*
X0358Y03435D02*
X035995Y034545D01*
X036118D02*
X036285Y034712D01*
X035995Y034545D02*
X036118D01*
X036069Y034663D02*
X036167Y034761D01*
X035946Y034663D02*
X036069D01*
X035763Y03448D02*
X035946Y034663D01*
X03381Y03448D02*
X035763D01*
X03398Y03435D02*
X0358D01*
X03144Y032802D02*
X031616Y032978D01*
X033598*
X031546Y033096D02*
X033456D01*
X03362Y03326*
X033598Y032978D02*
X03378Y03316D01*
X03276Y03268D02*
X03294Y03286D01*
X02186Y03707D02*
X03036D01*
X02138Y03659D02*
X02186Y03707D01*
X04321Y03264D02*
Y03545D01*
X04245Y03621D02*
X04321Y03545D01*
X04143Y03621D02*
X04245D01*
X04056Y03708D02*
X04143Y03621D01*
X03985Y03125D02*
X04Y0314D01*
X03117Y032362D02*
X03132Y032512D01*
X03049Y03264D02*
Y03311D01*
X03144Y03214D02*
Y032802D01*
X03091Y03261D02*
X03115D01*
X03375Y036535D02*
X033755Y03654D01*
X03073Y03279D02*
X03091Y03261D01*
X03518Y036199D02*
Y03621D01*
Y036199D02*
X035185Y036205D01*
X03411D02*
X035185D01*
X03222Y03082D02*
X032263D01*
X03227Y030813*
X02138Y0358D02*
Y03659D01*
X03362Y03326D02*
Y03429D01*
X03308Y0359D02*
X033109D01*
X03362Y03429D02*
X03381Y03448D01*
X03117Y03219D02*
Y032362D01*
X03398Y03392D02*
X033987Y033927D01*
X04049Y03208D02*
Y03297D01*
X04083Y03307D02*
Y03383D01*
X04103Y03403*
X02937Y03396D02*
Y0342D01*
X02155Y03604D02*
Y036593D01*
X021909Y036951*
X02993Y03464D02*
X03008Y03449D01*
X02993Y03464D02*
Y035366D01*
X029925Y035371D02*
X02993Y035366D01*
X03008Y03393D02*
Y03449D01*
X04386Y03686D02*
X044218Y036502D01*
X04273Y03686D02*
X04386D01*
X04103Y03403D02*
X04231D01*
X03073Y03279D02*
Y03307D01*
X021909Y036951D02*
X030299D01*
X03382Y03419D02*
X03398Y03435D01*
X03382Y03403D02*
Y03419D01*
X032257Y0308D02*
X03227Y030813D01*
X02459Y03461D02*
X0246Y0346D01*
X02142Y03464D02*
Y0348D01*
X0216Y03498*
X0294Y03213D02*
X02966Y03187D01*
X03264*
X03294Y03157*
Y03051D02*
Y03157D01*
X0246Y03459D02*
X02475Y03474D01*
X02677*
X02706Y03445*
X04268Y03138D02*
X04389D01*
X044218Y031708*
Y036502*
X0323Y03687D02*
X03251Y03708D01*
X04056*
X0323Y03611D02*
Y03687D01*
Y03611D02*
X03251Y0359D01*
X03308*
X0216Y03498D02*
X0226D01*
X02275Y03483*
Y03477D02*
Y03483D01*
G54D44*
X02716Y0327D02*
X02723D01*
X033113Y035403D02*
X0333Y03559D01*
X031361Y035403D02*
X033113D01*
X03109Y035132D02*
X031361Y035403D01*
X03109Y03348D02*
Y035132D01*
Y03348D02*
X0311Y03347D01*
X03118Y03298D02*
X03135Y03315D01*
X03105Y03298D02*
X03118D01*
X03135Y03315D02*
Y03333D01*
X03099Y03304D02*
X03105Y03298D01*
X0333Y03559D02*
X03365D01*
X03121Y03347D02*
X03135Y03333D01*
X0311Y03347D02*
X03121D01*
X02723Y0327D02*
X0273Y03277D01*
X0238Y03511D02*
X024Y03491D01*
X02598*
X02626Y03519*
X02701*
X0273Y0349*
Y03277D02*
Y0349D01*
G54D51*
X020806Y036503D03*
G54D54*
X02395Y03435D03*
X023426Y034124D03*
X023244Y033636D03*
X023426Y033159D03*
X02395Y032923D03*
X02447Y033159D03*
X02466Y033636D03*
X024458Y034124D03*
X038231D03*
X038434Y033635D03*
X038243Y033159D03*
X037724Y032923D03*
X0372Y033159D03*
X037018Y033635D03*
X0372Y034124D03*
X037724Y03435D03*
G54D55*
X023952Y033636D03*
X037726D03*
G54D56*
X02413Y0363D03*
X02381Y0351D03*
X02716Y0327D03*
X02706Y03327D03*
X03402Y03392D03*
X03268Y036175D03*
X0386Y03082D03*
X03115Y03261D03*
X03099Y03304D03*
X03049Y03264D03*
X03518Y03621D03*
X03222Y03074D03*
X03375Y036535D03*
X02138Y0358D03*
X02155Y03599D03*
X0294Y03261D03*
X03276Y03268D03*
X03378Y03316D03*
X03411Y036205D03*
X03614Y035205D03*
X03364Y03559D03*
X03308Y0359D03*
X04Y0314D03*
X04156Y03475D03*
X03927Y031475D03*
X03294Y03045D03*
X03117Y03219D03*
X04Y03556D03*
X04049Y03297D03*
X04083Y03307D03*
X03395Y03368D03*
X02937Y0342D03*
X029925Y035371D03*
X04268Y03138D03*
X04273Y03686D03*
X04231Y03403D03*
X03382Y034024D03*
X0246Y0346D03*
X02142Y03464D03*
X02275Y03477D03*
G54D58*
X02502Y03225D03*
G54D66*
X020396Y036093D02*
X020806Y036503D01*
X020396Y034756D02*
Y036093D01*
Y034756D02*
X0204Y034752D01*
Y033752D02*
Y034752D01*
Y033752D02*
X02196Y03225D01*
X02502*
M02*