%FSTAX23Y23*%
%MOIN*%
%SFA1B1*%

%IPPOS*%
%ADD10O,0.086600X0.023600*%
%ADD11C,0.059100*%
%ADD12R,0.043300X0.078700*%
%ADD13R,0.031500X0.031500*%
%ADD14R,0.023600X0.019700*%
%ADD15R,0.009800X0.013800*%
%ADD16C,0.039400*%
%ADD17C,0.059100*%
%ADD18C,0.019700*%
%ADD19C,0.021700*%
%ADD20C,0.078700*%
%ADD21C,0.010000*%
%ADD22C,0.011800*%
%ADD23C,0.106300*%
%ADD24C,0.023600*%
%LNvapeix_eeprom_test-1*%
%LPD*%
G54D10*
X02514Y0329D03*
Y0334D03*
Y0339D03*
Y0344D03*
X02325Y0329D03*
Y0334D03*
Y0339D03*
Y0344D03*
G54D11*
X02325Y03155D03*
X02115Y0366D03*
Y03486D03*
Y03407D03*
Y0325D03*
Y03328D03*
G54D12*
X02669Y03379D03*
G54D13*
X02669Y03305D03*
G54D14*
X024Y03545D03*
X02439D03*
G54D15*
X02405Y03495D03*
X02424D03*
G54D16*
X02285Y0325D02*
X02325Y0329D01*
Y0339D02*
X02514D01*
X02365Y03545D02*
X02384D01*
X02325Y03505D02*
X02365Y03545D01*
X02325Y0344D02*
Y03505D01*
X02115Y0325D02*
X02285D01*
G54D17*
X02325Y0334D02*
Y0344D01*
G54D18*
X02614Y03305D02*
X02669D01*
X0258Y0334D02*
X02614Y03305D01*
X02514Y0334D02*
X0258D01*
X0271Y03305D02*
X0274Y03335D01*
X02669Y03305D02*
X0271D01*
X02514Y03119D02*
Y0329D01*
X0245Y03055D02*
X02514Y03119D01*
X02145Y03055D02*
X0245D01*
X0206Y0314D02*
X02145Y03055D01*
X0206Y0314D02*
Y0338D01*
X02087Y03407D02*
X02115D01*
X02514Y0344D02*
X0265D01*
X02669Y0342*
X02514Y0344D02*
Y03516D01*
X02485Y03545D02*
X02514Y03516D01*
X02446Y03545D02*
X02485D01*
X02115Y03486D02*
Y0366D01*
X02575*
X0274Y03495*
Y03335D02*
Y03495D01*
G54D19*
X0206Y0338D02*
X02087Y03407D01*
G54D20*
X02325Y03155D02*
Y0342D01*
G54D21*
X02325Y03265D02*
Y0342D01*
X02669Y03379D02*
Y0342D01*
G54D22*
X024Y03499D02*
Y03545D01*
Y03499D02*
X02405Y03495D01*
X02439Y03507D02*
Y03545D01*
X02427Y03495D02*
X02439Y03507D01*
G54D23*
X02705Y0365D03*
Y03085D03*
G54D24*
X02645Y03085D03*
X02705Y03025D03*
X02765Y03085D03*
X0266Y0304D03*
X0275D03*
X0266Y0313D03*
X0275D03*
X02195Y03325D03*
X0217Y0335D03*
Y03305D03*
X0222Y03345D03*
Y03305D03*
X02705Y03145D03*
M02*