%FSTAX23Y23*%
%MOIN*%
%SFA1B1*%

%IPPOS*%
%ADD21C,0.010000*%
%ADD26C,0.009800*%
%ADD27C,0.005900*%
%ADD28C,0.001000*%
%ADD29C,0.007900*%
%ADD30C,0.003900*%
%ADD31C,0.006000*%
%LNvapeix_eeprom_test-1*%
%LPD*%
G36*
X02307Y03064D02*
X02307Y03064D01*
X02308Y03063*
X02309Y03063*
X02309Y03063*
X0231Y03062*
X0231*
X0231Y03062*
X02311Y03062*
X02311Y03061*
X02311Y03061*
X02312Y0306*
X02312Y0306*
X02312Y03059*
X02313Y03059*
Y03059*
X02313Y03058*
X02313Y03057*
X02313Y03057*
X02313Y03056*
X02313Y03054*
Y03053*
Y03036*
X02307*
Y0305*
Y0305*
Y0305*
Y03051*
Y03051*
Y03051*
X02307Y03052*
Y03053*
Y03054*
X02307Y03055*
X02307Y03055*
X02307Y03056*
Y03056*
X02307Y03056*
X02307Y03056*
X02306Y03057*
X02306Y03057*
X02306Y03058*
X02306Y03058*
X02306*
X02305Y03058*
X02305Y03058*
X02305Y03058*
X02304*
X02304Y03058*
X02303*
X02303Y03058*
X02303*
X02302Y03058*
X02302Y03058*
X02302Y03058*
X02301Y03057*
X02301Y03057*
X02301Y03057*
X023Y03057*
X023Y03056*
X023Y03056*
X023Y03055*
X02299Y03055*
Y03055*
Y03054*
X02299Y03054*
X02299Y03053*
X02299Y03053*
Y03053*
Y03052*
X02299Y03051*
Y03051*
Y0305*
Y03049*
Y03049*
Y03036*
X02293*
Y03063*
X02299*
Y03059*
X02299Y03059*
X02299Y0306*
X02299Y0306*
X023Y0306*
X023Y03061*
X02301Y03062*
X02301Y03062*
X02302Y03063*
X02302*
X02302Y03063*
X02303Y03063*
X02303Y03063*
X02304Y03063*
X02304Y03064*
X02305Y03064*
X02306Y03064*
X02306*
X02307Y03064*
G37*
G36*
X02228Y0305D02*
X02236Y03036D01*
X02229*
X02224Y03044*
X0222Y03036*
X02213*
X02221Y0305*
X02213Y03063*
X0222*
X02224Y03056*
X02228Y03063*
X02235*
X02228Y0305*
G37*
G36*
X02432Y03064D02*
X02433D01*
X02434Y03063*
X02435Y03063*
X02436Y03063*
X02437Y03063*
X02437Y03063*
X02437Y03063*
X02437Y03062*
X02438Y03062*
X02438Y03062*
X02439Y03061*
X02439Y03061*
X02439Y0306*
X02439Y0306*
X0244Y0306*
X0244Y03059*
X0244Y03059*
X0244Y03058*
X0244Y03058*
Y03058*
X0244Y03057*
X0244Y03056*
X0244Y03056*
Y03055*
Y03054*
Y03053*
Y03045*
Y03045*
Y03045*
Y03045*
Y03044*
Y03043*
Y03042*
X0244Y03042*
Y03041*
X0244Y0304*
X02441Y0304*
X02441Y03039*
X02441Y03039*
X02441Y03038*
X02441Y03038*
X02441Y03037*
X02442Y03036*
X02436*
X02435Y03039*
X02435*
X02435Y03039*
X02434Y03039*
X02434Y03038*
X02434Y03038*
X02433Y03037*
X02432Y03037*
X02432Y03037*
X02432*
X02432Y03037*
X02431Y03036*
X02431Y03036*
X0243Y03036*
X0243Y03036*
X02429Y03036*
X02428Y03036*
X02428*
X02428Y03036*
X02427Y03036*
X02426Y03036*
X02426Y03036*
X02425Y03037*
X02424Y03037*
X02423Y03038*
X02423Y03038*
X02423Y03038*
X02422Y03039*
X02422Y03039*
X02422Y0304*
X02421Y03041*
X02421Y03042*
X02421Y03044*
Y03044*
Y03044*
Y03044*
X02421Y03045*
X02421Y03046*
X02421Y03046*
X02421Y03047*
X02422Y03048*
X02422Y03048*
X02422Y03048*
X02422Y03048*
X02422Y03049*
X02423Y03049*
X02423Y03049*
X02424Y0305*
X02424Y0305*
X02424Y0305*
X02424Y0305*
X02425Y03051*
X02425Y03051*
X02426Y03051*
X02427Y03051*
X02428Y03052*
X02429Y03052*
X02429*
X02429Y03052*
X0243*
X0243Y03052*
X0243Y03052*
X02431Y03053*
X02432Y03053*
X02433Y03053*
X02434Y03054*
X02434Y03054*
X02435Y03054*
Y03054*
Y03054*
Y03055*
Y03055*
Y03056*
X02434Y03056*
X02434Y03056*
X02434Y03057*
Y03057*
X02434Y03057*
X02434Y03057*
X02433Y03058*
X02433Y03058*
X02433Y03058*
X02432Y03058*
X02432*
X02432Y03058*
X02431Y03058*
X0243*
X0243Y03058*
X0243*
X02429Y03058*
X02429Y03058*
X02428Y03058*
Y03058*
X02428Y03057*
X02428Y03057*
X02428Y03057*
X02428Y03057*
X02427Y03056*
X02427Y03056*
X02427Y03055*
X02422Y03056*
X02422Y03056*
X02422Y03056*
Y03057*
X02422Y03057*
X02422Y03057*
X02422Y03058*
X02423Y03059*
X02423Y0306*
X02424Y03061*
X02425Y03062*
X02425Y03062*
X02425Y03062*
X02426Y03062*
X02426Y03063*
X02427Y03063*
X02428Y03063*
X0243Y03064*
X02431Y03064*
X02432*
X02432Y03064*
G37*
G36*
X02483Y03036D02*
X02477D01*
Y0304*
X02477Y0304*
X02477Y0304*
X02477Y0304*
X02476Y03039*
X02476Y03038*
X02475Y03038*
X02475Y03037*
X02474Y03037*
X02474Y03037*
X02473Y03037*
X02473Y03036*
X02472Y03036*
X02472Y03036*
X02471Y03036*
X0247Y03036*
X0247*
X0247Y03036*
X02469Y03036*
X02469Y03036*
X02468Y03036*
X02467Y03037*
X02467Y03037*
X02466Y03037*
X02465Y03038*
X02465Y03038*
X02464Y03039*
X02464Y03039*
X02464Y0304*
X02464Y0304*
X02464Y0304*
X02463Y0304*
X02463Y0304*
X02463Y03041*
X02463Y03042*
X02462Y03042*
X02462Y03043*
X02462Y03044*
X02462Y03044*
X02462Y03045*
X02461Y03046*
X02461Y03047*
X02461Y03049*
Y0305*
Y0305*
Y0305*
Y03051*
Y03051*
Y03052*
X02461Y03052*
X02461Y03053*
X02461Y03054*
X02462Y03055*
X02462Y03057*
X02463Y03059*
X02463Y0306*
X02464Y0306*
X02464Y0306*
Y0306*
X02464Y03061*
X02464Y03061*
X02465Y03061*
X02466Y03062*
X02467Y03063*
X02468Y03063*
X02468Y03063*
X02469Y03064*
X0247Y03064*
X0247Y03064*
X02471*
X02471Y03064*
X02471*
X02472Y03064*
X02473Y03063*
X02473Y03063*
X02474Y03063*
X02474Y03063*
X02474Y03062*
X02475Y03062*
X02475Y03062*
X02476Y03061*
X02476Y03061*
X02477Y0306*
Y03073*
X02483*
Y03036*
G37*
G36*
X02457Y03064D02*
X02457Y03064D01*
X02458Y03063*
X02459Y03063*
X02459Y03063*
X0246Y03062*
X02458Y03056*
X02458Y03056*
X02458Y03057*
X02457Y03057*
X02457Y03057*
X02456Y03057*
X02456Y03057*
X02455Y03057*
X02455*
X02455Y03057*
X02455*
X02454Y03057*
X02454Y03057*
X02454Y03057*
X02453Y03056*
X02453Y03056*
X02453Y03056*
X02453Y03056*
X02453Y03055*
X02452Y03055*
X02452Y03054*
X02452Y03053*
Y03053*
Y03053*
Y03053*
X02452Y03053*
Y03052*
X02452Y03052*
Y03051*
Y03051*
X02452Y0305*
Y03049*
Y03049*
Y03048*
X02452Y03047*
Y03046*
Y03045*
Y03036*
X02446*
Y03063*
X02451*
Y03059*
Y03059*
X02451Y0306*
X02452Y0306*
X02452Y03061*
X02452Y03061*
X02453Y03062*
X02453Y03062*
X02454Y03063*
X02454Y03063*
X02454Y03063*
X02454Y03063*
X02454Y03063*
X02455Y03063*
X02455Y03064*
X02456*
X02456Y03064*
X02456*
X02457Y03064*
G37*
G36*
X02288D02*
X02288Y03064D01*
X02289Y03063*
X02289Y03063*
X0229Y03063*
X02291Y03062*
X02289Y03056*
X02289*
X02289Y03056*
X02288Y03057*
X02288Y03057*
X02288Y03057*
X02287Y03057*
X02287Y03057*
X02286Y03057*
X02286*
X02286Y03057*
X02286*
X02285Y03057*
X02285Y03057*
X02284Y03057*
X02284Y03056*
X02284*
X02284Y03056*
X02284Y03056*
X02284Y03056*
X02283Y03055*
X02283Y03055*
X02283Y03054*
X02283Y03053*
Y03053*
X02283Y03053*
Y03053*
X02283Y03053*
Y03052*
Y03052*
Y03051*
X02283Y03051*
Y0305*
Y03049*
X02282Y03049*
Y03048*
Y03047*
Y03046*
Y03045*
Y03036*
X02277*
Y03063*
X02282*
Y03059*
X02282Y03059*
X02282Y0306*
X02282Y0306*
X02283Y03061*
X02283Y03061*
X02284Y03062*
X02284Y03062*
X02284Y03063*
Y03063*
X02285Y03063*
X02285Y03063*
X02285Y03063*
X02286Y03063*
X02286Y03064*
X02286*
X02287Y03064*
X02287*
X02288Y03064*
G37*
G36*
X0238Y03073D02*
X02381Y03073D01*
X02382Y03073*
X02383Y03073*
X02384Y03073*
X02385Y03073*
X02385Y03072*
X02385*
X02386Y03072*
X02386Y03072*
X02386Y03072*
X02387Y03071*
X02388Y03071*
X02388Y0307*
X02389Y03069*
Y03069*
X02389Y03069*
X02389Y03068*
X02389Y03068*
X0239Y03067*
X0239Y03066*
X0239Y03065*
X0239Y03064*
Y03064*
Y03064*
X0239Y03063*
X0239Y03062*
X0239Y03062*
X0239Y03061*
X02389Y0306*
X02389Y03059*
X02389Y03059*
X02389Y03059*
X02388Y03058*
X02388Y03058*
X02388Y03057*
X02387Y03057*
X02386Y03056*
X02386Y03056*
X02386*
X02386Y03056*
X02387Y03056*
X02387Y03055*
X02388Y03055*
X02389Y03054*
X02389Y03054*
X0239Y03053*
X0239Y03053*
X0239Y03052*
X0239Y03052*
X02391Y03051*
X02391Y0305*
X02391Y03049*
X02391Y03048*
X02392Y03047*
Y03047*
Y03047*
X02391Y03046*
Y03046*
Y03046*
X02391Y03045*
X02391Y03044*
X02391Y03043*
X0239Y03041*
X0239Y0304*
X02389Y0304*
X02389Y0304*
X02389Y03039*
X02388Y03039*
X02388Y03038*
X02387Y03038*
X02386Y03037*
X02385Y03037*
X02385*
X02385Y03037*
X02385*
X02384*
X02384*
X02384Y03037*
X02383*
X02383Y03037*
X02382*
X02381*
X02381Y03036*
X0238*
X02379Y03036*
X02366*
Y03073*
X02379*
X0238Y03073*
G37*
G36*
X02407Y03064D02*
X02408D01*
X02408Y03064*
X02409Y03063*
X0241Y03063*
X0241Y03063*
X02411Y03063*
X02412Y03062*
X02412Y03062*
X02413Y03062*
X02414Y03061*
X02414Y0306*
X02415Y0306*
Y0306*
X02415Y03059*
X02415Y03059*
X02415Y03059*
X02416Y03058*
X02416Y03058*
X02416Y03057*
X02416Y03057*
X02417Y03056*
X02417Y03055*
X02417Y03055*
X02417Y03054*
X02418Y03052*
X02418Y03051*
Y0305*
Y0305*
Y03049*
Y03049*
Y03049*
Y03048*
X02418Y03047*
X02418Y03046*
X02417Y03045*
X02417Y03044*
X02416Y03042*
X02416Y03042*
X02416Y03042*
X02416Y03042*
X02416Y03041*
X02415Y03041*
X02415Y0304*
X02414Y03039*
X02413Y03038*
X02412Y03037*
X02412*
Y03037*
X02412Y03037*
X02411Y03037*
X02411Y03037*
X0241Y03036*
X02409Y03036*
X02408Y03036*
X02407Y03036*
X02406*
X02406Y03036*
X02405Y03036*
X02405Y03036*
X02404Y03036*
X02404Y03036*
X02402Y03037*
X02402Y03037*
X02401Y03037*
X024Y03038*
X024Y03038*
X02399Y03039*
X02398Y0304*
X02398*
X02398Y0304*
X02398Y0304*
X02398Y0304*
X02398Y03041*
X02397Y03041*
X02397Y03042*
X02397Y03042*
X02397Y03043*
X02396Y03044*
X02396Y03045*
X02396Y03046*
X02396Y03047*
X02395Y03048*
X02395Y03049*
Y0305*
Y0305*
Y0305*
Y0305*
Y03051*
Y03051*
X02395Y03052*
X02395Y03052*
X02396Y03054*
X02396Y03055*
X02396Y03056*
X02397Y03057*
Y03057*
X02397Y03057*
X02397Y03058*
X02397Y03058*
X02397Y03058*
X02398Y03059*
X02398Y0306*
X02399Y03061*
X024Y03061*
X02401Y03062*
X02401*
X02401Y03062*
X02402Y03063*
X02402Y03063*
X02403Y03063*
X02404Y03063*
X02405Y03064*
X02407Y03064*
X02407*
X02407Y03064*
G37*
G36*
X02262D02*
X02263D01*
X02263Y03064*
X02264Y03063*
X02266Y03063*
X02266Y03063*
X02267Y03062*
X02267Y03062*
X02268Y03061*
X02268Y03061*
X02269Y0306*
X02269*
Y0306*
X02269Y0306*
X0227Y03059*
X0227Y03059*
X0227Y03059*
X0227Y03058*
X02271Y03057*
X02271Y03056*
X02271Y03056*
X02271Y03055*
X02272Y03054*
X02272Y03053*
X02272Y03051*
X02272Y0305*
X02272Y03049*
Y03048*
X02258*
Y03048*
Y03048*
Y03047*
Y03047*
X02258Y03047*
X02258Y03046*
X02258Y03045*
X02258Y03044*
X02259Y03043*
X02259Y03043*
X02259Y03043*
X02259Y03042*
X0226Y03042*
X0226Y03042*
X02261Y03041*
X02262Y03041*
X02262Y03041*
X02262*
X02263Y03041*
X02263Y03041*
X02264Y03042*
X02264Y03042*
X02264Y03042*
X02265Y03042*
X02265Y03043*
X02265Y03043*
X02266Y03044*
X02266Y03044*
X02266Y03045*
X02272Y03044*
Y03044*
X02272Y03044*
Y03043*
X02272Y03043*
X02272Y03043*
X02271Y03042*
X02271Y03041*
X0227Y0304*
X0227Y03039*
X02269Y03039*
X02268Y03038*
X02268Y03038*
X02268Y03037*
X02267Y03037*
X02267Y03037*
X02266Y03036*
X02265Y03036*
X02263Y03036*
X02262Y03036*
X02262*
X02261Y03036*
X02261Y03036*
X02261*
X02259Y03036*
X02258Y03037*
X02258Y03037*
X02257Y03037*
X02256Y03038*
X02256Y03038*
X02255Y03038*
X02255Y03039*
X02255*
Y03039*
X02254Y03039*
X02254Y0304*
X02254Y0304*
X02254Y03041*
X02253Y03041*
X02253Y03042*
X02253Y03042*
X02253Y03043*
X02252Y03044*
X02252Y03045*
X02252Y03046*
X02252Y03047*
X02252Y03048*
Y0305*
Y0305*
Y0305*
Y03051*
X02252Y03051*
Y03052*
X02252Y03053*
X02252Y03053*
X02252Y03055*
X02253Y03056*
X02253Y03057*
X02253Y03058*
X02254Y03059*
X02254Y0306*
X02255Y0306*
X02255Y0306*
X02255Y03061*
X02255Y03061*
X02256Y03061*
X02256Y03061*
X02257Y03062*
X02258Y03063*
X02259Y03063*
X02259Y03063*
X0226Y03064*
X02261Y03064*
X02262Y03064*
X02262*
X02262Y03064*
G37*
G36*
X02245Y03063D02*
X02249D01*
Y03058*
X02245*
Y03047*
Y03047*
Y03047*
Y03046*
Y03046*
Y03046*
Y03045*
X02245Y03044*
Y03044*
X02245Y03043*
Y03043*
Y03043*
X02246Y03043*
X02246Y03042*
X02246Y03042*
X02246Y03042*
X02246Y03042*
X02247Y03042*
X02247*
X02247Y03042*
X02247Y03042*
X02248*
X02248Y03042*
X02249Y03042*
X02249Y03042*
X0225Y03037*
X0225Y03037*
X02249Y03037*
X02249Y03037*
X02248Y03036*
X02248Y03036*
X02247Y03036*
X02246Y03036*
X02245Y03036*
X02245*
X02244Y03036*
X02244Y03036*
X02243Y03036*
X02243Y03036*
X02242Y03037*
X02242Y03037*
X02241*
X02241Y03037*
X02241Y03037*
X02241Y03038*
X02241Y03038*
X0224Y03039*
X0224Y03039*
X0224Y0304*
Y0304*
Y0304*
X0224Y03041*
Y03041*
X0224Y03042*
Y03042*
Y03042*
Y03043*
Y03044*
X02239Y03044*
Y03045*
Y03046*
Y03058*
X02237*
Y03063*
X02239*
Y03068*
X02245Y03073*
Y03063*
G37*
G36*
X02348Y03036D02*
X02343D01*
Y03073*
X02348*
Y03036*
G37*
G36*
X02329Y03064D02*
X0233D01*
X02331Y03063*
X02332Y03063*
X02332Y03063*
X02333Y03063*
X02333Y03063*
X02334Y03063*
X02334Y03062*
X02334Y03062*
X02335Y03062*
X02335Y03061*
X02336Y03061*
X02336Y0306*
Y0306*
X02336Y0306*
X02336Y03059*
X02336Y03059*
Y03058*
X02337Y03058*
X02337Y03058*
Y03057*
X02337Y03056*
Y03056*
Y03055*
X02337Y03054*
Y03053*
X02337Y03045*
Y03045*
Y03045*
Y03045*
Y03044*
X02337Y03043*
Y03042*
Y03042*
X02337Y03041*
X02337Y0304*
Y0304*
X02337Y03039*
X02337Y03039*
X02338Y03038*
X02338Y03038*
X02338Y03037*
X02338Y03036*
X02332*
X02332Y03039*
X02331Y03039*
X02331Y03039*
X02331Y03038*
X0233Y03038*
X0233Y03037*
X02329Y03037*
X02328Y03037*
X02328*
X02328Y03037*
X02328Y03036*
X02327Y03036*
X02327Y03036*
X02326Y03036*
X02326Y03036*
X02325Y03036*
X02325*
X02324Y03036*
X02324Y03036*
X02323Y03036*
X02322Y03036*
X02321Y03037*
X0232Y03037*
X0232Y03038*
X02319Y03038*
X02319Y03038*
X02319Y03039*
X02319Y03039*
X02318Y0304*
X02318Y03041*
X02318Y03042*
X02318Y03044*
Y03044*
Y03044*
X02318Y03044*
Y03045*
X02318Y03046*
X02318Y03046*
X02318Y03047*
X02318Y03048*
Y03048*
X02319Y03048*
X02319Y03048*
X02319Y03049*
X02319Y03049*
X0232Y03049*
X0232Y0305*
X02321Y0305*
X02321Y0305*
X02321Y0305*
X02321Y03051*
X02322Y03051*
X02323Y03051*
X02323Y03051*
X02324Y03052*
X02326Y03052*
X02326*
X02326*
X02326Y03052*
X02326*
X02327Y03052*
X02327Y03052*
X02328Y03053*
X02329Y03053*
X0233Y03053*
X02331Y03054*
X02331Y03054*
X02331Y03054*
Y03054*
Y03054*
Y03055*
X02331Y03055*
Y03056*
Y03056*
X02331Y03056*
X02331Y03057*
X02331Y03057*
X02331Y03057*
X0233Y03057*
X0233Y03058*
X0233*
X0233Y03058*
X02329Y03058*
X02329Y03058*
X02329*
X02328Y03058*
X02328Y03058*
X02327*
X02327Y03058*
X02326*
X02326Y03058*
X02325Y03058*
X02325Y03058*
X02325Y03058*
X02325Y03057*
X02325Y03057*
X02324Y03057*
X02324Y03057*
X02324Y03056*
X02324Y03056*
X02323Y03055*
X02318Y03056*
Y03056*
X02318Y03056*
X02318Y03057*
X02319Y03057*
X02319Y03057*
X02319Y03058*
X02319Y03059*
X0232Y0306*
X02321Y03061*
X02321Y03062*
X02321Y03062*
X02322Y03062*
X02322Y03062*
X02323Y03063*
X02324Y03063*
X02325Y03063*
X02326Y03064*
X02328Y03064*
X02328*
X02329Y03064*
G37*
G36*
X0221Y03067D02*
X02194D01*
Y03059*
X02209*
Y03053*
X02194*
Y03043*
X02211*
Y03036*
X02188*
Y03073*
X0221*
Y03067*
G37*
G36*
X02639Y03619D02*
X02632Y03617D01*
Y03606*
X02639Y03604*
Y03599*
X02607Y03609*
Y03615*
X02639Y03625*
Y03619*
G37*
G36*
X02614Y03105D02*
X02615D01*
X02616Y03105*
X02616Y03105*
X02617Y03105*
X02618Y03105*
X02619Y03105*
X0262Y03104*
X02622Y03104*
X02623Y03103*
X02624Y03103*
X02624Y03102*
X02625Y03102*
X02625Y03102*
X02626Y03101*
X02626Y03101*
X02626Y03101*
X02626Y03101*
X02627Y031*
X02627Y031*
X02627Y03099*
X02628Y03099*
X02628Y03098*
X02628Y03097*
X02629Y03096*
X02629Y03096*
X02629Y03095*
X02629Y03094*
Y03093*
Y03092*
Y03092*
Y03092*
X02629Y03091*
X02629Y03091*
X02629Y0309*
X02629Y03089*
X02629Y03089*
X02628Y03088*
X02628Y03087*
X02628Y03086*
X02627Y03086*
X02627Y03085*
X02626Y03084*
X02625Y03084*
X02625Y03084*
X02625Y03084*
X02625Y03083*
X02625Y03083*
X02624Y03083*
X02624Y03083*
X02623Y03082*
X02622Y03082*
X02621Y03081*
X0262Y03081*
X02619Y03081*
X02618Y03081*
X02617Y0308*
X02616Y0308*
X02615Y0308*
X02613Y0308*
X02613*
X02612Y0308*
X02612*
X02611*
X0261Y0308*
X0261*
X02608Y0308*
X02607Y03081*
X02605Y03081*
X02604Y03081*
X02604Y03082*
X02604Y03082*
X02603Y03082*
X02603Y03082*
X02603Y03082*
X02602Y03082*
X02602Y03083*
X02601Y03083*
X026Y03084*
X02599Y03085*
X02598Y03086*
X02598Y03086*
X02598Y03086*
Y03086*
X02598Y03087*
X02598Y03087*
X02597Y03087*
X02597Y03088*
X02597Y03089*
X02597Y0309*
X02596Y03091*
X02596Y03093*
Y03093*
Y03093*
Y03093*
Y03094*
X02596Y03094*
X02597Y03095*
X02597Y03095*
X02597Y03096*
X02597Y03097*
X02597Y03097*
X02598Y03098*
X02598Y03099*
X02599Y031*
X02599Y031*
X026Y03101*
X02601Y03102*
Y03102*
X02601Y03102*
X02601Y03102*
X02601Y03102*
X02602Y03103*
X02602Y03103*
X02603Y03103*
X02604Y03104*
X02605Y03104*
X02606Y03104*
X02607Y03105*
X02608Y03105*
X02609Y03105*
X0261Y03105*
X02611Y03105*
X02613Y03105*
X02614*
X02614Y03105*
G37*
G36*
X02639Y03699D02*
X02614D01*
X02639Y03694*
Y03689*
X02614Y03684*
X02639*
Y03679*
X02607*
Y03687*
X02629Y03691*
X02607Y03696*
Y03704*
X02639*
Y03699*
G37*
G36*
X02602Y0307D02*
X02629D01*
Y03065*
X02602*
Y03057*
X02597*
Y03078*
X02602*
Y0307*
G37*
G36*
X0263Y03708D02*
X02624D01*
Y03718*
X0263*
Y03708*
G37*
G36*
X02629Y0305D02*
X02622Y03048D01*
Y03037*
X02629Y03035*
Y0303*
X02597Y0304*
Y03045*
X02629Y03056*
Y0305*
G37*
G36*
X02612Y03639D02*
X02639D01*
Y03634*
X02612*
Y03626*
X02607*
Y03647*
X02612*
Y03639*
G37*
G36*
X02616Y0315D02*
X02624D01*
Y03146*
X02616*
Y03139*
X0261*
Y03146*
X02602*
Y0315*
X0261*
Y03157*
X02616*
Y0315*
G37*
G36*
X02624Y03675D02*
X02625D01*
X02626Y03674*
X02626Y03674*
X02627Y03674*
X02628Y03674*
X02629Y03674*
X0263Y03673*
X02632Y03673*
X02633Y03673*
X02634Y03672*
X02634Y03671*
X02635Y03671*
X02635Y03671*
X02636Y03671*
X02636Y0367*
X02636Y0367*
X02636Y0367*
X02637Y03669*
X02637Y03669*
X02637Y03668*
X02638Y03668*
X02638Y03667*
X02638Y03666*
X02639Y03666*
X02639Y03665*
X02639Y03664*
X02639Y03663*
Y03662*
Y03662*
Y03661*
Y03661*
X02639Y0366*
X02639Y0366*
X02639Y03659*
X02639Y03659*
X02639Y03658*
X02638Y03657*
X02638Y03656*
X02638Y03656*
X02637Y03655*
X02637Y03654*
X02636Y03654*
X02635Y03653*
X02635*
X02635Y03653*
X02635Y03653*
X02635Y03652*
X02634Y03652*
X02634Y03652*
X02633Y03651*
X02632Y03651*
X02631Y03651*
X0263Y0365*
X02629Y0365*
X02628Y0365*
X02627Y03649*
X02626Y03649*
X02625Y03649*
X02623*
X02623*
X02622*
X02622*
X02621Y03649*
X0262*
X0262Y03649*
X02618Y0365*
X02617Y0365*
X02615Y0365*
X02614Y03651*
X02614Y03651*
X02614Y03651*
X02613*
X02613Y03651*
X02613Y03651*
X02612Y03651*
X02612Y03652*
X02611Y03653*
X0261Y03653*
X02609Y03654*
X02608Y03655*
X02608Y03655*
X02608Y03655*
Y03656*
X02608Y03656*
X02608Y03656*
X02607Y03657*
X02607Y03657*
X02607Y03658*
X02607Y03659*
X02606Y0366*
X02606Y03662*
Y03662*
Y03662*
Y03662*
Y03663*
X02606Y03663*
X02607Y03664*
X02607Y03664*
X02607Y03665*
X02607Y03666*
X02607Y03667*
X02608Y03667*
X02608Y03668*
X02609Y03669*
X02609Y0367*
X0261Y0367*
X02611Y03671*
X02611Y03671*
X02611Y03671*
X02611Y03672*
X02612Y03672*
X02612Y03672*
X02613Y03673*
X02614Y03673*
X02615Y03673*
X02616Y03673*
X02617Y03674*
X02618Y03674*
X02619Y03674*
X0262Y03674*
X02621Y03675*
X02623*
X02624*
X02624*
G37*
G36*
X02629Y0313D02*
X02604D01*
X02629Y03125*
Y0312*
X02604Y03114*
X02629*
Y03109*
X02597*
Y03117*
X02619Y03122*
X02597Y03127*
Y03135*
X02629*
Y0313*
G37*
%LNvapeix_eeprom_test-2*%
%LPC*%
G36*
X02435Y03049D02*
D01*
X02434Y03049*
X02434*
X02434Y03049*
X02433Y03049*
X02433Y03049*
X02432Y03048*
X02431Y03048*
X02431*
X02431Y03048*
X0243Y03048*
X0243Y03048*
X02429Y03047*
X02428Y03047*
X02428Y03047*
X02428Y03047*
X02428Y03047*
X02427Y03046*
X02427Y03046*
X02427Y03046*
X02427Y03046*
X02427Y03045*
Y03045*
X02427Y03044*
Y03044*
X02427Y03044*
Y03043*
X02427Y03043*
X02427Y03043*
X02427Y03042*
X02428Y03042*
X02428Y03042*
X02428Y03042*
X02428Y03041*
X02428Y03041*
X02429Y03041*
X02429Y03041*
X0243Y03041*
X0243Y03041*
X0243*
X0243Y03041*
X02431*
X02431Y03041*
X02432Y03041*
X02432Y03041*
X02432Y03042*
Y03042*
X02433Y03042*
X02433Y03042*
X02433Y03042*
X02434Y03043*
X02434Y03043*
X02434Y03044*
Y03044*
X02434Y03044*
X02434Y03045*
X02434Y03045*
X02435Y03046*
Y03047*
Y03048*
Y03049*
G37*
G36*
X02472Y03058D02*
X02472D01*
X02472Y03058*
X02471*
X02471Y03058*
X0247Y03058*
X0247Y03057*
X02469Y03057*
X02468Y03056*
X02468Y03056*
X02468Y03056*
X02468Y03055*
X02468Y03055*
X02468Y03054*
X02467Y03053*
X02467Y03052*
X02467Y0305*
Y0305*
Y0305*
Y0305*
Y0305*
X02467Y03049*
Y03048*
X02467Y03047*
X02467Y03046*
X02467Y03046*
X02468Y03045*
X02468*
Y03045*
X02468Y03044*
X02468Y03044*
X02469Y03043*
X02469Y03043*
X02469Y03042*
Y03042*
X0247*
X0247Y03042*
X0247Y03042*
X02471Y03042*
X02471Y03042*
X02472Y03041*
X02472Y03041*
X02472*
X02472Y03041*
X02473*
X02473Y03042*
X02474Y03042*
X02474Y03042*
X02475Y03043*
X02475Y03043*
X02475Y03043*
X02475Y03044*
X02476Y03044*
X02476Y03045*
X02476Y03046*
X02476Y03047*
X02477Y03048*
Y0305*
Y0305*
Y0305*
Y0305*
Y0305*
Y03051*
Y03051*
X02477Y03052*
X02476Y03053*
X02476Y03054*
X02476Y03055*
X02476Y03056*
X02475Y03056*
X02475Y03056*
X02475Y03057*
X02475Y03057*
X02474Y03057*
X02474Y03058*
X02473Y03058*
X02473Y03058*
X02472Y03058*
G37*
G36*
X02378Y03067D02*
X02372D01*
Y03059*
X02378*
X02379Y03059*
X0238*
X02381*
X02381*
X02381Y03059*
X02381*
X02382Y03059*
X02382Y03059*
X02382Y03059*
X02383Y0306*
X02383Y0306*
X02383*
X02383Y0306*
X02383Y0306*
X02384Y03061*
X02384Y03061*
X02384Y03062*
X02384Y03062*
Y03063*
Y03063*
Y03063*
Y03064*
X02384Y03064*
X02384Y03065*
X02384Y03065*
X02383Y03066*
X02383Y03066*
Y03066*
X02383Y03066*
X02383Y03066*
X02382Y03067*
X02382Y03067*
X02382Y03067*
X02381Y03067*
X02381*
X02381*
X0238Y03067*
X0238*
X02379*
X02379*
X02378Y03067*
G37*
G36*
X02379Y03053D02*
X02372D01*
Y03043*
X02379*
X0238*
X02381Y03043*
X02381*
X02382Y03043*
X02382Y03043*
X02383Y03043*
X02383*
X02383Y03043*
X02383Y03043*
X02384Y03044*
X02384Y03044*
X02384Y03044*
X02384Y03045*
X02385Y03045*
X02385Y03045*
X02385Y03045*
X02385Y03046*
X02385Y03046*
X02385Y03047*
Y03047*
Y03048*
Y03048*
X02385Y03048*
X02385Y03049*
X02385Y03049*
X02385Y0305*
X02384Y0305*
Y0305*
X02384Y03051*
X02384Y03051*
X02384Y03051*
X02384Y03051*
X02383Y03052*
X02383Y03052*
X02382Y03052*
X02382*
X02382*
X02382Y03052*
X02381Y03052*
X02381Y03052*
X0238Y03052*
X02379*
X02379Y03053*
G37*
G36*
X02407Y03058D02*
X02406D01*
X02406*
X02406Y03058*
X02405Y03058*
X02405Y03057*
X02404Y03057*
X02403Y03057*
X02403Y03056*
X02403Y03056*
X02402Y03055*
X02402Y03055*
X02402Y03054*
X02402Y03053*
X02401Y03052*
X02401Y03051*
X02401Y0305*
Y0305*
Y03049*
Y03049*
X02401Y03049*
Y03048*
X02401Y03047*
X02402Y03046*
X02402Y03045*
X02402Y03044*
X02403Y03044*
X02403Y03043*
X02403Y03043*
X02403Y03043*
X02404Y03043*
X02404Y03042*
X02405Y03042*
X02406Y03042*
X02407Y03042*
X02407*
X02407Y03042*
X02407*
X02408Y03042*
X02408Y03042*
X02409Y03042*
X0241Y03043*
X0241Y03044*
X0241Y03044*
X02411Y03044*
X02411Y03045*
X02411Y03045*
X02411Y03046*
X02412Y03047*
X02412Y03048*
X02412Y0305*
Y0305*
Y0305*
Y0305*
Y0305*
X02412Y03051*
Y03051*
X02412Y03052*
X02412Y03053*
X02411Y03054*
X02411Y03055*
X0241Y03056*
Y03056*
X0241Y03056*
X0241Y03056*
X02409Y03057*
X02409Y03057*
X02408Y03058*
X02407Y03058*
X02407Y03058*
G37*
G36*
X02262Y03058D02*
X02262D01*
X02261Y03058*
X02261Y03058*
X0226Y03058*
X0226Y03058*
X02259Y03057*
X02259Y03057*
Y03057*
X02259Y03056*
X02259Y03056*
X02258Y03055*
X02258Y03055*
X02258Y03054*
X02258Y03053*
Y03052*
X02266*
Y03052*
Y03052*
Y03052*
Y03053*
X02266Y03053*
X02266Y03054*
X02266Y03055*
X02266Y03055*
X02265Y03056*
X02265Y03057*
X02265Y03057*
X02265Y03057*
X02265Y03057*
X02264Y03058*
X02264Y03058*
X02263Y03058*
X02263Y03058*
X02262Y03058*
G37*
G36*
X02331Y03049D02*
X02331D01*
X02331Y03049*
X02331*
X0233Y03049*
X0233Y03049*
X02329Y03049*
X02329Y03048*
X02328Y03048*
X02328*
X02327Y03048*
X02327Y03048*
X02326Y03048*
X02326Y03047*
X02325Y03047*
X02325Y03047*
X02324Y03047*
X02324Y03047*
Y03046*
X02324Y03046*
X02324Y03046*
X02324Y03046*
X02324Y03045*
X02323Y03045*
Y03044*
Y03044*
Y03044*
X02324Y03043*
X02324Y03043*
X02324Y03043*
X02324Y03042*
X02324Y03042*
Y03042*
X02324Y03042*
X02325Y03041*
X02325Y03041*
X02325Y03041*
X02326Y03041*
X02326Y03041*
X02327Y03041*
X02327*
X02327Y03041*
X02327*
X02328Y03041*
X02328Y03041*
X02329Y03041*
X02329Y03042*
X02329Y03042*
X02329Y03042*
X02329Y03042*
X0233Y03042*
X0233Y03043*
X02331Y03043*
X02331Y03044*
Y03044*
X02331Y03044*
X02331Y03045*
Y03045*
X02331Y03046*
X02331Y03047*
Y03048*
Y03049*
G37*
G36*
X02626Y03615D02*
X02614Y03612D01*
X02626Y03608*
Y03615*
G37*
G36*
X02614Y031D02*
X02612D01*
X02612Y031*
X02611*
X02611*
X0261Y031*
X0261Y031*
X02608Y03099*
X02607Y03099*
X02606Y03099*
X02605Y03098*
X02605Y03098*
X02604*
X02604Y03098*
X02604Y03098*
X02604Y03097*
X02603Y03097*
X02603Y03096*
X02602Y03095*
X02602Y03094*
X02602Y03094*
Y03093*
X02602Y03093*
Y03093*
Y03092*
X02602Y03092*
Y03092*
X02602Y03092*
X02602Y03091*
X02603Y0309*
X02603Y0309*
X02603Y03089*
X02603Y03089*
X02604Y03088*
X02604Y03088*
X02605Y03087*
X02605*
X02605Y03087*
X02605Y03087*
X02605Y03087*
X02605Y03087*
X02606Y03087*
X02606Y03087*
X02607Y03086*
X02607Y03086*
X02608Y03086*
X02608Y03086*
X02609Y03086*
X0261Y03086*
X02611Y03086*
X02612*
X02613Y03085*
X02613*
X02614Y03086*
X02614*
X02615*
X02615Y03086*
X02616Y03086*
X02617Y03086*
X02619Y03086*
X0262Y03087*
X02621Y03087*
X02621Y03088*
X02621*
Y03088*
X02621Y03088*
X02622Y03088*
X02622Y03088*
X02622Y03089*
X02623Y0309*
X02623Y03091*
X02624Y03091*
X02624Y03092*
X02624Y03092*
X02624Y03093*
Y03093*
Y03093*
Y03093*
X02624Y03093*
Y03094*
X02624Y03094*
X02623Y03094*
X02623Y03095*
X02623Y03096*
X02623Y03096*
X02622Y03097*
X02622Y03097*
X02622Y03097*
X02621Y03098*
X02621*
X02621Y03098*
X02621Y03098*
X02621Y03098*
X0262Y03098*
X0262Y03099*
X0262Y03099*
X02619Y03099*
X02618Y03099*
X02618Y03099*
X02617Y03099*
X02616Y031*
X02616Y031*
X02615Y031*
X02614Y031*
G37*
G36*
X02616Y03046D02*
X02604Y03043D01*
X02616Y03039*
Y03046*
G37*
G36*
X02624Y03669D02*
X02622D01*
X02622Y03669*
X02621*
X02621*
X0262Y03669*
X0262Y03669*
X02618Y03669*
X02617Y03668*
X02616Y03668*
X02615Y03667*
X02615Y03667*
X02614Y03667*
X02614Y03667*
X02614Y03667*
X02614Y03666*
X02613Y03666*
X02613Y03665*
X02612Y03664*
X02612Y03664*
X02612Y03663*
Y03662*
X02612Y03662*
Y03662*
Y03662*
X02612Y03661*
Y03661*
X02612Y03661*
X02612Y0366*
X02613Y03659*
X02613Y03659*
X02613Y03658*
X02613Y03658*
X02614Y03657*
X02614Y03657*
X02615Y03657*
X02615*
X02615Y03657*
X02615Y03656*
X02615Y03656*
X02615Y03656*
X02616Y03656*
X02616Y03656*
X02617Y03656*
X02617Y03655*
X02618Y03655*
X02618Y03655*
X02619Y03655*
X0262Y03655*
X02621Y03655*
X02622Y03655*
X02623*
X02623*
X02624*
X02624*
X02625Y03655*
X02625Y03655*
X02626Y03655*
X02627Y03655*
X02629Y03656*
X0263Y03656*
X02631Y03656*
X02631Y03657*
X02631*
Y03657*
X02631Y03657*
X02632Y03657*
X02632Y03658*
X02632Y03658*
X02633Y03659*
X02633Y0366*
X02634Y0366*
X02634Y03661*
X02634Y03661*
X02634Y03662*
Y03662*
Y03662*
Y03662*
X02634Y03662*
Y03663*
X02634Y03663*
X02633Y03664*
X02633Y03665*
X02633Y03665*
X02633Y03665*
X02632Y03666*
X02632Y03666*
X02632Y03667*
X02631Y03667*
X02631*
X02631Y03667*
X02631Y03667*
X02631Y03667*
X0263Y03668*
X0263Y03668*
X0263Y03668*
X02629Y03668*
X02628Y03668*
X02628Y03668*
X02627Y03669*
X02626Y03669*
X02626Y03669*
X02625Y03669*
X02624Y03669*
G37*
%LNvapeix_eeprom_test-3*%
%LPD*%
G54D21*
X01841Y0357D02*
X02154D01*
X01841Y03166D02*
Y0357D01*
X01841Y03434D02*
X01976D01*
Y033D02*
Y03434D01*
X01842Y033D02*
X01976D01*
X02154Y03166D02*
Y0357D01*
X01841Y03166D02*
X02154D01*
X02648Y0343D02*
X02692D01*
X02042Y03321D02*
X02035Y03314D01*
Y03301*
X02042Y03295*
X02068*
X02075Y03301*
Y03314*
X02068Y03321*
X02035Y03354D02*
Y0334D01*
X02042Y03334*
X02068*
X02075Y0334*
Y03354*
X02068Y0336*
X02042*
X02035Y03354*
X02075Y03373D02*
X02035D01*
X02075Y034*
X02035*
X02075Y03413D02*
Y03426D01*
Y03419*
X02035*
X02042Y03413*
X02245Y03549D02*
Y03516D01*
X02251Y0351*
X02264*
X02271Y03516*
Y03549*
X02284Y0351D02*
X02297D01*
X0229*
Y03549*
X02284Y03542*
X02375Y03174D02*
X02401D01*
X02388*
Y03135*
X02414D02*
Y03174D01*
X02434*
X0244Y03167*
Y03154*
X02434Y03148*
X02414*
X0248Y03135D02*
X02453D01*
X0248Y03161*
Y03167*
X02473Y03174*
X0246*
X02453Y03167*
X02165Y03684D02*
X02191D01*
X02178*
Y03645*
X02204D02*
Y03684D01*
X02224*
X0223Y03677*
Y03664*
X02224Y03658*
X02204*
X02243Y03645D02*
X02256D01*
X0225*
Y03684*
X02243Y03677*
X02645Y03499D02*
Y0346D01*
X02664*
X02671Y03466*
Y03492*
X02664Y03499*
X02645*
X02684Y0346D02*
X02697D01*
X0269*
Y03499*
X02684Y03492*
X02421Y03622D02*
X02414Y03629D01*
X02401*
X02395Y03622*
Y03596*
X02401Y0359*
X02414*
X02421Y03596*
X02434Y0359D02*
X02447D01*
X0244*
Y03629*
X02434Y03622*
G54D26*
X02054Y0325D02*
D01*
X02054Y0325*
X02054Y0325*
X02054Y03251*
X02054Y03251*
X02054Y03251*
X02054Y03251*
X02054Y03252*
X02054Y03252*
X02053Y03252*
X02053Y03253*
X02053Y03253*
X02053Y03253*
X02053Y03253*
X02052Y03254*
X02052Y03254*
X02052Y03254*
X02051Y03254*
X02051Y03254*
X02051Y03254*
X0205Y03254*
X0205Y03254*
X0205Y03254*
X02049*
X02049Y03254*
X02049Y03254*
X02048Y03254*
X02048Y03254*
X02048Y03254*
X02047Y03254*
X02047Y03254*
X02047Y03254*
X02046Y03253*
X02046Y03253*
X02046Y03253*
X02046Y03253*
X02046Y03252*
X02045Y03252*
X02045Y03252*
X02045Y03251*
X02045Y03251*
X02045Y03251*
X02045Y03251*
X02045Y0325*
X02045Y0325*
X02045Y0325*
X02045Y03249*
X02045Y03249*
X02045Y03248*
X02045Y03248*
X02045Y03248*
X02045Y03248*
X02045Y03247*
X02045Y03247*
X02046Y03247*
X02046Y03246*
X02046Y03246*
X02046Y03246*
X02046Y03246*
X02047Y03245*
X02047Y03245*
X02047Y03245*
X02048Y03245*
X02048Y03245*
X02048Y03245*
X02049Y03245*
X02049Y03245*
X02049Y03245*
X0205*
X0205Y03245*
X0205Y03245*
X02051Y03245*
X02051Y03245*
X02051Y03245*
X02052Y03245*
X02052Y03245*
X02052Y03245*
X02053Y03246*
X02053Y03246*
X02053Y03246*
X02053Y03246*
X02053Y03247*
X02054Y03247*
X02054Y03247*
X02054Y03248*
X02054Y03248*
X02054Y03248*
X02054Y03248*
X02054Y03249*
X02054Y03249*
X02054Y0325*
X02329Y03473D02*
D01*
X02329Y03473*
X02329Y03474*
X02329Y03474*
X02329Y03474*
X02329Y03475*
X02329Y03475*
X02329Y03475*
X02329Y03476*
X02328Y03476*
X02328Y03476*
X02328Y03476*
X02328Y03477*
X02328Y03477*
X02327Y03477*
X02327Y03477*
X02327Y03477*
X02326Y03478*
X02326Y03478*
X02326Y03478*
X02325Y03478*
X02325Y03478*
X02325Y03478*
X02324*
X02324Y03478*
X02324Y03478*
X02323Y03478*
X02323Y03478*
X02323Y03478*
X02322Y03477*
X02322Y03477*
X02322Y03477*
X02321Y03477*
X02321Y03477*
X02321Y03476*
X02321Y03476*
X02321Y03476*
X0232Y03476*
X0232Y03475*
X0232Y03475*
X0232Y03475*
X0232Y03474*
X0232Y03474*
X0232Y03474*
X0232Y03473*
X0232Y03473*
X0232Y03473*
X0232Y03472*
X0232Y03472*
X0232Y03472*
X0232Y03471*
X0232Y03471*
X0232Y03471*
X0232Y0347*
X02321Y0347*
X02321Y0347*
X02321Y0347*
X02321Y03469*
X02321Y03469*
X02322Y03469*
X02322Y03469*
X02322Y03469*
X02323Y03468*
X02323Y03468*
X02323Y03468*
X02324Y03468*
X02324Y03468*
X02324Y03468*
X02325*
X02325Y03468*
X02325Y03468*
X02326Y03468*
X02326Y03468*
X02326Y03468*
X02327Y03469*
X02327Y03469*
X02327Y03469*
X02328Y03469*
X02328Y03469*
X02328Y0347*
X02328Y0347*
X02328Y0347*
X02329Y0347*
X02329Y03471*
X02329Y03471*
X02329Y03471*
X02329Y03472*
X02329Y03472*
X02329Y03472*
X02329Y03473*
X02329Y03473*
G54D27*
X0236Y03155D02*
D01*
X0236Y03157*
X0236Y03159*
X02359Y03162*
X02359Y03164*
X02358Y03167*
X02357Y03169*
X02356Y03171*
X02355Y03173*
X02353Y03175*
X02352Y03177*
X0235Y03179*
X02348Y03181*
X02346Y03182*
X02344Y03184*
X02342Y03185*
X0234Y03186*
X02338Y03187*
X02335Y03188*
X02333Y03189*
X02331Y03189*
X02328Y0319*
X02326Y0319*
X02323*
X02321Y0319*
X02318Y03189*
X02316Y03189*
X02314Y03188*
X02311Y03187*
X02309Y03186*
X02307Y03185*
X02305Y03184*
X02303Y03182*
X02301Y03181*
X02299Y03179*
X02297Y03177*
X02296Y03175*
X02294Y03173*
X02293Y03171*
X02292Y03169*
X02291Y03167*
X0229Y03164*
X0229Y03162*
X02289Y03159*
X02289Y03157*
X02289Y03155*
X02289Y03152*
X02289Y0315*
X0229Y03147*
X0229Y03145*
X02291Y03142*
X02292Y0314*
X02293Y03138*
X02294Y03136*
X02296Y03134*
X02297Y03132*
X02299Y0313*
X02301Y03128*
X02303Y03127*
X02305Y03125*
X02307Y03124*
X02309Y03123*
X02311Y03122*
X02314Y03121*
X02316Y0312*
X02318Y0312*
X02321Y03119*
X02323Y03119*
X02326*
X02328Y03119*
X02331Y0312*
X02333Y0312*
X02335Y03121*
X02338Y03122*
X0234Y03123*
X02342Y03124*
X02344Y03125*
X02346Y03127*
X02348Y03128*
X0235Y0313*
X02352Y03132*
X02353Y03134*
X02355Y03136*
X02356Y03138*
X02357Y0314*
X02358Y03142*
X02359Y03145*
X02359Y03147*
X0236Y0315*
X0236Y03152*
X0236Y03155*
X0215Y0366D02*
D01*
X0215Y03662*
X0215Y03664*
X02149Y03667*
X02149Y03669*
X02148Y03672*
X02147Y03674*
X02146Y03676*
X02145Y03678*
X02143Y0368*
X02142Y03682*
X0214Y03684*
X02138Y03686*
X02136Y03687*
X02134Y03689*
X02132Y0369*
X0213Y03691*
X02128Y03692*
X02125Y03693*
X02123Y03694*
X02121Y03694*
X02118Y03695*
X02116Y03695*
X02113*
X02111Y03695*
X02108Y03694*
X02106Y03694*
X02104Y03693*
X02101Y03692*
X02099Y03691*
X02097Y0369*
X02095Y03689*
X02093Y03687*
X02091Y03686*
X02089Y03684*
X02087Y03682*
X02086Y0368*
X02084Y03678*
X02083Y03676*
X02082Y03674*
X02081Y03672*
X0208Y03669*
X0208Y03667*
X02079Y03664*
X02079Y03662*
X02079Y0366*
X02079Y03657*
X02079Y03655*
X0208Y03652*
X0208Y0365*
X02081Y03647*
X02082Y03645*
X02083Y03643*
X02084Y03641*
X02086Y03639*
X02087Y03637*
X02089Y03635*
X02091Y03633*
X02093Y03632*
X02095Y0363*
X02097Y03629*
X02099Y03628*
X02101Y03627*
X02104Y03626*
X02106Y03625*
X02108Y03625*
X02111Y03624*
X02113Y03624*
X02116*
X02118Y03624*
X02121Y03625*
X02123Y03625*
X02125Y03626*
X02128Y03627*
X0213Y03628*
X02132Y03629*
X02134Y0363*
X02136Y03632*
X02138Y03633*
X0214Y03635*
X02142Y03637*
X02143Y03639*
X02145Y03641*
X02146Y03643*
X02147Y03645*
X02148Y03647*
X02149Y0365*
X02149Y03652*
X0215Y03655*
X0215Y03657*
X0215Y0366*
G54D28*
X02118Y03015D02*
X02122D01*
X02115Y03016D02*
X02125D01*
X02114Y03017D02*
X02126D01*
X02112Y03018D02*
X02128D01*
X02111Y03019D02*
X02129D01*
X0211Y0302D02*
X02129D01*
X0211Y03021D02*
X0213D01*
X02109Y03022D02*
X02131D01*
X02109Y03023D02*
X02131D01*
X02108Y03024D02*
X02131D01*
X02108Y03025D02*
X02132D01*
X02108Y03026D02*
X02132D01*
X02106Y03027D02*
X02134D01*
X02104Y03028D02*
X02136D01*
X02102Y03029D02*
X02138D01*
X021Y0303D02*
X0214D01*
X02132Y03031D02*
X02141D01*
X02109D02*
X0213D01*
X02099D02*
X02108D01*
X02134Y03032D02*
X02143D01*
X0211D02*
X0213D01*
X02097D02*
X02106D01*
X02136Y03033D02*
X02144D01*
X0211D02*
X02129D01*
X02096D02*
X02104D01*
X02138Y03034D02*
X02145D01*
X02111D02*
X02129D01*
X02095D02*
X02102D01*
X02139Y03035D02*
X02146D01*
X02112D02*
X02128D01*
X02094D02*
X02101D01*
X0214Y03036D02*
X02147D01*
X02113D02*
X02126D01*
X02093D02*
X02099D01*
X02142Y03037D02*
X02148D01*
X02115D02*
X02125D01*
X02092D02*
X02098D01*
X02143Y03038D02*
X02149D01*
X02118D02*
X02122D01*
X02091D02*
X02097D01*
X02144Y03039D02*
X0215D01*
X0209D02*
X02096D01*
X02145Y0304D02*
X0215D01*
X02089D02*
X02095D01*
X02146Y03041D02*
X02151D01*
X02089D02*
X02094D01*
X02146Y03042D02*
X02152D01*
X02088D02*
X02094D01*
X02147Y03043D02*
X02152D01*
X02088D02*
X02093D01*
X02148Y03044D02*
X02153D01*
X02087D02*
X02092D01*
X02148Y03045D02*
X02153D01*
X02086D02*
X02092D01*
X02149Y03046D02*
X02154D01*
X02086D02*
X02091D01*
X02149Y03047D02*
X02155D01*
X02086D02*
X0209D01*
X0215Y03048D02*
X02155D01*
X02085D02*
X0209D01*
X0215Y03049D02*
X02155D01*
X02085D02*
X0209D01*
X02151Y0305D02*
X02156D01*
X02083D02*
X02089D01*
X0215Y03051D02*
X0216D01*
X0208D02*
X02089D01*
X02148Y03052D02*
X02162D01*
X02078D02*
X02091D01*
X02147Y03053D02*
X02163D01*
X02077D02*
X02093D01*
X02146Y03054D02*
X02164D01*
X02076D02*
X02094D01*
X02145Y03055D02*
X02165D01*
X02075D02*
X02094D01*
X02145Y03056D02*
X02165D01*
X02074D02*
X02095D01*
X02144Y03057D02*
X02166D01*
X02074D02*
X02095D01*
X02144Y03058D02*
X02166D01*
X02074D02*
X02096D01*
X02144Y03059D02*
X02166D01*
X02074D02*
X02096D01*
X02143Y0306D02*
X02166D01*
X02073D02*
X02096D01*
X02143Y03061D02*
X02166D01*
X02073D02*
X02096D01*
X02143Y03062D02*
X02166D01*
X02073D02*
X02096D01*
X02143Y03063D02*
X02166D01*
X02073D02*
X02096D01*
X02144Y03064D02*
X02166D01*
X02074D02*
X02096D01*
X02144Y03065D02*
X02166D01*
X02074D02*
X02096D01*
X02144Y03066D02*
X02166D01*
X02074D02*
X02095D01*
X02145Y03067D02*
X02165D01*
X02075D02*
X02095D01*
X02146Y03068D02*
X02165D01*
X02075D02*
X02095D01*
X02146Y03069D02*
X02164D01*
X02076D02*
X02093D01*
X02147Y0307D02*
X02163D01*
X02077D02*
X02092D01*
X02148Y03071D02*
X02162D01*
X02078D02*
X02091D01*
X0215Y03072D02*
X0216D01*
X0208D02*
X0209D01*
X02151Y03073D02*
X02155D01*
X02084D02*
X02089D01*
X0215Y03074D02*
X02155D01*
X02085D02*
X0209D01*
X0215Y03075D02*
X02155D01*
X02085D02*
X0209D01*
X02149Y03076D02*
X02154D01*
X02086D02*
X02091D01*
X02149Y03077D02*
X02154D01*
X02086D02*
X02091D01*
X02148Y03078D02*
X02153D01*
X02086D02*
X02092D01*
X02148Y03079D02*
X02153D01*
X02087D02*
X02092D01*
X02147Y0308D02*
X02152D01*
X02087D02*
X02093D01*
X02146Y03081D02*
X02152D01*
X02088D02*
X02094D01*
X02146Y03082D02*
X02151D01*
X02089D02*
X02095D01*
X02144Y03083D02*
X0215D01*
X0209D02*
X02095D01*
X02144Y03084D02*
X02149D01*
X0209D02*
X02096D01*
X02143Y03085D02*
X02149D01*
X02118D02*
X02121D01*
X02091D02*
X02097D01*
X02141Y03086D02*
X02148D01*
X02115D02*
X02125D01*
X02092D02*
X02098D01*
X0214Y03087D02*
X02147D01*
X02113D02*
X02127D01*
X02093D02*
X021D01*
X02139Y03088D02*
X02146D01*
X02112D02*
X02128D01*
X02094D02*
X02101D01*
X02137Y03089D02*
X02145D01*
X02111D02*
X02129D01*
X02095D02*
X02102D01*
X02136Y0309D02*
X02144D01*
X0211D02*
X02129D01*
X02096D02*
X02104D01*
X02134Y03091D02*
X02143D01*
X0211D02*
X0213D01*
X02097D02*
X02106D01*
X02131Y03092D02*
X02141D01*
X02109D02*
X0213D01*
X02099D02*
X02108D01*
X021Y03093D02*
X0214D01*
X02102Y03094D02*
X02138D01*
X02104Y03095D02*
X02136D01*
X02106Y03096D02*
X02134D01*
X02108Y03097D02*
X02132D01*
X02108Y03098D02*
X02131D01*
X02108Y03099D02*
X02131D01*
X02109Y031D02*
X02131D01*
X02109Y03101D02*
X02131D01*
X0211Y03102D02*
X0213D01*
X02111Y03103D02*
X02129D01*
X02111Y03104D02*
X02129D01*
X02112Y03105D02*
X02128D01*
X02114Y03106D02*
X02126D01*
X02116Y03107D02*
X02124D01*
G54D29*
X02384Y03266D02*
X02454D01*
X02384Y03463D02*
X02454D01*
Y03266D02*
Y03463D01*
X02384Y03266D02*
Y03463D01*
X02491Y03511D02*
X02485Y03516D01*
X02475*
X0247Y03511*
Y0349*
X02475Y03485*
X02485*
X02491Y0349*
X02501Y03479D02*
X02522D01*
X02533Y03516D02*
X02554D01*
X02543*
Y03485*
G54D30*
X02639Y03289D02*
Y03419D01*
X027Y03288D02*
Y03418D01*
G54D31*
X02455Y03531D02*
Y03558D01*
X02384Y03531D02*
Y03558D01*
X0241*
X02429D02*
X02455D01*
X02384Y03531D02*
X0241D01*
X02429D02*
X02455D01*
M02*